<?xml version="1.0" encoding="UTF-8" standalone="no"?><!DOCTYPE svg PUBLIC "-//W3C//DTD SVG 1.1//EN" "http://www.w3.org/Graphics/SVG/1.1/DTD/svg11.dtd"><svg width="100%" height="100%" viewBox="0 0 2500 2500" version="1.1" xmlns="http://www.w3.org/2000/svg" xmlns:xlink="http://www.w3.org/1999/xlink" xml:space="preserve" xmlns:serif="http://www.serif.com/" style="fill-rule:evenodd;clip-rule:evenodd;stroke-linecap:round;stroke-linejoin:round;stroke-miterlimit:10;"><circle cx="1257.92" cy="1410.83" r="800" style="fill:#331f5b;fill-opacity:0.15;"/><g><path d="M1671.67,1027.5c-90.417,-97.5 -211.667,-160 -342.917,-176.25l0,-23.333c7.5,-0.417 13.75,-6.667 13.75,-14.584l0,-63.75l7.083,-26.25c0.417,-1.25 0.417,-2.5 0.417,-3.75l0,-44.583c0,-7.917 -6.667,-14.583 -14.583,-14.583l-13.334,-0c-6.666,-7.917 -14.166,-14.584 -23.333,-20l0,-55.834c0,-5 -2.5,-9.583 -6.25,-12.083l0,-75c0,-19.583 -15.833,-35.417 -35.417,-35.417c-19.583,0 -35.416,15.834 -35.416,35.417l-0,75.833c-3.334,2.5 -5.417,6.667 -5.417,11.25l0,55.834c-8.75,5 -16.667,11.666 -23.333,20l-13.75,-0c-7.917,-0 -14.584,6.666 -14.584,14.583l0,44.167c0,1.25 0,2.5 0.417,3.75l7.083,26.25l0,63.75c0,7.916 6.25,14.166 13.75,14.583l0,23.333c-125.833,16.25 -242.916,74.584 -332.083,165.834c-10.833,-3.75 -22.083,-5.834 -33.75,-5.834c-51.667,0 -93.75,37.917 -100.417,87.917c-25.416,12.5 -42.083,39.167 -42.083,68.333c0,30 17.083,56.25 43.333,68.75c-18.333,56.25 -27.5,115 -27.5,174.584c0,163.333 70.834,318.333 194.167,425.833l2.083,1.667c3.334,2.916 7.084,5.833 10.417,8.75l3.333,2.916c4.167,3.334 8.334,6.667 12.5,9.584l0.417,0.416c4.167,3.334 8.75,6.667 12.917,9.584l3.333,2.5l13.75,9.166c4.583,2.917 9.167,5.834 13.75,8.75l3.333,2.084c3.75,2.083 7.5,4.583 11.25,6.666c35.834,20.834 73.75,37.5 112.917,50l16.25,5c1.25,0.417 2.083,0.417 3.333,0.417l1.25,0.417c6.667,1.666 13.334,3.333 20,5l1.25,0.416c12.917,2.917 26.25,5.834 40,7.917l2.917,0.417c6.667,0.833 13.333,2.083 20,2.5l1.25,-0c5.833,0.833 12.083,1.25 18.75,1.666l2.917,0.417c6.25,0.417 12.5,0.833 19.166,1.25l3.75,0c7.5,0.417 13.75,0.417 20,0.417c5.834,-0 12.084,-0 20,-0.417l4.167,0c7.083,-0.417 13.333,-0.833 19.583,-1.25l2.084,0c5.833,-0.417 12.083,-1.25 18.333,-1.667l2.917,-0.416c6.666,-0.834 12.916,-1.667 19.583,-2.5l2.5,-0.417c13.333,-2.083 26.667,-4.583 39.583,-7.917l2.084,-0.416c13.333,-3.334 26.666,-6.667 39.166,-10.834c38.75,-12.083 76.25,-28.75 111.25,-48.75c5,-2.916 10,-5.833 15,-8.75l1.25,-0.833c4.584,-2.917 8.75,-5.417 12.917,-8.333l2.917,-1.667c9.166,-6.25 18.75,-12.917 27.5,-19.583l2.5,-1.667c3.75,-2.917 7.5,-5.833 11.25,-8.75l2.083,-1.667c4.583,-3.75 8.75,-7.083 12.917,-10.833l0.833,-0.833c3.75,-3.334 7.5,-6.667 11.667,-10.417l2.5,-2.5c114.583,-106.25 180,-257.083 180,-413.333c-0.834,-142.5 -54.167,-278.75 -151.25,-382.917Z" style="fill:#fff;fill-rule:nonzero;"/><g><g><circle cx="1257.92" cy="1410.83" r="537.083" style="fill:#f7a031;"/><circle cx="1257.92" cy="1410.83" r="537.083" style="fill:#f7a031;"/><circle cx="1257.92" cy="1410.83" r="537.083" style="fill:none;stroke:#140735;stroke-width:16.67px;"/><circle cx="1257.92" cy="1410.83" r="400.417" style="fill:#fbc14c;"/><circle cx="1257.92" cy="1410.83" r="258.333" style="fill:#ffdb81;"/><g><path d="M1602.08,1345.42l-6.666,-0l-0,-3.75c-0,-26.667 -21.667,-47.917 -47.917,-47.917c-23.333,0 -42.917,16.667 -47.083,38.75l-0.417,0c-19.583,0 -35.417,15.833 -35.417,35.417c0,19.583 15.834,35.416 35.417,35.416l102.5,0c16.25,0 29.167,-12.916 29.167,-29.166c-0,-16.25 -13.334,-28.75 -29.584,-28.75Z" style="fill:#fff;fill-rule:nonzero;"/><path d="M1602.08,1345.42l-6.666,-0l-0,-3.75c-0,-26.667 -21.667,-47.917 -47.917,-47.917c-23.333,0 -42.917,16.667 -47.083,38.75l-0.417,0c-19.583,0 -35.417,15.833 -35.417,35.417c0,19.583 15.834,35.416 35.417,35.416l102.5,0c16.25,0 29.167,-12.916 29.167,-29.166c-0,-16.25 -13.334,-28.75 -29.584,-28.75Z" style="fill:none;fill-rule:nonzero;stroke:#140735;stroke-width:16.67px;"/></g><path d="M1377.5,950.833c-3.333,0 -5.833,-2.5 -5.833,-5.833c-0,-4.167 -3.334,-7.917 -7.917,-7.917c-4.167,0 -7.917,3.334 -7.917,7.917c0,3.333 -2.5,5.833 -5.833,5.833c-4.167,0 -7.917,3.334 -7.917,7.917c0,4.167 3.334,7.917 7.917,7.917c3.333,-0 5.833,2.5 5.833,5.833c0,4.167 3.334,7.917 7.917,7.917c4.167,-0 7.917,-3.334 7.917,-7.917c-0,-3.333 2.5,-5.833 5.833,-5.833c4.167,-0 7.917,-3.334 7.917,-7.917c-0,-4.583 -3.75,-7.917 -7.917,-7.917Z" style="fill:#f7a031;fill-opacity:0.6;fill-rule:nonzero;"/><path d="M1560,1531.67c-2.917,-0 -5.417,-2.5 -5.417,-5.417c0,-3.75 -3.333,-7.083 -7.083,-7.083c-3.75,-0 -7.083,3.333 -7.083,7.083c-0,2.917 -2.5,5.417 -5.417,5.417c-3.75,-0 -7.083,3.333 -7.083,7.083c-0,3.75 3.333,7.083 7.083,7.083c2.917,0 5.417,2.5 5.417,5.417c-0,3.75 3.333,7.083 7.083,7.083c3.75,0 7.083,-3.333 7.083,-7.083c0,-2.917 2.5,-5.417 5.417,-5.417c3.75,0 7.083,-3.333 7.083,-7.083c-0.416,-4.167 -3.333,-7.083 -7.083,-7.083Z" style="fill:#f7a031;fill-opacity:0.6;fill-rule:nonzero;"/><path d="M1043.75,1437.08c-2.5,0 -4.583,-2.083 -4.583,-4.583c-0,-3.333 -2.5,-5.833 -5.834,-5.833c-3.333,-0 -5.833,2.5 -5.833,5.833c0,2.5 -2.083,4.583 -4.583,4.583c-3.334,0 -5.834,2.5 -5.834,5.834c0,3.333 2.5,5.833 5.834,5.833c2.5,-0 4.583,2.083 4.583,4.583c0,3.334 2.5,5.834 5.833,5.834c3.334,-0 5.834,-2.5 5.834,-5.834c-0,-2.5 2.083,-4.583 4.583,-4.583c3.333,-0 5.833,-2.5 5.833,-5.833c0,-3.334 -2.5,-5.834 -5.833,-5.834Z" style="fill:#f7a031;fill-opacity:0.6;fill-rule:nonzero;"/><path d="M822.5,1372.92c-1.667,-0 -2.5,-1.25 -2.5,-2.5c0,-2.084 -1.667,-3.75 -3.75,-3.75c-2.083,-0 -3.75,1.666 -3.75,3.75c0,1.666 -1.25,2.5 -2.5,2.5c-2.083,-0 -3.75,1.666 -3.75,3.75c0,2.083 1.667,3.75 3.75,3.75c1.667,-0 2.5,1.25 2.5,2.5c0,2.083 1.667,3.75 3.75,3.75c2.083,-0 3.75,-1.667 3.75,-3.75c0,-1.667 1.25,-2.5 2.5,-2.5c2.083,-0 3.75,-1.667 3.75,-3.75c0,-2.084 -1.667,-3.75 -3.75,-3.75Z" style="fill:#fff;fill-rule:nonzero;"/><path d="M1571.25,1094.58c-2.083,0 -4.167,-1.666 -4.167,-4.166c0,-2.917 -2.5,-5.417 -5.416,-5.417c-2.917,-0 -5.417,2.5 -5.417,5.417c-0,2.083 -1.667,4.166 -4.167,4.166c-2.916,0 -5.416,2.5 -5.416,5.417c-0,2.917 2.5,5.417 5.416,5.417c2.084,-0 4.167,1.666 4.167,4.166c-0,2.917 2.5,5.417 5.417,5.417c2.916,0 5.416,-2.5 5.416,-5.417c0,-2.083 1.667,-4.166 4.167,-4.166c2.917,-0 5.417,-2.5 5.417,-5.417c-0.417,-3.333 -2.5,-5.417 -5.417,-5.417Z" style="fill:#fff;fill-rule:nonzero;"/><path d="M1117.5,1108.75c-2.083,0 -4.167,-1.667 -4.167,-4.167c0,-2.916 -2.5,-5.416 -5.416,-5.416c-2.917,-0 -5.417,2.5 -5.417,5.416c-0,2.084 -1.667,4.167 -4.167,4.167c-2.916,0 -5.416,2.5 -5.416,5.417c-0,2.916 2.5,5.416 5.416,5.416c2.084,0 4.167,1.667 4.167,4.167c-0,2.917 2.5,5.417 5.417,5.417c2.916,-0 5.416,-2.5 5.416,-5.417c0,-2.083 1.667,-4.167 4.167,-4.167c2.917,0 5.417,-2.5 5.417,-5.416c-0,-2.917 -2.5,-5.417 -5.417,-5.417Z" style="fill:#fff;fill-opacity:0.49;fill-rule:nonzero;"/><g><path d="M972.917,1127.92l-0,-0.417c-0,-32.917 -26.667,-59.583 -59.584,-59.583c-10.416,-0 -20.416,2.916 -29.166,7.5c-12.917,-22.084 -36.667,-37.084 -64.167,-37.084c-40.833,0 -74.167,32.917 -74.167,74.167c0,2.083 0,4.583 0.417,6.667c-23.75,3.75 -41.667,24.166 -41.667,48.75c0,27.083 22.084,49.166 49.167,49.166l212.5,0c23.75,0 42.917,-19.166 42.917,-42.916l-0,-3.75c0.416,-22.084 -15.417,-39.584 -36.25,-42.5Z" style="fill:#fff;fill-rule:nonzero;"/><path d="M972.917,1127.92l-0,-0.417c-0,-32.917 -26.667,-59.583 -59.584,-59.583c-10.416,-0 -20.416,2.916 -29.166,7.5c-12.917,-22.084 -36.667,-37.084 -64.167,-37.084c-40.833,0 -74.167,32.917 -74.167,74.167c0,2.083 0,4.583 0.417,6.667c-23.75,3.75 -41.667,24.166 -41.667,48.75c0,27.083 22.084,49.166 49.167,49.166l212.5,0c23.75,0 42.917,-19.166 42.917,-42.916l-0,-3.75c0.416,-22.084 -15.417,-39.584 -36.25,-42.5Z" style="fill:none;fill-rule:nonzero;stroke:#140735;stroke-width:16.67px;"/></g><g><g><g><path d="M981.25,1978.75l90.833,0c22.917,-87.083 98.334,-147.083 186.25,-147.083c87.5,-0 162.917,60 186.25,147.083l97.084,0l-111.25,-170.833c-0,-0 -165.417,-47.917 -155,-55.417c10.416,-7.5 -222.084,97.083 -222.084,97.083l-72.083,129.167Z" style="fill:#af1956;fill-rule:nonzero;"/><path d="M981.25,1978.75l90.833,0c22.917,-87.083 98.334,-147.083 186.25,-147.083c87.5,-0 162.917,60 186.25,147.083l97.084,0l-111.25,-170.833c-0,-0 -165.417,-47.917 -155,-55.417c10.416,-7.5 -222.084,97.083 -222.084,97.083l-72.083,129.167Z" style="fill:none;fill-rule:nonzero;stroke:#140735;stroke-width:12.5px;"/><path d="M1302.08,718.75l-89.166,0c-0,502.5 15.416,837.083 -291.25,1260l115.833,0c23.333,-103.333 113.333,-180.417 220.417,-180.417c107.083,0 197.083,77.084 220.416,180.417l114.584,0c-306.667,-422.917 -290.834,-757.5 -290.834,-1260Zm-110,919.583c56.25,-185 63.334,-447.916 65.834,-587.5c2.5,139.584 9.583,402.5 65.833,587.5l-131.667,0Z" style="fill:#fb2276;fill-rule:nonzero;"/><g><path d="M1264.17,1047.08c-1.25,69.167 15.416,172.084 6.25,277.084c9.166,107.083 25,220.416 53.333,314.166l25,0c-56.25,-185 -82.083,-451.666 -84.583,-591.25Z" style="fill:#fb2276;fill-rule:nonzero;"/><path d="M1237.92,718.75l-25,0c-0,502.5 15.416,837.083 -291.25,1260l25,0c306.666,-422.917 291.25,-757.5 291.25,-1260Z" style="fill:#fb2276;fill-rule:nonzero;"/><path d="M1282.92,1798.33c-4.167,0 -8.334,0 -12.5,0.417c101.666,5.833 185.416,80.833 207.916,180l25,0c-23.333,-103.333 -113.333,-180.417 -220.416,-180.417Z" style="fill:#fb2276;fill-rule:nonzero;"/><path d="M1363.33,1706.25c0,0 42.084,120.833 59.167,150c-19.583,5 -21.25,-2.083 -21.25,-2.083l-17.083,-37.084l-39.167,-110.833l18.333,0Z" style="fill:#fb2276;fill-rule:nonzero;"/></g><path d="M1168.33,1706.25c0,0 -26.666,90.417 -54.166,143.333" style="fill:none;fill-rule:nonzero;stroke:#140735;stroke-width:16.67px;"/><path d="M1345,1706.25c0,0 26.667,90.417 54.167,143.333" style="fill:none;fill-rule:nonzero;stroke:#140735;stroke-width:16.67px;"/><path d="M1323.75,1638.33c-56.25,-185 -63.333,-447.916 -65.833,-587.5c-2.5,139.584 -9.584,402.5 -65.834,587.5l131.667,0Z" style="fill:none;fill-rule:nonzero;stroke:#140735;stroke-width:12.5px;"/><g opacity="0.2"><g><path d="M1445.42,1932.92l120,-0" style="fill:none;fill-rule:nonzero;stroke:#140735;stroke-width:4.17px;"/><path d="M953.75,1932.92l115.417,-0" style="fill:none;fill-rule:nonzero;stroke:#140735;stroke-width:4.17px;"/></g><g><path d="M1429.58,1891.25l105,0" style="fill:none;fill-rule:nonzero;stroke:#140735;stroke-width:4.17px;"/><path d="M981.25,1891.25l103.75,0" style="fill:none;fill-rule:nonzero;stroke:#140735;stroke-width:4.17px;"/></g><g><path d="M1400.42,1849.58l107.5,0" style="fill:none;fill-rule:nonzero;stroke:#140735;stroke-width:4.17px;"/><path d="M1006.67,1849.58l107.5,0" style="fill:none;fill-rule:nonzero;stroke:#140735;stroke-width:4.17px;"/></g><g><path d="M1318.33,1807.92l165.834,-0" style="fill:none;fill-rule:nonzero;stroke:#140735;stroke-width:4.17px;"/><path d="M1030.42,1807.92l161.666,-0" style="fill:none;fill-rule:nonzero;stroke:#140735;stroke-width:4.17px;"/></g><g><path d="M1052.5,1766.25l407.917,0" style="fill:none;fill-rule:nonzero;stroke:#140735;stroke-width:4.17px;"/></g><g><path d="M1073.75,1724.58l367.5,0" style="fill:none;fill-rule:nonzero;stroke:#140735;stroke-width:4.17px;"/></g><g><path d="M1091.25,1682.92l331.25,-0" style="fill:none;fill-rule:nonzero;stroke:#140735;stroke-width:4.17px;"/></g><g><path d="M1108.33,1641.25l297.084,0" style="fill:none;fill-rule:nonzero;stroke:#140735;stroke-width:4.17px;"/></g><g><path d="M1312.92,1599.58l78.333,0" style="fill:none;fill-rule:nonzero;stroke:#140735;stroke-width:4.17px;"/><path d="M1122.92,1599.58l80,0" style="fill:none;fill-rule:nonzero;stroke:#140735;stroke-width:4.17px;"/></g><g><path d="M1303.33,1557.92l74.167,-0" style="fill:none;fill-rule:nonzero;stroke:#140735;stroke-width:4.17px;"/><path d="M1136.67,1557.92l75.833,-0" style="fill:none;fill-rule:nonzero;stroke:#140735;stroke-width:4.17px;"/></g><g><path d="M1295.83,1516.25l67.5,0" style="fill:none;fill-rule:nonzero;stroke:#140735;stroke-width:4.17px;"/><path d="M1149.17,1516.25l71.666,0" style="fill:none;fill-rule:nonzero;stroke:#140735;stroke-width:4.17px;"/></g><g><path d="M1289.17,1474.58l65.416,0" style="fill:none;fill-rule:nonzero;stroke:#140735;stroke-width:4.17px;"/><path d="M1158.75,1474.58l69.167,0" style="fill:none;fill-rule:nonzero;stroke:#140735;stroke-width:4.17px;"/></g><g><path d="M1176.25,1391.25l164.583,0" style="fill:none;fill-rule:nonzero;stroke:#140735;stroke-width:4.17px;"/></g><g><path d="M1273.75,1349.58l50,0" style="fill:none;fill-rule:nonzero;stroke:#140735;stroke-width:4.17px;"/><path d="M1185,1349.58l57.917,0" style="fill:none;fill-rule:nonzero;stroke:#140735;stroke-width:4.17px;"/></g><g><path d="M1269.17,1307.92l54.583,-0" style="fill:none;fill-rule:nonzero;stroke:#140735;stroke-width:4.17px;"/><path d="M1192.08,1307.92l54.167,-0" style="fill:none;fill-rule:nonzero;stroke:#140735;stroke-width:4.17px;"/></g><g><path d="M1266.25,1266.25l52.5,0" style="fill:none;fill-rule:nonzero;stroke:#140735;stroke-width:4.17px;"/><path d="M1195.83,1266.25l53.75,0" style="fill:none;fill-rule:nonzero;stroke:#140735;stroke-width:4.17px;"/></g><g><path d="M1264.17,1224.58l50.416,0" style="fill:none;fill-rule:nonzero;stroke:#140735;stroke-width:4.17px;"/><path d="M1200.42,1224.58l51.666,0" style="fill:none;fill-rule:nonzero;stroke:#140735;stroke-width:4.17px;"/></g><g><path d="M1262.5,1182.92l48.75,-0" style="fill:none;fill-rule:nonzero;stroke:#140735;stroke-width:4.17px;"/><path d="M1203.75,1182.92l49.167,-0" style="fill:none;fill-rule:nonzero;stroke:#140735;stroke-width:4.17px;"/></g><g><path d="M1207.92,1141.25l100.416,0" style="fill:none;fill-rule:nonzero;stroke:#140735;stroke-width:4.17px;"/></g><g><path d="M1207.92,1099.58l98.333,0" style="fill:none;fill-rule:nonzero;stroke:#140735;stroke-width:4.17px;"/></g><g><path d="M1210,1057.92l94.583,-0" style="fill:none;fill-rule:nonzero;stroke:#140735;stroke-width:4.17px;"/></g><g><path d="M1211.25,1016.25l92.5,0" style="fill:none;fill-rule:nonzero;stroke:#140735;stroke-width:4.17px;"/></g><g><path d="M1212.08,974.583l91.667,0" style="fill:none;fill-rule:nonzero;stroke:#140735;stroke-width:4.17px;"/></g><g><path d="M1212.08,932.917l90,-0" style="fill:none;fill-rule:nonzero;stroke:#140735;stroke-width:4.17px;"/></g><g><path d="M1212.08,891.25l89.584,0" style="fill:none;fill-rule:nonzero;stroke:#140735;stroke-width:4.17px;"/></g><g><path d="M1213.75,849.583l87.917,0" style="fill:none;fill-rule:nonzero;stroke:#140735;stroke-width:4.17px;"/></g><g><path d="M1214.17,832.917l87.5,-0" style="fill:none;fill-rule:nonzero;stroke:#140735;stroke-width:4.17px;"/></g><g><path d="M1212.92,791.25l102.5,0" style="fill:none;fill-rule:nonzero;stroke:#140735;stroke-width:4.17px;"/></g></g><path d="M1323.75,1638.33c-56.25,-185 -63.333,-447.916 -65.833,-587.5c-2.5,139.584 -9.584,402.5 -65.834,587.5l131.667,0Z" style="fill:none;fill-rule:nonzero;stroke:#140735;stroke-width:16.67px;"/><path d="M1037.5,1978.75c23.333,-103.333 113.333,-180.417 220.417,-180.417c107.083,0 197.083,77.084 220.416,180.417l114.584,0c-306.667,-422.917 -291.25,-757.5 -291.25,-1260l-89.167,0c0,502.5 15.417,837.083 -291.25,1260l116.25,0Z" style="fill:none;fill-rule:nonzero;stroke:#140735;stroke-width:16.67px;"/><g><rect x="1058.75" y="1679.58" width="397.5" height="26.667" style="fill:#00b5e2;"/><rect x="1436.67" y="1679.58" width="19.167" height="26.667" style="fill:#fff;"/><rect x="1075.42" y="1626.67" width="363.75" height="52.917" style="fill:#00b5e2;"/><rect x="1422.5" y="1626.67" width="16.667" height="52.917" style="fill:#fff;"/><rect x="1058.75" y="1679.58" width="397.5" height="26.667" style="fill:none;stroke:#140735;stroke-width:16.67px;"/><rect x="1075.42" y="1626.67" width="363.75" height="52.917" style="fill:none;stroke:#140735;stroke-width:16.67px;"/><g><path d="M1108.33,1647.08l0,13.75" style="fill:none;fill-rule:nonzero;stroke:#140735;stroke-width:8.33px;"/><path d="M1407.5,1647.08l0,13.75" style="fill:none;fill-rule:nonzero;stroke:#140735;stroke-width:8.33px;"/><path d="M1374.17,1647.08l-0,13.75" style="fill:none;fill-rule:nonzero;stroke:#140735;stroke-width:8.33px;"/><path d="M1340.83,1647.08l0,13.75" style="fill:none;fill-rule:nonzero;stroke:#140735;stroke-width:8.33px;"/><path d="M1307.92,1647.08l-0,13.75" style="fill:none;fill-rule:nonzero;stroke:#140735;stroke-width:8.33px;"/><path d="M1274.58,1647.08l0,13.75" style="fill:none;fill-rule:nonzero;stroke:#140735;stroke-width:8.33px;"/><path d="M1241.25,1647.08l0,13.75" style="fill:none;fill-rule:nonzero;stroke:#140735;stroke-width:8.33px;"/><path d="M1207.92,1647.08l-0,13.75" style="fill:none;fill-rule:nonzero;stroke:#140735;stroke-width:8.33px;"/><path d="M1175,1647.08l0,13.75" style="fill:none;fill-rule:nonzero;stroke:#140735;stroke-width:8.33px;"/><path d="M1141.67,1647.08l-0,13.75" style="fill:none;fill-rule:nonzero;stroke:#140735;stroke-width:8.33px;"/></g></g><g><path d="M1340.42,1421.25l-166.25,0l-8.334,-29.167l183.334,0l-8.75,29.167Z" style="fill:#00b5e2;fill-rule:nonzero;"/><path d="M1334.17,1392.08l-7.917,29.167l15,0l7.917,-29.167l-15,0Z" style="fill:#fff;fill-rule:nonzero;"/><path d="M1340.42,1421.25l-166.25,0l-8.334,-29.167l183.334,0l-8.75,29.167Z" style="fill:none;fill-rule:nonzero;stroke:#140735;stroke-width:16.67px;"/><rect x="1151.25" y="1360.83" width="212.083" height="31.667" style="fill:#00b5e2;"/><rect x="1151.25" y="1360.83" width="212.083" height="31.667" style="fill:#00b5e2;"/><rect x="1347.92" y="1360.83" width="15.417" height="31.667" style="fill:#fff;"/><rect x="1151.25" y="1360.83" width="212.083" height="31.667" style="fill:none;stroke:#140735;stroke-width:16.67px;"/></g><path d="M1258.33,718.75l0,332.083" style="fill:none;fill-rule:nonzero;stroke:#140735;stroke-width:16.67px;"/></g></g><g><rect x="1243.75" y="597.083" width="28.333" height="127.5" style="fill:#fb2276;"/><rect x="1261.67" y="597.083" width="10.417" height="127.5" style="fill:#fff;"/><path d="M1257.92,597.083c-7.917,0 -14.167,6.25 -14.167,14.167l0,113.333l28.333,0l0,-113.333c0,-7.5 -6.25,-14.167 -14.166,-14.167Z" style="fill:none;fill-rule:nonzero;stroke:#140735;stroke-width:16.67px;"/><path d="M1257.5,597.083l0,-99.583" style="fill:none;fill-rule:nonzero;stroke:#140735;stroke-width:16.67px;"/><circle cx="1257.92" cy="712.5" r="55.833" style="fill:#00b5e2;"/><path d="M1257.92,656.667c-3.334,-0 -6.25,0.416 -9.167,0.833c26.25,4.583 46.667,27.5 46.667,55c-0,27.5 -20,50.417 -46.667,55c2.917,0.417 6.25,0.833 9.167,0.833c30.833,0 55.833,-25 55.833,-55.833c0,-30.833 -25,-55.833 -55.833,-55.833Z" style="fill:#fff;fill-rule:nonzero;"/><circle cx="1257.92" cy="712.5" r="55.833" style="fill:none;stroke:#140735;stroke-width:12.5px;"/><path d="M1191.25,717.5l7.917,28.333l-0,54.584l116.25,-0l-0,-54.584l7.916,-28.333l-132.083,0Z" style="fill:#00b5e2;fill-rule:nonzero;"/><path d="M1309.58,717.5l-7.916,28.333l-0,54.584l13.75,-0l-0,-54.584l7.916,-28.333l-13.75,0Z" style="fill:#fff;fill-rule:nonzero;"/><path d="M1191.25,717.5l7.917,28.333l-0,54.584l116.25,-0l-0,-54.584l7.916,-28.333l-132.083,0Z" style="fill:none;fill-rule:nonzero;stroke:#140735;stroke-width:16.67px;"/><path d="M1239.17,768.333l-0,32.084" style="fill:none;fill-rule:nonzero;stroke:#140735;stroke-width:12.5px;"/><path d="M1275.42,768.333l-0,32.084" style="fill:none;fill-rule:nonzero;stroke:#140735;stroke-width:12.5px;"/><rect x="1191.25" y="687.5" width="131.667" height="30" style="fill:#00b5e2;"/><rect x="1310" y="687.5" width="13.333" height="30" style="fill:#fff;"/><rect x="1191.25" y="687.5" width="131.667" height="30" style="fill:none;stroke:#140735;stroke-width:16.67px;"/></g></g><g><g><g><path d="M981.25,1978.75l90.833,0c22.917,-87.083 98.334,-147.083 186.25,-147.083c87.5,-0 162.917,60 186.25,147.083l97.084,0l-111.25,-170.833c-0,-0 -165.417,-47.917 -155,-55.417c10.416,-7.5 -222.084,97.083 -222.084,97.083l-72.083,129.167Z" style="fill:#af1956;fill-rule:nonzero;"/><path d="M981.25,1978.75l90.833,0c22.917,-87.083 98.334,-147.083 186.25,-147.083c87.5,-0 162.917,60 186.25,147.083l97.084,0l-111.25,-170.833c-0,-0 -165.417,-47.917 -155,-55.417c10.416,-7.5 -222.084,97.083 -222.084,97.083l-72.083,129.167Z" style="fill:none;fill-rule:nonzero;stroke:#140735;stroke-width:12.5px;"/><path d="M1302.08,718.75l-89.166,0c-0,502.5 15.416,837.083 -291.25,1260l115.833,0c23.333,-103.333 113.333,-180.417 220.417,-180.417c107.083,0 197.083,77.084 220.416,180.417l114.584,0c-306.667,-422.917 -290.834,-757.5 -290.834,-1260Zm-110,919.583c56.25,-185 63.334,-447.916 65.834,-587.5c2.5,139.584 9.583,402.5 65.833,587.5l-131.667,0Z" style="fill:#fb2276;fill-rule:nonzero;"/><g><path d="M1264.17,1047.08c-1.25,69.167 15.416,172.084 6.25,277.084c9.166,107.083 25,220.416 53.333,314.166l25,0c-56.25,-185 -82.083,-451.666 -84.583,-591.25Z" style="fill:#fb2276;fill-rule:nonzero;"/><path d="M1237.92,718.75l-25,0c-0,502.5 15.416,837.083 -291.25,1260l25,0c306.666,-422.917 291.25,-757.5 291.25,-1260Z" style="fill:#fb2276;fill-rule:nonzero;"/><path d="M1282.92,1798.33c-4.167,0 -8.334,0 -12.5,0.417c101.666,5.833 185.416,80.833 207.916,180l25,0c-23.333,-103.333 -113.333,-180.417 -220.416,-180.417Z" style="fill:#fb2276;fill-rule:nonzero;"/><path d="M1363.33,1706.25c0,0 42.084,120.833 59.167,150c-19.583,5 -21.25,-2.083 -21.25,-2.083l-17.083,-37.084l-39.167,-110.833l18.333,0Z" style="fill:#fb2276;fill-rule:nonzero;"/></g><path d="M1168.33,1706.25c0,0 -26.666,90.417 -54.166,143.333" style="fill:none;fill-rule:nonzero;stroke:#140735;stroke-width:16.67px;"/><path d="M1345,1706.25c0,0 26.667,90.417 54.167,143.333" style="fill:none;fill-rule:nonzero;stroke:#140735;stroke-width:16.67px;"/><path d="M1323.75,1638.33c-56.25,-185 -63.333,-447.916 -65.833,-587.5c-2.5,139.584 -9.584,402.5 -65.834,587.5l131.667,0Z" style="fill:none;fill-rule:nonzero;stroke:#140735;stroke-width:12.5px;"/><g opacity="0.2"><g><path d="M1445.42,1932.92l120,-0" style="fill:none;fill-rule:nonzero;stroke:#140735;stroke-width:4.17px;"/><path d="M953.75,1932.92l115.417,-0" style="fill:none;fill-rule:nonzero;stroke:#140735;stroke-width:4.17px;"/></g><g><path d="M1429.58,1891.25l105,0" style="fill:none;fill-rule:nonzero;stroke:#140735;stroke-width:4.17px;"/><path d="M981.25,1891.25l103.75,0" style="fill:none;fill-rule:nonzero;stroke:#140735;stroke-width:4.17px;"/></g><g><path d="M1400.42,1849.58l107.5,0" style="fill:none;fill-rule:nonzero;stroke:#140735;stroke-width:4.17px;"/><path d="M1006.67,1849.58l107.5,0" style="fill:none;fill-rule:nonzero;stroke:#140735;stroke-width:4.17px;"/></g><g><path d="M1318.33,1807.92l165.834,-0" style="fill:none;fill-rule:nonzero;stroke:#140735;stroke-width:4.17px;"/><path d="M1030.42,1807.92l161.666,-0" style="fill:none;fill-rule:nonzero;stroke:#140735;stroke-width:4.17px;"/></g><g><path d="M1052.5,1766.25l407.917,0" style="fill:none;fill-rule:nonzero;stroke:#140735;stroke-width:4.17px;"/></g><g><path d="M1073.75,1724.58l367.5,0" style="fill:none;fill-rule:nonzero;stroke:#140735;stroke-width:4.17px;"/></g><g><path d="M1091.25,1682.92l331.25,-0" style="fill:none;fill-rule:nonzero;stroke:#140735;stroke-width:4.17px;"/></g><g><path d="M1108.33,1641.25l297.084,0" style="fill:none;fill-rule:nonzero;stroke:#140735;stroke-width:4.17px;"/></g><g><path d="M1312.92,1599.58l78.333,0" style="fill:none;fill-rule:nonzero;stroke:#140735;stroke-width:4.17px;"/><path d="M1122.92,1599.58l80,0" style="fill:none;fill-rule:nonzero;stroke:#140735;stroke-width:4.17px;"/></g><g><path d="M1303.33,1557.92l74.167,-0" style="fill:none;fill-rule:nonzero;stroke:#140735;stroke-width:4.17px;"/><path d="M1136.67,1557.92l75.833,-0" style="fill:none;fill-rule:nonzero;stroke:#140735;stroke-width:4.17px;"/></g><g><path d="M1295.83,1516.25l67.5,0" style="fill:none;fill-rule:nonzero;stroke:#140735;stroke-width:4.17px;"/><path d="M1149.17,1516.25l71.666,0" style="fill:none;fill-rule:nonzero;stroke:#140735;stroke-width:4.17px;"/></g><g><path d="M1289.17,1474.58l65.416,0" style="fill:none;fill-rule:nonzero;stroke:#140735;stroke-width:4.17px;"/><path d="M1158.75,1474.58l69.167,0" style="fill:none;fill-rule:nonzero;stroke:#140735;stroke-width:4.17px;"/></g><g><path d="M1176.25,1391.25l164.583,0" style="fill:none;fill-rule:nonzero;stroke:#140735;stroke-width:4.17px;"/></g><g><path d="M1273.75,1349.58l50,0" style="fill:none;fill-rule:nonzero;stroke:#140735;stroke-width:4.17px;"/><path d="M1185,1349.58l57.917,0" style="fill:none;fill-rule:nonzero;stroke:#140735;stroke-width:4.17px;"/></g><g><path d="M1269.17,1307.92l54.583,-0" style="fill:none;fill-rule:nonzero;stroke:#140735;stroke-width:4.17px;"/><path d="M1192.08,1307.92l54.167,-0" style="fill:none;fill-rule:nonzero;stroke:#140735;stroke-width:4.17px;"/></g><g><path d="M1266.25,1266.25l52.5,0" style="fill:none;fill-rule:nonzero;stroke:#140735;stroke-width:4.17px;"/><path d="M1195.83,1266.25l53.75,0" style="fill:none;fill-rule:nonzero;stroke:#140735;stroke-width:4.17px;"/></g><g><path d="M1264.17,1224.58l50.416,0" style="fill:none;fill-rule:nonzero;stroke:#140735;stroke-width:4.17px;"/><path d="M1200.42,1224.58l51.666,0" style="fill:none;fill-rule:nonzero;stroke:#140735;stroke-width:4.17px;"/></g><g><path d="M1262.5,1182.92l48.75,-0" style="fill:none;fill-rule:nonzero;stroke:#140735;stroke-width:4.17px;"/><path d="M1203.75,1182.92l49.167,-0" style="fill:none;fill-rule:nonzero;stroke:#140735;stroke-width:4.17px;"/></g><g><path d="M1207.92,1141.25l100.416,0" style="fill:none;fill-rule:nonzero;stroke:#140735;stroke-width:4.17px;"/></g><g><path d="M1207.92,1099.58l98.333,0" style="fill:none;fill-rule:nonzero;stroke:#140735;stroke-width:4.17px;"/></g><g><path d="M1210,1057.92l94.583,-0" style="fill:none;fill-rule:nonzero;stroke:#140735;stroke-width:4.17px;"/></g><g><path d="M1211.25,1016.25l92.5,0" style="fill:none;fill-rule:nonzero;stroke:#140735;stroke-width:4.17px;"/></g><g><path d="M1212.08,974.583l91.667,0" style="fill:none;fill-rule:nonzero;stroke:#140735;stroke-width:4.17px;"/></g><g><path d="M1212.08,932.917l90,-0" style="fill:none;fill-rule:nonzero;stroke:#140735;stroke-width:4.17px;"/></g><g><path d="M1212.08,891.25l89.584,0" style="fill:none;fill-rule:nonzero;stroke:#140735;stroke-width:4.17px;"/></g><g><path d="M1213.75,849.583l87.917,0" style="fill:none;fill-rule:nonzero;stroke:#140735;stroke-width:4.17px;"/></g><g><path d="M1214.17,832.917l87.5,-0" style="fill:none;fill-rule:nonzero;stroke:#140735;stroke-width:4.17px;"/></g><g><path d="M1212.92,791.25l102.5,0" style="fill:none;fill-rule:nonzero;stroke:#140735;stroke-width:4.17px;"/></g></g><path d="M1323.75,1638.33c-56.25,-185 -63.333,-447.916 -65.833,-587.5c-2.5,139.584 -9.584,402.5 -65.834,587.5l131.667,0Z" style="fill:none;fill-rule:nonzero;stroke:#140735;stroke-width:16.67px;"/><path d="M1037.5,1978.75c23.333,-103.333 113.333,-180.417 220.417,-180.417c107.083,0 197.083,77.084 220.416,180.417l114.584,0c-306.667,-422.917 -291.25,-757.5 -291.25,-1260l-89.167,0c0,502.5 15.417,837.083 -291.25,1260l116.25,0Z" style="fill:none;fill-rule:nonzero;stroke:#140735;stroke-width:16.67px;"/><g><rect x="1058.75" y="1679.58" width="397.5" height="26.667" style="fill:#00b5e2;"/><rect x="1436.67" y="1679.58" width="19.167" height="26.667" style="fill:#fff;"/><rect x="1075.42" y="1626.67" width="363.75" height="52.917" style="fill:#00b5e2;"/><rect x="1422.5" y="1626.67" width="16.667" height="52.917" style="fill:#fff;"/><rect x="1058.75" y="1679.58" width="397.5" height="26.667" style="fill:none;stroke:#140735;stroke-width:16.67px;"/><rect x="1075.42" y="1626.67" width="363.75" height="52.917" style="fill:none;stroke:#140735;stroke-width:16.67px;"/><g><path d="M1108.33,1647.08l0,13.75" style="fill:none;fill-rule:nonzero;stroke:#140735;stroke-width:8.33px;"/><path d="M1407.5,1647.08l0,13.75" style="fill:none;fill-rule:nonzero;stroke:#140735;stroke-width:8.33px;"/><path d="M1374.17,1647.08l-0,13.75" style="fill:none;fill-rule:nonzero;stroke:#140735;stroke-width:8.33px;"/><path d="M1340.83,1647.08l0,13.75" style="fill:none;fill-rule:nonzero;stroke:#140735;stroke-width:8.33px;"/><path d="M1307.92,1647.08l-0,13.75" style="fill:none;fill-rule:nonzero;stroke:#140735;stroke-width:8.33px;"/><path d="M1274.58,1647.08l0,13.75" style="fill:none;fill-rule:nonzero;stroke:#140735;stroke-width:8.33px;"/><path d="M1241.25,1647.08l0,13.75" style="fill:none;fill-rule:nonzero;stroke:#140735;stroke-width:8.33px;"/><path d="M1207.92,1647.08l-0,13.75" style="fill:none;fill-rule:nonzero;stroke:#140735;stroke-width:8.33px;"/><path d="M1175,1647.08l0,13.75" style="fill:none;fill-rule:nonzero;stroke:#140735;stroke-width:8.33px;"/><path d="M1141.67,1647.08l-0,13.75" style="fill:none;fill-rule:nonzero;stroke:#140735;stroke-width:8.33px;"/></g></g><g><path d="M1340.42,1421.25l-166.25,0l-8.334,-29.167l183.334,0l-8.75,29.167Z" style="fill:#00b5e2;fill-rule:nonzero;"/><path d="M1334.17,1392.08l-7.917,29.167l15,0l7.917,-29.167l-15,0Z" style="fill:#fff;fill-rule:nonzero;"/><path d="M1340.42,1421.25l-166.25,0l-8.334,-29.167l183.334,0l-8.75,29.167Z" style="fill:none;fill-rule:nonzero;stroke:#140735;stroke-width:16.67px;"/><rect x="1151.25" y="1360.83" width="212.083" height="31.667" style="fill:#00b5e2;"/><rect x="1151.25" y="1360.83" width="212.083" height="31.667" style="fill:#00b5e2;"/><rect x="1347.92" y="1360.83" width="15.417" height="31.667" style="fill:#fff;"/><rect x="1151.25" y="1360.83" width="212.083" height="31.667" style="fill:none;stroke:#140735;stroke-width:16.67px;"/></g><path d="M1258.33,718.75l0,332.083" style="fill:none;fill-rule:nonzero;stroke:#140735;stroke-width:16.67px;"/></g></g><g><rect x="1243.75" y="597.083" width="28.333" height="127.5" style="fill:#fb2276;"/><rect x="1257.5" y="597.083" width="14.583" height="127.5" style="fill:#fff;"/><path d="M1257.92,597.083c-7.917,0 -14.167,6.25 -14.167,14.167l0,113.333l28.333,0l0,-113.333c0,-7.5 -6.25,-14.167 -14.166,-14.167Z" style="fill:none;fill-rule:nonzero;stroke:#140735;stroke-width:16.67px;"/><path d="M1257.5,597.083l0,-99.583" style="fill:none;fill-rule:nonzero;stroke:#140735;stroke-width:16.67px;"/><circle cx="1257.92" cy="712.5" r="55.833" style="fill:#00b5e2;"/><path d="M1257.92,656.667c-3.334,-0 -6.25,0.416 -9.167,0.833c26.25,4.583 46.667,27.5 46.667,55c-0,27.5 -20,50.417 -46.667,55c2.917,0.417 6.25,0.833 9.167,0.833c30.833,0 55.833,-25 55.833,-55.833c0,-30.833 -25,-55.833 -55.833,-55.833Z" style="fill:#fff;fill-rule:nonzero;"/><circle cx="1257.92" cy="712.5" r="55.833" style="fill:none;stroke:#140735;stroke-width:12.5px;"/><path d="M1191.25,717.5l7.917,28.333l-0,54.584l116.25,-0l-0,-54.584l7.916,-28.333l-132.083,0Z" style="fill:#00b5e2;fill-rule:nonzero;"/><path d="M1309.58,717.5l-7.916,28.333l-0,54.584l13.75,-0l-0,-54.584l7.916,-28.333l-13.75,0Z" style="fill:#fff;fill-rule:nonzero;"/><path d="M1191.25,717.5l7.917,28.333l-0,54.584l116.25,-0l-0,-54.584l7.916,-28.333l-132.083,0Z" style="fill:none;fill-rule:nonzero;stroke:#140735;stroke-width:16.67px;"/><path d="M1239.17,768.333l-0,32.084" style="fill:none;fill-rule:nonzero;stroke:#140735;stroke-width:12.5px;"/><path d="M1275.42,768.333l-0,32.084" style="fill:none;fill-rule:nonzero;stroke:#140735;stroke-width:12.5px;"/><rect x="1191.25" y="687.5" width="131.667" height="30" style="fill:#00b5e2;"/><rect x="1310" y="687.5" width="13.333" height="30" style="fill:#fff;"/><rect x="1191.25" y="687.5" width="131.667" height="30" style="fill:none;stroke:#140735;stroke-width:16.67px;"/></g></g></g></g></g></svg>