<svg width="481" height="328" viewBox="0 0 481 328" fill="none" xmlns="http://www.w3.org/2000/svg">
<path d="M76.8236 281.053C58.5685 281.053 43.6887 266.173 43.6887 247.918C43.6887 229.663 58.5685 214.783 76.8236 214.783C95.0787 214.783 109.959 229.663 109.959 247.918C109.959 266.173 95.0787 281.053 76.8236 281.053ZM76.8236 219.156C60.993 219.156 48.0623 232.04 48.0623 247.918C48.0623 263.796 60.9455 276.679 76.8236 276.679C92.7018 276.679 105.585 263.796 105.585 247.918C105.585 232.04 92.6542 219.156 76.8236 219.156Z" fill="#175DDC"/>
<path d="M248.013 118.278C229.758 118.278 214.878 103.398 214.878 85.143C214.878 66.8879 229.758 52.0081 248.013 52.0081C266.268 52.0081 281.148 66.8879 281.148 85.143C281.148 103.398 266.316 118.278 248.013 118.278ZM248.013 56.4292C232.182 56.4292 219.252 69.3124 219.252 85.1905C219.252 101.021 232.135 113.952 248.013 113.952C263.843 113.952 276.774 101.069 276.774 85.1905C276.774 69.3124 263.891 56.4292 248.013 56.4292Z" fill="#175DDC"/>
<path d="M248.013 327.166C229.758 327.166 214.878 312.286 214.878 294.031C214.878 275.776 229.758 260.896 248.013 260.896C266.268 260.896 281.148 275.776 281.148 294.031C281.148 312.286 266.316 327.166 248.013 327.166ZM248.013 265.317C232.182 265.317 219.252 278.2 219.252 294.078C219.252 309.909 232.135 322.84 248.013 322.84C263.843 322.84 276.774 309.957 276.774 294.078C276.774 278.2 263.891 265.317 248.013 265.317Z" fill="#175DDC"/>
<path d="M255.191 287.185C255.191 286.757 254.859 286.425 254.431 286.425H241.643C241.215 286.425 240.882 286.757 240.882 287.185V295.79C240.882 295.79 240.787 298.452 243.544 300.782C245.636 302.588 247.157 303.301 247.775 303.539C247.87 303.586 247.965 303.586 248.06 303.586C248.155 303.586 248.251 303.586 248.346 303.539C248.964 303.301 250.485 302.588 252.577 300.782C255.334 298.405 255.239 295.79 255.239 295.79V287.185H255.191ZM251.341 299.403C249.819 300.686 248.678 301.352 248.06 301.685V288.326H253.337V295.79V295.837C253.29 296.075 253.195 297.787 251.341 299.403Z" fill="white"/>
<path d="M424.051 244.115C405.796 244.115 390.916 229.235 390.916 210.98C390.916 192.725 405.796 177.845 424.051 177.845C442.306 177.845 457.186 192.725 457.186 210.98C457.186 229.235 442.306 244.115 424.051 244.115ZM424.051 182.218C408.22 182.218 395.29 195.102 395.29 210.98C395.29 226.858 408.173 239.741 424.051 239.741C439.882 239.741 452.812 226.858 452.812 210.98C452.812 195.102 439.882 182.218 424.051 182.218Z" fill="#175DDC"/>
<path d="M76.8236 268.17C87.9954 268.17 97.0279 259.137 97.0279 247.965C97.0279 236.794 87.9954 227.761 76.8236 227.761C65.6519 227.761 56.6194 236.794 56.6194 247.965C56.6194 259.09 65.6519 268.17 76.8236 268.17Z" fill="#26FF75"/>
<path d="M76.8236 281.053C58.5685 281.053 43.6887 266.173 43.6887 247.918C43.6887 229.663 58.5685 214.783 76.8236 214.783C95.0787 214.783 109.959 229.663 109.959 247.918C109.959 266.173 95.0787 281.053 76.8236 281.053ZM76.8236 219.156C60.993 219.156 48.0623 232.04 48.0623 247.918C48.0623 263.796 60.9455 276.679 76.8236 276.679C92.7018 276.679 105.585 263.796 105.585 247.918C105.585 232.04 92.6542 219.156 76.8236 219.156Z" fill="#175DDC"/>
<path d="M248.013 105.395C259.185 105.395 268.217 96.3622 268.217 85.1905C268.217 74.0187 259.185 64.9863 248.013 64.9863C236.841 64.9863 227.809 74.0187 227.809 85.1905C227.809 96.3622 236.841 105.395 248.013 105.395Z" fill="#26FF75"/>
<path d="M248.013 118.278C229.758 118.278 214.878 103.398 214.878 85.143C214.878 66.8879 229.758 52.0081 248.013 52.0081C266.268 52.0081 281.148 66.8879 281.148 85.143C281.148 103.398 266.316 118.278 248.013 118.278ZM248.013 56.4292C232.182 56.4292 219.252 69.3124 219.252 85.1905C219.252 101.021 232.135 113.952 248.013 113.952C263.843 113.952 276.774 101.069 276.774 85.1905C276.774 69.3124 263.891 56.4292 248.013 56.4292Z" fill="#175DDC"/>
<path d="M434.7 70.691C420.438 70.691 408.839 59.0914 408.839 44.8296C408.839 30.5677 420.438 18.9681 434.7 18.9681C448.962 18.9681 460.561 30.5677 460.561 44.8296C460.561 59.0914 448.962 70.691 434.7 70.691ZM434.7 22.4385C422.34 22.4385 412.261 32.5169 412.261 44.8771C412.261 57.2373 422.34 67.3157 434.7 67.3157C447.06 67.3157 457.139 57.2373 457.139 44.8771C457.139 32.5169 447.06 22.4385 434.7 22.4385Z" fill="#175DDC"/>
<path d="M440.262 39.5052C440.262 39.1724 439.977 38.8872 439.644 38.8872H429.661C429.328 38.8872 429.043 39.1724 429.043 39.5052V46.2083C429.043 46.2083 428.948 48.2525 431.087 50.1065C432.751 51.5327 433.939 52.0556 434.367 52.2458C434.415 52.2933 434.51 52.2933 434.605 52.2933C434.7 52.2933 434.747 52.2933 434.843 52.2458C435.318 52.0556 436.506 51.4851 438.123 50.1065C440.262 48.2525 440.167 46.2083 440.167 46.2083V39.5052H440.262ZM437.267 49.0131C436.079 50.0114 435.175 50.5344 434.7 50.772V40.3609H438.836V46.2083V46.2558C438.788 46.446 438.741 47.7295 437.267 49.0131Z" fill="white"/>
<path d="M434.7 56.5718C441.165 56.5718 446.442 51.2949 446.442 44.8296C446.442 38.3642 441.165 33.1349 434.7 33.1349C428.235 33.1349 422.958 38.4118 422.958 44.8771C422.958 51.3425 428.187 56.5718 434.7 56.5718Z" fill="#26FF75"/>
<path d="M434.7 70.691C420.438 70.691 408.839 59.0914 408.839 44.8296C408.839 30.5677 420.438 18.9681 434.7 18.9681C448.962 18.9681 460.561 30.5677 460.561 44.8296C460.561 59.0914 448.962 70.691 434.7 70.691ZM434.7 22.4385C422.34 22.4385 412.261 32.5169 412.261 44.8771C412.261 57.2373 422.34 67.3157 434.7 67.3157C447.06 67.3157 457.139 57.2373 457.139 44.8771C457.139 32.5169 447.06 22.4385 434.7 22.4385Z" fill="#175DDC"/>
<path d="M440.262 39.5052C440.262 39.1724 439.977 38.8872 439.644 38.8872H429.661C429.328 38.8872 429.043 39.1724 429.043 39.5052V46.2083C429.043 46.2083 428.948 48.2525 431.087 50.1065C432.751 51.5327 433.939 52.0556 434.367 52.2458C434.415 52.2933 434.51 52.2933 434.605 52.2933C434.7 52.2933 434.747 52.2933 434.843 52.2458C435.318 52.0556 436.506 51.4851 438.123 50.1065C440.262 48.2525 440.167 46.2083 440.167 46.2083V39.5052H440.262ZM437.267 49.0131C436.079 50.0114 435.175 50.5344 434.7 50.772V40.3609H438.836V46.2083V46.2558C438.788 46.446 438.741 47.7295 437.267 49.0131Z" fill="#175DDC"/>
<path d="M402.468 162.632C387.541 148.275 368.002 140.621 347.275 141.002C338.623 123.365 325.359 108.437 308.863 97.7408C302.16 93.4147 295.029 89.8493 287.661 87.1395C287.566 88.7083 287.423 90.2296 287.185 91.7033C293.888 94.2704 300.401 97.5506 306.486 101.496C322.697 112.003 335.628 126.787 343.9 144.234L344.518 145.565L345.992 145.518C366.053 144.757 385.021 151.983 399.426 165.865C402.373 168.717 405.083 171.807 407.507 175.04C408.886 174.422 410.312 173.851 411.786 173.376C408.981 169.525 405.891 165.96 402.468 162.632Z" fill="#175DDC"/>
<path d="M112.098 273.732C110.862 273.114 109.626 272.448 108.485 271.735C107.582 272.923 106.583 274.064 105.585 275.158C107.011 276.061 108.532 276.917 110.149 277.677C122.937 283.952 136.581 284.048 137.151 284.048H209.649C210.029 282.526 210.552 281.053 211.075 279.579H137.151C136.628 279.674 123.983 279.579 112.098 273.732Z" fill="#175DDC"/>
<path d="M95.4115 282.954C112.526 295.837 134.156 296.265 137.008 296.265C137.151 296.265 137.246 296.265 137.294 296.265H208.413C208.365 295.552 208.365 294.791 208.365 294.031C208.365 293.27 208.413 292.557 208.413 291.796H137.246C137.008 291.796 116.091 291.939 99.4999 280.387C98.2163 281.338 96.8377 282.193 95.4115 282.954Z" fill="#175DDC"/>
<path d="M313.047 91.2755C328.925 101.544 342.188 115.711 351.363 132.254L351.981 133.348L353.217 133.395C374.372 134.489 394.244 143.379 409.219 158.449C413.26 162.489 416.825 166.911 419.915 171.569C421.294 171.427 422.672 171.332 424.051 171.332C424.384 171.332 424.717 171.332 425.049 171.379C421.484 165.627 417.253 160.255 412.356 155.311C396.906 139.766 376.464 130.448 354.644 129.022C345.136 112.335 331.587 98.0261 315.424 87.5674C306.201 81.625 296.313 76.9661 285.949 73.781C286.425 75.4449 286.852 77.1088 287.09 78.8202C296.218 81.8627 304.917 86.0462 313.047 91.2755Z" fill="#175DDC"/>
<path d="M382.502 269.073C371.33 276.013 358.257 279.674 344.613 279.674H284.951C285.521 281.1 285.997 282.621 286.377 284.143H344.565C359.017 284.143 372.946 280.244 384.784 272.876C395.48 266.22 403.276 257.663 408.125 247.347C406.747 246.729 405.416 246.064 404.132 245.303C399.711 254.953 392.437 262.893 382.502 269.073Z" fill="#175DDC"/>
<path d="M344.613 296.265C361.347 296.265 377.463 291.749 391.249 283.192C401.375 276.917 409.504 268.978 415.304 259.66C417.158 256.713 418.727 253.622 420.105 250.437C418.537 250.295 417.063 250.057 415.542 249.724C414.353 252.339 413.022 254.906 411.501 257.331C406.034 266.078 398.427 273.494 388.872 279.436C375.799 287.566 360.491 291.844 344.565 291.844H287.613C287.661 292.605 287.661 293.318 287.661 294.078C287.661 294.839 287.613 295.552 287.613 296.313H344.613V296.265Z" fill="#175DDC"/>
<path d="M133.491 183.074C137.199 183.074 141.002 183.454 144.71 184.215L147.229 184.738L147.372 182.171C149.749 142.238 174.66 108.675 209.268 93.5574C208.936 92.0837 208.698 90.5624 208.555 89.0411C172.615 104.254 146.469 138.482 143.093 179.413C126.407 176.656 109.531 181.125 96.3623 191.821C90.5149 196.575 85.761 202.28 82.1956 208.65C83.7644 208.888 85.2856 209.173 86.8069 209.553C90.0396 204.181 94.1755 199.332 99.1671 195.292C109.055 187.305 121.13 183.074 133.491 183.074Z" fill="#175DDC"/>
<path d="M133.443 170.904C133.776 170.904 134.109 170.904 134.394 170.904L136.295 170.951L136.628 169.05C140.812 144.187 152.744 121.843 171.094 104.444C182.076 94.0328 194.816 85.9986 208.603 80.6742C208.793 78.9153 209.126 77.2514 209.506 75.5875C194.198 81.1496 180.127 89.8018 168.004 101.259C149.369 118.896 137.151 141.43 132.54 166.53C103.826 166.863 79.2005 184.358 68.3616 209.268C70.073 208.888 71.8319 208.65 73.5909 208.508C84.4774 186.212 107.201 170.904 133.443 170.904Z" fill="#175DDC"/>
<path d="M209.649 303.967H137.151C134.013 303.967 117.66 303.539 101.354 295.552C96.0295 292.938 91.3231 289.8 87.1872 286.187C85.4282 286.662 83.6217 286.995 81.7677 287.233C86.7593 292.129 92.6542 296.265 99.4048 299.546C116.567 308.008 133.871 308.388 137.151 308.388H211.075C210.504 307.009 210.029 305.488 209.649 303.967Z" fill="#175DDC"/>
<path d="M332.871 149.416L336.911 157.973L346.372 157.64C347.132 157.593 347.941 157.593 348.701 157.593C368.478 157.593 386.067 167.101 397.191 181.743C398.285 180.745 399.426 179.794 400.614 178.938C388.682 163.298 369.809 153.172 348.654 153.172C347.798 153.172 346.942 153.172 346.134 153.219L339.574 153.457L336.769 147.562C329.115 131.399 317.135 117.707 302.113 108.009C296.693 104.491 290.941 101.544 284.999 99.2621C284.476 100.641 283.858 102.019 283.192 103.35C288.944 105.585 294.459 108.39 299.736 111.765C314.14 120.988 325.55 134.013 332.871 149.416Z" fill="#175DDC"/>
<path d="M155.121 182.646L154.455 194.151L143.189 191.821C140.003 191.156 136.723 190.823 133.49 190.823C117.042 190.823 102.542 199.427 94.2705 212.358C95.6016 213.024 96.8852 213.737 98.1687 214.545C105.68 202.945 118.706 195.292 133.49 195.292C136.39 195.292 139.385 195.577 142.285 196.195L158.591 199.618L159.59 182.979C161.681 147.942 183.454 118.468 213.737 105.014C212.976 103.731 212.311 102.4 211.74 101.021C180.032 115.093 157.26 145.993 155.121 182.646Z" fill="#175DDC"/>
<path d="M428.472 250.39C421.056 269.929 407.412 282.289 395.29 289.752C380.267 299.07 362.725 304.014 344.565 304.014H286.377C285.997 305.535 285.474 307.009 284.951 308.483H344.613C363.581 308.483 381.931 303.349 397.667 293.556C410.93 285.331 426 271.592 433.559 249.487C431.895 249.867 430.231 250.2 428.472 250.39Z" fill="#175DDC"/>
<path d="M248.013 310.242C256.95 310.242 264.176 303.016 264.176 294.078C264.176 285.141 256.95 277.915 248.013 277.915C239.075 277.915 231.85 285.141 231.85 294.078C231.85 303.016 239.075 310.242 248.013 310.242Z" fill="#175DDC"/>
<path d="M248.013 327.166C229.758 327.166 214.878 312.286 214.878 294.031C214.878 275.776 229.758 260.896 248.013 260.896C266.268 260.896 281.148 275.776 281.148 294.031C281.148 312.286 266.316 327.166 248.013 327.166ZM248.013 265.317C232.182 265.317 219.252 278.2 219.252 294.078C219.252 309.909 232.135 322.84 248.013 322.84C263.843 322.84 276.774 309.957 276.774 294.078C276.774 278.2 263.891 265.317 248.013 265.317Z" fill="#175DDC"/>
<path d="M255.191 287.185C255.191 286.757 254.859 286.425 254.431 286.425H241.643C241.215 286.425 240.882 286.757 240.882 287.185V295.79C240.882 295.79 240.787 298.452 243.544 300.782C245.636 302.588 247.157 303.301 247.775 303.539C247.87 303.586 247.965 303.586 248.06 303.586C248.155 303.586 248.251 303.586 248.346 303.539C248.964 303.301 250.485 302.588 252.577 300.782C255.334 298.405 255.239 295.79 255.239 295.79V287.185H255.191ZM251.341 299.403C249.819 300.686 248.678 301.352 248.06 301.685V288.326H253.337V295.79V295.837C253.29 296.075 253.195 297.787 251.341 299.403Z" fill="white"/>
<path d="M424.051 231.184C435.223 231.184 444.255 222.151 444.255 210.98C444.255 199.808 435.223 190.776 424.051 190.776C412.879 190.776 403.847 199.808 403.847 210.98C403.847 222.151 412.879 231.184 424.051 231.184Z" fill="#26FF75"/>
<path d="M424.051 244.115C405.796 244.115 390.916 229.235 390.916 210.98C390.916 192.725 405.796 177.845 424.051 177.845C442.306 177.845 457.186 192.725 457.186 210.98C457.186 229.235 442.306 244.115 424.051 244.115ZM424.051 182.218C408.22 182.218 395.29 195.102 395.29 210.98C395.29 226.858 408.173 239.741 424.051 239.741C439.882 239.741 452.812 226.858 452.812 210.98C452.812 195.102 439.882 182.218 424.051 182.218Z" fill="#175DDC"/>
<path d="M44.6395 131.589C30.3777 131.589 18.7781 119.989 18.7781 105.728C18.7781 91.4657 30.3777 79.8661 44.6395 79.8661C58.9013 79.8661 70.5009 91.4657 70.5009 105.728C70.4534 119.989 58.8538 131.589 44.6395 131.589ZM44.6395 83.2889C32.2793 83.2889 22.2009 93.3673 22.2009 105.728C22.2009 118.088 32.2793 128.166 44.6395 128.166C56.9997 128.166 67.0781 118.088 67.0781 105.728C67.0781 93.3673 56.9997 83.2889 44.6395 83.2889Z" fill="#175DDC"/>
<path d="M50.2016 100.403C50.2016 100.07 49.9163 99.7852 49.5835 99.7852H39.6003C39.2675 99.7852 38.9823 100.07 38.9823 100.403V107.106C38.9823 107.106 38.8872 109.15 41.0265 111.004C42.6903 112.431 43.8788 112.954 44.3067 113.144C44.3542 113.191 44.4493 113.191 44.5444 113.191C44.6394 113.191 44.687 113.191 44.7821 113.144C45.2575 112.954 46.4459 112.383 48.0623 111.004C50.2016 109.15 50.1065 107.106 50.1065 107.106V100.403H50.2016ZM47.2066 109.911C46.0181 110.909 45.1148 111.432 44.6394 111.67V101.259H48.7754V107.106V107.154C48.7278 107.296 48.6803 108.627 47.2066 109.911Z" fill="white"/>
<path d="M44.6394 117.47C51.1048 117.47 56.3817 112.193 56.3817 105.728C56.3817 99.2622 51.1048 93.9854 44.6394 93.9854C38.1741 93.9854 32.8972 99.2622 32.8972 105.728C32.8972 112.193 38.1265 117.47 44.6394 117.47Z" fill="#26FF75"/>
<path d="M44.6395 131.589C30.3777 131.589 18.7781 119.989 18.7781 105.728C18.7781 91.4657 30.3777 79.8661 44.6395 79.8661C58.9013 79.8661 70.5009 91.4657 70.5009 105.728C70.4534 119.989 58.8538 131.589 44.6395 131.589ZM44.6395 83.2889C32.2793 83.2889 22.2009 93.3673 22.2009 105.728C22.2009 118.088 32.2793 128.166 44.6395 128.166C56.9997 128.166 67.0781 118.088 67.0781 105.728C67.0781 93.3673 56.9997 83.2889 44.6395 83.2889Z" fill="#175DDC"/>
<path d="M50.2016 100.403C50.2016 100.07 49.9163 99.7852 49.5835 99.7852H39.6003C39.2675 99.7852 38.9823 100.07 38.9823 100.403V107.106C38.9823 107.106 38.8872 109.15 41.0265 111.004C42.6903 112.431 43.8788 112.954 44.3067 113.144C44.3542 113.191 44.4493 113.191 44.5444 113.191C44.6394 113.191 44.687 113.191 44.7821 113.144C45.2575 112.954 46.4459 112.383 48.0623 111.004C50.2016 109.15 50.1065 107.106 50.1065 107.106V100.403H50.2016ZM47.2066 109.911C46.0181 110.909 45.1148 111.432 44.6394 111.67V101.259H48.7754V107.106V107.154C48.7278 107.296 48.6803 108.627 47.2066 109.911Z" fill="#175DDC"/>
<path d="M44.8297 144.139C31.0908 144.139 18.4453 136.676 11.7898 124.648C11.5521 124.268 11.6947 123.745 12.1226 123.555C12.5029 123.317 13.0258 123.46 13.216 123.888C19.5863 135.392 31.7088 142.523 44.8297 142.523C50.5819 142.523 56.3342 141.144 61.4209 138.482C61.8012 138.292 62.3241 138.435 62.5143 138.815C62.7045 139.195 62.5618 139.718 62.1815 139.908C56.8571 142.713 50.8672 144.139 44.8297 144.139Z" fill="#175DDC"/>
<path d="M80.6743 116.186C80.6268 116.186 80.5317 116.186 80.4842 116.139C80.0563 116.044 79.7711 115.568 79.9137 115.14C80.6268 112.288 80.9596 109.34 80.9596 106.393C80.9596 86.4741 64.7486 70.3107 44.8772 70.3107C38.4118 70.3107 32.0891 72.0221 26.527 75.3023C26.1467 75.54 25.6237 75.3974 25.4336 75.0171C25.1959 74.6368 25.3385 74.1138 25.7188 73.9237C31.5186 70.5008 38.1266 68.6943 44.8772 68.6943C65.6519 68.6943 82.5759 85.6184 82.5759 106.393C82.5759 109.483 82.1956 112.573 81.4825 115.521C81.3399 115.948 81.0071 116.186 80.6743 116.186Z" fill="#175DDC"/>
<path d="M71.3566 143.474C71.1189 143.474 70.8812 143.379 70.6911 143.141C70.4058 142.761 70.5009 142.285 70.8812 142C82.148 133.728 88.8986 120.417 88.8986 106.441C88.8986 92.7017 82.671 80.0087 71.7845 71.5942C71.4517 71.3089 71.3566 70.8336 71.6418 70.4532C71.9271 70.1205 72.4025 70.0254 72.7828 70.3106C84.0496 79.0579 90.515 92.2263 90.515 106.441C90.515 120.94 83.5267 134.726 71.832 143.284C71.6894 143.379 71.4992 143.474 71.3566 143.474Z" fill="#175DDC"/>
<path d="M8.88988 80.3889C8.69972 80.3889 8.5571 80.3414 8.41449 80.2463C8.03417 79.9611 7.98663 79.4857 8.27187 79.1054C13.0258 72.7351 19.3961 67.6959 26.6696 64.5583C27.0975 64.3682 27.5728 64.5583 27.7155 64.9862C27.9056 65.414 27.7155 65.8894 27.2876 66.032C20.2993 69.0746 14.1667 73.9236 9.55543 80.0562C9.41281 80.2939 9.12758 80.3889 8.88988 80.3889Z" fill="#175DDC"/>
<path d="M44.8296 152.126C26.622 152.126 10.1734 141.335 2.89988 124.601C2.70973 124.173 2.89988 123.697 3.32774 123.555C3.75559 123.365 4.23098 123.555 4.3736 123.983C11.3619 140.098 27.24 150.51 44.8296 150.51C46.5886 150.51 48.3951 150.415 50.154 150.177C50.5819 150.129 51.0097 150.462 51.0573 150.89C51.1048 151.318 50.772 151.746 50.3442 151.793C48.5377 152.031 46.6836 152.126 44.8296 152.126Z" fill="#175DDC"/>
<path d="M434.7 82.5759C420.961 82.5759 408.316 75.1122 401.66 63.0847C401.422 62.7044 401.565 62.1815 401.993 61.9913C402.373 61.7536 402.896 61.8963 403.086 62.3241C409.457 73.8286 421.579 80.9595 434.7 80.9595C440.452 80.9595 446.204 79.5809 451.291 76.9187C451.671 76.7285 452.194 76.8712 452.385 77.2515C452.575 77.6318 452.432 78.1547 452.052 78.3449C446.727 81.1022 440.69 82.5759 434.7 82.5759Z" fill="#175DDC"/>
<path d="M470.497 54.6227C470.45 54.6227 470.354 54.6227 470.307 54.5751C469.879 54.4801 469.594 54.0047 469.736 53.5768C470.45 50.7245 470.782 47.777 470.782 44.8296C470.782 24.9106 454.571 8.7472 434.7 8.7472C428.235 8.7472 421.912 10.4586 416.35 13.7388C415.969 13.9765 415.447 13.8339 415.256 13.4536C415.019 13.0733 415.161 12.5503 415.542 12.3602C421.341 8.93736 427.949 7.13086 434.7 7.13086C455.475 7.13086 472.399 24.0549 472.399 44.8296C472.399 47.9196 472.018 51.0097 471.305 53.9571C471.163 54.3375 470.877 54.6227 470.497 54.6227Z" fill="#175DDC"/>
<path d="M461.179 81.8629C460.942 81.8629 460.704 81.7678 460.514 81.5301C460.229 81.1498 460.324 80.6744 460.704 80.3891C471.971 72.1173 478.721 58.8063 478.721 44.8297C478.721 31.0908 472.494 18.3978 461.607 9.98334C461.274 9.6981 461.179 9.22271 461.465 8.8424C461.75 8.50962 462.225 8.41454 462.605 8.69978C473.872 17.447 480.338 30.6154 480.338 44.8297C480.338 59.3292 473.349 73.1156 461.655 81.6727C461.512 81.8153 461.369 81.8629 461.179 81.8629Z" fill="#175DDC"/>
<path d="M398.76 18.7781C398.57 18.7781 398.427 18.7306 398.285 18.6355C397.904 18.3502 397.857 17.8749 398.142 17.4945C402.896 11.1243 409.266 6.08509 416.54 2.94749C416.968 2.75733 417.443 2.94749 417.586 3.37534C417.776 3.8032 417.586 4.27859 417.158 4.42121C410.17 7.46373 404.037 12.3127 399.426 18.4453C399.236 18.683 398.998 18.7781 398.76 18.7781Z" fill="#175DDC"/>
<path d="M434.7 90.515C416.492 90.515 400.044 79.7236 392.77 62.9897C392.58 62.5618 392.77 62.0864 393.198 61.9438C393.626 61.7537 394.101 61.9438 394.244 62.3717C401.232 78.4875 417.11 88.8986 434.7 88.8986C436.459 88.8986 438.265 88.8036 440.024 88.5659C440.452 88.5183 440.88 88.8511 440.928 89.279C440.975 89.7068 440.642 90.1347 440.215 90.1822C438.36 90.4199 436.506 90.515 434.7 90.515Z" fill="#175DDC"/>
<path d="M257.854 312.334C257.711 312.334 257.568 312.238 257.521 312.143C257.426 311.953 257.473 311.716 257.663 311.573C264.034 308.055 267.979 301.352 267.979 294.078C267.979 290.893 267.219 287.708 265.745 284.903C265.65 284.713 265.698 284.475 265.935 284.38C266.125 284.285 266.363 284.333 266.458 284.571C267.979 287.518 268.788 290.798 268.788 294.126C268.788 301.685 264.652 308.673 258.044 312.334C257.996 312.286 257.949 312.334 257.854 312.334Z" fill="#175DDC"/>
<path d="M230.471 304.822C230.328 304.822 230.186 304.775 230.138 304.632C228.236 301.447 227.238 297.786 227.238 294.078C227.238 282.621 236.556 273.256 248.06 273.256C249.772 273.256 251.483 273.446 253.1 273.874C253.337 273.922 253.432 274.159 253.385 274.35C253.337 274.587 253.1 274.682 252.909 274.635C251.341 274.254 249.724 274.064 248.06 274.064C237.031 274.064 228.094 283.049 228.094 294.031C228.094 297.596 229.045 301.114 230.851 304.204C230.946 304.394 230.899 304.632 230.709 304.775C230.613 304.775 230.518 304.822 230.471 304.822Z" fill="#175DDC"/>
<path d="M268.027 279.817C267.884 279.817 267.789 279.769 267.694 279.674C263.13 273.446 255.762 269.691 248.013 269.691C240.407 269.691 233.371 273.161 228.712 279.151C228.569 279.341 228.332 279.341 228.141 279.246C227.951 279.104 227.951 278.866 228.046 278.676C232.848 272.448 240.121 268.883 247.965 268.883C255.952 268.883 263.558 272.733 268.312 279.199C268.455 279.389 268.407 279.626 268.217 279.769C268.17 279.769 268.122 279.817 268.027 279.817Z" fill="#175DDC"/>
<path d="M233.181 314.33C233.086 314.33 232.99 314.283 232.943 314.235C229.425 311.621 226.668 308.103 224.909 304.109C224.814 303.919 224.909 303.681 225.099 303.586C225.289 303.491 225.527 303.586 225.622 303.777C227.286 307.675 229.995 311.05 233.418 313.57C233.608 313.712 233.656 313.95 233.513 314.14C233.418 314.283 233.323 314.33 233.181 314.33Z" fill="#175DDC"/>
<path d="M248.013 319.227C244.875 319.227 241.738 318.656 238.743 317.468C238.553 317.373 238.41 317.135 238.505 316.945C238.6 316.755 238.838 316.612 239.028 316.707C248.06 320.273 258.376 318.133 265.27 311.288C265.983 310.575 266.601 309.861 267.219 309.101C267.361 308.911 267.599 308.911 267.789 309.053C267.979 309.196 267.979 309.434 267.837 309.624C267.219 310.432 266.553 311.193 265.84 311.906C261.039 316.66 254.573 319.227 248.013 319.227Z" fill="#175DDC"/>
<path d="M124.411 161.396C124.22 161.396 124.03 161.349 123.84 161.206L89.5166 137.912C89.0412 137.579 88.9461 136.961 89.2314 136.485C89.5641 136.01 90.1822 135.915 90.6575 136.2L124.981 159.495C125.456 159.827 125.551 160.445 125.266 160.921C125.076 161.253 124.743 161.396 124.411 161.396Z" fill="#175DDC"/>
<path d="M359.921 123.84C359.683 123.84 359.398 123.745 359.207 123.555C358.827 123.175 358.827 122.509 359.207 122.129L396.003 85.2381C396.383 84.8578 397.049 84.8578 397.429 85.2381C397.809 85.6184 397.809 86.284 397.429 86.6643L360.634 123.555C360.444 123.697 360.158 123.84 359.921 123.84Z" fill="#175DDC"/>
<path d="M247.823 195.197C245.588 195.197 243.829 193.39 243.829 191.204C243.829 189.017 245.636 187.21 247.823 187.21C250.057 187.21 251.816 189.017 251.816 191.204C251.816 193.39 250.057 195.197 247.823 195.197Z" fill="#175DDC"/>
<path d="M247.823 203.231C246.729 203.231 245.826 202.328 245.826 201.234V193.2C245.826 192.107 246.729 191.203 247.823 191.203C248.916 191.203 249.819 192.107 249.819 193.2V201.234C249.819 202.328 248.964 203.231 247.823 203.231Z" fill="#175DDC"/>
<path d="M225.764 221.248H221.771C220.678 221.248 219.775 220.345 219.775 219.252V179.128C219.775 178.035 220.678 177.132 221.771 177.132H273.922C275.015 177.132 275.919 178.035 275.919 179.128V199.19C275.919 200.284 275.015 201.187 273.922 201.187C272.828 201.187 271.925 200.284 271.925 199.19V181.125H223.768V217.255H225.764C226.858 217.255 227.761 218.158 227.761 219.252C227.761 220.345 226.905 221.248 225.764 221.248Z" fill="#175DDC"/>
<path d="M265.888 181.173C264.794 181.173 263.891 180.269 263.891 179.176V169.145C263.891 160.303 256.713 153.124 247.87 153.124C239.028 153.124 231.85 160.303 231.85 169.145V179.176C231.85 180.269 230.946 181.173 229.853 181.173C228.759 181.173 227.856 180.269 227.856 179.176V169.145C227.856 158.069 236.841 149.084 247.918 149.084C258.994 149.084 267.979 158.069 267.979 169.145V179.176C267.884 180.269 266.981 181.173 265.888 181.173Z" fill="#175DDC"/>
<path d="M313.998 245.303H237.792C236.699 245.303 235.795 244.4 235.795 243.307V211.218C235.795 210.124 236.699 209.221 237.792 209.221H313.998C315.091 209.221 315.994 210.124 315.994 211.218V243.307C315.994 244.448 315.091 245.303 313.998 245.303ZM239.836 241.31H312.001V213.262H239.836V241.31Z" fill="#175DDC"/>
<path d="M259.85 235.32C259.327 235.32 258.804 235.13 258.424 234.749L246.397 222.722C245.636 221.961 245.636 220.678 246.397 219.87C247.157 219.109 248.441 219.109 249.249 219.87L261.276 231.897C262.037 232.658 262.037 233.941 261.276 234.749C260.896 235.082 260.373 235.32 259.85 235.32Z" fill="#26FF75"/>
<path d="M247.823 235.32C247.3 235.32 246.777 235.13 246.397 234.749C245.636 233.989 245.636 232.705 246.397 231.897L258.424 219.87C259.185 219.109 260.468 219.109 261.276 219.87C262.037 220.63 262.037 221.914 261.276 222.722L249.249 234.749C248.869 235.082 248.346 235.32 247.823 235.32Z" fill="#26FF75"/>
<path d="M281.908 235.32C281.385 235.32 280.863 235.13 280.482 234.749L268.455 222.722C267.694 221.961 267.694 220.678 268.455 219.87C269.215 219.109 270.499 219.109 271.307 219.87L283.335 231.897C284.095 232.658 284.095 233.941 283.335 234.749C282.954 235.082 282.431 235.32 281.908 235.32Z" fill="#26FF75"/>
<path d="M269.881 235.32C269.358 235.32 268.835 235.13 268.455 234.749C267.694 233.989 267.694 232.705 268.455 231.897L280.482 219.87C281.243 219.109 282.526 219.109 283.335 219.87C284.095 220.63 284.095 221.914 283.335 222.722L271.307 234.749C270.927 235.082 270.404 235.32 269.881 235.32Z" fill="#26FF75"/>
<path d="M305.963 237.317H289.943C288.849 237.317 287.946 236.413 287.946 235.32C287.946 234.227 288.849 233.323 289.943 233.323H305.963C307.057 233.323 307.96 234.227 307.96 235.32C307.96 236.413 307.104 237.317 305.963 237.317Z" fill="#26FF75"/>
<path d="M252.149 96.6H243.497C242.213 96.6 241.215 95.5542 241.215 94.3181V76.063C241.215 74.7795 242.261 73.7811 243.497 73.7811H252.149C253.432 73.7811 254.431 74.827 254.431 76.063V94.3181C254.478 95.5542 253.432 96.6 252.149 96.6ZM243.497 74.4942C242.641 74.4942 241.928 75.2073 241.928 76.063V94.3181C241.928 95.1738 242.641 95.8869 243.497 95.8869H252.149C253.004 95.8869 253.718 95.1738 253.718 94.3181V76.063C253.718 75.2073 253.004 74.4942 252.149 74.4942H243.497Z" fill="#175DDC"/>
<path d="M254.098 92.7492H241.595C241.405 92.7492 241.215 92.6065 241.215 92.3688C241.215 92.1311 241.357 91.9885 241.595 91.9885H254.098C254.288 91.9885 254.478 92.1311 254.478 92.3688C254.478 92.6065 254.288 92.7492 254.098 92.7492Z" fill="#175DDC"/>
<path d="M254.098 78.3447H241.595C241.405 78.3447 241.215 78.2021 241.215 77.9644C241.215 77.7267 241.357 77.5841 241.595 77.5841H254.098C254.288 77.5841 254.478 77.7267 254.478 77.9644C254.478 78.2021 254.288 78.3447 254.098 78.3447Z" fill="#175DDC"/>
<path d="M250.247 76.3956H245.446C245.256 76.3956 245.065 76.253 245.065 76.0153C245.065 75.7776 245.208 75.635 245.446 75.635H250.247C250.437 75.635 250.628 75.7776 250.628 76.0153C250.628 76.253 250.437 76.3956 250.247 76.3956Z" fill="#175DDC"/>
<path d="M247.823 95.1737C247.347 95.1737 246.967 94.7934 246.967 94.318C246.967 93.8426 247.347 93.4623 247.823 93.4623C248.298 93.4623 248.678 93.8426 248.678 94.318C248.678 94.7934 248.298 95.1737 247.823 95.1737ZM247.823 94.1754C247.775 94.1754 247.728 94.2229 247.728 94.2704C247.728 94.4131 247.965 94.4131 247.965 94.2704C247.965 94.2704 247.918 94.1754 247.823 94.1754Z" fill="#175DDC"/>
<path d="M72.9729 255.191H68.6944C67.5059 255.191 66.5551 254.241 66.5551 253.052V241.928C66.5551 240.739 67.5059 239.789 68.6944 239.789H84.9529C86.1413 239.789 87.0921 240.739 87.0921 241.928V249.629C87.0921 249.867 86.902 250.057 86.6643 250.057C86.4266 250.057 86.2364 249.867 86.2364 249.629V241.928C86.2364 241.215 85.6659 240.597 84.9053 240.597H68.6468C67.9338 240.597 67.3157 241.167 67.3157 241.928V253.052C67.3157 253.765 67.8862 254.383 68.6468 254.383H72.9254C73.1631 254.383 73.3532 254.573 73.3532 254.811C73.3532 255.049 73.2106 255.191 72.9729 255.191Z" fill="#175DDC"/>
<path d="M72.9729 253.48H70.4058C70.1681 253.48 69.9779 253.29 69.9779 253.052V241.928C69.9779 241.69 70.1681 241.5 70.4058 241.5H84.0971C84.3348 241.5 84.525 241.69 84.525 241.928V249.629C84.525 249.867 84.3348 250.057 84.0971 250.057C83.8594 250.057 83.6692 249.867 83.6692 249.629V242.308H70.7861V252.624H72.9729C73.2106 252.624 73.4007 252.814 73.4007 253.052C73.4007 253.29 73.2106 253.48 72.9729 253.48Z" fill="#175DDC"/>
<path d="M85.3807 247.062C85.143 247.062 84.9528 247.252 84.9528 247.49C84.9528 247.728 85.143 247.918 85.3807 247.918C85.6184 247.918 85.8085 247.728 85.8085 247.49C85.8085 247.252 85.6184 247.062 85.3807 247.062Z" fill="#175DDC"/>
<path d="M84.62 260.325H79.153C78.7252 260.325 78.2973 260.088 78.0596 259.66L74.8745 253.86C74.6843 253.48 74.6843 253.004 74.922 252.624C75.1597 252.244 75.54 252.006 75.9679 252.006H76.8236C77.2039 252.006 77.5842 252.196 77.8219 252.481L78.5825 253.385V246.587C78.5825 245.874 79.0104 245.351 79.676 245.351H80.912C81.53 245.351 81.9578 245.826 81.9578 246.587V250.865L86.3315 252.434C86.8069 252.577 87.0921 253.052 87.0921 253.622C87.0921 253.67 87.0921 253.67 87.0921 253.718L85.8085 259.422V259.47C85.5708 259.993 85.0954 260.325 84.62 260.325ZM76.8236 252.814H75.9679C75.8253 252.814 75.6826 252.909 75.5876 253.004C75.4925 253.147 75.4925 253.29 75.5876 253.432L78.7727 259.232C78.8678 259.375 79.0104 259.47 79.153 259.47H84.62C84.7627 259.47 84.9053 259.375 85.0004 259.232L86.2839 253.622C86.2839 253.48 86.2364 253.242 86.0462 253.242L81.3874 251.578C81.2447 251.531 81.1021 251.388 81.1021 251.198V246.634C81.1021 246.206 80.912 246.206 80.8644 246.206H79.6284C79.3907 246.206 79.3432 246.444 79.3432 246.634V254.526C79.3432 254.716 79.2481 254.858 79.0579 254.906C78.9153 254.954 78.7252 254.906 78.6301 254.763L77.1564 253.004C77.1088 252.909 76.9662 252.814 76.8236 252.814Z" fill="#175DDC"/>
<path d="M68.6944 248.346C68.219 248.346 67.8387 247.965 67.8387 247.49C67.8387 247.014 68.219 246.634 68.6944 246.634C69.1698 246.634 69.5501 247.014 69.5501 247.49C69.5501 247.965 69.1698 248.346 68.6944 248.346ZM68.6944 247.442V247.49V247.442C68.6944 247.49 68.6944 247.442 68.6944 247.442Z" fill="#175DDC"/>
<path d="M433.512 218.016H414.543C413.83 218.016 413.26 217.445 413.26 216.732V204.99C413.26 204.277 413.83 203.706 414.543 203.706H433.464C434.177 203.706 434.748 204.277 434.748 204.99V216.732C434.795 217.398 434.225 218.016 433.512 218.016ZM414.543 204.467C414.258 204.467 414.02 204.705 414.02 204.99V216.732C414.02 217.017 414.258 217.255 414.543 217.255H433.464C433.749 217.255 433.987 217.017 433.987 216.732V204.99C433.987 204.705 433.749 204.467 433.464 204.467H414.543Z" fill="#175DDC"/>
<path d="M432.608 216.209H415.494C415.256 216.209 415.114 216.019 415.114 215.829V205.893C415.114 205.655 415.304 205.513 415.494 205.513H432.608C432.846 205.513 432.989 205.703 432.989 205.893V215.829C432.989 216.019 432.798 216.209 432.608 216.209ZM415.874 215.401H432.228V206.273H415.874V215.401Z" fill="#175DDC"/>
<path d="M428.52 220.678H419.487C419.25 220.678 419.107 220.487 419.107 220.297C419.107 220.107 419.297 219.917 419.487 219.917H428.52C428.758 219.917 428.9 220.107 428.9 220.297C428.9 220.487 428.758 220.678 428.52 220.678Z" fill="#175DDC"/>
<path d="M423.053 217.588H422.292V220.297H423.053V217.588Z" fill="#175DDC"/>
<path d="M425.763 217.588H425.002V220.297H425.763V217.588Z" fill="#175DDC"/>
</svg>
