<svg width="394" height="394" viewBox="0 0 394 394" fill="none" xmlns="http://www.w3.org/2000/svg">
<path d="M322.843 173.874L270.845 225.872L247.312 249.406C251.304 251.144 255.438 252.412 259.618 253.257L326.648 186.228C325.897 182 324.628 177.866 322.843 173.874Z" fill="#B8B9B9"/>
<path d="M301.001 148.508C297.572 146.348 293.908 144.563 290.198 143.154L269.342 164.009L216.639 216.76C218.001 220.517 219.786 224.134 221.993 227.563L273.663 175.893L301.001 148.508Z" fill="#B8B9B9"/>
<path d="M274.274 254.15C281.977 253.633 289.587 251.566 296.633 247.949L321.387 223.195C325.004 216.149 327.071 208.539 327.588 200.836L274.274 254.15Z" fill="#B8B9B9"/>
<path d="M277.703 140.147C272.254 139.443 266.711 139.537 261.309 140.382L256.941 144.751L213.82 187.872C212.975 193.32 212.881 198.816 213.585 204.265L263.893 153.957L277.703 140.147Z" fill="#B8B9B9"/>
<path d="M317.254 163.963C315.375 161.332 313.308 158.796 310.912 156.447C310.537 156.071 310.114 155.695 309.738 155.32L276.012 189.046L228.757 236.3C229.133 236.676 229.509 237.099 229.885 237.475C232.233 239.823 234.77 241.937 237.4 243.816L275.918 205.298L317.254 163.963Z" fill="#B8B9B9"/>
<path d="M125.136 229.395L78.7741 275.757L86.5246 283.508L130.585 239.447C128.518 236.206 126.686 232.871 125.136 229.395Z" fill="#175DDC"/>
<path d="M118.466 204.406L62.9443 259.927L70.6948 267.678L120.861 217.511C119.687 213.19 118.889 208.821 118.466 204.406Z" fill="#175DDC"/>
<path d="M141.295 252.694C139.979 251.378 138.758 250.063 137.537 248.701L94.6039 291.634L102.354 299.384L145.287 256.451C143.925 255.23 142.563 254.009 141.295 252.694Z" fill="#175DDC"/>
<path d="M176.43 273.08L126.263 323.246L134.014 330.997L189.535 275.475C185.12 275.052 180.752 274.254 176.43 273.08Z" fill="#175DDC"/>
<path d="M228.258 31.2314L31.2645 228.225L39.0367 235.997L236.031 39.0035L228.258 31.2314Z" fill="#175DDC"/>
<path d="M123.633 167.532L47.1146 244.098L54.8651 251.848L118.56 188.153C119.311 181.155 121.002 174.203 123.633 167.532Z" fill="#175DDC"/>
<path d="M205.788 275.381L142.14 339.076L149.891 346.827L226.409 270.308C219.739 272.939 212.834 274.63 205.788 275.381Z" fill="#175DDC"/>
<path d="M154.494 263.356L110.434 307.417L118.184 315.167L164.546 268.805C161.117 267.255 157.735 265.423 154.494 263.356Z" fill="#175DDC"/>
<path d="M218.048 120.325L267.698 70.675L259.947 62.9246L204.942 117.929C209.358 118.352 213.726 119.151 218.048 120.325Z" fill="#175DDC"/>
<path d="M239.984 130.095L283.527 86.5517L275.777 78.8013L229.932 124.646C233.361 126.15 236.743 127.982 239.984 130.095Z" fill="#175DDC"/>
<path d="M188.69 118.023L251.868 54.8452L244.117 47.0947L168.069 123.096C174.739 120.466 181.644 118.775 188.69 118.023Z" fill="#175DDC"/>
<path d="M212.431 15.3962L15.4371 212.39L23.2093 220.162L220.203 23.1683L212.431 15.3962Z" fill="#175DDC"/>
<path d="M323.266 126.243L273.616 175.893C274.791 180.215 275.589 184.583 276.012 188.999L331.017 133.994L323.266 126.243Z" fill="#175DDC"/>
<path d="M307.436 110.414L263.893 153.957C265.96 157.198 267.792 160.581 269.342 164.01L315.187 118.164L307.436 110.414Z" fill="#175DDC"/>
<path d="M370.804 173.78L173.81 370.774L181.582 378.546L378.576 181.552L370.804 173.78Z" fill="#175DDC"/>
<path d="M291.607 94.584L249.191 137C250.553 138.175 251.915 139.443 253.183 140.758C253.606 141.181 253.982 141.557 254.358 141.979C255.25 142.919 256.095 143.811 256.941 144.798L261.309 140.429L299.357 102.381L291.607 94.584Z" fill="#175DDC"/>
<path d="M339.096 142.12L275.918 205.298C275.166 212.297 273.475 219.249 270.845 225.919L346.846 149.918L339.096 142.12Z" fill="#175DDC"/>
<path d="M354.973 157.95L259.618 253.257L157.97 354.953L165.72 362.703L274.274 254.15L362.723 165.7L354.973 157.95Z" fill="#175DDC"/>
<path d="M118.466 204.406C118.889 208.821 119.687 213.237 120.861 217.511L218.048 120.325C213.726 119.151 209.358 118.352 204.942 117.929L118.466 204.406Z" fill="#26FF75"/>
<path d="M125.136 229.395C126.686 232.824 128.518 236.206 130.585 239.447L239.984 130.095C236.743 128.029 233.408 126.197 229.932 124.646L125.136 229.395Z" fill="#26FF75"/>
<path d="M123.633 167.532C121.002 174.202 119.311 181.107 118.56 188.153L188.69 118.023C181.691 118.775 174.739 120.466 168.069 123.096L123.633 167.532Z" fill="#26FF75"/>
<path d="M263.893 154.004L154.494 263.357C157.735 265.423 161.07 267.255 164.546 268.805L269.342 164.01C267.792 160.581 265.96 157.246 263.893 154.004Z" fill="#26FF75"/>
<path d="M254.404 141.932C254.029 141.509 253.606 141.134 253.23 140.711C251.915 139.396 250.6 138.174 249.237 136.953L137.537 248.654C138.711 250.016 139.979 251.378 141.295 252.647C142.61 253.962 143.925 255.183 145.287 256.404L256.941 144.751C256.142 143.811 255.297 142.872 254.404 141.932Z" fill="#26FF75"/>
<path d="M273.616 175.894L176.43 273.08C180.751 274.254 185.12 275.053 189.535 275.475L276.012 188.999C275.589 184.63 274.791 180.215 273.616 175.894Z" fill="#26FF75"/>
<path d="M205.788 275.381C212.787 274.63 219.739 272.939 226.409 270.308L270.845 225.872C273.475 219.202 275.166 212.297 275.918 205.251L205.788 275.381Z" fill="#26FF75"/>
<path d="M197.258 0.227478L0.263733 197.221L8.03587 204.994L205.03 7.99962L197.258 0.227478Z" fill="#175DDC"/>
<path d="M386.228 189.193L189.234 386.187L197.006 393.959L394 196.965L386.228 189.193Z" fill="#175DDC"/>
</svg>
