<?xml version="1.0" encoding="UTF-8" standalone="no"?><!DOCTYPE svg PUBLIC "-//W3C//DTD SVG 1.1//EN" "http://www.w3.org/Graphics/SVG/1.1/DTD/svg11.dtd"><svg width="100%" height="100%" viewBox="0 0 4167 4167" version="1.1" xmlns="http://www.w3.org/2000/svg" xmlns:xlink="http://www.w3.org/1999/xlink" xml:space="preserve" xmlns:serif="http://www.serif.com/" style="fill-rule:evenodd;clip-rule:evenodd;stroke-linecap:round;stroke-linejoin:round;stroke-miterlimit:10;"><g><rect id="XMLID_66_" x="2566.71" y="670.153" width="625" height="1492.5" style="fill:#ff8603;"/><path id="XMLID_184_" d="M3066.71,909.736l0,210.417c0,34.583 -27.917,62.5 -62.5,62.5c-34.583,-0 -62.5,-27.917 -62.5,-62.5l0,-283.334c0,-34.583 -27.917,-62.5 -62.5,-62.5c-34.583,0 -62.5,27.917 -62.5,62.5l0,283.334c0,34.583 -27.917,62.5 -62.5,62.5c-34.583,-0 -62.5,-27.917 -62.5,-62.5l0,-95.834c0,-34.583 -27.917,-62.5 -62.5,-62.5c-34.583,0 -62.5,27.917 -62.5,62.5l0,1088.33l625,-0l0,-1202.92c0,-34.583 -27.917,-62.5 -62.5,-62.5c-34.167,-0 -62.5,27.917 -62.5,62.5Z" style="fill:#ed5f18;fill-rule:nonzero;"/><path id="XMLID_161_" d="M3066.71,959.736l0,210.417c0,34.583 -27.917,62.5 -62.5,62.5c-34.583,-0 -62.5,-27.917 -62.5,-62.5l0,-283.334c0,-34.583 -27.917,-62.5 -62.5,-62.5c-34.583,0 -62.5,27.917 -62.5,62.5l0,283.334c0,34.583 -27.917,62.5 -62.5,62.5c-34.583,-0 -62.5,-27.917 -62.5,-62.5l0,-95.834c0,-34.583 -27.917,-62.5 -62.5,-62.5c-34.583,0 -62.5,27.917 -62.5,62.5l0,1088.33l625,-0l0,-1202.92c0,-34.583 -27.917,-62.5 -62.5,-62.5c-34.167,-0 -62.5,27.917 -62.5,62.5Z" style="fill:#ef2531;fill-rule:nonzero;"/><path id="XMLID_176_" d="M3066.71,1358.9l0,296.25c0,34.583 -27.917,62.5 -62.5,62.5c-34.583,-0 -62.5,-27.917 -62.5,-62.5l0,-153.334c0,-34.583 -27.917,-62.5 -62.5,-62.5c-34.583,0 -62.5,27.917 -62.5,62.5l0,153.334c0,34.583 -27.917,62.5 -62.5,62.5c-34.583,-0 -62.5,-27.917 -62.5,-62.5l0,-210.417c0,-34.583 -27.917,-62.5 -62.5,-62.5c-34.583,-0 -62.5,27.917 -62.5,62.5l0,683.333l625,0l0,-769.166c0,-34.584 -27.917,-62.5 -62.5,-62.5c-34.167,-0 -62.5,27.916 -62.5,62.5Z" style="fill:#cc253d;fill-rule:nonzero;"/><path id="XMLID_155_" d="M3066.71,959.736l0,210.417c0,34.583 -27.917,62.5 -62.5,62.5c-34.583,-0 -62.5,-27.917 -62.5,-62.5l0,-283.334c0,-34.583 -27.917,-62.5 -62.5,-62.5c-34.583,0 -62.5,27.917 -62.5,62.5l0,283.334c0,34.583 -27.917,62.5 -62.5,62.5c-34.583,-0 -62.5,-27.917 -62.5,-62.5l0,-95.834c0,-34.583 -27.917,-62.5 -62.5,-62.5c-34.583,0 -62.5,27.917 -62.5,62.5l0,1088.33l625,-0l0,-1202.92c0,-34.583 -27.917,-62.5 -62.5,-62.5c-34.167,-0 -62.5,27.917 -62.5,62.5Z" style="fill:none;fill-rule:nonzero;stroke:#3f2522;stroke-width:25px;"/><path id="XMLID_150_" d="M3066.71,1413.07l0,296.25c0,34.584 -27.917,62.5 -62.5,62.5c-34.583,0 -62.5,-27.916 -62.5,-62.5l0,-153.333c0,-34.583 -27.917,-62.5 -62.5,-62.5c-34.583,-0 -62.5,27.917 -62.5,62.5l0,153.333c0,34.584 -27.917,62.5 -62.5,62.5c-34.583,0 -62.5,-27.916 -62.5,-62.5l0,-210.416c0,-34.584 -27.917,-62.5 -62.5,-62.5c-34.583,-0 -62.5,27.916 -62.5,62.5l0,683.333l625,-0l0,-769.167c0,-34.583 -27.917,-62.5 -62.5,-62.5c-34.167,0 -62.5,27.917 -62.5,62.5Z" style="fill:#38beb3;fill-rule:nonzero;"/><rect id="XMLID_162_" x="2566.71" y="2011.82" width="625" height="150.833" style="fill:#026060;fill-opacity:0.14;"/><path id="XMLID_160_" d="M3066.71,1413.07l0,296.25c0,34.584 -27.917,62.5 -62.5,62.5c-34.583,0 -62.5,-27.916 -62.5,-62.5l0,-153.333c0,-34.583 -27.917,-62.5 -62.5,-62.5c-34.583,-0 -62.5,27.917 -62.5,62.5l0,153.333c0,34.584 -27.917,62.5 -62.5,62.5c-34.583,0 -62.5,-27.916 -62.5,-62.5l0,-210.416c0,-34.584 -27.917,-62.5 -62.5,-62.5c-34.583,-0 -62.5,27.916 -62.5,62.5l0,683.333l625,-0l0,-769.167c0,-34.583 -27.917,-62.5 -62.5,-62.5c-34.167,0 -62.5,27.917 -62.5,62.5Z" style="fill:none;fill-rule:nonzero;stroke:#3f2522;stroke-width:25px;"/><rect id="XMLID_148_" x="2566.71" y="670.153" width="625" height="1492.5" style="fill:none;stroke:#3f2522;stroke-width:25px;"/><path id="XMLID_51_" d="M2869.62,2800.99l-0,-90.417c-0,-60.416 49.166,-109.583 109.583,-109.583l322.5,-0c60.417,-0 109.583,-49.167 109.583,-109.583l0,-94.584c0,-60.416 -49.166,-109.583 -109.583,-109.583l-98.75,-0" style="fill:none;fill-rule:nonzero;stroke:#3f2522;stroke-width:33.33px;"/><path id="XMLID_79_" d="M2241.29,2249.74l-117.5,-212.917c-3.75,-7.083 -13.75,-7.083 -17.5,0l-117.083,212.5l0,38.334l252.083,-0l0,-37.917Z" style="fill:#f1e4e5;fill-rule:nonzero;"/><path id="XMLID_102_" d="M2124.21,2037.24c-3.75,-7.083 -13.75,-7.083 -17.5,-0l-12.917,23.75l109.167,197.917l0,28.75l38.75,-0l0,-37.917l-117.5,-212.5Z" style="fill:#ddd4d5;fill-rule:nonzero;"/><path id="XMLID_27_" d="M2241.29,2249.74l-117.5,-212.917c-3.75,-7.083 -13.75,-7.083 -17.5,0l-117.083,212.5l0,38.334l252.083,-0l0,-37.917Z" style="fill:none;fill-rule:nonzero;stroke:#3f2522;stroke-width:25px;"/><path id="XMLID_50_" d="M2160.46,2103.07l-36.25,-65.833c-3.75,-7.083 -13.75,-7.083 -17.5,-0l-36.25,65.833l90,0Z" style="fill:none;fill-rule:nonzero;stroke:#3f2522;stroke-width:25px;"/><path id="XMLID_80_" d="M2160.46,2103.07l-36.25,-65.833c-3.75,-7.083 -13.75,-7.083 -17.5,-0l-36.25,65.833l90,0Z" style="fill:#3f2522;fill-rule:nonzero;"/><path id="XMLID_16_" d="M1107.54,3333.49c-67.5,-0 -124.583,-55.833 -127.083,-127.083l-22.917,-589.584l300,0l-22.916,589.584c-2.5,71.25 -59.584,127.083 -127.084,127.083Z" style="fill:#6b352f;fill-rule:nonzero;"/><path id="XMLID_72_" d="M983.375,3229.74c32.5,-0 58.75,-27.083 57.083,-59.583l-20.833,-493.75c-1.25,-33.334 -28.75,-59.584 -62.084,-59.584l22.917,589.584c0.417,7.916 1.25,15.833 2.917,23.333Z" style="fill:#a35d58;fill-opacity:0.48;fill-rule:nonzero;"/><path id="XMLID_110_" d="M1257.54,2616.82c-37.5,0 -68.333,29.584 -70,67.084l-18.75,489.583c-2.916,71.667 -59.583,127.083 -127.083,127.083c-6.25,0 -12.917,-0.416 -19.167,-1.666c22.5,21.25 52.5,34.166 85,34.166c67.5,0 124.584,-55.833 127.084,-127.083l22.916,-589.167Z" style="fill:#602c29;fill-rule:nonzero;"/><path id="XMLID_127_" d="M854.208,2593.07c0.417,48.334 196.25,34.584 228.333,122.917c31.667,87.083 -138.333,161.667 -192.5,385.417c-26.25,107.916 -15.416,208.75 9.167,217.916c31.25,11.667 53.75,-152.5 159.167,-167.083c65,-9.167 116.666,37.5 180,117.5c96.25,121.667 103.333,182.5 128.333,179.167c32.083,-4.584 73.75,-257.917 -39.583,-341.667c-67.084,-49.583 -145.834,-14.583 -188.75,-67.917c-40.834,-50.833 -8.75,-124.583 0.833,-149.166c6.667,-16.25 51.25,-97.084 122.5,-150.834c24.583,-18.333 42.083,-16.25 57.083,-36.25c22.917,-30.833 28.334,-84.583 0,-122.916c-38.333,-52.084 -120.416,-48.334 -156.25,-16.667c-35.416,31.25 25.417,63.75 0,75c-44.166,19.583 -85.833,-117.5 -174.166,-105c-62.917,9.167 -134.584,30 -134.167,59.583Z" style="fill:none;fill-rule:nonzero;stroke:#dd795b;stroke-width:25px;"/><path id="XMLID_126_" d="M886.291,2723.49c42.5,-33.75 88.334,-44.583 115.834,-26.667c3.333,2.084 18.333,12.917 20.833,30c2.917,21.667 -16.667,40.417 -35.417,58.334c-21.666,20.833 -53.333,51.666 -93.75,93.75" style="fill:none;fill-rule:nonzero;stroke:#dd795b;stroke-width:25px;"/><path id="XMLID_125_" d="M1041.71,2584.74c27.083,27.083 63.333,100.417 122.917,100.417c57.5,-0 67.083,-110 92.916,-100.417c9.167,3.333 31.667,22.5 32.917,32.5c2.917,21.25 -16.25,40 -35,55c0,-0 -56.667,42.5 -117.083,109.583c-27.084,30.417 -75,100.834 -82.917,166.667c-4.583,38.75 -5,90.833 19.583,127.917c40.417,61.666 152.5,77.5 275,35.416" style="fill:none;fill-rule:nonzero;stroke:#dd795b;stroke-width:25px;"/><path id="XMLID_95_" d="M1315.88,2799.32c-37.5,-15 -112.917,55 -123.75,129.167c-1.25,9.583 -8.334,57.5 17.916,76.25c28.334,20.417 81.25,-2.5 108.334,-33.333c48.333,-54.584 34.583,-157.5 -2.5,-172.084Z" style="fill:none;fill-rule:nonzero;stroke:#dd795b;stroke-width:25px;"/><path id="XMLID_98_" d="M945.041,3100.57c-1.666,-5.416 -21.666,-79.166 16.25,-116.666c5,-5 30,-27.084 45,-2.5c11.25,17.916 13.75,81.25 -9.166,131.666c-20.834,46.25 -62.917,65.834 -82.5,79.167" style="fill:none;fill-rule:nonzero;stroke:#dd795b;stroke-width:25px;"/><path id="XMLID_103_" d="M990.875,3370.15c-14.167,-55 6.25,-117.917 47.083,-142.5c24.583,-14.584 51.25,-13.75 51.25,-13.75c29.167,1.25 49.583,16.666 60.417,25.416c-0,0 61.666,48.75 59.166,149.167l0,2.5c-0.416,23.333 -5,42.5 -9.166,55.417" style="fill:none;fill-rule:nonzero;stroke:#dd795b;stroke-width:25px;"/><path id="XMLID_107_" d="M1084.62,3357.65c-20,-21.25 -21.667,-49.584 -8.75,-65.417c12.083,-14.583 34.166,-14.583 47.083,-10.833c25.417,7.5 44.167,36.25 44.583,71.666" style="fill:none;fill-rule:nonzero;stroke:#dd795b;stroke-width:25px;"/><path id="XMLID_42_" d="M1257.54,2616.82l-300,0c2.917,-113.75 26.667,-199.583 59.584,-257.083l180.416,-0c33.334,57.5 57.084,142.917 60,257.083Z" style="fill:#bdced9;fill-rule:nonzero;"/><path id="XMLID_179_" d="M1017.54,2359.74c-32.916,57.5 -56.666,142.917 -59.583,257.083c30,0 55.417,-22.916 57.917,-52.916c7.916,-87.917 29.166,-155.834 56.666,-203.75l-55,-0l0,-0.417Z" style="fill:#fff;fill-opacity:0.26;fill-rule:nonzero;"/><path id="XMLID_26_" d="M1205.46,2425.15l-128.75,-0c-35.417,-0 -64.167,-28.75 -64.167,-64.167l0,-1.25l192.917,-0l0,65.417Z" style="fill:#acc1cc;fill-rule:nonzero;"/><path id="XMLID_75_" d="M1197.96,2359.74l-71.25,-0c32.917,57.5 56.667,142.917 59.583,257.083l71.25,0c-2.916,-114.166 -26.666,-199.583 -59.583,-257.083Z" style="fill:#acc1cc;fill-rule:nonzero;"/><path id="XMLID_7_" d="M1257.54,2616.82l-300,0c2.917,-113.75 26.667,-199.583 59.584,-257.083l180.416,-0c33.334,57.5 57.084,142.917 60,257.083Z" style="fill:none;fill-rule:nonzero;stroke:#3f2522;stroke-width:25px;"/><path id="XMLID_34_" d="M1190.88,2359.74l-166.667,-0c-27.5,-0 -50,-22.5 -50,-50c0,-27.5 22.5,-50 50,-50l166.667,-0c27.5,-0 50,22.5 50,50c-0,27.5 -22.084,50 -50,50Z" style="fill:#bdced9;fill-rule:nonzero;"/><ellipse id="XMLID_142_" cx="999.208" cy="2309.74" rx="25.417" ry="33.333" style="fill:#fff;fill-opacity:0.26;"/><path id="XMLID_138_" d="M1190.88,2259.74l-100.834,-0c27.5,-0 50,22.5 50,50c0,27.5 -22.5,50 -50,50l100.834,-0c27.5,-0 50,-22.5 50,-50c-0,-27.5 -22.084,-50 -50,-50Z" style="fill:#acc1cc;fill-rule:nonzero;"/><path id="XMLID_8_" d="M1190.88,2359.74l-166.667,-0c-27.5,-0 -50,-22.5 -50,-50c0,-27.5 22.5,-50 50,-50l166.667,-0c27.5,-0 50,22.5 50,50c-0,27.5 -22.084,50 -50,50Z" style="fill:none;fill-rule:nonzero;stroke:#3f2522;stroke-width:25px;"/><path id="XMLID_33_" d="M1199.21,1972.24c19.583,27.083 51.25,54.167 57.917,103.333c2.5,19.167 1.666,39.584 -2.917,60c-15.417,63.75 -87.5,131.25 -172.5,122.917c-87.083,-8.333 -157.083,-93.333 -145.833,-190.833c2.916,-27.917 14.583,-107.5 77.916,-178.75c38.75,-43.75 82.5,-67.917 113.75,-80.834c12.917,-5.416 27.084,3.75 27.5,17.917c2.084,72.917 23.334,117.917 44.167,146.25Z" style="fill:#3f2522;fill-rule:nonzero;"/><path id="XMLID_10_" d="M1199.21,1972.24c19.583,27.083 51.25,54.167 57.917,103.333c2.5,19.167 1.666,39.584 -2.917,60c-15.417,63.75 -87.5,131.25 -172.5,122.917c-87.083,-8.333 -157.083,-93.333 -145.833,-190.833c2.916,-27.917 14.583,-107.5 77.916,-178.75c38.75,-43.75 82.5,-67.917 113.75,-80.834c12.917,-5.416 27.084,3.75 27.5,17.917c2.084,72.917 23.334,117.917 44.167,146.25Z" style="fill:none;fill-rule:nonzero;stroke:#3f2522;stroke-width:25px;"/><path id="XMLID_2_" d="M1222.54,2068.49l0,-2.083c0,-0.834 0.417,-2.084 0.417,-2.917c0.417,-2.083 0.417,-4.583 0.833,-6.667c0,-0.833 0.417,-1.666 0.417,-2.5c2.083,-11.25 5,-45.416 9.583,-55.833c-7.5,-1.25 -14.166,17.917 -18.75,12.083c-5.833,-7.083 -11.25,-13.333 -15.833,-20c-20.833,-28.333 -42.083,-73.333 -44.167,-146.666c-0.416,-14.167 -14.583,-23.334 -27.5,-17.917c-31.25,12.917 -75,37.083 -113.75,80.833c-32.083,35.834 -68.75,52.084 -79.166,101.667c1.666,0.417 37.916,30.417 37.916,53.333l0,62.917c0,28.333 22.5,52.917 50.834,53.333c29.166,0.417 52.916,-22.916 52.916,-51.666l0,-108.334c0,-15.833 12.084,-29.583 27.917,-30c16.25,-0.416 30,12.5 30,28.75l0,49.584c0,28.75 20,51.666 44.583,51.666c22.5,0 41.25,-19.583 44.167,-44.583c-0.833,-1.667 -0.417,-3.333 -0.417,-5Z" style="fill:#301b19;fill-opacity:0.76;fill-rule:nonzero;"/><path id="XMLID_1_" d="M1107.54,3333.49c-67.5,-0 -124.583,-55.833 -127.083,-127.083l-22.917,-589.584l300,0l-22.916,589.584c-2.5,71.25 -59.584,127.083 -127.084,127.083Z" style="fill:none;fill-rule:nonzero;stroke:#3f2522;stroke-width:25px;"/><path id="XMLID_82_" d="M1639.62,3303.9c-73.75,-0 -133.334,-59.584 -133.334,-133.334l0,-650l266.667,0l0,650c0,73.75 -59.583,133.334 -133.333,133.334Z" style="fill:#38beb3;fill-rule:nonzero;"/><path id="XMLID_92_" d="M1514.62,3221.4l-0,-677.5c27.5,-0 50,22.5 50,50l-0,577.916c-0,27.5 -22.5,49.584 -50,49.584Z" style="fill:#fff;fill-opacity:0.23;fill-rule:nonzero;"/><path id="XMLID_109_" d="M1710.46,2520.57l0,617.5c0,73.75 -59.583,133.334 -133.333,133.334c-9.584,-0 -18.75,-0.834 -27.917,-2.917c23.75,22.083 55.417,35.417 90.417,35.417c73.75,-0 133.333,-59.584 133.333,-133.334l0,-650l-62.5,0Z" style="fill:#026060;fill-opacity:0.32;fill-rule:nonzero;"/><path id="XMLID_9_" d="M1639.62,3303.9c-73.75,-0 -133.334,-59.584 -133.334,-133.334l0,-650l266.667,0l0,650c0,73.75 -59.583,133.334 -133.333,133.334Z" style="fill:none;fill-rule:nonzero;stroke:#3f2522;stroke-width:25px;"/><path id="XMLID_29_" d="M1706.29,2228.9l0,-123.334l-133.333,0l0,123.334c0,36.666 -30,66.666 -66.667,66.666l0,225l266.667,0l0,-225c-36.667,0 -66.667,-30 -66.667,-66.666Z" style="fill:#9bc7bc;fill-rule:nonzero;"/><path id="XMLID_93_" d="M1518.79,2506.4l-2.916,-0l-0,-196.667c26.25,-0 47.083,21.25 47.083,47.083l0,105c0.417,24.584 -19.583,44.584 -44.167,44.584Z" style="fill:#fff;fill-opacity:0.26;fill-rule:nonzero;"/><path id="XMLID_100_" d="M1706.29,2228.9l0,-123.334c-32.083,0 -58.333,26.25 -58.333,58.334l0,65c0,47.916 27.083,89.583 66.667,110.416l-0,122.917c-0,32.083 26.25,58.333 58.333,58.333l0,-225c-36.667,0 -66.667,-30 -66.667,-66.666Z" style="fill:#72a596;fill-opacity:0.47;fill-rule:nonzero;"/><path id="XMLID_83_" d="M1706.29,2228.9l0,-123.334l-133.333,0l0,126.25c0,35.417 -28.75,63.75 -63.75,63.75l-2.917,0l0,225l266.667,0l0,-225c-36.667,0 -66.667,-30 -66.667,-66.666Z" style="fill:none;fill-rule:nonzero;stroke:#3f2522;stroke-width:25px;"/><path id="XMLID_86_" d="M1589.62,1919.74l-0,186.25l100,-0l-0,-140c-33.75,-7.5 -63.334,-25.833 -84.584,-51.667c-5,-6.666 -15.416,-2.916 -15.416,5.417Z" style="fill:#94af4a;fill-rule:nonzero;"/><path id="XMLID_30_" d="M1589.62,1923.07l-0,182.5l100,0l-0,-140c-32.5,-7.083 -61.25,-25 -82.5,-49.166c-5.834,-7.084 -17.5,-2.917 -17.5,6.666Z" style="fill:none;fill-rule:nonzero;stroke:#3f2522;stroke-width:25px;"/><path id="XMLID_81_" d="M2190.46,3308.49l-150,-0c-27.5,-0 -50,-22.5 -50,-50l0,-64.583l250,-0l0,64.583c0,27.5 -22.5,50 -50,50Z" style="fill:#ec2731;fill-rule:nonzero;"/><path id="XMLID_94_" d="M2202.12,3235.99l-0,19.583c-0,12.084 -10,22.084 -22.084,22.084l-106.666,-0c-17.084,-0 -31.25,13.75 -31.25,31.25l147.916,-0c27.5,-0 50,-22.5 50,-50l0,-59.584l-1.666,0c-20,0 -36.25,16.25 -36.25,36.667Z" style="fill:#d3112e;fill-rule:nonzero;"/><path id="XMLID_69_" d="M2019.21,3285.99c-9.167,-0 -16.25,-7.5 -16.25,-16.25l0,-63.75l16.25,-0c9.167,-0 16.25,7.5 16.25,16.25l0,47.5c0,8.75 -7.5,16.25 -16.25,16.25Z" style="fill:#ffa4ad;fill-opacity:0.51;fill-rule:nonzero;"/><path id="XMLID_25_" d="M2190.46,3308.49l-150,-0c-27.5,-0 -50,-22.5 -50,-50l0,-64.583l250,-0l0,64.583c0,27.5 -22.5,50 -50,50Z" style="fill:none;fill-rule:nonzero;stroke:#3f2522;stroke-width:25px;"/><path id="XMLID_70_" d="M2248.79,3193.9l-83.333,-0l0,-920.834c0,-22.916 18.75,-41.666 41.667,-41.666c22.916,-0 41.666,18.75 41.666,41.666l0,920.834Z" style="fill:#48633b;fill-rule:nonzero;"/><path id="XMLID_23_" d="M2248.79,3193.9l-83.333,-0l0,-920.834c0,-22.916 18.75,-41.666 41.667,-41.666c22.916,-0 41.666,18.75 41.666,41.666l0,920.834Z" style="fill:none;fill-rule:nonzero;stroke:#3f2522;stroke-width:25px;"/><path id="XMLID_78_" d="M2065.46,3193.9l-83.333,-0l-0,-920.834c-0,-22.916 18.75,-41.666 41.666,-41.666c22.917,-0 41.667,18.75 41.667,41.666l0,920.834Z" style="fill:#94af4a;fill-rule:nonzero;"/><path id="XMLID_96_" d="M2001.71,3175.15c-9.583,-0 -17.5,-7.917 -17.5,-17.5l0,-889.584c0,-9.583 7.917,-17.5 17.5,-17.5c9.583,0 17.5,7.917 17.5,17.5l0,889.584c0,9.583 -7.917,17.5 -17.5,17.5Z" style="fill:#bfbc47;fill-rule:nonzero;"/><path id="XMLID_32_" d="M2065.46,3193.9l-83.333,-0l-0,-920.834c-0,-22.916 18.75,-41.666 41.666,-41.666c22.917,-0 41.667,18.75 41.667,41.666l0,920.834Z" style="fill:none;fill-rule:nonzero;stroke:#3f2522;stroke-width:25px;"/><path id="XMLID_77_" d="M2165.46,3193.9l-100,-0l0,-912.5c0,-27.5 22.5,-50 50,-50c27.5,-0 50,22.5 50,50l0,912.5Z" style="fill:#4d9358;fill-rule:nonzero;"/><path id="XMLID_38_" d="M2165.46,3193.9l-100,-0l0,-912.5c0,-27.5 22.5,-50 50,-50c27.5,-0 50,22.5 50,50l0,912.5Z" style="fill:none;fill-rule:nonzero;stroke:#3f2522;stroke-width:25px;"/><path id="XMLID_87_" d="M3174.21,2454.32l-593.333,0c-44.584,0 -80.417,-36.25 -80.417,-80.416l0,-172.084c0,-44.583 36.25,-80.416 80.417,-80.416l592.916,-0c44.584,-0 80.417,36.25 80.417,80.416l0,172.084c0.417,44.166 -35.833,80.416 -80,80.416Z" style="fill:#38beb3;fill-rule:nonzero;"/><path id="XMLID_185_" d="M2534.62,2390.99c-13.334,-0 -24.167,-10.833 -24.167,-24.167l0,-158.333c0,-13.333 10.833,-24.167 24.167,-24.167c13.333,0 24.166,10.834 24.166,24.167l0,158.333c0.417,13.334 -10.416,24.167 -24.166,24.167Z" style="fill:#fff;fill-opacity:0.23;fill-rule:nonzero;"/><path id="XMLID_73_" d="M3142.96,2375.99l-531.25,-0c-14.167,-0 -25.833,-11.667 -25.833,-25.833c-0,-14.167 11.666,-25.834 25.833,-25.834l531.25,0c14.167,0 25.833,11.667 25.833,25.834c0,14.166 -11.666,25.833 -25.833,25.833Z" style="fill:#026060;fill-opacity:0.05;fill-rule:nonzero;"/><path id="XMLID_113_" d="M3155.88,2300.57l-556.667,0c-7.083,0 -12.917,-5.833 -12.917,-12.916c0,-7.084 5.834,-12.917 12.917,-12.917l557.083,-0c7.084,-0 12.917,5.833 12.917,12.917c-0.417,7.5 -6.25,12.916 -13.333,12.916Z" style="fill:#026060;fill-opacity:0.05;fill-rule:nonzero;"/><path id="XMLID_153_" d="M3174.21,2120.99l-4.583,-0c5.416,10.833 8.75,22.917 8.75,36.25l-0,192.083c-0,33.334 -27.084,60.834 -60.834,60.834l-514.166,-0c-24.584,-0 -44.584,20 -44.584,44.583l615,-0c44.584,-0 80.417,-36.25 80.417,-80.417l0,-172.083c0.417,-45.417 -35.833,-81.25 -80,-81.25Z" style="fill:#026060;fill-opacity:0.14;fill-rule:nonzero;"/><path id="XMLID_104_" d="M3204.62,2174.32l-654.167,0c-12.083,0 -21.667,-9.583 -21.667,-21.666c0,-12.084 9.584,-21.667 21.667,-21.667l654.167,-0c12.083,-0 21.666,9.583 21.666,21.667c0,12.083 -9.583,21.666 -21.666,21.666Z" style="fill:#92d3d1;fill-opacity:0.15;fill-rule:nonzero;"/><path id="XMLID_31_" d="M3174.21,2454.32l-593.333,0c-44.584,0 -80.417,-36.25 -80.417,-80.416l0,-172.084c0,-44.583 36.25,-80.416 80.417,-80.416l592.916,-0c44.584,-0 80.417,36.25 80.417,80.416l0,172.084c0.417,44.166 -35.833,80.416 -80,80.416Z" style="fill:none;fill-rule:nonzero;stroke:#3f2522;stroke-width:25px;"/><path id="XMLID_43_" d="M2869.62,3283.9c-48.75,-0 -88.75,-39.584 -88.75,-88.75l-0,-285c-0,-48.75 39.583,-88.75 88.75,-88.75c48.75,-0 88.75,39.583 88.75,88.75l-0,285c-0.417,49.166 -40,88.75 -88.75,88.75Z" style="fill:#ab5647;fill-rule:nonzero;"/><path id="XMLID_28_" d="M2809.62,3230.57c-12.5,0 -22.5,-10 -22.5,-22.5l-0,-319.583c-0,-12.5 10,-22.5 22.5,-22.5c12.5,-0 22.5,10 22.5,22.5l-0,319.583c-0,12.5 -10,22.5 -22.5,22.5Z" style="fill:#ffbba6;fill-opacity:0.21;fill-rule:nonzero;"/><path id="XMLID_91_" d="M2892.12,2824.74c12.5,15.417 20.416,35 20.416,56.25l0,285c0,48.75 -39.583,88.75 -88.75,88.75c-7.916,-0 -15.416,-1.25 -22.5,-2.917c16.25,19.584 40.834,32.084 68.334,32.084c48.75,-0 88.75,-39.584 88.75,-88.75l-0,-285c-0.417,-40.834 -28.334,-75.417 -66.25,-85.417Z" style="fill:#9b4f45;fill-rule:nonzero;"/><path id="XMLID_88_" d="M2869.62,3283.9c-48.75,-0 -88.75,-39.584 -88.75,-88.75l-0,-285c-0,-48.75 39.583,-88.75 88.75,-88.75c48.75,-0 88.75,39.583 88.75,88.75l-0,285c-0.417,49.166 -40,88.75 -88.75,88.75Z" style="fill:none;fill-rule:nonzero;stroke:#3f2522;stroke-width:25px;"/><path id="XMLID_89_" d="M2920.04,2842.65l-101.25,-0c-20.833,-0 -37.916,-17.084 -37.916,-37.917c-0,-20.833 17.083,-37.917 37.916,-37.917l101.25,0c20.834,0 37.917,17.084 37.917,37.917c0,20.833 -17.083,37.917 -37.917,37.917Z" style="fill:#9b4f45;fill-rule:nonzero;"/><circle id="XMLID_156_" cx="2806.71" cy="2804.32" r="25.833" style="fill:#ffbba6;fill-opacity:0.21;"/><path id="XMLID_166_" d="M2920.04,2766.4l-59.583,-0c20.833,-0 37.917,17.083 37.917,37.916c-0,20.834 -17.084,37.917 -37.917,37.917l59.583,-0c20.834,-0 37.917,-17.083 37.917,-37.917c0,-20.833 -17.083,-37.916 -37.917,-37.916Z" style="fill:#8c443e;fill-rule:nonzero;"/><path id="XMLID_45_" d="M2920.04,2842.65l-101.25,-0c-20.833,-0 -37.916,-17.084 -37.916,-37.917c-0,-20.833 17.083,-37.917 37.916,-37.917l101.25,0c20.834,0 37.917,17.084 37.917,37.917c0,20.833 -17.083,37.917 -37.917,37.917Z" style="fill:none;fill-rule:nonzero;stroke:#3f2522;stroke-width:25px;"/><path id="XMLID_76_" d="M2500.46,2350.15l-5,-0c-15.833,-0 -28.333,-12.917 -28.333,-28.334l-0,-68.333c-0,-15.833 12.916,-28.333 28.333,-28.333l5,-0l0,125Z" style="fill:none;fill-rule:nonzero;stroke:#3f2522;stroke-width:25px;"/><path id="XMLID_68_" d="M2500.46,2350.15l-5,-0c-15.833,-0 -28.333,-12.917 -28.333,-28.334l-0,-68.333c-0,-15.833 12.916,-28.333 28.333,-28.333l5,-0l0,125Z" style="fill:#3f2522;fill-rule:nonzero;"/><path id="XMLID_90_" d="M3254.62,2350.15l5,-0c15.833,-0 28.333,-12.917 28.333,-28.334l0,-68.333c0,-15.833 -12.917,-28.333 -28.333,-28.333l-5,-0l-0,125Z" style="fill:none;fill-rule:nonzero;stroke:#3f2522;stroke-width:25px;"/><path id="XMLID_74_" d="M3254.62,2350.15l5,-0c15.833,-0 28.333,-12.917 28.333,-28.334l0,-68.333c0,-15.833 -12.917,-28.333 -28.333,-28.333l-5,-0l-0,125Z" style="fill:#3f2522;fill-rule:nonzero;"/><path id="XMLID_56_" d="M1222.54,2001.4c-8.333,-10.417 -16.666,-20 -23.333,-29.584c-20.833,-28.333 -42.083,-72.916 -44.167,-146.666c-0.416,-14.167 -14.583,-23.334 -27.916,-17.917c-31.25,12.917 -75,37.083 -113.75,80.833c-32.084,35.834 -50.834,73.75 -62.084,105.834" style="fill:none;fill-rule:nonzero;stroke:#ec2731;stroke-width:25px;"/><path id="XMLID_71_" d="M1222.54,2049.74l0,-2.083c0,-0.834 0.417,-2.084 0.417,-2.917c0.417,-2.083 0.417,-4.583 0.833,-6.667c0,-0.833 0.417,-1.666 0.417,-2.5c2.083,-11.25 5,-22.5 9.583,-32.916c-7.5,-1.25 -14.166,-5 -18.75,-10.834c-5.833,-7.083 -11.25,-13.333 -15.833,-20c-20.833,-28.333 -42.083,-73.333 -44.167,-146.666c-0.416,-14.167 -14.583,-23.334 -27.5,-17.917c-31.25,12.917 -75,37.083 -113.75,80.833c-32.083,35.834 -55,85.417 -66.25,117.917c1.667,0.417 24.584,14.167 24.584,37.083l-0,62.917c-0,28.333 22.5,52.917 50.833,53.333c29.167,0.417 52.917,-22.916 52.917,-51.666l-0,-108.334c-0,-15.833 12.083,-29.583 27.916,-30c16.25,-0.416 30,12.5 30,28.75l0,49.584c0,28.75 20,51.666 44.584,51.666c22.5,0 41.25,-19.583 44.166,-44.583c-0.416,-1.25 0,-2.917 0,-5Z" style="fill:#ec2731;fill-rule:nonzero;"/><path id="XMLID_135_" d="M1589.62,3069.32l-0,66.25" style="fill:none;fill-rule:nonzero;stroke:#fff;stroke-opacity:0.4;stroke-width:25px;"/><path id="XMLID_118_" d="M1589.62,2584.32l-0,428.334" style="fill:none;fill-rule:nonzero;stroke:#fff;stroke-opacity:0.4;stroke-width:25px;"/><path id="XMLID_111_" d="M2880.04,1398.49l-45,-66.667c-23.75,-35 -1.666,-84.166 40.834,-87.083l8.333,-0c42.083,2.917 64.167,51.667 40.833,87.083l-45,66.667Z" style="fill:#cc253d;fill-rule:nonzero;"/><path id="XMLID_170_" d="M2880.04,1427.65l-45,-66.667c-23.75,-35 -1.666,-84.167 40.834,-87.083l8.333,-0c42.083,2.916 64.167,51.666 40.833,87.083l-45,66.667Z" style="fill:#38beb3;fill-rule:nonzero;"/><path id="XMLID_175_" d="M2880.04,1427.65l-45,-66.667c-23.75,-35 -1.666,-84.167 40.834,-87.083l8.333,-0c42.083,2.916 64.167,51.666 40.833,87.083l-45,66.667Z" style="fill:none;fill-rule:nonzero;stroke:#3f2522;stroke-width:25px;"/><path id="XMLID_158_" d="M2609.21,2203.49l348.75,-0" style="fill:none;fill-rule:nonzero;stroke:#fff;stroke-opacity:0.4;stroke-width:25px;"/><path id="XMLID_163_" d="M3029.21,2203.49l50,-0" style="fill:none;fill-rule:nonzero;stroke:#fff;stroke-opacity:0.4;stroke-width:25px;"/><circle id="XMLID_165_" cx="2869.62" cy="3184.32" r="27.917" style="fill:#3e454f;"/><circle id="XMLID_164_" cx="2869.62" cy="3184.32" r="27.917" style="fill:none;stroke:#3f2522;stroke-width:25px;"/></g><g id="XMLID_115_"></g></svg>