<svg xmlns="http://www.w3.org/2000/svg" viewBox="0 0 500 500"><g id="freepik--background-simple--inject-2"><g><path d="M441.85,127.45c-1.56-2.41-3.17-4.77-4.87-7.08-22.51-30.75-60-51.8-96.42-61.33-15.96-4.18-32.34-6.37-48.7-6.93-107.28-3.62-146.69,78.59-181.25,99.78-34.56,21.2-87.61,57.4-80.95,133.45,5.05,57.83,40.45,113.12,105.09,138.28,7.12,2.78,14.6,5.19,22.43,7.19,14.57,3.73,30.36,6.06,47.38,6.77,48.87,2.02,88.56-8.93,127.38-36.5,9.02-6.41,18-13.64,29.71-14.43,8.51-.58,16.58,2.27,7.68,9.91-10.46,8.99,1.61,26.66,28.15,14.38,44.33-20.51,62.57-64.75,71.16-109.74,10.55-55.22,5.43-123.89-26.79-173.76Z" style="fill:#92E3A9;"></path><path d="M441.85,127.45c-1.56-2.41-3.17-4.77-4.87-7.08-22.51-30.75-60-51.8-96.42-61.33-15.96-4.18-32.34-6.37-48.7-6.93-107.28-3.62-146.69,78.59-181.25,99.78-34.56,21.2-87.61,57.4-80.95,133.45,5.05,57.83,40.45,113.12,105.09,138.28,7.12,2.78,14.6,5.19,22.43,7.19,14.57,3.73,30.36,6.06,47.38,6.77,48.87,2.02,88.56-8.93,127.38-36.5,9.02-6.41,18-13.64,29.71-14.43,8.51-.58,16.58,2.27,7.68,9.91-10.46,8.99,1.61,26.66,28.15,14.38,44.33-20.51,62.57-64.75,71.16-109.74,10.55-55.22,5.43-123.89-26.79-173.76Z" style="fill:#fff; opacity:.8;"></path></g></g><g id="freepik--Clouds--inject-2"><path d="M419.99,260.65s-4.05-15.51-19.56-16.86c-15.51-1.35-20.9,14.84-24.28,18.88-3.37,4.05-16.86-8.09-26.97-2.7-10.11,5.39-9.44,8.77-14.83,11.46-5.39,2.7-16.18-3.37-20.9-2.7-4.72,.67-16.18,10.11-16.18,10.11h153.07s-1.35-13.49-9.44-18.21c-8.09-4.72-11.46,3.37-20.9,0Z" style="fill:none; opacity:.3; stroke:#000; stroke-miterlimit:10;"></path><path d="M222.95,42.27s-2.34-8.96-11.3-9.74c-8.96-.78-12.08,8.57-14.03,10.91s-9.74-4.68-15.59-1.56c-5.85,3.12-5.46,5.07-8.57,6.62s-9.35-1.95-12.08-1.56-9.35,5.85-9.35,5.85h88.46s-.78-7.79-5.46-10.52c-4.68-2.73-6.62,1.95-12.08,0Z" style="fill:none; opacity:.3; stroke:#000; stroke-miterlimit:10;"></path><path d="M68.08,149.95s-1.64-6.3-7.95-6.85c-6.3-.55-8.5,6.03-9.87,7.67-1.37,1.64-6.85-3.29-10.96-1.1-4.11,2.19-3.84,3.56-6.03,4.66-2.19,1.1-6.58-1.37-8.5-1.1-1.92,.27-6.58,4.11-6.58,4.11h62.22s-.55-5.48-3.84-7.4c-3.29-1.92-4.66,1.37-8.5,0Z" style="fill:none; opacity:.3; stroke:#000; stroke-miterlimit:10;"></path></g><g id="freepik--Buildings--inject-2"><g><rect x="103.63" y="90.19" width="125.51" height="374.6" style="fill:#adadad; stroke:#adadad; stroke-linecap:round; stroke-linejoin:round;"></rect><rect x="156.88" y="90.19" width="72.27" height="374.6" style="fill:#fff; stroke:#adadad; stroke-linecap:round; stroke-linejoin:round;"></rect><rect x="165.26" y="90.19" width="55.49" height="374.6" style="fill:#fff; stroke:#adadad; stroke-linecap:round; stroke-linejoin:round;"></rect><rect x="156.88" y="90.19" width="72.27" height="14.49" style="fill:#adadad; stroke:#adadad; stroke-linecap:round; stroke-linejoin:round;"></rect><g><rect x="175.45" y="438.79" width="35.11" height="26" style="fill:#fff; stroke:#adadad; stroke-linecap:round; stroke-linejoin:round;"></rect><rect x="193.01" y="438.79" width="17.55" height="26" style="fill:#fff; stroke:#adadad; stroke-linecap:round; stroke-linejoin:round;"></rect></g><g><g><rect x="111.97" y="113.92" width="15.93" height="14.47" style="fill:#fff; stroke:#adadad; stroke-linecap:round; stroke-linejoin:round;"></rect><rect x="111.97" y="109.75" width="15.93" height="6.29" style="fill:#fff; stroke:#adadad; stroke-linecap:round; stroke-linejoin:round;"></rect></g><g><rect x="134.75" y="113.92" width="15.93" height="14.47" style="fill:#fff; stroke:#adadad; stroke-linecap:round; stroke-linejoin:round;"></rect><rect x="134.75" y="109.75" width="15.93" height="6.29" style="fill:#fff; stroke:#adadad; stroke-linecap:round; stroke-linejoin:round;"></rect></g><g><rect x="111.97" y="141.7" width="15.93" height="14.47" style="fill:#fff; stroke:#adadad; stroke-linecap:round; stroke-linejoin:round;"></rect><rect x="111.97" y="137.53" width="15.93" height="6.29" style="fill:#fff; stroke:#adadad; stroke-linecap:round; stroke-linejoin:round;"></rect></g><g><rect x="134.75" y="141.7" width="15.93" height="14.47" style="fill:#fff; stroke:#adadad; stroke-linecap:round; stroke-linejoin:round;"></rect><rect x="134.75" y="137.53" width="15.93" height="6.29" style="fill:#fff; stroke:#adadad; stroke-linecap:round; stroke-linejoin:round;"></rect></g><g><rect x="111.97" y="169.47" width="15.93" height="14.47" style="fill:#fff; stroke:#adadad; stroke-linecap:round; stroke-linejoin:round;"></rect><rect x="111.97" y="165.31" width="15.93" height="6.29" style="fill:#fff; stroke:#adadad; stroke-linecap:round; stroke-linejoin:round;"></rect></g><g><rect x="134.75" y="169.47" width="15.93" height="14.47" style="fill:#fff; stroke:#adadad; stroke-linecap:round; stroke-linejoin:round;"></rect><rect x="134.75" y="165.31" width="15.93" height="6.29" style="fill:#fff; stroke:#adadad; stroke-linecap:round; stroke-linejoin:round;"></rect></g><g><rect x="111.97" y="197.25" width="15.93" height="14.47" style="fill:#fff; stroke:#adadad; stroke-linecap:round; stroke-linejoin:round;"></rect><rect x="111.97" y="193.08" width="15.93" height="6.29" style="fill:#fff; stroke:#adadad; stroke-linecap:round; stroke-linejoin:round;"></rect></g><g><rect x="134.75" y="197.25" width="15.93" height="14.47" style="fill:#fff; stroke:#adadad; stroke-linecap:round; stroke-linejoin:round;"></rect><rect x="134.75" y="193.08" width="15.93" height="6.29" style="fill:#fff; stroke:#adadad; stroke-linecap:round; stroke-linejoin:round;"></rect></g><g><rect x="111.97" y="225.03" width="15.93" height="14.47" style="fill:#fff; stroke:#adadad; stroke-linecap:round; stroke-linejoin:round;"></rect><rect x="111.97" y="220.86" width="15.93" height="6.29" style="fill:#fff; stroke:#adadad; stroke-linecap:round; stroke-linejoin:round;"></rect></g><g><rect x="134.75" y="225.03" width="15.93" height="14.47" style="fill:#fff; stroke:#adadad; stroke-linecap:round; stroke-linejoin:round;"></rect><rect x="134.75" y="220.86" width="15.93" height="6.29" style="fill:#fff; stroke:#adadad; stroke-linecap:round; stroke-linejoin:round;"></rect></g><g><rect x="111.97" y="252.81" width="15.93" height="14.47" style="fill:#fff; stroke:#adadad; stroke-linecap:round; stroke-linejoin:round;"></rect><rect x="111.97" y="248.64" width="15.93" height="6.29" style="fill:#fff; stroke:#adadad; stroke-linecap:round; stroke-linejoin:round;"></rect></g><g><rect x="134.75" y="252.81" width="15.93" height="14.47" style="fill:#fff; stroke:#adadad; stroke-linecap:round; stroke-linejoin:round;"></rect><rect x="134.75" y="248.64" width="15.93" height="6.29" style="fill:#fff; stroke:#adadad; stroke-linecap:round; stroke-linejoin:round;"></rect></g><g><rect x="111.97" y="280.63" width="15.93" height="14.47" style="fill:#fff; stroke:#adadad; stroke-linecap:round; stroke-linejoin:round;"></rect><rect x="111.97" y="276.46" width="15.93" height="6.29" style="fill:#fff; stroke:#adadad; stroke-linecap:round; stroke-linejoin:round;"></rect></g><g><rect x="134.75" y="280.63" width="15.93" height="14.47" style="fill:#fff; stroke:#adadad; stroke-linecap:round; stroke-linejoin:round;"></rect><rect x="134.75" y="276.46" width="15.93" height="6.29" style="fill:#fff; stroke:#adadad; stroke-linecap:round; stroke-linejoin:round;"></rect></g><g><rect x="111.97" y="308.46" width="15.93" height="14.47" style="fill:#fff; stroke:#adadad; stroke-linecap:round; stroke-linejoin:round;"></rect><rect x="111.97" y="304.29" width="15.93" height="6.29" style="fill:#fff; stroke:#adadad; stroke-linecap:round; stroke-linejoin:round;"></rect></g><g><rect x="134.75" y="308.46" width="15.93" height="14.47" style="fill:#fff; stroke:#adadad; stroke-linecap:round; stroke-linejoin:round;"></rect><rect x="134.75" y="304.29" width="15.93" height="6.29" style="fill:#fff; stroke:#adadad; stroke-linecap:round; stroke-linejoin:round;"></rect></g><g><rect x="111.97" y="336.29" width="15.93" height="14.47" style="fill:#fff; stroke:#adadad; stroke-linecap:round; stroke-linejoin:round;"></rect><rect x="111.97" y="332.12" width="15.93" height="6.29" style="fill:#fff; stroke:#adadad; stroke-linecap:round; stroke-linejoin:round;"></rect></g><g><rect x="134.75" y="336.29" width="15.93" height="14.47" style="fill:#fff; stroke:#adadad; stroke-linecap:round; stroke-linejoin:round;"></rect><rect x="134.75" y="332.12" width="15.93" height="6.29" style="fill:#fff; stroke:#adadad; stroke-linecap:round; stroke-linejoin:round;"></rect></g><g><rect x="111.97" y="364.11" width="15.93" height="14.47" style="fill:#fff; stroke:#adadad; stroke-linecap:round; stroke-linejoin:round;"></rect><rect x="111.97" y="359.94" width="15.93" height="6.29" style="fill:#fff; stroke:#adadad; stroke-linecap:round; stroke-linejoin:round;"></rect></g><g><rect x="134.75" y="364.11" width="15.93" height="14.47" style="fill:#fff; stroke:#adadad; stroke-linecap:round; stroke-linejoin:round;"></rect><rect x="134.75" y="359.94" width="15.93" height="6.29" style="fill:#fff; stroke:#adadad; stroke-linecap:round; stroke-linejoin:round;"></rect></g><g><rect x="111.97" y="391.94" width="15.93" height="14.47" style="fill:#fff; stroke:#adadad; stroke-linecap:round; stroke-linejoin:round;"></rect><rect x="111.97" y="387.77" width="15.93" height="6.29" style="fill:#fff; stroke:#adadad; stroke-linecap:round; stroke-linejoin:round;"></rect></g><g><rect x="134.75" y="391.94" width="15.93" height="14.47" style="fill:#fff; stroke:#adadad; stroke-linecap:round; stroke-linejoin:round;"></rect><rect x="134.75" y="387.77" width="15.93" height="6.29" style="fill:#fff; stroke:#adadad; stroke-linecap:round; stroke-linejoin:round;"></rect></g><g><rect x="111.97" y="419.76" width="15.93" height="14.47" style="fill:#fff; stroke:#adadad; stroke-linecap:round; stroke-linejoin:round;"></rect><rect x="111.97" y="415.59" width="15.93" height="6.29" style="fill:#fff; stroke:#adadad; stroke-linecap:round; stroke-linejoin:round;"></rect></g><g><rect x="134.75" y="419.76" width="15.93" height="14.47" style="fill:#fff; stroke:#adadad; stroke-linecap:round; stroke-linejoin:round;"></rect><rect x="134.75" y="415.59" width="15.93" height="6.29" style="fill:#fff; stroke:#adadad; stroke-linecap:round; stroke-linejoin:round;"></rect></g></g><g><g><rect x="162.71" y="113.92" width="15.93" height="14.47" style="fill:#fff; stroke:#adadad; stroke-linecap:round; stroke-linejoin:round;"></rect><rect x="162.71" y="109.75" width="15.93" height="6.29" style="fill:#fff; stroke:#adadad; stroke-linecap:round; stroke-linejoin:round;"></rect></g><g><rect x="185.49" y="113.92" width="15.93" height="14.47" style="fill:#fff; stroke:#adadad; stroke-linecap:round; stroke-linejoin:round;"></rect><rect x="185.49" y="109.75" width="15.93" height="6.29" style="fill:#fff; stroke:#adadad; stroke-linecap:round; stroke-linejoin:round;"></rect></g><g><rect x="208.27" y="113.92" width="15.93" height="14.47" style="fill:#fff; stroke:#adadad; stroke-linecap:round; stroke-linejoin:round;"></rect><rect x="208.27" y="109.75" width="15.93" height="6.29" style="fill:#fff; stroke:#adadad; stroke-linecap:round; stroke-linejoin:round;"></rect></g><g><rect x="162.71" y="141.7" width="15.93" height="14.47" style="fill:#fff; stroke:#adadad; stroke-linecap:round; stroke-linejoin:round;"></rect><rect x="162.71" y="137.53" width="15.93" height="6.29" style="fill:#fff; stroke:#adadad; stroke-linecap:round; stroke-linejoin:round;"></rect></g><g><rect x="185.49" y="141.7" width="15.93" height="14.47" style="fill:#fff; stroke:#adadad; stroke-linecap:round; stroke-linejoin:round;"></rect><rect x="185.49" y="137.53" width="15.93" height="6.29" style="fill:#fff; stroke:#adadad; stroke-linecap:round; stroke-linejoin:round;"></rect></g><g><rect x="208.27" y="141.7" width="15.93" height="14.47" style="fill:#fff; stroke:#adadad; stroke-linecap:round; stroke-linejoin:round;"></rect><rect x="208.27" y="137.53" width="15.93" height="6.29" style="fill:#fff; stroke:#adadad; stroke-linecap:round; stroke-linejoin:round;"></rect></g><g><rect x="162.71" y="169.47" width="15.93" height="14.47" style="fill:#fff; stroke:#adadad; stroke-linecap:round; stroke-linejoin:round;"></rect><rect x="162.71" y="165.31" width="15.93" height="6.29" style="fill:#fff; stroke:#adadad; stroke-linecap:round; stroke-linejoin:round;"></rect></g><g><rect x="185.49" y="169.47" width="15.93" height="14.47" style="fill:#fff; stroke:#adadad; stroke-linecap:round; stroke-linejoin:round;"></rect><rect x="185.49" y="165.31" width="15.93" height="6.29" style="fill:#fff; stroke:#adadad; stroke-linecap:round; stroke-linejoin:round;"></rect></g><g><rect x="208.27" y="169.47" width="15.93" height="14.47" style="fill:#fff; stroke:#adadad; stroke-linecap:round; stroke-linejoin:round;"></rect><rect x="208.27" y="165.31" width="15.93" height="6.29" style="fill:#fff; stroke:#adadad; stroke-linecap:round; stroke-linejoin:round;"></rect></g><g><rect x="162.71" y="197.25" width="15.93" height="14.47" style="fill:#fff; stroke:#adadad; stroke-linecap:round; stroke-linejoin:round;"></rect><rect x="162.71" y="193.08" width="15.93" height="6.29" style="fill:#fff; stroke:#adadad; stroke-linecap:round; stroke-linejoin:round;"></rect></g><g><rect x="185.49" y="197.25" width="15.93" height="14.47" style="fill:#fff; stroke:#adadad; stroke-linecap:round; stroke-linejoin:round;"></rect><rect x="185.49" y="193.08" width="15.93" height="6.29" style="fill:#fff; stroke:#adadad; stroke-linecap:round; stroke-linejoin:round;"></rect></g><g><rect x="208.27" y="197.25" width="15.93" height="14.47" style="fill:#fff; stroke:#adadad; stroke-linecap:round; stroke-linejoin:round;"></rect><rect x="208.27" y="193.08" width="15.93" height="6.29" style="fill:#fff; stroke:#adadad; stroke-linecap:round; stroke-linejoin:round;"></rect></g><g><rect x="162.71" y="225.03" width="15.93" height="14.47" style="fill:#fff; stroke:#adadad; stroke-linecap:round; stroke-linejoin:round;"></rect><rect x="162.71" y="220.86" width="15.93" height="6.29" style="fill:#fff; stroke:#adadad; stroke-linecap:round; stroke-linejoin:round;"></rect></g><g><rect x="185.49" y="225.03" width="15.93" height="14.47" style="fill:#fff; stroke:#adadad; stroke-linecap:round; stroke-linejoin:round;"></rect><rect x="185.49" y="220.86" width="15.93" height="6.29" style="fill:#fff; stroke:#adadad; stroke-linecap:round; stroke-linejoin:round;"></rect></g><g><rect x="208.27" y="225.03" width="15.93" height="14.47" style="fill:#fff; stroke:#adadad; stroke-linecap:round; stroke-linejoin:round;"></rect><rect x="208.27" y="220.86" width="15.93" height="6.29" style="fill:#fff; stroke:#adadad; stroke-linecap:round; stroke-linejoin:round;"></rect></g><g><rect x="162.71" y="252.81" width="15.93" height="14.47" style="fill:#fff; stroke:#adadad; stroke-linecap:round; stroke-linejoin:round;"></rect><rect x="162.71" y="248.64" width="15.93" height="6.29" style="fill:#fff; stroke:#adadad; stroke-linecap:round; stroke-linejoin:round;"></rect></g><g><rect x="185.49" y="252.81" width="15.93" height="14.47" style="fill:#fff; stroke:#adadad; stroke-linecap:round; stroke-linejoin:round;"></rect><rect x="185.49" y="248.64" width="15.93" height="6.29" style="fill:#fff; stroke:#adadad; stroke-linecap:round; stroke-linejoin:round;"></rect></g><g><rect x="208.27" y="252.81" width="15.93" height="14.47" style="fill:#fff; stroke:#adadad; stroke-linecap:round; stroke-linejoin:round;"></rect><rect x="208.27" y="248.64" width="15.93" height="6.29" style="fill:#fff; stroke:#adadad; stroke-linecap:round; stroke-linejoin:round;"></rect></g><g><rect x="162.71" y="280.63" width="15.93" height="14.47" style="fill:#fff; stroke:#adadad; stroke-linecap:round; stroke-linejoin:round;"></rect><rect x="162.71" y="276.46" width="15.93" height="6.29" style="fill:#fff; stroke:#adadad; stroke-linecap:round; stroke-linejoin:round;"></rect></g><g><rect x="185.49" y="280.63" width="15.93" height="14.47" style="fill:#fff; stroke:#adadad; stroke-linecap:round; stroke-linejoin:round;"></rect><rect x="185.49" y="276.46" width="15.93" height="6.29" style="fill:#fff; stroke:#adadad; stroke-linecap:round; stroke-linejoin:round;"></rect></g><g><rect x="208.27" y="280.63" width="15.93" height="14.47" style="fill:#fff; stroke:#adadad; stroke-linecap:round; stroke-linejoin:round;"></rect><rect x="208.27" y="276.46" width="15.93" height="6.29" style="fill:#fff; stroke:#adadad; stroke-linecap:round; stroke-linejoin:round;"></rect></g><g><rect x="162.71" y="308.46" width="15.93" height="14.47" style="fill:#fff; stroke:#adadad; stroke-linecap:round; stroke-linejoin:round;"></rect><rect x="162.71" y="304.29" width="15.93" height="6.29" style="fill:#fff; stroke:#adadad; stroke-linecap:round; stroke-linejoin:round;"></rect></g><g><rect x="185.49" y="308.46" width="15.93" height="14.47" style="fill:#fff; stroke:#adadad; stroke-linecap:round; stroke-linejoin:round;"></rect><rect x="185.49" y="304.29" width="15.93" height="6.29" style="fill:#fff; stroke:#adadad; stroke-linecap:round; stroke-linejoin:round;"></rect></g><g><rect x="208.27" y="308.46" width="15.93" height="14.47" style="fill:#fff; stroke:#adadad; stroke-linecap:round; stroke-linejoin:round;"></rect><rect x="208.27" y="304.29" width="15.93" height="6.29" style="fill:#fff; stroke:#adadad; stroke-linecap:round; stroke-linejoin:round;"></rect></g><g><rect x="162.71" y="336.29" width="15.93" height="14.47" style="fill:#fff; stroke:#adadad; stroke-linecap:round; stroke-linejoin:round;"></rect><rect x="162.71" y="332.12" width="15.93" height="6.29" style="fill:#fff; stroke:#adadad; stroke-linecap:round; stroke-linejoin:round;"></rect></g><g><rect x="185.49" y="336.29" width="15.93" height="14.47" style="fill:#fff; stroke:#adadad; stroke-linecap:round; stroke-linejoin:round;"></rect><rect x="185.49" y="332.12" width="15.93" height="6.29" style="fill:#fff; stroke:#adadad; stroke-linecap:round; stroke-linejoin:round;"></rect></g><g><rect x="208.27" y="336.29" width="15.93" height="14.47" style="fill:#fff; stroke:#adadad; stroke-linecap:round; stroke-linejoin:round;"></rect><rect x="208.27" y="332.12" width="15.93" height="6.29" style="fill:#fff; stroke:#adadad; stroke-linecap:round; stroke-linejoin:round;"></rect></g><g><rect x="162.71" y="364.11" width="15.93" height="14.47" style="fill:#fff; stroke:#adadad; stroke-linecap:round; stroke-linejoin:round;"></rect><rect x="162.71" y="359.94" width="15.93" height="6.29" style="fill:#fff; stroke:#adadad; stroke-linecap:round; stroke-linejoin:round;"></rect></g><g><rect x="185.49" y="364.11" width="15.93" height="14.47" style="fill:#fff; stroke:#adadad; stroke-linecap:round; stroke-linejoin:round;"></rect><rect x="185.49" y="359.94" width="15.93" height="6.29" style="fill:#fff; stroke:#adadad; stroke-linecap:round; stroke-linejoin:round;"></rect></g><g><rect x="208.27" y="364.11" width="15.93" height="14.47" style="fill:#fff; stroke:#adadad; stroke-linecap:round; stroke-linejoin:round;"></rect><rect x="208.27" y="359.94" width="15.93" height="6.29" style="fill:#fff; stroke:#adadad; stroke-linecap:round; stroke-linejoin:round;"></rect></g><g><rect x="162.71" y="391.94" width="15.93" height="14.47" style="fill:#fff; stroke:#adadad; stroke-linecap:round; stroke-linejoin:round;"></rect><rect x="162.71" y="387.77" width="15.93" height="6.29" style="fill:#fff; stroke:#adadad; stroke-linecap:round; stroke-linejoin:round;"></rect></g><g><rect x="185.49" y="391.94" width="15.93" height="14.47" style="fill:#fff; stroke:#adadad; stroke-linecap:round; stroke-linejoin:round;"></rect><rect x="185.49" y="387.77" width="15.93" height="6.29" style="fill:#fff; stroke:#adadad; stroke-linecap:round; stroke-linejoin:round;"></rect></g><g><rect x="208.27" y="391.94" width="15.93" height="14.47" style="fill:#fff; stroke:#adadad; stroke-linecap:round; stroke-linejoin:round;"></rect><rect x="208.27" y="387.77" width="15.93" height="6.29" style="fill:#fff; stroke:#adadad; stroke-linecap:round; stroke-linejoin:round;"></rect></g><g><rect x="162.71" y="419.76" width="15.93" height="14.47" style="fill:#fff; stroke:#adadad; stroke-linecap:round; stroke-linejoin:round;"></rect><rect x="162.71" y="415.59" width="15.93" height="6.29" style="fill:#fff; stroke:#adadad; stroke-linecap:round; stroke-linejoin:round;"></rect></g><g><rect x="185.49" y="419.76" width="15.93" height="14.47" style="fill:#fff; stroke:#adadad; stroke-linecap:round; stroke-linejoin:round;"></rect><rect x="185.49" y="415.59" width="15.93" height="6.29" style="fill:#fff; stroke:#adadad; stroke-linecap:round; stroke-linejoin:round;"></rect></g><g><rect x="208.27" y="419.76" width="15.93" height="14.47" style="fill:#fff; stroke:#adadad; stroke-linecap:round; stroke-linejoin:round;"></rect><rect x="208.27" y="415.59" width="15.93" height="6.29" style="fill:#fff; stroke:#adadad; stroke-linecap:round; stroke-linejoin:round;"></rect></g></g><rect x="161.93" y="438.75" width="62.07" height="7.87" style="fill:#fff; stroke:#adadad; stroke-linecap:round; stroke-linejoin:round;"></rect><rect x="161.93" y="436.47" width="62.07" height="7.87" style="fill:#fff; stroke:#adadad; stroke-linecap:round; stroke-linejoin:round;"></rect><rect x="103.56" y="79.3" width="33.81" height="20.84" style="fill:#adadad; stroke:#adadad; stroke-linecap:round; stroke-linejoin:round;"></rect><rect x="125.68" y="79.3" width="11.7" height="20.84" style="fill:#fff; stroke:#adadad; stroke-linecap:round; stroke-linejoin:round;"></rect><rect x="209.17" y="84.4" width="13.9" height="15.75" style="fill:#fff; stroke:#adadad; stroke-linecap:round; stroke-linejoin:round;"></rect><rect x="202.75" y="84.4" width="13.9" height="15.75" style="fill:#adadad; stroke:#adadad; stroke-linecap:round; stroke-linejoin:round;"></rect><rect x="100.57" y="90.19" width="131.63" height="9.96" style="fill:#fff; stroke:#adadad; stroke-linecap:round; stroke-linejoin:round;"></rect><rect x="153.49" y="90.19" width="78.71" height="9.96" style="fill:#fff; stroke:#adadad; stroke-linecap:round; stroke-linejoin:round;"></rect><g><line x1="156.88" y1="90.19" x2="156.88" y2="94.37" style="fill:#fff; stroke:#adadad; stroke-linecap:round; stroke-linejoin:round;"></line><line x1="159.03" y1="90.19" x2="159.03" y2="94.37" style="fill:#fff; stroke:#adadad; stroke-linecap:round; stroke-linejoin:round;"></line><line x1="159.03" y1="95.5" x2="159.03" y2="98.69" style="fill:#fff; stroke:#adadad; stroke-linecap:round; stroke-linejoin:round;"></line><line x1="161.18" y1="90.19" x2="161.18" y2="94.37" style="fill:#fff; stroke:#adadad; stroke-linecap:round; stroke-linejoin:round;"></line><line x1="161.18" y1="95.68" x2="161.18" y2="98.64" style="fill:#fff; stroke:#adadad; stroke-linecap:round; stroke-linejoin:round;"></line><line x1="163.19" y1="95.68" x2="163.19" y2="97.55" style="fill:#fff; stroke:#adadad; stroke-linecap:round; stroke-linejoin:round;"></line><line x1="163.34" y1="90.19" x2="163.34" y2="94.37" style="fill:#fff; stroke:#adadad; stroke-linecap:round; stroke-linejoin:round;"></line><line x1="165.78" y1="93.31" x2="165.78" y2="94.37" style="fill:#fff; stroke:#adadad; stroke-linecap:round; stroke-linejoin:round;"></line><line x1="165.92" y1="90.19" x2="165.92" y2="92.57" style="fill:#fff; stroke:#adadad; stroke-linecap:round; stroke-linejoin:round;"></line><line x1="156.88" y1="95.21" x2="156.88" y2="97.69" style="fill:#fff; stroke:#adadad; stroke-linecap:round; stroke-linejoin:round;"></line></g></g><g><rect x="26.25" y="253.27" width="125.51" height="211.51" style="fill:#adadad; stroke:#adadad; stroke-linecap:round; stroke-linejoin:round;"></rect><rect x="79.49" y="253.27" width="72.27" height="211.51" style="fill:#fff; stroke:#adadad; stroke-linecap:round; stroke-linejoin:round;"></rect><rect x="87.88" y="253.27" width="55.49" height="211.51" style="fill:#fff; stroke:#adadad; stroke-linecap:round; stroke-linejoin:round;"></rect><rect x="79.49" y="253.27" width="72.27" height="14.49" style="fill:#adadad; stroke:#adadad; stroke-linecap:round; stroke-linejoin:round;"></rect><g><rect x="98.07" y="438.79" width="35.11" height="26" style="fill:#fff; stroke:#adadad; stroke-linecap:round; stroke-linejoin:round;"></rect><rect x="115.63" y="438.79" width="17.55" height="26" style="fill:#fff; stroke:#adadad; stroke-linecap:round; stroke-linejoin:round;"></rect></g><g><g><rect x="34.59" y="277" width="15.93" height="14.47" style="fill:#fff; stroke:#adadad; stroke-linecap:round; stroke-linejoin:round;"></rect><rect x="34.59" y="272.84" width="15.93" height="6.29" style="fill:#fff; stroke:#adadad; stroke-linecap:round; stroke-linejoin:round;"></rect></g><g><rect x="57.37" y="277" width="15.93" height="14.47" style="fill:#fff; stroke:#adadad; stroke-linecap:round; stroke-linejoin:round;"></rect><rect x="57.37" y="272.84" width="15.93" height="6.29" style="fill:#fff; stroke:#adadad; stroke-linecap:round; stroke-linejoin:round;"></rect></g><g><rect x="34.59" y="304.78" width="15.93" height="14.47" style="fill:#fff; stroke:#adadad; stroke-linecap:round; stroke-linejoin:round;"></rect><rect x="34.59" y="300.61" width="15.93" height="6.29" style="fill:#fff; stroke:#adadad; stroke-linecap:round; stroke-linejoin:round;"></rect></g><g><rect x="57.37" y="304.78" width="15.93" height="14.47" style="fill:#fff; stroke:#adadad; stroke-linecap:round; stroke-linejoin:round;"></rect><rect x="57.37" y="300.61" width="15.93" height="6.29" style="fill:#fff; stroke:#adadad; stroke-linecap:round; stroke-linejoin:round;"></rect></g><g><rect x="34.59" y="332.56" width="15.93" height="14.47" style="fill:#fff; stroke:#adadad; stroke-linecap:round; stroke-linejoin:round;"></rect><rect x="34.59" y="328.39" width="15.93" height="6.29" style="fill:#fff; stroke:#adadad; stroke-linecap:round; stroke-linejoin:round;"></rect></g><g><rect x="57.37" y="332.56" width="15.93" height="14.47" style="fill:#fff; stroke:#adadad; stroke-linecap:round; stroke-linejoin:round;"></rect><rect x="57.37" y="328.39" width="15.93" height="6.29" style="fill:#fff; stroke:#adadad; stroke-linecap:round; stroke-linejoin:round;"></rect></g><g><rect x="34.59" y="360.34" width="15.93" height="14.47" style="fill:#fff; stroke:#adadad; stroke-linecap:round; stroke-linejoin:round;"></rect><rect x="34.59" y="356.17" width="15.93" height="6.29" style="fill:#fff; stroke:#adadad; stroke-linecap:round; stroke-linejoin:round;"></rect></g><g><rect x="57.37" y="360.34" width="15.93" height="14.47" style="fill:#fff; stroke:#adadad; stroke-linecap:round; stroke-linejoin:round;"></rect><rect x="57.37" y="356.17" width="15.93" height="6.29" style="fill:#fff; stroke:#adadad; stroke-linecap:round; stroke-linejoin:round;"></rect></g><g><rect x="34.59" y="388.11" width="15.93" height="14.47" style="fill:#fff; stroke:#adadad; stroke-linecap:round; stroke-linejoin:round;"></rect><rect x="34.59" y="383.95" width="15.93" height="6.29" style="fill:#fff; stroke:#adadad; stroke-linecap:round; stroke-linejoin:round;"></rect></g><g><rect x="57.37" y="388.11" width="15.93" height="14.47" style="fill:#fff; stroke:#adadad; stroke-linecap:round; stroke-linejoin:round;"></rect><rect x="57.37" y="383.95" width="15.93" height="6.29" style="fill:#fff; stroke:#adadad; stroke-linecap:round; stroke-linejoin:round;"></rect></g><g><rect x="34.59" y="415.89" width="15.93" height="14.47" style="fill:#fff; stroke:#adadad; stroke-linecap:round; stroke-linejoin:round;"></rect><rect x="34.59" y="411.72" width="15.93" height="6.29" style="fill:#fff; stroke:#adadad; stroke-linecap:round; stroke-linejoin:round;"></rect></g><g><rect x="57.37" y="415.89" width="15.93" height="14.47" style="fill:#fff; stroke:#adadad; stroke-linecap:round; stroke-linejoin:round;"></rect><rect x="57.37" y="411.72" width="15.93" height="6.29" style="fill:#fff; stroke:#adadad; stroke-linecap:round; stroke-linejoin:round;"></rect></g></g><g><g><rect x="85.33" y="277" width="15.93" height="14.47" style="fill:#fff; stroke:#adadad; stroke-linecap:round; stroke-linejoin:round;"></rect><rect x="85.33" y="272.84" width="15.93" height="6.29" style="fill:#fff; stroke:#adadad; stroke-linecap:round; stroke-linejoin:round;"></rect></g><g><rect x="108.11" y="277" width="15.93" height="14.47" style="fill:#fff; stroke:#adadad; stroke-linecap:round; stroke-linejoin:round;"></rect><rect x="108.11" y="272.84" width="15.93" height="6.29" style="fill:#fff; stroke:#adadad; stroke-linecap:round; stroke-linejoin:round;"></rect></g><g><rect x="130.88" y="277" width="15.93" height="14.47" style="fill:#fff; stroke:#adadad; stroke-linecap:round; stroke-linejoin:round;"></rect><rect x="130.88" y="272.84" width="15.93" height="6.29" style="fill:#fff; stroke:#adadad; stroke-linecap:round; stroke-linejoin:round;"></rect></g><g><rect x="85.33" y="304.78" width="15.93" height="14.47" style="fill:#fff; stroke:#adadad; stroke-linecap:round; stroke-linejoin:round;"></rect><rect x="85.33" y="300.61" width="15.93" height="6.29" style="fill:#fff; stroke:#adadad; stroke-linecap:round; stroke-linejoin:round;"></rect></g><g><rect x="108.11" y="304.78" width="15.93" height="14.47" style="fill:#fff; stroke:#adadad; stroke-linecap:round; stroke-linejoin:round;"></rect><rect x="108.11" y="300.61" width="15.93" height="6.29" style="fill:#fff; stroke:#adadad; stroke-linecap:round; stroke-linejoin:round;"></rect></g><g><rect x="130.88" y="304.78" width="15.93" height="14.47" style="fill:#fff; stroke:#adadad; stroke-linecap:round; stroke-linejoin:round;"></rect><rect x="130.88" y="300.61" width="15.93" height="6.29" style="fill:#fff; stroke:#adadad; stroke-linecap:round; stroke-linejoin:round;"></rect></g><g><rect x="85.33" y="332.56" width="15.93" height="14.47" style="fill:#fff; stroke:#adadad; stroke-linecap:round; stroke-linejoin:round;"></rect><rect x="85.33" y="328.39" width="15.93" height="6.29" style="fill:#fff; stroke:#adadad; stroke-linecap:round; stroke-linejoin:round;"></rect></g><g><rect x="108.11" y="332.56" width="15.93" height="14.47" style="fill:#fff; stroke:#adadad; stroke-linecap:round; stroke-linejoin:round;"></rect><rect x="108.11" y="328.39" width="15.93" height="6.29" style="fill:#fff; stroke:#adadad; stroke-linecap:round; stroke-linejoin:round;"></rect></g><g><rect x="130.88" y="332.56" width="15.93" height="14.47" style="fill:#fff; stroke:#adadad; stroke-linecap:round; stroke-linejoin:round;"></rect><rect x="130.88" y="328.39" width="15.93" height="6.29" style="fill:#fff; stroke:#adadad; stroke-linecap:round; stroke-linejoin:round;"></rect></g><g><rect x="85.33" y="360.34" width="15.93" height="14.47" style="fill:#fff; stroke:#adadad; stroke-linecap:round; stroke-linejoin:round;"></rect><rect x="85.33" y="356.17" width="15.93" height="6.29" style="fill:#fff; stroke:#adadad; stroke-linecap:round; stroke-linejoin:round;"></rect></g><g><rect x="108.11" y="360.34" width="15.93" height="14.47" style="fill:#fff; stroke:#adadad; stroke-linecap:round; stroke-linejoin:round;"></rect><rect x="108.11" y="356.17" width="15.93" height="6.29" style="fill:#fff; stroke:#adadad; stroke-linecap:round; stroke-linejoin:round;"></rect></g><g><rect x="130.88" y="360.34" width="15.93" height="14.47" style="fill:#fff; stroke:#adadad; stroke-linecap:round; stroke-linejoin:round;"></rect><rect x="130.88" y="356.17" width="15.93" height="6.29" style="fill:#fff; stroke:#adadad; stroke-linecap:round; stroke-linejoin:round;"></rect></g><g><rect x="85.33" y="388.11" width="15.93" height="14.47" style="fill:#fff; stroke:#adadad; stroke-linecap:round; stroke-linejoin:round;"></rect><rect x="85.33" y="383.95" width="15.93" height="6.29" style="fill:#fff; stroke:#adadad; stroke-linecap:round; stroke-linejoin:round;"></rect></g><g><rect x="108.11" y="388.11" width="15.93" height="14.47" style="fill:#fff; stroke:#adadad; stroke-linecap:round; stroke-linejoin:round;"></rect><rect x="108.11" y="383.95" width="15.93" height="6.29" style="fill:#fff; stroke:#adadad; stroke-linecap:round; stroke-linejoin:round;"></rect></g><g><rect x="130.88" y="388.11" width="15.93" height="14.47" style="fill:#fff; stroke:#adadad; stroke-linecap:round; stroke-linejoin:round;"></rect><rect x="130.88" y="383.95" width="15.93" height="6.29" style="fill:#fff; stroke:#adadad; stroke-linecap:round; stroke-linejoin:round;"></rect></g><g><rect x="85.33" y="415.89" width="15.93" height="14.47" style="fill:#fff; stroke:#adadad; stroke-linecap:round; stroke-linejoin:round;"></rect><rect x="85.33" y="411.72" width="15.93" height="6.29" style="fill:#fff; stroke:#adadad; stroke-linecap:round; stroke-linejoin:round;"></rect></g><g><rect x="108.11" y="415.89" width="15.93" height="14.47" style="fill:#fff; stroke:#adadad; stroke-linecap:round; stroke-linejoin:round;"></rect><rect x="108.11" y="411.72" width="15.93" height="6.29" style="fill:#fff; stroke:#adadad; stroke-linecap:round; stroke-linejoin:round;"></rect></g><g><rect x="130.88" y="415.89" width="15.93" height="14.47" style="fill:#fff; stroke:#adadad; stroke-linecap:round; stroke-linejoin:round;"></rect><rect x="130.88" y="411.72" width="15.93" height="6.29" style="fill:#fff; stroke:#adadad; stroke-linecap:round; stroke-linejoin:round;"></rect></g></g><rect x="84.55" y="438.75" width="62.07" height="7.87" style="fill:#fff; stroke:#adadad; stroke-linecap:round; stroke-linejoin:round;"></rect><rect x="84.55" y="436.47" width="62.07" height="7.87" style="fill:#fff; stroke:#adadad; stroke-linecap:round; stroke-linejoin:round;"></rect><rect x="26.18" y="242.39" width="33.81" height="20.84" style="fill:#adadad; stroke:#adadad; stroke-linecap:round; stroke-linejoin:round;"></rect><rect x="48.3" y="242.39" width="11.7" height="20.84" style="fill:#fff; stroke:#adadad; stroke-linecap:round; stroke-linejoin:round;"></rect><rect x="131.79" y="247.48" width="13.9" height="15.75" style="fill:#fff; stroke:#adadad; stroke-linecap:round; stroke-linejoin:round;"></rect><rect x="125.37" y="247.48" width="13.9" height="15.75" style="fill:#adadad; stroke:#adadad; stroke-linecap:round; stroke-linejoin:round;"></rect><rect x="23.19" y="253.27" width="131.63" height="9.96" style="fill:#fff; stroke:#adadad; stroke-linecap:round; stroke-linejoin:round;"></rect><rect x="76.11" y="253.27" width="78.71" height="9.96" style="fill:#fff; stroke:#adadad; stroke-linecap:round; stroke-linejoin:round;"></rect><g><line x1="79.49" y1="253.27" x2="79.49" y2="257.45" style="fill:#fff; stroke:#adadad; stroke-linecap:round; stroke-linejoin:round;"></line><line x1="81.65" y1="253.27" x2="81.65" y2="257.45" style="fill:#fff; stroke:#adadad; stroke-linecap:round; stroke-linejoin:round;"></line><line x1="81.65" y1="258.58" x2="81.65" y2="261.78" style="fill:#fff; stroke:#adadad; stroke-linecap:round; stroke-linejoin:round;"></line><line x1="83.8" y1="253.27" x2="83.8" y2="257.45" style="fill:#fff; stroke:#adadad; stroke-linecap:round; stroke-linejoin:round;"></line><line x1="83.8" y1="258.76" x2="83.8" y2="261.73" style="fill:#fff; stroke:#adadad; stroke-linecap:round; stroke-linejoin:round;"></line><line x1="85.81" y1="258.76" x2="85.81" y2="260.63" style="fill:#fff; stroke:#adadad; stroke-linecap:round; stroke-linejoin:round;"></line><line x1="85.95" y1="253.27" x2="85.95" y2="257.45" style="fill:#fff; stroke:#adadad; stroke-linecap:round; stroke-linejoin:round;"></line><line x1="88.39" y1="256.39" x2="88.39" y2="257.45" style="fill:#fff; stroke:#adadad; stroke-linecap:round; stroke-linejoin:round;"></line><line x1="88.54" y1="253.27" x2="88.54" y2="255.65" style="fill:#fff; stroke:#adadad; stroke-linecap:round; stroke-linejoin:round;"></line><line x1="79.49" y1="258.3" x2="79.49" y2="260.77" style="fill:#fff; stroke:#adadad; stroke-linecap:round; stroke-linejoin:round;"></line></g></g></g><g id="freepik--Character--inject-2"><g><path d="M235.44,469.69h76.57c.62-20.94,2.26-76.74,2.26-86.27,0-11.78,0-29.26-14.63-33.19-14.63-3.93-84.57-9.64-89.21-7.49-4.64,2.14-14.63,8.21-6.42,26.41,7.19,15.95,26.72,83.98,31.44,100.55Z" style="fill:#fff;"></path><path d="M209.13,286.95s-9.92,43.15-8.43,51.58c1.49,8.43,12.4,41.17,31.74,57.53,19.34,16.37,48.11,19.84,59.02,6.45,10.91-13.39,13.39-43.65,11.9-56.05-1.49-12.4,3.48-42.16,3.48-42.16,0,0-16.88,19.35-30.76,24.8-13.89,5.46-49.1-28.27-49.1-28.27l-17.86-13.89Z" style="fill:#fff; stroke:#263238; stroke-miterlimit:10;"></path><polygon points="260.54 337.84 303.95 363.76 304.72 310.69 260.54 337.84" style="fill:#263238; stroke:#263238; stroke-miterlimit:10;"></polygon><path d="M245.24,469.69c-.74-9.11-2.16-25.56-3.41-34.53-1.78-12.85-1.95-15.29-1.95-15.29,0,0-18.39-28.25-19.46-30.74-1.07-2.5-25.34-46.03-27.48-51.39s-5.35-9.63-5.35-9.63c0,0-30.33,11.06-62.81,30.33-32.47,19.27-71.37,43.54-78.86,66.73-5.93,18.37-10.97,37.39-12.81,44.52H245.24Z" style="fill:#263238; stroke:#263238; stroke-miterlimit:10;"></path><path d="M205.66,303.81s-6.45-.99-12.4,4.46c-5.95,5.46-22.82,20.34-23.81,31.74-.99,11.41,13.39,87.79,18.85,94.24,5.46,6.45,26.78-14.88,35.71-16.86,8.93-1.98,15.87,2.48,15.87,2.48,0,0-29.26-64.48-34.22-72.91-4.96-8.43-4.96-16.86-4.96-16.86l4.96-26.29Z" style="fill:#92E3A9; stroke:#263238; stroke-miterlimit:10;"></path><path d="M395.16,469.69c-.31-13-1.44-39.09-5.59-55.94-5.71-23.2-11.78-32.83-14.63-36.76s-60.66-34.26-60.66-34.26c0,0-2.5,3.57-2.5,6.78s-15.46,70.79-15.46,70.79l-1.46,49.39h100.3Z" style="fill:#263238; stroke:#263238; stroke-miterlimit:10;"></path><path d="M303.25,344.33s1.04,13.88,.69,19.43c-.35,5.55-4.86,30.88-5.9,39.89-1.04,9.02-1.73,16.65-1.73,16.65l22.2-14.57s32.96,11.79,30.87,3.12c-2.08-8.67-22.55-55.16-32.26-70.77-9.71-15.61-12.84-16.3-12.84-16.3,0,0-1.16,20.41-1.04,22.55Z" style="fill:#92E3A9; stroke:#263238; stroke-miterlimit:10;"></path><path d="M192.48,206.89l2.82,20.98s-4.84-6.05-8.88-3.63c-4.04,2.42-1.61,16.55,1.61,23.41s13.32,15.74,13.32,15.74c0,0,1.21,21.79,8.47,31.48,7.26,9.68,33.09,46.81,50.44,48.02,17.35,1.21,23-5.65,26.23-8.07,3.23-2.42,29.86-25.02,33.49-45.6s6.46-29.86,6.46-29.86c0,0,10.9-16.55,10.49-26.63-.4-10.09-8.07-9.28-8.07-9.28l-1.21-15.33s7.21-35.11-.05-55.28c-7.26-20.18-44.87-31.92-68.67-31.11-23.81,.81-56.34,14.16-64.42,24.25-8.07,10.09-1.18,53.72-2.05,60.93Z" style="fill:#fff; stroke:#263238; stroke-miterlimit:10;"></path><path d="M327.26,240.79c2.02-1.21,2.02-12.91,2.02-12.91l2.54-4c-1.6-.58-2.95-.44-2.95-.44l-1.21-15.33s7.21-38.53-.05-58.71c-7.26-20.18-42.22-28.6-66.01-29.81-31.41-1.6-59.01,16.29-67.08,26.38-8.07,10.09-1.18,53.72-2.05,60.93l2.82,20.98s0,11.7,2.02,12.91c2.02,1.21,2.42-2.42,2.82-5.65,.4-3.23,1.61-28.65,1.61-28.65,0,0,8.07-5.65,10.9-8.47,2.82-2.82,6.86-11.3,8.47-17.35,1.61-6.05,14.93-11.7,20.58-11.7h41.16c5.65,0,18.97,5.65,20.58,11.7,1.61,6.05,5.65,14.53,8.47,17.35s10.9,8.47,10.9,8.47c0,0,1.21,25.42,1.61,28.65,.4,3.23,.81,6.86,2.82,5.65Z" style="fill:#263238; stroke:#263238; stroke-miterlimit:10;"></path><path d="M254.72,220.18s-23.28-3.06-28.74-2.98c-5.46,.08-8.51,5.42-8.51,5.42,0,0,6.9-1.38,16.4,.15,9.5,1.52,22.48,2.74,20.85-2.58Z" style="fill:#263238;"></path><path d="M244.59,234.41c0,3.11-1.83,5.64-4.08,5.64s-4.08-2.52-4.08-5.64,1.83-5.64,4.08-5.64,4.08,2.52,4.08,5.64Z" style="fill:#263238;"></path><path d="M277.03,219.26s23.41-1.92,28.85-1.57,8.23,5.83,8.23,5.83c0,0-6.83-1.71-16.39-.66s-22.58,1.64-20.7-3.6Z" style="fill:#263238;"></path><path d="M287.11,234.41c0,3.11,1.83,5.64,4.08,5.64s4.08-2.52,4.08-5.64-1.83-5.64-4.08-5.64-4.08,2.52-4.08,5.64Z" style="fill:#263238;"></path><path d="M251.59,264.93s4.28,7.39,14.77,8.55c10.5,1.17,18.27-8.94,18.27-8.94" style="fill:none; stroke:#263238; stroke-miterlimit:10;"></path><path d="M239.15,283.97s28.77,13.99,51.31-1.55c0,0-9.28,15.25-22.55,15.55-17.49,.39-28.77-13.99-28.77-13.99Z" style="fill:#fff; stroke:#263238; stroke-miterlimit:10;"></path></g></g><g id="freepik--Hat--inject-2"><g><path d="M345.55,187.38c-.28-2.03,0-9.88,0-9.88l-6.07,.29s1.66-41.83-11.31-61.59-33.39-28.47-47.73-31.38c-14.35-2.9-17.93-2.61-17.93-2.61,0,0-3.78-.29-18.88,2.61-15.11,2.91-36.6,11.62-50.26,31.38-13.65,19.75-11.91,61.59-11.91,61.59l-6.39-.29s.29,7.84,0,9.88c-.29,2.03,1.16,4.65,4.36,6.97,3.2,2.32,9.3,18.59,12.2,19.75,2.91,1.16,70.88,.29,70.88,.29,0,0,64.56,.87,67.32-.29,2.76-1.16,8.55-17.43,11.59-19.75,3.03-2.32,4.41-4.94,4.14-6.97Z" style="fill:#92E3A9; stroke:#263238; stroke-miterlimit:10;"></path><path d="M230.25,192.31l3.49-68.27-8.86-32.47c-.9-3.29,.93-6.72,4.17-7.8h0c3.8-1.27,7.83,1.21,8.4,5.18l4.12,28.41h11.04l.96-32.78c.11-3.91,3.32-7.02,7.23-7.02h0c3.87,0,7.05,3.04,7.23,6.91l1.73,32.63h9.3l7.97-29.26c1-3.43,4.81-5.17,8.05-3.68h0c2.64,1.21,3.99,4.17,3.17,6.96l-9.91,33.79,3.49,66.55" style="fill:#92E3A9; stroke:#263238; stroke-miterlimit:10;"></path><polyline points="185.26 190.55 185.26 176.58 200.14 176.58 200.14 192.68" style="fill:none; stroke:#263238; stroke-miterlimit:10;"></polyline><polyline points="321.95 186.31 321.95 179.01 337.44 179.01 337.44 192.37" style="fill:none; stroke:#263238; stroke-miterlimit:10;"></polyline><line x1="321.95" y1="193.59" x2="321.95" y2="190.34" style="fill:none; stroke:#263238; stroke-miterlimit:10;"></line><line x1="220.73" y1="192.37" x2="313.75" y2="192.37" style="fill:none; stroke:#263238; stroke-miterlimit:10;"></line><line x1="208.04" y1="192.37" x2="214.27" y2="192.37" style="fill:none; stroke:#263238; stroke-miterlimit:10;"></line></g></g><g id="freepik--Arrow--inject-2"><polygon points="405.55 115.96 399.36 93.81 375.81 100.38 373.35 91.57 344.46 121.07 384.45 131.34 381.99 122.53 405.55 115.96" style="fill:#263238;"></polygon></g></svg>
