<?xml version="1.0" encoding="UTF-8" standalone="no"?><!DOCTYPE svg PUBLIC "-//W3C//DTD SVG 1.1//EN" "http://www.w3.org/Graphics/SVG/1.1/DTD/svg11.dtd"><svg width="100%" height="100%" viewBox="0 0 4167 4167" version="1.1" xmlns="http://www.w3.org/2000/svg" xmlns:xlink="http://www.w3.org/1999/xlink" xml:space="preserve" xmlns:serif="http://www.serif.com/" style="fill-rule:evenodd;clip-rule:evenodd;stroke-linecap:round;stroke-linejoin:round;stroke-miterlimit:10;"><g id="XMLID_1207_"><ellipse id="XMLID_1193_" cx="2050.83" cy="3003.33" rx="979.583" ry="197.083" style="fill:#68cce9;fill-opacity:0.64;"/><g id="XMLID_43_"><path id="XMLID_1211_" d="M1581.25,2971.67c13.75,-44.584 55.833,-68.334 124.167,-88.334c43.333,-12.5 98.333,-18.333 184.583,-35.833c42.083,-8.333 71.667,-25 71.667,-25l-0,47.917c-0,-0 -285.417,56.25 -330,130c-21.667,36.25 -15,125 87.083,134.166c-31.25,4.584 -82.5,-3.333 -110,-31.25c-34.167,-34.583 -43.333,-80.833 -27.5,-131.666Z" style="fill:#282323;fill-rule:nonzero;stroke:#000;stroke-width:16.67px;"/><path id="XMLID_1210_" d="M1961.67,2870.42c-0,-0 -170.834,31.666 -262.084,70.833c-80,34.583 -77.5,70.417 -79.583,107.083c-1.25,21.25 13.75,73.75 74.583,82.917c72.5,10.833 157.917,-0.833 267.084,-70.417l-0,-190.416Z" style="fill:#442c2a;fill-rule:nonzero;"/><path id="XMLID_53_" d="M1620,3048.33c1.667,-29.583 0.417,-58.75 42.083,-87.083c-1.666,10.417 -2.083,20.417 -2.5,30.833c-1.25,21.25 50,-6.25 110.834,2.5c63.333,9.584 100.833,82.084 191.25,33.334l-0,32.5c-109.167,69.583 -194.584,80.833 -267.084,70.416c-60.833,-8.75 -75.833,-61.666 -74.583,-82.5Z" style="fill:#442c2a;fill-opacity:0.37;fill-rule:nonzero;"/><path id="XMLID_47_" d="M1961.67,2870.42c-0,-0 -170.834,31.666 -262.084,70.833c-80,34.583 -77.5,70.417 -79.583,107.083c-1.25,21.25 13.75,73.75 74.583,82.917c72.5,10.833 157.917,-0.833 267.084,-70.417l-0,-190.416Z" style="fill:none;fill-rule:nonzero;stroke:#000;stroke-width:16.67px;"/><path id="XMLID_46_" d="M1803.33,2968.33c-13.75,7.5 -10.416,80.417 22.917,90.417" style="fill:none;fill-rule:nonzero;stroke:#000;stroke-width:16.67px;"/><path id="XMLID_45_" d="M1855.42,2962.92c-14.167,20 -4.167,67.083 21.25,78.75" style="fill:none;fill-rule:nonzero;stroke:#000;stroke-width:16.67px;"/><path id="XMLID_44_" d="M1903.33,2946.25c-14.166,20 -4.166,67.083 21.25,78.75" style="fill:none;fill-rule:nonzero;stroke:#000;stroke-width:16.67px;"/></g><path id="XMLID_77_" d="M2395,2730.42c-90,62.5 -217.917,98.333 -351.667,98.333c-133.333,0 -261.666,-35.833 -351.666,-98.333c-41.25,-28.75 -110.417,-88.75 -110.417,-168.75c-0,-80 69.167,-140 110.417,-168.75c90,-62.5 217.916,-98.334 351.666,-98.334c133.334,0 261.667,35.834 351.667,98.334c41.25,28.75 110.417,88.75 110.417,168.75c-0,80 -69.167,140 -110.417,168.75Z" style="fill:#151e28;fill-rule:nonzero;"/><path id="XMLID_76_" d="M2807.08,2628.33c-1.666,8.334 -3.333,16.25 -5.833,24.584c-65,237.083 -378.333,417.083 -755.417,417.083c-377.916,0 -692.083,-180.833 -755.833,-418.75c-1.667,-6.667 -3.333,-13.333 -4.583,-20c-1.667,-12.5 -1.25,-25 1.25,-37.5c15.416,-70 100.416,-110.417 190,-90.417c58.75,12.917 104.583,49.167 125,92.084c2.083,9.166 5.416,18.333 9.166,27.083c21.667,50 65,87.5 94.167,108.333c87.083,62.5 211.667,98.334 340.833,98.334c129.584,-0 253.75,-35.834 340.834,-98.334c29.583,-21.25 73.333,-59.166 94.583,-109.166c3.333,-7.917 6.25,-16.667 8.333,-25c20,-43.334 66.25,-79.584 125.417,-92.917c89.583,-20 174.583,20.833 190,90.417c2.917,10.833 3.333,22.5 2.083,34.166Z" style="fill:#2a3749;fill-rule:nonzero;"/><path id="XMLID_1209_" d="M2805,2593.33c-0.417,-2.083 -0.833,-3.75 -1.667,-5.833c-1.25,6.667 -2.916,13.75 -5,20.417c-64.166,237.083 -377.916,417.083 -754.583,417.083c-377.917,0 -692.083,-180.833 -755.833,-418.75c-0.834,-2.5 -1.25,-5 -2.084,-7.917c-1.666,10.834 -2.083,21.667 -0.416,32.084c1.25,6.666 2.916,13.333 4.583,20c63.75,237.916 377.917,418.75 755.833,418.75c377.084,-0 690.417,-180 755.417,-417.084c2.083,-7.916 4.167,-16.25 5.833,-24.583c1.25,-10.833 0.834,-22.5 -2.083,-34.167Z" style="fill:#151e28;fill-opacity:0.67;fill-rule:nonzero;"/><path id="XMLID_56_" d="M2807.08,2628.33c-1.666,8.334 -3.333,16.25 -5.833,24.584c-65,237.083 -378.333,417.083 -755.417,417.083c-377.916,0 -692.083,-180.833 -755.833,-418.75c-1.667,-6.667 -3.333,-13.333 -4.583,-20c-1.667,-12.5 -1.25,-25 1.25,-37.5c15.416,-70 100.416,-110.417 190,-90.417c58.75,12.917 104.583,49.167 125,92.084c2.083,9.166 5.416,18.333 9.166,27.083c21.667,50 65,87.5 94.167,108.333c87.083,62.5 211.667,98.334 340.833,98.334c129.584,-0 253.75,-35.834 340.834,-98.334c29.583,-21.25 73.333,-59.166 94.583,-109.166c3.333,-7.917 6.25,-16.667 8.333,-25c20,-43.334 66.25,-79.584 125.417,-92.917c89.583,-20 174.583,20.833 190,90.417c2.917,10.833 3.333,22.5 2.083,34.166Z" style="fill:none;fill-rule:nonzero;stroke:#000;stroke-width:16.67px;"/><ellipse id="XMLID_75_" cx="2050.83" cy="2574.17" rx="375.417" ry="127.5" style="fill:#9b2121;"/><ellipse id="XMLID_31_" cx="2050.83" cy="2574.17" rx="375.417" ry="127.5" style="fill:none;stroke:#000;stroke-width:16.67px;"/><g id="XMLID_89_"><path id="XMLID_69_" d="M2478.33,2295.83l-865,0c-66.25,0 -117.5,-57.916 -109.166,-123.75l38.333,-306.25c10.833,-87.5 85,-152.916 173.333,-152.916l660.834,-0c87.916,-0 162.083,65.416 173.333,152.916l38.333,306.25c7.5,65.834 -43.75,123.75 -110,123.75Z" style="fill:#f1534d;fill-rule:nonzero;"/><path id="XMLID_24_" d="M2478.33,2295.83l-865,0c-66.25,0 -117.5,-57.916 -109.166,-123.75l38.333,-306.25c10.833,-87.5 85,-152.916 173.333,-152.916l660.834,-0c87.916,-0 162.083,65.416 173.333,152.916l38.333,306.25c7.5,65.834 -43.75,123.75 -110,123.75Z" style="fill:none;fill-rule:nonzero;stroke:#000;stroke-width:16.67px;"/><g id="XMLID_1191_"><path id="XMLID_1189_" d="M1707.08,1971.67l-8.333,104.583" style="fill:none;fill-rule:nonzero;stroke:#000;stroke-width:16.67px;"/><path id="XMLID_1192_" d="M2390.83,1971.67l8.334,104.583" style="fill:none;fill-rule:nonzero;stroke:#000;stroke-width:16.67px;"/></g></g><g id="XMLID_1194_"><path id="XMLID_1202_" d="M2478.33,2295.83l-865,0c-66.25,0 -117.5,-57.916 -109.166,-123.75l38.333,-306.25c10.833,-87.5 85,-152.916 173.333,-152.916l660.834,-0c87.916,-0 162.083,65.416 173.333,152.916l38.333,306.25c7.5,65.834 -43.75,123.75 -110,123.75Z" style="fill:#f1534d;fill-rule:nonzero;"/><g id="XMLID_4_" opacity="0.24"><path id="XMLID_1208_" d="M1542.08,1898.33c10.834,-87.5 85,-152.916 173.334,-152.916l660.833,-0c87.917,-0 162.083,65.416 173.333,152.916l37.917,303.75c1.25,-9.583 1.667,-19.583 0.417,-30l-38.334,-306.25c-10.833,-87.5 -85,-152.916 -173.333,-152.916l-660.833,-0c-87.917,-0 -162.084,65.416 -173.334,152.916l-38.333,306.25c-1.25,10 -1.25,20 0.417,30l37.916,-303.75Z" style="fill:#9b2121;fill-rule:nonzero;"/><path id="XMLID_8_" d="M1753.75,1745.42c0,-0 51.25,9.166 55.417,37.5c3.333,22.916 2.916,37.916 11.666,47.083c8.75,9.167 29.167,27.917 70.417,27.917c-22.917,-22.917 -23.333,-103.334 -29.583,-103.334c-5.834,0 -20.834,-40 -20.834,-40l-20,-9.166c0.417,-0 -73.333,9.166 -67.083,40Z" style="fill:#9b2121;fill-rule:nonzero;"/><path id="XMLID_10_" d="M2301.25,1745.42c0,-0 -51.25,9.166 -55.417,37.5c-3.333,22.916 -2.916,37.916 -11.666,47.083c-8.75,8.75 -29.167,27.917 -70.417,27.917c22.917,-22.917 23.333,-103.334 29.583,-103.334c5.834,0 20.834,-40 20.834,-40l20,-9.166c-0.417,-0 73.333,9.166 67.083,40Z" style="fill:#9b2121;fill-rule:nonzero;"/></g><path id="XMLID_1201_" d="M2478.33,2295.83l-865,0c-66.25,0 -117.5,-57.916 -109.166,-123.75l38.333,-306.25c10.833,-87.5 85,-152.916 173.333,-152.916l660.834,-0c87.916,-0 162.083,65.416 173.333,152.916l38.333,306.25c7.5,65.834 -43.75,123.75 -110,123.75Z" style="fill:none;fill-rule:nonzero;stroke:#000;stroke-width:16.67px;"/><g id="XMLID_1195_"><path id="XMLID_1199_" d="M1707.08,1971.67l-8.333,104.583" style="fill:none;fill-rule:nonzero;stroke:#000;stroke-width:16.67px;"/><path id="XMLID_1196_" d="M2390.83,1971.67l8.334,104.583" style="fill:none;fill-rule:nonzero;stroke:#000;stroke-width:16.67px;"/></g></g><g id="XMLID_78_"><path id="XMLID_80_" d="M1934.58,1538.75l-137.083,-7.083l-64.167,7.083c0,0 -42.916,32.083 -42.916,40.833c-0,8.75 4.166,80 4.166,80c0,0 101.25,13.75 112.084,24.167c10.833,10.417 75,70.417 75,70.417l62.083,-24.167l32.5,-86.667l-41.667,-104.583Z" style="fill:#9b2121;fill-rule:nonzero;"/><path id="XMLID_72_" d="M1910.42,1485.83l-158.334,0c-63.75,0 -115.833,51.667 -115.833,115.834c0,63.75 51.667,115.833 115.833,115.833l20.834,0c33.75,0 60.833,27.083 60.833,60.833l0,6.25c0,40.417 32.917,73.334 73.333,73.334l0,-75c0.834,-0 1.667,0.833 1.667,1.666l0,-6.25c0,-75 -60.833,-135.833 -135.833,-135.833l-20.834,0c-22.5,0 -40.833,-18.333 -40.833,-40.833c0,-22.5 18.333,-40.834 40.833,-40.834l158.334,0l-0,-75Z" style="fill:#f1534d;fill-rule:nonzero;"/><path id="XMLID_81_" d="M1900.83,1731.25c-19.166,-51.667 -69.166,-89.167 -127.5,-89.167l-20.833,0c-22.5,0 -40.833,-18.333 -40.833,-40.833c-0,-22.5 18.333,-40.833 40.833,-40.833l158.333,-0l0,-75l-158.333,-0c-63.75,-0 -115.833,51.666 -115.833,115.833c-0,63.75 51.666,115.833 115.833,115.833l20.833,0c33.75,0 60.834,27.084 60.834,60.834l-0,6.25c-0,40.416 32.916,73.333 73.333,73.333" style="fill:none;fill-rule:nonzero;stroke:#000;stroke-width:16.67px;"/></g><g id="XMLID_28_"><path id="XMLID_82_" d="M2115.83,1538.75l137.084,-7.083l64.166,7.083c0,0 42.917,32.083 42.917,40.833c0,8.75 -4.167,80 -4.167,80c0,0 -101.25,13.75 -112.083,24.167c-10.833,10.833 -75,70.417 -75,70.417l-62.083,-24.167l-32.5,-86.667l41.666,-104.583Z" style="fill:#9b2121;fill-rule:nonzero;"/><path id="XMLID_79_" d="M2140,1485.83l158.333,0c63.75,0 115.834,51.667 115.834,115.834c-0,63.75 -51.667,115.833 -115.834,115.833l-20.833,0c-33.75,0 -60.833,27.083 -60.833,60.833l-0,6.25c-0,40.417 -32.917,73.334 -73.334,73.334l0,-75c-0.833,-0 -1.666,0.833 -1.666,1.666l-0,-6.25c-0,-75 60.833,-135.833 135.833,-135.833l20.833,0c22.5,0 40.834,-18.333 40.834,-40.833c-0,-22.5 -18.334,-40.834 -40.834,-40.834l-158.333,0l0,-75Z" style="fill:#f1534d;fill-rule:nonzero;"/><path id="XMLID_71_" d="M2150,1731.25c19.167,-51.667 69.167,-89.167 127.5,-89.167l20.833,0c22.5,0 40.834,-18.333 40.834,-40.833c-0,-22.5 -18.334,-40.833 -40.834,-40.833l-158.333,-0l0,-75l158.333,-0c63.75,-0 115.834,51.666 115.834,115.833c-0,63.75 -51.667,115.833 -115.834,115.833l-20.833,0c-33.75,0 -60.833,27.084 -60.833,60.834l-0,6.25c-0,40.416 -32.917,73.333 -73.334,73.333" style="fill:none;fill-rule:nonzero;stroke:#000;stroke-width:16.67px;"/></g><circle id="XMLID_74_" cx="2032.92" cy="1636.25" r="162.5" style="fill:#f46262;"/><path id="XMLID_2426_" d="M1877.5,1588.33c45,28.75 98.333,45.834 155.417,45.834c57.083,-0 110.416,-16.667 155.416,-45.834c-20.416,-66.666 -82.083,-115 -155.416,-115c-72.917,0.417 -135,48.75 -155.417,115Z" style="fill:#f1534d;fill-rule:nonzero;"/><circle id="XMLID_23_" cx="2032.92" cy="1636.25" r="162.5" style="fill:none;stroke:#000;stroke-width:16.67px;"/><path id="XMLID_70_" d="M2032.92,1730.42c-52.917,-0 -95.834,-42.917 -95.834,-95.834l0,-71.666c0,-13.334 10.834,-24.167 24.167,-24.167l143.75,0c13.333,0 24.167,10.833 24.167,24.167l-0,71.666c-0.417,52.917 -43.334,95.834 -96.25,95.834Z" style="fill:#ffc897;fill-rule:nonzero;"/><path id="XMLID_2425_" d="M2105,1538.75l-143.75,0c-13.333,0 -24.167,11.667 -24.167,25.833l0,58.75c30,11.25 62.084,17.5 95.834,17.5c33.75,0 65.833,-6.25 95.833,-17.5l0,-58.75c0,-14.166 -10.833,-25.833 -23.75,-25.833Z" style="fill:#e5a973;fill-rule:nonzero;"/><path id="XMLID_15_" d="M2032.92,1730.42c-52.917,-0 -95.834,-42.917 -95.834,-95.834l0,-71.666c0,-13.334 10.834,-24.167 24.167,-24.167l143.75,0c13.333,0 24.167,10.833 24.167,24.167l-0,71.666c-0.417,52.917 -43.334,95.834 -96.25,95.834Z" style="fill:none;fill-rule:nonzero;stroke:#000;stroke-width:16.67px;"/><rect id="XMLID_30_" x="2047.5" y="2810" width="89.167" height="284.583" style="fill:#607691;"/><rect id="XMLID_33_" x="2047.5" y="2810" width="89.167" height="284.583" style="fill:none;stroke:#000;stroke-width:16.67px;"/><path id="XMLID_54_" d="M1610.42,2621.67c-3.75,-8.75 -6.667,-17.5 -9.167,-27.084c4.583,9.167 7.5,17.917 9.167,27.084Z" style="fill:none;fill-rule:nonzero;stroke:#000;stroke-width:16.67px;"/><path id="XMLID_51_" d="M2481.67,2620.83c1.666,-8.75 4.583,-17.083 8.333,-25c-2.083,8.75 -5,17.084 -8.333,25Z" style="fill:none;fill-rule:nonzero;stroke:#000;stroke-width:16.67px;"/><g id="XMLID_88_"><path id="XMLID_73_" d="M2480.42,2600.83l-868.75,0c-30.834,0 -57.084,-22.916 -61.25,-53.75l-54.167,-424.166c-4.583,-36.667 24.167,-69.584 61.25,-69.584l977.083,0c37.084,0 65.834,32.5 61.25,69.584l-54.166,424.166c-4.167,30.417 -30.417,53.75 -61.25,53.75Z" style="fill:#b5b5b5;fill-rule:nonzero;"/><path id="XMLID_1188_" d="M2541.25,2520.42c-3.75,30.833 -30,53.75 -61.25,53.75l-868.333,-0c-30.834,-0 -57.084,-22.917 -61.25,-53.75l-53.334,-417.917c-1.25,6.667 -1.666,13.333 -0.833,20.417l54.167,424.166c3.75,30.834 30,53.75 61.25,53.75l868.75,0c30.833,0 57.083,-22.916 61.25,-53.75l54.166,-424.166c0.834,-7.084 0.417,-13.75 -0.833,-20.417l-53.75,417.917Z" style="fill:#7e7e7e;fill-opacity:0.21;fill-rule:nonzero;"/><path id="XMLID_91_" d="M1496.67,2126.67c5,-28.334 30,-50.834 60.416,-50.834l977.084,0c30.833,0 55.416,22.084 60.416,50.834l0.417,-4.167c4.583,-36.667 -24.167,-69.583 -61.25,-69.583l-976.25,-0c-37.083,-0 -65.833,32.5 -61.25,69.583l0.417,4.167Z" style="fill:#7e7e7e;fill-opacity:0.21;fill-rule:nonzero;"/><path id="XMLID_29_" d="M2480.42,2600.83l-868.75,0c-30.834,0 -57.084,-22.916 -61.25,-53.75l-54.167,-424.166c-4.583,-36.667 24.167,-69.584 61.25,-69.584l977.083,0c37.084,0 65.834,32.5 61.25,69.584l-54.166,424.166c-4.167,30.417 -30.417,53.75 -61.25,53.75Z" style="fill:none;fill-rule:nonzero;stroke:#000;stroke-width:16.67px;"/><path id="XMLID_1190_" d="M2087.08,2301.25c-18.75,0 -33.75,-15 -33.75,-33.75c0,-1.25 0,-2.5 0.417,-3.75c-3.333,-0.417 -6.667,-0.833 -10,-0.833c-30.417,-0 -55.417,25 -55.417,55.416c0,30.417 25,55.417 55.417,55.417c30.417,-0 55.417,-25 55.417,-55.417c-0,-6.25 -1.25,-12.5 -2.917,-18.333c-2.917,0.417 -5.833,1.25 -9.167,1.25Z" style="fill:#b5b5b5;fill-opacity:0.66;fill-rule:nonzero;"/></g><g id="XMLID_39_"><path id="XMLID_36_" d="M2517.08,2971.67c-13.75,-44.584 -55.833,-68.334 -124.166,-88.334c-43.334,-12.5 -98.334,-18.333 -184.584,-35.833c-42.083,-8.333 -71.666,-25 -71.666,-25l-0,47.917c-0,-0 285.416,56.25 330,130c21.666,36.25 15,125 -87.084,134.166c31.25,4.584 82.5,-3.333 110,-31.25c34.167,-34.583 43.334,-80.833 27.5,-131.666Z" style="fill:#282323;fill-rule:nonzero;stroke:#000;stroke-width:16.67px;"/><path id="XMLID_52_" d="M2136.67,2870.42c-0,-0 170.833,31.666 262.083,70.833c80,34.583 77.5,70.417 79.583,107.083c1.25,21.25 -13.75,73.75 -74.583,82.917c-72.5,10.833 -157.917,-0.833 -267.083,-70.417l-0,-190.416Z" style="fill:#442c2a;fill-rule:nonzero;"/><path id="XMLID_1212_" d="M2478.33,3048.33c-1.666,-29.583 -0.416,-58.75 -42.083,-87.083c1.667,10.417 2.083,20.417 2.5,30.833c1.25,21.25 -13.75,73.75 -74.583,82.917c-63.334,9.583 -137.084,1.667 -227.5,-47.083l-0,32.5c109.166,69.583 194.583,80.833 267.083,70.416c61.25,-8.75 75.833,-61.666 74.583,-82.5Z" style="fill:#442c2a;fill-opacity:0.37;fill-rule:nonzero;"/><path id="XMLID_34_" d="M2136.67,2870.42c-0,-0 170.833,31.666 262.083,70.833c80,34.583 77.5,70.417 79.583,107.083c1.25,21.25 -13.75,73.75 -74.583,82.917c-72.5,10.833 -157.917,-0.833 -267.083,-70.417l-0,-190.416Z" style="fill:none;fill-rule:nonzero;stroke:#000;stroke-width:16.67px;"/><path id="XMLID_37_" d="M2295,2968.33c13.75,7.5 10.417,80.417 -22.917,90.417" style="fill:none;fill-rule:nonzero;stroke:#000;stroke-width:16.67px;"/><path id="XMLID_38_" d="M2242.92,2962.92c14.166,20 4.166,67.083 -21.25,78.75" style="fill:none;fill-rule:nonzero;stroke:#000;stroke-width:16.67px;"/><path id="XMLID_40_" d="M2195,2946.25c14.167,20 4.167,67.083 -21.25,78.75" style="fill:none;fill-rule:nonzero;stroke:#000;stroke-width:16.67px;"/></g><path id="XMLID_83_" d="M1886.67,1815.42l-0,221.666" style="fill:none;fill-rule:nonzero;stroke:#000;stroke-width:25px;"/><path id="XMLID_84_" d="M2167.92,1815.42l-0,156.25" style="fill:none;fill-rule:nonzero;stroke:#000;stroke-width:25px;"/><circle id="XMLID_27_" cx="2167.92" cy="1984.17" r="34.583"/><circle id="XMLID_86_" cx="2167.92" cy="1980" r="14.167" style="fill:#7e7e7e;"/><g id="XMLID_41_"><path id="XMLID_5_" d="M2032.92,1609.17c-145,-0 -262.917,-117.5 -262.917,-262.917l0,-305l525.833,0l0,305c0,145 -117.5,262.917 -262.916,262.917Z" style="fill:#ffc897;fill-rule:nonzero;"/><path id="XMLID_1198_" d="M2032.92,1572.92c-145,-0 -262.917,-117.5 -262.917,-262.917l0,36.25c0,145 117.5,262.917 262.917,262.917c145,-0 262.916,-117.5 262.916,-262.917l0,-36.25c0,145 -117.5,262.917 -262.916,262.917Z" style="fill:#e5a973;fill-rule:nonzero;"/><path id="XMLID_2424_" d="M2032.92,1609.17c-145,-0 -262.917,-117.5 -262.917,-262.917l0,-305l525.833,0l0,305c0,145 -117.5,262.917 -262.916,262.917Z" style="fill:none;fill-rule:nonzero;stroke:#000;stroke-width:16.67px;"/><path id="XMLID_1197_" d="M2297.92,1071.67c-0.834,-14.167 -1.667,-28.75 -2.084,-42.917c-175,8.333 -350.833,7.083 -525.416,-8.333c-1.25,16.25 -2.084,32.5 -3.334,48.75c7.917,7.083 16.25,14.583 24.167,21.666c6.667,3.334 15.417,7.917 23.333,12.084c35,18.333 83.75,41.666 130.417,50.833c17.083,3.333 35,5 53.333,4.583c78.75,-0.833 145,-32.083 172.917,-45c4.167,-2.083 7.5,-3.75 9.583,-4.166c1.667,-0.834 3.334,-1.25 5.834,-1.25c5,-0 10.833,1.25 17.916,2.5c9.167,2.083 20,4.166 32.084,3.333c13.75,-0.833 26.25,-5 38.333,-12.917c7.083,-10 15,-19.583 22.917,-29.166Z" style="fill:#e5a973;fill-rule:nonzero;"/><path id="XMLID_68_" d="M2171.25,913.333c0,0 -210.417,-138.75 -384.583,16.25c-32.5,28.75 -45.417,70 -45.417,107.917l0,200.833l29.167,0l-0,-145.833c-0,-10.833 7.5,-19.167 16.666,-19.167c15,0 96.25,43.334 165,55.417c103.75,17.917 198.334,-30 218.75,-37.083c35,-12.5 63.334,30.833 107.5,-17.917l1.667,0c9.167,0 16.667,8.75 16.667,19.167l-0,145.833l29.166,0l0,-200c-0.833,-49.167 -57.5,-172.5 -154.583,-125.417Z" style="fill:#231a17;fill-rule:nonzero;"/><g id="XMLID_2783_" opacity="0.34"><rect id="XMLID_2784_" x="1740.83" y="1210.83" width="29.167" height="27.5" style="fill:#231a17;"/><rect id="XMLID_2785_" x="2295.83" y="1210.83" width="29.167" height="27.5" style="fill:#231a17;"/></g><path id="XMLID_3_" d="M2171.25,913.333c0,0 -210.417,-138.75 -384.583,16.25c-32.5,28.75 -45.417,70 -45.417,107.917l0,200.833l29.167,0l-0,-145.833c-0,-10.833 7.5,-19.167 16.666,-19.167c15,0 96.25,43.334 165,55.417c103.75,17.917 198.334,-30 218.75,-37.083c35,-12.5 63.334,30.833 107.5,-17.917l1.667,0c9.167,0 16.667,8.75 16.667,19.167l-0,145.833l29.166,0l0,-200c-0.833,-49.167 -57.5,-172.5 -154.583,-125.417Z" style="fill:none;fill-rule:nonzero;stroke:#000;stroke-width:16.67px;"/><path id="XMLID_6_" d="M1993.33,1048.75c0,0 -225.833,14.583 -273.75,-105.417" style="fill:none;fill-rule:nonzero;stroke:#000;stroke-width:16.67px;"/><path id="XMLID_9_" d="M2025.42,1020c-0,0 -217.5,-13.75 -274.167,-133.75" style="fill:none;fill-rule:nonzero;stroke:#000;stroke-width:16.67px;"/><path id="XMLID_85_" d="M2295.83,1205.83l0,136.667c29.167,0 52.5,-30.417 52.5,-68.333c0,-37.917 -23.333,-68.334 -52.5,-68.334Z" style="fill:#ffc897;fill-rule:nonzero;"/><path id="XMLID_1205_" d="M2295.83,1213.33l0,121.25c17.084,-11.25 28.75,-34.166 28.75,-60.833c0,-26.25 -11.666,-49.167 -28.75,-60.417Z" style="fill:#e5a973;fill-rule:nonzero;"/><path id="XMLID_12_" d="M2295.83,1205.83l0,136.667c29.167,0 52.5,-30.417 52.5,-68.333c0,-37.917 -23.333,-68.334 -52.5,-68.334Z" style="fill:none;fill-rule:nonzero;stroke:#000;stroke-width:16.67px;"/><path id="XMLID_87_" d="M1770.42,1205.83l-0,136.667c-29.167,0 -52.5,-30.417 -52.5,-68.333c-0.417,-37.917 23.333,-68.334 52.5,-68.334Z" style="fill:#ffc897;fill-rule:nonzero;"/><path id="XMLID_1203_" d="M1770.42,1215.83c-15,12.084 -25.417,33.75 -25.417,58.334c-0,24.583 10,46.25 25.417,58.333l-0,-116.667Z" style="fill:#e5a973;fill-rule:nonzero;"/><path id="XMLID_11_" d="M1770.42,1205.83l-0,136.667c-29.167,0 -52.5,-30.417 -52.5,-68.333c-0.417,-37.917 23.333,-68.334 52.5,-68.334Z" style="fill:none;fill-rule:nonzero;stroke:#000;stroke-width:16.67px;"/><path id="XMLID_7_" d="M2022.08,1317.08l-17.5,57.084c0,6.25 20.417,1.25 41.25,6.25" style="fill:none;fill-rule:nonzero;stroke:#000;stroke-width:16.67px;"/><path id="XMLID_16_" d="M2120.42,1423.75c6.25,43.333 -49.584,81.667 -93.334,73.75" style="fill:none;fill-rule:nonzero;stroke:#000;stroke-width:12.5px;"/><g id="XMLID_19_"><ellipse id="XMLID_14_" cx="1938.33" cy="1250" rx="17.5" ry="18.75" style="fill:none;stroke:#000;stroke-width:8.33px;"/><ellipse id="XMLID_20_" cx="1938.33" cy="1250" rx="17.5" ry="18.75"/><path id="XMLID_17_" d="M1877.92,1210.42c8.75,-10.417 29.166,-17.5 53.333,-17.5c19.167,-0 35.833,4.583 46.25,11.666" style="fill:none;fill-rule:nonzero;stroke:#000;stroke-width:12.5px;"/></g><g id="XMLID_13_"><ellipse id="XMLID_22_" cx="2130" cy="1250" rx="17.5" ry="18.75" style="fill:none;stroke:#000;stroke-width:8.33px;"/><ellipse id="XMLID_21_" cx="2130" cy="1250" rx="17.5" ry="18.75"/><path id="XMLID_18_" d="M2190.42,1210.42c-8.75,-10.417 -29.167,-17.5 -53.334,-17.5c-19.166,-0 -35.833,4.583 -46.25,11.666" style="fill:none;fill-rule:nonzero;stroke:#000;stroke-width:12.5px;"/></g></g></g><g id="XMLID_1_"></g></svg>