<?xml version="1.0" encoding="UTF-8" standalone="no"?><!DOCTYPE svg PUBLIC "-//W3C//DTD SVG 1.1//EN" "http://www.w3.org/Graphics/SVG/1.1/DTD/svg11.dtd"><svg width="100%" height="100%" viewBox="0 0 17363 17363" version="1.1" xmlns="http://www.w3.org/2000/svg" xmlns:xlink="http://www.w3.org/1999/xlink" xml:space="preserve" xmlns:serif="http://www.serif.com/" style="fill-rule:evenodd;clip-rule:evenodd;stroke-linecap:round;stroke-linejoin:round;stroke-miterlimit:10;"><path id="XMLID_1313_" d="M15795.1,11567.7l-14133.7,0c-86.804,0 -156.25,-69.445 -156.25,-156.25c0,-86.804 69.446,-156.25 156.25,-156.25l14135.4,0c86.804,0 156.25,69.446 156.25,156.25c-1.737,86.805 -71.179,156.25 -157.987,156.25Z" style="fill:#444e59;fill-rule:nonzero;"/><g id="XMLID_24_"><rect id="XMLID_6_" x="7072.92" y="11246.5" width="2444.45" height="145.833" style="fill:#444e59;"/><g id="XMLID_104_"><path id="XMLID_76_" d="M11215.3,10293.4l-5767.38,-0c-114.584,-0 -208.334,-93.75 -208.334,-208.334l0,-3862.85c0,-114.583 93.75,-208.333 208.334,-208.333l5767.38,0c114.583,0 208.333,93.75 208.333,208.333l0,3861.11c0,116.321 -92.017,210.071 -208.333,210.071Z" style="fill:#bbbfc2;fill-rule:nonzero;"/><rect id="XMLID_80_" x="5630" y="6405.9" width="5427.08" height="3154.51" style="fill:#28a8e0;"/><path id="XMLID_18_" d="M11229.2,10293.4l-904.513,-0l0,-1645.83c0,-131.945 105.9,-237.85 237.846,-237.85l666.667,0l-0,1883.68Z" style="fill:#848484;fill-opacity:0.4;fill-rule:nonzero;"/><path id="XMLID_107_" d="M5678.83,8703.12l-439.237,0l-0,1296.88c-0,161.458 138.887,293.404 302.083,293.404l505.209,0l-0,-1215.28c-1.738,-203.125 -166.667,-375 -368.055,-375Z" style="fill:#848484;fill-opacity:0.4;fill-rule:nonzero;"/><path id="XMLID_5_" d="M11232.6,10293.4l-5777.79,-0c-114.583,-0 -208.333,-93.75 -208.333,-208.334l0,-3862.85c0,-114.583 93.75,-208.333 208.333,-208.333l5777.79,0c114.583,0 208.333,93.75 208.333,208.333l0,3861.11c0,116.321 -93.75,210.071 -208.333,210.071Z" style="fill:none;fill-rule:nonzero;stroke:#444e59;stroke-width:69.46px;"/><rect id="XMLID_7_" x="5638.62" y="6405.86" width="5411.46" height="3154.51" style="fill:none;stroke:#444e59;stroke-width:69.46px;"/></g><path id="XMLID_179_" d="M9998.25,9408l-2982.64,0c-67.709,0 -121.53,-55.558 -121.53,-121.529l0,-2128.47c0,-67.708 55.559,-121.529 121.53,-121.529l2982.64,-0c67.708,-0 121.529,55.554 121.529,121.529l0,2126.73c0,67.709 -53.821,123.267 -121.529,123.267Z" style="fill:#848484;fill-opacity:0.32;fill-rule:nonzero;"/><path id="XMLID_134_" d="M9859.38,9289.92l-2982.64,-0c-67.709,-0 -121.53,-55.555 -121.53,-121.525l0,-2126.74c0,-67.708 55.555,-121.529 121.53,-121.529l2982.64,0c67.708,0 121.529,55.558 121.529,121.529l0,2126.74c1.734,67.708 -53.821,121.525 -121.529,121.525Z" style="fill:#afb1b2;fill-rule:nonzero;"/><path id="XMLID_137_" d="M9859.38,9289.92l-2982.64,-0c-67.709,-0 -121.53,-55.555 -121.53,-121.525l0,-2126.74c0,-67.708 55.555,-121.529 121.53,-121.529l2982.64,0c67.708,0 121.529,55.558 121.529,121.529l0,2126.74c1.734,67.708 -53.821,121.525 -121.529,121.525Z" style="fill:none;fill-rule:nonzero;stroke:#444e59;stroke-width:69.46px;"/><path id="XMLID_96_" d="M9071.17,11246.5l-1454.86,-0l180.555,-953.125l1093.75,-0l180.554,953.125Z" style="fill:#aeaeaf;fill-rule:nonzero;"/><path id="XMLID_99_" d="M8939.25,10562.5l-48.612,-269.096l-1093.75,0l-48.613,269.096l1190.98,0Z" style="fill:#848484;fill-opacity:0.32;fill-rule:nonzero;"/><path id="XMLID_3_" d="M9071.17,11246.5l-1454.86,-0l180.555,-953.125l1093.75,-0l180.554,953.125Z" style="fill:none;fill-rule:nonzero;stroke:#444e59;stroke-width:69.46px;"/><rect id="XMLID_8_" x="7072.92" y="11246.5" width="2444.45" height="145.833" style="fill:none;stroke:#444e59;stroke-width:69.46px;"/><circle id="XMLID_9_" cx="8335.08" cy="9855.92" r="107.638" style="fill:#444e59;"/><path id="XMLID_133_" d="M9614.58,9071.17l-2982.64,-0c-67.708,-0 -121.529,-55.555 -121.529,-121.525l-0,-2128.47c-0,-67.709 55.554,-121.525 121.529,-121.525l2982.64,-0c67.709,-0 121.53,55.554 121.53,121.525l-0.001,2126.74c1.734,67.709 -53.82,123.263 -121.529,123.263Z" style="fill:#fff;fill-rule:nonzero;"/><path id="XMLID_25_" d="M9614.58,9071.17l-2982.64,-0c-67.708,-0 -121.529,-55.555 -121.529,-121.525l-0,-2128.47c-0,-67.709 55.554,-121.525 121.529,-121.525l2982.64,-0c67.709,-0 121.53,55.554 121.53,121.525l-0.001,2126.74c1.734,67.709 -53.82,123.263 -121.529,123.263Z" style="fill:none;fill-rule:nonzero;stroke:#444e59;stroke-width:69.46px;"/><path id="XMLID_105_" d="M9737.83,7065.96l-3227.43,0l0,-239.583c0,-69.442 57.292,-128.471 128.471,-128.471l2979.17,0c65.975,0 119.791,53.821 119.791,119.792l0,248.262Z" style="fill:#bbbfc2;fill-rule:nonzero;"/><path id="XMLID_26_" d="M9737.83,7065.96l-3227.43,0l0,-239.583c0,-69.442 57.292,-128.471 128.471,-128.471l2979.17,0c65.975,0 119.791,53.821 119.791,119.792l0,248.262Z" style="fill:none;fill-rule:nonzero;stroke:#444e59;stroke-width:69.46px;"/><g id="XMLID_108_"><circle id="XMLID_106_" cx="6821.17" cy="6883.67" r="57.292" style="fill:#444e59;"/><circle id="XMLID_109_" cx="7010.42" cy="6883.67" r="57.292" style="fill:#444e59;"/><circle id="XMLID_120_" cx="7197.92" cy="6883.67" r="57.292" style="fill:#444e59;"/></g><path id="XMLID_122_" d="M9434.04,7701.38l-2644.1,0c-19.096,0 -34.721,-15.625 -34.721,-34.721l-0,-369.792c-0,-19.095 15.625,-34.72 34.721,-34.72l2644.1,-0c19.096,-0 34.721,15.625 34.721,34.721l-0,369.791c-0,19.096 -15.625,34.721 -34.721,34.721Z" style="fill:#6567c3;fill-rule:nonzero;"/><g id="XMLID_123_"><path id="XMLID_124_" d="M7550.33,8164.92l-762.15,-0c-19.1,-0 -34.725,-15.625 -34.725,-34.721l0,-199.654c0,-19.096 15.625,-34.721 34.725,-34.721l762.15,-0c19.1,-0 34.725,15.625 34.725,34.721l0,199.654c0,19.096 -13.891,34.721 -34.725,34.721Z" style="fill:#444e59;fill-opacity:0.2;fill-rule:nonzero;"/><path id="XMLID_125_" d="M6876.75,8361.12l611.108,0" style="fill:none;fill-rule:nonzero;stroke:#444e59;stroke-opacity:0.2;stroke-width:69.46px;"/><path id="XMLID_128_" d="M6876.75,8557.29l611.108,-0" style="fill:none;fill-rule:nonzero;stroke:#444e59;stroke-opacity:0.2;stroke-width:69.46px;"/></g><g id="XMLID_127_"><path id="XMLID_131_" d="M8505.21,8164.92l-762.154,-0c-19.096,-0 -34.721,-15.625 -34.721,-34.721l0,-199.654c0,-19.096 15.625,-34.721 34.721,-34.721l762.154,-0c19.096,-0 34.721,15.625 34.721,34.721l0,199.654c0,19.096 -15.625,34.721 -34.721,34.721Z" style="fill:#444e59;fill-opacity:0.2;fill-rule:nonzero;"/><path id="XMLID_130_" d="M7829.88,8361.12l586.804,0" style="fill:none;fill-rule:nonzero;stroke:#444e59;stroke-opacity:0.2;stroke-width:69.46px;"/><path id="XMLID_129_" d="M7829.88,8557.29l586.804,-0" style="fill:none;fill-rule:nonzero;stroke:#444e59;stroke-opacity:0.2;stroke-width:69.46px;"/></g><g id="XMLID_132_" opacity="0.2"><path id="XMLID_135_" d="M9458.33,8581.58l-762.154,0c-19.096,0 -34.721,-15.625 -34.721,-34.721l0,-614.583c0,-19.096 15.625,-34.721 34.721,-34.721l762.154,0c19.096,0 34.721,15.625 34.721,34.721l0,614.583c0,19.096 -15.625,34.721 -34.721,34.721Z" style="fill:#444e59;fill-rule:nonzero;"/></g><g id="XMLID_126_" opacity="0.09"><path id="XMLID_136_" d="M9434.04,8777.79l-725.696,-0c-27.779,-0 -48.613,-22.571 -48.613,-48.613c0,-26.041 22.571,-48.612 48.613,-48.612l725.696,-0c27.775,-0 48.608,22.57 48.608,48.612c0,26.042 -22.567,48.613 -48.608,48.613Z" style="fill:#444e59;fill-rule:nonzero;"/></g></g><g id="XMLID_23_"><g id="XMLID_12_"><path id="XMLID_71_" d="M3979.17,10649.3l-1399.31,-0c-17.362,-0 -32.987,5.208 -45.141,17.362l-338.542,295.138c-31.25,27.779 -31.25,76.391 0,102.433l338.542,300.346c12.154,10.416 27.779,20.833 45.141,20.833l1399.31,0c79.862,0 145.833,-72.917 145.833,-152.779l0,-442.708c-1.738,-76.388 -65.971,-140.625 -145.833,-140.625Zm-1437.5,449.654c-46.875,-0 -86.804,-38.196 -86.804,-86.804c-0,-48.613 38.191,-86.809 86.804,-86.809c48.612,0 86.804,38.196 86.804,86.809c-0,48.608 -38.192,86.804 -86.804,86.804Z" style="fill:#fff;fill-rule:nonzero;"/><rect id="XMLID_70_" x="2901.04" y="10649.3" width="407.988" height="737.846" style="fill:#f09f54;"/><rect id="XMLID_69_" x="3309.03" y="10649.3" width="407.988" height="737.846" style="fill:#ed8b3b;"/><path id="XMLID_58_" d="M3942.71,11387.2l-225.695,-0l-0,-737.85l232.641,-0c95.484,-0 175.346,78.125 175.346,175.35l0,381.941c-1.738,98.959 -83.333,180.559 -182.292,180.559Z" style="fill:#ff6c37;fill-rule:nonzero;"/><path id="XMLID_117_" d="M4017.36,10685.8c-6.946,-1.733 -13.892,-1.733 -20.834,-1.733l-1399.31,-0c-17.359,-0 -32.984,5.208 -45.138,17.358l-338.541,295.142c-31.25,27.775 -31.25,76.387 -0,102.429l211.804,185.762l229.167,57.292c10.416,3.475 22.57,3.475 34.724,3.475c22.567,0 43.401,-5.208 64.234,-15.625l1246.53,-635.417c5.208,-1.737 12.154,-5.208 17.363,-8.683Zm-1458.33,447.917c-46.875,-0 -86.808,-38.192 -86.808,-86.805c-0,-48.612 38.196,-86.804 86.808,-86.804c48.609,0 86.804,38.192 86.804,86.805c0,48.612 -38.196,86.804 -86.804,86.804Z" style="fill:#848484;fill-opacity:0.4;fill-rule:nonzero;"/><path id="XMLID_29_" d="M3979.17,10649.3l-1399.31,-0c-17.362,-0 -32.987,5.208 -45.141,17.362l-338.542,295.138c-31.25,27.779 -31.25,76.391 0,102.433l338.542,300.346c12.154,10.416 27.779,20.833 45.141,20.833l1399.31,0c79.862,0 145.833,-72.917 145.833,-152.779l0,-442.708c-1.738,-76.388 -65.971,-140.625 -145.833,-140.625Zm-1437.5,449.654c-46.875,-0 -86.804,-38.196 -86.804,-86.804c-0,-48.613 38.191,-86.809 86.804,-86.809c48.612,0 86.804,38.196 86.804,86.809c-0,48.608 -38.192,86.804 -86.804,86.804Z" style="fill:none;fill-rule:nonzero;stroke:#444e59;stroke-width:69.46px;"/><rect id="XMLID_17_" x="2901.04" y="10649.3" width="407.988" height="737.846" style="fill:none;stroke:#444e59;stroke-width:69.46px;"/><rect id="XMLID_21_" x="3309.03" y="10649.3" width="407.988" height="737.846" style="fill:none;stroke:#444e59;stroke-width:69.46px;"/><path id="XMLID_22_" d="M3942.71,11387.2l-225.695,-0l-0,-737.85l232.641,-0c95.484,-0 175.346,78.125 175.346,175.35l0,381.941c-1.738,98.959 -83.333,180.559 -182.292,180.559Z" style="fill:none;fill-rule:nonzero;stroke:#444e59;stroke-width:69.46px;"/></g><g id="XMLID_20_"><path id="XMLID_74_" d="M3618.05,9947.92l-1246.53,635.416c-15.625,6.946 -26.042,20.834 -32.987,36.459l-166.667,416.666c-15.625,38.196 6.946,81.596 46.875,92.013l435.762,111.112c15.625,3.471 32.988,1.738 48.613,-5.208l1246.53,-635.417c71.179,-36.458 98.958,-123.262 62.5,-192.708l-201.392,-394.096c-36.458,-72.916 -123.262,-100.696 -192.708,-64.237Z" style="fill:#fff;fill-rule:nonzero;"/><path id="XMLID_77_" d="M3383.26,10066.8l-363.433,185.43l331.404,649.541l363.434,-185.429l-331.405,-649.542Z" style="fill:#8d91db;"/><path id="XMLID_33_" d="M3618.05,9947.92l-1246.53,635.416c-15.625,6.946 -26.042,20.834 -32.987,36.459l-166.667,416.666c-15.625,38.196 6.946,81.596 46.875,92.013l435.762,111.112c15.625,3.471 32.988,1.738 48.613,-5.208l1246.53,-635.417c71.179,-36.458 98.958,-123.262 62.5,-192.708l-201.392,-394.096c-36.458,-72.916 -123.262,-100.696 -192.708,-64.237Z" style="fill:none;fill-rule:nonzero;stroke:#444e59;stroke-width:69.46px;"/><circle id="XMLID_34_" cx="2503.47" cy="10925.3" r="100.696" style="fill:#444e59;"/><path id="XMLID_79_" d="M3019.04,10253.2l-363.434,185.434l331.405,649.541l363.433,-185.433l-331.404,-649.542Z" style="fill:#beccd5;stroke:#444e59;stroke-width:69.46px;"/><path id="XMLID_32_" d="M3019.04,10253.2l-363.434,185.434l331.405,649.541l363.433,-185.433l-331.404,-649.542Z" style="fill:none;stroke:#444e59;stroke-width:69.46px;"/><path id="XMLID_31_" d="M3383.26,10066.8l-363.433,185.43l331.404,649.541l363.434,-185.429l-331.405,-649.542Z" style="fill:none;stroke:#444e59;stroke-width:69.46px;"/><path id="XMLID_30_" d="M3921.88,10611.1l-208.333,105.9l-331.596,-649.304l208.333,-105.904c85.067,-43.4 189.234,-10.417 234.375,76.391l173.609,340.275c43.404,85.071 8.683,189.238 -76.388,232.642Z" style="fill:#6567c3;fill-rule:nonzero;"/><path id="XMLID_78_" d="M3921.88,10611.1l-208.333,105.9l-331.596,-649.304l208.333,-105.904c85.067,-43.4 189.234,-10.417 234.375,76.391l173.609,340.275c43.404,85.071 8.683,189.238 -76.388,232.642Z" style="fill:none;fill-rule:nonzero;stroke:#444e59;stroke-width:69.46px;"/></g></g><g id="XMLID_90_"><path id="XMLID_102_" d="M5677.08,11392.4l-1168.4,0c-95.483,0 -173.608,-78.125 -173.608,-173.612l-0,-2342.01c-0,-95.487 78.125,-173.612 173.608,-173.612l1168.4,-0.001c95.488,0.001 173.613,78.126 173.613,173.613l-0,2342.01c-0,97.22 -78.125,173.612 -173.613,173.612Z" style="fill:#fff;fill-rule:nonzero;"/><path id="XMLID_83_" d="M5875,9510.42l-1539.93,-0l-0,-637.154c-0,-93.75 76.387,-170.138 170.137,-170.138l1189.24,0c98.958,0 178.816,81.596 178.816,178.821l0.001,628.471l1.737,-0Z" style="fill:#6567c3;fill-rule:nonzero;"/><path id="XMLID_10_" d="M5677.08,11392.4l-1168.4,0c-95.483,0 -173.608,-78.125 -173.608,-173.612l-0,-2342.01c-0,-95.487 78.125,-173.612 173.608,-173.612l1168.4,-0.001c95.488,0.001 173.613,78.126 173.613,173.613l-0,2342.01c-0,97.22 -78.125,173.612 -173.613,173.612Z" style="fill:none;fill-rule:nonzero;stroke:#444e59;stroke-width:69.46px;"/><path id="XMLID_82_" d="M5678.83,11392.4l-1164.93,0c-98.958,0 -180.554,-81.6 -180.554,-180.558l-0,-333.334l1517.36,0l0,342.017c0,95.483 -78.125,171.875 -171.875,171.875Z" style="fill:#bbbfc2;fill-rule:nonzero;"/><path id="XMLID_81_" d="M5682.29,11392.4l-1168.4,0c-98.959,0 -180.555,-81.6 -180.555,-180.558l0,-333.334l1517.36,0l-0,345.488c-0,93.75 -76.392,168.404 -168.404,168.404Z" style="fill:none;fill-rule:nonzero;stroke:#444e59;stroke-width:69.46px;"/><circle id="XMLID_84_" cx="5104.17" cy="11125" r="86.804" style="fill:#444e59;"/><path id="XMLID_86_" d="M4677.08,9779.5l855.904,0" style="fill:none;fill-rule:nonzero;stroke:#444e59;stroke-opacity:0.3;stroke-width:69.46px;"/><path id="XMLID_87_" d="M4847.21,10048.6l538.196,0" style="fill:none;fill-rule:nonzero;stroke:#444e59;stroke-opacity:0.3;stroke-width:69.46px;"/><path id="XMLID_88_" d="M4677.08,10293.4l855.904,-0" style="fill:none;fill-rule:nonzero;stroke:#444e59;stroke-opacity:0.3;stroke-width:69.46px;"/><circle id="XMLID_85_" cx="5104.17" cy="9168.42" r="194.446" style="fill:#fff;fill-opacity:0.62;"/><path id="XMLID_89_" d="M5385.42,10562.5c-0,53.821 -43.404,97.221 -97.221,97.221l-366.321,-0c-53.821,-0 -97.221,-43.4 -97.221,-97.221c0,-53.821 43.4,-97.221 97.221,-97.221l366.321,0c53.816,-1.737 97.221,41.667 97.221,97.221Z" style="fill:#ed8b3b;fill-rule:nonzero;"/></g><g id="XMLID_111_"><path id="XMLID_100_" d="M14725.7,11074.7l-4206.6,-0l0,-2527.78c0,-74.655 60.767,-135.417 135.417,-135.417l3937.5,-0c72.916,-0 131.946,59.029 131.946,131.946l-0,2531.25l1.737,-0Z" style="fill:#bbbfc2;fill-rule:nonzero;"/><path id="XMLID_11_" d="M14736.1,11079.9l-4204.88,0l0,-2534.72c0,-76.387 62.5,-138.887 138.888,-138.887l3927.08,-0c76.391,-0 138.891,62.5 138.891,138.887l0.001,2534.72l0.012,0Z" style="fill:none;fill-rule:nonzero;stroke:#444e59;stroke-width:69.46px;"/><rect id="XMLID_101_" x="10764.4" y="8630.68" width="3741.32" height="2225.7" style="fill:#5d5d5d;fill-opacity:0.71;"/><path id="XMLID_183_" d="M11678.8,10432.3l-322.916,-0c-19.1,-0 -34.725,-15.625 -34.725,-34.721l-0,-1105.9c-0,-19.096 15.625,-34.721 34.725,-34.721l322.916,-0c19.096,-0 34.721,15.625 34.721,34.721l0,1107.64c0,17.363 -15.625,32.988 -34.721,32.988Z" style="fill:#848484;fill-opacity:0.32;fill-rule:nonzero;"/><path id="XMLID_178_" d="M14010.4,10656.2l-1864.58,0c-38.195,0 -69.445,-31.25 -69.445,-69.446l-0,-1425.35c-0,-38.195 31.25,-69.445 69.445,-69.445l1864.58,-0.001c38.196,0.001 69.446,31.251 69.446,69.446l-0,1425.35c-0,38.196 -29.517,69.446 -69.446,69.446Z" style="fill:#848484;fill-opacity:0.32;fill-rule:nonzero;"/><rect id="XMLID_103_" x="10764.5" y="8639.24" width="3737.85" height="2206.6" style="fill:none;stroke:#444e59;stroke-width:69.46px;"/><path id="XMLID_110_" d="M15194.5,11079.9l-5123.28,0l0,163.192c0,76.391 62.5,138.891 138.892,138.891l4845.5,0c76.392,0 138.892,-62.5 138.892,-138.891l-0,-163.192Z" style="fill:#fff;fill-rule:nonzero;"/><path id="XMLID_206_" d="M10267.3,11392.4l4732.65,0c95.488,0 173.613,-72.917 190.971,-171.875l-5116.33,0c17.358,98.958 97.22,171.875 192.708,171.875Z" style="fill:#bbbfc2;fill-opacity:0.8;fill-rule:nonzero;"/><path id="XMLID_15_" d="M15194.5,11079.9l-5123.28,0l0,163.192c0,76.391 62.5,138.891 138.892,138.891l4845.5,0c76.392,0 138.892,-62.5 138.892,-138.891l-0,-163.192Z" style="fill:none;fill-rule:nonzero;stroke:#444e59;stroke-width:69.46px;"/><rect id="XMLID_201_" x="11229.2" y="9168.42" width="390.625" height="390.625" style="fill:#f09f54;"/><rect id="XMLID_138_" x="11236.1" y="9171.88" width="390.625" height="390.625" style="fill:none;stroke:#444e59;stroke-width:69.46px;"/><rect id="XMLID_180_" x="11236.1" y="9171.88" width="390.625" height="390.625" style="fill:none;stroke:#444e59;stroke-width:69.46px;"/><rect id="XMLID_156_" x="11229.2" y="9559.04" width="390.625" height="390.625" style="fill:#8d91db;"/><rect id="XMLID_140_" x="11236.1" y="9564.25" width="390.625" height="390.625" style="fill:none;stroke:#444e59;stroke-width:69.46px;"/><rect id="XMLID_202_" x="11229.2" y="9949.67" width="390.625" height="390.625" style="fill:#6567c3;"/><rect id="XMLID_143_" x="11236.1" y="9954.88" width="390.625" height="390.625" style="fill:none;stroke:#444e59;stroke-width:69.46px;"/><path id="XMLID_115_" d="M13897.6,10536.5l-1866.32,0c-38.196,0 -69.446,-31.25 -69.446,-69.445l-0,-1425.35c-0,-38.196 31.25,-69.446 69.445,-69.446l1866.32,-0c38.192,-0 69.442,31.25 69.442,69.446l0,1425.35c0,39.934 -31.25,69.446 -69.442,69.446Z" style="fill:#fff;fill-rule:nonzero;"/><path id="XMLID_139_" d="M13897.6,10536.5l-1866.32,0c-38.196,0 -69.446,-31.25 -69.446,-69.445l-0,-1425.35c-0,-38.196 31.25,-69.446 69.445,-69.446l1866.32,-0c38.192,-0 69.442,31.25 69.442,69.446l0,1425.35c0,39.934 -31.25,69.446 -69.442,69.446Z" style="fill:none;fill-rule:nonzero;stroke:#444e59;stroke-width:69.46px;"/><g id="XMLID_147_" opacity="0.3"><g id="XMLID_205_"><path id="XMLID_419_" d="M13380.2,10125l0,26.042l-26.041,-0" style="fill:none;fill-rule:nonzero;stroke:#444e59;stroke-width:34.71px;stroke-linecap:butt;stroke-miterlimit:4;"/><path id="XMLID_418_" d="M13321.2,10151l-727.429,-0" style="fill:none;fill-rule:nonzero;stroke:#444e59;stroke-width:34.71px;stroke-linecap:butt;stroke-miterlimit:4;stroke-dasharray:49.63,33.08;"/><path id="XMLID_417_" d="M12576.4,10151l-26.042,-0l0,-26.042" style="fill:none;fill-rule:nonzero;stroke:#444e59;stroke-width:34.71px;stroke-linecap:butt;stroke-miterlimit:4;"/><path id="XMLID_416_" d="M12550.3,10088.5l0,-677.084" style="fill:none;fill-rule:nonzero;stroke:#444e59;stroke-width:34.71px;stroke-linecap:butt;stroke-miterlimit:4;stroke-dasharray:52.17,34.79;"/><path id="XMLID_415_" d="M12550.3,9394.08l0,-26.041l26.042,-0" style="fill:none;fill-rule:nonzero;stroke:#444e59;stroke-width:34.71px;stroke-linecap:butt;stroke-miterlimit:4;"/><path id="XMLID_214_" d="M12609.4,9368.04l727.429,-0" style="fill:none;fill-rule:nonzero;stroke:#444e59;stroke-width:34.71px;stroke-linecap:butt;stroke-miterlimit:4;stroke-dasharray:49.63,33.08;"/><path id="XMLID_213_" d="M13354.2,9368.04l26.041,-0l0,26.041" style="fill:none;fill-rule:nonzero;stroke:#444e59;stroke-width:34.71px;stroke-linecap:butt;stroke-miterlimit:4;"/><path id="XMLID_211_" d="M13380.2,9428.83l0,678.817" style="fill:none;fill-rule:nonzero;stroke:#444e59;stroke-width:34.71px;stroke-linecap:butt;stroke-miterlimit:4;stroke-dasharray:52.17,34.79;"/></g></g><g id="XMLID_155_"><rect id="XMLID_154_" x="12493" y="9307.29" width="123.262" height="123.262" style="fill:#fff;"/><rect id="XMLID_153_" x="12487.8" y="9302.08" width="121.529" height="121.529" style="fill:none;stroke:#444e59;stroke-width:17.38px;stroke-linecap:butt;"/></g><g id="XMLID_157_"><rect id="XMLID_159_" x="12493" y="10088.5" width="123.262" height="123.263" style="fill:#fff;"/><rect id="XMLID_158_" x="12487.8" y="10085.1" width="121.529" height="121.529" style="fill:none;stroke:#444e59;stroke-width:17.38px;stroke-linecap:butt;"/></g><g id="XMLID_162_"><rect id="XMLID_166_" x="13319.5" y="9307.29" width="123.263" height="123.262" style="fill:#fff;"/><rect id="XMLID_164_" x="13319.5" y="9302.08" width="121.529" height="121.529" style="fill:none;stroke:#444e59;stroke-width:17.38px;stroke-linecap:butt;"/></g><g id="XMLID_196_"><rect id="XMLID_198_" x="13319.5" y="10088.5" width="123.263" height="123.263" style="fill:#fff;"/><rect id="XMLID_197_" x="13319.5" y="10085.1" width="121.529" height="121.529" style="fill:none;stroke:#444e59;stroke-width:17.38px;stroke-linecap:butt;"/></g><g id="XMLID_229_"><g id="XMLID_225_"><path id="XMLID_230_" d="M11432.3,9765.62l123.262,263.888l119.792,62.499l83.333,-83.333l-60.762,-121.525l-265.625,-121.529Z" style="fill:#fff;fill-rule:nonzero;"/><path id="XMLID_227_" d="M11432.3,9765.62l123.262,263.888l119.792,62.499l83.333,-83.333l-60.762,-121.525l-265.625,-121.529Z" style="fill:none;fill-rule:nonzero;stroke:#444e59;stroke-width:17.38px;stroke-linecap:butt;"/><circle id="XMLID_224_" cx="11588.5" cy="9914.92" r="32.987" style="fill:#444e59;"/><path id="XMLID_226_" d="M11432.3,9765.62l137.154,137.154" style="fill:none;fill-rule:nonzero;stroke:#444e59;stroke-width:17.38px;"/></g><path id="XMLID_231_" d="M11759.2,10007.3l-83.479,83.479l60.154,60.15l83.479,-83.475l-60.154,-60.154Z" style="fill:#fff;"/><path id="XMLID_228_" d="M11759.2,10007.3l-83.479,83.479l60.154,60.15l83.479,-83.475l-60.154,-60.154Z" style="fill:none;stroke:#444e59;stroke-width:17.38px;stroke-linecap:butt;"/></g></g><g><text x="5435.04px" y="14202.5px" style="font-family:'Nunito-Black', 'Nunito';font-weight:900;font-size:2462.92px;fill:#fdc858;">Dash</text></g></svg>