<?xml version="1.0" encoding="UTF-8" standalone="no"?><!DOCTYPE svg PUBLIC "-//W3C//DTD SVG 1.1//EN" "http://www.w3.org/Graphics/SVG/1.1/DTD/svg11.dtd"><svg width="100%" height="100%" viewBox="0 0 3467 3163" version="1.1" xmlns="http://www.w3.org/2000/svg" xmlns:xlink="http://www.w3.org/1999/xlink" xml:space="preserve" xmlns:serif="http://www.serif.com/" style="fill-rule:evenodd;clip-rule:evenodd;stroke-linecap:round;stroke-linejoin:round;stroke-miterlimit:10;"><g id="XMLID_967_"><g id="XMLID_1056_"><path id="XMLID_1057_" d="M845.868,1405.91c-75.682,-76.665 -122.205,-182.162 -122.205,-298.143c-0,-234.583 190.352,-424.936 424.935,-424.936c234.583,0 425.264,190.026 425.264,424.608l-327.302,-248.998l-400.692,547.469Z" style="fill:#fdc858;fill-rule:nonzero;"/></g><g id="XMLID_1052_"><path id="XMLID_1055_" d="M1148.93,569.475l-0,45.868" style="fill:none;fill-rule:nonzero;stroke:#d4c0e2;stroke-width:26.21px;"/><path id="XMLID_1054_" d="M1148.93,484.291l-0,47.834" style="fill:none;fill-rule:nonzero;stroke:#d4c0e2;stroke-width:26.21px;"/><path id="XMLID_1053_" d="M1148.93,379.122l-0,62.577" style="fill:none;fill-rule:nonzero;stroke:#d4c0e2;stroke-width:26.21px;"/></g><g id="XMLID_1048_"><path id="XMLID_1051_" d="M1055.22,577.665l8.191,44.886" style="fill:none;fill-rule:nonzero;stroke:#d4c0e2;stroke-width:26.21px;"/><path id="XMLID_1050_" d="M1040.48,493.792l8.519,47.179" style="fill:none;fill-rule:nonzero;stroke:#d4c0e2;stroke-width:26.21px;"/><path id="XMLID_1049_" d="M1022.13,390.261l11.14,61.594" style="fill:none;fill-rule:nonzero;stroke:#d4c0e2;stroke-width:26.21px;"/></g><g id="XMLID_1044_"><path id="XMLID_1047_" d="M964.798,601.91l15.726,42.919" style="fill:none;fill-rule:nonzero;stroke:#d4c0e2;stroke-width:26.21px;"/><path id="XMLID_1046_" d="M935.639,521.968l16.381,44.885" style="fill:none;fill-rule:nonzero;stroke:#d4c0e2;stroke-width:26.21px;"/><path id="XMLID_1045_" d="M899.6,423.024l21.623,58.973" style="fill:none;fill-rule:nonzero;stroke:#d4c0e2;stroke-width:26.21px;"/></g><g id="XMLID_1040_"><path id="XMLID_1043_" d="M879.614,641.553l22.934,39.643" style="fill:none;fill-rule:nonzero;stroke:#d4c0e2;stroke-width:26.21px;"/><path id="XMLID_1042_" d="M837.35,567.836l23.917,41.609" style="fill:none;fill-rule:nonzero;stroke:#d4c0e2;stroke-width:26.21px;"/><path id="XMLID_1041_" d="M784.602,476.755l31.452,54.387" style="fill:none;fill-rule:nonzero;stroke:#d4c0e2;stroke-width:26.21px;"/></g><g id="XMLID_1036_"><path id="XMLID_1039_" d="M802.949,695.284l29.487,35.057" style="fill:none;fill-rule:nonzero;stroke:#d4c0e2;stroke-width:26.21px;"/><path id="XMLID_1038_" d="M748.235,630.086l30.797,36.695" style="fill:none;fill-rule:nonzero;stroke:#d4c0e2;stroke-width:26.21px;"/><path id="XMLID_1037_" d="M680.415,549.489l40.627,48.162" style="fill:none;fill-rule:nonzero;stroke:#d4c0e2;stroke-width:26.21px;"/></g><g id="XMLID_1030_"><path id="XMLID_1035_" d="M736.768,761.793l35.056,29.159" style="fill:none;fill-rule:nonzero;stroke:#d4c0e2;stroke-width:26.21px;"/><path id="XMLID_1034_" d="M671.569,707.079l36.367,30.797" style="fill:none;fill-rule:nonzero;stroke:#d4c0e2;stroke-width:26.21px;"/><path id="XMLID_1033_" d="M590.645,639.26l48.162,40.298" style="fill:none;fill-rule:nonzero;stroke:#d4c0e2;stroke-width:26.21px;"/></g><g id="XMLID_1026_"><path id="XMLID_1029_" d="M682.709,838.458l39.643,22.935" style="fill:none;fill-rule:nonzero;stroke:#d4c0e2;stroke-width:26.21px;"/><path id="XMLID_1028_" d="M608.992,795.867l41.609,23.917" style="fill:none;fill-rule:nonzero;stroke:#d4c0e2;stroke-width:26.21px;"/><path id="XMLID_1027_" d="M517.911,743.118l54.387,31.453" style="fill:none;fill-rule:nonzero;stroke:#d4c0e2;stroke-width:26.21px;"/></g><g id="XMLID_1022_"><path id="XMLID_1025_" d="M643.066,923.642l43.247,15.399" style="fill:none;fill-rule:nonzero;stroke:#d4c0e2;stroke-width:26.21px;"/><path id="XMLID_1024_" d="M563.124,894.483l45.213,16.382" style="fill:none;fill-rule:nonzero;stroke:#d4c0e2;stroke-width:26.21px;"/><path id="XMLID_1023_" d="M464.18,858.444l58.973,21.296" style="fill:none;fill-rule:nonzero;stroke:#d4c0e2;stroke-width:26.21px;"/></g><g id="XMLID_1018_"><path id="XMLID_1021_" d="M618.821,1014.07l45.213,7.863" style="fill:none;fill-rule:nonzero;stroke:#d4c0e2;stroke-width:26.21px;"/><path id="XMLID_1020_" d="M535.276,999.325l46.851,8.19" style="fill:none;fill-rule:nonzero;stroke:#d4c0e2;stroke-width:26.21px;"/><path id="XMLID_1019_" d="M431.417,980.977l61.922,10.812" style="fill:none;fill-rule:nonzero;stroke:#d4c0e2;stroke-width:26.21px;"/></g><g id="XMLID_1014_"><path id="XMLID_1017_" d="M610.63,1107.44l45.869,0" style="fill:none;fill-rule:nonzero;stroke:#d4c0e2;stroke-width:26.21px;"/><path id="XMLID_1016_" d="M525.774,1107.44l47.834,0" style="fill:none;fill-rule:nonzero;stroke:#d4c0e2;stroke-width:26.21px;"/><path id="XMLID_1015_" d="M420.278,1107.44l62.904,0" style="fill:none;fill-rule:nonzero;stroke:#d4c0e2;stroke-width:26.21px;"/></g><g id="XMLID_1010_"><path id="XMLID_1013_" d="M618.821,1200.82l45.213,-7.863" style="fill:none;fill-rule:nonzero;stroke:#d4c0e2;stroke-width:26.21px;"/><path id="XMLID_1012_" d="M535.276,1215.56l46.851,-8.191" style="fill:none;fill-rule:nonzero;stroke:#d4c0e2;stroke-width:26.21px;"/><path id="XMLID_1011_" d="M431.417,1233.91l61.922,-10.811" style="fill:none;fill-rule:nonzero;stroke:#d4c0e2;stroke-width:26.21px;"/></g><g id="XMLID_1006_"><path id="XMLID_1009_" d="M643.066,1291.57l43.247,-15.726" style="fill:none;fill-rule:nonzero;stroke:#d4c0e2;stroke-width:26.21px;"/><path id="XMLID_1008_" d="M563.124,1320.73l45.213,-16.381" style="fill:none;fill-rule:nonzero;stroke:#d4c0e2;stroke-width:26.21px;"/><path id="XMLID_1007_" d="M464.18,1356.77l58.973,-21.624" style="fill:none;fill-rule:nonzero;stroke:#d4c0e2;stroke-width:26.21px;"/></g><g id="XMLID_1002_"><path id="XMLID_1005_" d="M682.709,1376.43l39.643,-22.934" style="fill:none;fill-rule:nonzero;stroke:#d4c0e2;stroke-width:26.21px;"/><path id="XMLID_1004_" d="M608.992,1419.02l41.609,-23.917" style="fill:none;fill-rule:nonzero;stroke:#d4c0e2;stroke-width:26.21px;"/><path id="XMLID_1003_" d="M517.911,1471.77l54.387,-31.453" style="fill:none;fill-rule:nonzero;stroke:#d4c0e2;stroke-width:26.21px;"/></g><g id="XMLID_992_"><path id="XMLID_994_" d="M1654.46,923.642l-43.248,15.399" style="fill:none;fill-rule:nonzero;stroke:#d4c0e2;stroke-width:26.21px;"/><path id="XMLID_993_" d="M1734.4,894.483l-45.213,16.382" style="fill:none;fill-rule:nonzero;stroke:#d4c0e2;stroke-width:26.21px;"/></g><g id="XMLID_988_"><path id="XMLID_991_" d="M1614.82,838.458l-39.643,22.935" style="fill:none;fill-rule:nonzero;stroke:#d4c0e2;stroke-width:26.21px;"/><path id="XMLID_990_" d="M1688.53,795.867l-41.609,23.917" style="fill:none;fill-rule:nonzero;stroke:#d4c0e2;stroke-width:26.21px;"/><path id="XMLID_989_" d="M1779.61,743.118l-54.386,31.453" style="fill:none;fill-rule:nonzero;stroke:#d4c0e2;stroke-width:26.21px;"/></g><g id="XMLID_984_"><path id="XMLID_987_" d="M1560.76,761.793l-34.728,29.159" style="fill:none;fill-rule:nonzero;stroke:#d4c0e2;stroke-width:26.21px;"/><path id="XMLID_986_" d="M1625.95,707.079l-36.367,30.797" style="fill:none;fill-rule:nonzero;stroke:#d4c0e2;stroke-width:26.21px;"/><path id="XMLID_985_" d="M1706.88,639.26l-48.161,40.298" style="fill:none;fill-rule:nonzero;stroke:#d4c0e2;stroke-width:26.21px;"/></g><g id="XMLID_980_"><path id="XMLID_983_" d="M1494.58,695.284l-29.486,35.057" style="fill:none;fill-rule:nonzero;stroke:#d4c0e2;stroke-width:26.21px;"/><path id="XMLID_982_" d="M1549.29,630.086l-30.797,36.695" style="fill:none;fill-rule:nonzero;stroke:#d4c0e2;stroke-width:26.21px;"/><path id="XMLID_981_" d="M1617.11,549.489l-40.299,48.162" style="fill:none;fill-rule:nonzero;stroke:#d4c0e2;stroke-width:26.21px;"/></g><g id="XMLID_976_"><path id="XMLID_979_" d="M1417.91,641.553l-22.934,39.643" style="fill:none;fill-rule:nonzero;stroke:#d4c0e2;stroke-width:26.21px;"/><path id="XMLID_978_" d="M1460.17,567.836l-23.917,41.609" style="fill:none;fill-rule:nonzero;stroke:#d4c0e2;stroke-width:26.21px;"/><path id="XMLID_977_" d="M1512.92,476.755l-31.452,54.387" style="fill:none;fill-rule:nonzero;stroke:#d4c0e2;stroke-width:26.21px;"/></g><g id="XMLID_972_"><path id="XMLID_975_" d="M1332.73,601.91l-15.726,42.919" style="fill:none;fill-rule:nonzero;stroke:#d4c0e2;stroke-width:26.21px;"/><path id="XMLID_974_" d="M1361.88,521.968l-16.381,44.885" style="fill:none;fill-rule:nonzero;stroke:#d4c0e2;stroke-width:26.21px;"/><path id="XMLID_973_" d="M1397.92,423.024l-21.623,58.973" style="fill:none;fill-rule:nonzero;stroke:#d4c0e2;stroke-width:26.21px;"/></g><g id="XMLID_968_"><path id="XMLID_971_" d="M1242.3,577.665l-8.19,44.886" style="fill:none;fill-rule:nonzero;stroke:#d4c0e2;stroke-width:26.21px;"/><path id="XMLID_970_" d="M1257.04,493.792l-8.519,47.179" style="fill:none;fill-rule:nonzero;stroke:#d4c0e2;stroke-width:26.21px;"/><path id="XMLID_969_" d="M1275.39,390.261l-11.139,61.594" style="fill:none;fill-rule:nonzero;stroke:#d4c0e2;stroke-width:26.21px;"/></g></g><g id="XMLID_129_"><path d="M775.1,2289.2l-456.715,-0" style="fill:none;fill-rule:nonzero;stroke:#523160;stroke-width:26.21px;"/></g><g id="XMLID_187_"><path d="M1486.06,2289.2l-653.621,-0" style="fill:none;fill-rule:nonzero;stroke:#523160;stroke-width:26.21px;"/></g><g id="XMLID_325_"><path d="M2668.8,2289.2l-59.301,-0" style="fill:none;fill-rule:nonzero;stroke:#523160;stroke-width:26.21px;"/></g><g id="XMLID_3_"><path d="M3009.53,2289.2l-283.727,-0" style="fill:none;fill-rule:nonzero;stroke:#523160;stroke-width:26.21px;"/></g><g id="XMLID_5_"><path d="M3079.97,2289.2l-21.296,-0" style="fill:none;fill-rule:nonzero;stroke:#523160;stroke-width:26.21px;"/></g><g id="XMLID_19_"><path d="M605.716,1731.9l642.482,-872.151l359.082,276.192" style="fill:none;fill-rule:nonzero;stroke:#d4c0e2;stroke-width:26.21px;"/></g><g id="XMLID_29_"><path d="M1443.14,1358.73l459.01,-623.151l779.103,707.68" style="fill:none;fill-rule:nonzero;stroke:#d4c0e2;stroke-width:26.21px;"/></g><g id="XMLID_174_"><path d="M418.303,1874.07c25.578,-19.537 53.296,-26.299 61.857,-15.09c8.561,11.209 -5.255,36.17 -30.833,55.708c-25.579,19.537 -53.296,26.299 -61.858,15.09c-8.561,-11.209 5.255,-36.17 30.834,-55.708Z" style="fill:#fdc858;"/></g><g id="XMLID_163_"><path d="M418.16,1770.26c25.579,-19.537 53.296,-26.299 61.858,-15.09c8.561,11.208 -5.255,36.17 -30.834,55.707c-25.579,19.538 -53.296,26.299 -61.857,15.091c-8.562,-11.209 5.254,-36.171 30.833,-55.708Z" style="fill:#fdc858;"/></g><g id="XMLID_158_"><path d="M418.257,2126.03c25.579,-19.537 53.296,-26.299 61.858,-15.091c8.561,11.209 -5.255,36.171 -30.834,55.708c-25.579,19.537 -53.296,26.299 -61.857,15.091c-8.562,-11.209 5.254,-36.171 30.833,-55.708Z" style="fill:#fdc858;"/></g><g id="XMLID_134_"><path d="M418.301,1996.61c25.579,-19.538 53.296,-26.299 61.857,-15.091c8.561,11.209 -5.255,36.171 -30.833,55.708c-25.579,19.537 -53.296,26.299 -61.858,15.091c-8.561,-11.209 5.255,-36.171 30.834,-55.708Z" style="fill:#fdc858;"/></g><g id="XMLID_34_"><path d="M418.303,1874.07c25.578,-19.537 53.296,-26.299 61.857,-15.09c8.561,11.209 -5.255,36.17 -30.833,55.708c-25.579,19.537 -53.296,26.299 -61.858,15.09c-8.561,-11.209 5.255,-36.17 30.834,-55.708Z" style="fill:none;stroke:#523160;stroke-width:26.21px;"/></g><g id="XMLID_32_"><path d="M418.16,1770.26c25.579,-19.537 53.296,-26.299 61.858,-15.09c8.561,11.208 -5.255,36.17 -30.834,55.707c-25.579,19.538 -53.296,26.299 -61.857,15.091c-8.562,-11.209 5.254,-36.171 30.833,-55.708Z" style="fill:none;stroke:#523160;stroke-width:26.21px;"/></g><g id="XMLID_35_"><path d="M418.257,2126.03c25.579,-19.537 53.296,-26.299 61.858,-15.091c8.561,11.209 -5.255,36.171 -30.834,55.708c-25.579,19.537 -53.296,26.299 -61.857,15.091c-8.562,-11.209 5.254,-36.171 30.833,-55.708Z" style="fill:none;stroke:#523160;stroke-width:26.21px;"/></g><g id="XMLID_33_"><path d="M418.301,1996.61c25.579,-19.538 53.296,-26.299 61.857,-15.091c8.561,11.209 -5.255,36.171 -30.833,55.708c-25.579,19.537 -53.296,26.299 -61.858,15.091c-8.561,-11.209 5.255,-36.171 30.834,-55.708Z" style="fill:none;stroke:#523160;stroke-width:26.21px;"/></g><g id="XMLID_175_"><path d="M294.471,1755.59c8.562,-11.209 36.279,-4.447 61.858,15.09c25.578,19.538 39.394,44.499 30.833,55.708c-8.561,11.209 -36.278,4.447 -61.857,-15.09c-25.579,-19.538 -39.395,-44.499 -30.834,-55.708Z" style="fill:#fdc858;"/></g><g id="XMLID_160_"><path d="M294.314,2059.05c8.561,-11.208 36.279,-4.447 61.857,15.091c25.579,19.537 39.395,44.499 30.834,55.708c-8.561,11.208 -36.279,4.446 -61.858,-15.091c-25.578,-19.537 -39.394,-44.499 -30.833,-55.708Z" style="fill:#fdc858;"/></g><g id="XMLID_137_"><path d="M294.388,1929.27c8.561,-11.209 36.279,-4.447 61.857,15.09c25.579,19.537 39.395,44.499 30.834,55.708c-8.561,11.208 -36.279,4.447 -61.857,-15.091c-25.579,-19.537 -39.395,-44.499 -30.834,-55.707Z" style="fill:#fdc858;"/></g><g id="XMLID_38_"><path d="M294.471,1755.59c8.562,-11.209 36.279,-4.447 61.858,15.09c25.578,19.538 39.394,44.499 30.833,55.708c-8.561,11.209 -36.278,4.447 -61.857,-15.09c-25.579,-19.538 -39.395,-44.499 -30.834,-55.708Z" style="fill:none;stroke:#523160;stroke-width:26.21px;"/></g><g id="XMLID_37_"><path d="M294.314,2059.05c8.561,-11.208 36.279,-4.447 61.857,15.091c25.579,19.537 39.395,44.499 30.834,55.708c-8.561,11.208 -36.279,4.446 -61.858,-15.091c-25.578,-19.537 -39.394,-44.499 -30.833,-55.708Z" style="fill:none;stroke:#523160;stroke-width:26.21px;"/></g><g id="XMLID_36_"><path d="M294.388,1929.27c8.561,-11.209 36.279,-4.447 61.857,15.09c25.579,19.537 39.395,44.499 30.834,55.708c-8.561,11.208 -36.279,4.447 -61.857,-15.091c-25.579,-19.537 -39.395,-44.499 -30.834,-55.707Z" style="fill:none;stroke:#523160;stroke-width:26.21px;"/></g><g id="XMLID_40_"><path d="M387.187,1806.93l-0,476.046" style="fill:none;fill-rule:nonzero;stroke:#523160;stroke-width:26.21px;"/></g><g id="XMLID_44_"><path d="M690.259,2151.2c25.579,-19.537 53.296,-26.299 61.857,-15.09c8.562,11.209 -5.254,36.17 -30.833,55.708c-25.579,19.537 -53.296,26.299 -61.857,15.09c-8.562,-11.209 5.254,-36.17 30.833,-55.708Z" style="fill:none;stroke:#523160;stroke-width:26.21px;"/></g><g id="XMLID_43_"><path d="M690.259,2042.43c25.578,-19.537 53.296,-26.299 61.857,-15.09c8.561,11.209 -5.255,36.17 -30.833,55.708c-25.579,19.537 -53.297,26.299 -61.858,15.09c-8.561,-11.209 5.255,-36.17 30.834,-55.708Z" style="fill:none;stroke:#523160;stroke-width:26.21px;"/></g><g id="XMLID_45_"><path d="M690.184,1944.17c25.579,-19.537 53.297,-26.299 61.858,-15.09c8.561,11.209 -5.255,36.17 -30.834,55.708c-25.578,19.537 -53.296,26.299 -61.857,15.09c-8.561,-11.209 5.255,-36.17 30.833,-55.708Z" style="fill:none;stroke:#523160;stroke-width:26.21px;"/></g><g id="XMLID_42_"><path d="M566.233,2059.03c8.561,-11.209 36.278,-4.447 61.857,15.09c25.579,19.538 39.395,44.499 30.834,55.708c-8.562,11.209 -36.279,4.447 -61.858,-15.09c-25.579,-19.538 -39.395,-44.5 -30.833,-55.708Z" style="fill:none;stroke:#523160;stroke-width:26.21px;"/></g><g id="XMLID_41_"><path d="M566.311,1929.25c8.561,-11.209 36.278,-4.447 61.857,15.091c25.579,19.537 39.395,44.499 30.833,55.707c-8.561,11.209 -36.278,4.447 -61.857,-15.09c-25.579,-19.537 -39.395,-44.499 -30.833,-55.708Z" style="fill:none;stroke:#523160;stroke-width:26.21px;"/></g><g id="XMLID_39_"><path d="M659.12,1986.47l-0,296.505" style="fill:none;fill-rule:nonzero;stroke:#523160;stroke-width:26.21px;"/></g><g id="XMLID_30_"><path d="M1040.48,1143.15l32.108,41.281l77.648,-30.797l100.583,38.661l41.609,-38.661l78.631,25.883l42.592,-64.871l99.927,39.971l39.315,-60.611" style="fill:none;fill-rule:nonzero;stroke:#d4c0e2;stroke-width:26.21px;"/></g><g id="XMLID_46_"><path d="M1699.02,1011.12l99.6,-22.934l36.366,67.164l103.204,-55.697l75.355,47.507l48.816,-72.079l126.466,20.968" style="fill:none;fill-rule:nonzero;stroke:#d4c0e2;stroke-width:26.21px;"/></g><g id="XMLID_59_"><path d="M2117.73,766.052l466.545,0c2.621,-6.225 4.259,-13.433 4.259,-20.64c-0,-29.159 -23.917,-53.076 -53.076,-53.076c-5.898,-0 -11.467,0.983 -16.382,2.621c-12.122,-33.091 -44.23,-56.68 -81.58,-56.68c-9.828,-0 -19.33,1.638 -28.176,4.587c-18.675,-41.282 -60.611,-70.113 -108.773,-70.113c-66.181,-0 -119.585,53.403 -119.585,119.585c0,6.552 0.656,13.105 1.639,19.657c-30.142,5.57 -54.387,26.211 -64.871,54.059Z" style="fill:none;fill-rule:nonzero;stroke:#d4c0e2;stroke-width:26.21px;"/></g><g id="XMLID_64_"><path d="M2927.3,979.994l-0,-1.638c-0,-31.452 -25.555,-56.68 -56.68,-56.68c-5.897,0 -11.467,0.983 -16.709,2.621l-0,-4.914c-0,-49.8 -40.299,-90.098 -90.098,-90.098c-49.8,-0 -90.099,40.298 -90.099,90.098c0,5.242 0.328,10.157 1.311,15.071l-1.311,-0c-24.244,-0 -44.23,19.658 -44.23,44.23l0,1.31l297.816,0Z" style="fill:none;fill-rule:nonzero;stroke:#d4c0e2;stroke-width:26.21px;"/></g><g id="XMLID_115_"><path d="M1189.22,2289.2c-82.89,-0 -150.382,-67.492 -150.382,-150.382c0,-82.891 67.492,-150.382 150.382,-150.382c82.891,-0 150.382,67.491 150.382,150.382c0,82.89 -67.491,150.382 -150.382,150.382Z" style="fill:#5c3f6b;fill-rule:nonzero;"/></g><g id="XMLID_11_"><path d="M1189.22,2289.2c-82.89,-0 -150.382,-67.492 -150.382,-150.382c0,-82.891 67.492,-150.382 150.382,-150.382c82.891,-0 150.382,67.491 150.382,150.382c0,82.89 -67.491,150.382 -150.382,150.382Z" style="fill:none;fill-rule:nonzero;stroke:#523160;stroke-width:26.21px;"/></g><g id="XMLID_116_"><path d="M1189.22,2217.45c-43.247,-0 -78.631,-35.384 -78.631,-78.631c0,-43.247 35.384,-78.631 78.631,-78.631c43.247,-0 78.631,35.384 78.631,78.631c0,43.247 -35.384,78.631 -78.631,78.631Z" style="fill:#fdc858;fill-rule:nonzero;"/></g><g id="XMLID_9_"><path d="M1189.22,2217.45c-43.247,-0 -78.631,-35.384 -78.631,-78.631c0,-43.247 35.384,-78.631 78.631,-78.631c43.247,-0 78.631,35.384 78.631,78.631c0,43.247 -35.384,78.631 -78.631,78.631Z" style="fill:none;fill-rule:nonzero;stroke:#523160;stroke-width:26.21px;"/></g><g id="XMLID_123_"><path d="M1189.22,2164.7c-14.415,0 -25.882,-11.794 -25.882,-25.882c-0,-14.416 11.794,-25.883 25.882,-25.883c14.416,-0 25.883,11.795 25.883,25.883c0,14.088 -11.467,25.882 -25.883,25.882Z" style="fill:#fdc858;fill-rule:nonzero;"/></g><g id="XMLID_14_"><path d="M1189.22,2164.7c-14.415,0 -25.882,-11.794 -25.882,-25.882c-0,-14.416 11.794,-25.883 25.882,-25.883c14.416,-0 25.883,11.795 25.883,25.883c0,14.088 -11.467,25.882 -25.883,25.882Z" style="fill:none;fill-rule:nonzero;stroke:#523160;stroke-width:26.21px;"/></g><g id="XMLID_84_"><path d="M2391.62,1681.12l-30.797,-116.964c-12.122,-46.851 -52.093,-80.924 -100.255,-86.166c-137.604,-14.744 -304.368,-23.262 -498.98,-23.262c-222.788,-0 -565.161,17.037 -668.037,28.831c-18.674,1.966 -34.728,14.088 -42.264,31.453l-61.922,144.812c-28.504,51.11 -45.868,107.463 -50.782,165.781l-1.311,325.664l69.13,1.31c-0.328,-4.587 -0.655,-9.174 -0.655,-13.76c-0,-101.238 81.907,-183.145 183.145,-183.145c101.237,-0 183.145,81.907 183.145,183.145c-0,5.897 -0.328,11.794 -0.983,17.364l481.615,5.897c-0.982,-7.535 -1.638,-15.398 -1.638,-23.261c0,-101.238 81.908,-183.145 183.145,-183.145c101.238,-0 183.145,81.907 183.145,183.145c0,9.173 -0.655,18.019 -1.965,26.865l194.284,1.966l-0,-339.424c0.983,-49.472 -5.57,-98.944 -18.02,-147.106Z" style="fill:#8e63ad;fill-rule:nonzero;"/></g><g id="XMLID_304_"><g opacity="0.36"><path id="XMLID_306_" d="M973.972,2151.27l1.31,-325.664c4.915,-58.318 22.279,-114.671 50.783,-165.781l61.922,-144.812c7.535,-17.365 23.589,-29.159 42.264,-31.453c99.927,-11.467 425.263,-27.848 648.052,-28.831l-16.71,-0c-222.788,-0 -565.161,17.037 -668.037,28.831c-18.674,1.966 -34.728,14.088 -42.264,31.453l-61.922,144.812c-28.504,51.11 -45.868,107.463 -50.782,165.781l-1.311,325.664l69.13,1.31l0,-0.655l-32.435,-0.655Z" style="fill:#8e63ad;fill-rule:nonzero;"/><path id="XMLID_312_" d="M2252.71,2165.69c1.311,-8.846 1.966,-17.692 1.966,-26.865c0,-101.238 -81.907,-183.145 -183.145,-183.145c-6.225,-0 -12.122,0.327 -18.347,0.983c92.719,9.173 164.798,87.149 164.798,182.162c-0,9.173 -0.656,18.019 -1.966,26.865l194.284,1.966l0,-0.328l-157.59,-1.638Z" style="fill:#8e63ad;fill-rule:nonzero;"/><path id="XMLID_314_" d="M1408.08,2155.86c0.655,-5.569 0.983,-11.467 0.983,-17.364c-0,-101.238 -81.908,-183.145 -183.145,-183.145c-6.225,0 -12.122,0.328 -18.347,0.983c92.719,9.174 164.797,87.149 164.797,182.162c0,5.897 -0.327,11.795 -0.983,17.364l481.616,5.898l0,-0.328l-444.921,-5.57Z" style="fill:#8e63ad;fill-rule:nonzero;"/></g></g><g id="XMLID_331_"><path d="M1408.74,2126.37l437.713,-0l0,-43.575l-446.231,-0c4.587,14.088 7.208,28.504 8.518,43.575Z" style="fill:#8e63ad;fill-opacity:0.36;fill-rule:nonzero;"/></g><g id="XMLID_297_"><g opacity="0.25"><path id="XMLID_301_" d="M2398.18,1677.85l-30.797,-116.964c-12.123,-46.851 -52.093,-80.925 -100.255,-86.167c-137.604,-14.743 -304.368,-23.261 -498.98,-23.261c-222.788,-0 -565.161,17.036 -668.037,28.831c-16.054,1.966 -30.469,11.139 -38.66,24.9c-0,-0 -0,-5.57 0.327,-5.57c102.876,-11.795 445.249,-23.262 668.037,-23.262c194.94,0 361.376,8.519 498.98,23.262c48.162,5.242 87.805,39.316 100.255,86.167l30.797,116.964c12.778,48.161 19.003,97.633 19.003,147.105l-0,314.197l38.66,0.328l0,-339.425c-0.328,-49.472 -6.88,-98.944 -19.33,-147.105Z" style="fill:#8e63ad;fill-rule:nonzero;"/></g></g><g id="XMLID_8_"><path d="M2391.62,1681.12l-30.797,-116.964c-12.122,-46.851 -52.093,-80.924 -100.255,-86.166c-137.604,-14.744 -304.368,-23.262 -498.98,-23.262c-222.788,-0 -565.161,17.037 -668.037,28.831c-18.674,1.966 -34.728,14.088 -42.264,31.453l-61.922,144.812c-28.504,51.11 -45.868,107.463 -50.782,165.781l-1.311,325.664l69.13,1.31c-0.328,-4.587 -0.655,-9.174 -0.655,-13.76c-0,-101.238 81.907,-183.145 183.145,-183.145c101.237,-0 183.145,81.907 183.145,183.145c-0,5.897 -0.328,11.794 -0.983,17.364l481.615,5.897c-0.982,-7.535 -1.638,-15.398 -1.638,-23.261c0,-101.238 81.908,-183.145 183.145,-183.145c101.238,-0 183.145,81.907 183.145,183.145c0,9.173 -0.655,18.019 -1.965,26.865l194.284,1.966l-0,-339.424c0.983,-49.472 -5.57,-98.944 -18.02,-147.106Z" style="fill:none;fill-rule:nonzero;stroke:#523160;stroke-width:26.21px;"/></g><g id="XMLID_117_"><path d="M2034.84,2289.2c-82.891,-0 -150.382,-67.492 -150.382,-150.382c-0,-82.891 67.491,-150.382 150.382,-150.382c82.89,-0 150.382,67.491 150.382,150.382c-0,82.89 -67.492,150.382 -150.382,150.382Z" style="fill:#5c3f6b;fill-rule:nonzero;"/></g><g id="XMLID_10_"><path d="M2034.84,2289.2c-82.891,-0 -150.382,-67.492 -150.382,-150.382c-0,-82.891 67.491,-150.382 150.382,-150.382c82.89,-0 150.382,67.491 150.382,150.382c-0,82.89 -67.492,150.382 -150.382,150.382Z" style="fill:none;fill-rule:nonzero;stroke:#523160;stroke-width:26.21px;"/></g><g id="XMLID_120_"><path d="M2034.84,2217.45c-43.248,-0 -78.632,-35.384 -78.632,-78.631c0,-43.247 35.384,-78.631 78.632,-78.631c43.247,-0 78.631,35.384 78.631,78.631c-0,43.247 -35.384,78.631 -78.631,78.631Z" style="fill:#fdc858;fill-rule:nonzero;"/></g><g id="XMLID_12_"><path d="M2034.84,2217.45c-43.248,-0 -78.632,-35.384 -78.632,-78.631c0,-43.247 35.384,-78.631 78.632,-78.631c43.247,-0 78.631,35.384 78.631,78.631c-0,43.247 -35.384,78.631 -78.631,78.631Z" style="fill:none;fill-rule:nonzero;stroke:#523160;stroke-width:26.21px;"/></g><g id="XMLID_125_"><path d="M2034.84,2164.7c-14.416,0 -25.883,-11.794 -25.883,-25.882c-0,-14.416 11.794,-25.883 25.883,-25.883c14.415,-0 25.882,11.795 25.882,25.883c0,14.088 -11.467,25.882 -25.882,25.882Z" style="fill:#fdc858;fill-rule:nonzero;"/></g><g id="XMLID_13_"><path d="M2034.84,2164.7c-14.416,0 -25.883,-11.794 -25.883,-25.882c-0,-14.416 11.794,-25.883 25.883,-25.883c14.415,-0 25.882,11.795 25.882,25.883c0,14.088 -11.467,25.882 -25.882,25.882Z" style="fill:none;fill-rule:nonzero;stroke:#523160;stroke-width:26.21px;"/></g><g id="XMLID_127_"><path d="M937.277,2180.43l-35.711,-0c-14.744,-0 -26.538,-11.795 -26.538,-26.538l-0,-105.825c-0,-14.743 11.794,-26.538 26.538,-26.538l35.711,0l0,158.901Z" style="fill:#fff;fill-rule:nonzero;"/></g><g id="XMLID_6_"><path d="M937.277,2180.43l-35.711,-0c-14.744,-0 -26.538,-11.795 -26.538,-26.538l-0,-105.825c-0,-14.743 11.794,-26.538 26.538,-26.538l35.711,0l0,158.901Z" style="fill:none;fill-rule:nonzero;stroke:#523160;stroke-width:26.21px;"/></g><g id="XMLID_128_"><path d="M942.519,1978.94l-13.105,0c-9.829,0 -17.692,-7.863 -17.692,-17.692l0,-81.252c0,-9.829 7.863,-17.692 17.692,-17.692l13.105,0c9.829,0 17.692,7.863 17.692,17.692l0,81.252c0,9.829 -7.863,17.692 -17.692,17.692Z" style="fill:#fff;fill-rule:nonzero;"/></g><g id="XMLID_15_"><path d="M942.519,1978.94l-13.105,0c-9.829,0 -17.692,-7.863 -17.692,-17.692l0,-81.252c0,-9.829 7.863,-17.692 17.692,-17.692l13.105,0c9.829,0 17.692,7.863 17.692,17.692l0,81.252c0,9.829 -7.863,17.692 -17.692,17.692Z" style="fill:none;fill-rule:nonzero;stroke:#523160;stroke-width:26.21px;"/></g><g id="XMLID_126_"><path d="M2435.53,2205.66l-140.881,0c-16.382,0 -29.487,-13.105 -29.487,-29.487l0,-22.934c0,-16.381 13.105,-29.486 29.487,-29.486l140.881,-0c16.381,-0 29.486,13.105 29.486,29.486l0,22.934c0,16.054 -13.432,29.487 -29.486,29.487Z" style="fill:#fff;fill-rule:nonzero;"/></g><g id="XMLID_294_"><path d="M2296.61,2173.88c-0,-8.191 6.88,-15.071 15.071,-15.071l153.003,0l-0,-5.57c-0,-16.381 -13.105,-29.486 -29.487,-29.486l-140.881,-0c-16.381,-0 -29.486,13.105 -29.486,29.486l-0,22.934c-0,16.382 13.105,29.487 29.486,29.487l2.294,0l-0,-31.78Z" style="fill:#d8d8d8;fill-rule:nonzero;"/></g><g id="XMLID_16_"><path d="M2435.53,2205.66l-140.881,0c-16.382,0 -29.487,-13.105 -29.487,-29.487l0,-22.934c0,-16.381 13.105,-29.486 29.487,-29.486l140.881,-0c16.381,-0 29.486,13.105 29.486,29.486l0,22.934c0,16.054 -13.432,29.487 -29.486,29.487Z" style="fill:none;fill-rule:nonzero;stroke:#523160;stroke-width:26.21px;"/></g><g id="XMLID_113_"><path d="M2197.01,1757.13l-151.692,0c-17.365,0 -31.453,-14.088 -31.453,-31.452l0,-153.003c0,-17.365 14.088,-31.453 31.453,-31.453l92.064,0c36.367,0 67.164,26.538 72.733,62.577l17.692,116.964c3.277,19.33 -11.467,36.367 -30.797,36.367Z" style="fill:#fdc858;fill-rule:nonzero;"/></g><g id="XMLID_293_"><path d="M2078.08,1610.35c-0,-17.364 14.088,-31.452 31.452,-31.452l92.064,-0c-12.777,-22.607 -37.022,-37.35 -64.215,-37.35l-92.064,-0c-17.365,-0 -31.453,14.088 -31.453,31.452l0,153.003c0,17.365 14.088,31.453 31.453,31.453l32.763,-0l-0,-147.106Z" style="fill:#fdc858;fill-opacity:0.56;fill-rule:nonzero;"/></g><g id="XMLID_17_"><path d="M2197.01,1757.13l-151.692,0c-17.365,0 -31.453,-14.088 -31.453,-31.452l0,-153.003c0,-17.365 14.088,-31.453 31.453,-31.453l92.064,0c36.367,0 67.164,26.538 72.733,62.577l17.692,116.964c3.277,19.33 -11.467,36.367 -30.797,36.367Z" style="fill:none;fill-rule:nonzero;stroke:#523160;stroke-width:26.21px;"/></g><g id="XMLID_99_"><path d="M1912.96,1753.86l-334.837,-0c-17.365,-0 -31.453,-14.088 -31.453,-31.453l0,-153.003c0,-17.364 14.088,-31.452 31.453,-31.452l334.837,-0c17.365,-0 31.453,14.088 31.453,31.452l-0,153.003c-0.328,17.365 -14.088,31.453 -31.453,31.453Z" style="fill:#fdc858;fill-rule:nonzero;"/></g><g id="XMLID_308_"><path d="M1607.28,1603.15c-0,-17.364 14.088,-31.452 31.452,-31.452l305.351,-0l0,-2.294c0,-17.364 -14.088,-31.452 -31.452,-31.452l-334.51,-0c-17.365,-0 -31.453,14.088 -31.453,31.452l0,153.003c0,17.365 14.088,31.453 31.453,31.453l29.486,-0l0,-150.71l-0.327,0Z" style="fill:#fdc858;fill-opacity:0.56;fill-rule:nonzero;"/></g><g id="XMLID_21_"><path d="M1912.96,1753.86l-334.837,-0c-17.365,-0 -31.453,-14.088 -31.453,-31.453l0,-153.003c0,-17.364 14.088,-31.452 31.453,-31.452l334.837,-0c17.365,-0 31.453,14.088 31.453,31.452l-0,153.003c-0.328,17.365 -14.088,31.453 -31.453,31.453Z" style="fill:none;fill-rule:nonzero;stroke:#523160;stroke-width:26.21px;"/></g><g id="XMLID_94_"><path d="M1394.32,1757.13l-315.508,0c-17.692,0 -30.469,-19.658 -25.555,-39.643l36.367,-153.003c3.276,-13.433 13.76,-22.934 25.555,-22.934l279.141,-0c14.743,-0 26.538,14.088 26.538,31.452l-0,153.003c0.327,17.037 -11.795,31.125 -26.538,31.125Z" style="fill:#fdc858;fill-rule:nonzero;"/></g><g id="XMLID_316_"><path d="M1112.23,1749.6l36.367,-153.003c3.277,-13.433 13.761,-22.935 25.555,-22.935l246.706,0l-0,-0.982c-0,-17.365 -11.795,-31.453 -26.538,-31.453l-279.141,0c-11.795,0 -22.279,9.501 -25.555,22.934l-36.367,153.003c-4.587,19.986 7.863,39.643 25.555,39.643l32.436,0c0.327,-2.293 0.655,-4.586 0.982,-7.207Z" style="fill:#fdc858;fill-opacity:0.56;fill-rule:nonzero;"/></g><g id="XMLID_22_"><path d="M1394.32,1757.13l-315.508,0c-17.692,0 -30.469,-19.658 -25.555,-39.643l36.367,-153.003c3.276,-13.433 13.76,-22.934 25.555,-22.934l279.141,-0c14.743,-0 26.538,14.088 26.538,31.452l-0,153.003c0.327,17.037 -11.795,31.125 -26.538,31.125Z" style="fill:none;fill-rule:nonzero;stroke:#523160;stroke-width:26.21px;"/></g><g id="XMLID_20_"><path d="M1426.76,1470.13c37.35,0 67.492,30.142 67.492,67.492l-0,619.876" style="fill:none;fill-rule:nonzero;stroke:#523160;stroke-opacity:0.48;stroke-width:6.55px;"/></g><g id="XMLID_24_"><path d="M1339.61,1835.76l98.289,0" style="fill:none;fill-rule:nonzero;stroke:#523160;stroke-width:26.21px;"/></g><g id="XMLID_150_"><path d="M1849.73,1828.23l83.873,-0" style="fill:none;fill-rule:nonzero;stroke:#523160;stroke-width:26.21px;"/></g><g id="XMLID_289_"><path d="M2419.15,2055.93l-12.777,0l-0,-312.886l12.777,0c21.624,0 39.316,17.692 39.316,39.316l-0,234.255c-0,21.623 -17.692,39.315 -39.316,39.315Z" style="fill:#d8d8d8;fill-rule:nonzero;"/></g><g id="XMLID_18_"><path d="M2419.15,2055.93l-12.777,0l-0,-312.886l12.777,0c21.624,0 39.316,17.692 39.316,39.316l-0,234.255c-0,21.623 -17.692,39.315 -39.316,39.315Z" style="fill:none;fill-rule:nonzero;stroke:#523160;stroke-width:26.21px;"/></g><g id="XMLID_25_"><path d="M2265.16,1574.32l39.643,-0" style="fill:none;fill-rule:nonzero;stroke:#523160;stroke-width:26.21px;"/></g><g id="XMLID_26_"><path d="M2281.54,1630.67l39.643,0" style="fill:none;fill-rule:nonzero;stroke:#523160;stroke-width:26.21px;"/></g><g id="XMLID_27_"><path d="M2296.94,1686.69l39.643,-0" style="fill:none;fill-rule:nonzero;stroke:#523160;stroke-width:26.21px;"/></g><g id="XMLID_28_"><path d="M2303.49,1743.04l39.971,0" style="fill:none;fill-rule:nonzero;stroke:#523160;stroke-width:26.21px;"/></g><g id="XMLID_124_"><path d="M1824.5,2177.81l-423.625,-0c-17.692,-0 -31.78,-14.088 -31.78,-31.78c0,-17.692 14.088,-31.781 31.78,-31.781l423.625,0c17.692,0 31.78,14.089 31.78,31.781c0,17.364 -14.088,31.78 -31.78,31.78Z" style="fill:#fff;fill-rule:nonzero;"/></g><g id="XMLID_141_"><path d="M1824.5,2177.81l-423.625,-0c-17.692,-0 -31.78,-14.088 -31.78,-31.78c0,-17.692 14.088,-31.781 31.78,-31.781l423.625,0c17.692,0 31.78,14.089 31.78,31.781c0,17.364 -14.088,31.78 -31.78,31.78Z" style="fill:#fff;fill-rule:nonzero;"/></g><g id="XMLID_273_"><rect x="1369.09" y="2114.25" width="487.185" height="31.78" style="fill:#d8d8d8;"/></g><g id="XMLID_4_"><path d="M1824.5,2177.81l-423.625,-0c-17.692,-0 -31.78,-14.088 -31.78,-31.78c0,-17.692 14.088,-31.781 31.78,-31.781l423.625,0c17.692,0 31.78,14.089 31.78,31.781c0,17.364 -14.088,31.78 -31.78,31.78Z" style="fill:none;fill-rule:nonzero;stroke:#523160;stroke-width:26.21px;"/></g><g id="XMLID_156_"><path d="M1141.06,1675.88l64.215,-64.543" style="fill:none;fill-rule:nonzero;stroke:#523160;stroke-width:13.11px;"/></g><g id="XMLID_159_"><path d="M1195.45,1681.78l86.495,-87.149" style="fill:none;fill-rule:nonzero;stroke:#523160;stroke-width:13.11px;"/></g><g id="XMLID_169_"><path d="M1640.04,1668.34l63.888,-64.87" style="fill:none;fill-rule:nonzero;stroke:#523160;stroke-width:13.11px;"/></g><g id="XMLID_167_"><path d="M1694.43,1674.24l86.495,-87.15" style="fill:none;fill-rule:nonzero;stroke:#523160;stroke-width:13.11px;"/></g><g id="XMLID_172_"><path d="M2055.48,1674.57l52.749,-53.403" style="fill:none;fill-rule:nonzero;stroke:#523160;stroke-width:13.11px;"/></g><g id="XMLID_170_"><path d="M2100.36,1679.48l71.096,-72.079" style="fill:none;fill-rule:nonzero;stroke:#523160;stroke-width:13.11px;"/></g><g id="XMLID_119_"><path d="M2594.1,1847.56l270.623,-640.844c5.897,-13.76 25.555,-13.76 31.452,0l270.622,640.844c32.435,76.665 -36.694,156.934 -134.983,156.934l-302.73,0c-98.289,0 -167.419,-80.269 -134.984,-156.934Z" style="fill:#fdc858;fill-rule:nonzero;"/></g><g id="XMLID_133_"><path d="M2594.1,1847.56l270.623,-640.844c5.897,-13.76 25.555,-13.76 31.452,0l270.622,640.844c32.435,76.665 -36.694,156.934 -134.983,156.934l-302.73,0c-98.289,0 -167.419,-80.269 -134.984,-156.934Z" style="fill:#fdc858;fill-rule:nonzero;"/></g><g id="XMLID_340_"><path d="M2726.46,1877.7l192.974,-616.272l-22.934,-54.714c-5.898,-13.76 -25.556,-13.76 -31.453,0l-270.622,640.844c-32.435,76.665 36.695,156.934 134.983,156.934l22.935,0c-28.832,-24.244 -39.971,-64.543 -25.883,-126.792Z" style="fill:#fdc858;fill-opacity:0.56;fill-rule:nonzero;"/></g><g id="XMLID_132_"><path d="M2880.45,2289.2l-0,-964.542" style="fill:none;fill-rule:nonzero;stroke:#523160;stroke-width:26.21px;"/></g><g id="XMLID_130_"><path d="M2958.43,1458.99l-77.976,74.372l-77.648,-74.372" style="fill:none;fill-rule:nonzero;stroke:#523160;stroke-width:26.21px;"/></g><g id="XMLID_135_"><path d="M2973.17,1600.53l-92.719,88.788l-92.719,-88.788" style="fill:none;fill-rule:nonzero;stroke:#523160;stroke-width:26.21px;"/></g><g id="XMLID_171_"><path d="M3035.09,1761.72l-154.641,122.861l-154.641,-122.861" style="fill:none;fill-rule:nonzero;stroke:#523160;stroke-width:26.21px;"/></g><g id="XMLID_336_"><path d="M2011.9,359.464l-39.315,39.315l-39.316,-39.315" style="fill:none;fill-rule:nonzero;stroke:#d4c0e2;stroke-width:26.21px;"/></g><g id="XMLID_335_"><path d="M2304.48,410.574l-39.316,39.316l-39.643,-39.316" style="fill:none;fill-rule:nonzero;stroke:#d4c0e2;stroke-width:26.21px;"/></g><g id="XMLID_342_"><path d="M2927.63,621.895l-39.643,39.316l-39.315,-39.316" style="fill:none;fill-rule:nonzero;stroke:#d4c0e2;stroke-width:26.21px;"/></g><g id="XMLID_324_"><path d="M2545.94,2289.2l-910.811,-0" style="fill:none;fill-rule:nonzero;stroke:#523160;stroke-width:26.21px;"/></g><g id="XMLID_190_"><path d="M1647.25,2289.2l-110.412,-0" style="fill:none;fill-rule:nonzero;stroke:#523160;stroke-width:26.21px;"/></g><g><g><text x="126.023px" y="2820.23px" style="font-family:'Nunito-Black', 'Nunito';font-weight:900;font-size:490.407px;fill:#fdc858;">R<tspan x="469.799px " y="2820.23px ">a</tspan>ndom Dojo</text></g></g></svg>