<?xml version="1.0" encoding="UTF-8" standalone="no"?>
<!DOCTYPE svg PUBLIC "-//W3C//DTD SVG 1.1//EN" "http://www.w3.org/Graphics/SVG/1.1/DTD/svg11.dtd">
<svg width="100%" height="100%" viewBox="0 0 4167 4167" version="1.1" xmlns="http://www.w3.org/2000/svg" xmlns:xlink="http://www.w3.org/1999/xlink" xml:space="preserve" xmlns:serif="http://www.serif.com/" style="fill-rule:evenodd;clip-rule:evenodd;stroke-linecap:round;stroke-linejoin:round;stroke-miterlimit:10;">
    <path id="XMLID_1313_" d="M3790.83,2776.25L398.75,2776.25C377.917,2776.25 361.25,2759.58 361.25,2738.75C361.25,2717.92 377.917,2701.25 398.75,2701.25L3791.25,2701.25C3812.08,2701.25 3828.75,2717.92 3828.75,2738.75C3828.33,2759.58 3811.67,2776.25 3790.83,2776.25Z" style="fill:rgb(68,78,89);fill-rule:nonzero;"/>
    <g id="XMLID_24_">
        <rect id="XMLID_6_" x="1697.5" y="2699.17" width="586.667" height="35" style="fill:rgb(68,78,89);"/>
        <g id="XMLID_104_">
            <path id="XMLID_76_" d="M2691.67,2470.42L1307.5,2470.42C1280,2470.42 1257.5,2447.92 1257.5,2420.42L1257.5,1493.34C1257.5,1465.84 1280,1443.34 1307.5,1443.34L2691.67,1443.34C2719.17,1443.34 2741.67,1465.84 2741.67,1493.34L2741.67,2420C2741.67,2447.92 2719.59,2470.42 2691.67,2470.42Z" style="fill:rgb(187,191,194);fill-rule:nonzero;"/>
            <rect id="XMLID_80_" x="1351.2" y="1537.42" width="1302.5" height="757.083" style="fill:rgb(40,168,224);"/>
            <path id="XMLID_18_" d="M2695,2470.42L2477.92,2470.42L2477.92,2075.42C2477.92,2043.75 2503.33,2018.34 2535,2018.34L2695,2018.34L2695,2470.42Z" style="fill:rgb(132,132,132);fill-opacity:0.4;fill-rule:nonzero;"/>
            <path id="XMLID_107_" d="M1362.92,2088.75L1257.5,2088.75L1257.5,2400C1257.5,2438.75 1290.84,2470.42 1330,2470.42L1451.25,2470.42L1451.25,2178.75C1450.84,2130 1411.25,2088.75 1362.92,2088.75Z" style="fill:rgb(132,132,132);fill-opacity:0.4;fill-rule:nonzero;"/>
            <path id="XMLID_5_" d="M2695.83,2470.42L1309.16,2470.42C1281.66,2470.42 1259.16,2447.92 1259.16,2420.42L1259.16,1493.34C1259.16,1465.84 1281.66,1443.34 1309.16,1443.34L2695.83,1443.34C2723.33,1443.34 2745.83,1465.84 2745.83,1493.34L2745.83,2420C2745.83,2447.92 2723.33,2470.42 2695.83,2470.42Z" style="fill:none;fill-rule:nonzero;stroke:rgb(68,78,89);stroke-width:16.67px;"/>
            <rect id="XMLID_7_" x="1353.27" y="1537.41" width="1298.75" height="757.083" style="fill:none;stroke:rgb(68,78,89);stroke-width:16.67px;"/>
        </g>
        <path id="XMLID_179_" d="M2399.58,2257.92L1683.75,2257.92C1667.5,2257.92 1654.58,2244.59 1654.58,2228.75L1654.58,1717.92C1654.58,1701.67 1667.91,1688.75 1683.75,1688.75L2399.58,1688.75C2415.83,1688.75 2428.75,1702.09 2428.75,1717.92L2428.75,2228.34C2428.75,2244.59 2415.83,2257.92 2399.58,2257.92Z" style="fill:rgb(132,132,132);fill-opacity:0.32;fill-rule:nonzero;"/>
        <path id="XMLID_134_" d="M2366.25,2229.58L1650.42,2229.58C1634.17,2229.58 1621.25,2216.25 1621.25,2200.41L1621.25,1690C1621.25,1673.75 1634.58,1660.83 1650.42,1660.83L2366.25,1660.83C2382.5,1660.83 2395.42,1674.16 2395.42,1690L2395.42,2200.41C2395.83,2216.66 2382.5,2229.58 2366.25,2229.58Z" style="fill:rgb(175,177,178);fill-rule:nonzero;"/>
        <path id="XMLID_137_" d="M2366.25,2229.58L1650.42,2229.58C1634.17,2229.58 1621.25,2216.25 1621.25,2200.41L1621.25,1690C1621.25,1673.75 1634.58,1660.83 1650.42,1660.83L2366.25,1660.83C2382.5,1660.83 2395.42,1674.16 2395.42,1690L2395.42,2200.41C2395.83,2216.66 2382.5,2229.58 2366.25,2229.58Z" style="fill:none;fill-rule:nonzero;stroke:rgb(68,78,89);stroke-width:16.67px;"/>
        <path id="XMLID_96_" d="M2177.08,2699.17L1827.91,2699.17L1871.25,2470.42L2133.75,2470.42L2177.08,2699.17Z" style="fill:rgb(174,174,175);fill-rule:nonzero;"/>
        <path id="XMLID_99_" d="M2145.42,2535L2133.75,2470.42L1871.25,2470.42L1859.59,2535L2145.42,2535Z" style="fill:rgb(132,132,132);fill-opacity:0.32;fill-rule:nonzero;"/>
        <path id="XMLID_3_" d="M2177.08,2699.17L1827.91,2699.17L1871.25,2470.42L2133.75,2470.42L2177.08,2699.17Z" style="fill:none;fill-rule:nonzero;stroke:rgb(68,78,89);stroke-width:16.67px;"/>
        <rect id="XMLID_8_" x="1697.5" y="2699.17" width="586.667" height="35" style="fill:none;stroke:rgb(68,78,89);stroke-width:16.67px;"/>
        <circle id="XMLID_9_" cx="2000.42" cy="2365.42" r="25.833" style="fill:rgb(68,78,89);"/>
        <path id="XMLID_133_" d="M2307.5,2177.08L1591.67,2177.08C1575.42,2177.08 1562.5,2163.75 1562.5,2147.91L1562.5,1637.08C1562.5,1620.83 1575.83,1607.91 1591.67,1607.91L2307.5,1607.91C2323.75,1607.91 2336.67,1621.25 2336.67,1637.08L2336.67,2147.5C2337.08,2163.75 2323.75,2177.08 2307.5,2177.08Z" style="fill:white;fill-rule:nonzero;"/>
        <path id="XMLID_25_" d="M2307.5,2177.08L1591.67,2177.08C1575.42,2177.08 1562.5,2163.75 1562.5,2147.91L1562.5,1637.08C1562.5,1620.83 1575.83,1607.91 1591.67,1607.91L2307.5,1607.91C2323.75,1607.91 2336.67,1621.25 2336.67,1637.08L2336.67,2147.5C2337.08,2163.75 2323.75,2177.08 2307.5,2177.08Z" style="fill:none;fill-rule:nonzero;stroke:rgb(68,78,89);stroke-width:16.67px;"/>
        <path id="XMLID_105_" d="M2337.08,1695.83L1562.5,1695.83L1562.5,1638.33C1562.5,1621.66 1576.25,1607.5 1593.33,1607.5L2308.33,1607.5C2324.16,1607.5 2337.08,1620.41 2337.08,1636.25L2337.08,1695.83Z" style="fill:rgb(187,191,194);fill-rule:nonzero;"/>
        <path id="XMLID_26_" d="M2337.08,1695.83L1562.5,1695.83L1562.5,1638.33C1562.5,1621.66 1576.25,1607.5 1593.33,1607.5L2308.33,1607.5C2324.16,1607.5 2337.08,1620.41 2337.08,1636.25L2337.08,1695.83Z" style="fill:none;fill-rule:nonzero;stroke:rgb(68,78,89);stroke-width:16.67px;"/>
        <g id="XMLID_108_">
            <circle id="XMLID_106_" cx="1637.08" cy="1652.08" r="13.75" style="fill:rgb(68,78,89);"/>
            <circle id="XMLID_109_" cx="1682.5" cy="1652.08" r="13.75" style="fill:rgb(68,78,89);"/>
            <circle id="XMLID_120_" cx="1727.5" cy="1652.08" r="13.75" style="fill:rgb(68,78,89);"/>
        </g>
        <path id="XMLID_122_" d="M2264.17,1848.33L1629.59,1848.33C1625,1848.33 1621.25,1844.58 1621.25,1840L1621.25,1751.25C1621.25,1746.66 1625,1742.91 1629.59,1742.91L2264.17,1742.91C2268.75,1742.91 2272.5,1746.66 2272.5,1751.25L2272.5,1840C2272.5,1844.58 2268.75,1848.33 2264.17,1848.33Z" style="fill:rgb(101,103,195);fill-rule:nonzero;"/>
        <g id="XMLID_123_">
            <path id="XMLID_124_" d="M1812.08,1959.58L1629.16,1959.58C1624.58,1959.58 1620.83,1955.83 1620.83,1951.25L1620.83,1903.33C1620.83,1898.75 1624.58,1895 1629.16,1895L1812.08,1895C1816.66,1895 1820.41,1898.75 1820.41,1903.33L1820.41,1951.25C1820.41,1955.83 1817.08,1959.58 1812.08,1959.58Z" style="fill:rgb(68,78,89);fill-opacity:0.2;fill-rule:nonzero;"/>
            <path id="XMLID_125_" d="M1650.42,2006.67L1797.09,2006.67" style="fill:none;fill-rule:nonzero;stroke:rgb(68,78,89);stroke-opacity:0.2;stroke-width:16.67px;"/>
            <path id="XMLID_128_" d="M1650.42,2053.75L1797.09,2053.75" style="fill:none;fill-rule:nonzero;stroke:rgb(68,78,89);stroke-opacity:0.2;stroke-width:16.67px;"/>
        </g>
        <g id="XMLID_127_">
            <path id="XMLID_131_" d="M2041.25,1959.58L1858.33,1959.58C1853.75,1959.58 1850,1955.83 1850,1951.25L1850,1903.33C1850,1898.75 1853.75,1895 1858.33,1895L2041.25,1895C2045.83,1895 2049.58,1898.75 2049.58,1903.33L2049.58,1951.25C2049.58,1955.83 2045.83,1959.58 2041.25,1959.58Z" style="fill:rgb(68,78,89);fill-opacity:0.2;fill-rule:nonzero;"/>
            <path id="XMLID_130_" d="M1879.17,2006.67L2020,2006.67" style="fill:none;fill-rule:nonzero;stroke:rgb(68,78,89);stroke-opacity:0.2;stroke-width:16.67px;"/>
            <path id="XMLID_129_" d="M1879.17,2053.75L2020,2053.75" style="fill:none;fill-rule:nonzero;stroke:rgb(68,78,89);stroke-opacity:0.2;stroke-width:16.67px;"/>
        </g>
        <g id="XMLID_132_" opacity="0.2">
            <path id="XMLID_135_" d="M2270,2059.58L2087.08,2059.58C2082.5,2059.58 2078.75,2055.83 2078.75,2051.25L2078.75,1903.75C2078.75,1899.16 2082.5,1895.41 2087.08,1895.41L2270,1895.41C2274.58,1895.41 2278.33,1899.16 2278.33,1903.75L2278.33,2051.25C2278.33,2055.83 2274.58,2059.58 2270,2059.58Z" style="fill:rgb(68,78,89);fill-rule:nonzero;"/>
        </g>
        <g id="XMLID_126_" opacity="0.09">
            <path id="XMLID_136_" d="M2264.17,2106.67L2090,2106.67C2083.34,2106.67 2078.34,2101.25 2078.34,2095C2078.34,2088.75 2083.75,2083.34 2090,2083.34L2264.17,2083.34C2270.84,2083.34 2275.84,2088.75 2275.84,2095C2275.84,2101.25 2270.42,2106.67 2264.17,2106.67Z" style="fill:rgb(68,78,89);fill-rule:nonzero;"/>
        </g>
    </g>
    <g id="XMLID_23_">
        <g id="XMLID_12_">
            <path id="XMLID_71_" d="M955,2555.83L619.167,2555.83C615,2555.83 611.25,2557.08 608.333,2560L527.083,2630.83C519.583,2637.5 519.583,2649.16 527.083,2655.41L608.333,2727.5C611.25,2730 615,2732.5 619.167,2732.5L955,2732.5C974.167,2732.5 990,2715 990,2695.83L990,2589.58C989.583,2571.25 974.167,2555.83 955,2555.83ZM610,2663.75C598.75,2663.75 589.167,2654.58 589.167,2642.91C589.167,2631.25 598.333,2622.08 610,2622.08C621.667,2622.08 630.833,2631.25 630.833,2642.91C630.833,2654.58 621.667,2663.75 610,2663.75Z" style="fill:white;fill-rule:nonzero;"/>
            <rect id="XMLID_70_" x="696.25" y="2555.83" width="97.917" height="177.083" style="fill:rgb(240,159,84);"/>
            <rect id="XMLID_69_" x="794.167" y="2555.83" width="97.917" height="177.083" style="fill:rgb(237,139,59);"/>
            <path id="XMLID_58_" d="M946.25,2732.92L892.083,2732.92L892.083,2555.84L947.917,2555.84C970.833,2555.84 990,2574.59 990,2597.92L990,2689.59C989.583,2713.34 970,2732.92 946.25,2732.92Z" style="fill:rgb(255,108,55);fill-rule:nonzero;"/>
            <path id="XMLID_117_" d="M964.167,2564.58C962.5,2564.16 960.833,2564.16 959.167,2564.16L623.333,2564.16C619.167,2564.16 615.417,2565.41 612.5,2568.33L531.25,2639.16C523.75,2645.83 523.75,2657.5 531.25,2663.75L582.083,2708.33L637.083,2722.08C639.583,2722.91 642.5,2722.91 645.417,2722.91C650.833,2722.91 655.833,2721.66 660.833,2719.16L960,2566.66C961.25,2566.25 962.917,2565.41 964.167,2564.58ZM614.167,2672.08C602.917,2672.08 593.333,2662.91 593.333,2651.25C593.333,2639.58 602.5,2630.41 614.167,2630.41C625.833,2630.41 635,2639.58 635,2651.25C635,2662.91 625.833,2672.08 614.167,2672.08Z" style="fill:rgb(132,132,132);fill-opacity:0.4;fill-rule:nonzero;"/>
            <path id="XMLID_29_" d="M955,2555.83L619.167,2555.83C615,2555.83 611.25,2557.08 608.333,2560L527.083,2630.83C519.583,2637.5 519.583,2649.16 527.083,2655.41L608.333,2727.5C611.25,2730 615,2732.5 619.167,2732.5L955,2732.5C974.167,2732.5 990,2715 990,2695.83L990,2589.58C989.583,2571.25 974.167,2555.83 955,2555.83ZM610,2663.75C598.75,2663.75 589.167,2654.58 589.167,2642.91C589.167,2631.25 598.333,2622.08 610,2622.08C621.667,2622.08 630.833,2631.25 630.833,2642.91C630.833,2654.58 621.667,2663.75 610,2663.75Z" style="fill:none;fill-rule:nonzero;stroke:rgb(68,78,89);stroke-width:16.67px;"/>
            <rect id="XMLID_17_" x="696.25" y="2555.83" width="97.917" height="177.083" style="fill:none;stroke:rgb(68,78,89);stroke-width:16.67px;"/>
            <rect id="XMLID_21_" x="794.167" y="2555.83" width="97.917" height="177.083" style="fill:none;stroke:rgb(68,78,89);stroke-width:16.67px;"/>
            <path id="XMLID_22_" d="M946.25,2732.92L892.083,2732.92L892.083,2555.84L947.917,2555.84C970.833,2555.84 990,2574.59 990,2597.92L990,2689.59C989.583,2713.34 970,2732.92 946.25,2732.92Z" style="fill:none;fill-rule:nonzero;stroke:rgb(68,78,89);stroke-width:16.67px;"/>
        </g>
        <g id="XMLID_20_">
            <path id="XMLID_74_" d="M868.333,2387.5L569.167,2540C565.417,2541.67 562.917,2545 561.25,2548.75L521.25,2648.75C517.5,2657.92 522.917,2668.33 532.5,2670.83L637.083,2697.5C640.833,2698.33 645,2697.92 648.75,2696.25L947.917,2543.75C965,2535 971.667,2514.17 962.917,2497.5L914.583,2402.92C905.833,2385.42 885,2378.75 868.333,2387.5Z" style="fill:white;fill-rule:nonzero;"/>
            <path id="XMLID_77_" d="M811.983,2416.04L724.759,2460.54L804.296,2616.43L891.52,2571.93L811.983,2416.04Z" style="fill:rgb(141,145,219);"/>
            <path id="XMLID_33_" d="M868.333,2387.5L569.167,2540C565.417,2541.67 562.917,2545 561.25,2548.75L521.25,2648.75C517.5,2657.92 522.917,2668.33 532.5,2670.83L637.083,2697.5C640.833,2698.33 645,2697.92 648.75,2696.25L947.917,2543.75C965,2535 971.667,2514.17 962.917,2497.5L914.583,2402.92C905.833,2385.42 885,2378.75 868.333,2387.5Z" style="fill:none;fill-rule:nonzero;stroke:rgb(68,78,89);stroke-width:16.67px;"/>
            <circle id="XMLID_34_" cx="600.833" cy="2622.08" r="24.167" style="fill:rgb(68,78,89);"/>
            <path id="XMLID_79_" d="M724.57,2460.77L637.346,2505.27L716.883,2661.16L804.107,2616.66L724.57,2460.77Z" style="fill:rgb(190,204,213);stroke:rgb(68,78,89);stroke-width:16.67px;"/>
            <path id="XMLID_32_" d="M724.57,2460.77L637.346,2505.27L716.883,2661.16L804.107,2616.66L724.57,2460.77Z" style="fill:none;stroke:rgb(68,78,89);stroke-width:16.67px;"/>
            <path id="XMLID_31_" d="M811.983,2416.04L724.759,2460.54L804.296,2616.43L891.52,2571.93L811.983,2416.04Z" style="fill:none;stroke:rgb(68,78,89);stroke-width:16.67px;"/>
            <path id="XMLID_30_" d="M941.25,2546.67L891.25,2572.09L811.667,2416.25L861.667,2390.84C882.083,2380.42 907.083,2388.34 917.917,2409.17L959.583,2490.84C970,2511.25 961.667,2536.25 941.25,2546.67Z" style="fill:rgb(101,103,195);fill-rule:nonzero;"/>
            <path id="XMLID_78_" d="M941.25,2546.67L891.25,2572.09L811.667,2416.25L861.667,2390.84C882.083,2380.42 907.083,2388.34 917.917,2409.17L959.583,2490.84C970,2511.25 961.667,2536.25 941.25,2546.67Z" style="fill:none;fill-rule:nonzero;stroke:rgb(68,78,89);stroke-width:16.67px;"/>
        </g>
    </g>
    <g id="XMLID_90_">
        <path id="XMLID_102_" d="M1362.5,2734.17L1082.08,2734.17C1059.17,2734.17 1040.42,2715.42 1040.42,2692.5L1040.42,2130.42C1040.42,2107.5 1059.17,2088.75 1082.08,2088.75L1362.5,2088.75C1385.42,2088.75 1404.17,2107.5 1404.17,2130.42L1404.17,2692.5C1404.17,2715.84 1385.42,2734.17 1362.5,2734.17Z" style="fill:white;fill-rule:nonzero;"/>
        <path id="XMLID_83_" d="M1410,2282.5L1040.42,2282.5L1040.42,2129.58C1040.42,2107.08 1058.75,2088.75 1081.25,2088.75L1366.67,2088.75C1390.42,2088.75 1409.58,2108.33 1409.58,2131.67L1409.58,2282.5L1410,2282.5Z" style="fill:rgb(101,103,195);fill-rule:nonzero;"/>
        <path id="XMLID_10_" d="M1362.5,2734.17L1082.08,2734.17C1059.17,2734.17 1040.42,2715.42 1040.42,2692.5L1040.42,2130.42C1040.42,2107.5 1059.17,2088.75 1082.08,2088.75L1362.5,2088.75C1385.42,2088.75 1404.17,2107.5 1404.17,2130.42L1404.17,2692.5C1404.17,2715.84 1385.42,2734.17 1362.5,2734.17Z" style="fill:none;fill-rule:nonzero;stroke:rgb(68,78,89);stroke-width:16.67px;"/>
        <path id="XMLID_82_" d="M1362.92,2734.17L1083.34,2734.17C1059.59,2734.17 1040,2714.59 1040,2690.84L1040,2610.84L1404.17,2610.84L1404.17,2692.92C1404.17,2715.84 1385.42,2734.17 1362.92,2734.17Z" style="fill:rgb(187,191,194);fill-rule:nonzero;"/>
        <path id="XMLID_81_" d="M1363.75,2734.17L1083.33,2734.17C1059.58,2734.17 1040,2714.59 1040,2690.84L1040,2610.84L1404.17,2610.84L1404.17,2693.75C1404.17,2716.25 1385.83,2734.17 1363.75,2734.17Z" style="fill:none;fill-rule:nonzero;stroke:rgb(68,78,89);stroke-width:16.67px;"/>
        <circle id="XMLID_84_" cx="1225" cy="2670" r="20.833" style="fill:rgb(68,78,89);"/>
        <path id="XMLID_86_" d="M1122.5,2347.08L1327.92,2347.08" style="fill:none;fill-rule:nonzero;stroke:rgb(68,78,89);stroke-opacity:0.3;stroke-width:16.67px;"/>
        <path id="XMLID_87_" d="M1163.33,2411.67L1292.5,2411.67" style="fill:none;fill-rule:nonzero;stroke:rgb(68,78,89);stroke-opacity:0.3;stroke-width:16.67px;"/>
        <path id="XMLID_88_" d="M1122.5,2470.42L1327.92,2470.42" style="fill:none;fill-rule:nonzero;stroke:rgb(68,78,89);stroke-opacity:0.3;stroke-width:16.67px;"/>
        <circle id="XMLID_85_" cx="1225" cy="2200.42" r="46.667" style="fill:white;fill-opacity:0.62;"/>
        <path id="XMLID_89_" d="M1292.5,2535C1292.5,2547.92 1282.08,2558.33 1269.17,2558.33L1181.25,2558.33C1168.33,2558.33 1157.92,2547.92 1157.92,2535C1157.92,2522.08 1168.33,2511.67 1181.25,2511.67L1269.17,2511.67C1282.08,2511.25 1292.5,2521.67 1292.5,2535Z" style="fill:rgb(237,139,59);fill-rule:nonzero;"/>
    </g>
    <g id="XMLID_111_">
        <path id="XMLID_100_" d="M3534.17,2657.92L2524.59,2657.92L2524.59,2051.25C2524.59,2033.34 2539.17,2018.75 2557.09,2018.75L3502.09,2018.75C3519.59,2018.75 3533.76,2032.92 3533.76,2050.42L3533.76,2657.92L3534.17,2657.92Z" style="fill:rgb(187,191,194);fill-rule:nonzero;"/>
        <path id="XMLID_11_" d="M3536.67,2659.17L2527.5,2659.17L2527.5,2050.84C2527.5,2032.5 2542.5,2017.5 2560.83,2017.5L3503.33,2017.5C3521.67,2017.5 3536.67,2032.5 3536.67,2050.84L3536.67,2659.17L3536.67,2659.17Z" style="fill:none;fill-rule:nonzero;stroke:rgb(68,78,89);stroke-width:16.67px;"/>
        <rect id="XMLID_101_" x="2583.44" y="2071.36" width="897.916" height="534.167" style="fill:rgb(93,93,93);fill-opacity:0.71;"/>
        <path id="XMLID_183_" d="M2802.92,2503.75L2725.42,2503.75C2720.84,2503.75 2717.09,2500 2717.09,2495.42L2717.09,2230C2717.09,2225.42 2720.84,2221.67 2725.42,2221.67L2802.92,2221.67C2807.5,2221.67 2811.25,2225.42 2811.25,2230L2811.25,2495.83C2811.25,2500 2807.5,2503.75 2802.92,2503.75Z" style="fill:rgb(132,132,132);fill-opacity:0.32;fill-rule:nonzero;"/>
        <path id="XMLID_178_" d="M3362.5,2557.5L2915,2557.5C2905.83,2557.5 2898.33,2550 2898.33,2540.83L2898.33,2198.75C2898.33,2189.58 2905.83,2182.08 2915,2182.08L3362.5,2182.08C3371.67,2182.08 3379.17,2189.58 3379.17,2198.75L3379.17,2540.83C3379.17,2550 3372.08,2557.5 3362.5,2557.5Z" style="fill:rgb(132,132,132);fill-opacity:0.32;fill-rule:nonzero;"/>
        <rect id="XMLID_103_" x="2583.49" y="2073.42" width="897.083" height="529.583" style="fill:none;stroke:rgb(68,78,89);stroke-width:16.67px;"/>
        <path id="XMLID_110_" d="M3646.68,2659.17L2417.09,2659.17L2417.09,2698.34C2417.09,2716.67 2432.09,2731.67 2450.42,2731.67L3613.34,2731.67C3631.68,2731.67 3646.68,2716.67 3646.68,2698.34L3646.68,2659.17Z" style="fill:white;fill-rule:nonzero;"/>
        <path id="XMLID_206_" d="M2464.16,2734.17L3600,2734.17C3622.92,2734.17 3641.67,2716.67 3645.83,2692.92L2417.91,2692.92C2422.08,2716.67 2441.25,2734.17 2464.16,2734.17Z" style="fill:rgb(187,191,194);fill-opacity:0.8;fill-rule:nonzero;"/>
        <path id="XMLID_15_" d="M3646.68,2659.17L2417.09,2659.17L2417.09,2698.34C2417.09,2716.67 2432.09,2731.67 2450.42,2731.67L3613.34,2731.67C3631.68,2731.67 3646.68,2716.67 3646.68,2698.34L3646.68,2659.17Z" style="fill:none;fill-rule:nonzero;stroke:rgb(68,78,89);stroke-width:16.67px;"/>
        <rect id="XMLID_201_" x="2695" y="2200.42" width="93.75" height="93.75" style="fill:rgb(240,159,84);"/>
        <rect id="XMLID_138_" x="2696.67" y="2201.25" width="93.75" height="93.75" style="fill:none;stroke:rgb(68,78,89);stroke-width:16.67px;"/>
        <rect id="XMLID_180_" x="2696.67" y="2201.25" width="93.75" height="93.75" style="fill:none;stroke:rgb(68,78,89);stroke-width:16.67px;"/>
        <rect id="XMLID_156_" x="2695" y="2294.17" width="93.75" height="93.75" style="fill:rgb(141,145,219);"/>
        <rect id="XMLID_140_" x="2696.67" y="2295.42" width="93.75" height="93.75" style="fill:none;stroke:rgb(68,78,89);stroke-width:16.67px;"/>
        <rect id="XMLID_202_" x="2695" y="2387.92" width="93.75" height="93.75" style="fill:rgb(101,103,195);"/>
        <rect id="XMLID_143_" x="2696.67" y="2389.17" width="93.75" height="93.75" style="fill:none;stroke:rgb(68,78,89);stroke-width:16.67px;"/>
        <path id="XMLID_115_" d="M3335.42,2528.75L2887.5,2528.75C2878.34,2528.75 2870.84,2521.25 2870.84,2512.08L2870.84,2170C2870.84,2160.83 2878.34,2153.33 2887.5,2153.33L3335.42,2153.33C3344.59,2153.33 3352.09,2160.83 3352.09,2170L3352.09,2512.08C3352.09,2521.67 3344.59,2528.75 3335.42,2528.75Z" style="fill:white;fill-rule:nonzero;"/>
        <path id="XMLID_139_" d="M3335.42,2528.75L2887.5,2528.75C2878.34,2528.75 2870.84,2521.25 2870.84,2512.08L2870.84,2170C2870.84,2160.83 2878.34,2153.33 2887.5,2153.33L3335.42,2153.33C3344.59,2153.33 3352.09,2160.83 3352.09,2170L3352.09,2512.08C3352.09,2521.67 3344.59,2528.75 3335.42,2528.75Z" style="fill:none;fill-rule:nonzero;stroke:rgb(68,78,89);stroke-width:16.67px;"/>
        <g id="XMLID_147_" opacity="0.3">
            <g id="XMLID_205_">
                <path id="XMLID_419_" d="M3211.25,2430L3211.25,2436.25L3205,2436.25" style="fill:none;fill-rule:nonzero;stroke:rgb(68,78,89);stroke-width:8.33px;stroke-linecap:butt;stroke-miterlimit:4;"/>
                <path id="XMLID_418_" d="M3197.08,2436.25L3022.5,2436.25" style="fill:none;fill-rule:nonzero;stroke:rgb(68,78,89);stroke-width:8.33px;stroke-linecap:butt;stroke-miterlimit:4;stroke-dasharray:11.91,7.94;"/>
                <path id="XMLID_417_" d="M3018.33,2436.25L3012.08,2436.25L3012.08,2430" style="fill:none;fill-rule:nonzero;stroke:rgb(68,78,89);stroke-width:8.33px;stroke-linecap:butt;stroke-miterlimit:4;"/>
                <path id="XMLID_416_" d="M3012.08,2421.25L3012.08,2258.75" style="fill:none;fill-rule:nonzero;stroke:rgb(68,78,89);stroke-width:8.33px;stroke-linecap:butt;stroke-miterlimit:4;stroke-dasharray:12.52,8.35;"/>
                <path id="XMLID_415_" d="M3012.08,2254.58L3012.08,2248.33L3018.33,2248.33" style="fill:none;fill-rule:nonzero;stroke:rgb(68,78,89);stroke-width:8.33px;stroke-linecap:butt;stroke-miterlimit:4;"/>
                <path id="XMLID_214_" d="M3026.25,2248.33L3200.83,2248.33" style="fill:none;fill-rule:nonzero;stroke:rgb(68,78,89);stroke-width:8.33px;stroke-linecap:butt;stroke-miterlimit:4;stroke-dasharray:11.91,7.94;"/>
                <path id="XMLID_213_" d="M3205,2248.33L3211.25,2248.33L3211.25,2254.58" style="fill:none;fill-rule:nonzero;stroke:rgb(68,78,89);stroke-width:8.33px;stroke-linecap:butt;stroke-miterlimit:4;"/>
                <path id="XMLID_211_" d="M3211.25,2262.92L3211.25,2425.84" style="fill:none;fill-rule:nonzero;stroke:rgb(68,78,89);stroke-width:8.33px;stroke-linecap:butt;stroke-miterlimit:4;stroke-dasharray:12.52,8.35;"/>
            </g>
        </g>
        <g id="XMLID_155_">
            <rect id="XMLID_154_" x="2998.33" y="2233.75" width="29.583" height="29.583" style="fill:white;"/>
            <rect id="XMLID_153_" x="2997.08" y="2232.5" width="29.167" height="29.167" style="fill:none;stroke:rgb(68,78,89);stroke-width:4.17px;stroke-linecap:butt;"/>
        </g>
        <g id="XMLID_157_">
            <rect id="XMLID_159_" x="2998.33" y="2421.25" width="29.583" height="29.583" style="fill:white;"/>
            <rect id="XMLID_158_" x="2997.08" y="2420.42" width="29.167" height="29.167" style="fill:none;stroke:rgb(68,78,89);stroke-width:4.17px;stroke-linecap:butt;"/>
        </g>
        <g id="XMLID_162_">
            <rect id="XMLID_166_" x="3196.67" y="2233.75" width="29.583" height="29.583" style="fill:white;"/>
            <rect id="XMLID_164_" x="3196.67" y="2232.5" width="29.167" height="29.167" style="fill:none;stroke:rgb(68,78,89);stroke-width:4.17px;stroke-linecap:butt;"/>
        </g>
        <g id="XMLID_196_">
            <rect id="XMLID_198_" x="3196.67" y="2421.25" width="29.583" height="29.583" style="fill:white;"/>
            <rect id="XMLID_197_" x="3196.67" y="2420.42" width="29.167" height="29.167" style="fill:none;stroke:rgb(68,78,89);stroke-width:4.17px;stroke-linecap:butt;"/>
        </g>
        <g id="XMLID_229_">
            <g id="XMLID_225_">
                <path id="XMLID_230_" d="M2743.75,2343.75L2773.33,2407.08L2802.08,2422.08L2822.08,2402.08L2807.5,2372.92L2743.75,2343.75Z" style="fill:white;fill-rule:nonzero;"/>
                <path id="XMLID_227_" d="M2743.75,2343.75L2773.33,2407.08L2802.08,2422.08L2822.08,2402.08L2807.5,2372.92L2743.75,2343.75Z" style="fill:none;fill-rule:nonzero;stroke:rgb(68,78,89);stroke-width:4.17px;stroke-linecap:butt;"/>
                <circle id="XMLID_224_" cx="2781.25" cy="2379.58" r="7.917" style="fill:rgb(68,78,89);"/>
                <path id="XMLID_226_" d="M2743.75,2343.75L2776.67,2376.67" style="fill:none;fill-rule:nonzero;stroke:rgb(68,78,89);stroke-width:4.17px;"/>
            </g>
            <path id="XMLID_231_" d="M2822.21,2401.75L2802.18,2421.78L2816.61,2436.22L2836.65,2416.19L2822.21,2401.75Z" style="fill:white;"/>
            <path id="XMLID_228_" d="M2822.21,2401.75L2802.18,2421.78L2816.61,2436.22L2836.65,2416.19L2822.21,2401.75Z" style="fill:none;stroke:rgb(68,78,89);stroke-width:4.17px;stroke-linecap:butt;"/>
        </g>
    </g>
    <g transform="matrix(3.72341,0,0,3.70019,538.121,3395.62)">
        <text x="0px" y="0px" style="font-family:'Nunito-Black', 'Nunito';font-weight:900;font-size:159.759px;fill:rgb(253,200,88);">Dashboar<tspan x="735.85px " y="0px ">d</tspan></text>
    </g>
</svg>
