<?xml version="1.0" encoding="UTF-8" standalone="no"?><!DOCTYPE svg PUBLIC "-//W3C//DTD SVG 1.1//EN" "http://www.w3.org/Graphics/SVG/1.1/DTD/svg11.dtd"><svg width="100%" height="100%" viewBox="0 0 3334 2500" version="1.1" xmlns="http://www.w3.org/2000/svg" xmlns:xlink="http://www.w3.org/1999/xlink" xml:space="preserve" xmlns:serif="http://www.serif.com/" style="fill-rule:evenodd;clip-rule:evenodd;stroke-linecap:round;stroke-linejoin:round;stroke-miterlimit:10;"><path id="XMLID_1313_" d="M3132.84,1704.89l-2932.71,0c-18.012,0 -32.422,-14.409 -32.422,-32.421c0,-18.012 14.41,-32.422 32.422,-32.422l2933.07,0c18.012,0 32.422,14.41 32.422,32.422c-0.361,18.012 -14.77,32.421 -32.782,32.421Z" style="fill:#444e59;fill-rule:nonzero;"/><rect id="XMLID_6_" x="1323" y="1638.25" width="507.218" height="30.26" style="fill:#444e59;"/><g id="XMLID_104_"><path id="XMLID_76_" d="M2182.53,1440.48l-1196.72,0c-23.776,0 -43.229,-19.453 -43.229,-43.229l0,-801.534c0,-23.776 19.453,-43.229 43.229,-43.229l1196.72,0c23.776,0 43.229,19.453 43.229,43.229l-0,801.174c-0,24.136 -19.093,43.589 -43.229,43.589Z" style="fill:#bbbfc2;fill-rule:nonzero;"/><rect id="XMLID_80_" x="1023.6" y="633.825" width="1126.11" height="654.556" style="fill:#28a8e0;"/><path id="XMLID_18_" d="M2185.41,1440.48l-187.685,0l0,-341.507c0,-27.379 21.975,-49.354 49.353,-49.354l138.332,0l0,390.861Z" style="fill:#848484;fill-opacity:0.4;fill-rule:nonzero;"/><path id="XMLID_107_" d="M1033.73,1110.5l-91.141,-0l0,269.099c0,33.502 28.819,60.881 62.682,60.881l104.83,-0l-0,-252.169c-0.361,-42.148 -34.583,-77.811 -76.371,-77.811Z" style="fill:#848484;fill-opacity:0.4;fill-rule:nonzero;"/><path id="XMLID_5_" d="M2186.13,1440.48l-1198.88,0c-23.775,0 -43.228,-19.453 -43.228,-43.229l-0,-801.534c-0,-23.776 19.453,-43.229 43.228,-43.229l1198.88,0c23.776,0 43.229,19.453 43.229,43.229l-0,801.174c-0,24.136 -19.453,43.589 -43.229,43.589Z" style="fill:none;fill-rule:nonzero;stroke:#444e59;stroke-width:14.41px;"/><rect id="XMLID_7_" x="1025.38" y="633.817" width="1122.87" height="654.556" style="fill:none;stroke:#444e59;stroke-width:14.41px;"/></g><path id="XMLID_179_" d="M1930,1256.76l-618.892,-0c-14.049,-0 -25.217,-11.528 -25.217,-25.217l0,-441.654c0,-14.049 11.528,-25.217 25.217,-25.217l618.892,-0c14.05,-0 25.217,11.527 25.217,25.217l0,441.293c0,14.05 -11.167,25.578 -25.217,25.578Z" style="fill:#848484;fill-opacity:0.32;fill-rule:nonzero;"/><path id="XMLID_134_" d="M1901.18,1232.25l-618.892,-0c-14.049,-0 -25.217,-11.528 -25.217,-25.216l-0,-441.295c-0,-14.049 11.527,-25.217 25.217,-25.217l618.892,0c14.049,0 25.217,11.529 25.217,25.217l-0,441.295c0.36,14.049 -11.168,25.216 -25.217,25.216Z" style="fill:#afb1b2;fill-rule:nonzero;"/><path id="XMLID_137_" d="M1901.18,1232.25l-618.892,-0c-14.049,-0 -25.217,-11.528 -25.217,-25.216l-0,-441.295c-0,-14.049 11.527,-25.217 25.217,-25.217l618.892,0c14.049,0 25.217,11.529 25.217,25.217l-0,441.295c0.36,14.049 -11.168,25.216 -25.217,25.216Z" style="fill:none;fill-rule:nonzero;stroke:#444e59;stroke-width:14.41px;"/><path id="XMLID_96_" d="M1737.63,1638.25l-301.88,-0l37.464,-197.772l226.951,0l37.465,197.772Z" style="fill:#aeaeaf;fill-rule:nonzero;"/><path id="XMLID_99_" d="M1710.26,1496.31l-10.087,-55.837l-226.952,-0l-10.087,55.837l247.126,-0Z" style="fill:#848484;fill-opacity:0.32;fill-rule:nonzero;"/><path id="XMLID_3_" d="M1737.63,1638.25l-301.88,-0l37.464,-197.772l226.951,0l37.465,197.772Z" style="fill:none;fill-rule:nonzero;stroke:#444e59;stroke-width:14.41px;"/><rect id="XMLID_8_" x="1323" y="1638.25" width="507.218" height="30.26" style="fill:none;stroke:#444e59;stroke-width:14.41px;"/><circle id="XMLID_9_" cx="1584.89" cy="1349.7" r="22.335" style="fill:#444e59;"/><path id="XMLID_133_" d="M1850.39,1186.86l-618.892,-0c-14.049,-0 -25.217,-11.528 -25.217,-25.217l0,-441.654c0,-14.05 11.527,-25.217 25.217,-25.217l618.892,0c14.049,0 25.217,11.528 25.217,25.217l0,441.294c0.36,14.049 -11.168,25.577 -25.217,25.577Z" style="fill:#fff;fill-rule:nonzero;"/><path id="XMLID_25_" d="M1850.39,1186.86l-618.892,-0c-14.049,-0 -25.217,-11.528 -25.217,-25.217l0,-441.654c0,-14.05 11.527,-25.217 25.217,-25.217l618.892,0c14.049,0 25.217,11.528 25.217,25.217l0,441.294c0.36,14.049 -11.168,25.577 -25.217,25.577Z" style="fill:none;fill-rule:nonzero;stroke:#444e59;stroke-width:14.41px;"/><path id="XMLID_105_" d="M1875.96,770.785l-669.686,0l0,-49.713c0,-14.409 11.888,-26.657 26.658,-26.657l618.172,-0c13.689,-0 24.856,11.168 24.856,24.856l0,51.514Z" style="fill:#bbbfc2;fill-rule:nonzero;"/><path id="XMLID_26_" d="M1875.96,770.785l-669.686,0l0,-49.713c0,-14.409 11.888,-26.657 26.658,-26.657l618.172,-0c13.689,-0 24.856,11.168 24.856,24.856l0,51.514Z" style="fill:none;fill-rule:nonzero;stroke:#444e59;stroke-width:14.41px;"/><g id="XMLID_108_"><circle id="XMLID_106_" cx="1270.76" cy="732.96" r="11.888" style="fill:#444e59;"/><circle id="XMLID_109_" cx="1310.03" cy="732.96" r="11.888" style="fill:#444e59;"/><circle id="XMLID_120_" cx="1348.93" cy="732.96" r="11.888" style="fill:#444e59;"/></g><path id="XMLID_122_" d="M1812.93,902.633l-548.646,0c-3.962,0 -7.205,-3.242 -7.205,-7.204l0,-76.731c0,-3.963 3.243,-7.205 7.205,-7.205l548.646,0c3.962,0 7.204,3.242 7.204,7.205l0,76.731c0,3.962 -3.242,7.204 -7.204,7.204Z" style="fill:#6567c3;fill-rule:nonzero;"/><g id="XMLID_123_"><path id="XMLID_124_" d="M1422.06,998.817l-158.145,0c-3.963,0 -7.205,-3.242 -7.205,-7.204l-0,-41.428c-0,-3.962 3.242,-7.205 7.205,-7.205l158.145,0c3.963,0 7.205,3.243 7.205,7.205l0,41.428c0,3.962 -2.882,7.204 -7.205,7.204Z" style="fill:#444e59;fill-opacity:0.2;fill-rule:nonzero;"/><path id="XMLID_125_" d="M1282.29,1039.53l126.803,0" style="fill:none;fill-rule:nonzero;stroke:#444e59;stroke-opacity:0.2;stroke-width:14.41px;"/><path id="XMLID_128_" d="M1282.29,1080.23l126.803,0" style="fill:none;fill-rule:nonzero;stroke:#444e59;stroke-opacity:0.2;stroke-width:14.41px;"/></g><g id="XMLID_127_"><path id="XMLID_131_" d="M1620.2,998.817l-158.146,0c-3.962,0 -7.204,-3.242 -7.204,-7.204l-0,-41.428c-0,-3.962 3.242,-7.205 7.204,-7.205l158.146,0c3.962,0 7.204,3.243 7.204,7.205l0,41.428c0,3.962 -3.242,7.204 -7.204,7.204Z" style="fill:#444e59;fill-opacity:0.2;fill-rule:nonzero;"/><path id="XMLID_130_" d="M1480.07,1039.53l121.761,0" style="fill:none;fill-rule:nonzero;stroke:#444e59;stroke-opacity:0.2;stroke-width:14.41px;"/><path id="XMLID_129_" d="M1480.07,1080.23l121.761,0" style="fill:none;fill-rule:nonzero;stroke:#444e59;stroke-opacity:0.2;stroke-width:14.41px;"/></g><g id="XMLID_132_" opacity="0.2"><path id="XMLID_135_" d="M1817.97,1085.28l-158.145,-0c-3.963,-0 -7.205,-3.242 -7.205,-7.205l0,-127.525c0,-3.962 3.242,-7.204 7.205,-7.204l158.145,-0c3.963,-0 7.205,3.242 7.205,7.204l-0,127.525c-0,3.963 -3.242,7.205 -7.205,7.205Z" style="fill:#444e59;fill-rule:nonzero;"/></g><g id="XMLID_126_" opacity="0.09"><path id="XMLID_136_" d="M1812.93,1125.99l-150.581,-0c-5.764,-0 -10.087,-4.684 -10.087,-10.087c0,-5.404 4.684,-10.087 10.087,-10.087l150.581,-0c5.763,-0 10.086,4.683 10.086,10.087c0,5.403 -4.682,10.087 -10.086,10.087Z" style="fill:#444e59;fill-rule:nonzero;"/></g><g id="XMLID_12_"><path id="XMLID_71_" d="M681.05,1514.32l-290.353,-0c-3.603,-0 -6.845,1.08 -9.367,3.602l-70.246,61.241c-6.485,5.764 -6.485,15.851 -0,21.255l70.246,62.321c2.522,2.161 5.764,4.323 9.367,4.323l290.353,-0c16.572,-0 30.26,-15.13 30.26,-31.702l0,-91.861c-0.36,-15.85 -13.688,-29.179 -30.26,-29.179Zm-298.278,93.302c-9.727,0 -18.012,-7.926 -18.012,-18.012c-0,-10.087 7.925,-18.012 18.012,-18.012c10.087,-0 18.011,7.925 18.011,18.012c0,10.086 -7.924,18.012 -18.011,18.012Z" style="fill:#fff;fill-rule:nonzero;"/><rect id="XMLID_70_" x="457.341" y="1514.32" width="84.657" height="153.102" style="fill:#f09f54;"/><rect id="XMLID_69_" x="541.998" y="1514.32" width="84.657" height="153.102" style="fill:#ed8b3b;"/><path id="XMLID_58_" d="M673.485,1667.43l-46.831,0l-0,-153.102l48.272,-0c19.813,-0 36.384,16.211 36.384,36.385l0,79.252c-0.36,20.534 -17.291,37.465 -37.825,37.465Z" style="fill:#ff6c37;fill-rule:nonzero;"/><path id="XMLID_117_" d="M688.976,1521.89c-1.441,-0.36 -2.883,-0.36 -4.323,-0.36l-290.354,0c-3.602,0 -6.844,1.081 -9.366,3.602l-70.247,61.241c-6.484,5.763 -6.484,15.85 0,21.254l43.949,38.545l47.552,11.888c2.161,0.721 4.683,0.721 7.205,0.721c4.683,0 9.006,-1.08 13.329,-3.242l258.652,-131.848c1.081,-0.36 2.522,-1.08 3.603,-1.801Zm-302.602,92.942c-9.726,-0 -18.012,-7.925 -18.012,-18.012c-0,-10.087 7.925,-18.012 18.012,-18.012c10.086,0 18.012,7.925 18.012,18.012c-0,10.087 -7.926,18.012 -18.012,18.012Z" style="fill:#848484;fill-opacity:0.4;fill-rule:nonzero;"/><path id="XMLID_29_" d="M681.05,1514.32l-290.353,-0c-3.603,-0 -6.845,1.08 -9.367,3.602l-70.246,61.241c-6.485,5.764 -6.485,15.851 -0,21.255l70.246,62.321c2.522,2.161 5.764,4.323 9.367,4.323l290.353,-0c16.572,-0 30.26,-15.13 30.26,-31.702l0,-91.861c-0.36,-15.85 -13.688,-29.179 -30.26,-29.179Zm-298.278,93.302c-9.727,0 -18.012,-7.926 -18.012,-18.012c-0,-10.087 7.925,-18.012 18.012,-18.012c10.087,-0 18.011,7.925 18.011,18.012c0,10.086 -7.924,18.012 -18.011,18.012Z" style="fill:none;fill-rule:nonzero;stroke:#444e59;stroke-width:14.41px;"/><rect id="XMLID_17_" x="457.341" y="1514.32" width="84.657" height="153.102" style="fill:none;stroke:#444e59;stroke-width:14.41px;"/><rect id="XMLID_21_" x="541.998" y="1514.32" width="84.657" height="153.102" style="fill:none;stroke:#444e59;stroke-width:14.41px;"/><path id="XMLID_22_" d="M673.485,1667.43l-46.831,0l-0,-153.102l48.272,-0c19.813,-0 36.384,16.211 36.384,36.385l0,79.252c-0.36,20.534 -17.291,37.465 -37.825,37.465Z" style="fill:none;fill-rule:nonzero;stroke:#444e59;stroke-width:14.41px;"/></g><g id="XMLID_20_"><path id="XMLID_74_" d="M606.12,1368.79l-258.652,131.847c-3.242,1.442 -5.403,4.323 -6.845,7.565l-34.583,86.458c-3.242,7.926 1.442,16.931 9.727,19.092l90.42,23.056c3.242,0.72 6.845,0.361 10.087,-1.081l258.652,-131.847c14.77,-7.565 20.534,-25.577 12.969,-39.987l-41.788,-81.774c-7.565,-15.13 -25.577,-20.894 -39.987,-13.329Z" style="fill:#fff;fill-rule:nonzero;"/><path id="XMLID_77_" d="M557.401,1393.46l-75.412,38.476l68.766,134.779l75.412,-38.477l-68.766,-134.778Z" style="fill:#8d91db;"/><path id="XMLID_33_" d="M606.12,1368.79l-258.652,131.847c-3.242,1.442 -5.403,4.323 -6.845,7.565l-34.583,86.458c-3.242,7.926 1.442,16.931 9.727,19.092l90.42,23.056c3.242,0.72 6.845,0.361 10.087,-1.081l258.652,-131.847c14.77,-7.565 20.534,-25.577 12.969,-39.987l-41.788,-81.774c-7.565,-15.13 -25.577,-20.894 -39.987,-13.329Z" style="fill:none;fill-rule:nonzero;stroke:#444e59;stroke-width:14.41px;"/><circle id="XMLID_34_" cx="374.846" cy="1571.6" r="20.894" style="fill:#444e59;"/><path id="XMLID_79_" d="M481.826,1432.13l-75.412,38.477l68.766,134.779l75.412,-38.477l-68.766,-134.779Z" style="fill:#beccd5;stroke:#444e59;stroke-width:14.41px;"/><path id="XMLID_32_" d="M481.826,1432.13l-75.412,38.477l68.766,134.779l75.412,-38.477l-68.766,-134.779Z" style="fill:none;stroke:#444e59;stroke-width:14.41px;"/><path id="XMLID_31_" d="M557.401,1393.46l-75.412,38.476l68.766,134.779l75.412,-38.477l-68.766,-134.778Z" style="fill:none;stroke:#444e59;stroke-width:14.41px;"/><path id="XMLID_30_" d="M669.162,1506.4l-43.228,21.974l-68.806,-134.729l43.229,-21.975c17.651,-9.006 39.265,-2.162 48.632,15.851l36.024,70.606c9.006,17.652 1.801,39.267 -15.851,48.273Z" style="fill:#6567c3;fill-rule:nonzero;"/><path id="XMLID_78_" d="M669.162,1506.4l-43.228,21.974l-68.806,-134.729l43.229,-21.975c17.651,-9.006 39.265,-2.162 48.632,15.851l36.024,70.606c9.006,17.652 1.801,39.267 -15.851,48.273Z" style="fill:none;fill-rule:nonzero;stroke:#444e59;stroke-width:14.41px;"/></g><path id="XMLID_102_" d="M1033.37,1668.51l-242.442,0c-19.813,0 -36.023,-16.211 -36.023,-36.024l-0,-485.964c-0,-19.813 16.21,-36.024 36.023,-36.024l242.442,0c19.813,0 36.024,16.211 36.024,36.024l0,485.964c0,20.173 -16.211,36.024 -36.024,36.024Z" style="fill:#fff;fill-rule:nonzero;"/><path id="XMLID_83_" d="M1074.43,1278.01l-319.532,0l-0,-132.208c-0,-19.453 15.85,-35.303 35.303,-35.303l246.765,-0c20.533,-0 37.104,16.931 37.104,37.105l-0,130.406l0.36,0Z" style="fill:#6567c3;fill-rule:nonzero;"/><path id="XMLID_10_" d="M1033.37,1668.51l-242.442,0c-19.813,0 -36.023,-16.211 -36.023,-36.024l-0,-485.964c-0,-19.813 16.21,-36.024 36.023,-36.024l242.442,0c19.813,0 36.024,16.211 36.024,36.024l0,485.964c0,20.173 -16.211,36.024 -36.024,36.024Z" style="fill:none;fill-rule:nonzero;stroke:#444e59;stroke-width:14.41px;"/><path id="XMLID_82_" d="M1033.73,1668.51l-241.722,0c-20.533,0 -37.464,-16.932 -37.464,-37.465l-0,-69.167l314.85,0l-0,70.968c-0,19.813 -16.211,35.664 -35.664,35.664Z" style="fill:#bbbfc2;fill-rule:nonzero;"/><path id="XMLID_81_" d="M1034.45,1668.51l-242.442,0c-20.534,0 -37.465,-16.932 -37.465,-37.465l0,-69.167l314.85,0l0,71.689c0,19.452 -15.851,34.943 -34.943,34.943Z" style="fill:none;fill-rule:nonzero;stroke:#444e59;stroke-width:14.41px;"/><circle id="XMLID_84_" cx="914.486" cy="1613.03" r="18.012" style="fill:#444e59;"/><path id="XMLID_86_" d="M825.867,1333.84l177.598,0" style="fill:none;fill-rule:nonzero;stroke:#444e59;stroke-opacity:0.3;stroke-width:14.41px;"/><path id="XMLID_87_" d="M861.167,1389.68l111.675,0" style="fill:none;fill-rule:nonzero;stroke:#444e59;stroke-opacity:0.3;stroke-width:14.41px;"/><path id="XMLID_88_" d="M825.867,1440.48l177.598,0" style="fill:none;fill-rule:nonzero;stroke:#444e59;stroke-opacity:0.3;stroke-width:14.41px;"/><circle id="XMLID_85_" cx="914.486" cy="1207.04" r="40.347" style="fill:#fff;fill-opacity:0.62;"/><path id="XMLID_89_" d="M972.845,1496.31c-0,11.167 -9.007,20.173 -20.174,20.173l-76.01,-0c-11.168,-0 -20.174,-9.006 -20.174,-20.173c0,-11.168 9.006,-20.174 20.174,-20.174l76.01,0c11.167,-0.36 20.174,8.646 20.174,20.174Z" style="fill:#ed8b3b;fill-rule:nonzero;"/><path id="XMLID_100_" d="M2910.94,1602.59l-872.862,0l-0,-524.509c-0,-15.491 12.609,-28.099 28.099,-28.099l817.024,-0c15.13,-0 27.378,12.248 27.378,27.378l0,525.23l0.361,0Z" style="fill:#bbbfc2;fill-rule:nonzero;"/><path id="XMLID_11_" d="M2913.1,1603.67l-872.504,-0l-0,-525.951c-0,-15.85 12.968,-28.819 28.819,-28.819l814.862,0c15.851,0 28.82,12.969 28.82,28.819l0,525.951l0.003,-0Z" style="fill:none;fill-rule:nonzero;stroke:#444e59;stroke-width:14.41px;"/><rect id="XMLID_101_" x="2088.96" y="1095.46" width="776.316" height="461.828" style="fill:#5d5d5d;fill-opacity:0.71;"/><path id="XMLID_183_" d="M2278.72,1469.29l-67.004,-0c-3.964,-0 -7.206,-3.243 -7.206,-7.205l0,-229.473c0,-3.962 3.242,-7.205 7.206,-7.205l67.004,0c3.963,0 7.205,3.243 7.205,7.205l-0,229.833c-0,3.602 -3.242,6.845 -7.205,6.845Z" style="fill:#848484;fill-opacity:0.32;fill-rule:nonzero;"/><path id="XMLID_178_" d="M2762.52,1515.76l-386.898,0c-7.926,0 -14.41,-6.484 -14.41,-14.409l-0,-295.757c-0,-7.926 6.484,-14.41 14.41,-14.41l386.898,0c7.925,0 14.409,6.484 14.409,14.41l0,295.757c0,7.925 -6.124,14.409 -14.409,14.409Z" style="fill:#848484;fill-opacity:0.32;fill-rule:nonzero;"/><rect id="XMLID_103_" x="2089" y="1097.24" width="775.596" height="457.865" style="fill:none;stroke:#444e59;stroke-width:14.41px;"/><path id="XMLID_110_" d="M3008.21,1603.67l-1063.07,-0l-0,33.862c-0,15.851 12.969,28.82 28.82,28.82l1005.43,-0c15.851,-0 28.82,-12.969 28.82,-28.82l-0,-33.862Z" style="fill:#fff;fill-rule:nonzero;"/><path id="XMLID_206_" d="M1985.84,1668.51l982.017,0c19.814,0 36.025,-15.13 39.626,-35.664l-1061.63,0c3.602,20.534 20.174,35.664 39.987,35.664Z" style="fill:#bbbfc2;fill-opacity:0.8;fill-rule:nonzero;"/><path id="XMLID_15_" d="M3008.21,1603.67l-1063.07,-0l-0,33.862c-0,15.851 12.969,28.82 28.82,28.82l1005.43,-0c15.851,-0 28.82,-12.969 28.82,-28.82l-0,-33.862Z" style="fill:none;fill-rule:nonzero;stroke:#444e59;stroke-width:14.41px;"/><rect id="XMLID_201_" x="2185.41" y="1207.04" width="81.054" height="81.054" style="fill:#f09f54;"/><rect id="XMLID_138_" x="2186.86" y="1207.76" width="81.054" height="81.054" style="fill:none;stroke:#444e59;stroke-width:14.41px;"/><rect id="XMLID_180_" x="2186.86" y="1207.76" width="81.054" height="81.054" style="fill:none;stroke:#444e59;stroke-width:14.41px;"/><rect id="XMLID_156_" x="2185.41" y="1288.1" width="81.054" height="81.054" style="fill:#8d91db;"/><rect id="XMLID_140_" x="2186.86" y="1289.18" width="81.054" height="81.054" style="fill:none;stroke:#444e59;stroke-width:14.41px;"/><rect id="XMLID_202_" x="2185.41" y="1369.15" width="81.054" height="81.054" style="fill:#6567c3;"/><rect id="XMLID_143_" x="2186.86" y="1370.23" width="81.054" height="81.054" style="fill:none;stroke:#444e59;stroke-width:14.41px;"/><path id="XMLID_115_" d="M2739.1,1490.91l-387.258,-0c-7.926,-0 -14.41,-6.484 -14.41,-14.41l-0,-295.757c-0,-7.925 6.484,-14.41 14.41,-14.41l387.258,0c7.925,0 14.409,6.485 14.409,14.41l-0,295.757c-0,8.286 -6.484,14.41 -14.409,14.41Z" style="fill:#fff;fill-rule:nonzero;"/><path id="XMLID_139_" d="M2739.1,1490.91l-387.258,-0c-7.926,-0 -14.41,-6.484 -14.41,-14.41l-0,-295.757c-0,-7.925 6.484,-14.41 14.41,-14.41l387.258,0c7.925,0 14.409,6.485 14.409,14.41l-0,295.757c-0,8.286 -6.484,14.41 -14.409,14.41Z" style="fill:none;fill-rule:nonzero;stroke:#444e59;stroke-width:14.41px;"/><g id="XMLID_147_" opacity="0.3"><g id="XMLID_205_"><path id="XMLID_419_" d="M2631.75,1405.53l0,5.404l-5.403,-0" style="fill:none;fill-rule:nonzero;stroke:#444e59;stroke-width:7.2px;stroke-linecap:butt;stroke-miterlimit:4;"/><path id="XMLID_418_" d="M2619.5,1410.93l-150.94,-0" style="fill:none;fill-rule:nonzero;stroke:#444e59;stroke-width:7.2px;stroke-linecap:butt;stroke-miterlimit:4;stroke-dasharray:10.3,6.86;"/><path id="XMLID_417_" d="M2464.95,1410.93l-5.403,-0l-0,-5.404" style="fill:none;fill-rule:nonzero;stroke:#444e59;stroke-width:7.2px;stroke-linecap:butt;stroke-miterlimit:4;"/><path id="XMLID_416_" d="M2459.55,1397.97l-0,-140.494" style="fill:none;fill-rule:nonzero;stroke:#444e59;stroke-width:7.2px;stroke-linecap:butt;stroke-miterlimit:4;stroke-dasharray:10.82,7.22;"/><path id="XMLID_415_" d="M2459.55,1253.87l-0,-5.403l5.403,-0" style="fill:none;fill-rule:nonzero;stroke:#444e59;stroke-width:7.2px;stroke-linecap:butt;stroke-miterlimit:4;"/><path id="XMLID_214_" d="M2471.8,1248.46l150.94,-0" style="fill:none;fill-rule:nonzero;stroke:#444e59;stroke-width:7.2px;stroke-linecap:butt;stroke-miterlimit:4;stroke-dasharray:10.3,6.86;"/><path id="XMLID_213_" d="M2626.35,1248.46l5.403,-0l0,5.403" style="fill:none;fill-rule:nonzero;stroke:#444e59;stroke-width:7.2px;stroke-linecap:butt;stroke-miterlimit:4;"/><path id="XMLID_211_" d="M2631.75,1261.08l0,140.853" style="fill:none;fill-rule:nonzero;stroke:#444e59;stroke-width:7.2px;stroke-linecap:butt;stroke-miterlimit:4;stroke-dasharray:10.82,7.22;"/></g></g><g id="XMLID_155_"><rect id="XMLID_154_" x="2447.66" y="1235.86" width="25.577" height="25.577" style="fill:#fff;"/><rect id="XMLID_153_" x="2446.58" y="1234.78" width="25.217" height="25.217" style="fill:none;stroke:#444e59;stroke-width:3.61px;stroke-linecap:butt;"/></g><g id="XMLID_157_"><rect id="XMLID_159_" x="2447.66" y="1397.97" width="25.577" height="25.577" style="fill:#fff;"/><rect id="XMLID_158_" x="2446.58" y="1397.25" width="25.217" height="25.217" style="fill:none;stroke:#444e59;stroke-width:3.61px;stroke-linecap:butt;"/></g><g id="XMLID_162_"><rect id="XMLID_166_" x="2619.14" y="1235.86" width="25.577" height="25.577" style="fill:#fff;"/><rect id="XMLID_164_" x="2619.14" y="1234.78" width="25.217" height="25.217" style="fill:none;stroke:#444e59;stroke-width:3.61px;stroke-linecap:butt;"/></g><g id="XMLID_196_"><rect id="XMLID_198_" x="2619.14" y="1397.97" width="25.577" height="25.577" style="fill:#fff;"/><rect id="XMLID_197_" x="2619.14" y="1397.25" width="25.217" height="25.217" style="fill:none;stroke:#444e59;stroke-width:3.61px;stroke-linecap:butt;"/></g><g id="XMLID_229_"><g id="XMLID_225_"><path id="XMLID_230_" d="M2227.56,1330.96l25.577,54.757l24.857,12.968l17.291,-17.291l-12.608,-25.217l-55.117,-25.217Z" style="fill:#fff;fill-rule:nonzero;"/><path id="XMLID_227_" d="M2227.56,1330.96l25.577,54.757l24.857,12.968l17.291,-17.291l-12.608,-25.217l-55.117,-25.217Z" style="fill:none;fill-rule:nonzero;stroke:#444e59;stroke-width:3.61px;stroke-linecap:butt;"/><circle id="XMLID_224_" cx="2259.98" cy="1361.94" r="6.845" style="fill:#444e59;"/><path id="XMLID_226_" d="M2227.56,1330.96l28.459,28.46" style="fill:none;fill-rule:nonzero;stroke:#444e59;stroke-width:3.61px;"/></g><path id="XMLID_231_" d="M2295.39,1381.11l-17.322,17.322l12.482,12.481l17.322,-17.321l-12.482,-12.482Z" style="fill:#fff;"/><path id="XMLID_228_" d="M2295.39,1381.11l-17.322,17.322l12.482,12.481l17.322,-17.321l-12.482,-12.482Z" style="fill:none;stroke:#444e59;stroke-width:3.61px;stroke-linecap:butt;"/></g><g><text x="349.39px" y="2226.76px" style="font-family:'Nunito-Black', 'Nunito';font-weight:900;font-size:511.051px;fill:#fdc858;">Dashboar<tspan x="2703.29px " y="2226.76px ">d</tspan></text></g></svg>