<?xml version="1.0" encoding="UTF-8" standalone="no"?><!DOCTYPE svg PUBLIC "-//W3C//DTD SVG 1.1//EN" "http://www.w3.org/Graphics/SVG/1.1/DTD/svg11.dtd"><svg width="100%" height="100%" viewBox="0 0 4167 4167" version="1.1" xmlns="http://www.w3.org/2000/svg" xmlns:xlink="http://www.w3.org/1999/xlink" xml:space="preserve" xmlns:serif="http://www.serif.com/" style="fill-rule:evenodd;clip-rule:evenodd;stroke-linecap:round;stroke-linejoin:round;"><ellipse cx="2066.33" cy="3624.25" rx="1076.46" ry="188.333" style="fill:#e4e8ec;"/><path d="M1822.71,1135.46l-314.375,993.709l-382.583,261.625l59.917,655.041l661.125,-354.166c135.244,-72.422 220.12,-213.753 220.5,-367.167l2.875,-1152.08c-0,-0.042 -0,-0.084 -0,-0.125c-0,-69.373 -57.086,-126.459 -126.459,-126.459c0,0 0,0 0,0c-55.506,-0.011 -104.832,36.525 -121,89.625Z" style="fill:#ffc195;fill-rule:nonzero;"/><path d="M1943.71,1045.83c-29.488,0.001 -58.067,10.324 -80.75,29.167c68.631,1.221 124.378,58.109 124.209,126.75l-2.875,1152.08c-0.38,153.414 -85.256,294.746 -220.5,367.167l-579.459,310.292l1.334,14.541l661.125,-354.166c135.244,-72.422 220.12,-213.753 220.5,-367.167l2.875,-1152.08c-0,-0.042 -0,-0.084 -0,-0.125c-0,-69.373 -57.086,-126.459 -126.459,-126.459c0,0 0,0 0,0Z" style="fill:#ffa688;fill-rule:nonzero;"/><path d="M1822.71,1135.46l-314.375,993.709l-382.583,261.625l59.917,655.041l661.125,-354.166c135.244,-72.422 220.12,-213.753 220.5,-367.167l2.875,-1152.08c-0,-0.042 -0,-0.084 -0,-0.125c-0,-69.373 -57.086,-126.459 -126.459,-126.459c0,0 0,0 0,0c-55.506,-0.011 -104.832,36.525 -121,89.625Z" style="fill:none;fill-rule:nonzero;stroke:#171819;stroke-width:25px;"/><path d="M1422.25,2274.12l96.083,289.833c20.567,61.991 30.431,127.033 29.167,192.334l-3.833,201.458c-0.824,40.129 -25.06,76.262 -61.875,92.25l-637.5,276.75l-222.709,-897.083l626.584,-238.292c15.164,-5.779 31.257,-8.742 47.485,-8.742c57.367,-0 108.596,37.023 126.598,91.492Z" style="fill:#ffdc00;fill-rule:nonzero;"/><path d="M1518.33,2563.96l-96.083,-289.833c-15.454,-46.606 -55.451,-81.049 -103.833,-89.417l80.375,242.417c20.55,61.98 30.413,127.005 29.166,192.292l-3.916,201.416c-0.752,40.137 -24.968,76.307 -61.792,92.292l-560.167,243.292l42.334,170.375l637.5,-276.75c36.812,-16.007 61.033,-52.158 61.833,-92.292l3.833,-201.458c1.237,-65.306 -8.654,-130.348 -29.25,-192.334Z" style="fill:#ff9770;fill-rule:nonzero;"/><path d="M1422.25,2274.12l96.083,289.833c20.567,61.991 30.431,127.033 29.167,192.334l-3.833,201.458c-0.824,40.129 -25.06,76.262 -61.875,92.25l-637.5,276.75l-222.709,-897.083l626.584,-238.292c15.164,-5.779 31.257,-8.742 47.485,-8.742c57.367,-0 108.596,37.023 126.598,91.492Z" style="fill:none;fill-rule:nonzero;stroke:#171819;stroke-width:25px;"/><path d="M1967.62,1632.71c-29.98,0.025 -58.413,13.529 -77.375,36.75c53.401,2.049 96.206,46.56 96.167,100l-0,451.375l81.125,0l-0,-488.208c-0.046,-54.795 -45.122,-99.871 -99.917,-99.917Z" style="fill:#ffa688;fill-rule:nonzero;"/><path d="M1753.38,2145.58l117.708,-438.708c11.655,-43.583 51.428,-74.138 96.542,-74.167c54.858,0 100,45.142 100,100l0,488.125" style="fill:none;fill-rule:nonzero;stroke:#171819;stroke-width:25px;"/><path d="M2317.67,1135.46l314.375,993.709l382.583,261.625l-59.917,655.041l-661.125,-354.166c-135.244,-72.422 -220.12,-213.753 -220.5,-367.167l-2.916,-1152.08c-0,-0.014 -0,-0.028 -0,-0.042c-0,-69.403 57.097,-126.519 126.5,-126.542c55.506,-0.011 104.832,36.525 121,89.625Z" style="fill:#ffc195;fill-rule:nonzero;"/><path d="M2196.67,1045.83c29.488,0.001 58.067,10.324 80.75,29.167c-68.638,1.221 -124.397,58.102 -124.25,126.75l2.916,1152.08c0.38,153.414 85.256,294.746 220.5,367.167l579.459,310.25l-1.334,14.542l-661.125,-354.167c-135.244,-72.421 -220.12,-213.753 -220.5,-367.167l-2.916,-1152.08c-0,-69.403 57.097,-126.519 126.5,-126.542Z" style="fill:#ffa688;fill-rule:nonzero;"/><path d="M2317.67,1135.46l314.375,993.709l382.583,261.625l-59.917,655.041l-661.125,-354.166c-135.244,-72.422 -220.12,-213.753 -220.5,-367.167l-2.916,-1152.08c-0,-0.014 -0,-0.028 -0,-0.042c-0,-69.403 57.097,-126.519 126.5,-126.542c55.506,-0.011 104.832,36.525 121,89.625Z" style="fill:none;fill-rule:nonzero;stroke:#171819;stroke-width:25px;"/><path d="M2718.12,2274.12l-96.083,289.833c-20.547,61.996 -30.41,127.034 -29.167,192.334l3.875,201.458c0.816,40.119 25.034,76.25 61.833,92.25l637.5,276.75l222.709,-897.083l-626.709,-238.25c-15.135,-5.755 -31.193,-8.705 -47.386,-8.705c-57.337,0 -108.545,36.984 -126.572,91.413Z" style="fill:#ffdc00;fill-rule:nonzero;"/><path d="M2622.04,2563.96l96.083,-289.833c15.454,-46.606 55.451,-81.049 103.833,-89.417l-80.291,242.417c-20.551,61.98 -30.414,127.005 -29.167,192.292l3.875,201.458c0.751,40.137 24.968,76.306 61.792,92.292l560.125,243.25l-42.459,170.375l-637.25,-276.792c-36.812,-16.006 -61.033,-52.158 -61.833,-92.292l-3.875,-201.458c-1.238,-65.286 8.625,-130.31 29.167,-192.292Z" style="fill:#ff9770;fill-rule:nonzero;"/><path d="M2718.12,2274.12l-96.083,289.833c-20.547,61.996 -30.41,127.034 -29.167,192.334l3.875,201.458c0.816,40.119 25.034,76.25 61.833,92.25l637.5,276.75l222.709,-897.083l-626.709,-238.25c-15.135,-5.755 -31.193,-8.705 -47.386,-8.705c-57.337,0 -108.545,36.984 -126.572,91.413Z" style="fill:none;fill-rule:nonzero;stroke:#171819;stroke-width:25px;"/><path d="M2172.75,1632.71c29.936,0.062 58.316,13.563 77.25,36.75c-53.401,2.049 -96.206,46.56 -96.167,100l0,451.375l-81,0l0,-488.208c0.046,-54.795 45.122,-99.871 99.917,-99.917Z" style="fill:#ffa688;fill-rule:nonzero;"/><path d="M2387,2145.58l-117.708,-438.708c-11.655,-43.583 -51.428,-74.138 -96.542,-74.167c-54.858,0 -100,45.142 -100,100l0,488.125" style="fill:none;fill-rule:nonzero;stroke:#171819;stroke-width:25px;"/></svg>