<?xml version="1.0" encoding="UTF-8" standalone="no"?><!DOCTYPE svg PUBLIC "-//W3C//DTD SVG 1.1//EN" "http://www.w3.org/Graphics/SVG/1.1/DTD/svg11.dtd"><svg width="100%" height="100%" viewBox="0 0 4167 4167" version="1.1" xmlns="http://www.w3.org/2000/svg" xmlns:xlink="http://www.w3.org/1999/xlink" xml:space="preserve" xmlns:serif="http://www.serif.com/" style="fill-rule:evenodd;clip-rule:evenodd;stroke-linecap:round;stroke-linejoin:round;stroke-miterlimit:10;"><g><ellipse id="XMLID_173_" cx="2083.33" cy="2960.83" rx="1264.58" ry="118.333" style="fill:#e5e5e5;"/><path id="XMLID_12_" d="M2585.42,2816.25c37.083,0 67.083,-30 67.083,-67.083l0,-102.5c0,-37.084 -30,-67.084 -67.083,-67.084c-37.084,0 -67.084,30 -67.084,67.084l0,102.5c0,37.083 30,67.083 67.084,67.083Z" style="fill:none;fill-rule:nonzero;stroke:#4d4d61;stroke-width:12.5px;"/><path id="XMLID_83_" d="M2585.42,2816.25c37.083,0 67.083,-30 67.083,-67.083l0,-102.5c0,-37.084 -30,-67.084 -67.083,-67.084c-37.084,0 -67.084,30 -67.084,67.084l0,102.5c0,37.083 30,67.083 67.084,67.083Z" style="fill:#4d4d61;fill-rule:nonzero;"/><path id="XMLID_169_" d="M2537.08,2773.33l0,-102.5c0,-37.083 30,-67.083 67.084,-67.083c16.25,0 30.833,5.833 42.5,15c-10.417,-23.333 -33.75,-39.583 -61.25,-39.583c-37.084,-0 -67.084,30 -67.084,67.083l0,102.5c0,21.25 9.584,40 25,52.083c-4.166,-7.916 -6.25,-17.5 -6.25,-27.5Z" style="fill:#56566d;fill-rule:nonzero;"/><ellipse id="XMLID_162_" cx="2584.58" cy="2593.33" rx="37.083" ry="13.333" style="fill:#4d4d61;"/><path id="XMLID_159_" d="M2585.42,2593.33c13.75,0 25,-11.25 25,-25l-0,-115.416c-0,-11.667 -9.584,-21.25 -21.25,-21.25l-7.084,-0c-11.666,-0 -21.25,9.583 -21.25,21.25l0,115.416c-0.416,13.75 10.834,25 24.584,25Z" style="fill:#4d4d61;fill-rule:nonzero;"/><path id="XMLID_11_" d="M2585.42,2593.33c13.75,0 25,-11.25 25,-25l-0,-115.833c-0,-11.667 -9.167,-20.833 -20.834,-20.833l-7.916,-0c-11.667,-0 -20.834,9.166 -20.834,20.833l0,115.833c-0.416,13.75 10.834,25 24.584,25Z" style="fill:none;fill-rule:nonzero;stroke:#4d4d61;stroke-width:12.5px;"/><path id="XMLID_121_" d="M2060.42,1572.5l-71.25,0c-13.334,0 -24.167,-10.833 -24.167,-24.167c0,-13.333 10.833,-24.166 24.167,-24.166l30,-0c23.75,-0 42.916,-19.167 42.916,-42.917c0,-23.75 -19.166,-42.917 -42.916,-42.917l-94.167,0c-3.75,0 -7.083,-3.333 -7.083,-7.083c-0,-3.75 3.333,-7.083 7.083,-7.083l10.417,-0c4.166,-0 7.5,-3.334 7.5,-7.5c-0,-4.167 -3.334,-7.5 -7.5,-7.5l-73.75,-0c-5,-0 -9.167,4.166 -9.167,9.166c-0,5 4.167,9.167 9.167,9.167l28.75,-0c8.333,-0 15.416,7.083 15.416,15.417c0,8.333 -7.083,15.416 -15.416,15.416l-13.75,0c-19.584,0 -35.834,15.834 -35.834,35.834c0,20 15.834,35.833 35.834,35.833l29.166,-0c6.667,-0 12.084,5.417 12.084,12.083c-0,6.667 -5.417,12.084 -12.084,12.084l-11.25,-0c-12.916,-0 -23.333,10.416 -23.333,23.333c-0,12.917 10.417,23.333 23.333,23.333l152.084,0c8.333,0 15.416,7.084 15,15.417l-0.417,11.667l30.417,-0l-0,-24.167c-0.834,-17.5 -14.584,-31.25 -31.25,-31.25Zm-98.75,-90.417c-0,-3.75 2.916,-7.083 7.083,-7.083l41.25,-0c3.75,-0 7.083,2.917 7.083,7.083c0,3.75 -2.916,7.084 -7.083,7.084l-41.25,-0c-4.167,-0.417 -7.083,-3.334 -7.083,-7.084Z" style="fill:#e5e5e5;fill-rule:nonzero;"/><path id="XMLID_164_" d="M1839.58,1407.5l-12.5,0c-4.583,0 -8.333,-3.75 -8.333,-8.333c0,-4.584 3.75,-8.334 8.333,-8.334l12.5,0c4.584,0 8.334,3.75 8.334,8.334c-0,4.583 -3.75,8.333 -8.334,8.333Z" style="fill:#e5e5e5;fill-rule:nonzero;"/><path id="XMLID_4_" d="M2842.5,2345.42l-17.5,-28.75c-3.75,-6.25 -1.667,-14.584 4.583,-18.75c6.25,-3.75 14.584,-1.667 18.75,4.583l17.5,28.75c3.75,6.25 1.667,14.583 -4.583,18.75c-6.667,4.167 -15,2.083 -18.75,-4.583Z" style="fill:#4d4d61;fill-rule:nonzero;"/><path d="M2875.83,2334.58l-28.333,-17.916c-6.25,-4.167 -8.333,-12.5 -4.167,-18.75c4.167,-6.25 12.5,-8.334 18.75,-4.167l28.334,17.917c6.25,4.166 8.333,12.5 4.166,18.75c-3.75,6.25 -12.083,7.916 -18.75,4.166Z" style="fill:#4d4d61;fill-rule:nonzero;"/><path d="M2898.75,2312.08l-33.333,-4.583c-7.5,-0.833 -12.5,-7.917 -11.667,-15.417c0.833,-7.5 7.917,-12.5 15.417,-11.666l33.333,4.583c7.5,0.833 12.5,7.917 11.667,15.417c-1.25,7.5 -7.917,12.5 -15.417,11.666Z" style="fill:#4d4d61;fill-rule:nonzero;"/><path d="M2910.42,2284.58l-33.334,4.584c-7.5,1.25 -14.166,-4.167 -15.416,-11.667c-1.25,-7.5 4.166,-14.167 11.666,-15.417l33.334,-4.583c7.5,-1.25 14.166,4.167 15.416,11.667c0.834,7.5 -4.166,14.166 -11.666,15.416Z" style="fill:#4d4d61;fill-rule:nonzero;"/><path d="M2915.42,2256.25l-32.084,10c-7.083,2.083 -14.583,-1.667 -17.083,-9.167c-2.083,-7.083 1.667,-14.583 9.167,-17.083l32.083,-10c7.083,-2.083 14.583,1.667 17.083,9.167c1.667,7.5 -2.083,15 -9.166,17.083Z" style="fill:#4d4d61;fill-rule:nonzero;"/><path d="M2916.25,2227.08l-31.25,12.084c-7.083,2.5 -15,-0.834 -17.5,-7.917c-2.5,-7.083 0.833,-15 7.917,-17.5l31.25,-12.083c7.083,-2.5 15,0.833 17.5,7.916c2.5,7.084 -0.834,14.584 -7.917,17.5Z" style="fill:#4d4d61;fill-rule:nonzero;"/><path d="M2915.42,2197.92l-30,15.416c-6.667,3.334 -15,0.834 -18.334,-5.833c-3.333,-6.667 -0.833,-15 5.834,-18.333l30,-15.417c6.666,-3.333 15,-0.833 18.333,5.833c3.333,6.667 0.833,15 -5.833,18.334Z" style="fill:#4d4d61;fill-rule:nonzero;"/><path id="XMLID_3_" d="M2912.92,2178.33l-30,15.417c-6.667,3.333 -15,0.833 -18.334,-5.833c-3.333,-6.667 -0.833,-15 5.834,-18.334l30,-15.416c6.666,-3.334 15,-0.834 18.333,5.833c3.333,6.667 0.833,15 -5.833,18.333Z" style="fill:#4d4d61;fill-rule:nonzero;"/><path id="XMLID_112_" d="M2112.92,1653.33c-30.417,0 -55,24.584 -55,55c-0,30.417 24.583,55 55,55c30.416,0 55,-24.583 55,-55c-0,-30.416 -24.584,-55 -55,-55Zm-0,88.75c-18.334,0 -33.334,-15 -33.334,-33.333c0,-18.333 15,-33.333 33.334,-33.333c18.333,-0 33.333,15 33.333,33.333c0,18.333 -15,33.333 -33.333,33.333Z" style="fill:none;fill-rule:nonzero;stroke:#4d4d61;stroke-width:12.5px;"/><path id="XMLID_105_" d="M2158.33,1679.58l-47.5,0c-12.5,0 -20.833,13.334 -14.583,24.584c8.75,16.666 26.667,28.333 47.083,28.333l5.417,0l0,62.5l57.083,0l0,-68.333c-0.416,-25.834 -21.666,-47.084 -47.5,-47.084Z" style="fill:#f7e3cb;fill-rule:nonzero;"/><path id="XMLID_114_" d="M2158.33,1679.58l-23.75,0c26.25,0 47.5,21.25 47.5,47.5l0,68.334l23.75,-0l0,-68.334c-0.416,-26.25 -21.666,-47.5 -47.5,-47.5Z" style="fill:#edd6bc;fill-rule:nonzero;"/><path id="XMLID_108_" d="M2158.33,1679.58l-53.75,0c-8.75,0 -14.583,8.334 -12.083,16.25c7.083,21.25 27.083,36.667 50.417,36.667l5.416,0l0,62.5l57.084,0l-0,-68.333c-0,-25.834 -21.25,-47.084 -47.084,-47.084Z" style="fill:none;fill-rule:nonzero;stroke:#4d4d61;stroke-width:12.5px;"/><path id="XMLID_5_" d="M1997.92,1787.08l80,0c17.5,0 32.083,-14.166 32.083,-32.083l-0,-124.583l-144.167,-0l0,124.583c0,17.5 14.167,32.083 32.084,32.083Z" style="fill:#ffd680;fill-rule:nonzero;"/><path id="XMLID_93_" d="M1965.83,1742.08l18.75,0c25.834,0 46.25,-20.833 46.25,-46.25l0,-17.916l9.584,7.5" style="fill:none;fill-rule:nonzero;stroke:#4d4d61;stroke-width:8.33px;"/><path id="XMLID_122_" d="M2067.92,1630l-0,124.583c-0,17.5 -14.167,32.084 -32.084,32.084l41.667,-0c17.5,-0 32.083,-14.167 32.083,-32.084l0,-124.583l-41.666,0Z" style="fill:#eabd6c;fill-rule:nonzero;"/><path id="XMLID_104_" d="M1997.92,1787.08l80,0c17.5,0 32.083,-14.166 32.083,-32.083l-0,-124.583l-144.167,-0l0,124.583c0,17.5 14.167,32.083 32.084,32.083Z" style="fill:none;fill-rule:nonzero;stroke:#4d4d61;stroke-width:12.5px;"/><path id="XMLID_98_" d="M2352.92,1799.58l20.833,42.917l30.833,-21.25l-51.666,-21.667Z" style="fill:#ca4361;fill-rule:nonzero;"/><path id="XMLID_101_" d="M2352.92,1799.58l20.833,42.917l30.833,-21.25l-51.666,-21.667Z" style="fill:none;fill-rule:nonzero;stroke:#4d4d61;stroke-width:8.33px;"/><path id="XMLID_79_" d="M2423.72,2779.25l56.988,-35.393l-237.64,-382.629l-56.987,35.393l237.639,382.629Z" style="fill:#f7e3cb;"/><path id="XMLID_49_" d="M2423.72,2779.25l56.988,-35.393l-237.64,-382.629l-56.987,35.393l237.639,382.629Z" style="fill:none;stroke:#4d4d61;stroke-width:12.5px;"/><path id="XMLID_50_" d="M1565,2666.67l441.25,-355l42.5,51.25l-441.25,355.416l-42.5,-51.666Z" style="fill:#f7e3cb;fill-rule:nonzero;"/><path id="XMLID_138_" d="M1613.33,2627.92l40.417,53.333l40,-31.25l-40.417,-54.583l-40,32.5Z" style="fill:#edd6bc;fill-rule:nonzero;"/><path id="XMLID_77_" d="M1565,2666.67l441.25,-355l42.5,51.25l-441.25,355.416l-42.5,-51.666Z" style="fill:none;fill-rule:nonzero;stroke:#4d4d61;stroke-width:12.5px;"/><path id="XMLID_64_" d="M2514.58,1799.58l-31.666,-36.666c-13.334,-15.417 -36.667,-17.084 -52.084,-4.167c-15.833,13.333 -17.5,37.083 -4.166,52.5l31.666,36.667c50,57.916 43.75,145.833 -14.583,195.833c-57.917,50 -145.833,43.75 -195.833,-14.583c-21.667,-25.417 -33.75,-57.5 -33.75,-90.834l-0,-150.833l-74.167,0l0,151.25c0,51.25 18.333,100.417 51.667,139.167c77.083,89.166 211.666,99.166 300.833,22.083c89.167,-76.25 98.75,-211.25 22.083,-300.417Z" style="fill:none;fill-rule:nonzero;stroke:#4d4d61;stroke-width:12.5px;"/><path id="XMLID_102_" d="M2395,1821.25c0,0 47.917,47.917 78.75,91.25c30.417,42.917 52.917,100 52.917,111.25c17.5,11.25 22.083,17.5 25,14.583c2.916,-2.916 2.916,-19.583 2.916,-34.166c0,-15 -135.416,-199.167 -159.583,-182.917Z" style="fill:#ca4361;fill-rule:nonzero;"/><path id="XMLID_103_" d="M2395,1821.25c0,0 47.917,47.917 78.75,91.25c30.417,42.917 52.917,100 52.917,111.25c17.5,11.25 22.083,17.5 25,14.583c2.916,-2.916 2.916,-19.583 2.916,-34.166c0,-15 -135.416,-199.167 -159.583,-182.917Z" style="fill:none;fill-rule:nonzero;stroke:#4d4d61;stroke-width:8.33px;"/><path id="XMLID_135_" d="M2540.83,2788.75l-325.416,98.75c-5.834,1.667 -12.084,-1.667 -14.167,-7.5l-0.417,-0.833c-1.666,-5.834 1.667,-12.084 7.5,-14.167l325.417,-98.75c5.833,-1.667 12.083,1.667 14.167,7.5l0.416,0.833c1.667,6.25 -1.666,12.5 -7.5,14.167Z" style="fill:#595d5c;fill-rule:nonzero;"/><path id="XMLID_134_" d="M2540.83,2788.75l-325.416,98.75c-5.834,1.667 -12.084,-1.667 -14.167,-7.5l-0.417,-0.833c-1.666,-5.834 1.667,-12.084 7.5,-14.167l325.417,-98.75c5.833,-1.667 12.083,1.667 14.167,7.5l0.416,0.833c1.667,6.25 -1.666,12.5 -7.5,14.167Z" style="fill:none;fill-rule:nonzero;stroke:#4d4d61;stroke-width:12.5px;"/><path id="XMLID_133_" d="M2488.75,2705l-1.25,0.417c-7.083,12.5 -22.083,23.75 -41.25,29.583c-14.167,4.167 -28.333,5 -40,2.083c-10.417,-2.5 -21.25,-2.916 -31.667,0l-128.333,35.834c-15.417,4.166 -27.5,15.833 -33.75,32.083l-13.75,35.833c-4.583,12.084 5.833,25.834 17.083,22.5l315,-95.833l-13.333,-43.333c-4.167,-13.75 -17.083,-22.084 -28.75,-19.167Z" style="fill:#9b8462;fill-rule:nonzero;"/><path id="XMLID_132_" d="M2212.5,2805.42l-2.083,5.833c10.833,8.333 25.416,11.667 40,7.5l196.666,-60c18.75,-5.833 30.417,-22.5 30.834,-41.25c-7.917,7.5 -18.75,13.75 -31.25,17.5c-14.167,4.167 -28.334,5 -40,2.083c-10.417,-2.5 -21.25,-2.916 -31.667,0l-128.333,35.834c-15.834,4.166 -27.917,15.833 -34.167,32.5Z" style="fill:#e1c885;fill-rule:nonzero;"/><path id="XMLID_131_" d="M2488.75,2705l-1.25,0.417c-7.083,12.5 -22.083,23.75 -41.25,29.583c-14.167,4.167 -28.333,5 -40,2.083c-10.417,-2.5 -21.25,-2.916 -31.667,0l-128.333,35.834c-15.417,4.166 -27.5,15.833 -33.75,32.083l-13.75,35.833c-4.583,12.084 5.833,25.834 17.083,22.5l315,-95.833l-13.333,-43.333c-4.167,-13.75 -17.083,-22.084 -28.75,-19.167Z" style="fill:none;fill-rule:nonzero;stroke:#4d4d61;stroke-width:12.5px;"/><path id="XMLID_100_" d="M2374.58,2774.58l22.084,-39.166l-16.667,0.416l-5.417,38.75Z" style="fill:none;fill-rule:nonzero;stroke:#4d4d61;stroke-width:12.5px;"/><path id="XMLID_7_" d="M2312.5,1713.33c177.5,110.834 299.583,289.584 340.417,492.084l57.5,-0c-32.5,-206.667 -149.584,-390.834 -324.167,-508.334" style="fill:#f7e3cb;fill-rule:nonzero;"/><path id="XMLID_10_" d="M2658.75,2421.25l46.25,-30l-233.75,0l46.25,30c43.333,27.917 98.333,27.917 141.25,0Z" style="fill:none;fill-rule:nonzero;stroke:#4d4d61;stroke-width:12.5px;"/><path id="XMLID_2_" d="M2658.75,2421.25l46.25,-30l-233.75,0l46.25,30c43.333,27.917 98.333,27.917 141.25,0Z" style="fill:#4d4d61;fill-rule:nonzero;"/><path id="XMLID_26_" d="M2372.92,1703.33c47.916,-20 82.083,-67.5 82.083,-122.916l0,-45l9.167,-0c31.666,-0 57.5,-25.834 57.5,-57.5c-0,-31.667 -22.084,-61.25 -54.167,-61.25l-15.417,1.25l2.5,-70.834c0,-73.75 -59.583,-133.333 -133.333,-133.333c-73.75,0 -133.333,59.583 -133.333,133.333l-0,72.917l-39.584,0c-12.083,0 -22.083,10 -22.083,22.083c0,32.5 26.25,59.167 59.167,59.167l2.916,0l0,79.167c0,70.416 55,128.333 124.167,132.916" style="fill:#f7e3cb;fill-rule:nonzero;"/><path id="XMLID_1_" d="M2797.5,2310.83l-449.583,0c-1.667,0 -2.917,0 -4.584,0.417c-34.583,2.5 -61.666,32.917 -59.166,68.75c2.083,32.083 28.75,58.333 61.25,60c12.916,0.417 25,-2.5 35,-8.333c42.5,-24.584 90,-39.584 139.583,-39.584l277.5,0c22.083,0 40,-17.916 40,-40c0.417,-22.916 -17.917,-41.25 -40,-41.25Z" style="fill:#ca4361;fill-rule:nonzero;"/><path id="XMLID_163_" d="M2353.33,2402.08c-2.5,-35.833 24.584,-65.833 59.167,-68.75c1.25,0 2.917,-0.416 4.583,-0.416l416.667,-0c-6.667,-13.334 -20,-22.084 -35.833,-22.084l-450,0c-1.667,0 -2.917,0 -4.584,0.417c-34.583,2.5 -61.666,32.917 -59.166,68.75c2.083,32.083 28.75,58.333 61.25,60c7.5,0.417 14.583,-0.417 21.25,-2.5c-7.5,-10.417 -12.5,-22.5 -13.334,-35.417Z" style="fill:#d35375;fill-rule:nonzero;"/><path id="XMLID_39_" d="M2797.5,2310.83l-449.583,0c-1.667,0 -2.917,0 -4.584,0.417c-34.583,2.5 -61.666,32.917 -59.166,68.75c2.083,32.083 28.75,58.333 61.25,60c12.916,0.417 25,-2.5 35,-8.333c42.5,-24.584 90,-39.584 139.583,-39.584l277.5,0c22.083,0 40,-17.916 40,-40c0.417,-22.916 -17.917,-41.25 -40,-41.25Z" style="fill:none;fill-rule:nonzero;stroke:#4d4d61;stroke-width:12.5px;"/><path id="XMLID_15_" d="M2745.75,2852.01l11.352,-28.666l-123.96,-49.093l-11.352,28.665l123.96,49.094Z" style="fill:#4d4d61;"/><path id="XMLID_20_" d="M2436.67,2851.67l-11.25,-28.334l109.583,-43.333c7.917,-2.917 16.667,0.833 20,8.75c2.917,7.917 -0.833,16.667 -8.75,20l-109.583,42.917Z" style="fill:#4d4d61;fill-rule:nonzero;"/><path id="XMLID_28_" d="M2520,1489.58l-19.167,102.5c-7.916,41.25 -45.833,69.584 -87.5,64.584l-0.416,-0l49.166,-207.084l57.917,40Z" style="fill:#a3886c;fill-rule:nonzero;"/><path id="XMLID_36_" d="M2520,1489.58l-19.167,102.5c-7.916,41.25 -45.833,69.584 -87.5,64.584l-0.416,-0l49.166,-207.084l57.917,40Z" style="fill:none;fill-rule:nonzero;stroke:#4d4d61;stroke-width:12.5px;"/><path id="XMLID_35_" d="M2187.92,1508.33l-0,-9.583c-0,-13.333 -11.667,-23.333 -24.584,-20.833l-15.416,5.416l40,25Z" style="fill:#edd6bc;fill-rule:nonzero;"/><path id="XMLID_40_" d="M2462.08,1420l-7.5,0l0,-71.25c-32.083,49.583 -82.083,115 -82.083,115l0,89.583c0,65.417 -52.917,118.334 -118.333,118.334l-30.417,-0c24.167,25.833 58.75,42.083 97.083,42.083c73.75,0 133.334,-59.583 133.334,-133.333l-0,-45l9.166,-0c32.917,-0 59.167,-27.5 57.5,-60.417c-0.833,-31.25 -27.916,-55 -58.75,-55Z" style="fill:#edd6bc;fill-rule:nonzero;"/><path id="XMLID_46_" d="M2386.25,1697.08c40.833,-22.916 68.75,-66.25 68.75,-116.666l0,-45l9.167,-0c31.666,-0 57.5,-25.834 57.5,-57.5c-0,-31.667 -22.084,-61.25 -54.167,-61.25l-15.417,1.25l2.5,-70.834c0,-73.75 -59.583,-133.333 -133.333,-133.333c-73.75,0 -133.333,59.583 -133.333,133.333l-0,72.917l-39.584,0c-12.083,0 -22.083,10 -22.083,22.083c0,32.5 26.25,59.167 59.167,59.167l2.916,0l0,79.167c0,70.416 55,128.333 124.167,132.916" style="fill:none;fill-rule:nonzero;stroke:#4d4d61;stroke-width:12.5px;"/><circle id="XMLID_24_" cx="2240" cy="1390.83" r="8.333" style="fill:none;stroke:#4d4d61;stroke-width:8.33px;stroke-linecap:butt;stroke-linejoin:miter;"/><path id="XMLID_31_" d="M2318.75,1475.83l0,67.5c0,42.917 -35,77.917 -77.917,77.917c-29.166,0 -52.5,-23.75 -52.5,-52.5" style="fill:none;fill-rule:nonzero;stroke:#4d4d61;stroke-width:8.33px;"/><path id="XMLID_30_" d="M2311.25,1472.08l15,7.917" style="fill:none;fill-rule:nonzero;stroke:#4d4d61;stroke-width:8.33px;"/><path id="XMLID_32_" d="M2257.08,1312.5l-15,29.167l58.75,35.833l3.75,-25l-47.5,-40Z" style="fill:#b0977a;fill-rule:nonzero;"/><path id="XMLID_41_" d="M2257.08,1312.5l-4.583,9.167c16.25,4.583 28.333,18.75 28.333,36.25c0,2.5 -0.416,5 -0.833,7.083l20.833,12.917l3.75,-25l-47.5,-40.417Z" style="fill:#a3886c;fill-rule:nonzero;"/><path id="XMLID_23_" d="M2257.08,1312.5l-15,29.167l58.75,35.833l3.75,-25l-47.5,-40Z" style="fill:none;fill-rule:nonzero;stroke:#4d4d61;stroke-width:8.33px;"/><path id="XMLID_22_" d="M2543.33,1273.75c14.167,8.75 20.417,11.25 34.167,11.25c-23.75,-33.333 -29.583,-98.75 -65,-140c-15.833,-18.75 -33.75,-39.167 -67.917,-49.583c-58.75,-17.5 -114.166,2.083 -121.25,5.833c-42.916,22.917 -85.833,75.417 -73.333,120.417c1.25,5 -2.917,8.333 0,12.083c47.083,-35.833 121.25,-25 156.25,23.333c27.917,38.334 20.417,100.834 -6.667,136.667c-7.916,7.917 -11.25,34.583 -22.916,61.25l31.25,-19.167c32.083,-19.583 80.416,-13.75 107.083,12.917c4.583,7.917 7.5,16.25 8.75,24.583c3.333,-2.083 7.5,-4.583 12.5,-8.75c30.833,-25.833 36.25,-65 37.5,-75c9.167,-59.166 -23.75,-108.333 -30.417,-115.833Z" style="fill:#b0977a;fill-rule:nonzero;"/><path id="XMLID_42_" d="M2577.92,1285.42c-23.75,-33.334 -29.584,-98.75 -65,-140c-13.75,-16.25 -29.167,-34.167 -55.834,-45c29.167,33.75 47.084,77.916 47.084,126.25c-0,75.833 -43.75,141.25 -107.5,172.916c-5.834,11.25 -9.584,33.75 -19.584,56.25l31.25,-19.166c32.084,-19.584 80.417,-13.75 107.084,12.916c4.583,7.917 7.5,16.25 8.75,24.584c3.333,-2.084 7.5,-4.584 12.5,-8.75c30.833,-25.834 36.25,-65 37.5,-75c8.333,-59.584 -25,-109.167 -31.25,-116.25c15,8.75 21.25,11.25 35,11.25Z" style="fill:#a3886c;fill-rule:nonzero;"/><path id="XMLID_33_" d="M2543.33,1273.75c14.167,8.75 20.417,11.25 34.167,11.25c-23.75,-33.333 -29.583,-98.75 -65,-140c-15.833,-18.75 -33.75,-39.167 -67.917,-49.583c-58.75,-17.5 -114.166,2.083 -121.25,5.833c-42.916,22.917 -85.833,75.417 -73.333,120.417c1.25,5 -2.917,8.333 0,12.083c47.083,-35.833 121.25,-25 156.25,23.333c27.917,38.334 20.417,100.834 -6.667,136.667c-7.916,7.917 -11.25,34.583 -22.916,61.25l47.083,-28.333c31.25,-19.167 72.5,-9.167 91.25,22.5c4.583,7.916 7.5,16.25 8.75,24.583c3.333,-2.083 7.5,-4.583 12.5,-8.75c30.833,-25.833 36.25,-65 37.5,-75c9.167,-59.583 -23.75,-108.75 -30.417,-116.25Z" style="fill:none;fill-rule:nonzero;stroke:#4d4d61;stroke-width:12.5px;"/><path id="XMLID_25_" d="M2437.5,1457.92l49.583,35.416" style="fill:none;fill-rule:nonzero;stroke:#4d4d61;stroke-width:8.33px;"/><path id="XMLID_29_" d="M2480.83,1449.58l-35.416,49.584" style="fill:none;fill-rule:nonzero;stroke:#4d4d61;stroke-width:8.33px;"/><path id="XMLID_38_" d="M2197.5,1485.42l4.583,4.166c0,0 8.334,-8.75 19.167,-4.166c-2.917,-5.834 -27.083,-8.75 -23.75,-0Z" style="fill:none;fill-rule:nonzero;stroke:#4d4d61;stroke-width:8.33px;"/><path id="XMLID_71_" d="M2312.5,1713.33c177.5,110.834 299.583,289.584 340.417,492.084l57.5,-0c-32.5,-206.667 -149.584,-390.834 -324.167,-508.334" style="fill:none;fill-rule:nonzero;stroke:#4d4d61;stroke-width:12.5px;"/><path id="XMLID_78_" d="M2102.76,2297.27l255.274,410.946l85.304,-52.99l-255.275,-410.946l-85.303,52.99Z" style="fill:#475c80;"/><path id="XMLID_146_" d="M2153.33,2381.67l183.75,292.916c11.667,-7.5 47.084,8.75 39.584,-2.916l-167.917,-251.25c-7.5,-11.667 -39.583,-42.084 -51.667,-34.584l-3.75,-4.166Z" style="fill:#6987af;fill-opacity:0.57;fill-rule:nonzero;"/><path id="XMLID_137_" d="M2145.42,2365.83c-0,0 78.75,-24.583 105.833,-19.583c-27.5,-52.917 -37.5,-63.333 -37.5,-63.333l-105.417,34.166l37.084,48.75Z" style="fill:#4d4d61;fill-rule:nonzero;"/><path id="XMLID_43_" d="M2102.76,2297.27l255.274,410.946l85.304,-52.99l-255.275,-410.946l-85.303,52.99Z" style="fill:none;stroke:#4d4d61;stroke-width:12.5px;"/><path id="XMLID_76_" d="M1950.42,2330l-321.25,265l63.75,77.5l293.333,-242.083c94.167,-77.917 212.917,-120.417 335,-120.417l363.75,0c27.5,0 50,-22.5 50,-50l0,-50l-450,0c-122.083,-0.417 -240.417,42.083 -334.583,120Z" style="fill:#475c80;fill-rule:nonzero;"/><path id="XMLID_174_" d="M1649.17,2578.33l28.333,39.584l335.417,-300.417l-17.084,-21.25c-15.833,10.417 -30.833,21.667 -45.416,33.75l-301.25,248.333Z" style="fill:#6987af;fill-opacity:0.57;fill-rule:nonzero;"/><path id="XMLID_140_" d="M2212.5,2235.42l375.417,5c19.583,-0 85.416,-11.667 85.416,-31.25l-387.5,-0c-40,-0 -165.833,19.583 -212.083,44.583c-12.083,6.667 82.5,-18.333 138.75,-18.333Z" style="fill:#6987af;fill-opacity:0.57;fill-rule:nonzero;"/><path id="XMLID_48_" d="M1950.42,2330l-321.25,265l63.75,77.5l293.333,-242.083c94.167,-77.917 212.917,-120.417 335,-120.417l363.75,0c27.5,0 50,-22.5 50,-50l0,-50l-450,0c-122.083,-0.417 -240.417,42.083 -334.583,120Z" style="fill:none;fill-rule:nonzero;stroke:#4d4d61;stroke-width:12.5px;"/><path id="XMLID_37_" d="M2735.42,2205.42c-28.75,-187.5 -125.834,-358.75 -270.417,-480l-91.25,63.333c129.583,105.833 219.167,253.333 253.333,416.667l108.334,-0Z" style="fill:#e5e5e5;fill-rule:nonzero;"/><path id="XMLID_123_" d="M2627.08,2205.42l45.834,-0c-35.417,-172.5 -128.75,-328.75 -263.334,-441.667l-35.833,25c129.583,105.417 219.167,253.333 253.333,416.667Z" style="fill:#fff;fill-rule:nonzero;"/><path id="XMLID_47_" d="M2735.42,2205.42c-28.75,-187.5 -125.834,-358.75 -270.417,-480l-91.25,63.333c129.583,105.833 219.167,253.333 253.333,416.667l108.334,-0Z" style="fill:none;fill-rule:nonzero;stroke:#4d4d61;stroke-width:12.5px;"/><path id="XMLID_95_" d="M2069.58,1916.25c0,0 -34.583,28.75 -31.666,-30.417c1.25,-27.083 36.666,-26.25 36.666,-26.25l3.75,25.417l-8.75,31.25Z" style="fill:#b0977a;fill-rule:nonzero;"/><path id="XMLID_94_" d="M2069.58,1916.25c0,0 -34.583,28.75 -31.666,-30.417c1.25,-27.083 36.666,-26.25 36.666,-26.25l3.75,25.417l-8.75,31.25Z" style="fill:none;fill-rule:nonzero;stroke:#4d4d61;stroke-width:12.5px;"/><path id="XMLID_60_" d="M2171.67,1852.08c-16.667,23.334 -42.5,38.334 -71.25,41.25c-21.667,2.084 -21.25,-47.916 -55,11.25c-13.334,7.084 -29.167,-7.083 -36.25,-15.416c-2.084,-2.5 -2.084,-6.25 0.416,-8.334c6.25,-5.416 17.917,-18.333 23.334,-40.833c3.75,-21.667 10.833,-37.5 27.916,-28.333c15,7.916 108.334,-3.334 110.834,40.416Z" style="fill:#edd6bc;fill-rule:nonzero;"/><path id="XMLID_91_" d="M2171.67,1852.08c-16.667,23.334 -42.5,38.334 -71.25,41.25c-21.667,2.084 -21.25,-47.916 -55,11.25c-13.334,7.084 -28.75,-7.083 -36.25,-15c-2.5,-2.5 -2.084,-6.666 0.416,-8.75c6.667,-5.833 17.917,-18.333 22.917,-40.833c3.75,-21.667 10.833,-37.5 27.917,-28.333c15.416,7.916 108.75,-3.334 111.25,40.416Z" style="fill:none;fill-rule:nonzero;stroke:#4d4d61;stroke-width:12.5px;"/><path id="XMLID_89_" d="M2183.75,1901.25c0,0 -12.083,-35 -44.583,-51.667c-3.334,12.917 -20,25.834 -36.25,30.417l9.166,15.833c7.084,12.917 1.25,29.167 -12.5,33.75c-12.083,4.167 -25,-1.666 -30,-13.333l-20.416,-62.083c-0,-0 40,-14.584 52.083,-27.084c8.333,-8.333 27.917,-39.583 27.917,-39.583c-0,0 36.25,8.75 60.833,33.333c20.417,20.417 38.75,55 38.75,55l-45,25.417Z" style="fill:#edd6bc;fill-rule:nonzero;"/><path id="XMLID_119_" d="M2093.75,1927.92l-20.417,-62.084c0,0 40,-14.583 52.084,-27.083c8.333,-8.333 27.916,-39.583 27.916,-39.583c0,-0 5.417,1.25 13.75,4.583c-19.583,-11.667 -38.333,-16.25 -38.333,-16.25c0,0 -19.583,31.25 -27.917,39.583c-12.5,12.084 -52.083,27.084 -52.083,27.084l20.417,62.083c4.166,10.417 15,16.25 25.833,14.167c-0.417,-0.834 -0.833,-1.667 -1.25,-2.5Z" style="fill:#f7e3cb;fill-rule:nonzero;"/><path id="XMLID_120_" d="M2163.33,1861.25c-0.416,1.667 -1.25,3.333 -2.083,5c15.833,16.667 22.5,35 22.5,35l14.167,-7.917c-7.084,-10.833 -18.334,-23.75 -34.584,-32.083Z" style="fill:#f7e3cb;fill-rule:nonzero;"/><path id="XMLID_90_" d="M2183.75,1901.25c0,0 -12.083,-35 -44.583,-51.667c-3.334,12.917 -20,25.834 -36.25,30.417l9.166,15.833c7.084,12.917 1.25,29.167 -12.5,33.75c-12.083,4.167 -25,-1.666 -30,-13.333l-20.416,-62.083c-0,-0 40,-14.584 52.083,-27.084c8.333,-8.333 27.917,-39.583 27.917,-39.583c-0,0 36.25,8.75 60.833,33.333c20.417,20.417 38.75,55 38.75,55l-45,25.417Z" style="fill:none;fill-rule:nonzero;stroke:#4d4d61;stroke-width:12.5px;"/><path id="XMLID_92_" d="M2069.58,1904.58l12.5,-3.75c0,0 6.25,6.25 6.25,12.084c0,5.833 -14.583,10.416 -14.583,10.416c0,0 -9.583,-13.75 -4.167,-18.75Z" style="fill:none;fill-rule:nonzero;stroke:#4d4d61;stroke-width:8.33px;"/><path id="XMLID_106_" d="M2020.83,1870l10,8.333c0,0 -1.666,8.75 -6.666,11.667c-4.584,2.917 -16.667,-6.25 -16.667,-6.25c-0,0 6.25,-15.417 13.333,-13.75Z" style="fill:none;fill-rule:nonzero;stroke:#4d4d61;stroke-width:8.33px;"/><path id="XMLID_74_" d="M2235.83,1866.67l106.25,203.75c15.417,29.583 40.834,52.5 72.084,65c71.25,28.333 152.083,-6.667 180.416,-77.917c28.334,-71.25 -6.666,-152.083 -77.916,-180.417l-45,-17.916c-19.167,-7.5 -28.334,-29.584 -20.834,-48.334c7.5,-18.75 29.167,-27.916 48.334,-20.416l45,17.916c109.583,43.334 162.916,167.5 119.583,276.667c-43.333,109.583 -167.5,162.917 -276.667,119.583c-47.5,-18.75 -86.666,-54.166 -110.416,-99.583l-104.584,-200.417l63.75,-37.916Z" style="fill:#e5e5e5;fill-rule:nonzero;"/><path id="XMLID_6_" d="M2264.58,1921.67l-28.75,-55l-64.166,37.916l28.333,54.167l64.583,-37.083Z" style="fill:#e5e5e5;fill-rule:nonzero;"/><path id="XMLID_118_" d="M2171.67,1904.58l104.583,200.417c3.75,7.083 7.917,14.167 12.5,20.833c-2.5,-14.583 12.5,16.667 12.5,16.667l-106.667,-252.083l-22.916,14.166Z" style="fill:#fff;fill-rule:nonzero;"/><path id="XMLID_116_" d="M2264.58,1921.67l-28.75,-55l-64.166,37.916l28.333,54.167l64.583,-37.083Z" style="fill:none;fill-rule:nonzero;stroke:#4d4d61;stroke-width:12.5px;"/><path id="XMLID_107_" d="M2456.25,1834.58c7.5,-18.75 29.167,-27.916 48.333,-20.416l45,17.916c64.167,25.417 109.167,78.75 126.667,140.834c-11.667,-71.667 -59.583,-135.834 -131.667,-164.584l-45,-17.916c-19.166,-7.5 -40.416,1.666 -48.333,20.416c-4.583,11.25 -3.333,23.75 2.917,33.334c-0,-3.334 0.833,-6.25 2.083,-9.584Z" style="fill:#fff;fill-rule:nonzero;"/><path id="XMLID_113_" d="M2241.25,1877.08l87.083,198.75c22.084,40 49.167,71.25 80,83.334c71.25,28.333 162.5,-6.667 190.834,-77.917c12.083,-30.833 12.5,-63.333 3.333,-92.5c2.917,22.5 0.417,46.25 -8.75,68.75c-28.333,71.25 -109.167,106.25 -180.417,77.917c-30.833,-12.5 -56.666,-35.417 -72.083,-65l-105.417,-203.75" style="fill:#fff;fill-rule:nonzero;"/><path id="XMLID_62_" d="M2235.83,1866.67l106.25,203.75c15.417,29.583 40.834,52.5 72.084,65c71.25,28.333 152.083,-6.667 180.416,-77.917c28.334,-71.25 -6.666,-152.083 -77.916,-180.417l-45,-17.916c-19.167,-7.5 -28.334,-29.584 -20.834,-48.334c7.5,-18.75 29.167,-27.916 48.334,-20.416l45,17.916c109.583,43.334 162.916,167.5 119.583,276.667c-43.333,109.583 -167.5,162.917 -276.667,119.583c-47.5,-18.75 -86.666,-54.166 -110.416,-99.583l-104.584,-200.417l63.75,-37.916Z" style="fill:none;fill-rule:nonzero;stroke:#4d4d61;stroke-width:12.5px;"/><path id="XMLID_72_" d="M2466.67,1713.75l-67.084,116.25l-75.833,-50l112.083,-78.75l30.834,12.5Z" style="fill:#e5e5e5;fill-rule:nonzero;"/><path id="XMLID_115_" d="M2410.42,1719.17l-86.667,60.833l34.167,22.5c0.416,-0.417 0.833,-0.417 1.25,-0.833c37.916,-20.834 59.583,-56.25 51.25,-82.5Z" style="fill:#fff;fill-rule:nonzero;"/><path id="XMLID_34_" d="M2466.67,1713.75l-67.084,116.25l-75.833,-50l112.083,-78.75l30.834,12.5Z" style="fill:none;fill-rule:nonzero;stroke:#4d4d61;stroke-width:12.5px;"/><circle id="XMLID_80_" cx="2374.17" cy="2853.33" r="81.667" style="fill:#56566d;"/><path id="XMLID_170_" d="M2327.08,2894.17c0,-45 36.667,-81.667 81.667,-81.667c15,0 29.167,4.167 41.25,11.25c-12.083,-30.417 -41.667,-52.083 -76.25,-52.083c-45,-0 -81.667,36.666 -81.667,81.666c0,30 16.25,56.25 40.417,70.417c-3.333,-9.167 -5.417,-19.167 -5.417,-29.583Z" style="fill:#66667c;fill-opacity:0.44;fill-rule:nonzero;"/><circle id="XMLID_19_" cx="2374.17" cy="2853.33" r="81.667" style="fill:none;stroke:#4d4d61;stroke-width:12.5px;"/><circle id="XMLID_18_" cx="2374.17" cy="2853.33" r="40.417" style="fill:none;stroke:#4d4d61;stroke-width:12.5px;"/><circle id="XMLID_81_" cx="2374.17" cy="2853.33" r="40.417" style="fill:#4d4d61;"/><path id="XMLID_82_" d="M2469.17,2812.92c-13.75,-0 -26.25,-5.834 -35.834,-15.834c-15,-15.833 -35.833,-25.416 -59.166,-25.416c-22.917,-0 -43.334,9.166 -58.334,24.583c-10.416,10.417 -23.75,16.667 -38.333,16.667l-0.417,-0c15.834,-37.917 53.334,-64.584 97.084,-64.584c43.75,0 81.25,26.667 97.083,64.584l-2.083,-0Z" style="fill:#ca4361;fill-rule:nonzero;"/><path id="XMLID_167_" d="M2348.75,2751.25c-32.5,7.917 -58.75,31.25 -71.667,61.667l0.417,-0c14.167,-0 27.5,-5.417 37.083,-15.417c8.334,-8.75 25.417,-15.833 39.167,-20c12.083,-3.75 12.917,-21.25 0.833,-25.417c-1.25,-0.833 -3.75,-1.25 -5.833,-0.833Z" style="fill:#d35375;fill-rule:nonzero;"/><path id="XMLID_17_" d="M2469.17,2812.92c-13.75,-0 -26.25,-5.834 -35.834,-15.834c-15,-15.833 -35.833,-25.416 -59.166,-25.416c-22.917,-0 -43.334,9.166 -58.334,24.583c-10.416,10.417 -23.75,16.667 -38.333,16.667l-0.417,-0c15.834,-37.917 53.334,-64.584 97.084,-64.584c43.75,0 81.25,26.667 97.083,64.584l-2.083,-0Z" style="fill:none;fill-rule:nonzero;stroke:#4d4d61;stroke-width:12.5px;"/><circle id="XMLID_87_" cx="2812.08" cy="2853.33" r="81.667" style="fill:#56566d;"/><path id="XMLID_166_" d="M2767.92,2894.17c-0,-45 36.666,-81.667 81.666,-81.667c15,0 29.167,4.167 41.25,11.25c-12.083,-30.417 -41.666,-52.083 -76.25,-52.083c-45,-0 -81.666,36.666 -81.666,81.666c-0,30 16.25,56.25 40.416,70.417c-3.333,-9.167 -5.416,-19.167 -5.416,-29.583Z" style="fill:#66667c;fill-opacity:0.44;fill-rule:nonzero;"/><circle id="XMLID_86_" cx="2812.08" cy="2853.33" r="81.667" style="fill:none;stroke:#4d4d61;stroke-width:12.5px;"/><rect id="XMLID_57_" x="1282.5" y="2180" width="56.667" height="777.917" style="fill:none;stroke:#4d4d61;stroke-width:12.5px;"/><rect id="XMLID_69_" x="1282.5" y="2180" width="56.667" height="777.917" style="fill:#4d4d61;"/><circle id="XMLID_85_" cx="2812.08" cy="2853.33" r="40.417" style="fill:none;stroke:#4d4d61;stroke-width:12.5px;"/><path id="XMLID_14_" d="M2907.08,2812.92c-13.75,-0 -26.25,-5.834 -35.833,-15.834c-15,-15.833 -35.833,-25.416 -59.167,-25.416c-22.916,-0 -43.333,9.166 -58.333,24.583c-10.417,10.417 -23.75,16.667 -38.333,16.667l-0.417,-0c15.833,-37.917 53.333,-64.584 97.083,-64.584c43.75,0 81.25,26.667 97.084,64.584l-2.084,-0Z" style="fill:#ca4361;fill-rule:nonzero;"/><circle id="XMLID_84_" cx="2812.08" cy="2853.33" r="40.417" style="fill:#4d4d61;"/><path id="XMLID_16_" d="M2907.08,2812.92c-13.75,-0 -26.25,-5.834 -35.833,-15.834c-15,-15.833 -35.833,-25.416 -59.167,-25.416c-22.916,-0 -43.333,9.166 -58.333,24.583c-10.417,10.417 -23.75,16.667 -38.333,16.667l-0.417,-0c15.833,-37.917 53.333,-64.584 97.083,-64.584c43.75,0 81.25,26.667 97.084,64.584l-2.084,-0Z" style="fill:none;fill-rule:nonzero;stroke:#4d4d61;stroke-width:12.5px;"/><path id="XMLID_67_" d="M2240.83,2102.5l-1223.33,0c-10,0 -17.917,-7.917 -17.917,-17.917l0,-33.75c0,-10 7.917,-17.916 17.917,-17.916l1223.33,-0c10,-0 17.917,7.916 17.917,17.916l0,33.75c0,10 -7.917,17.917 -17.917,17.917Z" style="fill:#b98c78;fill-rule:nonzero;"/><path id="XMLID_124_" d="M1466.25,2071.25c-177.917,0 -337.917,12.083 -447.5,31.25l895.417,0c-110,-19.167 -270,-31.25 -447.917,-31.25Z" style="fill:#c9a08f;fill-rule:nonzero;"/><path id="XMLID_21_" d="M2240.83,2102.5l-1223.33,0c-10,0 -17.917,-7.917 -17.917,-17.917l0,-33.75c0,-10 7.917,-17.916 17.917,-17.916l1223.33,-0c10,-0 17.917,7.916 17.917,17.916l0,33.75c0,10 -7.917,17.917 -17.917,17.917Z" style="fill:none;fill-rule:nonzero;stroke:#4d4d61;stroke-width:12.5px;"/><path id="XMLID_45_" d="M2108.75,2191.67l-959.583,-0c-24.584,-0 -44.584,-20 -44.584,-44.584c0,-24.583 20,-44.583 44.584,-44.583l959.583,0c24.583,0 44.583,20 44.583,44.583c0,24.584 -20,44.584 -44.583,44.584Z" style="fill:none;fill-rule:nonzero;stroke:#4d4d61;stroke-width:12.5px;"/><path id="XMLID_68_" d="M2108.75,2191.67l-959.583,-0c-24.584,-0 -44.584,-20 -44.584,-44.584c0,-24.583 20,-44.583 44.584,-44.583l959.583,0c24.583,0 44.583,20 44.583,44.583c0,24.584 -20,44.584 -44.583,44.584Z" style="fill:#4d4d61;fill-rule:nonzero;"/><path id="XMLID_147_" d="M1504.17,2170.83c-137.084,0 -254.584,8.75 -306.25,20.834l612.5,-0c-51.667,-12.5 -169.167,-20.834 -306.25,-20.834Z" style="fill:#575770;fill-rule:nonzero;"/><circle id="XMLID_65_" cx="1521.25" cy="1937.92" r="27.083" style="fill:#83abba;"/><circle id="XMLID_55_" cx="1521.25" cy="1937.92" r="27.083" style="fill:none;stroke:#4d4d61;stroke-width:12.5px;"/><path id="XMLID_58_" d="M1513.33,1927.08l2.084,-0.416l-102.084,-567.084l-2.083,0.417c-19.583,3.75 -32.917,22.5 -29.167,42.083l89.167,495.834c3.333,19.583 22.083,32.5 42.083,29.166Z" style="fill:#92b4c3;fill-rule:nonzero;"/><path id="XMLID_75_" d="M1469.58,1889.17c0,-64.584 -5.833,-134.584 -18.75,-206.667c-13.333,-75.417 -32.916,-146.25 -56.25,-208.75l75,415.417Z" style="fill:#acd3e5;fill-rule:nonzero;"/><path id="XMLID_56_" d="M1513.33,1927.08l2.084,-0.416l-102.084,-567.084l-2.083,0.417c-19.583,3.75 -32.917,22.5 -29.167,42.083l89.167,495.834c3.333,19.583 22.083,32.5 42.083,29.166Z" style="fill:none;fill-rule:nonzero;stroke:#4d4d61;stroke-width:12.5px;"/><rect id="XMLID_59_" x="1948.33" y="2183.33" width="56.667" height="777.917" style="fill:none;stroke:#4d4d61;stroke-width:12.5px;"/><rect id="XMLID_70_" x="1948.33" y="2183.33" width="56.667" height="777.917" style="fill:#4d4d61;"/><path id="XMLID_63_" d="M1573.75,2003.75l520.833,0c25.417,0 46.25,-20.833 46.25,-46.25l0,-19.583l-613.333,-0l0,19.583c0,25.417 20.833,46.25 46.25,46.25Z" style="fill:#92b4c3;fill-rule:nonzero;"/><path id="XMLID_73_" d="M2094.58,1989.17l-520.833,-0c-25.417,-0 -46.25,-20.834 -46.25,-46.25l0,14.583c0,25.417 20.833,46.25 46.25,46.25l520.833,-0c25.417,-0 46.25,-20.833 46.25,-46.25l0,-14.583c0,25.416 -20.833,46.25 -46.25,46.25Z" style="fill:#83abba;fill-rule:nonzero;"/><path id="XMLID_44_" d="M1573.75,2003.75l520.833,0c25.417,0 46.25,-20.833 46.25,-46.25l0,-19.583l-613.333,-0l0,19.583c0,25.417 20.833,46.25 46.25,46.25Z" style="fill:none;fill-rule:nonzero;stroke:#4d4d61;stroke-width:12.5px;"/><rect id="XMLID_51_" x="1604.57" y="2003.41" width="459.167" height="29.167" style="fill:none;stroke:#4d4d61;stroke-width:12.5px;"/><rect id="XMLID_66_" x="1604.57" y="2003.41" width="459.167" height="29.167" style="fill:#4d4d61;"/><rect id="XMLID_52_" x="1834.99" y="1956.51" width="41.25" height="13.75" style="fill:none;stroke:#4d4d61;stroke-width:8.33px;"/><rect id="XMLID_54_" x="1776.2" y="1956.51" width="41.25" height="13.75" style="fill:none;stroke:#4d4d61;stroke-width:8.33px;"/><circle id="XMLID_53_" cx="1581.25" cy="1963.33" r="7.5" style="fill:none;stroke:#4d4d61;stroke-width:8.33px;"/><path id="XMLID_9_" d="M3050,1724.17c6.25,-47.917 -27.917,-91.667 -76.25,-96.25c-46.25,-4.584 -87.083,29.583 -93.333,75.833l-57.084,424.583c-2.5,19.167 10.834,36.667 30,39.167l50.417,6.667c19.167,2.5 36.667,-10.834 39.167,-30l8.333,-62.5c15.417,-114.584 43.75,-227.917 92.083,-332.917c2.917,-7.5 5.417,-15.833 6.667,-24.583Z" style="fill:#ca4361;fill-rule:nonzero;"/><path id="XMLID_158_" d="M2934.17,2081.67l-8.334,62.5c-2.083,14.583 -12.916,26.25 -26.666,29.166l4.583,0.417c19.167,2.5 36.667,-10.833 39.167,-30l8.333,-62.5c15.417,-114.583 43.75,-227.917 92.083,-332.917c3.334,-7.5 5.834,-15.833 7.084,-24.166c6.25,-47.917 -27.917,-91.667 -76.25,-96.25c-5.417,-0.417 -11.25,-0.417 -16.25,-0c48.333,5 82.5,48.75 76.25,96.25c-1.25,8.75 -3.75,16.666 -7.084,24.166" style="fill:#d35375;fill-rule:nonzero;"/><path id="XMLID_161_" d="M2880.42,1703.75l-44.167,329.167c38.333,-109.584 75.417,-227.5 75.417,-319.167c-0,-62.083 75.416,-82.917 96.25,-62.083c-13.75,-25.417 -57.5,-27.917 -81.25,-14.167c-25.834,14.583 -43.75,45.833 -46.25,66.25Z" style="fill:#d35375;fill-rule:nonzero;"/><path id="XMLID_109_" d="M3050,1724.17c6.25,-47.917 -27.917,-91.667 -76.25,-96.25c-46.25,-4.584 -87.083,29.583 -93.333,75.833l-57.084,424.583c-2.5,19.167 10.834,36.667 30,39.167l50.417,6.667c19.167,2.5 36.667,-10.834 39.167,-30l8.333,-62.5c15.417,-114.584 43.75,-227.917 92.083,-332.917c2.917,-7.5 5.417,-15.833 6.667,-24.583Z" style="fill:none;fill-rule:nonzero;stroke:#4d4d61;stroke-width:12.5px;"/><path id="XMLID_130_" d="M1620.83,2802.08l-285.833,-184.166c-5.417,-3.334 -6.667,-10.417 -3.333,-15.417l0.416,-0.833c3.334,-5.417 10.417,-6.667 15.417,-3.334l285.833,184.167c5.417,3.333 6.667,10.417 3.334,15.417l-0.417,0.833c-2.917,5 -10,6.667 -15.417,3.333Z" style="fill:#595d5c;fill-rule:nonzero;"/><path id="XMLID_96_" d="M1620.83,2802.08l-285.833,-184.166c-5.417,-3.334 -6.667,-10.417 -3.333,-15.417l0.416,-0.833c3.334,-5.417 10.417,-6.667 15.417,-3.334l285.833,184.167c5.417,3.333 6.667,10.417 3.334,15.417l-0.417,0.833c-2.917,5 -10,6.667 -15.417,3.333Z" style="fill:none;fill-rule:nonzero;stroke:#4d4d61;stroke-width:12.5px;"/><path id="XMLID_128_" d="M1651.25,2708.33l-1.25,-0.833c-14.167,2.5 -32.5,-1.667 -49.167,-12.5c-12.5,-7.917 -22.083,-18.75 -27.5,-29.167c-5,-9.583 -11.666,-18.333 -20.416,-24.166l-110.417,-74.584c-12.917,-8.75 -30,-10.416 -46.25,-5l-35.833,12.5c-12.084,4.167 -15.834,21.25 -6.25,27.5l276.666,178.334l24.584,-38.334c7.5,-12.083 5.833,-27.083 -4.167,-33.75Z" style="fill:#9b8462;fill-rule:nonzero;"/><path id="XMLID_127_" d="M1396.25,2562.08l-5.833,2.084c0.416,13.75 7.5,27.083 20,35.416l172.916,111.25c16.25,10.417 37.084,8.75 51.25,-2.916c-10.833,-1.25 -22.5,-5.417 -33.75,-12.5c-12.5,-7.917 -22.083,-18.75 -27.5,-29.167c-5,-9.583 -11.666,-18.333 -20.416,-24.167l-110.417,-74.583c-12.917,-9.583 -30,-11.25 -46.25,-5.417Z" style="fill:#e1c885;fill-opacity:0.74;fill-rule:nonzero;"/><path id="XMLID_125_" d="M1651.25,2708.33l-1.25,-0.833c-14.167,2.5 -32.5,-1.667 -49.167,-12.5c-12.5,-7.917 -22.083,-18.75 -27.5,-29.167c-5,-9.583 -11.666,-18.333 -20.416,-24.166l-110.417,-74.584c-12.917,-8.75 -30,-10.416 -46.25,-5l-35.833,12.5c-12.084,4.167 -15.834,21.25 -6.25,27.5l276.666,178.334l24.584,-38.334c7.5,-12.083 5.833,-27.083 -4.167,-33.75Z" style="fill:none;fill-rule:nonzero;stroke:#4d4d61;stroke-width:12.5px;"/><path id="XMLID_97_" d="M1524.58,2665.83l43.75,-8.333l-11.25,-12.5l-32.5,20.833Z" style="fill:none;fill-rule:nonzero;stroke:#4d4d61;stroke-width:12.5px;"/><path id="XMLID_136_" d="M1644.58,2549.58l-34.583,34.167l84.583,106.25l41.667,-34.583l-91.667,-105.834Z" style="fill:#92b4c3;fill-rule:nonzero;"/><path id="XMLID_145_" d="M1642.08,2552.08l-32.083,31.667l45.833,57.5c7.5,-10.833 12.084,-23.75 12.084,-37.5c-0,-20.833 -10,-39.583 -25.834,-51.667Z" style="fill:#9ec0cc;fill-rule:nonzero;"/><path id="XMLID_99_" d="M1644.58,2549.58l-34.583,34.167l84.583,106.25l41.667,-34.583l-91.667,-105.834Z" style="fill:none;fill-rule:nonzero;stroke:#4d4d61;stroke-width:12.5px;"/><path id="XMLID_141_" d="M2327.08,2685.42l26.25,41.25l121.667,-60.834l-25,-47.916l-122.917,67.5Z" style="fill:#92b4c3;fill-rule:nonzero;"/><path id="XMLID_160_" d="M2327.08,2685.42l26.25,41.25l121.667,-60.834l-25,-47.916l-122.917,67.5Z" style="fill:#92b4c3;fill-rule:nonzero;"/><path id="XMLID_165_" d="M2374.17,2690.42c-0,-9.167 -5,-17.084 -13.334,-23.75l-33.75,18.75l22.917,35.833c14.583,-7.083 24.167,-18.333 24.167,-30.833Z" style="fill:#9ec0cc;fill-rule:nonzero;"/><path id="XMLID_139_" d="M2327.08,2685.42l26.25,41.25l121.667,-60.834l-25,-47.916l-122.917,67.5Z" style="fill:none;fill-rule:nonzero;stroke:#4d4d61;stroke-width:12.5px;"/><ellipse id="XMLID_61_" cx="1987.5" cy="1687.08" rx="3.333" ry="5.417" style="fill:none;stroke:#4d4d61;stroke-width:8.33px;"/><path id="XMLID_168_" d="M1644.58,1983.75l-20.833,0c-5.417,0 -10,-4.583 -10,-10l0,-12.5c0,-5.417 4.583,-10 10,-10l20.833,0c5.417,0 10,4.583 10,10l0,12.5c0,5.417 -4.583,10 -10,10Z" style="fill:#4d4d61;fill-rule:nonzero;"/></g><g id="XMLID_143_"></g><g id="XMLID_117_"></g><g id="XMLID_13_"></g></svg>