<?xml version="1.0" encoding="UTF-8" standalone="no"?><!DOCTYPE svg PUBLIC "-//W3C//DTD SVG 1.1//EN" "http://www.w3.org/Graphics/SVG/1.1/DTD/svg11.dtd"><svg width="100%" height="100%" viewBox="0 0 4167 4167" version="1.1" xmlns="http://www.w3.org/2000/svg" xmlns:xlink="http://www.w3.org/1999/xlink" xml:space="preserve" xmlns:serif="http://www.serif.com/" style="fill-rule:evenodd;clip-rule:evenodd;stroke-linecap:round;stroke-linejoin:round;stroke-miterlimit:10;"><circle id="XMLID_84_" cx="2083.33" cy="2083.33" r="1286.25" style="fill:#fff;fill-opacity:0.35;"/><circle id="XMLID_31_" cx="2083.33" cy="2083.33" r="1566.67" style="fill:#fff;fill-opacity:0.15;"/><circle id="XMLID_27_" cx="2083.33" cy="2083.33" r="1286.25" style="fill:#fff;fill-opacity:0.2;"/><circle id="XMLID_2_" cx="2083.33" cy="2083.33" r="932.5" style="fill:#fff;"/><path id="XMLID_158_" d="M3551.25,2906.25c0,-48.75 -39.583,-88.75 -88.75,-88.75l-2852.92,0c-48.75,0 -88.75,39.583 -88.75,88.75c0,48.75 39.584,88.75 88.75,88.75l446.667,0c48.75,0 88.75,39.583 88.75,88.75c0,48.75 -39.583,88.75 -88.75,88.75l-108.75,-0c-48.75,-0 -88.75,39.583 -88.75,88.75c0,48.75 39.583,88.75 88.75,88.75l447.083,-0c48.75,-0 88.75,39.583 88.75,88.75c0,48.75 -39.583,88.75 -88.75,88.75l-91.666,-0c-48.75,-0 -88.75,39.583 -88.75,88.75c-0,48.75 39.583,88.75 88.75,88.75l1466.67,-0c48.75,-0 88.75,-39.583 88.75,-88.75c0,-48.75 -39.583,-88.75 -88.75,-88.75l-91.666,-0c-48.75,-0 -88.75,-39.583 -88.75,-88.75c-0,-48.75 39.583,-88.75 88.75,-88.75l447.083,-0c48.75,-0 88.75,-39.583 88.75,-88.75c0,-48.75 -39.583,-88.75 -88.75,-88.75l-108.75,-0c-48.75,-0 -88.75,-39.583 -88.75,-88.75c0,-48.75 39.583,-88.75 88.75,-88.75l446.667,0c48.75,0 88.333,-40 88.333,-88.75Z" style="fill:url(#_Linear1);fill-rule:nonzero;"/><g><path id="XMLID_15_" d="M2720.83,2325c127.084,11.25 254.167,0 381.25,-34.167c-19.166,-30.833 -22.916,-122.916 -7.916,-151.666c-35.834,-2.5 -37.5,-95 -27.5,-140.834c-51.25,-20.416 -87.084,-46.25 -93.334,-82.916c-37.916,-6.25 -61.25,-30 -74.166,-65.834c-38.75,65.834 -103.334,131.25 -173.334,196.667l-5,278.75Z" style="fill:#e04d2b;fill-rule:nonzero;"/><path id="XMLID_96_" d="M1977.08,1188.75l0,187.5c25.834,-32.917 65,-73.75 106.25,-67.917c36.667,5.417 46.667,43.75 77.917,49.584c27.917,5 73.333,-15.417 147.917,-142.084c-71.667,52.5 -111.25,52.5 -133.75,42.084c-42.917,-20 -37.917,-82.917 -82.084,-102.084c-36.25,-15.416 -82.083,8.75 -116.25,32.917Z" style="fill:#ef3f32;fill-rule:nonzero;"/><path id="XMLID_48_" d="M2637.08,2351.67c0,-0 -516.666,10.833 -1033.33,-93.75c72.083,-261.667 65.417,-640.834 65.417,-640.834c501.666,-52.5 732.5,-189.583 732.5,-189.583c-0,0 32.916,144.167 152.5,218.333c-20.417,107.5 14.583,182.084 82.916,266.667c-60.416,60.417 3.334,177.917 33.75,208.333c-62.5,62.5 -77.083,187.5 -33.75,230.834Z" style="fill:#e04d2b;fill-rule:nonzero;"/><path id="XMLID_65_" d="M1982.5,2316.67c256.25,-70 326.667,-222.084 326.667,-454.584c-0,-111.25 -45.417,-269.166 -96.25,-355.416c-120.417,40 -300,85.416 -543.334,110.833c0,0 6.667,379.167 -65.416,640.833c128.75,25.834 257.5,44.584 378.333,58.334Z" style="fill:#fa923d;fill-opacity:0.66;fill-rule:nonzero;"/><g id="XMLID_49_" opacity="0.3"><path id="XMLID_95_" d="M1780,1607.08c0,0 34.583,311.667 -78.333,669.167" style="fill:none;fill-rule:nonzero;stroke:#b22f22;stroke-width:8.33px;"/><path id="XMLID_94_" d="M1887.92,1586.67c-0,-0 11.666,355.416 -96.667,704.583" style="fill:none;fill-rule:nonzero;stroke:#b22f22;stroke-width:8.33px;"/><path id="XMLID_93_" d="M1993.75,1565.83c0,0 -26.25,442.5 -112.083,738.334" style="fill:none;fill-rule:nonzero;stroke:#b22f22;stroke-width:8.33px;"/><path id="XMLID_92_" d="M2110,1537.08c0,0 -47.083,507.917 -139.167,777.917" style="fill:none;fill-rule:nonzero;stroke:#b22f22;stroke-width:8.33px;"/><path id="XMLID_91_" d="M2227.92,1506.25c-0,0 -78.334,577.917 -163.75,818.75" style="fill:none;fill-rule:nonzero;stroke:#b22f22;stroke-width:8.33px;"/><path id="XMLID_90_" d="M2356.67,1453.75c-0,0 -122.917,672.083 -201.25,884.167" style="fill:none;fill-rule:nonzero;stroke:#b22f22;stroke-width:8.33px;"/><path id="XMLID_89_" d="M2451.25,1540.42c0,-0 -129.167,614.583 -200.417,797.5" style="fill:none;fill-rule:nonzero;stroke:#b22f22;stroke-width:8.33px;"/><path id="XMLID_88_" d="M2554.17,1645.83c-0,0 -146.667,552.084 -211.667,705.834" style="fill:none;fill-rule:nonzero;stroke:#b22f22;stroke-width:8.33px;"/><path id="XMLID_87_" d="M2599.58,1861.67c0,-0 -100.416,365.416 -158.333,490" style="fill:none;fill-rule:nonzero;stroke:#b22f22;stroke-width:8.33px;"/><path id="XMLID_86_" d="M2637.08,2070.83c0,0 -45,185.417 -95.833,281.25" style="fill:none;fill-rule:nonzero;stroke:#b22f22;stroke-width:8.33px;"/></g><path id="XMLID_9_" d="M2637.08,2351.67c0,-0 -516.666,10.833 -1033.33,-93.75c72.083,-261.667 65.417,-640.834 65.417,-640.834c501.666,-52.5 732.5,-189.583 732.5,-189.583" style="fill:none;fill-rule:nonzero;stroke:#5d1900;stroke-width:25px;"/><path id="XMLID_47_" d="M2637.08,2351.67c0,-0 -516.666,10.833 -1033.33,-93.75c72.083,-261.667 65.417,-640.834 65.417,-640.834c501.666,-52.5 732.5,-189.583 732.5,-189.583c-0,0 32.916,144.167 152.5,218.333c-20.417,107.5 14.583,182.084 82.916,266.667c-60.416,60.417 3.334,177.917 33.75,208.333c-62.5,62.5 -77.083,187.5 -33.75,230.834Z" style="fill:none;fill-rule:nonzero;stroke:#3a3736;stroke-width:25px;"/><path id="XMLID_10_" d="M2554.17,1645.83c-383.334,141.667 -888.75,157.5 -888.75,157.5" style="fill:none;fill-rule:nonzero;stroke:#3a3736;stroke-width:12.5px;"/><path id="XMLID_164_" d="M1970.42,1453.75l577.916,1022.08" style="fill:none;fill-rule:nonzero;stroke:#3a3736;stroke-width:4.17px;"/><path id="XMLID_168_" d="M1946.25,1998.75l-447.917,633.333" style="fill:none;fill-rule:nonzero;stroke:#3a3736;stroke-width:4.17px;"/><path id="XMLID_171_" d="M1956.67,1808.75l-758.75,747.083" style="fill:none;fill-rule:nonzero;stroke:#3a3736;stroke-width:4.17px;"/><path id="XMLID_165_" d="M1977.08,1376.25l779.167,1077.08" style="fill:none;fill-rule:nonzero;stroke:#3a3736;stroke-width:4.17px;"/><path id="XMLID_7_" d="M1969.58,1155.83c0,0 47.917,1047.92 -207.916,1512.08" style="fill:none;fill-rule:nonzero;stroke:#3a3736;stroke-width:25px;"/><g id="XMLID_19_"><path id="XMLID_38_" d="M2502.08,2544.17l-913.333,11.666l129.583,-60.416l652.5,-8.334l131.25,57.084Z" style="fill:#fc3a4d;fill-rule:nonzero;"/><path id="XMLID_17_" d="M2502.08,2544.17l-913.333,11.666l129.583,-60.416l652.5,-8.334l131.25,57.084Z" style="fill:none;fill-rule:nonzero;stroke:#3a3736;stroke-width:25px;"/><path id="XMLID_39_" d="M2433.31,2545.03l-775.755,9.841l1.559,122.905l775.756,-9.841l-1.56,-122.905Z" style="fill:#f0fafc;"/><path id="XMLID_18_" d="M2433.31,2545.03l-775.755,9.841l1.559,122.905l775.756,-9.841l-1.56,-122.905Z" style="fill:none;stroke:#3a3736;stroke-width:25px;"/><g id="XMLID_36_"><g id="XMLID_28_"><path id="XMLID_24_" d="M2108.66,2597.9l-126.238,1.601l0.925,72.91l126.238,-1.602l-0.925,-72.909Z" style="fill:none;stroke:#3a3736;stroke-width:25px;"/><path id="XMLID_23_" d="M1983.33,2672.08l-0.833,-72.5l126.25,-1.666l1.25,72.916" style="fill:none;fill-rule:nonzero;stroke:#3a3736;stroke-width:25px;"/></g><g id="XMLID_42_"><path id="XMLID_55_" d="M2108.66,2597.9l-126.238,1.601l0.925,72.91l126.238,-1.602l-0.925,-72.909Z" style="fill:#3a3736;"/><path id="XMLID_46_" d="M1983.33,2672.08l-0.833,-72.5l126.25,-1.666l1.25,72.916" style="fill:#3a3736;fill-rule:nonzero;"/></g><g id="XMLID_35_"><g id="XMLID_30_"><path id="XMLID_20_" d="M1893.25,2600.4l-126.238,1.602l0.925,72.909l126.237,-1.601l-0.924,-72.91Z" style="fill:none;stroke:#3a3736;stroke-width:25px;"/><path id="XMLID_21_" d="M1767.92,2674.58l-0.834,-72.5l126.25,-1.666l0.834,72.916" style="fill:none;fill-rule:nonzero;stroke:#3a3736;stroke-width:25px;"/></g><g id="XMLID_56_"><path id="XMLID_70_" d="M1893.25,2600.4l-126.238,1.602l0.925,72.909l126.237,-1.601l-0.924,-72.91Z" style="fill:#3a3736;"/><path id="XMLID_59_" d="M1767.92,2674.58l-0.834,-72.5l126.25,-1.666l0.834,72.916" style="fill:#3a3736;fill-rule:nonzero;"/></g><g id="XMLID_22_"><path id="XMLID_26_" d="M2324.91,2594.98l-126.237,1.602l0.925,72.909l126.237,-1.601l-0.925,-72.91Z" style="fill:none;stroke:#3a3736;stroke-width:25px;"/><path id="XMLID_25_" d="M2199.58,2669.17l-0.833,-72.917l126.25,-1.25l0.833,72.5" style="fill:none;fill-rule:nonzero;stroke:#3a3736;stroke-width:25px;"/></g><g id="XMLID_80_"><path id="XMLID_83_" d="M2324.91,2594.98l-126.237,1.602l0.925,72.909l126.237,-1.601l-0.925,-72.91Z" style="fill:#3a3736;"/><path id="XMLID_81_" d="M2199.58,2669.17l-0.833,-72.917l126.25,-1.25l0.833,72.5" style="fill:#3a3736;fill-rule:nonzero;"/></g></g></g></g><path id="XMLID_11_" d="M2637.08,1912.5c-325.416,58.333 -971.666,45.417 -971.666,45.417" style="fill:none;fill-rule:nonzero;stroke:#3a3736;stroke-width:12.5px;"/><path id="XMLID_12_" d="M1639.58,2083.33c30.417,30.417 889.584,79.167 1031.25,37.5" style="fill:none;fill-rule:nonzero;stroke:#3a3736;stroke-width:12.5px;"/><g id="XMLID_40_"><path id="XMLID_37_" d="M2970.83,2605c20.417,-86.667 35,-172.083 64.167,-253.75c-130,75 -207.083,92.083 -321.667,108.333c-55.833,7.917 -111.25,13.334 -165,15.834c-50,76.25 -92.083,133.333 -388.75,175.416c-239.166,34.167 -690.416,36.667 -1025.42,-117.5c83.333,209.584 244.583,346.25 411.666,382.5l1008.33,0c0.416,-151.25 220.416,-278.333 416.666,-310.833Z" style="fill:#28afaf;fill-rule:nonzero;"/><g id="XMLID_141_" opacity="0.46"><path id="XMLID_142_" d="M1261.25,2583.75c-43.75,-14.167 -86.25,-30.833 -127.083,-49.583c0.833,2.083 1.666,4.583 2.916,6.666c40,16.25 81.667,30.417 124.167,42.917Z" style="fill:#1c918e;fill-rule:nonzero;"/><path id="XMLID_143_" d="M2975.83,2383.75c-20,67.5 -27.916,116.25 -44.583,186.667c-196.25,32.5 -420.833,180.416 -421.25,332.5l-1008.33,-0c-5,-1.25 -10,-2.084 -15,-3.75c19.583,7.083 39.583,12.916 59.583,17.5l1008.33,-0c0.417,-152.084 220.417,-279.167 416.667,-311.667c20.417,-86.667 35,-172.083 64.167,-253.75c-21.25,12.5 -40.834,22.917 -59.584,32.5Z" style="fill:#1c918e;fill-opacity:0.6;fill-rule:nonzero;"/></g><path id="XMLID_54_" d="M2984.17,2545c-405,92.5 -679.584,110.833 -874.167,125.833c-15,2.5 66.25,-21.666 49.583,-19.166c-239.166,34.166 -690.416,36.666 -1025.42,-117.5c83.333,209.583 244.583,346.25 411.666,382.5l1008.33,-0c0.416,-152.084 220.416,-279.167 416.666,-311.667c4.584,-20 9.167,-40 13.334,-60Z" style="fill:#188c89;fill-opacity:0.17;fill-rule:nonzero;"/><path id="XMLID_126_" d="M1567.08,2690c-211.25,-31.667 -375,-91.25 -432.916,-155.833c83.333,209.583 244.583,346.25 411.666,382.5l1008.33,-0c0.416,-152.084 220.416,-279.167 416.666,-311.667c4.584,-20 9.167,-40 13.334,-60c-405,92.5 -743.334,150 -937.917,164.583c-155.417,10 -307.083,3.334 -442.083,-14.583" style="fill:none;fill-rule:nonzero;stroke:#3a3736;stroke-width:16.67px;"/><path id="XMLID_51_" d="M2205.83,2807.92c-362.916,23.333 -706.25,15.833 -955,-77.5c83.334,98.333 187.917,162.916 295,186.25l1008.33,-0c-0,-59.584 34.166,-115.417 87.083,-162.917c-136.667,25.833 -282.917,44.167 -435.417,54.167Z" style="fill:#2d5b72;fill-opacity:0.54;fill-rule:nonzero;"/><path id="XMLID_138_" d="M2177.5,2809.58c-155.833,8.75 -350.417,9.584 -487.917,3.334" style="fill:none;fill-rule:nonzero;stroke:#3a3736;stroke-width:16.67px;"/><path id="XMLID_139_" d="M2290.42,2802.08c-22.917,2.084 -53.75,3.75 -77.084,5.417" style="fill:none;fill-rule:nonzero;stroke:#3a3736;stroke-width:16.67px;"/><path id="XMLID_106_" d="M1657.5,2810.83c-151.25,-11.666 -289.583,-36.666 -406.667,-80.416c83.334,98.333 187.917,162.916 295,186.25l1008.33,-0c-0,-59.584 34.166,-115.417 87.083,-162.917c-100.417,19.167 -205.833,34.167 -315.417,44.583" style="fill:none;fill-rule:nonzero;stroke:#3a3736;stroke-width:16.67px;"/><path id="XMLID_14_" d="M2970.83,2605c20.417,-86.667 35,-172.083 64.167,-253.75c-130,75 -207.083,92.083 -321.667,108.333c-55.833,7.917 -111.25,13.334 -165,15.834c-50,76.25 -92.083,133.333 -388.75,175.416c-239.166,34.167 -690.416,36.667 -1025.42,-117.5c83.333,209.584 244.583,346.25 411.666,382.5l1008.33,0c0.416,-151.25 220.416,-278.333 416.666,-310.833Z" style="fill:none;fill-rule:nonzero;stroke:#3a3736;stroke-width:25px;"/></g><path id="XMLID_53_" d="M1282.5,2477.5l306.25,0c-37.917,-37.917 -42.917,-91.667 -19.583,-125.833c-48.334,-26.667 -58.334,-104.167 -34.167,-128.334c0,0 -32.917,-8.75 -57.083,-45c-40,-59.583 -18.334,-132.083 -18.334,-132.083c-122.083,5 -152.083,-70.833 -152.083,-70.833l-182.5,140.833c-0.417,0 157.5,142.917 157.5,361.25Z" style="fill:#e04d2b;fill-rule:nonzero;"/><path id="XMLID_133_" d="M1428.75,2477.5c2.5,-21.667 4.167,-43.75 4.167,-66.667c-0,-191.25 -96.25,-347.916 -219.167,-363.333l-89.167,68.75c0,0 157.917,142.917 157.917,361.25l146.25,0Z" style="fill:#fa923d;fill-opacity:0.66;fill-rule:nonzero;"/><g id="XMLID_41_" opacity="0.3"><path id="XMLID_72_" d="M1167.5,2083.33c0,0 197.917,179.167 203.333,394.167" style="fill:none;fill-rule:nonzero;stroke:#b22f22;stroke-width:8.33px;"/><path id="XMLID_77_" d="M1213.75,2047.5c0,0 199.167,134.167 245.417,428.333" style="fill:none;fill-rule:nonzero;stroke:#b22f22;stroke-width:8.33px;"/><path id="XMLID_108_" d="M1261.25,2010.83c0,0 225,142.917 273.333,467.084" style="fill:none;fill-rule:nonzero;stroke:#b22f22;stroke-width:8.33px;"/></g><path id="XMLID_64_" d="M1282.5,2477.5l306.25,0c-37.917,-37.917 -42.917,-91.667 -19.583,-125.833c-48.334,-26.667 -58.334,-104.167 -34.167,-128.334c0,0 -32.917,-8.75 -57.083,-45c-40,-59.583 -18.334,-132.083 -18.334,-132.083c-122.083,5 -152.083,-70.833 -152.083,-70.833l-182.5,140.833c-0.417,0 157.5,142.917 157.5,361.25Z" style="fill:none;fill-rule:nonzero;stroke:#3a3736;stroke-width:25px;"/><path id="XMLID_1_" d="M2908.33,2325.42c25,-41.25 39.584,-91.667 39.584,-146.25c-0,-101.667 -51.25,-189.584 -125.417,-229.584c-29.167,32.084 -62.5,64.584 -96.667,96.667l-5,278.75c62.5,5.833 125,5.833 187.5,0.417Z" style="fill:#fa923d;fill-opacity:0.66;fill-rule:nonzero;"/><g id="XMLID_57_" opacity="0.3"><path id="XMLID_122_" d="M2756.25,2017.5c0,0 38.75,225.833 12.5,310.417" style="fill:none;fill-rule:nonzero;stroke:#b22f22;stroke-width:8.33px;"/><path id="XMLID_130_" d="M2857.92,1908.33c-0,0 148.333,138.75 177.083,395.834" style="fill:none;fill-rule:nonzero;stroke:#b22f22;stroke-width:8.33px;"/><path id="XMLID_159_" d="M2786.25,1987.92c0,-0 71.667,140 71.667,341.666" style="fill:none;fill-rule:nonzero;stroke:#b22f22;stroke-width:8.33px;"/><path id="XMLID_162_" d="M2822.5,1949.58c0,0 106.667,170.417 131.25,370.834" style="fill:none;fill-rule:nonzero;stroke:#b22f22;stroke-width:8.33px;"/></g><path id="XMLID_29_" d="M2720.83,2325c127.084,11.25 254.167,0 381.25,-34.167c-19.166,-30.833 -22.916,-122.916 -7.916,-151.666c-35.834,-2.5 -37.5,-95 -27.5,-140.834c-51.25,-20.416 -87.084,-46.25 -93.334,-82.916c-37.916,-6.25 -61.25,-30 -74.166,-65.834c-38.75,65.834 -103.334,131.25 -173.334,196.667l-5,278.75Z" style="fill:none;fill-rule:nonzero;stroke:#3a3736;stroke-width:12.5px;"/><path id="XMLID_33_" d="M2724.17,2089.58c100.416,-56.666 181.25,-109.166 249.166,-173.75" style="fill:none;fill-rule:nonzero;stroke:#3a3736;stroke-width:12.5px;"/><path id="XMLID_79_" d="M2947.92,2916.67l11.25,-0" style="fill:none;fill-rule:nonzero;stroke:#3a3736;stroke-width:25px;"/><path id="XMLID_127_" d="M2786.25,2916.67l94.167,-0" style="fill:none;fill-rule:nonzero;stroke:#3a3736;stroke-width:25px;"/><path id="XMLID_129_" d="M1139.58,2916.67l1573.75,-0" style="fill:none;fill-rule:nonzero;stroke:#3a3736;stroke-width:25px;"/><path id="XMLID_97_" d="M999.583,2916.67l50.417,-0" style="fill:none;fill-rule:nonzero;stroke:#3a3736;stroke-width:25px;"/><g id="XMLID_5_" opacity="0.48"><path id="XMLID_118_" d="M2469.58,2981.25l90,0" style="fill:none;fill-rule:nonzero;stroke:#298589;stroke-width:25px;"/><path id="XMLID_99_" d="M2255.83,2981.25l152.917,0" style="fill:none;fill-rule:nonzero;stroke:#298589;stroke-width:25px;"/></g><g id="XMLID_67_"><path id="XMLID_103_" d="M2034.17,3097.92l32.083,-0" style="fill:none;fill-rule:nonzero;stroke:#3a3736;stroke-width:25px;"/><path id="XMLID_102_" d="M1882.08,3097.92l100,-0" style="fill:none;fill-rule:nonzero;stroke:#3a3736;stroke-width:25px;"/></g><path id="XMLID_8_" d="M1170,1998.75c0,0 215,292.5 159.583,605.417" style="fill:none;fill-rule:nonzero;stroke:#3a3736;stroke-width:25px;"/><path id="XMLID_121_" d="M1187.92,2191.67l270.833,-145.417" style="fill:none;fill-rule:nonzero;stroke:#3a3736;stroke-width:12.5px;"/><path id="XMLID_124_" d="M1243.33,2291.25l291.25,-67.5" style="fill:none;fill-rule:nonzero;stroke:#3a3736;stroke-width:12.5px;"/><path id="XMLID_125_" d="M1278.75,2391.25l286.667,-33.333" style="fill:none;fill-rule:nonzero;stroke:#3a3736;stroke-width:12.5px;"/><g id="XMLID_43_" opacity="0.62"><path id="XMLID_78_" d="M2005.83,2981.25l14.167,0" style="fill:none;fill-rule:nonzero;stroke:#3a3736;stroke-width:25px;"/><path id="XMLID_74_" d="M1894.17,2981.25l60,0" style="fill:none;fill-rule:nonzero;stroke:#3a3736;stroke-width:25px;"/><path id="XMLID_115_" d="M1498.33,2981.25l332.5,0" style="fill:none;fill-rule:nonzero;stroke:#3a3736;stroke-width:25px;"/><path id="XMLID_32_" d="M1432.5,2981.25l12.917,0" style="fill:none;fill-rule:nonzero;stroke:#3a3736;stroke-width:25px;"/></g><g id="XMLID_3_"><path id="XMLID_76_" d="M2412.92,3145l299.583,0" style="fill:none;fill-rule:nonzero;stroke:#3a3736;stroke-width:25px;"/><path id="XMLID_6_" d="M2309.58,3145l51.667,0" style="fill:none;fill-rule:nonzero;stroke:#3a3736;stroke-width:25px;"/><path id="XMLID_34_" d="M2227.08,3145l21.667,0" style="fill:none;fill-rule:nonzero;stroke:#3a3736;stroke-width:25px;"/></g><g id="XMLID_13_" opacity="0.59"><path id="XMLID_4_" d="M1948.33,3207.5l51.667,0" style="fill:none;fill-rule:nonzero;stroke:#3a3736;stroke-width:25px;"/><path id="XMLID_60_" d="M1641.25,3207.5l255.417,0" style="fill:none;fill-rule:nonzero;stroke:#3a3736;stroke-width:25px;"/></g><g id="XMLID_44_" opacity="0.59"><path id="XMLID_66_" d="M2340.83,3368.33l51.667,0" style="fill:none;fill-rule:nonzero;stroke:#3a3736;stroke-width:25px;"/><path id="XMLID_45_" d="M2166.67,3368.33l122.5,0" style="fill:none;fill-rule:nonzero;stroke:#3a3736;stroke-width:25px;"/></g><g id="XMLID_152_" opacity="0.59"><path id="XMLID_161_" d="M1865,3368.33l27.917,0" style="fill:none;fill-rule:nonzero;stroke:#3a3736;stroke-width:25px;"/><path id="XMLID_160_" d="M1754.17,3368.33l66.666,0" style="fill:none;fill-rule:nonzero;stroke:#3a3736;stroke-width:25px;"/></g><g id="XMLID_128_" opacity="0.33"><path id="XMLID_147_" d="M2009.58,3528.75l100.417,0" style="fill:none;fill-rule:nonzero;stroke:#3a3736;stroke-width:25px;"/><path id="XMLID_136_" d="M1672.08,3528.75l237.084,0" style="fill:none;fill-rule:nonzero;stroke:#3a3736;stroke-width:25px;"/></g><g id="XMLID_131_"><path id="XMLID_137_" d="M2857.92,2504.17c35.833,-5.417 71.25,-17.084 95.416,-28.75" style="fill:none;fill-rule:nonzero;stroke:#3a3736;stroke-width:12.5px;"/><path id="XMLID_135_" d="M2589.17,2545c-0,0 124.166,-9.167 226.666,-30.833" style="fill:none;fill-rule:nonzero;stroke:#3a3736;stroke-width:12.5px;"/></g><path id="XMLID_111_" d="M2724.17,2257.5c139.166,0 290,-45.833 370,-117.917" style="fill:none;fill-rule:nonzero;stroke:#3a3736;stroke-width:12.5px;"/><path id="XMLID_119_" d="M2720.83,2186.67c116.25,-30 232.917,-90.417 345.834,-188.334" style="fill:none;fill-rule:nonzero;stroke:#3a3736;stroke-width:12.5px;"/><path id="XMLID_62_" d="M2810.83,1926.25c0,0 -35.416,297.5 -21.25,521.25" style="fill:none;fill-rule:nonzero;stroke:#3a3736;stroke-width:25px;"/></g><defs><linearGradient id="_Linear1" x1="0" y1="0" x2="1" y2="0" gradientUnits="userSpaceOnUse" gradientTransform="matrix(7.66289e-14,-1251.45,1251.45,7.66289e-14,2036.14,4135.08)"><stop offset="0" style="stop-color:#7fd8e0;stop-opacity:0"/><stop offset="1" style="stop-color:#7fd8e0;stop-opacity:1"/></linearGradient></defs></svg>