<svg xmlns="http://www.w3.org/2000/svg" viewBox="0 0 500 500"><g id="freepik--background-complete--inject-2"><rect x="131.26" y="292.81" width="88.03" height="67.9" transform="translate(350.56 653.52) rotate(180)" style="fill:#f5f5f5"></rect><path d="M153.32,360.23c.12,0,.22-15.14.22-33.8s-.1-33.8-.22-33.8-.22,15.13-.22,33.8S153.2,360.23,153.32,360.23Z" style="fill:#ebebeb"></path><rect x="138.73" y="345.25" width="6.75" height="7.63" transform="translate(284.2 698.13) rotate(180)" style="fill:#fafafa"></rect><rect x="182.44" y="292.98" width="10" height="14.49" style="fill:#ebebeb"></rect><rect x="182.44" y="346.02" width="10" height="14.49" style="fill:#ebebeb"></rect><rect x="37.6" y="404.67" width="88.03" height="67.9" transform="translate(163.23 877.23) rotate(180)" style="fill:#f5f5f5"></rect><path d="M59.66,472.08c.12,0,.22-15.13.22-33.8s-.1-33.8-.22-33.8-.22,15.13-.22,33.8S59.54,472.08,59.66,472.08Z" style="fill:#ebebeb"></path><rect x="45.07" y="457.11" width="6.75" height="7.63" transform="translate(96.88 921.85) rotate(180)" style="fill:#fafafa"></rect><rect x="88.78" y="404.84" width="10" height="14.49" style="fill:#ebebeb"></rect><rect x="88.78" y="457.87" width="10" height="14.49" style="fill:#ebebeb"></rect><rect x="368.46" y="384.8" width="113.79" height="87.76" transform="translate(850.7 857.36) rotate(180)" style="fill:#ebebeb"></rect><path d="M397,471.94c.16,0,.29-19.56.29-43.68s-.13-43.7-.29-43.7-.28,19.56-.28,43.7S396.81,471.94,397,471.94Z" style="fill:#e0e0e0"></path><rect x="378.1" y="452.59" width="8.72" height="9.86" transform="translate(764.93 915.04) rotate(180)" style="fill:#fafafa"></rect><rect x="434.6" y="385.03" width="12.92" height="18.73" style="fill:#e0e0e0"></rect><rect x="434.6" y="453.58" width="12.92" height="18.73" style="fill:#e0e0e0"></rect><rect x="110.67" y="360.65" width="145.32" height="112.08" style="fill:#ebebeb"></rect><path d="M219.58,472c-.16,0-.29-25-.29-55.8s.13-55.8.29-55.8.29,25,.29,55.8S219.74,472,219.58,472Z" style="fill:#e0e0e0"></path><rect x="232.53" y="447.23" width="11.14" height="12.59" style="fill:#fafafa"></rect><rect x="155" y="360.94" width="16.51" height="23.92" style="fill:#e0e0e0"></rect><rect x="155" y="448.49" width="16.51" height="23.92" style="fill:#e0e0e0"></rect><rect x="375.15" y="44.32" width="86.25" height="125.02" style="fill:#e0e0e0"></rect><rect x="370.82" y="44.32" width="86.25" height="125.02" style="fill:#f5f5f5"></rect><rect x="381.54" y="57.86" width="64.82" height="97.94" style="fill:#fff"></rect><path d="M446.36,155.8s0-.17,0-.48,0-.78,0-1.39c0-1.23,0-3,0-5.37,0-4.69,0-11.53-.06-20.17,0-17.27-.06-41.73-.11-70.53l.22.22-64.81,0h0l.24-.24c0,37,0,71,0,97.94l-.19-.19,47.18.1,13,0,3.42,0,1.18,0-1.14,0-3.39,0-13,0-47.3.1h-.19v-.19c0-26.93,0-61,0-97.94v-.23h.24l64.81,0h.22v.21c0,28.86-.08,53.36-.1,70.67,0,8.62-.05,15.44-.06,20.12,0,2.32,0,4.11,0,5.33,0,.6,0,1.05,0,1.37S446.36,155.8,446.36,155.8Z" style="fill:#e0e0e0"></path><path d="M457.32,44.32a15.12,15.12,0,0,1-1.54,2.24c-1,1.34-2.42,3.16-4,5.13s-3.14,3.72-4.26,5a14.26,14.26,0,0,1-1.9,1.93,16.15,16.15,0,0,1,1.65-2.15l4.15-5,4.15-5A17.22,17.22,0,0,1,457.32,44.32Z" style="fill:#e0e0e0"></path><path d="M446.69,155.48A79.87,79.87,0,0,0,458,169.62" style="fill:#fff"></path><path d="M458,169.62a11.69,11.69,0,0,1-2-1.79c-1.15-1.17-2.69-2.85-4.26-4.81A59.87,59.87,0,0,1,448,157.8a12.57,12.57,0,0,1-1.32-2.32,18.25,18.25,0,0,1,1.59,2.14c1,1.33,2.29,3.16,3.85,5.11s3,3.65,4.14,4.87A19.2,19.2,0,0,1,458,169.62Z" style="fill:#e0e0e0"></path><path d="M370.81,169.24l11.3-13.94" style="fill:#fff"></path><path d="M382.11,155.3a86.85,86.85,0,0,1-5.47,7.12,86.25,86.25,0,0,1-5.83,6.82,86.85,86.85,0,0,1,5.47-7.12A88.53,88.53,0,0,1,382.11,155.3Z" style="fill:#e0e0e0"></path><path d="M370.82,44.32a76.89,76.89,0,0,1,5.49,6.56,72.64,72.64,0,0,1,5.11,6.85,80.33,80.33,0,0,1-5.48-6.56A77.9,77.9,0,0,1,370.82,44.32Z" style="fill:#e0e0e0"></path><rect x="404.46" y="77.75" width="21.7" height="61.62" style="fill:#e0e0e0"></rect><rect x="63.73" y="44.32" width="86.25" height="125.02" style="fill:#e0e0e0"></rect><rect x="59.41" y="44.32" width="86.25" height="125.02" style="fill:#f5f5f5"></rect><rect x="70.13" y="57.86" width="64.82" height="97.94" style="fill:#fff"></rect><path d="M135,155.8s0-.17,0-.48,0-.78,0-1.39c0-1.23,0-3,0-5.37,0-4.69,0-11.53-.06-20.17,0-17.27-.06-41.73-.11-70.53l.22.22-64.81,0h0l.23-.24c0,37,0,71,0,97.94l-.19-.19,47.18.1,13,0,3.43,0,1.18,0-1.15,0-3.38,0-13,0-47.3.1h-.19v-.19c0-26.93,0-61,0-97.94v-.23h.25l64.81,0h.21v.21c0,28.86-.08,53.36-.1,70.67,0,8.62-.05,15.44-.06,20.12,0,2.32,0,4.11,0,5.33,0,.6,0,1.05,0,1.37S135,155.8,135,155.8Z" style="fill:#e0e0e0"></path><path d="M145.91,44.32a15.12,15.12,0,0,1-1.54,2.24c-1,1.34-2.43,3.16-4.05,5.13s-3.14,3.72-4.26,5a14.26,14.26,0,0,1-1.9,1.93,16.15,16.15,0,0,1,1.65-2.15l4.15-5,4.15-5A16.18,16.18,0,0,1,145.91,44.32Z" style="fill:#e0e0e0"></path><path d="M135.28,155.48a80.27,80.27,0,0,0,11.3,14.14" style="fill:#fff"></path><path d="M146.58,169.62a12.41,12.41,0,0,1-2-1.79,63.93,63.93,0,0,1-8-10,12.82,12.82,0,0,1-1.31-2.32,18.25,18.25,0,0,1,1.59,2.14c.95,1.33,2.29,3.16,3.84,5.11s3,3.65,4.14,4.87A16.54,16.54,0,0,1,146.58,169.62Z" style="fill:#e0e0e0"></path><path d="M59.4,169.24,70.7,155.3" style="fill:#fff"></path><path d="M70.7,155.3a86.85,86.85,0,0,1-5.47,7.12,86.25,86.25,0,0,1-5.83,6.82,86.85,86.85,0,0,1,5.47-7.12A88.53,88.53,0,0,1,70.7,155.3Z" style="fill:#e0e0e0"></path><path d="M59.41,44.32a76.89,76.89,0,0,1,5.49,6.56A77.16,77.16,0,0,1,70,57.73a80.33,80.33,0,0,1-5.48-6.56A77.9,77.9,0,0,1,59.41,44.32Z" style="fill:#e0e0e0"></path><rect x="93.05" y="77.75" width="21.7" height="61.62" style="fill:#e0e0e0"></rect><rect x="226.86" y="44.34" width="71.96" height="75.01" style="fill:#e0e0e0"></rect><rect x="221.99" y="44.34" width="71.96" height="75.01" style="fill:#fafafa"></rect><path d="M294,119.38H222V44.32h72Zm-72,0h71.92v-75H222Z" style="fill:#e0e0e0"></path><rect x="231.66" y="54.43" width="52.61" height="54.84" style="fill:#fff"></rect><path d="M231.66,109.64a8,8,0,0,1-1.29,1.51c-.84.88-2,2.08-3.35,3.39s-2.54,2.46-3.44,3.29a7.73,7.73,0,0,1-1.52,1.26,9.59,9.59,0,0,1,1.3-1.5c.84-.89,2-2.09,3.35-3.4s2.54-2.47,3.44-3.29A8.12,8.12,0,0,1,231.66,109.64Z" style="fill:#e0e0e0"></path><path d="M284.28,109.5a8.86,8.86,0,0,1,1.51,1.3c.88.84,2.08,2,3.39,3.35s2.46,2.54,3.29,3.43a9.54,9.54,0,0,1,1.27,1.52,8,8,0,0,1-1.51-1.29c-.88-.84-2.09-2-3.4-3.35s-2.47-2.55-3.29-3.44A8,8,0,0,1,284.28,109.5Z" style="fill:#e0e0e0"></path><path d="M284.13,54.57a8.86,8.86,0,0,1,1.3-1.51c.84-.88,2-2.08,3.35-3.39s2.54-2.46,3.43-3.29a7.93,7.93,0,0,1,1.53-1.26,9.59,9.59,0,0,1-1.3,1.5c-.84.89-2,2.09-3.35,3.4s-2.54,2.47-3.44,3.29A7.61,7.61,0,0,1,284.13,54.57Z" style="fill:#e0e0e0"></path><path d="M231.52,54.71a8.86,8.86,0,0,1-1.51-1.3c-.89-.84-2.09-2-3.39-3.34s-2.46-2.54-3.29-3.44a9.54,9.54,0,0,1-1.27-1.52,8,8,0,0,1,1.51,1.29c.88.84,2.09,2,3.39,3.35s2.48,2.55,3.3,3.45A7.76,7.76,0,0,1,231.52,54.71Z" style="fill:#e0e0e0"></path><path d="M284.13,109.27s0-.09,0-.26,0-.44,0-.77c0-.69,0-1.68,0-3,0-2.6,0-6.38-.06-11.18,0-9.6-.06-23.29-.1-39.67l.2.2-52.46,0h0l.24-.23c0,20.13,0,39,0,54.84l-.21-.2,38,.1,10.67.06,2.82,0h1s-.07,0-.23,0l-.71,0-2.78,0-10.63.05-38.12.1h-.19v-.2c0-15.88,0-34.71,0-54.84v-.24h.24l52.46,0h.21v.21c0,16.44-.08,30.17-.11,39.8,0,4.78,0,8.55-.05,11.13,0,1.27,0,2.25,0,2.93,0,.31,0,.56,0,.74A1,1,0,0,1,284.13,109.27Z" style="fill:#e0e0e0"></path><rect x="249.19" y="73.07" width="17.56" height="17.56" style="fill:#ebebeb"></rect></g><g id="freepik--Plant--inject-2"><path d="M400.27,435.53s-5.42-37.25-5-58.92,0-46.05,0-46.05h2.5s-1.69,43,.15,69,6.68,36,6.68,36h-4.33" style="fill:#263238"></path><path d="M416.41,288.64a6.61,6.61,0,0,0-2.28-3.33c-1.58-1-3.66-.58-5.43,0-7.54,2.67-14.23,16.73-17.28,24.13l10,33.75C419.52,326.46,422.65,304.46,416.41,288.64Z" style="fill:#455a64"></path><path d="M413.55,286.68a2.36,2.36,0,0,1-.15.44l-.49,1.23c-.44,1.06-1.05,2.6-1.79,4.52-1.48,3.83-3.35,9.19-5,15.23s-2.83,11.59-3.54,15.64c-.36,2-.62,3.66-.8,4.8-.08.53-.15,1-.21,1.3a2.31,2.31,0,0,1-.1.46,1.53,1.53,0,0,1,0-.47c0-.34.08-.78.14-1.31.12-1.15.34-2.8.66-4.83a144.15,144.15,0,0,1,8.59-30.93c.77-1.9,1.43-3.43,1.91-4.48l.57-1.2C413.46,286.81,413.53,286.67,413.55,286.68Z" style="fill:#263238"></path><path d="M397,351.32c-9.39-5.19-14.92-14.95-15.44-25.66-.36-7.49,1.94-14.84,4.55-21.87a2.75,2.75,0,0,1,1.06-1.58,2.68,2.68,0,0,1,2.56.4c6.82,3.88,10.95,11.29,13.15,18.82a38.18,38.18,0,0,1,1.55,15.48A25.74,25.74,0,0,1,397,351.32" style="fill:#455a64"></path><path d="M397,351.32a1.48,1.48,0,0,1,0-.45c0-.35,0-.77,0-1.3,0-1.12-.05-2.75-.14-4.76A131.32,131.32,0,0,0,395,329.23c-1-6.05-2.3-11.46-3.23-15.37-.46-1.92-.84-3.49-1.11-4.64-.12-.51-.22-.93-.29-1.26a1.82,1.82,0,0,1-.08-.45,1.72,1.72,0,0,1,.16.43c.09.33.21.74.36,1.24.31,1.09.74,2.66,1.24,4.61,1,3.89,2.31,9.3,3.36,15.37a114.46,114.46,0,0,1,1.63,15.64c.05,2,.05,3.65,0,4.77,0,.53,0,1-.06,1.3A2,2,0,0,1,397,351.32Z" style="fill:#263238"></path><g style="opacity:0.30000000000000004"><path d="M397,351.32c-9.39-5.19-14.92-14.95-15.44-25.66-.36-7.49,1.94-14.84,4.55-21.87a2.75,2.75,0,0,1,1.06-1.58,2.68,2.68,0,0,1,2.56.4c6.82,3.88,10.95,11.29,13.15,18.82a38.18,38.18,0,0,1,1.55,15.48A25.74,25.74,0,0,1,397,351.32"></path></g><path d="M407.58,408.31c9.24,2,16.85,8.55,25.76,11.72,5.9,2.1,12.56,2.84,17.27,7-1.13-2.85-3.81-4.75-6.41-6.38a114.77,114.77,0,0,0-23.35-11.14c-4.19-1.45-8.74-2.66-13-1.47" style="fill:#455a64"></path><path d="M394.22,416.55c-11.57-.19-23.75-10-35.27-10.63,12.05-3.89,29.31-.71,35.27,10.63" style="fill:#455a64"></path><path d="M398.74,388.79c5.88-2.12,12.33-2.22,18.5-1.26s12.13,2.94,18.06,4.91c-.6-4-3.85-7-6.9-9.71a48.67,48.67,0,0,0-7.25-5.57,16.17,16.17,0,0,0-8.7-2.45,13.75,13.75,0,0,0-9.6,4.83,16,16,0,0,0-4.11,9.25" style="fill:#455a64"></path><path d="M375,376c-7.28-6.21-18.31-5.61-27.89-5.39a227.38,227.38,0,0,1,43.26,26.95C390.75,390.8,384.19,383.87,375,376Z" style="fill:#455a64"></path><g style="opacity:0.30000000000000004"><path d="M375,376c-7.28-6.21-18.31-5.61-27.89-5.39a227.38,227.38,0,0,1,43.26,26.95C390.75,390.8,384.19,383.87,375,376Z"></path></g><path d="M402,367.43a80.53,80.53,0,0,1,11.2-6.51c3.83-1.74,7.41-4.52,11.11-6.52,4.8-2.6,9-6.22,13.37-9.44s9.25-6.13,14.64-7a28.64,28.64,0,0,0-13.32.77,85.61,85.61,0,0,0-12.54,4.87c-5.69,2.56-11.47,5.19-16.11,9.34s-8.84,8.26-8.35,14.47" style="fill:#455a64"></path><path d="M433.13,416.55a1.87,1.87,0,0,1-.37-.16l-1-.53c-.87-.46-2.12-1.15-3.7-1.94-.78-.41-1.64-.84-2.58-1.28s-1.93-.92-3-1.38a44.72,44.72,0,0,0-7.13-2.48,15.25,15.25,0,0,0-7.42-.19,22.4,22.4,0,0,0-3.14.94,16.42,16.42,0,0,0-5.73,3.94c-.67.72-1,1.16-1,1.14a1.33,1.33,0,0,1,.21-.34,9.51,9.51,0,0,1,.7-.91,14.87,14.87,0,0,1,3.15-2.77,15.08,15.08,0,0,1,2.57-1.37,21.18,21.18,0,0,1,3.18-1,15.51,15.51,0,0,1,7.61.16,43,43,0,0,1,7.18,2.53c1.07.48,2.08.95,3,1.42s1.8.9,2.57,1.33c1.56.83,2.79,1.56,3.64,2.06l1,.59A1.37,1.37,0,0,1,433.13,416.55Z" style="fill:#263238"></path><path d="M385.59,410.81a2.47,2.47,0,0,1,.72.21,18.65,18.65,0,0,1,1.89.82,22.88,22.88,0,0,1,9.67,9.29,16.84,16.84,0,0,1,.89,1.85,2.48,2.48,0,0,1,.24.72c-.06,0-.5-.95-1.39-2.42a25.91,25.91,0,0,0-4.17-5.22,26.22,26.22,0,0,0-5.38-4C386.56,411.27,385.56,410.88,385.59,410.81Z" style="fill:#263238"></path><path d="M360,375.43a3.12,3.12,0,0,1,.49.15l1.39.49,2.19.81c.85.32,1.78.79,2.83,1.25A66.67,66.67,0,0,1,382,387.72a74.6,74.6,0,0,1,7,6.92,76.66,76.66,0,0,1,5,6.32c1.32,1.87,2.33,3.43,3,4.51l.79,1.24a2.38,2.38,0,0,1,.26.45,3.31,3.31,0,0,1-.32-.4c-.21-.27-.5-.68-.86-1.2-.73-1.06-1.77-2.59-3.11-4.43s-3-4-5-6.24a77.55,77.55,0,0,0-7-6.85,70.72,70.72,0,0,0-14.92-9.65c-1-.48-2-1-2.8-1.3l-2.16-.87-1.36-.56A2.57,2.57,0,0,1,360,375.43Z" style="fill:#263238"></path><path d="M416.1,382.28a3.72,3.72,0,0,1-.92-.11l-1.06-.2c-.42-.08-.9-.08-1.42-.14a14.3,14.3,0,0,0-11.57,4.26A16.41,16.41,0,0,0,398.8,389a23.56,23.56,0,0,0-1.59,3,3.43,3.43,0,0,1,.23-.9,13.08,13.08,0,0,1,1.11-2.29,15.7,15.7,0,0,1,2.3-3,14.41,14.41,0,0,1,3.7-2.78,14.11,14.11,0,0,1,8.17-1.5c.53.08,1,.1,1.44.2l1.06.27A4.41,4.41,0,0,1,416.1,382.28Z" style="fill:#263238"></path><path d="M427.73,346.21a2.58,2.58,0,0,1-.44.27l-1.29.7c-1.12.61-2.73,1.5-4.7,2.65s-4.25,2.61-6.7,4.36a56.39,56.39,0,0,0-7.48,6.28,18.67,18.67,0,0,0-3.07,4c-.75,1.45-1.48,2.86-2.14,4.21a76.38,76.38,0,0,0-3.22,7.32,44.92,44.92,0,0,0-1.56,5.15c-.3,1.24-.41,1.94-.45,1.93a3.8,3.8,0,0,1,.05-.51c0-.33.11-.83.24-1.45a36.93,36.93,0,0,1,1.45-5.22,70,70,0,0,1,3.14-7.39c.66-1.36,1.38-2.77,2.14-4.23a18.8,18.8,0,0,1,3.12-4.06,54.15,54.15,0,0,1,7.56-6.3c2.47-1.74,4.8-3.16,6.78-4.3s3.62-2,4.77-2.54l1.33-.64A2.44,2.44,0,0,1,427.73,346.21Z" style="fill:#263238"></path><path d="M395.29,381.24a4.24,4.24,0,0,1-.23-1c-.14-.72-.31-1.61-.51-2.68a74.27,74.27,0,0,0-2.19-8.68,76.55,76.55,0,0,0-3.3-8.32l-1.13-2.48a4.66,4.66,0,0,1-.37-.93,4.06,4.06,0,0,1,.51.86c.31.56.74,1.39,1.25,2.42a61.76,61.76,0,0,1,3.44,8.32,61,61,0,0,1,2.08,8.76c.18,1.14.31,2.06.38,2.7A4.68,4.68,0,0,1,395.29,381.24Z" style="fill:#263238"></path><path d="M394.45,354.92a31.34,31.34,0,0,0-3.76-12.49,41.27,41.27,0,0,0-27.95-20.85l25.87,38.57L392,367C394.23,363.29,394.74,359.29,394.45,354.92Z" style="fill:#455a64"></path><rect x="371.4" y="430.92" width="60.17" height="10.66" style="fill:#FF725E"></rect><polygon points="375.89 439.47 381.01 472.56 420.96 472.56 427.07 439.47 375.89 439.47" style="fill:#FF725E"></polygon><path d="M431.53,441.6c0,.12-13.57.21-30.31.21s-30.31-.09-30.31-.21,13.57-.21,30.31-.21S431.53,441.49,431.53,441.6Z" style="fill:#263238"></path></g><g id="freepik--Floor--inject-2"><path d="M473.14,472.46c0,.08-99.91.15-223.13.15s-223.15-.07-223.15-.15,99.89-.16,223.15-.16S473.14,472.37,473.14,472.46Z" style="fill:#263238"></path></g><g id="freepik--speech-bubble--inject-2"><circle cx="74" cy="85.42" r="26.32" transform="translate(-22.47 144.29) rotate(-80.49)" style="fill:#fff"></circle><path d="M100.32,85.42a2,2,0,0,1,0-.42c0-.31,0-.72-.09-1.25,0-.28,0-.58-.06-.92s-.11-.7-.17-1.1A20.36,20.36,0,0,0,99.4,79a25.25,25.25,0,0,0-2.93-7A26.09,26.09,0,0,0,65.11,60.93a27.41,27.41,0,0,0-3.4,1.49,27.91,27.91,0,0,0-3.19,2.06,30.46,30.46,0,0,0-3,2.51A28.76,28.76,0,0,0,53,70a25.14,25.14,0,0,0-3.73,7.18,25.88,25.88,0,0,0,0,16.44A25.33,25.33,0,0,0,53,100.83a28.46,28.46,0,0,0,2.55,3,27.89,27.89,0,0,0,3,2.51,25.85,25.85,0,0,0,3.19,2.06,28.35,28.35,0,0,0,3.4,1.5A26.17,26.17,0,0,0,96.47,98.79a25,25,0,0,0,2.93-7,20.36,20.36,0,0,0,.55-2.71c.06-.39.14-.76.17-1.1s0-.64.06-.91c0-.53.07-.95.09-1.25a2.14,2.14,0,0,1,0-.43,2.35,2.35,0,0,1,0,.43c0,.31,0,.72,0,1.25l0,.93c0,.34-.09.7-.14,1.1a18.78,18.78,0,0,1-.52,2.74,24.87,24.87,0,0,1-2.87,7.07A26.46,26.46,0,0,1,78.9,111.49a26.72,26.72,0,0,1-14-1.12,28.55,28.55,0,0,1-3.47-1.52,26.44,26.44,0,0,1-3.26-2.09,30.19,30.19,0,0,1-3-2.55,30.88,30.88,0,0,1-2.6-3.08,25.76,25.76,0,0,1-3.81-7.32,26.38,26.38,0,0,1,0-16.78,25.76,25.76,0,0,1,3.81-7.32,28.56,28.56,0,0,1,2.61-3.07,27.92,27.92,0,0,1,3-2.56A29,29,0,0,1,61.48,62,28.47,28.47,0,0,1,65,60.48,26.39,26.39,0,0,1,90,64.35a26.24,26.24,0,0,1,6.69,7.56A24.7,24.7,0,0,1,99.59,79a18.78,18.78,0,0,1,.52,2.74c0,.4.11.77.14,1.11l0,.92q0,.8,0,1.26A2.21,2.21,0,0,1,100.32,85.42Z" style="fill:#263238"></path><path d="M66.89,79.45h3.8A3.23,3.23,0,0,1,74,76.2a3.07,3.07,0,0,1,3,2,3.36,3.36,0,0,1-.27,3.08c-.64,1.07-2.06,2-4.62,1.58V91.4h3.76v-5a7.34,7.34,0,0,0,5.28-7.17c0-5.56-5-6.86-7.13-6.86C72.38,72.34,66.82,72.74,66.89,79.45Z" style="fill:#263238"></path><rect x="72.09" y="93.17" width="3.82" height="3.57" style="fill:#263238"></rect><circle cx="101.2" cy="106.97" r="3.68" style="fill:#fff"></circle><path d="M104.88,107a8.43,8.43,0,0,1-.21-.87,3.65,3.65,0,0,0-1.35-1.9,3.45,3.45,0,1,0,0,5.55,3.69,3.69,0,0,0,1.35-1.9c.16-.55.16-.88.21-.88a1.92,1.92,0,0,1,0,.93,3.57,3.57,0,0,1-1.32,2.14,3.81,3.81,0,0,1-3.67.61,3.9,3.9,0,0,1,0-7.36,3.86,3.86,0,0,1,3.67.61,3.66,3.66,0,0,1,1.32,2.15A1.87,1.87,0,0,1,104.88,107Z" style="fill:#263238"></path></g><g id="freepik--mistery-box--inject-2"><rect x="278.93" y="264.68" width="14.92" height="210.37" style="fill:#e0e0e0"></rect><polygon points="278.93 288.37 293.85 291.87 293.85 280.06 278.86 277.55 278.93 288.37" style="opacity:0.30000000000000004"></polygon><polygon points="365.08 262.36 289.93 281.03 204.96 261.28 204.96 251.68 282.82 233.21 365.08 251.68 365.08 262.36" style="fill:#455a64"></polygon><path d="M365.08,262.36l-.38.12-1.12.31-4.32,1.12-16,4L290,281.28l-.06,0-.06,0-4.77-1.1-56.69-13.26-17.17-4.08-4.66-1.13-1.21-.31a2.56,2.56,0,0,1-.41-.12,1.87,1.87,0,0,1,.42.07l1.22.25,4.69,1,17.2,3.92,56.73,13.11,4.76,1.11h-.12l53.34-13.17,16-3.89,4.34-1,1.13-.26Z" style="fill:#263238"></path><path d="M365.08,253a1.87,1.87,0,0,1-.38.11l-1.14.29-4.38,1.05L343,258.24l-53.9,12.35-.06,0,0,0-3.94-.86-56.65-12.48-17.15-3.84-4.66-1.07-1.21-.29-.41-.12.42.07,1.22.24,4.68,1,17.19,3.68,56.68,12.33,3.94.87H289l53.94-12.21,16.23-3.61,4.4-1,1.15-.24A1.87,1.87,0,0,1,365.08,253Z" style="fill:#263238"></path><path d="M257.51,472.56l21.26-7.34L293,465l22.64,7.56s-15.19,7.57-30.26,7.57C271.78,480.13,257.51,472.56,257.51,472.56Z" style="fill:#e0e0e0"></path><path d="M293.8,465.57a5.45,5.45,0,0,1-1.89,1.45,11,11,0,0,1-11.1-.26,5.7,5.7,0,0,1-1.82-1.53c.06-.07.73.53,2,1.21a11.69,11.69,0,0,0,10.75.26C293,466.08,293.74,465.5,293.8,465.57Z" style="fill:#263238"></path><path d="M249,149.44a6,6,0,0,1-.87-1l-2.23-2.7c-1.88-2.29-4.49-5.44-7.42-8.88s-5.63-6.5-7.59-8.72l-2.32-2.63a7.06,7.06,0,0,1-.81-1,6.35,6.35,0,0,1,1,.87c.59.58,1.42,1.45,2.44,2.52,2,2.16,4.78,5.19,7.72,8.63s5.5,6.64,7.3,9c.91,1.18,1.63,2.14,2.11,2.81A6.24,6.24,0,0,1,249,149.44Z" style="fill:#263238"></path><path d="M290.4,95.38c.14,0,.26,11,.26,24.56s-.12,24.57-.26,24.57-.26-11-.26-24.57S290.25,95.38,290.4,95.38Z" style="fill:#263238"></path><path d="M347.85,120.37a7.89,7.89,0,0,1-.73,1.22c-.49.77-1.22,1.86-2.13,3.2-1.84,2.68-4.43,6.35-7.39,10.33s-5.73,7.52-7.77,10c-1,1.27-1.86,2.28-2.46,3a7.37,7.37,0,0,1-1,1,8.09,8.09,0,0,1,.81-1.17l2.32-3.06c2-2.59,4.68-6.16,7.64-10.13s5.6-7.6,7.51-10.23l2.27-3.1A7.34,7.34,0,0,1,347.85,120.37Z" style="fill:#263238"></path><path d="M266.11,130.72c-.13,0-1.57-4.49-3.2-10.11a106.06,106.06,0,0,1-2.71-10.26c.14,0,1.57,4.48,3.21,10.11S266.25,130.68,266.11,130.72Z" style="fill:#263238"></path><path d="M320.27,109.6a21.37,21.37,0,0,1-.91,3.07c-.61,1.87-1.46,4.45-2.34,7.32s-1.65,5.49-2.2,7.38a21.69,21.69,0,0,1-1,3,17.05,17.05,0,0,1,.61-3.14c.46-1.92,1.17-4.55,2.06-7.43s1.79-5.45,2.49-7.3A18.66,18.66,0,0,1,320.27,109.6Z" style="fill:#263238"></path><polygon points="219.93 167.34 287.36 160.9 356.03 167.34 287.81 174.86 219.93 167.34" style="fill:#FF725E"></polygon><polygon points="287.59 264.68 219.93 249.14 219.93 167.34 287.81 174.86 287.59 264.68" style="fill:#FF725E"></polygon><polygon points="356.03 249.88 287.13 264.68 287.81 174.86 356.03 167.34 356.03 249.88" style="fill:#FF725E"></polygon><path d="M309.65,207.29h6.5a5.38,5.38,0,0,1,5.68-5.34,5.26,5.26,0,0,1,5.1,3.22,5.44,5.44,0,0,1-.46,5.07c-1.11,1.75-3.53,3.34-7.91,2.59v14.1H325v-8.26s9-2.24,9-11.79c0-9.15-8.54-11.27-12.19-11.27C319,195.61,309.52,196.26,309.65,207.29Z" style="fill:#263238"></path><rect x="318.54" y="229.84" width="6.53" height="5.86" style="fill:#263238"></rect><path d="M239.51,207.46H246a5.4,5.4,0,0,1,5.68-5.35,5.26,5.26,0,0,1,5.1,3.23,5.45,5.45,0,0,1-.46,5.07c-1.11,1.74-3.53,3.33-7.91,2.59v14.1h6.43v-8.26s9-2.24,9-11.8c0-9.14-8.54-11.26-12.19-11.26C248.9,195.78,239.38,196.43,239.51,207.46Z" style="fill:#263238"></path><rect x="248.4" y="230.01" width="6.53" height="5.86" style="fill:#263238"></rect><polygon points="287.13 264.68 219.93 249.14 219.93 167.34 287.81 174.86 287.13 264.68" style="opacity:0.30000000000000004"></polygon><path d="M356,167.35l-.34.06-1,.13-3.89.47-14.4,1.67-48.56,5.44.23-.26c0,3.39-.05,7-.08,10.59-.19,21.87-.37,41.67-.5,56-.09,7.14-.16,12.94-.21,17,0,2-.07,3.54-.09,4.62,0,.51,0,.9,0,1.2a2.18,2.18,0,0,1,0,.41,2.18,2.18,0,0,1,0-.41c0-.3,0-.69,0-1.2,0-1.09,0-2.64,0-4.62,0-4,0-9.83.05-17,.09-14.36.22-34.16.35-56,0-3.63.06-7.2.09-10.59v-.23l.23,0,48.57-5.26,14.42-1.51,3.89-.38,1-.09A1.33,1.33,0,0,1,356,167.35Z" style="fill:#263238"></path><path d="M256.47,163.85c0-.14,15.39,1.29,34.33,3.19s34.28,3.57,34.27,3.72-15.38-1.29-34.33-3.2S256.46,164,256.47,163.85Z" style="fill:#263238"></path></g><g id="freepik--Character--inject-2"><path d="M126.83,99.46a88.39,88.39,0,0,1-4-14.68,30.8,30.8,0,0,1,1-15c.26-.73,2.49-5.6,3.26-5.53.54,0-.81,4.58-.53,5,2.7,4.51,3.49,10,3.13,15.2a69.22,69.22,0,0,1-2.86,15" style="fill:#263238"></path><path d="M127,125.5l-.92-45.42c-.57-12.73,6.36-23.67,19.1-23.89l1.18.05A22.79,22.79,0,0,1,168.2,78.11c.43,11,.77,23.23.45,29.13-.66,12.21-13,13.6-13,13.6s0,1.09,0,4.67l-18.42,10.33-4.4-.41Z" style="fill:#ae7461"></path><path d="M155.7,120.84A29.5,29.5,0,0,1,140,115.48s3.45,9.35,15.69,8.75Z" style="fill:#6f4439"></path><path d="M164,89a1.76,1.76,0,0,1-1.76,1.69,1.67,1.67,0,0,1-1.73-1.65,1.74,1.74,0,0,1,1.75-1.69A1.68,1.68,0,0,1,164,89Z" style="fill:#263238"></path><path d="M165.38,83.39c-.23.22-1.51-.81-3.39-.88s-3.29.81-3.48.57.14-.51.75-.92a4.85,4.85,0,0,1,2.81-.74,4.59,4.59,0,0,1,2.68,1C165.31,82.88,165.49,83.3,165.38,83.39Z" style="fill:#263238"></path><path d="M147,89a1.75,1.75,0,0,1-1.75,1.69,1.67,1.67,0,0,1-1.73-1.65,1.74,1.74,0,0,1,1.75-1.69A1.66,1.66,0,0,1,147,89Z" style="fill:#263238"></path><path d="M147.36,83.39c-.23.22-1.51-.81-3.39-.88s-3.29.81-3.48.57.13-.51.76-.92a4.79,4.79,0,0,1,2.8-.74,4.59,4.59,0,0,1,2.68,1C147.29,82.88,147.47,83.3,147.36,83.39Z" style="fill:#263238"></path><path d="M153.09,97.77a12.26,12.26,0,0,1,3.08-.42c.48,0,.93-.11,1-.43a2.43,2.43,0,0,0-.26-1.44c-.41-1.18-.83-2.41-1.27-3.71-1.75-5.27-3-9.61-2.79-9.68s1.81,4.16,3.56,9.44c.42,1.3.83,2.54,1.21,3.73a2.79,2.79,0,0,1,.17,1.89,1.21,1.21,0,0,1-.82.67,3.06,3.06,0,0,1-.82.07A11.89,11.89,0,0,1,153.09,97.77Z" style="fill:#263238"></path><path d="M147.81,80.62c-.28.47-2.08-.11-4.3-.25s-4.07.13-4.28-.38c-.09-.24.31-.65,1.1-1a7.5,7.5,0,0,1,6.53.48C147.6,79.92,147.93,80.39,147.81,80.62Z" style="fill:#263238"></path><path d="M165.69,76.31c-.4.42-1.92-.07-3.76-.14s-3.4.2-3.75-.26c-.15-.22.11-.64.8-1a6.26,6.26,0,0,1,6.05.32C165.67,75.66,165.87,76.11,165.69,76.31Z" style="fill:#263238"></path><path d="M126.71,89.17c-.2-.1-8.29-2.83-8.37,5.53s8.34,6.72,8.35,6.48S126.71,89.17,126.71,89.17Z" style="fill:#ae7461"></path><path d="M124.17,98s-.15.1-.4.21a1.41,1.41,0,0,1-1.08,0c-.89-.33-1.62-1.74-1.64-3.25a4.8,4.8,0,0,1,.42-2.08,1.73,1.73,0,0,1,1.11-1.11.74.74,0,0,1,.86.41c.11.23,0,.4.1.41s.18-.13.11-.48a.92.92,0,0,0-.32-.53,1.12,1.12,0,0,0-.8-.22A2.06,2.06,0,0,0,121,92.64a5,5,0,0,0-.53,2.33c0,1.69.89,3.27,2.1,3.63a1.53,1.53,0,0,0,1.33-.21C124.15,98.19,124.2,98,124.17,98Z" style="fill:#6f4439"></path><path d="M162.79,64.25c1.36-.75-2.7-5.13-6-6.64-5-2.29-12.7-3.7-17.34-2.38-5.58,1.58-10.21,4.35-13,9.43a32.9,32.9,0,0,0-3.7,16.79,10,10,0,0,0,1.18,5.11c1.16,1.85,3.4,3,3.3,5.57a3.52,3.52,0,0,0,.87,2.55c1.53,1.63,3.4.1,4.26-1.43,1.84-3.28,2.05-7.19,2.21-10.94a24.41,24.41,0,0,0-.52-8c-.41-1.39-1.06-2.71-1.4-4.12a5,5,0,0,1,.6-4.18,5.36,5.36,0,0,1,.68-.68,8.71,8.71,0,0,1,8.65-1.65c4.71,1.67,12.75,4.17,14.85,2.57,3-2.3,3.75-3.8,3.75-3.8Z" style="fill:#263238"></path><path d="M147.2,98.93c.28,0,.3,1.91,2,3.26s3.69,1.14,3.71,1.41-.46.37-1.32.4a4.85,4.85,0,0,1-3.1-1.06,4.22,4.22,0,0,1-1.51-2.74C146.85,99.4,147.07,98.92,147.2,98.93Z" style="fill:#263238"></path><path d="M153.65,437.69l-.39,22.15s22.38,7.84,22.71,11.94l-43,.78L132.19,438Z" style="fill:#263238"></path><path d="M139.94,458.22a1.76,1.76,0,0,0-1.18,2,1.69,1.69,0,0,0,2,1.18,1.85,1.85,0,0,0,1.23-2.15,1.75,1.75,0,0,0-2.21-1" style="fill:#e0e0e0"></path><path d="M133,472.56l.05-3.48,41.18.55s1.93.8,1.74,2.15Z" style="fill:#455a64"></path><path d="M154,459.61c0,.21-1,.33-2.07,1s-1.55,1.59-1.75,1.51.1-1.3,1.35-2.12S154,459.42,154,459.61Z" style="fill:#fff"></path><path d="M158.5,461.39c.05.21-.86.58-1.55,1.48s-.89,1.84-1.1,1.84-.36-1.19.53-2.3S158.49,461.19,158.5,461.39Z" style="fill:#fff"></path><path d="M161.15,466.74c-.19.05-.5-1,0-2.15s1.49-1.64,1.58-1.46-.5.8-.91,1.75S161.36,466.72,161.15,466.74Z" style="fill:#fff"></path><path d="M153.48,454.55c-.08.2-1-.08-2.23,0s-2.11.49-2.22.31.76-.94,2.16-1S153.58,454.39,153.48,454.55Z" style="fill:#fff"></path><path d="M103.73,442.47l-2.33,26.7,4.25,21.65a2.74,2.74,0,0,1-2.35,3.25h0a2.72,2.72,0,0,1-2.36-.86C97.11,489,83.09,473.6,83.37,471.66c.33-2.26.59-28.33.59-28.33Z" style="fill:#263238"></path><path d="M103.3,494.07,83.49,469.85,83.41,471a4.15,4.15,0,0,0,.81,2.74c1.57,2.11,6,7.82,16.64,19.49a2.75,2.75,0,0,0,2.44.86Z" style="fill:#455a64"></path><g style="opacity:0.6000000000000001"><path d="M89.53,461.57a1.67,1.67,0,0,1,.31,2.2,1.59,1.59,0,0,1-2.17.33,1.76,1.76,0,0,1-.32-2.33,1.66,1.66,0,0,1,2.3-.09" style="fill:#fff"></path></g><path d="M97.94,482a8.39,8.39,0,0,1,2.47-1.93,8.31,8.31,0,0,1,3.12-.39c0-.06-.3-.29-.92-.42a4.29,4.29,0,0,0-2.42.27A4.36,4.36,0,0,0,98.28,481C97.94,481.57,97.87,482,97.94,482Z" style="fill:#fff"></path><path d="M99.61,485.7a21.63,21.63,0,0,1,2.44-1,21.41,21.41,0,0,1,2.64-.17,3.09,3.09,0,0,0-2.77-.41C100.32,484.49,99.48,485.62,99.61,485.7Z" style="fill:#fff"></path><path d="M94.68,477.18a26.7,26.7,0,0,1,3.67-1.8c2.14-.7,4-.49,4-.67a7.51,7.51,0,0,0-7.7,2.47Z" style="fill:#fff"></path><path d="M94.71,469c.06.16,1.58-.36,3.51-.3s3.42.61,3.49.45a6.83,6.83,0,0,0-7-.15Z" style="fill:#fff"></path><path d="M95.2,461.14a13.57,13.57,0,0,1,3.64-.41,13.49,13.49,0,0,1,3.49,1.12c0-.05-.23-.41-.82-.8a5.83,5.83,0,0,0-2.61-.9,5.72,5.72,0,0,0-2.74.37C95.5,460.79,95.16,461.08,95.2,461.14Z" style="fill:#fff"></path><path d="M174.54,252.74a95.14,95.14,0,0,1,2.08,28c-.46,5.94-20.53,170.5-20.53,170.5H129l7.61-154.66-2.22.48s-14.79,66-16,76.64c-1.08,9.6-13.09,85.12-13.09,85.12L80,456.53,88,361.07l9.21-88.51,3.46-25.76Z" style="fill:#263238"></path><path d="M132.33,280.79a5,5,0,0,0,1.13.64,13.27,13.27,0,0,0,3.36,1.17,6.91,6.91,0,0,0,2.49,0,5.14,5.14,0,0,0,2.62-1.25,6.22,6.22,0,0,0,1.58-2.77c.32-1.05.5-2.15.72-3.26.87-4.46,1.45-8.54,1.8-11.5.17-1.48.28-2.67.34-3.51a6.64,6.64,0,0,0,0-1.29,5.52,5.52,0,0,0-.26,1.27c-.14.94-.32,2.1-.53,3.48-.44,2.94-1.09,7-2,11.44-.44,2.2-.73,4.44-2.11,5.76a5.63,5.63,0,0,1-4.68,1.21,15,15,0,0,1-3.33-1A5.82,5.82,0,0,0,132.33,280.79Z" style="fill:#455a64"></path><path d="M140.49,259.82s-.18-.14-.56-.17a2.44,2.44,0,0,0-1.52.49,2.72,2.72,0,0,0-1.14,2.09,2.69,2.69,0,0,0,4.58,1.72,2.71,2.71,0,0,0,.51-2.33,2.4,2.4,0,0,0-.82-1.36c-.3-.24-.52-.27-.53-.25a3.08,3.08,0,0,1,1,1.69,2.39,2.39,0,0,1-.52,1.9,2.2,2.2,0,0,1-3.65-1.37,2.38,2.38,0,0,1,.86-1.77A3,3,0,0,1,140.49,259.82Z" style="fill:#455a64"></path><path d="M162.09,130.74c5.17.32,14.53,3.43,18.49,10.83,3.32,6.19,4.22,32.64,4.4,33.27l-10,2.58-12.73,18.83-52.13-11.63-3.27,8.22-2-58.86S156.91,130.42,162.09,130.74Z" style="fill:#455a64"></path><path d="M101.53,219.73l-4-56.25.93-26.68,24.38-10.74,2.42-9.33,25.24,11.93,5.29-5.84,2.21,6.59,5.53,1.8,12.89,22L176.24,190s1.36,45,.28,60.61a4.85,4.85,0,0,1-3.26,4.26,46.8,46.8,0,0,1-13.8,2c-25.43.61-60.06-1-60.06-1l-.35-1.11a22,22,0,0,1-.86-9.61Z" style="fill:#455a64"></path><path d="M153.84,141.13c-.35-1.41-.63-2.53-.84-3.35q-.13-.53-.24-.87c0-.2-.09-.3-.1-.29a1,1,0,0,0,0,.3c0,.24.1.53.17.89.18.83.42,2,.72,3.38.63,2.94,1.58,7.19,2.64,12.46s2.2,11.57,3,18.62,1,14.88,1.11,23.08c.17,16.41-.27,31.26-.55,42-.14,5.33-.26,9.66-.35,12.73,0,1.46,0,2.61-.07,3.47v.9a1.15,1.15,0,0,0,0,.31s0-.11,0-.31,0-.54.07-.9c0-.85.11-2,.19-3.46.14-3.07.33-7.4.56-12.72.4-10.75.91-25.61.75-42-.1-8.22-.38-16-1.17-23.15s-2-13.39-3.13-18.65" style="fill:#263238"></path><g style="opacity:0.30000000000000004"><path d="M150.61,129.92c.23.18,1.7,14.1,1.7,14.1l-26.92-16.26,24.51,12.3Z"></path></g><path d="M150.26,128.57a26.49,26.49,0,0,0,1.37,2.32c.85,1.43,2,3.43,3.05,5.72l.26.55.17.36.17-.35a47,47,0,0,0,2.25-5.7c.23-.74.4-1.34.5-1.76a2.61,2.61,0,0,0,.12-.66c-.05,0-.34.89-.87,2.34a59,59,0,0,1-2.34,5.62h.34l-.26-.56a46.47,46.47,0,0,0-3.17-5.7c-.46-.7-.84-1.25-1.12-1.63S150.28,128.55,150.26,128.57Z" style="fill:#263238"></path><path d="M122.85,126.06a2.18,2.18,0,0,0,.37.22l1.08.57,4,2.08c3.38,1.76,8,4.27,13.16,7,3.13,1.67,6.09,3.21,8.67,4.5l.23.12v-.26c0-3.35.06-6.16.08-8.2,0-1,0-1.73,0-2.31a5.72,5.72,0,0,0,0-.82,4.77,4.77,0,0,0-.07.82q0,.87-.09,2.31c-.05,2-.13,4.85-.21,8.19l.24-.14c-2.57-1.32-5.52-2.87-8.65-4.54-5.13-2.74-9.79-5.22-13.21-6.92-1.71-.85-3.1-1.52-4.07-2l-1.12-.51A2.17,2.17,0,0,0,122.85,126.06Z" style="fill:#263238"></path><path d="M153.87,130.64a32.9,32.9,0,0,0,.35-7.75s-1.76-5-1.5-5.91.71-1.85,2.47-1,4,2.47,4.23,5.38a15,15,0,0,0,.71,4l1.67-2.56-.35-2.64s-2.49-.63-2.58-2a30.06,30.06,0,0,1,2.52-1.79s4.46.22,4.91,1.89,1.58,5.29,1.58,5.29,3.7.62,4.14,3.62c0,0,2.12,2.82,2,4.58a8.3,8.3,0,0,1,1.06,3.7c-.09,1.68-4.94,8.73-4.94,8.73l-1.48,11.05-13.61-4.6.9-10.07S153.16,134.26,153.87,130.64Z" style="fill:#ae7461"></path><path d="M153.87,130.58a3.45,3.45,0,0,0-.13.68,9.26,9.26,0,0,0,0,2,27.71,27.71,0,0,0,2.07,7.32v-.08c-.27,2.82-.6,6.22-1,10.06l0,.18.18.05,13.74,3.62.28.07,0-.28c.43-3.18.88-6.54,1.36-10l0,.12c1.25-1.84,2.5-3.75,3.66-5.79.29-.51.57-1,.83-1.57a4.18,4.18,0,0,0,.5-1.82,8.51,8.51,0,0,0-1.09-3.55l0,.16a4.92,4.92,0,0,0-.47-2,14.53,14.53,0,0,0-1.62-2.78l.06.13a4.14,4.14,0,0,0-1.61-2.64,6.87,6.87,0,0,0-2.77-1.21l.22.19c-.55-1.82-1.1-3.62-1.63-5.38a2.18,2.18,0,0,0-1.09-1.09,7.1,7.1,0,0,0-1.33-.48,13.89,13.89,0,0,0-2.7-.41h-.09l-.07.05-1.38.93-.68.48-.34.26-.09.08-.07.08a.41.41,0,0,0-.07.21l0,.25a2.37,2.37,0,0,0,1.19,1.31,7.3,7.3,0,0,0,1.54.62l-.2-.22c.13.9.25,1.78.36,2.65l0-.17-1.67,2.56.43,0a15.6,15.6,0,0,1-.61-3,7.83,7.83,0,0,0-.7-3,8.19,8.19,0,0,0-4.25-3.61,1.72,1.72,0,0,0-1.39,0,1.79,1.79,0,0,0-.78,1.08,1.56,1.56,0,0,0-.1.65,5.63,5.63,0,0,0,.08.61c.08.38.17.75.26,1.11.39,1.44.83,2.72,1.23,3.87v0a37.25,37.25,0,0,1,0,5.76c-.06.66-.12,1.15-.16,1.48a2.47,2.47,0,0,0,0,.51,3.65,3.65,0,0,0,.12-.49c.07-.33.15-.83.23-1.48a33.26,33.26,0,0,0,.14-5.8h0v0c-.38-1.15-.8-2.43-1.16-3.86-.09-.36-.18-.72-.24-1.1a3.45,3.45,0,0,1-.07-.55,1.08,1.08,0,0,1,.09-.52,1.11,1.11,0,0,1,1.69-.82,7.76,7.76,0,0,1,4,3.44,7.27,7.27,0,0,1,.64,2.85,16.17,16.17,0,0,0,.62,3.16l.15.45.28-.41q.81-1.24,1.68-2.55l.05-.08v-.09c-.12-.86-.23-1.74-.35-2.64l0-.17-.17,0a6.06,6.06,0,0,1-1.4-.57,1.91,1.91,0,0,1-.94-1l0-.16h0c.05,0-.48,0-.25,0H159c.05,0,.16.1.11.11s0,0,0,0l.06,0,.31-.24.67-.47,1.38-.92-.16,0a14.4,14.4,0,0,1,2.58.4c.8.22,1.77.57,2,1.23q.8,2.64,1.61,5.37l0,.16.18,0a6.37,6.37,0,0,1,2.51,1.11,3.49,3.49,0,0,1,1.39,2.27v.07l.05.06a14.42,14.42,0,0,1,1.55,2.67,4.42,4.42,0,0,1,.42,1.73v.08l0,.07a8.25,8.25,0,0,1,1,3.28,3.78,3.78,0,0,1-.45,1.57c-.25.52-.52,1-.81,1.54-1.14,2-2.39,3.92-3.62,5.75l0,.05v.07c-.46,3.49-.9,6.85-1.32,10l.32-.22-13.77-3.53.16.22c.33-3.84.61-7.25.85-10.07v-.08a28.67,28.67,0,0,1-2.19-7.21A10.51,10.51,0,0,1,153.87,130.58Z" style="fill:#6f4439"></path><path d="M157.2,130.25a9.73,9.73,0,0,0,1.89-2.67,9.56,9.56,0,0,0,1.4-2.94,9.43,9.43,0,0,0-1.89,2.66A9.49,9.49,0,0,0,157.2,130.25Z" style="fill:#6f4439"></path><g style="opacity:0.30000000000000004"><path d="M146,209.91a44.55,44.55,0,0,1-43-34.5Z"></path></g><path d="M152.2,149.61l-12.26,33.74-24.38-38.89s-12.73-14.28-18.71-5.86-2.94,24.36.85,31.93c3.53,7,36.17,48.71,42.15,49.38s13.68-3.21,17.2-11,16.16-53.36,16.16-53.36Z" style="fill:#455a64"></path><path d="M100.32,136.93A26.15,26.15,0,0,1,106.5,138c3.3,1.13,5.37,3.16,5.49,3a11,11,0,0,0-5.31-3.56A10.8,10.8,0,0,0,100.32,136.93Z" style="fill:#263238"></path><path d="M114.46,143.66s.14.25.43.73l1.32,2.1c1.19,1.86,2.91,4.56,5.1,8l18.65,29,.24.38.16-.42c3.58-10,7.7-21.56,12.17-34.06l-.33.17,21.2,6.32-.19-.35c-1.69,5.77-3.45,11.83-5.25,18-2.45,8.23-4.89,16.26-7.39,24-1.29,3.84-2.51,7.63-4,11.19a15.77,15.77,0,0,1-7.52,8,20.09,20.09,0,0,1-10.38,2.16l-.65,0-.56-.17a7.9,7.9,0,0,1-1.09-.63,10.49,10.49,0,0,1-1-.77c-.33-.26-.66-.53-1-.82-1.28-1.13-2.46-2.32-3.6-3.51-4.54-4.79-8.47-9.55-12-13.91-7.07-8.76-12.5-16.07-16.15-21.19-1.83-2.56-3.2-4.58-4.09-6-.44-.7-.76-1.24-1-1.61s-.32-.55-.32-.55.08.2.27.58.5.93.94,1.64c.86,1.42,2.2,3.46,4,6.05,3.6,5.17,9,12.52,16,21.31,3.53,4.38,7.44,9.16,12,14,1.14,1.21,2.33,2.41,3.61,3.55.32.29.65.58,1,.85a12,12,0,0,0,1,.79,7.94,7.94,0,0,0,1.17.68c.23.07.47.15.7.2l.67.06a20.53,20.53,0,0,0,10.66-2.2,16.3,16.3,0,0,0,7.78-8.28c1.54-3.62,2.76-7.4,4-11.24,2.51-7.71,5-15.73,7.4-24,1.83-6.16,3.6-12.22,5.25-18l.08-.27-.27-.07-21.21-6.3-.25-.07-.08.24-12.08,34.09.39,0-18.8-28.93-5.21-8L115,144.35C114.64,143.89,114.46,143.66,114.46,143.66Z" style="fill:#263238"></path><g style="opacity:0.30000000000000004"><path d="M118.74,213.12a3.32,3.32,0,0,1,2.23-.79,284.39,284.39,0,0,1,41.69-.63l14.11,10.78a1.09,1.09,0,0,1-.49,1.27,3.06,3.06,0,0,1-1.43.36l-11,1a84.68,84.68,0,0,1-10.19.48c-2.12-.07-4.24-.31-6.36-.3a103.14,103.14,0,0,0-10.5,1.06,27.89,27.89,0,0,1-8.36-.13,13.23,13.23,0,0,1-7.29-3.84,11.76,11.76,0,0,1-2.91-7A2.88,2.88,0,0,1,118.74,213.12Z"></path></g><path d="M118.53,211.71c.44-.22,6.24-2.58,6.24-2.58l7.45-1.48-7.16-.29-6.25,1.74s-2.5.29-1.94-1.81,8.18-4.43,8.18-4.43l9.73-.66s-7.52-1.1-8.29-3.43a3.58,3.58,0,0,1,.55-3.64,59.17,59.17,0,0,0,7.85,2.54,50,50,0,0,1,9.73,3.09,64.68,64.68,0,0,1,6.48,3l4.13,14.37s-6.85,4.31-14.59,4.09-14.59,2.28-15.59,1.58-1.1-1.91,0-2.47a36.66,36.66,0,0,1,5.79-1.21l4-1.66s-13.82,1.22-14.92.66-2.21-1.32-1.77-2.54a1.74,1.74,0,0,1,1.55-1.21s-3,.11-2.88-1.11A3.79,3.79,0,0,1,118.53,211.71Z" style="fill:#ae7461"></path><path d="M134.54,213.18a17.11,17.11,0,0,1-2.33.17c-1.43.09-3.4.26-5.56.58s-4.09.76-5.49,1.1a17.53,17.53,0,0,1-2.26.52,10.05,10.05,0,0,1,2.19-.8,40,40,0,0,1,5.5-1.23,40.49,40.49,0,0,1,5.61-.46A10,10,0,0,1,134.54,213.18Z" style="fill:#6f4439"></path><path d="M175.55,197.76l1.79-38,4-17.34,14.12,38.93,4.77,17.44c3.52,16.51-9.3,23.36-15.09,23.15l-31.05.52-2.85-19.31Z" style="fill:#455a64"></path><path d="M175.88,197.77l1.71-38.48" style="fill:#FF725E"></path><path d="M177.59,159.29c-.15,0-.67,8.6-1.14,19.23s-.73,19.24-.57,19.25.67-8.6,1.14-19.23S177.75,159.3,177.59,159.29Z" style="fill:#263238"></path><path d="M185.76,221.85a2.52,2.52,0,0,0-.62,0l-1.76,0-6.6.17-22.84.76.28.24c-.58-4.24-1.2-8.83-1.85-13.6-.29-2.1-.57-4.17-.84-6.13l-.22.31c5.42-1.24,10.54-2.37,15.18-3.35,2.31-.48,4.5-.93,6.56-1.3a27.1,27.1,0,0,1,5.71-.62,14.58,14.58,0,0,1,7.86,2,12,12,0,0,1,2.25,2,5,5,0,0,0-.46-.63,8.9,8.9,0,0,0-1.68-1.51,14.44,14.44,0,0,0-8-2.25,27.41,27.41,0,0,0-5.79.56c-2.06.35-4.26.78-6.59,1.25-4.64,1-9.76,2.06-15.2,3.29l-.25.06,0,.25c.26,2,.55,4,.83,6.13.66,4.77,1.29,9.37,1.88,13.6l0,.24H154l22.83-1,6.6-.33,1.76-.11A3.73,3.73,0,0,0,185.76,221.85Z" style="fill:#263238"></path><path d="M136.79,196.25c.18,0,.39-3,1.39-6.63s2.36-6.33,2.21-6.41a23.5,23.5,0,0,0-3.6,13Z" style="fill:#263238"></path><g style="opacity:0.30000000000000004"><path d="M176.19,197.79a33.62,33.62,0,0,1,7.12-1.59,11.93,11.93,0,0,1,7.05,1.44,4.08,4.08,0,0,1,1.65,1.67,2,2,0,0,1-.34,2.2,2.07,2.07,0,0,1-2,.28,8.11,8.11,0,0,1-1.86-1,15.67,15.67,0,0,0-10.94-2.28"></path></g></g></svg>
