<svg width="48" height="48" viewBox="0 0 48 48" fill="none" xmlns="http://www.w3.org/2000/svg">
<g clip-path="url(#clip0_4952_1887)">
<path d="M41.1431 13.7142C41.1384 12.5117 40.8174 11.3316 40.2125 10.2923C39.6077 9.25298 38.7401 8.39101 37.6969 7.79286C36.6537 7.19471 35.4715 6.88141 34.269 6.88439C33.0665 6.88738 31.8859 7.20655 30.8457 7.80987C29.8055 8.4132 28.9422 9.27947 28.3425 10.3218C27.7428 11.3641 27.4277 12.5458 27.4289 13.7483C27.4301 14.9508 27.7475 16.1319 28.3493 17.173C28.951 18.2141 29.816 19.0787 30.8574 19.6799C31.0489 19.7885 31.1913 19.9665 31.2551 20.1771C31.319 20.3877 31.2993 20.6148 31.2003 20.8114C30.841 21.5045 30.3006 22.0873 29.6365 22.4978C28.9724 22.9084 28.2095 23.1312 27.4289 23.1428H20.5717C19.4971 23.1491 18.4311 23.3345 17.4174 23.6914C17.2982 23.7423 17.1699 23.7686 17.0403 23.7686C16.9106 23.7686 16.7824 23.7423 16.6631 23.6914C16.5477 23.6098 16.4533 23.502 16.3877 23.3769C16.3222 23.2517 16.2873 23.1127 16.286 22.9714V13.7142C16.278 13.5499 16.3194 13.3869 16.405 13.2463C16.4906 13.1057 16.6163 12.994 16.766 12.9257C18.1506 12.2376 19.2621 11.1018 19.92 9.70261C20.5779 8.3034 20.7436 6.72292 20.3902 5.21768C20.0368 3.71245 19.1851 2.37082 17.9733 1.41055C16.7615 0.450276 15.2607 -0.0722656 13.7146 -0.0722656C12.1684 -0.0722656 10.6676 0.450276 9.45582 1.41055C8.24401 2.37082 7.39229 3.71245 7.03892 5.21768C6.68555 6.72292 6.85126 8.3034 7.50915 9.70261C8.16705 11.1018 9.27851 12.2376 10.6631 12.9257C10.8128 12.994 10.9386 13.1057 11.0241 13.2463C11.1097 13.3869 11.1512 13.5499 11.1431 13.7142V34.2857C11.1512 34.45 11.1097 34.613 11.0241 34.7536C10.9386 34.8942 10.8128 35.0058 10.6631 35.0742C9.27851 35.7623 8.16705 36.8981 7.50915 38.2973C6.85126 39.6965 6.68555 41.277 7.03892 42.7822C7.39229 44.2874 8.24401 45.6291 9.45582 46.5893C10.6676 47.5496 12.1684 48.0721 13.7146 48.0721C15.2607 48.0721 16.7615 47.5496 17.9733 46.5893C19.1851 45.6291 20.0368 44.2874 20.3902 42.7822C20.7436 41.277 20.5779 39.6965 19.92 38.2973C19.2621 36.8981 18.1506 35.7623 16.766 35.0742C16.6163 35.0058 16.4906 34.8942 16.405 34.7536C16.3194 34.613 16.278 34.45 16.286 34.2857V32.5714C16.286 31.4347 16.7375 30.3446 17.5413 29.5409C18.345 28.7372 19.4351 28.2857 20.5717 28.2857H27.4289C29.6314 28.289 31.7652 27.5183 33.4572 26.1083C35.1493 24.6982 36.2921 22.7384 36.686 20.5714C36.7182 20.4406 36.7776 20.318 36.8603 20.2117C36.943 20.1054 37.0472 20.0177 37.166 19.9542C38.3563 19.4034 39.3636 18.5227 40.0685 17.4167C40.7734 16.3107 41.1464 15.0258 41.1431 13.7142Z" fill="#8287EB"/>
</g>
<defs>
<clipPath id="clip0_4952_1887">
<rect width="48" height="48" fill="white"/>
</clipPath>
</defs>
</svg>
