<?xml version="1.0" encoding="UTF-8" standalone="no"?><!DOCTYPE svg PUBLIC "-//W3C//DTD SVG 1.1//EN" "http://www.w3.org/Graphics/SVG/1.1/DTD/svg11.dtd"><svg width="100%" height="100%" viewBox="0 0 3467 3163" version="1.1" xmlns="http://www.w3.org/2000/svg" xmlns:xlink="http://www.w3.org/1999/xlink" xml:space="preserve" xmlns:serif="http://www.serif.com/" style="fill-rule:evenodd;clip-rule:evenodd;stroke-linecap:round;stroke-linejoin:round;stroke-miterlimit:10;"><g id="XMLID_967_"><g id="XMLID_1056_"><path id="XMLID_1057_" d="M749.941,1367.36c-85.526,-86.637 -138.101,-205.855 -138.101,-336.921c0,-265.095 215.112,-480.207 480.207,-480.207c265.094,0 480.576,214.742 480.576,479.836l-369.874,-281.385l-452.808,618.677Z" style="fill:#fdc858;fill-rule:nonzero;"/></g><g id="XMLID_1052_"><path id="XMLID_1055_" d="M1092.42,422.123l-0,51.834" style="fill:none;fill-rule:nonzero;stroke:#d4c0e2;stroke-width:29.62px;"/><path id="XMLID_1054_" d="M1092.42,325.86l-0,54.055" style="fill:none;fill-rule:nonzero;stroke:#d4c0e2;stroke-width:29.62px;"/><path id="XMLID_1053_" d="M1092.42,207.011l-0,70.717" style="fill:none;fill-rule:nonzero;stroke:#d4c0e2;stroke-width:29.62px;"/></g><g id="XMLID_1048_"><path id="XMLID_1051_" d="M986.527,431.379l9.256,50.724" style="fill:none;fill-rule:nonzero;stroke:#d4c0e2;stroke-width:29.62px;"/><path id="XMLID_1050_" d="M969.866,336.597l9.626,53.315" style="fill:none;fill-rule:nonzero;stroke:#d4c0e2;stroke-width:29.62px;"/><path id="XMLID_1049_" d="M949.132,219.6l12.589,69.606" style="fill:none;fill-rule:nonzero;stroke:#d4c0e2;stroke-width:29.62px;"/></g><g id="XMLID_1044_"><path id="XMLID_1047_" d="M884.34,458.777l17.772,48.502" style="fill:none;fill-rule:nonzero;stroke:#d4c0e2;stroke-width:29.62px;"/><path id="XMLID_1046_" d="M851.388,368.438l18.512,50.723" style="fill:none;fill-rule:nonzero;stroke:#d4c0e2;stroke-width:29.62px;"/><path id="XMLID_1045_" d="M810.661,256.624l24.436,66.644" style="fill:none;fill-rule:nonzero;stroke:#d4c0e2;stroke-width:29.62px;"/></g><g id="XMLID_1040_"><path id="XMLID_1043_" d="M788.076,503.577l25.917,44.799" style="fill:none;fill-rule:nonzero;stroke:#d4c0e2;stroke-width:29.62px;"/><path id="XMLID_1042_" d="M740.315,420.272l27.028,47.021" style="fill:none;fill-rule:nonzero;stroke:#d4c0e2;stroke-width:29.62px;"/><path id="XMLID_1041_" d="M680.706,317.344l35.543,61.461" style="fill:none;fill-rule:nonzero;stroke:#d4c0e2;stroke-width:29.62px;"/></g><g id="XMLID_1036_"><path id="XMLID_1039_" d="M701.439,564.297l33.322,39.616" style="fill:none;fill-rule:nonzero;stroke:#d4c0e2;stroke-width:29.62px;"/><path id="XMLID_1038_" d="M639.609,490.618l34.803,41.467" style="fill:none;fill-rule:nonzero;stroke:#d4c0e2;stroke-width:29.62px;"/><path id="XMLID_1037_" d="M562.968,399.538l45.91,54.426" style="fill:none;fill-rule:nonzero;stroke:#d4c0e2;stroke-width:29.62px;"/></g><g id="XMLID_1030_"><path id="XMLID_1035_" d="M626.65,639.456l39.616,32.952" style="fill:none;fill-rule:nonzero;stroke:#d4c0e2;stroke-width:29.62px;"/><path id="XMLID_1034_" d="M552.972,577.625l41.097,34.803" style="fill:none;fill-rule:nonzero;stroke:#d4c0e2;stroke-width:29.62px;"/><path id="XMLID_1033_" d="M461.521,500.985l54.426,45.54" style="fill:none;fill-rule:nonzero;stroke:#d4c0e2;stroke-width:29.62px;"/></g><g id="XMLID_1026_"><path id="XMLID_1029_" d="M565.56,726.093l44.799,25.917" style="fill:none;fill-rule:nonzero;stroke:#d4c0e2;stroke-width:29.62px;"/><path id="XMLID_1028_" d="M482.255,677.962l47.021,27.027" style="fill:none;fill-rule:nonzero;stroke:#d4c0e2;stroke-width:29.62px;"/><path id="XMLID_1027_" d="M379.327,618.352l61.461,35.544" style="fill:none;fill-rule:nonzero;stroke:#d4c0e2;stroke-width:29.62px;"/></g><g id="XMLID_1022_"><path id="XMLID_1025_" d="M520.76,822.357l48.873,17.401" style="fill:none;fill-rule:nonzero;stroke:#d4c0e2;stroke-width:29.62px;"/><path id="XMLID_1024_" d="M430.421,789.405l51.094,18.512" style="fill:none;fill-rule:nonzero;stroke:#d4c0e2;stroke-width:29.62px;"/><path id="XMLID_1023_" d="M318.607,748.678l66.644,24.066" style="fill:none;fill-rule:nonzero;stroke:#d4c0e2;stroke-width:29.62px;"/></g><g id="XMLID_1018_"><path id="XMLID_1021_" d="M493.362,924.544l51.094,8.886" style="fill:none;fill-rule:nonzero;stroke:#d4c0e2;stroke-width:29.62px;"/><path id="XMLID_1020_" d="M398.95,907.883l52.945,9.256" style="fill:none;fill-rule:nonzero;stroke:#d4c0e2;stroke-width:29.62px;"/><path id="XMLID_1019_" d="M281.583,887.149l69.976,12.218" style="fill:none;fill-rule:nonzero;stroke:#d4c0e2;stroke-width:29.62px;"/></g><g id="XMLID_1014_"><path id="XMLID_1017_" d="M484.106,1030.06l51.834,0" style="fill:none;fill-rule:nonzero;stroke:#d4c0e2;stroke-width:29.62px;"/><path id="XMLID_1016_" d="M388.213,1030.06l54.056,0" style="fill:none;fill-rule:nonzero;stroke:#d4c0e2;stroke-width:29.62px;"/><path id="XMLID_1015_" d="M268.995,1030.06l71.086,0" style="fill:none;fill-rule:nonzero;stroke:#d4c0e2;stroke-width:29.62px;"/></g><g id="XMLID_1010_"><path id="XMLID_1013_" d="M493.362,1135.58l51.094,-8.886" style="fill:none;fill-rule:nonzero;stroke:#d4c0e2;stroke-width:29.62px;"/><path id="XMLID_1012_" d="M398.95,1152.24l52.945,-9.256" style="fill:none;fill-rule:nonzero;stroke:#d4c0e2;stroke-width:29.62px;"/><path id="XMLID_1011_" d="M281.583,1172.98l69.976,-12.218" style="fill:none;fill-rule:nonzero;stroke:#d4c0e2;stroke-width:29.62px;"/></g><g id="XMLID_1006_"><path id="XMLID_1009_" d="M520.76,1238.14l48.873,-17.771" style="fill:none;fill-rule:nonzero;stroke:#d4c0e2;stroke-width:29.62px;"/><path id="XMLID_1008_" d="M430.421,1271.09l51.094,-18.512" style="fill:none;fill-rule:nonzero;stroke:#d4c0e2;stroke-width:29.62px;"/><path id="XMLID_1007_" d="M318.607,1311.82l66.644,-24.436" style="fill:none;fill-rule:nonzero;stroke:#d4c0e2;stroke-width:29.62px;"/></g><g id="XMLID_1002_"><path id="XMLID_1005_" d="M565.56,1334.03l44.799,-25.917" style="fill:none;fill-rule:nonzero;stroke:#d4c0e2;stroke-width:29.62px;"/><path id="XMLID_1004_" d="M482.255,1382.16l47.021,-27.028" style="fill:none;fill-rule:nonzero;stroke:#d4c0e2;stroke-width:29.62px;"/><path id="XMLID_1003_" d="M379.327,1441.77l61.461,-35.543" style="fill:none;fill-rule:nonzero;stroke:#d4c0e2;stroke-width:29.62px;"/></g><g id="XMLID_992_"><path id="XMLID_994_" d="M1663.7,822.357l-48.872,17.401" style="fill:none;fill-rule:nonzero;stroke:#d4c0e2;stroke-width:29.62px;"/><path id="XMLID_993_" d="M1754.04,789.405l-51.093,18.512" style="fill:none;fill-rule:nonzero;stroke:#d4c0e2;stroke-width:29.62px;"/></g><g id="XMLID_988_"><path id="XMLID_991_" d="M1618.9,726.093l-44.799,25.917" style="fill:none;fill-rule:nonzero;stroke:#d4c0e2;stroke-width:29.62px;"/><path id="XMLID_990_" d="M1702.21,677.962l-47.021,27.027" style="fill:none;fill-rule:nonzero;stroke:#d4c0e2;stroke-width:29.62px;"/><path id="XMLID_989_" d="M1805.14,618.352l-61.46,35.544" style="fill:none;fill-rule:nonzero;stroke:#d4c0e2;stroke-width:29.62px;"/></g><g id="XMLID_984_"><path id="XMLID_987_" d="M1557.81,639.456l-39.246,32.952" style="fill:none;fill-rule:nonzero;stroke:#d4c0e2;stroke-width:29.62px;"/><path id="XMLID_986_" d="M1631.49,577.625l-41.097,34.803" style="fill:none;fill-rule:nonzero;stroke:#d4c0e2;stroke-width:29.62px;"/><path id="XMLID_985_" d="M1722.94,500.985l-54.426,45.54" style="fill:none;fill-rule:nonzero;stroke:#d4c0e2;stroke-width:29.62px;"/></g><g id="XMLID_980_"><path id="XMLID_983_" d="M1483.02,564.297l-33.322,39.616" style="fill:none;fill-rule:nonzero;stroke:#d4c0e2;stroke-width:29.62px;"/><path id="XMLID_982_" d="M1544.86,490.618l-34.803,41.467" style="fill:none;fill-rule:nonzero;stroke:#d4c0e2;stroke-width:29.62px;"/><path id="XMLID_981_" d="M1621.5,399.538l-45.54,54.426" style="fill:none;fill-rule:nonzero;stroke:#d4c0e2;stroke-width:29.62px;"/></g><g id="XMLID_976_"><path id="XMLID_979_" d="M1396.39,503.577l-25.917,44.799" style="fill:none;fill-rule:nonzero;stroke:#d4c0e2;stroke-width:29.62px;"/><path id="XMLID_978_" d="M1444.15,420.272l-27.027,47.021" style="fill:none;fill-rule:nonzero;stroke:#d4c0e2;stroke-width:29.62px;"/><path id="XMLID_977_" d="M1503.76,317.344l-35.544,61.461" style="fill:none;fill-rule:nonzero;stroke:#d4c0e2;stroke-width:29.62px;"/></g><g id="XMLID_972_"><path id="XMLID_975_" d="M1300.12,458.777l-17.772,48.502" style="fill:none;fill-rule:nonzero;stroke:#d4c0e2;stroke-width:29.62px;"/><path id="XMLID_974_" d="M1333.08,368.438l-18.512,50.723" style="fill:none;fill-rule:nonzero;stroke:#d4c0e2;stroke-width:29.62px;"/><path id="XMLID_973_" d="M1373.8,256.624l-24.436,66.644" style="fill:none;fill-rule:nonzero;stroke:#d4c0e2;stroke-width:29.62px;"/></g><g id="XMLID_968_"><path id="XMLID_971_" d="M1197.94,431.379l-9.256,50.724" style="fill:none;fill-rule:nonzero;stroke:#d4c0e2;stroke-width:29.62px;"/><path id="XMLID_970_" d="M1214.6,336.597l-9.626,53.315" style="fill:none;fill-rule:nonzero;stroke:#d4c0e2;stroke-width:29.62px;"/><path id="XMLID_969_" d="M1235.33,219.6l-12.588,69.606" style="fill:none;fill-rule:nonzero;stroke:#d4c0e2;stroke-width:29.62px;"/></g></g><g id="XMLID_129_"><path d="M669.969,2365.53l-516.12,-0" style="fill:none;fill-rule:nonzero;stroke:#523160;stroke-width:29.62px;"/></g><g id="XMLID_187_"><path d="M1473.4,2365.53l-738.637,-0" style="fill:none;fill-rule:nonzero;stroke:#523160;stroke-width:29.62px;"/></g><g id="XMLID_325_"><path d="M2809.98,2365.53l-67.015,-0" style="fill:none;fill-rule:nonzero;stroke:#523160;stroke-width:29.62px;"/></g><g id="XMLID_3_"><path d="M3195.03,2365.53l-320.631,-0" style="fill:none;fill-rule:nonzero;stroke:#523160;stroke-width:29.62px;"/></g><g id="XMLID_5_"><path d="M3274.63,2365.53l-24.065,-0" style="fill:none;fill-rule:nonzero;stroke:#523160;stroke-width:29.62px;"/></g><g id="XMLID_19_"><path d="M478.553,1735.75l726.048,-985.589l405.787,312.116" style="fill:none;fill-rule:nonzero;stroke:#d4c0e2;stroke-width:29.62px;"/></g><g id="XMLID_29_"><path d="M1424.9,1314.04l518.711,-704.203l880.44,799.726" style="fill:none;fill-rule:nonzero;stroke:#d4c0e2;stroke-width:29.62px;"/></g><g id="XMLID_174_"><path d="M266.763,1896.4c28.906,-22.079 60.228,-29.72 69.903,-17.053c9.675,12.666 -5.938,40.875 -34.844,62.953c-28.906,22.079 -60.228,29.72 -69.903,17.053c-9.675,-12.666 5.938,-40.875 34.844,-62.953Z" style="fill:#fdc858;"/></g><g id="XMLID_163_"><path d="M266.602,1779.1c28.906,-22.078 60.228,-29.719 69.903,-17.053c9.675,12.667 -5.938,40.875 -34.844,62.954c-28.906,22.078 -60.228,29.72 -69.903,17.053c-9.675,-12.667 5.938,-40.875 34.844,-62.954Z" style="fill:#fdc858;"/></g><g id="XMLID_158_"><path d="M266.712,2181.14c28.905,-22.079 60.228,-29.72 69.903,-17.053c9.674,12.666 -5.939,40.875 -34.844,62.953c-28.906,22.079 -60.229,29.72 -69.903,17.053c-9.675,-12.666 5.938,-40.875 34.844,-62.953Z" style="fill:#fdc858;"/></g><g id="XMLID_134_"><path d="M266.761,2034.88c28.906,-22.078 60.228,-29.72 69.903,-17.053c9.675,12.666 -5.938,40.875 -34.844,62.953c-28.906,22.079 -60.228,29.72 -69.903,17.054c-9.675,-12.667 5.938,-40.875 34.844,-62.954Z" style="fill:#fdc858;"/></g><g id="XMLID_34_"><path d="M266.763,1896.4c28.906,-22.079 60.228,-29.72 69.903,-17.053c9.675,12.666 -5.938,40.875 -34.844,62.953c-28.906,22.079 -60.228,29.72 -69.903,17.053c-9.675,-12.666 5.938,-40.875 34.844,-62.953Z" style="fill:none;stroke:#523160;stroke-width:29.62px;"/></g><g id="XMLID_32_"><path d="M266.602,1779.1c28.906,-22.078 60.228,-29.719 69.903,-17.053c9.675,12.667 -5.938,40.875 -34.844,62.954c-28.906,22.078 -60.228,29.72 -69.903,17.053c-9.675,-12.667 5.938,-40.875 34.844,-62.954Z" style="fill:none;stroke:#523160;stroke-width:29.62px;"/></g><g id="XMLID_35_"><path d="M266.712,2181.14c28.905,-22.079 60.228,-29.72 69.903,-17.053c9.674,12.666 -5.939,40.875 -34.844,62.953c-28.906,22.079 -60.229,29.72 -69.903,17.053c-9.675,-12.666 5.938,-40.875 34.844,-62.953Z" style="fill:none;stroke:#523160;stroke-width:29.62px;"/></g><g id="XMLID_33_"><path d="M266.761,2034.88c28.906,-22.078 60.228,-29.72 69.903,-17.053c9.675,12.666 -5.938,40.875 -34.844,62.953c-28.906,22.079 -60.228,29.72 -69.903,17.054c-9.675,-12.667 5.938,-40.875 34.844,-62.954Z" style="fill:none;stroke:#523160;stroke-width:29.62px;"/></g><g id="XMLID_175_"><path d="M126.825,1762.51c9.675,-12.667 40.997,-5.026 69.903,17.053c28.906,22.078 44.519,50.287 34.844,62.953c-9.675,12.667 -40.997,5.026 -69.903,-17.053c-28.906,-22.078 -44.519,-50.287 -34.844,-62.953Z" style="fill:#fdc858;"/></g><g id="XMLID_160_"><path d="M126.647,2105.45c9.675,-12.666 40.998,-5.025 69.903,17.053c28.906,22.079 44.519,50.287 34.844,62.954c-9.675,12.666 -40.997,5.025 -69.903,-17.053c-28.905,-22.079 -44.518,-50.287 -34.844,-62.954Z" style="fill:#fdc858;"/></g><g id="XMLID_137_"><path d="M126.731,1958.79c9.675,-12.666 40.997,-5.025 69.903,17.054c28.906,22.078 44.519,50.287 34.844,62.953c-9.675,12.667 -40.997,5.025 -69.903,-17.053c-28.906,-22.079 -44.519,-50.287 -34.844,-62.954Z" style="fill:#fdc858;"/></g><g id="XMLID_38_"><path d="M126.825,1762.51c9.675,-12.667 40.997,-5.026 69.903,17.053c28.906,22.078 44.519,50.287 34.844,62.953c-9.675,12.667 -40.997,5.026 -69.903,-17.053c-28.906,-22.078 -44.519,-50.287 -34.844,-62.953Z" style="fill:none;stroke:#523160;stroke-width:29.62px;"/></g><g id="XMLID_37_"><path d="M126.647,2105.45c9.675,-12.666 40.998,-5.025 69.903,17.053c28.906,22.079 44.519,50.287 34.844,62.954c-9.675,12.666 -40.997,5.025 -69.903,-17.053c-28.905,-22.079 -44.518,-50.287 -34.844,-62.954Z" style="fill:none;stroke:#523160;stroke-width:29.62px;"/></g><g id="XMLID_36_"><path d="M126.731,1958.79c9.675,-12.666 40.997,-5.025 69.903,17.054c28.906,22.078 44.519,50.287 34.844,62.953c-9.675,12.667 -40.997,5.025 -69.903,-17.053c-28.906,-22.079 -44.519,-50.287 -34.844,-62.954Z" style="fill:none;stroke:#523160;stroke-width:29.62px;"/></g><g id="XMLID_40_"><path d="M231.6,1820.53l0,537.964" style="fill:none;fill-rule:nonzero;stroke:#523160;stroke-width:29.62px;"/></g><g id="XMLID_44_"><path d="M574.092,2209.59c28.906,-22.078 60.228,-29.72 69.903,-17.053c9.675,12.666 -5.938,40.875 -34.844,62.953c-28.905,22.079 -60.228,29.72 -69.903,17.054c-9.675,-12.667 5.938,-40.876 34.844,-62.954Z" style="fill:none;stroke:#523160;stroke-width:29.62px;"/></g><g id="XMLID_43_"><path d="M574.092,2086.67c28.905,-22.078 60.228,-29.719 69.903,-17.053c9.675,12.667 -5.939,40.875 -34.844,62.954c-28.906,22.078 -60.228,29.719 -69.903,17.053c-9.675,-12.667 5.938,-40.875 34.844,-62.954Z" style="fill:none;stroke:#523160;stroke-width:29.62px;"/></g><g id="XMLID_45_"><path d="M574.008,1975.62c28.906,-22.078 60.228,-29.719 69.903,-17.053c9.675,12.667 -5.938,40.875 -34.844,62.954c-28.906,22.078 -60.228,29.72 -69.903,17.053c-9.675,-12.667 5.938,-40.875 34.844,-62.954Z" style="fill:none;stroke:#523160;stroke-width:29.62px;"/></g><g id="XMLID_42_"><path d="M433.934,2105.42c9.675,-12.666 40.997,-5.025 69.903,17.053c28.906,22.079 44.519,50.287 34.844,62.954c-9.675,12.666 -40.997,5.025 -69.903,-17.053c-28.906,-22.079 -44.519,-50.287 -34.844,-62.954Z" style="fill:none;stroke:#523160;stroke-width:29.62px;"/></g><g id="XMLID_41_"><path d="M434.022,1958.76c9.675,-12.666 40.997,-5.025 69.903,17.054c28.906,22.078 44.519,50.287 34.844,62.953c-9.675,12.667 -40.997,5.025 -69.903,-17.053c-28.906,-22.079 -44.519,-50.287 -34.844,-62.954Z" style="fill:none;stroke:#523160;stroke-width:29.62px;"/></g><g id="XMLID_39_"><path d="M538.902,2023.43l0,335.071" style="fill:none;fill-rule:nonzero;stroke:#523160;stroke-width:29.62px;"/></g><g id="XMLID_30_"><path d="M969.866,1070.42l36.284,46.651l87.748,-34.803l113.665,43.688l47.021,-43.688l88.858,29.249l48.132,-73.308l112.924,45.169l44.429,-68.495" style="fill:none;fill-rule:nonzero;stroke:#d4c0e2;stroke-width:29.62px;"/></g><g id="XMLID_46_"><path d="M1714.06,921.212l112.554,-25.917l41.097,75.9l116.627,-62.942l85.156,53.685l55.166,-81.453l142.914,23.695" style="fill:none;fill-rule:nonzero;stroke:#d4c0e2;stroke-width:29.62px;"/></g><g id="XMLID_59_"><path d="M2187.23,644.269l527.227,0c2.962,-7.034 4.813,-15.18 4.813,-23.325c-0,-32.952 -27.028,-59.979 -59.98,-59.979c-6.664,-0 -12.958,1.11 -18.512,2.961c-13.699,-37.394 -49.983,-64.052 -92.191,-64.052c-11.107,0 -21.844,1.852 -31.84,5.184c-21.104,-46.651 -68.496,-79.232 -122.921,-79.232c-74.79,-0 -135.139,60.349 -135.139,135.139c-0,7.404 0.74,14.809 1.851,22.214c-34.063,6.294 -61.461,29.62 -73.308,61.09Z" style="fill:none;fill-rule:nonzero;stroke:#d4c0e2;stroke-width:29.62px;"/></g><g id="XMLID_64_"><path d="M3102.1,886.039l-0,-1.852c-0,-35.543 -28.879,-64.052 -64.052,-64.052c-6.665,0 -12.959,1.111 -18.883,2.962l0,-5.554c0,-56.277 -45.54,-101.817 -101.817,-101.817c-56.277,0 -101.817,45.54 -101.817,101.817c0,5.924 0.37,11.478 1.481,17.032l-1.481,-0c-27.398,-0 -49.983,22.214 -49.983,49.983l0,1.481l336.552,-0Z" style="fill:none;fill-rule:nonzero;stroke:#d4c0e2;stroke-width:29.62px;"/></g><g id="XMLID_115_"><path d="M1137.96,2365.53c-93.672,-0 -169.942,-76.271 -169.942,-169.942c-0,-93.672 76.27,-169.942 169.942,-169.942c93.671,-0 169.942,76.27 169.942,169.942c-0,93.671 -76.271,169.942 -169.942,169.942Z" style="fill:#5c3f6b;fill-rule:nonzero;"/></g><g id="XMLID_11_"><path d="M1137.96,2365.53c-93.672,-0 -169.942,-76.271 -169.942,-169.942c-0,-93.672 76.27,-169.942 169.942,-169.942c93.671,-0 169.942,76.27 169.942,169.942c-0,93.671 -76.271,169.942 -169.942,169.942Z" style="fill:none;fill-rule:nonzero;stroke:#523160;stroke-width:29.62px;"/></g><g id="XMLID_116_"><path d="M1137.96,2284.45c-48.872,0 -88.859,-39.986 -88.859,-88.858c0,-48.873 39.987,-88.859 88.859,-88.859c48.872,0 88.858,39.986 88.858,88.859c0,48.872 -39.986,88.858 -88.858,88.858Z" style="fill:#fdc858;fill-rule:nonzero;"/></g><g id="XMLID_9_"><path d="M1137.96,2284.45c-48.872,0 -88.859,-39.986 -88.859,-88.858c0,-48.873 39.987,-88.859 88.859,-88.859c48.872,0 88.858,39.986 88.858,88.859c0,48.872 -39.986,88.858 -88.858,88.858Z" style="fill:none;fill-rule:nonzero;stroke:#523160;stroke-width:29.62px;"/></g><g id="XMLID_123_"><path d="M1137.96,2224.84c-16.291,-0 -29.249,-13.329 -29.249,-29.249c-0,-16.291 13.328,-29.25 29.249,-29.25c16.291,0 29.249,13.329 29.249,29.25c0,15.92 -12.958,29.249 -29.249,29.249Z" style="fill:#fdc858;fill-rule:nonzero;"/></g><g id="XMLID_14_"><path d="M1137.96,2224.84c-16.291,-0 -29.249,-13.329 -29.249,-29.249c-0,-16.291 13.328,-29.25 29.249,-29.25c16.291,0 29.249,13.329 29.249,29.25c0,15.92 -12.958,29.249 -29.249,29.249Z" style="fill:none;fill-rule:nonzero;stroke:#523160;stroke-width:29.62px;"/></g><g id="XMLID_84_"><path d="M2496.75,1678.36l-34.803,-132.177c-13.699,-52.945 -58.868,-91.45 -113.294,-97.374c-155.503,-16.661 -343.957,-26.287 -563.881,-26.287c-251.766,-0 -638.671,19.252 -754.927,32.581c-21.104,2.222 -39.246,15.921 -47.762,35.544l-69.976,163.647c-32.211,57.758 -51.834,121.44 -57.388,187.344l-1.481,368.022l78.122,1.481c-0.37,-5.184 -0.741,-10.367 -0.741,-15.55c0,-114.406 92.561,-206.967 206.967,-206.967c114.405,0 206.966,92.561 206.966,206.967c-0,6.664 -0.37,13.328 -1.111,19.623l544.258,6.664c-1.11,-8.516 -1.851,-17.401 -1.851,-26.287c0,-114.406 92.561,-206.967 206.966,-206.967c114.406,0 206.967,92.561 206.967,206.967c-0,10.366 -0.741,20.363 -2.222,30.36l219.555,2.221l-0,-383.572c1.11,-55.907 -6.294,-111.814 -20.364,-166.24Z" style="fill:#8e63ad;fill-rule:nonzero;"/></g><g opacity="0.36"><path id="XMLID_306_" d="M894.707,2209.66l1.481,-368.022c5.553,-65.904 25.176,-129.586 57.387,-187.344l69.976,-163.647c8.516,-19.623 26.658,-32.952 47.762,-35.544c112.924,-12.958 480.576,-31.471 732.342,-32.581l-18.882,-0c-251.766,-0 -638.671,19.252 -754.927,32.581c-21.104,2.222 -39.246,15.921 -47.762,35.544l-69.976,163.647c-32.211,57.758 -51.834,121.44 -57.388,187.344l-1.481,368.022l78.122,1.481l-0,-0.741l-36.654,-0.74Z" style="fill:#8e63ad;fill-rule:nonzero;"/><path id="XMLID_312_" d="M2339.77,2225.95c1.481,-9.997 2.221,-19.994 2.221,-30.36c0,-114.406 -92.56,-206.967 -206.966,-206.967c-7.034,0 -13.699,0.371 -20.733,1.111c104.779,10.367 186.232,98.485 186.232,205.856c0,10.366 -0.74,20.363 -2.221,30.36l219.554,2.221l0,-0.37l-178.087,-1.851Z" style="fill:#8e63ad;fill-rule:nonzero;"/><path id="XMLID_314_" d="M1385.28,2214.84c0.74,-6.294 1.11,-12.958 1.11,-19.623c0,-114.405 -92.561,-206.966 -206.966,-206.966c-7.035,0 -13.699,0.37 -20.734,1.111c104.779,10.367 186.233,98.485 186.233,205.855c0,6.665 -0.37,13.329 -1.111,19.623l544.259,6.665l-0,-0.371l-502.791,-6.294Z" style="fill:#8e63ad;fill-rule:nonzero;"/></g><g id="XMLID_331_"><path d="M1386.02,2181.52l494.646,0l-0,-49.242l-504.272,-0c5.183,15.92 8.145,32.211 9.626,49.242Z" style="fill:#8e63ad;fill-opacity:0.36;fill-rule:nonzero;"/></g><g opacity="0.25"><path id="XMLID_301_" d="M2504.16,1674.66l-34.803,-132.177c-13.699,-52.945 -58.868,-91.451 -113.294,-97.374c-155.503,-16.661 -343.957,-26.288 -563.882,-26.288c-251.765,0 -638.67,19.253 -754.927,32.582c-18.141,2.221 -34.432,12.588 -43.688,28.138c-0,0 -0,-6.294 0.37,-6.294c116.256,-13.329 503.161,-26.287 754.927,-26.287c220.295,-0 408.379,9.626 563.881,26.287c54.426,5.924 99.226,44.429 113.295,97.374l34.803,132.177c14.439,54.426 21.474,110.333 21.474,166.24l-0,355.063l43.689,0.371l-0,-383.573c-0.371,-55.907 -7.776,-111.813 -21.845,-166.239Z" style="fill:#8e63ad;fill-rule:nonzero;"/></g><g id="XMLID_8_"><path d="M2496.75,1678.36l-34.803,-132.177c-13.699,-52.945 -58.868,-91.45 -113.294,-97.374c-155.503,-16.661 -343.957,-26.287 -563.881,-26.287c-251.766,-0 -638.671,19.252 -754.927,32.581c-21.104,2.222 -39.246,15.921 -47.762,35.544l-69.976,163.647c-32.211,57.758 -51.834,121.44 -57.388,187.344l-1.481,368.022l78.122,1.481c-0.37,-5.184 -0.741,-10.367 -0.741,-15.55c0,-114.406 92.561,-206.967 206.967,-206.967c114.405,0 206.966,92.561 206.966,206.967c-0,6.664 -0.37,13.328 -1.111,19.623l544.258,6.664c-1.11,-8.516 -1.851,-17.401 -1.851,-26.287c0,-114.406 92.561,-206.967 206.966,-206.967c114.406,0 206.967,92.561 206.967,206.967c-0,10.366 -0.741,20.363 -2.222,30.36l219.555,2.221l-0,-383.572c1.11,-55.907 -6.294,-111.814 -20.364,-166.24Z" style="fill:none;fill-rule:nonzero;stroke:#523160;stroke-width:29.62px;"/></g><g id="XMLID_117_"><path d="M2093.56,2365.53c-93.672,-0 -169.942,-76.271 -169.942,-169.942c0,-93.672 76.27,-169.942 169.942,-169.942c93.672,-0 169.942,76.27 169.942,169.942c-0,93.671 -76.27,169.942 -169.942,169.942Z" style="fill:#5c3f6b;fill-rule:nonzero;"/></g><g id="XMLID_10_"><path d="M2093.56,2365.53c-93.672,-0 -169.942,-76.271 -169.942,-169.942c0,-93.672 76.27,-169.942 169.942,-169.942c93.672,-0 169.942,76.27 169.942,169.942c-0,93.671 -76.27,169.942 -169.942,169.942Z" style="fill:none;fill-rule:nonzero;stroke:#523160;stroke-width:29.62px;"/></g><g id="XMLID_120_"><path d="M2093.56,2284.45c-48.872,0 -88.859,-39.986 -88.859,-88.858c0,-48.873 39.987,-88.859 88.859,-88.859c48.872,0 88.858,39.986 88.858,88.859c0,48.872 -39.986,88.858 -88.858,88.858Z" style="fill:#fdc858;fill-rule:nonzero;"/></g><g id="XMLID_12_"><path d="M2093.56,2284.45c-48.872,0 -88.859,-39.986 -88.859,-88.858c0,-48.873 39.987,-88.859 88.859,-88.859c48.872,0 88.858,39.986 88.858,88.859c0,48.872 -39.986,88.858 -88.858,88.858Z" style="fill:none;fill-rule:nonzero;stroke:#523160;stroke-width:29.62px;"/></g><g id="XMLID_125_"><path d="M2093.56,2224.84c-16.291,-0 -29.249,-13.329 -29.249,-29.249c-0,-16.291 13.328,-29.25 29.249,-29.25c16.291,0 29.249,13.329 29.249,29.25c0,15.92 -12.958,29.249 -29.249,29.249Z" style="fill:#fdc858;fill-rule:nonzero;"/></g><g id="XMLID_13_"><path d="M2093.56,2224.84c-16.291,-0 -29.249,-13.329 -29.249,-29.249c-0,-16.291 13.328,-29.25 29.249,-29.25c16.291,0 29.249,13.329 29.249,29.25c0,15.92 -12.958,29.249 -29.249,29.249Z" style="fill:none;fill-rule:nonzero;stroke:#523160;stroke-width:29.62px;"/></g><g id="XMLID_127_"><path d="M853.239,2242.61l-40.356,-0c-16.661,-0 -29.99,-13.329 -29.99,-29.99l0,-119.589c0,-16.661 13.329,-29.99 29.99,-29.99l40.356,0l0,179.569Z" style="fill:#fff;fill-rule:nonzero;"/></g><g id="XMLID_6_"><path d="M853.239,2242.61l-40.356,-0c-16.661,-0 -29.99,-13.329 -29.99,-29.99l0,-119.589c0,-16.661 13.329,-29.99 29.99,-29.99l40.356,0l0,179.569Z" style="fill:none;fill-rule:nonzero;stroke:#523160;stroke-width:29.62px;"/></g><g id="XMLID_128_"><path d="M859.163,2014.91l-14.81,-0c-11.107,-0 -19.993,-8.886 -19.993,-19.993l0,-91.821c0,-11.107 8.886,-19.993 19.993,-19.993l14.81,-0c11.108,-0 19.993,8.886 19.993,19.993l0,91.821c0,11.107 -8.885,19.993 -19.993,19.993Z" style="fill:#fff;fill-rule:nonzero;"/></g><g id="XMLID_15_"><path d="M859.163,2014.91l-14.81,-0c-11.107,-0 -19.993,-8.886 -19.993,-19.993l0,-91.821c0,-11.107 8.886,-19.993 19.993,-19.993l14.81,-0c11.108,-0 19.993,8.886 19.993,19.993l0,91.821c0,11.107 -8.885,19.993 -19.993,19.993Z" style="fill:none;fill-rule:nonzero;stroke:#523160;stroke-width:29.62px;"/></g><g id="XMLID_126_"><path d="M2546.36,2271.12l-159.205,0c-18.512,0 -33.322,-14.809 -33.322,-33.322l0,-25.917c0,-18.512 14.81,-33.322 33.322,-33.322l159.205,0c18.512,0 33.322,14.81 33.322,33.322l-0,25.917c-0,18.142 -15.18,33.322 -33.322,33.322Z" style="fill:#fff;fill-rule:nonzero;"/></g><g id="XMLID_294_"><path d="M2389.38,2235.21c-0,-9.256 7.775,-17.031 17.031,-17.031l172.904,-0l-0,-6.295c-0,-18.512 -14.81,-33.322 -33.322,-33.322l-159.205,0c-18.512,0 -33.322,14.81 -33.322,33.322l0,25.917c0,18.513 14.81,33.322 33.322,33.322l2.592,0l-0,-35.913Z" style="fill:#d8d8d8;fill-rule:nonzero;"/></g><g id="XMLID_16_"><path d="M2546.36,2271.12l-159.205,0c-18.512,0 -33.322,-14.809 -33.322,-33.322l0,-25.917c0,-18.512 14.81,-33.322 33.322,-33.322l159.205,0c18.512,0 33.322,14.81 33.322,33.322l-0,25.917c-0,18.142 -15.18,33.322 -33.322,33.322Z" style="fill:none;fill-rule:nonzero;stroke:#523160;stroke-width:29.62px;"/></g><g id="XMLID_113_"><path d="M2276.83,1764.26l-171.423,-0c-19.623,-0 -35.544,-15.921 -35.544,-35.544l0,-172.904c0,-19.622 15.921,-35.543 35.544,-35.543l104.038,0c41.097,0 75.9,29.99 82.194,70.717l19.993,132.177c3.703,21.844 -12.958,41.097 -34.802,41.097Z" style="fill:#fdc858;fill-rule:nonzero;"/></g><g id="XMLID_293_"><path d="M2142.43,1598.39c0,-19.622 15.921,-35.543 35.543,-35.543l104.039,0c-14.44,-25.547 -41.838,-42.208 -72.568,-42.208l-104.038,0c-19.623,0 -35.544,15.921 -35.544,35.544l0,172.904c0,19.622 15.921,35.543 35.544,35.543l37.024,-0l0,-166.24Z" style="fill:#fdc858;fill-opacity:0.56;fill-rule:nonzero;"/></g><g id="XMLID_17_"><path d="M2276.83,1764.26l-171.423,-0c-19.623,-0 -35.544,-15.921 -35.544,-35.544l0,-172.904c0,-19.622 15.921,-35.543 35.544,-35.543l104.038,0c41.097,0 75.9,29.99 82.194,70.717l19.993,132.177c3.703,21.844 -12.958,41.097 -34.802,41.097Z" style="fill:none;fill-rule:nonzero;stroke:#523160;stroke-width:29.62px;"/></g><g id="XMLID_99_"><path d="M1955.83,1760.55l-378.389,0c-19.623,0 -35.543,-15.92 -35.543,-35.543l-0,-172.904c-0,-19.623 15.92,-35.543 35.543,-35.543l378.389,-0c19.623,-0 35.544,15.92 35.544,35.543l-0,172.904c-0.371,19.623 -15.921,35.543 -35.544,35.543Z" style="fill:#fdc858;fill-rule:nonzero;"/></g><g id="XMLID_308_"><path d="M1610.39,1590.24c-0,-19.623 15.92,-35.543 35.543,-35.543l345.067,-0l0,-2.592c0,-19.623 -15.92,-35.543 -35.543,-35.543l-378.019,-0c-19.623,-0 -35.543,15.92 -35.543,35.543l-0,172.904c-0,19.623 15.92,35.543 35.543,35.543l33.322,0l0,-170.312l-0.37,0Z" style="fill:#fdc858;fill-opacity:0.56;fill-rule:nonzero;"/></g><g id="XMLID_21_"><path d="M1955.83,1760.55l-378.389,0c-19.623,0 -35.543,-15.92 -35.543,-35.543l-0,-172.904c-0,-19.623 15.92,-35.543 35.543,-35.543l378.389,-0c19.623,-0 35.544,15.92 35.544,35.543l-0,172.904c-0.371,19.623 -15.921,35.543 -35.544,35.543Z" style="fill:none;fill-rule:nonzero;stroke:#523160;stroke-width:29.62px;"/></g><g id="XMLID_94_"><path d="M1369.73,1764.26l-356.544,-0c-19.994,-0 -34.433,-22.215 -28.879,-44.8l41.097,-172.904c3.702,-15.18 15.55,-25.917 28.879,-25.917l315.447,0c16.661,0 29.99,15.921 29.99,35.544l0,172.904c0.37,19.252 -13.329,35.173 -29.99,35.173Z" style="fill:#fdc858;fill-rule:nonzero;"/></g><g id="XMLID_316_"><path d="M1050.95,1755.74l41.098,-172.904c3.702,-15.18 15.55,-25.917 28.879,-25.917l278.793,0l0,-1.111c0,-19.622 -13.329,-35.543 -29.99,-35.543l-315.447,0c-13.329,0 -25.177,10.737 -28.879,25.917l-41.097,172.904c-5.184,22.585 8.885,44.799 28.879,44.799l36.654,0c0.37,-2.591 0.74,-5.183 1.11,-8.145Z" style="fill:#fdc858;fill-opacity:0.56;fill-rule:nonzero;"/></g><g id="XMLID_22_"><path d="M1369.73,1764.26l-356.544,-0c-19.994,-0 -34.433,-22.215 -28.879,-44.8l41.097,-172.904c3.702,-15.18 15.55,-25.917 28.879,-25.917l315.447,0c16.661,0 29.99,15.921 29.99,35.544l0,172.904c0.37,19.252 -13.329,35.173 -29.99,35.173Z" style="fill:none;fill-rule:nonzero;stroke:#523160;stroke-width:29.62px;"/></g><g id="XMLID_20_"><path d="M1406.38,1439.92c42.208,0 76.271,34.063 76.271,76.27l-0,700.502" style="fill:none;fill-rule:nonzero;stroke:#523160;stroke-opacity:0.48;stroke-width:7.4px;"/></g><g id="XMLID_24_"><path d="M1307.9,1853.12l111.073,0" style="fill:none;fill-rule:nonzero;stroke:#523160;stroke-width:29.62px;"/></g><g id="XMLID_150_"><path d="M1884.37,1844.6l94.783,-0" style="fill:none;fill-rule:nonzero;stroke:#523160;stroke-width:29.62px;"/></g><g id="XMLID_289_"><path d="M2527.85,2101.92l-14.44,-0l0,-353.583l14.44,0c24.436,0 44.429,19.993 44.429,44.429l0,264.725c0,24.436 -19.993,44.429 -44.429,44.429Z" style="fill:#d8d8d8;fill-rule:nonzero;"/></g><g id="XMLID_18_"><path d="M2527.85,2101.92l-14.44,-0l0,-353.583l14.44,0c24.436,0 44.429,19.993 44.429,44.429l0,264.725c0,24.436 -19.993,44.429 -44.429,44.429Z" style="fill:none;fill-rule:nonzero;stroke:#523160;stroke-width:29.62px;"/></g><g id="XMLID_25_"><path d="M2353.84,1557.66l44.8,-0" style="fill:none;fill-rule:nonzero;stroke:#523160;stroke-width:29.62px;"/></g><g id="XMLID_26_"><path d="M2372.35,1621.34l44.8,-0" style="fill:none;fill-rule:nonzero;stroke:#523160;stroke-width:29.62px;"/></g><g id="XMLID_27_"><path d="M2389.75,1684.65l44.799,0" style="fill:none;fill-rule:nonzero;stroke:#523160;stroke-width:29.62px;"/></g><g id="XMLID_28_"><path d="M2397.16,1748.34l45.17,0" style="fill:none;fill-rule:nonzero;stroke:#523160;stroke-width:29.62px;"/></g><g id="XMLID_124_"><path d="M1855.86,2239.65l-478.725,-0c-19.993,-0 -35.913,-15.921 -35.913,-35.914c-0,-19.993 15.92,-35.914 35.913,-35.914l478.725,0c19.994,0 35.914,15.921 35.914,35.914c0,19.623 -15.92,35.914 -35.914,35.914Z" style="fill:#fff;fill-rule:nonzero;"/></g><g id="XMLID_141_"><path d="M1855.86,2239.65l-478.725,-0c-19.993,-0 -35.913,-15.921 -35.913,-35.914c-0,-19.993 15.92,-35.914 35.913,-35.914l478.725,0c19.994,0 35.914,15.921 35.914,35.914c0,19.623 -15.92,35.914 -35.914,35.914Z" style="fill:#fff;fill-rule:nonzero;"/></g><g id="XMLID_273_"><rect x="1341.22" y="2167.82" width="550.552" height="35.914" style="fill:#d8d8d8;"/></g><g id="XMLID_4_"><path d="M1855.86,2239.65l-478.725,-0c-19.993,-0 -35.913,-15.921 -35.913,-35.914c-0,-19.993 15.92,-35.914 35.913,-35.914l478.725,0c19.994,0 35.914,15.921 35.914,35.914c0,19.623 -15.92,35.914 -35.914,35.914Z" style="fill:none;fill-rule:nonzero;stroke:#523160;stroke-width:29.62px;"/></g><g id="XMLID_156_"><path d="M1083.53,1672.44l72.568,-72.938" style="fill:none;fill-rule:nonzero;stroke:#523160;stroke-width:14.81px;"/></g><g id="XMLID_159_"><path d="M1144.99,1679.1l97.745,-98.485" style="fill:none;fill-rule:nonzero;stroke:#523160;stroke-width:14.81px;"/></g><g id="XMLID_169_"><path d="M1647.41,1663.92l72.198,-73.309" style="fill:none;fill-rule:nonzero;stroke:#523160;stroke-width:14.81px;"/></g><g id="XMLID_167_"><path d="M1708.87,1670.59l97.744,-98.485" style="fill:none;fill-rule:nonzero;stroke:#523160;stroke-width:14.81px;"/></g><g id="XMLID_172_"><path d="M2116.88,1670.95l59.609,-60.349" style="fill:none;fill-rule:nonzero;stroke:#523160;stroke-width:14.81px;"/></g><g id="XMLID_170_"><path d="M2167.61,1676.51l80.343,-81.454" style="fill:none;fill-rule:nonzero;stroke:#523160;stroke-width:14.81px;"/></g><g id="XMLID_119_"><path d="M2725.56,1866.44l305.821,-724.197c6.665,-15.55 28.879,-15.55 35.544,0l305.821,724.197c36.654,86.637 -41.467,177.347 -152.54,177.347l-342.106,-0c-111.073,-0 -189.194,-90.71 -152.54,-177.347Z" style="fill:#fdc858;fill-rule:nonzero;"/></g><g id="XMLID_133_"><path d="M2725.56,1866.44l305.821,-724.197c6.665,-15.55 28.879,-15.55 35.544,0l305.821,724.197c36.654,86.637 -41.467,177.347 -152.54,177.347l-342.106,-0c-111.073,-0 -189.194,-90.71 -152.54,-177.347Z" style="fill:#fdc858;fill-rule:nonzero;"/></g><g id="XMLID_340_"><path d="M2875.14,1900.51l218.074,-696.428l-25.917,-61.831c-6.664,-15.55 -28.879,-15.55 -35.543,0l-305.822,724.197c-36.654,86.637 41.468,177.347 152.541,177.347l25.917,-0c-32.582,-27.398 -45.17,-72.938 -29.25,-143.285Z" style="fill:#fdc858;fill-opacity:0.56;fill-rule:nonzero;"/></g><g id="XMLID_132_"><path d="M3049.16,2365.53l0,-1090" style="fill:none;fill-rule:nonzero;stroke:#523160;stroke-width:29.62px;"/></g><g id="XMLID_130_"><path d="M3137.27,1427.34l-88.118,84.045l-87.748,-84.045" style="fill:none;fill-rule:nonzero;stroke:#523160;stroke-width:29.62px;"/></g><g id="XMLID_135_"><path d="M3153.93,1587.28l-104.779,100.336l-104.779,-100.336" style="fill:none;fill-rule:nonzero;stroke:#523160;stroke-width:29.62px;"/></g><g id="XMLID_171_"><path d="M3223.91,1769.44l-174.755,138.842l-174.755,-138.842" style="fill:none;fill-rule:nonzero;stroke:#523160;stroke-width:29.62px;"/></g><g id="XMLID_336_"><path d="M2067.64,184.797l-44.429,44.429l-44.43,-44.429" style="fill:none;fill-rule:nonzero;stroke:#d4c0e2;stroke-width:29.62px;"/></g><g id="XMLID_335_"><path d="M2398.27,242.555l-44.43,44.429l-44.799,-44.429" style="fill:none;fill-rule:nonzero;stroke:#d4c0e2;stroke-width:29.62px;"/></g><g id="XMLID_342_"><path d="M3102.47,481.362l-44.799,44.429l-44.43,-44.429" style="fill:none;fill-rule:nonzero;stroke:#d4c0e2;stroke-width:29.62px;"/></g><g id="XMLID_324_"><path d="M2671.14,2365.53l-1029.28,-0" style="fill:none;fill-rule:nonzero;stroke:#523160;stroke-width:29.62px;"/></g><g id="XMLID_190_"><path d="M1655.56,2365.53l-124.773,-0" style="fill:none;fill-rule:nonzero;stroke:#523160;stroke-width:29.62px;"/></g><g><g><text x="168.699px" y="2820.23px" style="font-family:'Nunito-Black', 'Nunito';font-weight:900;font-size:490.407px;fill:#fdc858;">R<tspan x="512.475px " y="2820.23px ">a</tspan>ndom Dojo</text></g></g></svg>