<?xml version="1.0" encoding="UTF-8" standalone="no"?><!DOCTYPE svg PUBLIC "-//W3C//DTD SVG 1.1//EN" "http://www.w3.org/Graphics/SVG/1.1/DTD/svg11.dtd"><svg width="100%" height="100%" viewBox="0 0 4167 4167" version="1.1" xmlns="http://www.w3.org/2000/svg" xmlns:xlink="http://www.w3.org/1999/xlink" xml:space="preserve" xmlns:serif="http://www.serif.com/" style="fill-rule:evenodd;clip-rule:evenodd;stroke-linecap:round;stroke-linejoin:round;stroke-miterlimit:10;"><g><ellipse id="XMLID_25_" cx="2113.75" cy="2651.25" rx="415" ry="92.083" style="fill:#4c3142;"/><path id="XMLID_1_" d="M1790.42,1679.58l-0,933.334c-0,39.583 122.916,71.25 275,71.25c152.083,-0 275,-32.084 275,-71.25l-0,-933.334l-550,0Z" style="fill:#f04e64;fill-rule:nonzero;"/><path id="XMLID_84_" d="M1790.42,1679.58l-0,933.334c-0,39.583 122.916,71.25 275,71.25c152.083,-0 275,-32.084 275,-71.25l-0,-933.334l-550,0Z" style="fill:#f04e64;fill-rule:nonzero;"/><circle id="XMLID_94_" cx="2007.92" cy="2105" r="77.083" style="fill:#f1a899;fill-opacity:0.26;"/><circle id="XMLID_130_" cx="2036.67" cy="2182.08" r="47.5" style="fill:#f1a899;fill-opacity:0.15;"/><circle id="XMLID_136_" cx="2201.25" cy="2144.17" r="47.5" style="fill:#f1a899;fill-opacity:0.15;"/><circle id="XMLID_146_" cx="2223.75" cy="2477.5" r="47.5" style="fill:#f1a899;fill-opacity:0.15;"/><circle id="XMLID_177_" cx="2012.92" cy="2588.75" r="47.5" style="fill:#f1a899;fill-opacity:0.15;"/><circle id="XMLID_154_" cx="1981.25" cy="1829.17" r="47.5" style="fill:#f1a899;fill-opacity:0.15;"/><circle id="XMLID_164_" cx="2256.25" cy="1892.5" r="47.5" style="fill:#f1a899;fill-opacity:0.15;"/><circle id="XMLID_132_" cx="1989.17" cy="2430" r="31.25" style="fill:#f1a899;fill-opacity:0.15;"/><circle id="XMLID_134_" cx="1836.67" cy="2241.25" r="31.25" style="fill:#f1a899;fill-opacity:0.15;"/><path id="XMLID_96_" d="M2256.25,1679.58l0,984.584c51.667,-12.917 84.167,-31.25 84.167,-51.25l-0,-933.334l-84.167,0Z" style="fill:#af3457;fill-rule:nonzero;"/><path id="XMLID_24_" d="M1789.17,1679.58l-0,933.334c-0,39.583 122.916,71.25 275,71.25c152.083,-0 275,-32.084 275,-71.25l-0,-933.334l-550,0Z" style="fill:none;fill-rule:nonzero;stroke:#4c3142;stroke-width:33.33px;"/><ellipse id="XMLID_9_" cx="2065.42" cy="1681.25" rx="275" ry="71.25" style="fill:#f1a899;"/><path id="XMLID_175_" d="M2065.42,1643.33c129.583,0 238.333,23.334 267.5,54.584c5,-5.417 7.5,-10.834 7.5,-16.667c-0,-39.583 -122.917,-71.25 -275,-71.25c-152.084,-0 -275,32.083 -275,71.25c-0,5.833 2.5,11.25 7.5,16.667c29.166,-31.25 137.916,-54.584 267.5,-54.584Z" style="fill:#f9ccc5;fill-rule:nonzero;"/><path id="XMLID_174_" d="M2330,1661.67c-32.917,30 -138.75,51.666 -264.583,51.666c-125.834,0 -231.667,-22.083 -264.584,-51.666c-6.666,6.25 -10.416,12.916 -10.416,19.583c-0,39.583 122.916,71.25 275,71.25c152.083,0 275,-32.083 275,-71.25c-0,-6.667 -3.75,-13.333 -10.417,-19.583Z" style="fill:#e59588;fill-rule:nonzero;"/><ellipse id="XMLID_85_" cx="2078.33" cy="1697.08" rx="40.417" ry="16.25" style="fill:#4c3142;"/><ellipse id="XMLID_7_" cx="2064.17" cy="1681.25" rx="275" ry="71.25" style="fill:none;stroke:#4c3142;stroke-width:33.33px;"/><path id="XMLID_83_" d="M1790.42,1992.08l548.75,-230.833" style="fill:none;fill-rule:nonzero;stroke:#4c3142;stroke-width:37.5px;stroke-linecap:butt;"/><path id="XMLID_129_" d="M2122.92,2055l202.083,-85" style="fill:none;fill-rule:nonzero;stroke:#4c3142;stroke-width:37.5px;"/><path id="XMLID_98_" d="M1796.67,2192.08l240,-100.833" style="fill:none;fill-rule:nonzero;stroke:#4c3142;stroke-width:37.5px;"/><path id="XMLID_133_" d="M1790.42,2397.5l548.75,-230.417" style="fill:none;fill-rule:nonzero;stroke:#4c3142;stroke-width:37.5px;stroke-linecap:butt;"/><path id="XMLID_145_" d="M1790.42,2600.42l548.75,-230.834" style="fill:none;fill-rule:nonzero;stroke:#4c3142;stroke-width:37.5px;stroke-linecap:butt;"/><path id="XMLID_87_" d="M1897.5,2415.42l0,144.583" style="fill:none;fill-rule:nonzero;stroke:#fffdfd;stroke-width:33.33px;"/><path id="XMLID_86_" d="M1897.5,1844.58l0,479.167" style="fill:none;fill-rule:nonzero;stroke:#fffdfd;stroke-width:33.33px;"/></g><g id="XMLID_13_"><path id="XMLID_183_" d="M2133.75,1427.92c0,-0 17.083,5.416 42.917,13.75c25.416,8.333 60,19.166 94.166,30c17.084,5.416 34.584,10.833 50.417,15.416c7.917,2.5 15.833,5 23.333,7.084c7.5,2.083 14.167,4.583 20.834,6.666c6.25,2.084 12.083,4.167 17.5,6.25c5,2.084 9.583,4.167 12.916,5.834c7.084,3.75 10.834,7.083 10.834,7.083c2.916,2.5 3.333,7.083 0.416,9.583c-1.25,1.667 -3.333,2.084 -5,2.5c0,0 -5,0 -12.5,-1.666c-3.75,-0.834 -8.75,-2.084 -13.75,-3.75c-5,-2.084 -10.833,-4.167 -17.083,-6.25c-6.25,-2.5 -13.333,-5 -20.417,-7.917c-7.083,-2.917 -14.583,-5.833 -22.5,-9.167c-15.416,-6.666 -32.083,-13.333 -48.75,-20.416c-33.333,-13.334 -66.666,-27.084 -91.666,-37.084c-25,-10 -41.667,-16.666 -41.667,-16.666c-0.417,-0 -0.833,-0.834 -0.417,-1.25c-0.416,-0 0,-0 0.417,-0Z" style="fill:#ffdfac;fill-rule:nonzero;"/></g><g id="XMLID_14_"><path id="XMLID_160_" d="M2133.75,1405.42c0,-0 28.333,0.833 70.417,2.083c42.083,1.25 98.333,2.5 155,4.167c28.333,0.416 56.25,0.833 82.916,1.666c13.334,0.417 25.834,0.417 37.917,0.834c12.083,0.416 23.333,0.833 34.167,1.25c10.416,0.416 20.416,0.833 28.75,1.25c8.75,0.416 15.833,1.25 22.083,2.083c12.083,1.667 19.167,3.75 19.167,3.75c3.333,1.25 5.416,4.583 4.583,8.333c-0.833,2.5 -2.917,4.167 -5,4.584c0,-0 -7.083,1.25 -19.583,2.083c-6.25,0.417 -13.75,0.417 -22.084,-0c-8.75,-0.417 -18.333,-0.833 -28.75,-1.667c-10.416,-0.833 -22.083,-1.25 -34.166,-2.5c-12.084,-0.833 -25,-2.083 -37.917,-2.916c-26.25,-2.084 -54.583,-4.167 -82.5,-6.667c-56.25,-4.167 -112.5,-8.333 -154.583,-11.25c-42.084,-2.917 -70.417,-5 -70.417,-5c-0.417,-0 -0.833,-0.417 -0.833,-0.833c-0.417,-0.834 -0,-1.25 0.833,-1.25Z" style="fill:#ffdfac;fill-rule:nonzero;"/></g><g id="XMLID_15_"><path id="XMLID_73_" d="M2131.67,1389.17c-0,-0 17.083,-4.167 42.083,-10.417c25.417,-6.25 59.167,-15 92.917,-23.75c16.666,-4.583 33.75,-9.167 49.583,-13.333c7.917,-2.084 15.417,-4.167 22.917,-5.834c7.083,-2.083 14.166,-3.333 20.416,-5c6.25,-1.25 12.084,-2.916 17.5,-3.75c5,-1.25 10,-1.666 13.75,-1.666c7.5,-0.417 12.5,0.416 12.5,0.416c3.75,0.834 6.25,4.167 5.417,7.917c-0.417,2.083 -1.25,3.333 -2.917,4.583c0,0 -3.75,2.5 -11.25,5.417c-3.75,1.25 -7.916,2.917 -13.333,4.167c-5,1.25 -11.25,2.5 -17.5,3.75c-6.25,1.25 -13.333,2.5 -20.833,3.75c-7.5,1.25 -15,2.5 -23.334,3.75c-16.25,2.5 -33.333,5.416 -50.416,8.333c-34.167,6.25 -68.75,12.083 -94.584,16.667c-25.833,4.583 -42.916,7.916 -42.916,7.916c-0.417,0 -0.834,-0.416 -1.25,-0.833c0.416,-1.667 0.833,-2.083 1.25,-2.083Z" style="fill:#ffdfac;fill-rule:nonzero;"/></g><g id="XMLID_16_"><path id="XMLID_71_" d="M2153.75,1330.42c0,-0 20,-11.667 49.583,-28.75c29.584,-17.084 69.167,-40.417 108.75,-63.75c19.584,-11.667 39.167,-23.334 57.917,-34.584c9.167,-5.416 18.333,-10.833 26.667,-15.833c8.333,-5 16.666,-9.583 24.166,-13.75c7.5,-4.167 14.584,-7.917 20.417,-11.25c6.25,-3.333 11.667,-5.833 16.25,-7.5c9.167,-3.75 15,-5 15,-5c3.75,-0.833 7.083,1.667 7.917,5.417c0.416,2.083 -0.417,4.583 -1.667,5.833c-0,0 -4.167,4.167 -12.5,10c-4.167,2.917 -9.167,6.25 -15.417,9.583c-6.25,3.334 -12.916,7.084 -20.416,11.25c-7.5,4.167 -15.834,8.334 -24.584,12.917c-8.75,4.583 -17.916,9.167 -27.5,13.75c-19.166,9.583 -39.583,19.583 -60,30c-40.833,20.833 -81.666,41.25 -112.083,57.083c-30.417,15.834 -50.833,26.25 -50.833,26.25c-0.417,0.417 -1.25,0 -1.25,-0.416c-1.25,-0.417 -0.834,-1.25 -0.417,-1.25Z" style="fill:#ffdfac;fill-rule:nonzero;"/></g><g id="XMLID_17_"><path id="XMLID_185_" d="M2124.58,1312.92c0,-0 25.834,-21.25 64.584,-53.334c38.75,-31.666 90.416,-74.583 141.666,-117.5c25.834,-21.666 51.25,-42.916 75.417,-63.333c12.083,-10 23.75,-19.583 34.583,-29.167c10.834,-9.166 21.667,-17.916 31.25,-25.833c10,-7.917 18.75,-15 26.667,-21.25c7.917,-6.25 15.417,-11.667 21.25,-15.417c12.083,-8.333 20,-12.083 20,-12.083c3.333,-1.667 7.083,-0.417 8.75,2.917c1.25,2.5 0.833,5 -0.833,7.083c-0,0 -5.417,6.667 -16.25,16.667c-5.417,5 -12.084,10.833 -20,17.5c-7.917,6.25 -17.084,13.333 -27.084,21.25c-10,7.5 -20.833,16.25 -32.083,24.583c-11.667,8.75 -23.75,17.917 -36.25,27.5c-25,18.75 -51.667,39.167 -78.75,59.167c-53.333,40.416 -106.667,81.25 -146.25,111.666c-40,30.417 -66.25,50.834 -66.25,50.834c-0.417,0.416 -0.833,0.416 -1.25,-0c0.417,-0 0.417,-0.834 0.833,-1.25Z" style="fill:#ffdfac;fill-rule:nonzero;"/></g><g id="XMLID_42_"><path id="XMLID_69_" d="M2077.92,1421.25c-0,0 -10.417,6.25 -25.834,16.25c-15.416,9.583 -36.25,22.917 -57.083,35.833c-10.417,6.667 -20.417,13.334 -30,19.584c-5,2.916 -9.583,6.25 -13.75,8.75c-4.583,2.916 -8.75,5.416 -12.5,7.916c-3.75,2.5 -7.5,4.584 -10.833,6.25c-3.334,1.667 -6.25,3.334 -8.75,4.167c-5,2.083 -7.917,2.917 -7.917,2.917c-2.083,0.416 -4.167,-0.834 -4.583,-3.334c-0.417,-1.25 -0,-2.5 0.833,-3.333c0,0 2.083,-2.5 6.25,-5.833c2.083,-1.667 5,-3.334 7.917,-5.417c3.333,-2.083 7.083,-3.75 10.833,-6.25c4.167,-2.083 8.333,-4.583 12.917,-7.083c4.583,-2.5 9.583,-5 14.583,-7.917c10,-5.417 20.833,-11.25 31.667,-16.667c21.666,-11.666 42.916,-23.333 59.166,-32.083c16.25,-8.75 26.667,-14.583 26.667,-14.583c0.417,-0 0.833,-0 0.833,0.416c-0.416,-0.416 -0.416,0 -0.416,0.417Z" style="fill:#ffdfac;fill-rule:nonzero;"/></g><g id="XMLID_39_"><path id="XMLID_67_" d="M2074.58,1406.25c0,0 -18.333,4.583 -46.25,11.667c-27.916,7.083 -65,16.666 -102.083,26.25c-18.333,5 -37.083,10 -54.167,14.583c-8.75,2.083 -17.083,4.583 -25,6.667c-7.916,2.083 -15.416,3.75 -22.5,5.833c-7.083,1.667 -13.333,3.333 -19.166,4.583c-5.834,1.25 -10.834,2.084 -15,2.917c-8.334,1.25 -13.334,1.25 -13.334,1.25c-2.083,0 -4.166,-1.667 -4.166,-3.75c-0,-1.667 0.833,-2.917 2.083,-3.75c-0,0 4.583,-2.083 12.5,-4.583c4.167,-1.25 8.75,-2.917 14.583,-4.167c5.834,-1.25 12.084,-2.917 19.167,-4.583c7.083,-1.667 14.583,-3.334 22.5,-5c7.917,-1.667 16.667,-3.334 25.417,-5.417c17.5,-3.75 36.25,-7.5 55,-11.25c37.5,-7.917 75,-16.25 102.916,-22.083c27.917,-6.25 46.667,-10.417 46.667,-10.417c0.417,0 0.417,0 0.833,0.417c0.834,0.416 0.417,0.416 0,0.833Z" style="fill:#ffdfac;fill-rule:nonzero;"/></g><g id="XMLID_36_"><path id="XMLID_65_" d="M2073.75,1395l-29.583,0c-17.917,0 -41.25,0 -65,0.417c-11.667,-0 -23.75,0.416 -34.584,0.416l-30,0c-4.583,0 -8.333,0 -12.083,-0.416c-3.75,-0 -6.667,-0.417 -9.167,-0.834c-5,-0.833 -7.916,-2.083 -7.916,-2.083c-2.084,-0.833 -2.917,-3.333 -2.084,-5.417c0.417,-1.25 1.25,-2.083 2.5,-2.5c0,0 2.917,-0.833 8.334,-1.666c2.5,-0.417 5.833,-0.417 9.166,-0.417c3.75,0 7.5,0.417 12.084,0.417c4.583,0.416 9.166,0.416 14.166,0.833c5,0.417 10.417,0.833 15.834,1.25c11.25,0.833 22.916,1.667 34.583,2.5c23.75,1.667 47.083,3.333 65,4.167c17.917,0.833 29.583,1.666 29.583,1.666c0.417,0 0.417,0.417 0.417,0.417c-0.833,1.25 -0.833,1.25 -1.25,1.25Z" style="fill:#ffdfac;fill-rule:nonzero;"/></g><g id="XMLID_19_"><path id="XMLID_62_" d="M2080.83,1361.25c0,0 -18.333,-7.917 -45.833,-20.417c-27.5,-12.083 -64.167,-28.333 -100.833,-44.166c-18.334,-7.917 -36.667,-15.834 -54.167,-23.334c-8.75,-3.75 -17.083,-7.5 -25,-10.833c-7.917,-3.333 -15.417,-6.667 -22.083,-10c-6.667,-2.917 -12.917,-5.833 -18.75,-8.333c-5.417,-2.5 -10.417,-5 -14.167,-7.084c-7.5,-4.166 -11.667,-7.5 -11.667,-7.5c-1.666,-1.25 -2.083,-3.75 -0.833,-5.416c0.833,-1.25 2.5,-1.667 4.167,-1.667c-0,0 5,1.25 13.333,4.167c4.167,1.666 9.167,3.333 14.583,6.25c5.417,2.5 11.667,5.416 18.334,8.75c6.666,3.333 14.166,6.666 21.666,10.416c7.917,3.75 15.834,7.917 24.167,12.084c16.667,8.333 34.583,17.083 52.5,26.25c35.833,17.5 72.083,35 98.75,48.333c27.083,12.917 45,21.667 45,21.667c0.417,-0 0.417,0.416 0.417,0.833c0.833,0 0.416,0 0.416,0Z" style="fill:#ffdfac;fill-rule:nonzero;"/></g><g id="XMLID_29_"><path id="XMLID_59_" d="M2051.25,1358.33c0,0 -19.583,-4.583 -49.167,-11.25c-29.583,-6.666 -68.75,-15.416 -107.916,-24.583c-19.584,-4.167 -39.167,-8.75 -57.917,-12.917c-9.167,-2.083 -17.917,-4.166 -26.667,-5.833c-8.333,-1.667 -16.25,-3.75 -23.75,-5.417c-7.5,-1.666 -14.166,-3.333 -20,-5c-5.833,-1.666 -11.25,-2.916 -15.416,-4.583c-8.334,-2.917 -12.917,-5 -12.917,-5c-2.083,-0.833 -2.917,-3.333 -1.667,-5.417c0.834,-1.25 2.084,-2.083 3.75,-2.083c0,0 5,0 13.75,1.667c4.167,0.833 9.584,1.666 15.417,3.333c5.833,1.667 12.5,3.333 20,5c7.5,2.083 15.417,3.75 23.75,6.25c8.333,2.083 17.083,4.583 26.25,7.083c18.333,5 37.5,10.417 57.083,15.834c38.75,10.416 77.917,20.833 107.084,28.75c29.166,7.916 48.75,12.916 48.75,12.916c0.416,0 0.416,0.417 0.416,0.834c0,0.416 -0.416,0.416 -0.833,0.416Z" style="fill:#ffdfac;fill-rule:nonzero;"/></g><g id="XMLID_18_"><path id="XMLID_52_" d="M2068.33,1343.33c0,0 -21.666,-15.416 -54.583,-39.166c-32.917,-23.334 -76.667,-54.584 -120.417,-85.417c-22.083,-15.417 -43.75,-30.833 -64.583,-45.417c-10.417,-7.083 -20,-14.166 -29.583,-20.833c-9.584,-6.667 -18.334,-12.917 -26.25,-19.167c-8.334,-5.833 -15.417,-11.25 -22.084,-16.25c-6.666,-5 -12.083,-9.166 -16.666,-12.916c-9.167,-7.5 -13.75,-12.5 -13.75,-12.5c-1.667,-1.667 -1.667,-4.167 -0,-5.417c1.25,-1.25 2.916,-1.25 4.583,-0.833c-0,-0 6.25,2.916 15.833,9.583c5,3.333 10.834,7.083 17.5,12.083c6.667,5 14.167,10.417 22.084,16.25c7.916,5.834 16.666,12.5 25.833,19.584c9.167,7.083 18.75,14.166 28.75,22.083c20,15.417 41.25,31.667 62.5,47.917c42.917,32.5 85.833,64.583 117.917,89.166c32.083,24.167 53.75,40.417 53.75,40.417c0.416,-0 0.416,0.417 -0,0.833l-0.834,0Z" style="fill:#ffdfac;fill-rule:nonzero;"/></g><g id="XMLID_63_"><path id="XMLID_206_" d="M2073.33,1327.08c0,0 -6.25,-5.416 -15.416,-12.916c-9.167,-7.917 -21.667,-18.334 -33.75,-28.334c-12.5,-10.416 -25,-20.416 -34.167,-28.333c-2.083,-2.083 -4.167,-3.75 -6.25,-5.417c-1.667,-1.666 -3.333,-3.333 -4.167,-5c-2.083,-2.916 -2.916,-5 -2.916,-5c-0.834,-2.083 0.416,-4.583 2.916,-5.416c0.834,-0.417 1.667,-0.417 2.5,-0c0,-0 2.084,0.416 5.417,2.5c1.667,0.833 3.333,2.083 5,3.75c1.667,1.666 3.75,3.75 5.833,5.833c8.75,8.333 19.584,20.417 30.417,32.083c11.25,11.667 22.083,23.334 30.833,31.667c8.334,8.75 14.167,14.167 14.167,14.167c0.417,0.416 0.417,0.416 0,0.833c0,-0.417 0,-0.417 -0.417,-0.417Z" style="fill:#ffdfac;fill-rule:nonzero;"/></g><g id="XMLID_60_"><path id="XMLID_199_" d="M2090,1319.17c0,-0 -7.083,-10 -17.5,-24.584c-10.417,-15 -24.583,-34.583 -38.333,-54.166c-7.084,-9.584 -14.167,-19.584 -20.834,-28.75c-3.333,-4.584 -6.666,-9.167 -9.583,-13.334c-2.917,-4.166 -5.833,-8.333 -8.333,-12.083c-2.5,-3.75 -5,-7.083 -7.084,-10.417c-2.083,-2.916 -3.75,-5.833 -4.583,-8.333c-2.5,-4.583 -3.333,-7.917 -3.333,-7.917c-0.417,-2.083 0.833,-4.583 2.916,-5c1.25,-0.416 2.5,0 3.334,0.834c-0,-0 2.5,2.083 5.833,5.833c1.667,2.083 3.75,4.583 5.833,7.5c2.084,2.917 4.167,6.667 6.667,10.417c2.5,3.75 5,7.916 7.917,12.5c2.5,4.583 5.416,9.166 8.333,14.166c5.833,9.584 12.083,20 18.333,30.417c12.5,20.417 25.417,41.25 35,56.667c9.584,15.416 15.834,25.833 15.834,25.833l-0,0.833c0.416,0 -0,0 -0.417,-0.416Z" style="fill:#ffdfac;fill-rule:nonzero;"/></g><g id="XMLID_57_"><path id="XMLID_219_" d="M2111.25,1308.33c0,0 -15.417,-30 -31.25,-60.416c-4.167,-7.5 -7.917,-15 -11.667,-22.084c-3.75,-7.083 -7.083,-13.75 -10,-19.166c-2.916,-5.834 -5.416,-10.417 -6.25,-14.167c-1.25,-3.333 -1.666,-5.833 -1.666,-5.833c-0,-1.667 0.833,-2.917 2.5,-2.917c0.833,0 1.666,0.417 2.083,0.833c0,0 1.667,1.667 3.75,4.584c2.083,2.916 4.167,7.916 7.083,13.75c2.917,5.833 5.834,12.5 8.75,20c3.334,7.5 6.667,15 10,22.916c13.75,31.25 27.5,62.084 27.5,62.084l0,0.416c-0.416,0.417 -0.833,0 -0.833,0Z" style="fill:#ffdfac;fill-rule:nonzero;"/></g><g id="XMLID_54_"><path id="XMLID_44_" d="M2111.25,1280.83c0,0 0.417,-48.333 0.833,-96.25l0,-35.416c0,-11.25 0,-21.667 0.417,-30.834c0,-9.166 0.417,-16.666 0.833,-21.666c0.417,-5.417 1.25,-8.334 1.25,-8.334c0.417,-1.25 1.667,-2.083 3.334,-2.083c0.833,0.417 1.666,1.25 2.083,2.083c0,0 0.417,2.917 0.833,8.334c0.417,5.416 0,12.916 -0.416,21.666c-0.417,9.167 -0.834,19.584 -1.667,30.834c-0.833,11.25 -1.25,23.333 -2.083,35.416c-2.5,48.334 -4.584,96.25 -4.584,96.25c0,0 -0.416,0.417 -0.833,0c0,0.417 0,0 0,0Z" style="fill:#ffdfac;fill-rule:nonzero;"/></g><g id="XMLID_32_"><path id="XMLID_40_" d="M2114.17,1302.5c-0,0 12.916,-39.167 25.833,-78.333c2.917,-10 6.25,-19.584 9.167,-28.75c2.916,-9.167 5.833,-17.917 8.333,-25c2.5,-7.5 4.583,-13.334 6.667,-17.5c2.083,-4.167 3.333,-6.25 3.333,-6.25c0.833,-1.25 2.5,-1.667 3.75,-0.834c0.833,0.417 1.25,1.667 1.25,2.5c0,0 0,2.5 -1.25,7.084c-0.833,4.583 -3.333,10.416 -5.833,17.916c-2.5,7.084 -5.834,15.834 -9.584,24.584c-3.75,9.166 -7.5,18.75 -11.25,28.333c-15,38.333 -29.583,77.083 -29.583,77.083l-0.417,0.417c-0.416,-0.833 -0.833,-1.25 -0.416,-1.25Z" style="fill:#ffdfac;fill-rule:nonzero;"/></g><g id="XMLID_37_"><path id="XMLID_50_" d="M2111.25,1308.33c0,0 -4.167,-20.416 -10.417,-51.25c-6.25,-30.416 -15,-71.25 -23.75,-112.083c-4.583,-20.417 -8.75,-40.833 -12.916,-60c-2.084,-9.583 -4.167,-18.75 -5.834,-27.5c-2.083,-8.75 -3.333,-17.083 -5,-24.583c-1.666,-7.5 -2.916,-14.584 -4.166,-20.834c-1.25,-6.25 -2.084,-11.666 -2.5,-16.25c-1.25,-9.166 -0.834,-14.583 -0.834,-14.583c0,-2.083 1.667,-3.75 4.167,-3.75c1.667,0 2.917,0.833 3.75,2.5c0,0 2.083,5 4.583,13.75c1.25,4.583 2.5,10 3.75,16.25c1.25,6.25 2.5,13.333 3.75,20.833c1.25,7.5 2.917,15.834 4.584,25c1.666,8.75 2.916,18.334 4.583,27.917c3.333,19.167 6.667,40 10,60.417c7.083,41.25 14.167,82.083 19.167,112.916c5.416,30.834 8.75,51.25 8.75,51.25c-0,0.417 -0,0.417 -0.417,0.834c-1.25,-0.417 -1.25,-0.417 -1.25,-0.834Z" style="fill:#ffdfac;fill-rule:nonzero;"/></g><g id="XMLID_22_"><path id="XMLID_31_" d="M2117.92,1269.58c-0,0 3.333,-20 8.333,-49.583c5,-30 11.25,-69.583 17.917,-109.583c2.916,-20 6.25,-40 9.166,-58.334c1.667,-9.166 2.917,-18.333 4.167,-27.083c1.25,-8.75 2.917,-16.667 4.167,-24.167c1.25,-7.5 2.5,-14.166 3.75,-20.416c1.25,-5.834 2.5,-11.25 3.333,-15.417c2.083,-8.75 4.167,-13.333 4.167,-13.333c0.833,-2.084 3.333,-2.917 5,-2.084c1.666,0.417 2.5,2.084 2.5,3.334c-0,-0 -0,5 -0.834,13.75c-0.416,4.583 -1.25,9.583 -2.083,15.833c-1.25,5.833 -2.5,12.917 -3.75,20.417c-1.25,7.5 -2.917,15.416 -4.583,23.75c-1.667,8.333 -3.75,17.5 -5.417,26.666c-3.75,18.334 -7.917,38.334 -12.083,57.917c-7.917,39.583 -16.25,79.167 -22.084,108.75c-5.833,29.583 -10,49.583 -10,49.583c0,0.417 -0.416,0.417 -0.833,0.417c-0.417,0 -0.833,0 -0.833,-0.417Z" style="fill:#ffdfac;fill-rule:nonzero;"/></g><path id="XMLID_35_" d="M2207.5,1045l5,24.167l24.167,5l-21.667,12.5l2.917,24.583l-18.334,-16.667l-22.5,10l10,-22.5l-16.666,-18.333l24.583,2.917l12.5,-21.667Z" style="fill:#ffdfac;fill-rule:nonzero;"/><path id="XMLID_95_" d="M1900.83,1111.67l2.917,13.333l13.333,2.5l-12.083,6.667l1.667,13.75l-10,-9.167l-12.5,5.417l5.833,-12.084l-9.167,-10l13.334,1.25l6.666,-11.666Z" style="fill:#ffdfac;fill-rule:nonzero;"/><path id="XMLID_41_" d="M1807.92,1319.58l3.333,17.084l17.083,3.333l-15,8.75l1.667,17.083l-12.5,-11.666l-15.833,7.083l7.083,-15.833l-11.667,-12.5l17.084,1.666l8.75,-15Z" style="fill:#ffdfac;fill-rule:nonzero;"/><path id="XMLID_112_" d="M1991.25,1501.25l1.25,7.083l7.083,1.25l-6.25,3.334l0.834,7.083l-5.417,-4.583l-6.25,2.916l2.917,-6.666l-4.584,-5l6.667,0.833l3.75,-6.25Z" style="fill:#ffdfac;fill-rule:nonzero;"/><path id="XMLID_91_" d="M1888.75,1398.75l1.667,6.667l6.25,1.25l-5.834,3.333l0.834,6.667l-5,-4.584l-5.834,2.917l2.5,-6.25l-4.166,-5l6.666,0.833l2.917,-5.833Z" style="fill:#fce47e;fill-rule:nonzero;"/><path id="XMLID_53_" d="M2420,1225l5.417,24.167l24.166,5l-21.666,12.5l2.916,24.583l-18.333,-16.667l-22.5,10.417l10,-22.917l-16.667,-18.333l24.584,2.917l12.083,-21.667Z" style="fill:#ffdfac;fill-rule:nonzero;"/><path id="XMLID_26_" d="M2456.25,1189.17l2.083,10.833l11.25,2.083l-10,5.834l1.25,10.833l-8.333,-7.5l-10,4.583l4.583,-10l-7.5,-8.333l11.25,1.25l5.417,-9.583Z" style="fill:#ffdfac;fill-rule:nonzero;"/><path id="XMLID_27_" d="M2311.25,1183.75l1.667,7.083l7.083,1.667l-6.25,3.75l0.833,7.083l-5.416,-5l-7.084,3.334l3.334,-7.084l-5,-5.416l7.083,0.833l3.75,-6.25Z" style="fill:#ffdfac;fill-rule:nonzero;"/><circle id="XMLID_11_" cx="2010" cy="1094.17" r="17.083" style="fill:#f73152;"/><circle id="XMLID_82_" cx="1850.42" cy="1404.17" r="8.333" style="fill:#f73152;"/><circle id="XMLID_55_" cx="2352.08" cy="1377.92" r="11.667" style="fill:#f73152;"/><circle id="XMLID_97_" cx="2169.58" cy="1487.92" r="11.667" style="fill:#f73152;"/><circle id="XMLID_28_" cx="2346.25" cy="1177.5" r="5.833" style="fill:#f73152;"/><circle id="XMLID_107_" cx="2212.08" cy="1140" r="5.833" style="fill:#f73152;"/><circle id="XMLID_194_" cx="1979.17" cy="1189.17" r="5.833" style="fill:#f73152;"/><path id="XMLID_10_" d="M2096.25,1412.5c-42.917,142.5 -124.167,245.833 -21.667,280" style="fill:none;fill-rule:nonzero;stroke:#fff;stroke-width:29.17px;"/><path id="XMLID_79_" d="M2136.25,1281.67l8.75,42.083c0.417,1.667 1.667,2.917 3.333,3.333l42.084,8.75c15,2.917 17.916,22.917 5,30.417l-37.084,21.25c-1.25,0.833 -2.083,2.5 -2.083,4.167l4.583,42.5c1.667,15 -16.25,24.166 -27.5,14.166l-31.666,-28.75c-1.25,-1.25 -2.917,-1.25 -4.584,-0.833l-39.166,17.917c-13.75,6.25 -27.917,-7.917 -21.667,-21.667l17.5,-39.167c0.833,-1.666 0.417,-3.333 -0.833,-4.583l-28.75,-31.667c-10,-11.25 -1.25,-29.166 13.75,-27.5l42.5,4.584c1.666,-0 3.333,-0.834 4.166,-2.084l21.25,-37.083c7.5,-13.75 27.5,-10.417 30.417,4.167Z" style="fill:#f04e64;fill-rule:nonzero;"/><path id="XMLID_20_" d="M2143.75,1280.42l9.167,42.5c0.416,1.666 1.666,2.916 3.333,3.333l42.5,8.75c15,2.917 18.333,23.333 5,30.833l-37.917,21.667c-1.666,0.833 -2.5,2.5 -2.083,4.167l5,43.333c1.667,15.417 -16.25,24.583 -27.917,14.167l-32.5,-29.167c-1.25,-1.25 -2.916,-1.25 -4.583,-0.833l-39.583,17.916c-14.167,6.25 -28.334,-7.916 -22.084,-22.083l17.917,-39.583c0.833,-1.667 0.417,-3.334 -0.833,-4.584l-29.584,-32.083c-10.416,-11.25 -1.25,-29.583 14.167,-27.917l43.333,4.584c1.667,-0 3.334,-0.834 4.167,-2.084l21.667,-37.916c7.5,-12.917 27.5,-10 30.833,5Z" style="fill:#fee35e;fill-rule:nonzero;"/><path id="XMLID_8_" d="M2135.83,1292.08l9.584,35.417c0.416,1.25 1.666,2.5 2.916,2.5l36.25,5.417c12.917,2.083 16.25,18.75 5.417,25.416l-30.417,20c-1.25,0.834 -1.666,2.084 -1.666,3.75l5.833,35.834c2.083,12.5 -12.5,21.25 -22.5,13.333l-28.333,-22.917c-1.25,-0.833 -2.5,-1.25 -3.75,-0.416l-32.5,16.666c-11.25,5.834 -24.167,-5.416 -19.584,-17.5l12.917,-34.166c0.417,-1.25 0,-2.917 -0.833,-3.75l-25.834,-25.417c-9.166,-9.167 -2.5,-24.583 10.417,-23.75l36.25,2.083c1.25,0 2.917,-0.833 3.333,-2.083l16.25,-32.5c5.834,-12.083 22.917,-10.417 26.25,2.083Z" style="fill:#fce47e;fill-rule:nonzero;"/><path id="XMLID_21_" d="M2140,1303.75l4.167,31.25c-0,1.25 0.833,2.083 2.083,2.5l30,8.75c10.833,2.917 12.083,17.5 2.083,22.5l-28.333,13.75c-1.25,0.417 -1.667,1.667 -1.667,2.917l1.25,31.25c0.417,11.25 -12.916,16.666 -20.833,8.75l-21.667,-22.5c-0.833,-0.834 -2.083,-1.25 -3.333,-0.834l-29.583,10.834c-10.417,3.75 -20,-7.084 -14.584,-17.084l15,-27.5c0.417,-1.25 0.417,-2.5 -0.416,-3.333l-19.167,-24.583c-6.667,-8.75 0.833,-21.25 11.667,-19.167l30.833,5.833c1.25,0.417 2.5,-0.416 2.917,-1.25l17.5,-25.833c6.25,-10.417 20.416,-7.083 22.083,3.75Z" style="fill:#f9ebb2;fill-rule:nonzero;"/></svg>