<?xml version="1.0" encoding="UTF-8" standalone="no"?><!DOCTYPE svg PUBLIC "-//W3C//DTD SVG 1.1//EN" "http://www.w3.org/Graphics/SVG/1.1/DTD/svg11.dtd"><svg width="100%" height="100%" viewBox="0 0 4167 4167" version="1.1" xmlns="http://www.w3.org/2000/svg" xmlns:xlink="http://www.w3.org/1999/xlink" xml:space="preserve" xmlns:serif="http://www.serif.com/" style="fill-rule:evenodd;clip-rule:evenodd;stroke-linecap:round;stroke-linejoin:round;stroke-miterlimit:10;"><g><g><g><path d="M263.333,3996.67c0,10.416 -5,15.416 -10.833,15.416c-4.583,0 -7.917,-2.083 -8.75,-5.833c-1.667,2.083 -4.167,3.333 -7.5,3.333c-6.25,0 -10.833,-5 -10.833,-11.666c-0,-6.667 4.583,-11.667 10.833,-11.667c2.917,0 5,1.25 6.667,2.917l-0,-2.084l6.666,0l0,16.25c0,3.334 1.25,5.834 4.167,5.834c3.75,-0 7.083,-3.75 7.083,-12.5c0,-12.5 -9.583,-22.084 -22.5,-22.084c-12.916,0 -23.333,10 -23.333,23.75c0,13.75 10.417,23.75 24.583,23.75c4.584,0 8.75,-0.833 12.084,-1.666l-0,2.5c-3.334,1.25 -7.084,1.666 -12.084,1.666c-15.416,0 -27.083,-10.833 -27.083,-25.833c0,-14.167 11.25,-25.833 25.833,-25.833c16.25,-0.834 25,12.083 25,23.75Zm-20.416,1.25c-0,-3.334 -2.5,-5.834 -5.417,-5.834c-3.333,0 -5.417,2.084 -5.417,5.834c0,3.333 2.5,5.416 5.417,5.416c3.333,0.417 5.417,-2.083 5.417,-5.416Z" style="fill:#eef2f4;fill-rule:nonzero;"/></g><g><path d="M289.167,3979.58l-0,8.334c-5,-0.417 -10.834,2.083 -10.834,10l0,17.916l-7.916,0l-0,-35.833l7.916,0l0,5.833c2.084,-4.583 6.25,-6.25 10.834,-6.25Z" style="fill:#eef2f4;fill-rule:nonzero;"/></g><g><path d="M310.833,4009.58c4.167,0 7.5,-2.083 9.167,-4.583l6.25,3.75c-3.333,5 -8.75,7.917 -15.833,7.917c-11.667,-0 -19.584,-7.917 -19.584,-18.75c0,-10.417 7.5,-18.75 18.75,-18.75c10.834,-0 17.917,8.75 17.917,18.75c0,1.25 0,2.083 -0.417,3.333l-28.333,-0c1.667,5.417 6.25,8.333 12.083,8.333Zm9.584,-14.583c-1.25,-6.25 -5.417,-8.75 -10.417,-8.75c-5.833,0 -9.583,3.333 -10.833,8.75l21.25,0Z" style="fill:#eef2f4;fill-rule:nonzero;"/></g><g><path d="M370.417,3980l-0,35.833l-7.917,0l-0,-5c-2.917,3.75 -7.083,6.25 -12.5,6.25c-9.583,0 -17.917,-8.333 -17.917,-18.75c0,-10.833 7.917,-18.75 17.917,-18.75c5.417,0 9.583,2.084 12.5,5.834l-0,-5l7.917,-0l-0,-0.417Zm-7.5,17.917c-0,-6.667 -5,-11.25 -11.25,-11.25c-6.25,-0 -11.25,4.583 -11.25,11.25c-0,6.666 5,11.25 11.25,11.25c6.25,0.416 11.25,-4.584 11.25,-11.25Z" style="fill:#eef2f4;fill-rule:nonzero;"/></g><g><rect x="379.583" y="3963.75" width="7.917" height="52.083" style="fill:#eef2f4;fill-rule:nonzero;"/></g><g><path d="M428.75,3980l-13.75,35.833l-8.75,0l-13.75,-35.833l8.333,0l10,27.083l10,-27.083l7.917,0Z" style="fill:#eef2f4;fill-rule:nonzero;"/></g><g><path d="M434.167,3980l7.916,0l0,37.083c0,10 -5,14.584 -14.583,13.75l0,-7.5c4.583,0.417 7.083,-1.25 7.083,-6.25l0,-37.083l-0.416,0Zm-0.834,-10c0,-2.917 2.084,-5 5,-5c2.917,0 5,2.083 5,5c0,2.5 -2.083,5 -5,5c-2.916,0 -5,-2.5 -5,-5Z" style="fill:#eef2f4;fill-rule:nonzero;"/></g><g><path d="M483.333,3980l-13.75,36.667c-3.333,9.166 -9.166,13.75 -17.5,13.333l0,-7.083c5,0.416 7.917,-2.084 9.584,-7.084l0.416,-0.833l-15,-35l8.334,0l10.833,25.833l9.167,-25.833l7.916,0Z" style="fill:#eef2f4;fill-rule:nonzero;"/></g></g><g><path d="M882.917,3911.25c-0,8.75 -6.25,15.833 -15,15.833l-12.5,0l-0,-31.666l12.5,-0c8.75,-0 15,7.083 15,15.833Zm-4.167,0c0,-6.667 -4.583,-12.083 -10.833,-12.083l-8.334,-0l0,23.75l8.334,-0c6.25,0.416 10.833,-5 10.833,-11.667Z" style="fill:#eef2f4;fill-rule:nonzero;"/><path d="M914.583,3920l-14.166,0l-2.5,7.083l-4.584,0l11.667,-31.666l4.583,-0l11.667,31.666l-4.583,0l-2.084,-7.083Zm-1.25,-3.75l-5.833,-15.833l-5.833,15.833l11.666,0Z" style="fill:#eef2f4;fill-rule:nonzero;"/><path d="M943.333,3914.17l0,12.916l-4.166,0l-0,-12.916l-11.25,-18.75l4.583,-0l8.75,15l8.75,-15l4.583,-0l-11.25,18.75Z" style="fill:#eef2f4;fill-rule:nonzero;"/><path d="M987.083,3923.75l11.25,-11.25c2.5,-2.5 4.584,-5 4.584,-7.917c-0,-3.75 -2.5,-5.833 -5.834,-5.833c-2.916,0 -5,1.25 -6.666,4.167l-3.334,-2.084c2.084,-4.166 5.834,-6.25 10,-6.25c5,0 10,3.334 10,9.584c0,3.75 -2.5,7.5 -5.833,10.416l-8.333,7.917l14.583,0l0,4.167l-20.417,-0l0,-2.917Z" style="fill:#eef2f4;fill-rule:nonzero;"/><path d="M1040,3911.67l-10.417,15.416l-4.583,0l7.5,-11.25l-1.667,0c-6.25,0 -10.833,-4.166 -10.833,-10.833c0,-6.25 4.583,-10.833 10.833,-10.833c6.25,-0 10.834,4.166 10.834,10.833c0.416,2.917 -0.417,5 -1.667,6.667Zm-9.167,0.416c4.167,0 6.667,-2.5 6.667,-6.666c-0,-4.167 -2.917,-6.667 -6.667,-6.667c-3.75,0 -6.666,2.5 -6.666,6.667c-0,4.166 2.916,6.666 6.666,6.666Z" style="fill:#eef2f4;fill-rule:nonzero;"/></g><g><path d="M245.417,3911.25c-0,8.75 -6.25,15.833 -15,15.833l-12.5,0l-0,-31.666l12.5,-0c8.75,-0 15,7.083 15,15.833Zm-4.167,0c0,-6.667 -4.583,-12.083 -10.833,-12.083l-8.334,-0l0,23.75l8.334,-0c6.25,0.416 10.833,-5 10.833,-11.667Z" style="fill:#eef2f4;fill-rule:nonzero;"/><path d="M279.167,3923.33l-0,4.167l-19.167,0l0,-31.667l18.75,0l0,4.167l-14.583,0l-0,9.583l13.333,0l0,3.75l-13.333,0l-0,10l15,0Z" style="fill:#eef2f4;fill-rule:nonzero;"/><path d="M291.667,3920l3.75,-2.083c1.25,3.333 3.75,5.833 8.333,5.833c4.583,0 6.667,-2.083 6.667,-5c-0,-3.333 -2.917,-4.167 -7.5,-5.833c-5,-1.667 -10,-3.334 -10,-9.167c-0,-5.833 4.583,-9.167 10,-9.167c5.416,0 9.166,2.917 10.833,7.084l-3.333,2.083c-1.25,-2.917 -3.334,-5 -7.084,-5c-3.333,-0 -5.833,1.667 -5.833,4.583c0,2.917 2.083,4.167 6.667,5.417c5.416,1.667 10.833,3.333 10.833,9.583c-0,5.417 -4.583,9.167 -10.833,9.167c-6.25,0.417 -10.834,-2.917 -12.5,-7.5Z" style="fill:#eef2f4;fill-rule:nonzero;"/><rect x="329.167" y="3895.42" width="4.167" height="31.667" style="fill:#eef2f4;fill-rule:nonzero;"/><path d="M380.417,3913.33c-0,7.917 -5.834,14.584 -15.417,14.584c-10,-0 -16.667,-7.5 -16.667,-16.667c0,-9.167 7.084,-16.667 16.667,-16.667c5.833,0 11.25,3.334 13.75,7.5l-3.75,2.084c-1.667,-3.334 -5.833,-5.834 -10,-5.834c-7.5,0 -12.5,5.417 -12.5,12.5c-0,7.084 5,12.5 12.5,12.5c6.667,0 10.417,-3.75 11.25,-8.333l-11.667,0l0,-3.75l15.834,0l-0,2.083Z" style="fill:#eef2f4;fill-rule:nonzero;"/><path d="M419.167,3895.42l-0,31.666l-3.334,0l-16.25,-23.75l0,23.75l-4.166,0l-0,-31.666l3.333,-0l16.25,23.75l-0,-23.75l4.167,-0Z" style="fill:#eef2f4;fill-rule:nonzero;"/><path d="M454.583,3923.33l0,4.167l-19.166,0l-0,-31.667l18.75,0l-0,4.167l-14.584,0l0,9.583l13.334,0l-0,3.75l-13.334,0l0,10l15,0Z" style="fill:#eef2f4;fill-rule:nonzero;"/><path d="M496.667,3911.25c-0,8.75 -6.25,15.833 -15,15.833l-12.5,0l-0,-31.666l12.5,-0c8.333,-0 15,7.083 15,15.833Zm-4.167,0c0,-6.667 -4.583,-12.083 -10.833,-12.083l-8.334,-0l0,23.75l8.334,-0c6.25,0.416 10.833,-5 10.833,-11.667Z" style="fill:#eef2f4;fill-rule:nonzero;"/><path d="M555,3918.33c0,5 -4.167,9.167 -9.167,9.167l-13.75,0l0,-31.667l12.5,0c5,0 8.75,3.75 8.75,8.75c0,2.917 -1.25,5 -3.333,6.667c2.917,0.833 5,3.333 5,7.083Zm-18.75,-19.583l0,10l8.333,0c2.5,0 4.584,-2.083 4.584,-5c-0,-2.5 -2.084,-5 -4.584,-5l-8.333,-0Zm14.583,19.167c0,-2.917 -2.083,-5 -5,-5l-9.583,-0l0,10.416l9.583,0c2.917,0 5,-2.5 5,-5.416Z" style="fill:#eef2f4;fill-rule:nonzero;"/><path d="M580.833,3914.17l0,12.916l-4.166,0l-0,-12.916l-11.25,-18.75l4.583,-0l8.75,15l8.75,-15l4.583,-0l-11.25,18.75Z" style="fill:#eef2f4;fill-rule:nonzero;"/></g><g><path d="M853.333,4006.25l7.5,-4.167c1.667,5.417 5.834,8.75 12.917,8.75c6.667,0 9.583,-2.916 9.583,-6.666c0,-4.584 -4.166,-6.25 -11.666,-8.334c-7.917,-2.5 -15.834,-5.416 -15.834,-15c0,-9.583 7.917,-15 16.667,-15c8.333,0 14.583,4.584 17.917,11.25l-7.084,4.167c-1.666,-4.167 -5,-7.083 -10.833,-7.083c-5,-0 -7.917,2.5 -7.917,6.25c0,4.166 2.917,5.833 10.417,7.916c8.75,2.917 17.083,5.417 17.083,15.834c0,9.583 -7.5,15 -18.333,15c-10.833,-0.417 -17.5,-5.417 -20.417,-12.917Z" style="fill:#eef2f4;fill-rule:nonzero;"/><path d="M917.5,4011.67c4.583,-0 7.917,-2.084 9.583,-4.584l6.667,3.75c-3.333,5 -8.75,7.917 -16.25,7.917c-12.083,0 -20,-8.333 -20,-19.583c0,-10.834 7.917,-19.584 19.583,-19.584c10.834,0 18.334,8.75 18.334,19.584c-0,1.25 -0,2.083 -0.417,3.333l-29.167,-0c1.25,6.25 5.834,9.167 11.667,9.167Zm9.583,-15.417c-1.25,-6.25 -5.833,-9.167 -10.416,-9.167c-5.834,0 -10,3.334 -11.25,9.167l21.666,0Z" style="fill:#eef2f4;fill-rule:nonzero;"/><rect x="942.5" y="3964.17" width="7.917" height="53.75" style="fill:#eef2f4;fill-rule:nonzero;"/><path d="M990.417,4017.92l-7.917,-0l0,-29.167l-12.083,0l-0,29.167l-7.917,-0l0,-29.167l-5.417,0l0,-7.5l5.417,0l0,-0.833c0,-10 5.417,-15 16.667,-15c2.5,-0 5.416,0.416 8.333,0.833l0,7.5c-2.917,-0.417 -5.417,-0.417 -8.333,-0.417c-5.417,0 -8.75,1.667 -8.75,7.5l-0,0.834l20,-0l-0,36.25Z" style="fill:#eef2f4;fill-rule:nonzero;"/><path d="M1017.5,4011.67c4.583,-0 7.917,-2.084 9.583,-4.584l6.667,3.75c-3.333,5 -8.75,7.917 -16.25,7.917c-12.083,0 -20,-8.333 -20,-19.583c0,-10.834 7.917,-19.584 19.583,-19.584c10.834,0 18.334,8.75 18.334,19.584c-0,1.25 -0,2.083 -0.417,3.333l-29.167,-0c1.25,6.25 5.834,9.167 11.667,9.167Zm10,-15.417c-1.25,-6.25 -5.833,-9.167 -10.417,-9.167c-5.833,0 -10,3.334 -11.25,9.167l21.667,0Z" style="fill:#eef2f4;fill-rule:nonzero;"/><path d="M1099.17,4003.33c-0,8.75 -7.084,14.584 -15.417,14.584l-22.083,-0l-0,-51.667l20.416,0c8.334,0 15,6.25 15,14.167c0,4.583 -2.083,8.333 -5.416,10.416c4.583,2.5 7.5,6.667 7.5,12.5Zm-29.167,-29.166l0,13.75l12.083,-0c3.75,-0 6.667,-2.917 6.667,-6.667c0,-3.75 -2.917,-6.667 -6.667,-6.667l-12.083,0l0,-0.416Zm20.417,28.333c-0,-4.167 -2.917,-7.083 -7.084,-7.083l-13.75,-0l0,14.583l13.75,0c4.167,0 7.084,-3.333 7.084,-7.5Z" style="fill:#eef2f4;fill-rule:nonzero;"/><path d="M1104.17,3999.58c-0,-10.833 8.75,-19.583 19.583,-19.583c10.833,0 19.583,8.333 19.583,19.583c0,10.834 -8.75,19.584 -19.583,19.584c-10.833,-0.417 -19.583,-8.75 -19.583,-19.584Zm31.25,0c-0,-6.666 -5,-11.666 -11.667,-11.666c-6.667,-0 -11.667,5 -11.667,11.666c0,6.667 5,11.667 11.667,11.667c6.667,0 11.667,-5 11.667,-11.667Z" style="fill:#eef2f4;fill-rule:nonzero;"/><path d="M1182.5,3980.83l-14.167,37.917c-3.333,9.167 -9.583,14.167 -17.916,13.75l-0,-7.5c5,0.417 7.916,-2.5 10,-7.083l0.416,-0.834l-15.833,-36.25l8.75,0l10.833,26.667l9.584,-26.667l8.333,0Z" style="fill:#eef2f4;fill-rule:nonzero;"/></g><g><g><path d="M3525.42,3911.25c-0,8.75 -6.25,15.833 -15,15.833l-12.5,0l-0,-31.666l12.5,-0c8.75,-0 15,7.083 15,15.833Zm-3.75,0c-0,-6.667 -4.584,-12.083 -10.834,-12.083l-8.333,-0l0,23.75l8.333,-0c6.25,0.416 10.834,-5 10.834,-11.667Z" style="fill:#eef2f4;fill-rule:nonzero;"/></g><g><path d="M3538.75,3911.25c0,-9.167 7.083,-16.667 16.25,-16.667c9.167,0 16.667,7.5 16.667,16.667c-0,9.167 -7.084,16.667 -16.667,16.667c-9.167,-0 -16.25,-7.5 -16.25,-16.667Zm28.333,0c0,-7.083 -5.416,-12.5 -12.083,-12.5c-7.083,0 -12.083,5.417 -12.083,12.5c-0,7.083 5.416,12.5 12.083,12.5c7.083,0 12.083,-5.417 12.083,-12.5Z" style="fill:#eef2f4;fill-rule:nonzero;"/></g><g><path d="M3582.5,3895.42l4.583,-0l7.084,26.25l7.916,-26.25l4.167,-0l7.917,26.25l7.083,-26.25l4.583,-0l-9.166,31.666l-5,0l-7.5,-25.416l-7.5,25.416l-5,0l-9.167,-31.666Z" style="fill:#eef2f4;fill-rule:nonzero;"/></g><g><path d="M3663.75,3895.42l0,31.666l-3.333,0l-16.25,-23.75l-0,23.75l-4.167,0l0,-31.666l3.333,-0l16.25,23.75l0,-23.75l4.167,-0Z" style="fill:#eef2f4;fill-rule:nonzero;"/></g><g><path d="M3697.92,3923.33l-0,4.167l-17.917,0l0,-31.667l4.167,0l-0,27.917l13.75,0l-0,-0.417Z" style="fill:#eef2f4;fill-rule:nonzero;"/></g><g><path d="M3707.92,3911.25c-0,-9.167 7.083,-16.667 16.25,-16.667c9.166,0 16.666,7.5 16.666,16.667c0,9.167 -7.083,16.667 -16.666,16.667c-9.167,-0 -16.25,-7.5 -16.25,-16.667Zm28.75,0c-0,-7.083 -5.417,-12.5 -12.084,-12.5c-7.083,0 -12.083,5.417 -12.083,12.5c0,7.083 5.417,12.5 12.083,12.5c6.667,0 12.084,-5.417 12.084,-12.5Z" style="fill:#eef2f4;fill-rule:nonzero;"/></g><g><path d="M3772.5,3920l-14.167,0l-2.5,7.083l-4.583,0l11.667,-31.666l4.583,-0l11.667,31.666l-4.167,0l-2.5,-7.083Zm-1.25,-3.75l-5.833,-15.833l-5.834,15.833l11.667,0Z" style="fill:#eef2f4;fill-rule:nonzero;"/></g><g><path d="M3820.42,3911.25c-0,8.75 -6.25,15.833 -15,15.833l-12.5,0l-0,-31.666l12.5,-0c8.75,-0 15,7.083 15,15.833Zm-4.167,0c0,-6.667 -4.583,-12.083 -10.833,-12.083l-8.334,-0l0,23.75l8.334,-0c6.666,0.416 10.833,-5 10.833,-11.667Z" style="fill:#eef2f4;fill-rule:nonzero;"/></g><g><path d="M3860.42,3899.17l-0,10.416l13.333,0l0,4.167l-13.333,0l-0,13.333l-4.167,0l0,-31.666l18.333,-0l0,4.166l-14.166,0l-0,-0.416Z" style="fill:#eef2f4;fill-rule:nonzero;"/></g><g><path d="M3900.83,3915l-7.5,0l0,12.083l-4.166,0l-0,-31.666l12.5,-0c5.416,-0 10,4.583 10,10c-0,4.166 -2.917,7.916 -6.667,9.166l7.5,12.917l-4.583,0l-7.084,-12.5Zm-7.5,-3.75l8.334,0c3.333,0 5.833,-2.5 5.833,-5.833c0,-3.334 -2.5,-5.834 -5.833,-5.834l-8.334,0l0,11.667Z" style="fill:#eef2f4;fill-rule:nonzero;"/></g><g><path d="M3924.58,3911.25c0,-9.167 7.084,-16.667 16.25,-16.667c9.167,0 16.667,7.5 16.667,16.667c0,9.167 -7.083,16.667 -16.667,16.667c-9.166,-0 -16.25,-7.5 -16.25,-16.667Zm28.75,0c0,-7.083 -5.416,-12.5 -12.083,-12.5c-7.083,0 -12.083,5.417 -12.083,12.5c-0,7.083 5.416,12.5 12.083,12.5c6.667,0 12.083,-5.417 12.083,-12.5Z" style="fill:#eef2f4;fill-rule:nonzero;"/></g><g><path d="M4001.67,3927.08l-4.167,0l0,-25l-10.417,17.5l-0.416,0l-10.417,-17.083l0,24.583l-4.167,0l0,-31.666l4.584,-0l10,16.666l10,-16.666l4.583,-0l0,31.666l0.417,0Z" style="fill:#eef2f4;fill-rule:nonzero;"/></g></g><g><g><path d="M3497.08,3970.42c0,-2.917 2.084,-5 5,-5c2.917,-0 5,2.083 5,5c0,2.916 -2.083,5 -5,5c-2.5,-0 -5,-2.084 -5,-5Zm1.25,10.416l7.917,0l0,37.084l-7.917,-0l0,-37.084Z" style="fill:#eef2f4;fill-rule:nonzero;"/></g><g><rect x="3515.42" y="3964.17" width="7.917" height="53.75" style="fill:#eef2f4;fill-rule:nonzero;"/></g><g><rect x="3532.5" y="3964.17" width="7.917" height="53.75" style="fill:#eef2f4;fill-rule:nonzero;"/></g><g><rect x="3550" y="3964.17" width="7.917" height="53.75" style="fill:#eef2f4;fill-rule:nonzero;"/></g><g><path d="M3600,3980.83l0,37.084l-7.917,-0l0,-4.584c-2.5,3.75 -6.25,5.834 -11.25,5.834c-8.333,-0 -14.166,-5.417 -14.166,-15l-0,-22.5l7.916,-0l0,21.666c0,5.417 3.334,8.75 8.334,8.75c5.416,0 9.166,-2.916 9.166,-10.416l0,-19.584l7.917,0l0,-1.25Z" style="fill:#eef2f4;fill-rule:nonzero;"/></g><g><path d="M3635.83,4007.5c0,7.5 -6.25,11.25 -14.583,11.25c-7.5,0 -12.5,-3.333 -15,-8.75l6.667,-4.167c1.25,3.334 4.166,5.417 8.333,5.417c3.333,0 6.25,-1.25 6.25,-4.167c0,-6.666 -20,-2.916 -20,-16.25c0,-7.083 5.833,-11.25 13.333,-11.25c6.25,0 11.25,2.917 13.75,7.5l-6.666,3.75c-1.25,-2.916 -3.75,-4.166 -7.084,-4.166c-2.916,-0 -5.416,1.25 -5.416,3.75c0.833,7.5 20.416,3.333 20.416,17.083Z" style="fill:#eef2f4;fill-rule:nonzero;"/></g><g><path d="M3652.92,3988.33l-0,17.917c-0,4.583 2.916,4.583 9.166,4.167l0,7.083c-12.083,1.667 -17.083,-2.083 -17.083,-11.667l0,-17.5l-6.667,0l0,-7.5l6.667,0l0,-7.916l7.917,-2.5l-0,10.416l9.166,0l0,7.5l-9.166,0Z" style="fill:#eef2f4;fill-rule:nonzero;"/></g><g><path d="M3689.17,3980.42l-0,8.75c-5.417,-0.417 -11.25,2.083 -11.25,10.416l-0,18.75l-7.917,0l0,-37.083l7.917,0l-0,6.25c2.083,-5.417 6.25,-7.083 11.25,-7.083Z" style="fill:#eef2f4;fill-rule:nonzero;"/></g><g><path d="M3730.42,3980.42l-0,37.5l-7.917,-0l0,-5.417c-2.917,3.75 -7.083,6.25 -12.917,6.25c-10,0 -18.333,-8.333 -18.333,-19.583c0,-10.834 8.333,-19.584 18.333,-19.584c5.834,0 10,2.5 12.917,6.25l0,-5.416l7.917,-0Zm-7.917,19.166c0,-6.666 -5,-11.666 -11.667,-11.666c-6.666,-0 -11.666,5 -11.666,11.666c-0,6.667 5,11.667 11.666,11.667c6.667,0 11.667,-5 11.667,-11.667Z" style="fill:#eef2f4;fill-rule:nonzero;"/></g><g><path d="M3751.25,3988.33l0,17.917c0,4.583 2.917,4.583 9.167,4.167l-0,7.083c-12.084,1.667 -17.084,-2.083 -17.084,-11.667l0,-17.5l-6.666,0l-0,-7.5l6.666,0l0,-7.916l7.917,-2.5l0,10.416l9.167,0l-0,7.5l-9.167,0Z" style="fill:#eef2f4;fill-rule:nonzero;"/></g><g><path d="M3766.25,3970.42c0,-2.917 2.083,-5 5,-5c2.917,-0 5,2.083 5,5c0,2.916 -2.083,5 -5,5c-2.5,-0 -5,-2.084 -5,-5Zm1.25,10.416l7.917,0l-0,37.084l-7.917,-0l0,-37.084Z" style="fill:#eef2f4;fill-rule:nonzero;"/></g><g><path d="M3782.5,3999.58c0,-10.833 8.75,-19.583 19.583,-19.583c10.834,0 19.584,8.333 19.584,19.583c-0,10.834 -8.75,19.584 -19.584,19.584c-10.833,-0.417 -19.583,-8.75 -19.583,-19.584Zm31.25,0c0,-6.666 -5,-11.666 -11.667,-11.666c-6.666,-0 -11.666,5 -11.666,11.666c-0,6.667 5,11.667 11.666,11.667c6.667,0 11.667,-5 11.667,-11.667Z" style="fill:#eef2f4;fill-rule:nonzero;"/></g><g><path d="M3862.5,3995.42l0,22.5l-7.917,-0l0,-21.667c0,-5.417 -3.333,-8.75 -8.333,-8.75c-5.417,0 -9.167,2.917 -9.167,10.417l0,19.583l-7.916,0l-0,-37.083l7.916,-0l0,4.583c2.5,-3.75 6.25,-5.833 11.25,-5.833c7.917,0.833 14.167,6.666 14.167,16.25Z" style="fill:#eef2f4;fill-rule:nonzero;"/></g><g><path d="M3897.92,4007.5c-0,7.5 -6.25,11.25 -14.584,11.25c-7.5,0 -12.5,-3.333 -15,-8.75l6.667,-4.167c1.25,3.334 4.167,5.417 8.333,5.417c3.334,0 6.25,-1.25 6.25,-4.167c0,-6.666 -20,-2.916 -20,-16.25c0,-7.083 5.834,-11.25 13.334,-11.25c6.25,0 11.25,2.917 13.75,7.5l-6.667,3.75c-1.25,-2.916 -3.75,-4.166 -7.083,-4.166c-2.917,-0 -5.417,1.25 -5.417,3.75c0.417,7.5 20.417,3.333 20.417,17.083Z" style="fill:#eef2f4;fill-rule:nonzero;"/></g><g><path d="M3903.33,4013.33c0,-2.916 2.5,-5.416 5.417,-5.416c2.917,-0 5.417,2.5 5.417,5.416c-0,2.917 -2.5,5.417 -5.417,5.417c-2.917,0 -5.417,-2.5 -5.417,-5.417Z" style="fill:#eef2f4;fill-rule:nonzero;"/></g><g><path d="M3917.92,3999.58c-0,-10.833 8.333,-19.583 19.583,-19.583c7.083,0 13.333,3.75 16.25,9.583l-6.667,4.167c-1.666,-3.333 -5.416,-5.833 -9.583,-5.833c-6.667,-0 -11.25,5 -11.25,11.666c0,6.667 5,11.667 11.25,11.667c4.583,-0 7.917,-2.083 10,-5.833l6.667,3.75c-2.917,5.833 -9.167,9.583 -16.667,9.583c-11.25,0 -19.583,-8.333 -19.583,-19.167Z" style="fill:#eef2f4;fill-rule:nonzero;"/></g><g><path d="M3957.08,3999.58c0,-10.833 8.75,-19.583 19.584,-19.583c10.833,0 19.583,8.333 19.583,19.583c0,10.834 -8.75,19.584 -19.583,19.584c-10.834,-0.417 -19.584,-8.75 -19.584,-19.584Zm31.25,0c0,-6.666 -5,-11.666 -11.666,-11.666c-6.667,-0 -11.667,5 -11.667,11.666c0,6.667 5,11.667 11.667,11.667c6.666,0 11.666,-5 11.666,-11.667Z" style="fill:#eef2f4;fill-rule:nonzero;"/></g></g></g><g><path id="XMLID_385_" d="M2826.25,1680l0,-223.75l-417.917,0l0,-222.917l318.75,0l0,-223.333l-1291.67,0l-0,223.333l281.25,0l-0,223.334l-595.834,-0l0,223.333l255.417,0l0,223.333l-602.5,0l0,223.334l840.417,-0l-0,223.333l-394.167,0l0,223.333l583.333,0l0,223.334l-388.75,-0l0,223.333l1203.75,0l0,-223.333l-260.833,-0l-0,-223.334l913.333,0l0,-223.333l-457.083,0l0,-223.333l190.417,-0l-0,-223.334l-367.084,0l0,-223.333l189.167,0Zm-660,222.5l-319.167,0l0,-223.333l319.167,-0l0,223.333Z" style="fill:#a9dbed;fill-opacity:0.23;fill-rule:nonzero;"/><rect id="XMLID_145_" x="956.667" y="1007.92" width="230.833" height="223.333" style="fill:#a9dbed;fill-opacity:0.23;"/><rect id="XMLID_154_" x="3127.5" y="1456.25" width="230.833" height="223.333" style="fill:#a9dbed;fill-opacity:0.23;"/></g><g><rect id="XMLID_7_" x="1451.25" y="3130.42" width="433.333" height="100" style="fill:#26a8a1;"/><rect id="XMLID_144_" x="1117.92" y="3130.42" width="202.5" height="100" style="fill:#26a8a1;"/><rect id="XMLID_42_" x="2065" y="3130.42" width="292.083" height="100" style="fill:#26a8a1;"/><rect id="XMLID_6_" x="2548.33" y="3130.42" width="167.917" height="100" style="fill:#26a8a1;"/><rect id="XMLID_55_" x="2765" y="3430.42" width="167.917" height="100" style="fill:#26a8a1;"/><rect id="XMLID_48_" x="1565.06" y="3330.69" width="630.417" height="100" style="fill:#26a8a1;"/><rect id="XMLID_119_" x="2442.91" y="3330.69" width="211.667" height="100" style="fill:#26a8a1;"/><rect id="XMLID_122_" x="2007.74" y="3430.69" width="527.083" height="100" style="fill:#26a8a1;"/><rect id="XMLID_133_" x="1776.73" y="3530.69" width="482.083" height="100" style="fill:#26a8a1;"/></g><g><rect id="XMLID_12_" x="1776.67" y="3230.42" width="407.917" height="100" style="fill:#26a8a1;"/><rect id="XMLID_100_" x="1966.25" y="3120.83" width="107.5" height="160.417" style="fill:#fbc3aa;"/><path id="XMLID_99_" d="M2186.67,3358.33l-314.584,0c0,-70.416 57.084,-127.916 127.917,-127.916l186.667,-0l-0,127.916Z" style="fill:#dd3142;fill-rule:nonzero;"/><path id="XMLID_96_" d="M2083.33,3358.33c0,-85 69.167,-154.166 154.167,-154.166c85,-0 154.167,69.166 154.167,154.166l-308.334,0Z" style="fill:#dd3142;fill-rule:nonzero;"/><path id="XMLID_93_" d="M2391.67,3380.42l-519.584,-0c-6.25,-0 -11.25,-5 -11.25,-11.25c0,-6.25 5,-11.25 11.25,-11.25l519.584,-0c6.25,-0 11.25,5 11.25,11.25c-0,6.25 -5,11.25 -11.25,11.25Z" style="fill:#212d47;fill-rule:nonzero;"/><ellipse id="XMLID_92_" cx="2245.83" cy="3230.42" rx="34.583" ry="11.667" style="fill:#fff;"/><path id="XMLID_89_" d="M2042.5,3241.67c0,-2.084 0.417,-4.167 1.25,-6.25c3.333,-6.667 10.833,-9.167 17.5,-5.834" style="fill:none;fill-rule:nonzero;stroke:#d32a3b;stroke-width:12.5px;"/><path id="XMLID_86_" d="M2066.67,3241.67c-0,-2.084 0.416,-4.167 1.25,-6.25c3.333,-6.667 10.833,-9.167 17.5,-5.834" style="fill:none;fill-rule:nonzero;stroke:#d32a3b;stroke-width:12.5px;"/><path id="XMLID_81_" d="M2089.58,3241.67c0,-2.084 0.417,-4.167 1.25,-6.25c3.334,-6.667 10.834,-9.167 17.5,-5.834" style="fill:none;fill-rule:nonzero;stroke:#d32a3b;stroke-width:12.5px;"/><path id="XMLID_58_" d="M2653.33,1620.83l-57.083,0c-20.833,0 -37.5,-16.666 -37.5,-37.5l0,-325.833c0,-20.833 16.667,-37.5 37.5,-37.5l57.083,0c20.834,0 37.5,16.667 37.5,37.5l0,325.833c0,20.417 -16.666,37.5 -37.5,37.5Z" style="fill:#bcbcbc;fill-rule:nonzero;"/><path id="XMLID_3_" d="M2689.58,1620.83l-57.083,0c-20.833,0 -37.5,-16.666 -37.5,-37.5l0,-325.833c0,-20.833 16.667,-37.5 37.5,-37.5l57.083,0c20.834,0 37.5,16.667 37.5,37.5l0,325.833c0,20.417 -16.666,37.5 -37.5,37.5Z" style="fill:#f7f7f7;fill-rule:nonzero;"/><path id="XMLID_63_" d="M2528.33,1697.92l0,178.333c0,80 -63.333,147.5 -143.333,149.583c-82.5,2.084 -150.417,-64.583 -150.417,-146.666l0,-243.334c0,-45 -36.25,-81.25 -81.25,-81.25c-45,0 -81.25,36.25 -81.25,81.25l0,243.334c0,170.833 138.334,309.166 309.167,309.166c170.833,0 309.167,-138.333 309.167,-309.166l-0,-181.25l-162.084,-0Z" style="fill:#dd3142;fill-rule:nonzero;"/><path id="XMLID_111_" d="M2528.33,1697.92l0,178.333c0,80 -63.333,147.5 -143.333,149.583c-82.5,2.084 -150.417,-64.583 -150.417,-146.666l0,-243.334c0,-45 -36.25,-81.25 -81.25,-81.25c-45,0 -81.25,36.25 -81.25,81.25l0,243.334c0,170.833 138.334,309.166 309.167,309.166c170.833,0 309.167,-138.333 309.167,-309.166l-0,-181.25l-162.084,-0Z" style="fill:#dd3142;fill-rule:nonzero;"/><path id="XMLID_128_" d="M2153.33,1596.25c21.667,0 39.584,17.917 39.584,39.583l-0,243.334c-0,50.416 19.583,97.5 55.416,133.333c35.834,35.833 82.917,55.417 133.334,55.417l4.583,-0c101.25,-2.5 184.167,-88.334 184.167,-191.25l-0,-136.667l30.416,-41.667l-72.083,0l0,178.334c0,80 -63.333,147.5 -143.333,149.583c-82.5,2.083 -150.417,-64.583 -150.417,-146.667l0,-243.333c0,-45 -36.25,-81.25 -81.25,-81.25c-11.667,-0 -22.917,2.5 -33.333,7.083c16.25,20.417 28.333,34.167 32.916,34.167Z" style="fill:#d82b45;fill-rule:nonzero;"/><rect id="XMLID_40_" x="1902.5" y="2296.25" width="221.25" height="873.333" style="fill:#212d47;"/><rect id="XMLID_50_" x="1902.5" y="3120.83" width="221.25" height="48.75" style="fill:#2d3854;"/><rect id="XMLID_57_" x="1757.92" y="2296.25" width="221.25" height="873.333" style="fill:#2d3854;"/><rect id="XMLID_51_" x="1814.58" y="3120.83" width="107.5" height="160.417" style="fill:#fbc3aa;"/><rect id="XMLID_49_" x="1757.92" y="3120.83" width="221.25" height="48.75" style="fill:#394663;"/><path id="XMLID_21_" d="M2109.17,2431.25l-355,0c-42.5,0 -77.084,-34.583 -77.084,-77.083l0,-66.667l509.167,0l0,66.667c0,42.5 -34.583,77.083 -77.083,77.083Z" style="fill:#2d3854;fill-rule:nonzero;"/><path id="XMLID_44_" d="M1821.25,2237.08l-343.75,0c-82.5,0 -143.75,-103.333 -125.833,-212.5l45.416,-278.75c18.334,-111.666 91.25,-191.666 175.834,-191.666l137.5,-0l110.833,682.916Z" style="fill:#22314c;fill-rule:nonzero;"/><path id="XMLID_47_" d="M1540.42,2154.17c-60.834,-0 -108.75,-51.667 -104.584,-112.084l7.5,-102.916l194.167,-0l7.5,102.916c4.167,60.417 -43.75,112.084 -104.583,112.084Z" style="fill:#2d3854;fill-rule:nonzero;"/><rect id="XMLID_19_" x="1677.08" y="2197.5" width="509.167" height="115.417" style="fill:#dd3142;"/><path id="XMLID_18_" d="M2174.17,2273.33l-506.25,0c-6.667,0 -12.084,-5.416 -12.084,-12.083l0,-599.167c0,-59.583 48.334,-107.5 107.5,-107.5l349.584,0c40.416,0 72.916,32.917 72.916,72.917l0,633.75c0.417,6.667 -5,12.083 -11.666,12.083Z" style="fill:#e53e46;fill-rule:nonzero;"/><path id="XMLID_4_" d="M1993.33,1667.5l-91.666,0c-21.25,0 -38.334,-17.083 -38.334,-38.333l0,-74.167l193.334,0l-0,49.167c-0,35 -28.334,63.333 -63.334,63.333Z" style="fill:#dd3142;fill-rule:nonzero;"/><path id="XMLID_22_" d="M2048.33,1484.17l-95.833,10.833l2.5,60l93.333,-0c75.834,-0 137.5,61.667 137.5,137.5l0,515.833c39.167,0 70.834,-31.666 70.834,-70.833l-0,-445c-0,-115 -92.917,-208.333 -208.334,-208.333Z" style="fill:#2d3854;fill-rule:nonzero;"/><path id="XMLID_98_" d="M2217.92,1680.83c-0,-87.916 -71.25,-159.166 -159.167,-159.166l-71.667,-0l0,-37.5l-32.083,-0l0,70.833l93.333,-0c75.834,-0 137.5,61.667 137.5,137.5l0,515.833c11.667,0 22.5,-2.916 32.084,-7.5l-0,-520Z" style="fill:#25314c;fill-rule:nonzero;"/><path id="XMLID_17_" d="M1987.08,1631.67l-79.166,-0c-24.167,-0 -43.75,-19.584 -43.75,-43.75l-0,-229.584l166.666,0l0,229.584c0,24.166 -19.583,43.75 -43.75,43.75Z" style="fill:#fbc3aa;fill-rule:nonzero;"/><path id="XMLID_97_" d="M1920.42,1367.5l110.416,0l0,-9.167l-166.666,0l-0,229.584c-0,24.166 19.583,43.75 43.75,43.75l12.916,-0l0,-264.167l-0.416,0Z" style="fill:#f2ad91;fill-opacity:0.76;fill-rule:nonzero;"/><path id="XMLID_101_" d="M1864.17,1478.75c31.25,5.417 85,7.917 142.083,-17.083c9.167,-4.167 17.083,-8.334 24.583,-13.334l0,-90l-166.666,0l-0,120.417Z" style="fill:#ed9c80;fill-rule:nonzero;"/><path id="XMLID_29_" d="M1746.67,1491.67l-67.5,-0c-35,-0 -62.917,28.333 -62.917,62.916l-0,17.084l37.5,-14.167c59.583,0 108.333,40.417 108.333,100l0,485.417c0,36.25 29.167,65.416 65.417,65.416c36.25,0 65.417,-29.166 65.417,-65.416l-0,-505.834c-0.834,-80.416 -65.834,-145.416 -146.25,-145.416Z" style="fill:#2d3854;fill-rule:nonzero;"/><path id="XMLID_124_" d="M1803.33,1657.5l0,546.25c-24.583,-9.583 -41.666,-32.917 -41.666,-60.833l-0,-412.084c22.916,-22.916 37.5,-54.583 37.5,-89.166c-0,-11.667 -1.667,-22.917 -4.584,-33.75c5.417,15 8.75,32.083 8.75,49.583Z" style="fill:#25314c;fill-rule:nonzero;"/><circle id="XMLID_53_" cx="2607.08" cy="1652.92" r="116.667" style="fill:#fbc3aa;"/><path id="XMLID_121_" d="M2656.25,1730.83c-73.333,0 -132.917,-59.583 -132.917,-132.916c0,-10.417 1.25,-20.417 3.334,-30c-22.5,21.25 -36.667,51.666 -36.667,85c0,64.583 52.083,116.666 116.667,116.666c37.916,0 71.25,-17.916 92.916,-45.833c-13.333,4.583 -27.916,7.083 -43.333,7.083Z" style="fill:#f2ad91;fill-opacity:0.76;fill-rule:nonzero;"/><g><path id="XMLID_52_" d="M2035.42,3358.33l-314.584,0c0,-70.416 57.084,-127.916 127.917,-127.916l186.667,-0l-0,127.916Z" style="fill:#dd3142;fill-rule:nonzero;"/><path id="XMLID_54_" d="M1932.08,3358.33c0,-85 69.167,-154.166 154.167,-154.166c85,-0 154.167,69.166 154.167,154.166l-308.334,0Z" style="fill:#e53e46;fill-rule:nonzero;"/><path id="XMLID_56_" d="M2240.42,3380.42l-519.584,-0c-6.25,-0 -11.25,-5 -11.25,-11.25c0,-6.25 5,-11.25 11.25,-11.25l519.584,-0c6.25,-0 11.25,5 11.25,11.25c-0.417,6.25 -5.417,11.25 -11.25,11.25Z" style="fill:#212d47;fill-rule:nonzero;"/><ellipse id="XMLID_60_" cx="2132.08" cy="3230.42" rx="34.583" ry="11.667" style="fill:#fff;"/><path id="XMLID_62_" d="M1891.25,3241.67c0,-2.084 0.417,-4.167 1.25,-6.25c3.333,-6.667 10.833,-9.167 17.5,-5.834" style="fill:none;fill-rule:nonzero;stroke:#d32a3b;stroke-width:12.5px;"/><path id="XMLID_66_" d="M1915.42,3241.67c-0,-2.084 0.416,-4.167 1.25,-6.25c3.333,-6.667 10.833,-9.167 17.5,-5.834" style="fill:none;fill-rule:nonzero;stroke:#d32a3b;stroke-width:12.5px;"/><path id="XMLID_73_" d="M1937.92,3241.67c-0,-2.084 0.416,-4.167 1.25,-6.25c3.333,-6.667 10.833,-9.167 17.5,-5.834" style="fill:none;fill-rule:nonzero;stroke:#d32a3b;stroke-width:12.5px;"/></g><path id="XMLID_1_" d="M1997.92,1414.58c-142.5,27.084 -280,-67.083 -306.667,-209.583l-85,-450l630.417,-118.75l63.333,335.833c39.167,205.417 -96.25,403.75 -302.083,442.5Z" style="fill:#fbc3aa;fill-rule:nonzero;"/><path id="XMLID_117_" d="M1864.17,1205l-85,-450l463.333,-87.5l-5.833,-31.667l-630.417,118.75l85,450c27.083,142.5 164.167,236.25 306.667,209.584c13.333,-2.5 26.666,-5.834 39.166,-9.584c-86.25,-29.166 -154.583,-103.333 -172.916,-199.583Z" style="fill:#f2ad91;fill-opacity:0.76;fill-rule:nonzero;"/><path id="XMLID_116_" d="M2247.92,669.583l-22.917,-131.666l-625,155.416c-19.583,5 -31.667,23.75 -27.917,43.75l78.75,418.334l103.334,-19.584l-48.334,-320.416l542.084,-145.834Z" style="fill:#c65132;fill-rule:nonzero;"/><path id="XMLID_14_" d="M2024.17,1187.08c-45.417,0 -87.917,-8.333 -123.75,-22.916c15.833,66.25 65,114.583 123.75,114.583c58.75,-0 107.5,-48.333 123.75,-114.583c-36.25,14.166 -78.334,22.916 -123.75,22.916Z" style="fill:#fff;fill-rule:nonzero;"/><path id="XMLID_8_" d="M1891.67,1007.92c-3.334,-17.5 8.333,-34.584 25.833,-37.5c17.5,-3.334 34.583,8.333 37.5,25.833" style="fill:none;fill-rule:nonzero;stroke:#3f2e21;stroke-width:16.67px;"/><path id="XMLID_11_" d="M1836.25,950.417l109.583,-54.584" style="fill:none;fill-rule:nonzero;stroke:#dd6944;stroke-width:33.33px;"/><path id="XMLID_16_" d="M2151.67,946.667c-3.334,-17.5 -20,-29.167 -37.5,-25.834c-17.5,3.334 -29.167,20 -25.834,37.5" style="fill:none;fill-rule:nonzero;stroke:#3f2e21;stroke-width:16.67px;"/><path id="XMLID_15_" d="M2180.42,887.917l-122.084,-10.834" style="fill:none;fill-rule:nonzero;stroke:#dd6944;stroke-width:33.33px;"/><path id="XMLID_13_" d="M2210.42,695c6.25,25.833 54.166,201.25 54.166,201.25l20.834,0l-44.584,-236.667l-30.416,35.417Z" style="fill:#c65132;fill-rule:nonzero;"/><circle id="XMLID_9_" cx="1659.58" cy="1090.42" r="101.667" style="fill:#fbc3aa;"/><circle id="XMLID_25_" cx="1673.75" cy="1090.42" r="53.333" style="fill:#f2ad91;"/><path id="XMLID_64_" d="M2291.25,469.167c49.167,127.916 -14.583,271.25 -142.5,320c-127.917,49.166 -271.25,-14.584 -320,-142.5l462.5,-177.5Z" style="fill:#dd6944;fill-rule:nonzero;"/><path id="XMLID_38_" d="M2002.92,523.75c47.5,90.833 12.083,202.917 -78.75,250.417c-90.834,47.5 -202.917,12.083 -250.417,-78.75l329.167,-171.667Z" style="fill:#dd6944;fill-rule:nonzero;"/><path id="XMLID_129_" d="M1761.67,1730.83l-0,-73.333c-0,-59.583 -48.334,-100 -108.334,-100l-37.5,14.167l0,-17.084c0,-10 2.5,-19.583 6.667,-28.333c15.417,-7.083 32.5,-10.833 50.833,-10.833c23.334,-0 45,6.25 63.75,17.5c27.5,16.25 48.334,42.916 57.084,74.166c2.916,10.834 4.583,22.084 4.583,33.75c0.417,35.417 -14.167,67.084 -37.083,90Z" style="fill:#25314c;fill-rule:nonzero;"/><circle id="XMLID_20_" cx="1814.17" cy="2327.08" r="118.75" style="fill:#fbc3aa;"/><g><path id="XMLID_23_" d="M1955.83,2363.33l-59.583,-29.166c-15.833,-7.917 -22.5,-27.084 -14.583,-42.917l14.166,-28.75l88.334,43.333c15.833,7.917 22.5,27.084 14.583,42.917c-7.5,16.25 -26.667,22.5 -42.917,14.583Z" style="fill:#f2ad91;fill-rule:nonzero;"/><path id="XMLID_41_" d="M1831.67,2455.42l16.25,-73.75c4.166,-20 23.75,-32.5 43.75,-27.917l31.25,7.083c2.5,0.417 4.166,2.917 3.333,5.417l-22.917,105c-4.166,20 -23.75,32.5 -43.75,27.917c-19.583,-4.584 -32.5,-24.167 -27.916,-43.75Z" style="fill:#f2ad91;fill-rule:nonzero;"/><path id="XMLID_24_" d="M1861.67,2347.08c36.666,-39.166 31.25,-101.25 -11.667,-133.75c-85,-64.583 -144.583,-162.916 -156.667,-275.833c-10,-90.417 11.25,-177.083 54.167,-249.583c17.917,-30 17.5,-68.75 -2.5,-97.5c-37.083,-54.167 -117.5,-52.084 -151.25,3.333c-62.083,102.917 -92.917,225.833 -80.833,354.583c15.833,167.917 102.916,313.75 228.75,409.167c37.083,27.917 88.75,22.917 120,-10.417Z" style="fill:#dd3142;fill-rule:nonzero;"/></g><path id="XMLID_108_" d="M1747.92,1687.92c11.25,-18.75 15,-40.417 11.666,-61.25c-17.5,18.333 -35.416,35.833 -40.416,44.166c-48.75,81.667 -69.167,175.417 -58.75,270.417c12.916,117.5 74.583,226.667 169.583,298.75c10,7.5 40,40.833 54.167,63.333c6.666,-32.5 -5.417,-67.916 -34.167,-90c-85,-64.583 -144.583,-162.916 -156.667,-275.833c-9.583,-90.833 11.25,-177.083 54.584,-249.583Z" style="fill:#d82b45;fill-rule:nonzero;"/><circle id="XMLID_43_" cx="1997.5" cy="1820.83" r="37.5" style="fill:#dd3142;"/><circle id="XMLID_102_" cx="1928.75" cy="1932.5" r="18.75" style="fill:#dd3142;"/><circle id="XMLID_103_" cx="2090.83" cy="1871.67" r="18.75" style="fill:#dd3142;"/><circle id="XMLID_105_" cx="2049.58" cy="1951.25" r="18.75" style="fill:#dd3142;"/><path id="XMLID_46_" d="M1940.12,1030.88c26.028,-7.671 49.694,-5.303 52.814,5.285c3.121,10.588 -15.478,25.412 -41.506,33.083c-26.029,7.671 -49.694,5.304 -52.815,-5.284c-3.12,-10.588 15.478,-25.413 41.507,-33.084Z" style="fill:#f2ad91;fill-opacity:0.69;"/><path id="XMLID_114_" d="M2138.7,979.071c26.903,-3.56 49.92,2.434 51.368,13.377c1.448,10.944 -19.217,22.719 -46.12,26.279c-26.902,3.56 -49.919,-2.434 -51.368,-13.377c-1.448,-10.944 19.218,-22.719 46.12,-26.279Z" style="fill:#f2ad91;fill-opacity:0.69;"/><circle id="XMLID_2_" cx="2662.92" cy="1297.08" r="18.333" style="fill:#bcbcbc;"/></g></svg>