<?xml version="1.0" encoding="UTF-8" standalone="no"?><!DOCTYPE svg PUBLIC "-//W3C//DTD SVG 1.1//EN" "http://www.w3.org/Graphics/SVG/1.1/DTD/svg11.dtd"><svg width="100%" height="100%" viewBox="0 0 4167 4167" version="1.1" xmlns="http://www.w3.org/2000/svg" xmlns:xlink="http://www.w3.org/1999/xlink" xml:space="preserve" xmlns:serif="http://www.serif.com/" style="fill-rule:evenodd;clip-rule:evenodd;stroke-linecap:round;stroke-linejoin:round;stroke-miterlimit:10;"><g id="XMLID_126_" opacity="0.2"><path id="XMLID_125_" d="M2722.7,2918.12l-0,-1200l-0,1200Z" style="fill:none;stroke:#153144;stroke-width:25px;"/><rect id="XMLID_124_" x="1648.75" y="1330.83" width="466.667" height="1587.08" style="fill:none;stroke:#153144;stroke-width:25px;"/><g id="XMLID_121_"><g><g><path id="XMLID_256_" d="M1729.58,2572.08l304.167,0" style="fill:none;fill-rule:nonzero;stroke:#153144;stroke-width:25px;"/><path id="XMLID_255_" d="M1729.58,2622.08l304.167,0" style="fill:none;fill-rule:nonzero;stroke:#153144;stroke-width:25px;"/></g></g><g><g><path id="XMLID_250_" d="M1729.58,2430.42l304.167,-0" style="fill:none;fill-rule:nonzero;stroke:#153144;stroke-width:25px;"/><path id="XMLID_249_" d="M1729.58,2480.42l304.167,-0" style="fill:none;fill-rule:nonzero;stroke:#153144;stroke-width:25px;"/></g></g><g><g><path id="XMLID_244_" d="M1729.58,2288.75l304.167,0" style="fill:none;fill-rule:nonzero;stroke:#153144;stroke-width:25px;"/><path id="XMLID_243_" d="M1729.58,2338.75l304.167,0" style="fill:none;fill-rule:nonzero;stroke:#153144;stroke-width:25px;"/></g></g><g><g><path id="XMLID_221_" d="M1729.58,2147.08l304.167,0" style="fill:none;fill-rule:nonzero;stroke:#153144;stroke-width:25px;"/><path id="XMLID_220_" d="M1729.58,2197.08l304.167,0" style="fill:none;fill-rule:nonzero;stroke:#153144;stroke-width:25px;"/></g></g><g><g><path id="XMLID_215_" d="M1729.58,2005.42l304.167,-0" style="fill:none;fill-rule:nonzero;stroke:#153144;stroke-width:25px;"/><path id="XMLID_214_" d="M1729.58,2055.42l304.167,-0" style="fill:none;fill-rule:nonzero;stroke:#153144;stroke-width:25px;"/></g></g><g><g><path id="XMLID_209_" d="M1729.58,1863.75l304.167,0" style="fill:none;fill-rule:nonzero;stroke:#153144;stroke-width:25px;"/><path id="XMLID_208_" d="M1729.58,1913.75l304.167,0" style="fill:none;fill-rule:nonzero;stroke:#153144;stroke-width:25px;"/></g></g><g><g><path id="XMLID_200_" d="M1729.58,1722.08l304.167,0" style="fill:none;fill-rule:nonzero;stroke:#153144;stroke-width:25px;"/><path id="XMLID_198_" d="M1729.58,1772.08l304.167,0" style="fill:none;fill-rule:nonzero;stroke:#153144;stroke-width:25px;"/></g></g><g><g><path id="XMLID_193_" d="M1729.58,1580.42l304.167,-0" style="fill:none;fill-rule:nonzero;stroke:#153144;stroke-width:25px;"/><path id="XMLID_192_" d="M1729.58,1630.42l304.167,-0" style="fill:none;fill-rule:nonzero;stroke:#153144;stroke-width:25px;"/></g></g><g><g><path id="XMLID_187_" d="M1729.58,1438.75l304.167,0" style="fill:none;fill-rule:nonzero;stroke:#153144;stroke-width:25px;"/><path id="XMLID_186_" d="M1729.58,1488.75l304.167,0" style="fill:none;fill-rule:nonzero;stroke:#153144;stroke-width:25px;"/></g></g></g><path id="XMLID_120_" d="M2036.25,1330.83l-308.333,0l-0,-179.166c-0,-85 69.166,-154.167 154.166,-154.167c85,-0 154.167,69.167 154.167,154.167l0,179.166Z" style="fill:none;fill-rule:nonzero;stroke:#153144;stroke-width:25px;"/><rect id="XMLID_119_" x="2115.42" y="1634.58" width="607.5" height="83.333" style="fill:none;stroke:#153144;stroke-width:25px;"/><g id="XMLID_106_"><g><g><g id="XMLID_675_"><path id="XMLID_676_" d="M2629.58,2684.58l0,62.5" style="fill:none;fill-rule:nonzero;stroke:#153144;stroke-width:25px;"/></g><g id="XMLID_673_"><path id="XMLID_674_" d="M2546.25,2684.58l0,62.5" style="fill:none;fill-rule:nonzero;stroke:#153144;stroke-width:25px;"/></g><g id="XMLID_671_"><path id="XMLID_672_" d="M2462.92,2684.58l-0,62.5" style="fill:none;fill-rule:nonzero;stroke:#153144;stroke-width:25px;"/></g><g id="XMLID_669_"><path id="XMLID_670_" d="M2379.58,2684.58l0,62.5" style="fill:none;fill-rule:nonzero;stroke:#153144;stroke-width:25px;"/></g><g id="XMLID_667_"><path id="XMLID_668_" d="M2296.25,2684.58l0,62.5" style="fill:none;fill-rule:nonzero;stroke:#153144;stroke-width:25px;"/></g><g id="XMLID_665_"><path id="XMLID_666_" d="M2212.92,2684.58l-0,62.5" style="fill:none;fill-rule:nonzero;stroke:#153144;stroke-width:25px;"/></g></g></g><g><g><g id="XMLID_639_"><path id="XMLID_640_" d="M2629.58,2517.92l0,62.5" style="fill:none;fill-rule:nonzero;stroke:#153144;stroke-width:25px;"/></g><g id="XMLID_637_"><path id="XMLID_638_" d="M2546.25,2517.92l0,62.5" style="fill:none;fill-rule:nonzero;stroke:#153144;stroke-width:25px;"/></g><g id="XMLID_635_"><path id="XMLID_636_" d="M2462.92,2517.92l-0,62.5" style="fill:none;fill-rule:nonzero;stroke:#153144;stroke-width:25px;"/></g><g id="XMLID_633_"><path id="XMLID_634_" d="M2379.58,2517.92l0,62.5" style="fill:none;fill-rule:nonzero;stroke:#153144;stroke-width:25px;"/></g><g id="XMLID_631_"><path id="XMLID_632_" d="M2296.25,2517.92l0,62.5" style="fill:none;fill-rule:nonzero;stroke:#153144;stroke-width:25px;"/></g><g id="XMLID_629_"><path id="XMLID_630_" d="M2212.92,2517.92l-0,62.5" style="fill:none;fill-rule:nonzero;stroke:#153144;stroke-width:25px;"/></g></g></g><g><g><g id="XMLID_603_"><path id="XMLID_604_" d="M2629.58,2351.25l0,62.5" style="fill:none;fill-rule:nonzero;stroke:#153144;stroke-width:25px;"/></g><g id="XMLID_601_"><path id="XMLID_602_" d="M2546.25,2351.25l0,62.5" style="fill:none;fill-rule:nonzero;stroke:#153144;stroke-width:25px;"/></g><g id="XMLID_599_"><path id="XMLID_600_" d="M2462.92,2351.25l-0,62.5" style="fill:none;fill-rule:nonzero;stroke:#153144;stroke-width:25px;"/></g><g id="XMLID_597_"><path id="XMLID_598_" d="M2379.58,2351.25l0,62.5" style="fill:none;fill-rule:nonzero;stroke:#153144;stroke-width:25px;"/></g><g id="XMLID_595_"><path id="XMLID_596_" d="M2296.25,2351.25l0,62.5" style="fill:none;fill-rule:nonzero;stroke:#153144;stroke-width:25px;"/></g><g id="XMLID_593_"><path id="XMLID_594_" d="M2212.92,2351.25l-0,62.5" style="fill:none;fill-rule:nonzero;stroke:#153144;stroke-width:25px;"/></g></g></g><g><g><g id="XMLID_567_"><path id="XMLID_568_" d="M2629.58,2184.58l0,62.5" style="fill:none;fill-rule:nonzero;stroke:#153144;stroke-width:25px;"/></g><g id="XMLID_565_"><path id="XMLID_566_" d="M2546.25,2184.58l0,62.5" style="fill:none;fill-rule:nonzero;stroke:#153144;stroke-width:25px;"/></g><g id="XMLID_563_"><path id="XMLID_564_" d="M2462.92,2184.58l-0,62.5" style="fill:none;fill-rule:nonzero;stroke:#153144;stroke-width:25px;"/></g><g id="XMLID_561_"><path id="XMLID_562_" d="M2379.58,2184.58l0,62.5" style="fill:none;fill-rule:nonzero;stroke:#153144;stroke-width:25px;"/></g><g id="XMLID_559_"><path id="XMLID_560_" d="M2296.25,2184.58l0,62.5" style="fill:none;fill-rule:nonzero;stroke:#153144;stroke-width:25px;"/></g><g id="XMLID_557_"><path id="XMLID_558_" d="M2212.92,2184.58l-0,62.5" style="fill:none;fill-rule:nonzero;stroke:#153144;stroke-width:25px;"/></g></g></g><g><g><g id="XMLID_531_"><path id="XMLID_532_" d="M2629.58,2017.92l0,62.5" style="fill:none;fill-rule:nonzero;stroke:#153144;stroke-width:25px;"/></g><g id="XMLID_529_"><path id="XMLID_530_" d="M2546.25,2017.92l0,62.5" style="fill:none;fill-rule:nonzero;stroke:#153144;stroke-width:25px;"/></g><g id="XMLID_527_"><path id="XMLID_528_" d="M2462.92,2017.92l-0,62.5" style="fill:none;fill-rule:nonzero;stroke:#153144;stroke-width:25px;"/></g><g id="XMLID_525_"><path id="XMLID_526_" d="M2379.58,2017.92l0,62.5" style="fill:none;fill-rule:nonzero;stroke:#153144;stroke-width:25px;"/></g><g id="XMLID_523_"><path id="XMLID_524_" d="M2296.25,2017.92l0,62.5" style="fill:none;fill-rule:nonzero;stroke:#153144;stroke-width:25px;"/></g><g id="XMLID_521_"><path id="XMLID_522_" d="M2212.92,2017.92l-0,62.5" style="fill:none;fill-rule:nonzero;stroke:#153144;stroke-width:25px;"/></g></g></g><g><g><g id="XMLID_495_"><path id="XMLID_496_" d="M2629.58,1851.25l0,62.5" style="fill:none;fill-rule:nonzero;stroke:#153144;stroke-width:25px;"/></g><g id="XMLID_493_"><path id="XMLID_494_" d="M2546.25,1851.25l0,62.5" style="fill:none;fill-rule:nonzero;stroke:#153144;stroke-width:25px;"/></g><g id="XMLID_491_"><path id="XMLID_492_" d="M2462.92,1851.25l-0,62.5" style="fill:none;fill-rule:nonzero;stroke:#153144;stroke-width:25px;"/></g><g id="XMLID_489_"><path id="XMLID_490_" d="M2379.58,1851.25l0,62.5" style="fill:none;fill-rule:nonzero;stroke:#153144;stroke-width:25px;"/></g><g id="XMLID_487_"><path id="XMLID_488_" d="M2296.25,1851.25l0,62.5" style="fill:none;fill-rule:nonzero;stroke:#153144;stroke-width:25px;"/></g><g id="XMLID_485_"><path id="XMLID_486_" d="M2212.92,1851.25l-0,62.5" style="fill:none;fill-rule:nonzero;stroke:#153144;stroke-width:25px;"/></g></g></g></g><rect id="XMLID_105_" x="1391.67" y="1717.92" width="252.5" height="1200" style="fill:none;stroke:#153144;stroke-width:25px;"/><g id="XMLID_3_"><g><g><g id="XMLID_433_"><path id="XMLID_435_" d="M1462.92,2517.92l-0,62.5" style="fill:none;fill-rule:nonzero;stroke:#153144;stroke-width:25px;"/><path id="XMLID_434_" d="M1462.92,2601.25l-0,25" style="fill:none;fill-rule:nonzero;stroke:#153144;stroke-opacity:0.36;stroke-width:25px;"/></g><g id="XMLID_430_"><path id="XMLID_432_" d="M1517.08,2517.92l0,62.5" style="fill:none;fill-rule:nonzero;stroke:#153144;stroke-width:25px;"/><path id="XMLID_431_" d="M1517.08,2601.25l0,25" style="fill:none;fill-rule:nonzero;stroke:#153144;stroke-opacity:0.36;stroke-width:25px;"/></g><g id="XMLID_427_"><path id="XMLID_429_" d="M1571.25,2517.92l0,62.5" style="fill:none;fill-rule:nonzero;stroke:#153144;stroke-width:25px;"/><path id="XMLID_428_" d="M1571.25,2601.25l0,25" style="fill:none;fill-rule:nonzero;stroke:#153144;stroke-opacity:0.36;stroke-width:25px;"/></g></g></g><g><g><g id="XMLID_406_"><path id="XMLID_408_" d="M1462.92,2334.58l-0,62.5" style="fill:none;fill-rule:nonzero;stroke:#153144;stroke-width:25px;"/><path id="XMLID_407_" d="M1462.92,2417.92l-0,25" style="fill:none;fill-rule:nonzero;stroke:#153144;stroke-opacity:0.36;stroke-width:25px;"/></g><g id="XMLID_403_"><path id="XMLID_405_" d="M1517.08,2334.58l0,62.5" style="fill:none;fill-rule:nonzero;stroke:#153144;stroke-width:25px;"/><path id="XMLID_404_" d="M1517.08,2417.92l0,25" style="fill:none;fill-rule:nonzero;stroke:#153144;stroke-opacity:0.36;stroke-width:25px;"/></g><g id="XMLID_400_"><path id="XMLID_402_" d="M1571.25,2334.58l0,62.5" style="fill:none;fill-rule:nonzero;stroke:#153144;stroke-width:25px;"/><path id="XMLID_401_" d="M1571.25,2417.92l0,25" style="fill:none;fill-rule:nonzero;stroke:#153144;stroke-opacity:0.36;stroke-width:25px;"/></g></g></g><g><g><g id="XMLID_379_"><path id="XMLID_381_" d="M1462.92,2151.25l-0,62.5" style="fill:none;fill-rule:nonzero;stroke:#153144;stroke-width:25px;"/><path id="XMLID_380_" d="M1462.92,2234.58l-0,25" style="fill:none;fill-rule:nonzero;stroke:#153144;stroke-opacity:0.36;stroke-width:25px;"/></g><g id="XMLID_376_"><path id="XMLID_378_" d="M1517.08,2151.25l0,62.5" style="fill:none;fill-rule:nonzero;stroke:#153144;stroke-width:25px;"/><path id="XMLID_377_" d="M1517.08,2234.58l0,25" style="fill:none;fill-rule:nonzero;stroke:#153144;stroke-opacity:0.36;stroke-width:25px;"/></g><g id="XMLID_373_"><path id="XMLID_375_" d="M1571.25,2151.25l0,62.5" style="fill:none;fill-rule:nonzero;stroke:#153144;stroke-width:25px;"/><path id="XMLID_374_" d="M1571.25,2234.58l0,25" style="fill:none;fill-rule:nonzero;stroke:#153144;stroke-opacity:0.36;stroke-width:25px;"/></g></g></g><g><g><g id="XMLID_352_"><path id="XMLID_354_" d="M1462.92,1967.92l-0,62.5" style="fill:none;fill-rule:nonzero;stroke:#153144;stroke-width:25px;"/><path id="XMLID_353_" d="M1462.92,2051.25l-0,25" style="fill:none;fill-rule:nonzero;stroke:#153144;stroke-opacity:0.36;stroke-width:25px;"/></g><g id="XMLID_349_"><path id="XMLID_351_" d="M1517.08,1967.92l0,62.5" style="fill:none;fill-rule:nonzero;stroke:#153144;stroke-width:25px;"/><path id="XMLID_350_" d="M1517.08,2051.25l0,25" style="fill:none;fill-rule:nonzero;stroke:#153144;stroke-opacity:0.36;stroke-width:25px;"/></g><g id="XMLID_346_"><path id="XMLID_348_" d="M1571.25,1967.92l0,62.5" style="fill:none;fill-rule:nonzero;stroke:#153144;stroke-width:25px;"/><path id="XMLID_347_" d="M1571.25,2051.25l0,25" style="fill:none;fill-rule:nonzero;stroke:#153144;stroke-opacity:0.36;stroke-width:25px;"/></g></g></g><g><g><g id="XMLID_325_"><path id="XMLID_327_" d="M1462.92,1784.58l-0,62.5" style="fill:none;fill-rule:nonzero;stroke:#153144;stroke-width:25px;"/><path id="XMLID_326_" d="M1462.92,1867.92l-0,25" style="fill:none;fill-rule:nonzero;stroke:#153144;stroke-opacity:0.36;stroke-width:25px;"/></g><g id="XMLID_322_"><path id="XMLID_324_" d="M1517.08,1784.58l0,62.5" style="fill:none;fill-rule:nonzero;stroke:#153144;stroke-width:25px;"/><path id="XMLID_323_" d="M1517.08,1867.92l0,25" style="fill:none;fill-rule:nonzero;stroke:#153144;stroke-opacity:0.36;stroke-width:25px;"/></g><g id="XMLID_319_"><path id="XMLID_321_" d="M1571.25,1784.58l0,62.5" style="fill:none;fill-rule:nonzero;stroke:#153144;stroke-width:25px;"/><path id="XMLID_320_" d="M1571.25,1867.92l0,25" style="fill:none;fill-rule:nonzero;stroke:#153144;stroke-opacity:0.36;stroke-width:25px;"/></g></g></g></g><ellipse id="XMLID_130_" cx="2974.17" cy="2330" rx="170.833" ry="237.083" style="fill:none;stroke:#153144;stroke-width:25px;"/><path id="XMLID_129_" d="M2980.83,2469.17l48.75,-49.167" style="fill:none;fill-rule:nonzero;stroke:#153144;stroke-width:25px;"/><path id="XMLID_128_" d="M2974.17,2394.58l-52.084,-48.75" style="fill:none;fill-rule:nonzero;stroke:#153144;stroke-width:25px;"/><path id="XMLID_127_" d="M2980.83,2275.83l0,505" style="fill:none;fill-rule:nonzero;stroke:#153144;stroke-width:25px;"/><path id="XMLID_132_" d="M1881.67,779.167l-0,218.333" style="fill:none;fill-rule:nonzero;stroke:#153144;stroke-width:25px;"/></g><ellipse id="XMLID_6_" cx="635.417" cy="2390.42" rx="79.167" ry="46.667" style="fill:#153144;"/><path id="XMLID_96_" d="M1612.92,1804.17l-652.084,-0l0,-145.417l-186.666,37.5l186.666,-173.75l0,-329.167l652.084,0l-0,610.834Z" style="fill:#fff;fill-rule:nonzero;"/><path id="XMLID_104_" d="M1549.58,1804.17l-546.25,-0c-35,-0 -63.333,-28.334 -63.333,-63.334l0,-82.083l-187.083,37.5l187.083,-173.75l0,-265.833c0,-35 28.333,-63.334 63.333,-63.334l546.25,0c35,0 63.334,28.334 63.334,63.334l-0,484.166c-0,35 -28.334,63.334 -63.334,63.334Z" style="fill:#fff;fill-rule:nonzero;"/><path id="XMLID_67_" d="M1549.58,1804.17l-546.25,-0c-35,-0 -63.333,-28.334 -63.333,-63.334l0,-82.083l-187.083,37.5l187.083,-173.75l0,-265.833c0,-35 28.333,-63.334 63.333,-63.334l546.25,0c35,0 63.334,28.334 63.334,63.334l-0,484.166c-0,35 -28.334,63.334 -63.334,63.334Z" style="fill:none;fill-rule:nonzero;stroke:#153144;stroke-width:33.33px;"/><path id="XMLID_45_" d="M3425,2915.42c-17.083,-191.667 -160,-341.667 -333.75,-341.667c-173.75,0 -317.083,150 -333.75,341.667l667.5,-0Z" style="fill:#ef2c54;fill-rule:nonzero;"/><path id="XMLID_88_" d="M3191.67,2704.17c-0,-44.584 -12.917,-86.667 -35,-123.334c-21.25,-4.583 -42.917,-7.083 -65.417,-7.083c-173.75,0 -317.083,150 -333.75,341.667l311.667,-0c73.75,-47.084 122.5,-124.167 122.5,-211.25Z" style="fill:#7eb25b;fill-opacity:0.3;fill-rule:nonzero;"/><path id="XMLID_91_" d="M3602.08,2915.42c-9.166,-101.667 -85,-181.25 -177.083,-181.25c-92.083,-0 -167.917,79.583 -177.083,181.25l354.166,-0Z" style="fill:#ef2c54;fill-rule:nonzero;"/><path id="XMLID_90_" d="M3478.33,2803.33c0,-23.75 -6.666,-45.833 -18.75,-65.416c-11.25,-2.5 -22.916,-3.75 -34.583,-3.75c-92.083,-0 -167.917,79.583 -177.083,181.25l165.416,-0c39.167,-25 65,-65.834 65,-112.084Z" style="fill:#7eb25b;fill-opacity:0.3;fill-rule:nonzero;"/><path id="XMLID_37_" d="M3107.08,2700.42l0,215" style="fill:none;fill-rule:nonzero;stroke:#153144;stroke-width:33.33px;"/><path id="XMLID_41_" d="M2994.58,2734.17l112.5,69.583" style="fill:none;fill-rule:nonzero;stroke:#153144;stroke-width:33.33px;"/><path id="XMLID_54_" d="M3109.17,2880.42l88.333,-72.5" style="fill:none;fill-rule:nonzero;stroke:#153144;stroke-width:33.33px;"/><ellipse id="XMLID_46_" cx="3282.08" cy="1748.75" rx="312.5" ry="445.833" style="fill:#ef2c54;"/><path id="XMLID_87_" d="M2969.58,1748.75c0,95.833 21.25,184.583 57.5,257.5c32.5,18.333 67.5,28.333 104.167,28.333c157.083,0 284.583,-181.666 284.583,-406.25c0,-132.5 -44.583,-250 -113.333,-324.166c-6.667,-0.834 -13.75,-0.834 -20.417,-0.834c-172.5,-0.416 -312.5,199.167 -312.5,445.417Z" style="fill:#7eb25b;fill-opacity:0.3;fill-rule:nonzero;"/><path id="XMLID_84_" d="M3630.42,2915.42l-2638.75,-0c-36.25,-0 -65.834,-29.584 -65.834,-65.834c0,-36.25 29.584,-65.833 65.834,-65.833l84.166,0c29.167,0 52.917,-23.75 52.917,-52.917c0,-29.166 -23.75,-52.916 -52.917,-52.916l-300.833,-0c-31.25,-0 -56.25,-25 -56.25,-56.25c0,-31.25 25,-56.25 56.25,-56.25l63.333,-0c45.417,-0 82.084,-36.667 82.084,-82.084c-0,-45.416 -36.667,-82.083 -82.084,-82.083l-202.916,0" style="fill:none;fill-rule:nonzero;stroke:#153144;stroke-width:33.33px;"/><path id="XMLID_1_" d="M3844.17,2915.42l-122.084,-0" style="fill:none;fill-rule:nonzero;stroke:#153144;stroke-width:33.33px;"/><path id="XMLID_11_" d="M487.083,1814.58c79.584,-87.083 216.667,-87.083 296.25,0c55.417,60.834 67.917,150 31.667,223.75l-179.583,362.917l-179.584,-362.917c-36.666,-73.75 -24.166,-162.916 31.25,-223.75Z" style="fill:#ef2c54;fill-rule:nonzero;"/><path id="XMLID_95_" d="M487.083,1892.92c79.584,-87.084 216.667,-87.084 296.25,-0c25,27.5 41.25,60.833 48.334,95.833c12.5,-61.667 -4.584,-126.667 -48.334,-174.583c-79.583,-87.084 -216.666,-87.084 -296.25,-0c-43.75,47.916 -60.833,112.916 -48.333,174.583c7.083,-35 23.333,-67.917 48.333,-95.833Z" style="fill:#ef2c54;fill-rule:nonzero;"/><path id="XMLID_4_" d="M487.083,1814.58c79.584,-87.083 216.667,-87.083 296.25,0c55.417,60.834 67.917,150 31.667,223.75l-179.583,362.917l-179.584,-362.917c-36.666,-73.75 -24.166,-162.916 31.25,-223.75Z" style="fill:none;fill-rule:nonzero;stroke:#153144;stroke-width:33.33px;"/><circle id="XMLID_14_" cx="635.417" cy="1948.75" r="97.083" style="fill:#fff;"/><circle id="XMLID_101_" cx="635.417" cy="1948.75" r="97.083" style="fill:none;stroke:#153144;stroke-width:33.33px;"/><ellipse id="XMLID_20_" cx="3267.08" cy="1461.25" rx="31.667" ry="72.5" style="fill:none;stroke:#153144;stroke-width:25px;"/><path id="XMLID_18_" d="M3091.29,1649.18c12.545,-12.169 45.35,1.269 73.212,29.991c27.861,28.722 40.296,61.921 27.751,74.09c-12.545,12.17 -45.35,-1.269 -73.212,-29.991c-27.862,-28.722 -40.297,-61.92 -27.751,-74.09Z" style="fill:none;stroke:#153144;stroke-width:25px;"/><path id="XMLID_38_" d="M2856.81,2100.29c20.484,-34.372 49.302,-55.014 64.315,-46.068c15.013,8.947 10.572,44.116 -9.911,78.488c-20.483,34.372 -49.302,55.014 -64.315,46.067c-15.013,-8.946 -10.572,-44.115 9.911,-78.487Z" style="fill:none;stroke:#153144;stroke-width:25px;"/><path id="XMLID_82_" d="M3522.82,2460c17.477,-0.024 31.713,32.442 31.769,72.456c0.057,40.013 -14.087,72.52 -31.564,72.544c-17.477,0.025 -31.713,-32.441 -31.769,-72.455c-0.057,-40.014 14.087,-72.52 31.564,-72.545Z" style="fill:none;stroke:#153144;stroke-width:25px;"/><path id="XMLID_19_" d="M3397.54,1623.52c22.704,-32.948 52.82,-51.646 67.211,-41.729c14.391,9.917 7.642,44.717 -15.062,77.664c-22.704,32.948 -52.82,51.646 -67.211,41.729c-14.391,-9.917 -7.641,-44.717 15.062,-77.664Z" style="fill:none;stroke:#153144;stroke-width:25px;"/><path id="XMLID_21_" d="M3389.36,1956.08c17.615,-25.562 40.987,-40.066 52.158,-32.367c11.172,7.698 5.941,34.702 -11.674,60.264c-17.615,25.563 -40.986,40.066 -52.158,32.368c-11.172,-7.698 -5.941,-34.702 11.674,-60.265Z" style="fill:none;stroke:#153144;stroke-width:25px;"/><path id="XMLID_22_" d="M3282.08,1919.58l93.75,-83.333" style="fill:none;fill-rule:nonzero;stroke:#153144;stroke-width:33.33px;"/><path id="XMLID_23_" d="M3282.08,2061.25l-116.666,-91.25" style="fill:none;fill-rule:nonzero;stroke:#153144;stroke-width:33.33px;"/><g id="XMLID_24_"><path id="XMLID_102_" d="M1175,1588.33l-85.417,0l0,-197.5l-68.75,0l41.25,-79.583" style="fill:none;fill-rule:nonzero;stroke:#ef2c54;stroke-width:20.83px;"/><path id="XMLID_97_" d="M1110.42,1567.5l-0,-197.5l-55.417,0l30.417,-58.75l89.583,0l0,256.25l-64.583,0Z" style="fill:#153144;fill-rule:nonzero;"/><path id="XMLID_103_" d="M1511.25,1588.33l-98.333,0l-52.917,-72.5l0,72.5l-111.667,0l0,-279.583" style="fill:none;fill-rule:nonzero;stroke:#ef2c54;stroke-width:20.83px;"/><path id="XMLID_99_" d="M1269.17,1567.5l-0,-258.75l70,0l-0,117.5l81.666,-117.5l82.084,0l-95.834,126.25l103.75,132.5l-87.916,0l-84.167,-116.25l0,116.25l-69.583,0Z" style="fill:#153144;fill-rule:nonzero;"/></g><g><path d="M1049.17,1651.25l30.416,0l0,5.833l-23.333,0l0,17.917l18.75,0l0,5.833l-18.75,0l0,24.167l-7.083,0l-0,-53.75Z" style="fill:#ef2c54;fill-rule:nonzero;"/><path d="M1112.5,1705.42c-15,-0 -26.667,-11.25 -26.667,-27.084c0,-15.833 11.667,-27.083 26.667,-27.083c15,0 26.667,11.25 26.667,27.083c-0,15.834 -11.667,27.084 -26.667,27.084Zm0,-6.25c11.25,-0 19.583,-8.334 19.583,-21.25c0,-12.917 -8.333,-21.25 -19.583,-21.25c-11.25,-0 -19.583,7.916 -19.583,21.25c-0.417,12.916 8.333,21.25 19.583,21.25Z" style="fill:#ef2c54;fill-rule:nonzero;"/><path d="M1155,1651.25l0,47.5l18.75,0l0,5.833l-25.417,0l0,-53.333l6.667,0Z" style="fill:#ef2c54;fill-rule:nonzero;"/><path d="M1188.33,1651.25l0,47.5l18.75,0l0,5.833l-25.416,0l-0,-53.333l6.666,0Z" style="fill:#ef2c54;fill-rule:nonzero;"/><path d="M1238.33,1705.42c-15,-0 -26.666,-11.25 -26.666,-27.084c-0,-15.833 11.666,-27.083 26.666,-27.083c15,0 26.667,11.25 26.667,27.083c0,15.834 -11.667,27.084 -26.667,27.084Zm0,-6.25c11.25,-0 19.584,-8.334 19.584,-21.25c-0,-12.917 -8.334,-21.25 -19.584,-21.25c-11.25,-0 -19.583,7.916 -19.583,21.25c0,12.916 8.333,21.25 19.583,21.25Z" style="fill:#ef2c54;fill-rule:nonzero;"/><path d="M1270,1651.25l7.5,0l11.667,45l12.916,-45l7.917,0l12.083,45l11.667,-45l7.5,0l-15.417,53.333l-7.916,0l-12.5,-42.916l-12.917,42.916l-7.917,0l-14.583,-53.333Z" style="fill:#ef2c54;fill-rule:nonzero;"/><path d="M1377.5,1657.08l-21.667,0l0,17.917l19.584,0l-0,5.833l-19.584,0l0,18.334l21.667,-0l0,5.833l-28.75,-0l0,-53.333l28.75,-0l0,5.416Z" style="fill:#ef2c54;fill-rule:nonzero;"/><path d="M1405.42,1651.25c12.5,0 18.333,7.083 18.333,15.833c0,6.667 -3.75,13.334 -12.5,15.417l13.333,22.5l-8.333,0l-12.5,-21.667l-8.333,0l-0,21.667l-7.084,0l0,-53.333l17.084,-0l-0,-0.417Zm-0,5.833l-10.417,0l0,20l10.417,0c7.916,0 11.25,-4.166 11.25,-10.416c-0,-5.417 -3.334,-9.584 -11.25,-9.584Z" style="fill:#ef2c54;fill-rule:nonzero;"/><path d="M1451.25,1705.42c-10.833,-0 -18.333,-5.834 -18.333,-14.584l7.5,0c0.416,4.584 3.75,8.75 10.833,8.75c6.667,0 10.833,-3.75 10.833,-8.75c0,-14.166 -28.75,-5 -28.75,-25c0,-8.75 7.084,-14.583 17.5,-14.583c10,0 16.667,5.417 17.5,13.75l-7.5,0c-0.416,-3.75 -3.75,-7.5 -10.416,-7.917c-5.834,0 -10.417,2.917 -10.417,8.75c0,13.75 28.75,5 28.75,25c0.417,7.084 -5.833,14.584 -17.5,14.584Z" style="fill:#ef2c54;fill-rule:nonzero;"/></g><path id="XMLID_5_" d="M3282.08,1748.75l0,1166.67" style="fill:none;fill-rule:nonzero;stroke:#153144;stroke-width:33.33px;"/><g><path id="XMLID_50_" d="M1957.08,2087.5c0,0 -50.416,70 -56.666,76.25c-6.25,6.25 -170,30.417 -170,30.417l-18.334,61.25c0,-0 203.334,-14.584 222.084,-33.334c18.75,-18.75 70.833,-86.25 70.833,-86.25l-47.917,-48.333Z" style="fill:#fff;fill-rule:nonzero;"/><path id="XMLID_32_" d="M1957.08,2087.5c0,0 -50.416,70 -56.666,76.25c-6.25,6.25 -188.75,30.417 -188.75,30.417l-18.334,61.25c0,-0 221.667,-14.584 240.417,-33.334c18.75,-18.75 70.833,-86.25 70.833,-86.25l-47.5,-48.333Z" style="fill:none;fill-rule:nonzero;stroke:#153144;stroke-width:33.33px;"/><circle id="XMLID_47_" cx="2346.25" cy="2666.67" r="248.75" style="fill:#fff;"/><circle id="XMLID_9_" cx="1587.5" cy="2666.67" r="248.75" style="fill:#fff;"/><circle id="XMLID_17_" cx="1587.5" cy="2666.67" r="248.75" style="fill:none;stroke:#153144;stroke-width:33.33px;"/><path id="XMLID_39_" d="M1587.5,2832.08c-91.25,0 -165.417,-74.166 -165.417,-165.416c0,-91.25 74.167,-165.417 165.417,-165.417c91.25,0 165.417,74.167 165.417,165.417c-0,91.25 -74.167,165.416 -165.417,165.416Z" style="fill:#90caf8;fill-rule:nonzero;"/><path id="XMLID_81_" d="M1442.08,2745c-12.5,-23.333 -19.583,-50 -19.583,-78.333c0,-55.417 27.083,-104.167 69.167,-134.167" style="fill:none;fill-rule:nonzero;stroke:#153144;stroke-width:25px;"/><path id="XMLID_85_" d="M1683.75,2589.17c17.083,21.25 27.083,47.916 27.083,77.5c0,15.416 -2.916,30 -7.916,43.333" style="fill:none;fill-rule:nonzero;stroke:#153144;stroke-width:25px;"/><path id="XMLID_35_" d="M1587.5,2666.67l124.167,-411.25" style="fill:none;fill-rule:nonzero;stroke:#153144;stroke-width:33.33px;"/><path id="XMLID_7_" d="M1587.5,2695.83c-15.833,0 -29.167,-13.333 -29.167,-29.166c0,-15.834 13.334,-29.167 29.167,-29.167c15.833,0 29.167,13.333 29.167,29.167c-0,15.833 -13.334,29.166 -29.167,29.166Z" style="fill:#ef2c54;fill-rule:nonzero;"/><path id="XMLID_43_" d="M1587.5,2695.83c-15.833,0 -29.167,-13.333 -29.167,-29.166c0,-15.834 13.334,-29.167 29.167,-29.167c15.833,0 29.167,13.333 29.167,29.167c-0,15.833 -13.334,29.166 -29.167,29.166Z" style="fill:none;fill-rule:nonzero;stroke:#153144;stroke-width:33.33px;"/><circle id="XMLID_26_" cx="2346.25" cy="2666.67" r="248.75" style="fill:none;stroke:#153144;stroke-width:33.33px;"/><path id="XMLID_40_" d="M2346.25,2832.08c-91.25,0 -165.417,-74.166 -165.417,-165.416c0,-91.25 74.167,-165.417 165.417,-165.417c91.25,0 165.417,74.167 165.417,165.417c-0,91.25 -74.167,165.416 -165.417,165.416Z" style="fill:#90caf8;fill-rule:nonzero;"/><path id="XMLID_89_" d="M2377.08,2504.17c76.667,14.583 134.584,81.666 134.584,162.5" style="fill:none;fill-rule:nonzero;stroke:#153144;stroke-width:25px;"/><path id="XMLID_92_" d="M2323.33,2788.33c-31.25,-5.833 -58.333,-23.75 -76.666,-48.333" style="fill:none;fill-rule:nonzero;stroke:#153144;stroke-width:25px;"/><path id="XMLID_28_" d="M1707.08,2332.5l228.75,342.5l412.084,-0.417l-228.75,-342.5l-412.084,0.417Z" style="fill:none;fill-rule:nonzero;stroke:#153144;stroke-width:33.33px;"/><circle id="XMLID_51_" cx="1952.5" cy="1925.42" r="109.167" style="fill:#fff;"/><path id="XMLID_29_" d="M2005.42,1880.83l-80.834,153.75" style="fill:none;fill-rule:nonzero;stroke:#153144;stroke-width:33.33px;"/><circle id="XMLID_25_" cx="1952.5" cy="1925.42" r="109.167" style="fill:none;stroke:#153144;stroke-width:33.33px;"/><path id="XMLID_52_" d="M2092.08,1908.75c8.75,-40 3.334,-76.667 -17.916,-102.083c-45.417,-54.167 -150.417,-39.167 -238.75,35c-24.167,20.416 -44.584,42.916 -61.25,66.666l317.916,0l0,0.417Z" style="fill:#ce2951;fill-rule:nonzero;"/><path id="XMLID_86_" d="M2074.17,1806.67c-27.917,-33.334 -77.917,-40.417 -132.917,-23.75c29.583,1.666 54.583,12.083 71.25,32.083c19.583,23.75 25.833,56.667 19.583,93.75l60,0c8.334,-40.417 3.334,-76.667 -17.916,-102.083Z" style="fill:#ad254c;fill-rule:nonzero;"/><path id="XMLID_31_" d="M2092.08,1908.75c8.75,-40 3.334,-76.667 -17.916,-102.083c-45.417,-54.167 -150.417,-39.167 -238.75,35c-24.167,20.416 -44.584,42.916 -61.25,66.666l317.916,0l0,0.417Z" style="fill:none;fill-rule:nonzero;stroke:#153144;stroke-width:33.33px;"/><path id="XMLID_70_" d="M1996.25,2390.42c0,-0 -31.667,25.833 -43.333,37.5c-11.667,11.666 -6.25,230.416 -6.25,230.416l59.166,0c0,0 20,-174.166 27.917,-182.083c7.5,-7.5 50.417,-36.25 50.417,-36.25l-87.917,-49.583Z" style="fill:#fff;fill-rule:nonzero;"/><path id="XMLID_30_" d="M1996.25,2390.42c0,-0 -31.667,25.833 -43.333,37.5c-11.667,11.666 -6.25,230.416 -6.25,230.416l59.166,0c0,0 20,-174.166 27.917,-182.083c7.5,-7.5 50.417,-36.25 50.417,-36.25l-87.917,-49.583Z" style="fill:none;fill-rule:nonzero;stroke:#153144;stroke-width:33.33px;"/><path id="XMLID_49_" d="M1946.67,2086.25l55,70.833l25.833,-30.416l90.417,152.916l205.416,12.5c0,0 -132.916,-215.416 -196.666,-262.5c-63.75,-47.083 -97.5,-25.416 -112.084,-11.25c-14.166,14.167 -67.916,67.917 -67.916,67.917Z" style="fill:#90caf8;fill-rule:nonzero;"/><path id="XMLID_94_" d="M2192.5,2283.75c-11.667,-125 -83.333,-227.917 -178.75,-265c-15.417,15.417 -67.083,67.083 -67.083,67.083l55,70.834l25.833,-30.417l90.417,152.917l74.583,4.583Z" style="fill:#74bae8;fill-rule:nonzero;"/><path id="XMLID_33_" d="M1946.67,2086.25l55,70.833l25.833,-30.416l90.417,165.416l205.416,0c0,0 -132.916,-215.416 -196.666,-262.5c-63.75,-47.083 -97.5,-25.416 -112.084,-11.25c-14.166,14.167 -67.916,67.917 -67.916,67.917Z" style="fill:none;fill-rule:nonzero;stroke:#153144;stroke-width:33.33px;"/><path id="XMLID_16_" d="M2031.25,2725.83l-140,0l0,-22.916c0,-20.417 15.833,-37.084 35.833,-38.334l103.75,-5.833l0,67.083l0.417,0Z" style="fill:#153144;fill-rule:nonzero;"/><path id="XMLID_34_" d="M2031.25,2725.83l-140,0l0,-22.916c0,-20.417 15.833,-37.084 35.833,-38.334l103.75,-5.833l0,67.083l0.417,0Z" style="fill:none;fill-rule:nonzero;stroke:#153144;stroke-width:33.33px;"/><path id="XMLID_48_" d="M1987.08,2383.33l96.667,73.75c0,0 207.917,-70.833 239.583,-165.416l-205.416,-0l-130.834,91.666Z" style="fill:#ce2951;fill-rule:nonzero;"/><path id="XMLID_93_" d="M2188.75,2291.67l-70.833,-0l-130.834,91.666l23.334,17.917c5,-0.833 10,-1.667 15.416,-2.5c81.667,-16.667 145.417,-60.417 162.917,-107.083Z" style="fill:#ad254c;fill-opacity:0.63;fill-rule:nonzero;"/><path id="XMLID_27_" d="M1987.08,2383.33l96.667,73.75c0,0 207.917,-70.833 239.583,-165.416l-205.416,-0l-130.834,91.666Z" style="fill:none;fill-rule:nonzero;stroke:#153144;stroke-width:33.33px;"/><path id="XMLID_13_" d="M2347.92,2704.17c-15.834,-0 -29.167,-13.334 -29.167,-29.167c0,-15.833 13.333,-29.167 29.167,-29.167c15.833,0 29.166,13.334 29.166,29.167c0,15.833 -13.333,29.167 -29.166,29.167Z" style="fill:#ef2c54;fill-rule:nonzero;"/><path id="XMLID_12_" d="M2347.92,2704.17c-15.834,-0 -29.167,-13.334 -29.167,-29.167c0,-15.833 13.333,-29.167 29.167,-29.167c15.833,0 29.166,13.334 29.166,29.167c0,15.833 -13.333,29.167 -29.166,29.167Z" style="fill:none;fill-rule:nonzero;stroke:#153144;stroke-width:33.33px;"/><path id="XMLID_76_" d="M2290.83,1813.33l32.5,0" style="fill:none;fill-rule:nonzero;stroke:#153144;stroke-width:33.33px;"/><path id="XMLID_63_" d="M2031.25,1813.33l205,0" style="fill:none;fill-rule:nonzero;stroke:#153144;stroke-width:33.33px;"/><path id="XMLID_64_" d="M2452.92,2734.17l304.166,-0" style="fill:none;fill-rule:nonzero;stroke:#153144;stroke-width:33.33px;"/><path id="XMLID_77_" d="M2813.75,2573.75l29.167,0" style="fill:none;fill-rule:nonzero;stroke:#153144;stroke-width:33.33px;"/><path id="XMLID_65_" d="M2642.5,2573.75l114.583,0" style="fill:none;fill-rule:nonzero;stroke:#153144;stroke-width:33.33px;"/><path id="XMLID_66_" d="M2297.08,2045.83l159.584,0" style="fill:none;fill-rule:nonzero;stroke:#153144;stroke-width:33.33px;"/><path id="XMLID_68_" d="M1442.08,2401.25l-139.583,0" style="fill:none;fill-rule:nonzero;stroke:#153144;stroke-width:33.33px;"/><path id="XMLID_80_" d="M1561.25,2332.08l-70,0" style="fill:none;fill-rule:nonzero;stroke:#153144;stroke-width:33.33px;"/></g></svg>