<?xml version="1.0" encoding="UTF-8" standalone="no"?><!DOCTYPE svg PUBLIC "-//W3C//DTD SVG 1.1//EN" "http://www.w3.org/Graphics/SVG/1.1/DTD/svg11.dtd"><svg width="100%" height="100%" viewBox="0 0 4167 4167" version="1.1" xmlns="http://www.w3.org/2000/svg" xmlns:xlink="http://www.w3.org/1999/xlink" xml:space="preserve" xmlns:serif="http://www.serif.com/" style="fill-rule:evenodd;clip-rule:evenodd;stroke-linecap:round;stroke-linejoin:round;stroke-miterlimit:10;"><g id="XMLID_52_"><path id="XMLID_37_" d="M1898.75,2089.58l579.167,475.834c28.75,23.75 70.416,23.75 99.166,-0c37.917,-31.25 37.917,-89.584 0,-120.417l-625,-513.333c-30.833,-25.417 -75.416,-25.417 -106.666,-0l-624.584,512.916c-37.916,31.25 -37.916,89.584 0,120.417c28.75,23.75 70.417,23.75 99.167,0l578.75,-475.417Z" style="fill:none;fill-rule:nonzero;stroke:#cecece;stroke-width:25px;"/><path id="XMLID_44_" d="M1898.75,2089.58l-475.833,390.834l41.25,787.916l869.583,0l40.833,-787.916l-475.833,-390.834Z" style="fill:none;fill-rule:nonzero;stroke:#cecece;stroke-width:25px;"/><path id="XMLID_36_" d="M1898.75,2596.67c-169.583,-0 -302.5,113.75 -297.5,250l15.833,421.666l563.334,0l15.833,-421.666c5,-136.25 -127.917,-250 -297.5,-250Z" style="fill:none;fill-rule:nonzero;stroke:#cecece;stroke-width:25px;"/><path id="XMLID_41_" d="M1812.5,2458.33c7.917,18.334 29.167,26.667 47.5,19.167c11.667,-4.583 25,-7.5 38.75,-7.5c13.75,0 27.083,2.5 38.75,7.5c18.333,7.5 39.583,-0.833 47.5,-19.167c3.75,-8.75 5.833,-18.333 5.833,-27.916c0,-44.167 -41.25,-79.584 -92.5,-79.584c-51.25,0 -92.5,35.834 -92.5,79.584c0.834,10 2.5,19.166 6.667,27.916Z" style="fill:none;fill-rule:nonzero;stroke:#cecece;stroke-width:25px;"/><path id="XMLID_42_" d="M1770.72,2293.35c14.11,-11.075 33.173,-10.373 42.543,1.566c9.371,11.938 5.524,30.622 -8.586,41.697c-14.109,11.074 -33.172,10.372 -42.543,-1.566c-9.37,-11.939 -5.523,-30.623 8.586,-41.697Z" style="fill:none;stroke:#cecece;stroke-width:25px;"/><ellipse id="XMLID_34_" cx="1898.75" cy="2277.5" rx="42.5" ry="28.75" style="fill:none;stroke:#cecece;stroke-width:25px;"/><path id="XMLID_39_" d="M1974.17,2306.11c9.37,-11.939 28.433,-12.64 42.542,-1.566c14.11,11.074 17.957,29.758 8.587,41.697c-9.371,11.939 -28.434,12.64 -42.544,1.566c-14.109,-11.074 -17.956,-29.758 -8.585,-41.697Z" style="fill:none;stroke:#cecece;stroke-width:25px;"/></g><path id="XMLID_10_" d="M785.417,3267.5l47.916,0" style="fill:none;fill-rule:nonzero;stroke:#00354c;stroke-width:25px;"/><path id="XMLID_72_" d="M2063.33,2607.5c12.084,-72.5 40.834,-155.833 75,-225.417c-47.5,77.5 -90.416,187.917 -105.833,281.25c-23.75,142.084 -15.833,272.5 20.417,355.417l21.666,-78.333c-28.333,-82.917 -32.916,-202.917 -11.25,-332.917Z" style="fill:#d1d1d1;fill-rule:nonzero;"/><g id="XMLID_51_"><path id="XMLID_43_" d="M1064.17,1892.5c-119.167,-8.333 -123.334,129.167 -102.5,220.833c8.333,50 -45.834,79.167 -70.417,117.5c-10.417,16.667 -20,36.25 -25,61.25c-13.75,66.25 25.417,122.5 31.667,182.917c1.666,15 1.25,30.417 -2.5,46.25c-4.584,17.083 -12.917,33.75 -21.25,50.417c-66.667,75 -175,162.5 -100,262.5c13.75,17.5 28.75,32.916 45,46.666c130,111.667 325.833,103.334 475.833,32.5c54.167,-29.166 108.333,-70.833 120.833,-133.333c8.334,-66.667 -20.833,-129.167 -65.416,-173.333c-13.334,-14.584 -27.917,-28.334 -42.917,-40.417c-10.833,-16.667 -17.5,-32.5 -20.833,-47.917c-7.917,-38.333 4.166,-74.166 15.833,-110.416c5.833,-17.917 11.25,-36.25 14.167,-55c15.833,-94.167 -75.834,-152.5 -125.834,-219.167c-20.833,-29.167 -12.5,-66.667 -4.166,-100c16.666,-79.167 -45.834,-145.833 -120.417,-141.667" style="fill:#01d392;fill-rule:nonzero;"/><path id="XMLID_35_" d="M1082.92,2287.08c-19.167,90.417 -23.334,179.167 -20.834,267.917c0.834,22.083 57.917,391.667 21.25,553.333c-0.833,23.334 -0.833,37.084 -0.833,37.084" style="fill:none;fill-rule:nonzero;stroke:#00354c;stroke-width:25px;"/><path id="XMLID_45_" d="M1145,2636.67l-62.083,89.583" style="fill:none;fill-rule:nonzero;stroke:#00354c;stroke-width:25px;"/><path id="XMLID_32_" d="M1182.5,3280l-191.667,0c-2.5,0 -4.583,-1.667 -5,-4.167l-49.166,-207.5l300,0l-49.167,207.917c-0.417,2.083 -2.5,3.75 -5,3.75Z" style="fill:#f7bf46;fill-rule:nonzero;"/><path id="XMLID_47_" d="M966.667,3183.33l240,0" style="fill:none;fill-rule:nonzero;stroke:#f7bf46;stroke-opacity:0.68;stroke-width:4.17px;stroke-linecap:butt;stroke-linejoin:miter;"/><path id="XMLID_48_" d="M970.417,3198.33l232.5,0" style="fill:none;fill-rule:nonzero;stroke:#f7bf46;stroke-opacity:0.68;stroke-width:4.17px;stroke-linecap:butt;stroke-linejoin:miter;"/></g><path id="XMLID_23_" d="M2097.5,3220.83l0,45.834" style="fill:none;fill-rule:nonzero;stroke:#00354c;stroke-width:25px;"/><ellipse id="XMLID_69_" cx="792.917" cy="2455" rx="44.583" ry="72.5" style="fill:#01d392;"/><path id="XMLID_74_" d="M3359.62,2821.78l-41.247,-41.248l-41.248,41.248l41.247,41.247l41.248,-41.247Z" style="fill:#01d392;"/><path id="XMLID_119_" d="M3066.51,1614.43l-26.516,-26.516l-26.516,26.516l26.516,26.516l26.516,-26.516Z" style="fill:#01d392;"/><g id="XMLID_104_"><g id="XMLID_75_"><path id="XMLID_76_" d="M946.25,1067.92l0,59.583" style="fill:none;fill-rule:nonzero;stroke:#00354c;stroke-width:12.5px;"/><path id="XMLID_78_" d="M946.25,1202.92l0,59.583" style="fill:none;fill-rule:nonzero;stroke:#00354c;stroke-width:12.5px;"/></g><g id="XMLID_77_"><path id="XMLID_80_" d="M861.667,1116.67l51.666,29.583" style="fill:none;fill-rule:nonzero;stroke:#00354c;stroke-width:12.5px;"/><path id="XMLID_79_" d="M979.167,1184.17l51.666,29.583" style="fill:none;fill-rule:nonzero;stroke:#00354c;stroke-width:12.5px;"/></g><g id="XMLID_81_"><path id="XMLID_83_" d="M861.667,1213.75l51.666,-29.583" style="fill:none;fill-rule:nonzero;stroke:#00354c;stroke-width:12.5px;"/><path id="XMLID_82_" d="M979.167,1146.25l51.666,-29.583" style="fill:none;fill-rule:nonzero;stroke:#00354c;stroke-width:12.5px;"/></g></g><g id="XMLID_91_"><path id="XMLID_93_" d="M3554.58,1322.5l0,41.25" style="fill:none;fill-rule:nonzero;stroke:#00354c;stroke-width:12.5px;"/><path id="XMLID_92_" d="M3554.58,1416.25l0,41.667" style="fill:none;fill-rule:nonzero;stroke:#00354c;stroke-width:12.5px;"/></g><g id="XMLID_88_"><path id="XMLID_90_" d="M3496.25,1356.25l35.833,20.833" style="fill:none;fill-rule:nonzero;stroke:#00354c;stroke-width:12.5px;"/><path id="XMLID_89_" d="M3577.5,1403.33l35.833,20.417" style="fill:none;fill-rule:nonzero;stroke:#00354c;stroke-width:12.5px;"/></g><g id="XMLID_85_"><path id="XMLID_87_" d="M3496.25,1423.75l35.833,-20.417" style="fill:none;fill-rule:nonzero;stroke:#00354c;stroke-width:12.5px;"/><path id="XMLID_86_" d="M3577.5,1377.08l35.833,-20.833" style="fill:none;fill-rule:nonzero;stroke:#00354c;stroke-width:12.5px;"/></g><circle id="XMLID_84_" cx="3235.42" cy="1936.67" r="62.917" style="fill:#f7bf46;"/><g id="XMLID_103_"><g id="XMLID_100_"><path id="XMLID_102_" d="M3235.42,1845l-0,50.417" style="fill:none;fill-rule:nonzero;stroke:#00354c;stroke-width:12.5px;"/><path id="XMLID_101_" d="M3235.42,1977.5l-0,50.417" style="fill:none;fill-rule:nonzero;stroke:#00354c;stroke-width:12.5px;"/></g><g id="XMLID_97_"><path id="XMLID_99_" d="M3156.25,1890.83l43.75,25" style="fill:none;fill-rule:nonzero;stroke:#00354c;stroke-width:12.5px;"/><path id="XMLID_98_" d="M3271.25,1957.08l43.75,25" style="fill:none;fill-rule:nonzero;stroke:#00354c;stroke-width:12.5px;"/></g><g id="XMLID_94_"><path id="XMLID_96_" d="M3156.25,1985l43.75,-27.917" style="fill:none;fill-rule:nonzero;stroke:#00354c;stroke-width:12.5px;"/><path id="XMLID_95_" d="M3271.25,1915.83l43.75,-25" style="fill:none;fill-rule:nonzero;stroke:#00354c;stroke-width:12.5px;"/></g></g><path id="XMLID_106_" d="M2293.75,587.083l0,61.25" style="fill:none;fill-rule:nonzero;stroke:#00354c;stroke-width:16.67px;"/><path id="XMLID_105_" d="M2324.17,617.5l-60.834,0" style="fill:none;fill-rule:nonzero;stroke:#00354c;stroke-width:16.67px;"/><path id="XMLID_110_" d="M3707.08,2729.58l0,61.25" style="fill:none;fill-rule:nonzero;stroke:#00354c;stroke-width:16.67px;"/><path id="XMLID_109_" d="M3737.5,2760.42l-61.25,-0" style="fill:none;fill-rule:nonzero;stroke:#00354c;stroke-width:16.67px;"/><path id="XMLID_107_" d="M1563.33,1650l0,37.5" style="fill:none;fill-rule:nonzero;stroke:#00354c;stroke-width:16.67px;"/><path id="XMLID_63_" d="M1582.08,1668.75l-37.5,0" style="fill:none;fill-rule:nonzero;stroke:#00354c;stroke-width:16.67px;"/><path id="XMLID_108_" d="M1418.28,1972.3l-29.463,-29.463l-29.462,29.463l29.462,29.462l29.463,-29.462Z" style="fill:#f7bf46;"/><path id="XMLID_111_" d="M467.083,1796.67l110,-0" style="fill:none;fill-rule:nonzero;stroke:#00354c;stroke-width:16.67px;"/><path id="XMLID_22_" d="M614.583,1796.67l42.084,-0" style="fill:none;fill-rule:nonzero;stroke:#00354c;stroke-width:16.67px;"/><path id="XMLID_113_" d="M528.333,1850l121.667,0" style="fill:none;fill-rule:nonzero;stroke:#00354c;stroke-width:16.67px;"/><path id="XMLID_117_" d="M2850.83,2312.92l109.584,-0" style="fill:none;fill-rule:nonzero;stroke:#00354c;stroke-width:16.67px;"/><path id="XMLID_116_" d="M2997.92,2312.92l42.083,-0" style="fill:none;fill-rule:nonzero;stroke:#00354c;stroke-width:16.67px;"/><path id="XMLID_115_" d="M2911.67,2357.5l122.083,0" style="fill:none;fill-rule:nonzero;stroke:#00354c;stroke-width:16.67px;"/><path id="XMLID_66_" d="M3187.5,3267.5l172.083,0" style="fill:none;fill-rule:nonzero;stroke:#00354c;stroke-width:25px;"/><path id="XMLID_30_" d="M920.833,3267.5l344.584,0" style="fill:none;fill-rule:nonzero;stroke:#00354c;stroke-width:25px;"/><circle id="XMLID_16_" cx="2918.75" cy="802.917" r="215.417" style="fill:#f7bf46;"/><circle id="XMLID_33_" cx="3134.17" cy="632.083" r="215.417" style="fill:#f7bf46;"/><circle id="XMLID_123_" cx="3432.92" cy="709.167" r="196.667" style="fill:#f7bf46;"/><circle id="XMLID_126_" cx="3134.17" cy="925" r="214.583" style="fill:#f7bf46;"/><circle id="XMLID_124_" cx="3362.5" cy="925" r="142.917" style="fill:#f7bf46;"/><path id="XMLID_125_" d="M2911.67,1365c-0,32.5 -8.334,52.083 -40.834,52.083c-32.5,0 -59.166,-12.5 -59.166,-45c-0,-32.5 17.083,-61.666 50,-61.666c32.916,-0 50,22.083 50,54.583Z" style="fill:#f7bf46;fill-rule:nonzero;"/><path id="XMLID_130_" d="M3028.75,1202.92c0,49.166 -12.083,78.333 -61.25,78.333c-49.167,0 -88.333,-18.75 -88.333,-67.917c-0,-49.166 39.583,-88.75 88.75,-88.75c49.166,0 60.833,29.584 60.833,78.334Z" style="fill:#f7bf46;fill-rule:nonzero;"/><g><path id="XMLID_31_" d="M2987.5,2667.5c0.833,11.25 1.25,22.5 1.25,33.75c0,232.917 -187.5,422.083 -418.75,422.083c-194.167,0 -357.5,-133.333 -405,-314.166c17.083,217.083 197.5,388.333 417.5,388.333c231.25,0 418.75,-188.75 418.75,-422.083c0.417,-37.5 -4.583,-73.334 -13.75,-107.917Z" style="fill:#fff;fill-rule:nonzero;"/><path id="XMLID_17_" d="M2987.5,2667.5c0.833,11.25 1.25,22.5 1.25,33.75c0,232.917 -187.5,422.083 -418.75,422.083c-194.167,0 -357.5,-133.333 -405,-314.166c17.083,217.083 197.5,388.333 417.5,388.333c231.25,0 418.75,-188.75 418.75,-422.083c0.417,-37.5 -4.583,-73.334 -13.75,-107.917Z" style="fill:none;fill-rule:nonzero;stroke:#00354c;stroke-width:25px;"/><path id="XMLID_28_" d="M2255.42,2288.33c-70.834,-31.666 -194.167,201.667 -222.917,375c-23.75,142.084 -15.833,272.5 20.417,355.417l202.5,-730.417Z" style="fill:#fff;fill-rule:nonzero;"/><path id="XMLID_1_" d="M2255.42,2288.33c-70.834,-31.666 -194.167,201.667 -222.917,375c-23.75,142.084 -15.833,272.5 20.417,355.417l202.5,-730.417Z" style="fill:none;fill-rule:nonzero;stroke:#00354c;stroke-width:25px;"/><path id="XMLID_68_" d="M2473.75,2288.33c70.833,-31.666 194.167,201.667 222.917,375c23.75,142.084 15.833,272.5 -20.417,355.417l-202.5,-730.417Z" style="fill:#fff;fill-rule:nonzero;"/><path id="XMLID_56_" d="M2666.25,2607.5c-12.083,-72.5 -40.833,-155.833 -75,-225.417c47.5,77.5 90.417,187.917 105.833,281.25c23.75,142.084 15.834,272.5 -20.416,355.417l-21.667,-78.333c28.333,-82.917 32.5,-202.917 11.25,-332.917Z" style="fill:#d1d1d1;fill-rule:nonzero;"/><path id="XMLID_54_" d="M2473.75,2288.33c70.833,-31.666 194.167,201.667 222.917,375c23.75,142.084 15.833,272.5 -20.417,355.417l-202.5,-730.417Z" style="fill:none;fill-rule:nonzero;stroke:#00354c;stroke-width:25px;"/><path id="XMLID_18_" d="M2688.75,3050c-4.583,-69.167 -184.583,-820 -233.333,-857.5l-178.334,0c-48.75,37.5 -229.166,787.917 -233.333,857.5c-5.417,86.25 -33.75,217.5 130,217.5l385.417,0c163.333,0 135,-131.25 129.583,-217.5Z" style="fill:#fff;fill-rule:nonzero;"/><path id="XMLID_20_" d="M2063.33,2943.75c0,0 -12.916,110 48.75,150.417c48.334,32.083 90.834,45 170.417,59.583c42.917,7.917 89.583,11.25 89.583,11.25l5,98.75l-339.166,2.5c-0,0 -5.834,-138.75 2.5,-180.417c8.333,-41.25 12.5,-110.416 22.916,-142.083Z" style="fill:#d1d1d1;fill-rule:nonzero;"/><path id="XMLID_5_" d="M2672.5,2943.75c0,0 12.917,110 -48.75,150.417c-48.333,32.083 -90.833,45 -170.417,59.583c-42.916,7.917 -89.583,11.25 -89.583,11.25l-5,98.75l339.167,2.5c-0,0 5.833,-138.75 -2.5,-180.417c-8.334,-41.25 -12.5,-110.416 -22.917,-142.083Z" style="fill:#d1d1d1;fill-rule:nonzero;"/><path id="XMLID_64_" d="M2515,2343.75c-10.417,-2.917 -20.417,-4.583 -29.167,-4.583c-50.833,-0 -91.25,27.083 -91.25,89.583c0,62.917 91.25,137.5 142.084,137.5c13.75,0 26.666,-3.75 38.333,-10.417c-20.417,-76.666 -41.25,-150.833 -60,-212.083Z" style="fill:#f7bf46;fill-rule:nonzero;"/><path id="XMLID_58_" d="M2129.58,2883.75c56.25,0 102.084,-55.417 102.084,-123.75c-0,-65.417 -42.084,-119.167 -95.417,-123.333c-20.833,81.666 -40.417,162.5 -56.25,231.25c15,10 31.667,15.833 49.583,15.833Z" style="fill:#f7bf46;fill-rule:nonzero;"/><path id="XMLID_46_" d="M2264.17,2210.42c-0,-0 29.583,23.75 97.5,23.75c55,-0 103.333,-23.75 103.333,-23.75l-4.167,-16.25l-193.75,-0l-2.916,16.25Z" style="fill:#d1d1d1;fill-rule:nonzero;"/><path id="XMLID_4_" d="M2688.75,3050c-4.583,-69.167 -184.583,-820 -233.333,-857.5l-178.334,0c-48.75,37.5 -229.166,787.917 -233.333,857.5c-5.417,86.25 -33.75,217.5 130,217.5l385.417,0c163.333,0 135,-131.25 129.583,-217.5Z" style="fill:none;fill-rule:nonzero;stroke:#00354c;stroke-width:25px;"/><path id="XMLID_9_" d="M2679.17,1892.5c-7.917,-81.25 -47.917,-286.667 -92.917,-430.417c-71.667,-229.583 -155.833,-289.583 -204.583,-295.833c-5,-0.833 -15.834,-0.833 -15.834,-0.833c0,-0 -10.416,-0 -15.833,0.833c-48.75,5.833 -132.5,65.417 -204.583,295.417c-45,143.75 -84.584,349.583 -92.917,431.25c-17.917,183.333 70,284.583 184.167,299.166c32.5,4.167 96.666,4.167 129.166,4.167c32.084,0 96.25,0 129.167,-4.167c113.75,-15 202.083,-116.25 184.167,-299.583Z" style="fill:#fff;fill-rule:nonzero;"/><ellipse id="XMLID_49_" cx="2365.83" cy="1998.33" rx="78.75" ry="62.083" style="fill:#d1d1d1;"/><path id="XMLID_55_" d="M2293.75,1189.58c0,0 -37.5,141.25 -115.833,182.084c20,-45 47.083,-98.75 47.083,-98.75c0,-0 46.667,-77.084 68.75,-83.334Z" style="fill:#d1d1d1;fill-rule:nonzero;"/><path id="XMLID_53_" d="M2381.67,1166.67c-0,-0 101.666,175 186.25,242.083c-0,0 -19.167,-124.167 -37.917,-161.667c-18.75,-37.5 -110.417,-92.083 -148.333,-80.416Z" style="fill:#d1d1d1;fill-rule:nonzero;"/><path id="XMLID_15_" d="M2165.83,1838.75c163.75,-70.417 261.667,-209.167 218.334,-309.583c-30.417,-70.417 -122.084,-103.334 -230.417,-92.5c-2.5,7.916 -5.417,16.25 -7.917,25c-41.666,133.333 -78.75,319.583 -90.416,410.833c35.833,-6.667 73.333,-17.5 110.416,-33.75Z" style="fill:#f7bf46;fill-rule:nonzero;"/><path id="XMLID_14_" d="M2600.42,2029.58c-46.667,67.917 -148.75,113.75 -257.5,113.75c-100.834,0 -161.25,-59.166 -196.667,-132.916" style="fill:none;fill-rule:nonzero;stroke:#00354c;stroke-width:25px;"/><ellipse id="XMLID_7_" cx="2365.83" cy="1987.5" rx="98.75" ry="50.833" style="fill:#00354c;"/><path id="XMLID_2_" d="M2907.92,3241.25c-63.334,-59.583 -185,-89.167 -303.75,-80c-101.667,7.5 -177.084,42.083 -206.667,87.917c-5,7.916 1.25,18.333 10.833,18.333l481.25,0c18.75,0 30,-15.417 18.334,-26.25Z" style="fill:#fff;fill-rule:nonzero;"/><path id="XMLID_50_" d="M2904.58,3240.42c-1.25,0.416 -2.916,0.833 -4.583,0.833l-481.25,0c-5.833,0 -10.833,-1.25 -14.583,-3.75c-1.25,1.25 -2.917,2.5 -4.167,3.75c-11.667,10.833 -0.417,26.25 18.75,26.25l481.25,0c9.583,0 15.833,-10.833 10.833,-18.333c-2.083,-3.334 -4.166,-6.25 -6.25,-8.75Z" style="fill:#d1d1d1;fill-rule:nonzero;"/><path id="XMLID_19_" d="M2907.92,3241.25c-63.334,-59.583 -185,-89.167 -303.75,-80c-101.667,7.5 -177.084,42.083 -206.667,87.917c-5,7.916 1.25,18.333 10.833,18.333l481.25,0c18.75,0 30,-15.417 18.334,-26.25Z" style="fill:none;fill-rule:nonzero;stroke:#00354c;stroke-width:25px;"/><path id="XMLID_8_" d="M2647.5,3220.83l0,45.834" style="fill:none;fill-rule:nonzero;stroke:#00354c;stroke-width:25px;"/><path id="XMLID_25_" d="M1837.5,3241.25c63.333,-59.583 185,-89.167 303.75,-80c101.667,7.5 177.083,42.083 206.667,87.917c5,7.916 -1.25,18.333 -10.834,18.333l-481.25,0c-18.75,0 -30,-15.417 -18.333,-26.25Z" style="fill:#fff;fill-rule:nonzero;"/><path id="XMLID_67_" d="M2342.08,3240.42c-1.25,0.416 -2.916,0.833 -4.583,0.833l-481.25,0c-5.833,0 -10.833,-1.25 -14.583,-3.75c-1.25,1.25 -2.917,2.5 -4.167,3.75c-11.667,10.833 -0.417,26.25 18.75,26.25l481.25,0c9.583,0 15.833,-10.833 10.833,-18.333c-2.083,-3.334 -4.166,-6.25 -6.25,-8.75Z" style="fill:#d1d1d1;fill-rule:nonzero;"/><path id="XMLID_24_" d="M1837.5,3241.25c63.333,-59.583 185,-89.167 303.75,-80c101.667,7.5 177.083,42.083 206.667,87.917c5,7.916 -1.25,18.333 -10.834,18.333l-481.25,0c-18.75,0 -30,-15.417 -18.333,-26.25Z" style="fill:none;fill-rule:nonzero;stroke:#00354c;stroke-width:25px;"/><path id="XMLID_13_" d="M2679.17,1892.5c-7.917,-81.25 -47.917,-286.667 -92.917,-430.417c-71.667,-229.583 -155.833,-289.583 -204.583,-295.833c-5,-0.833 -15.834,-0.833 -15.834,-0.833c0,-0 -10.416,-0 -15.833,0.833c-48.75,5.833 -132.5,65.417 -204.583,295.417c-45,143.75 -84.584,349.583 -92.917,431.25c-17.917,183.333 70,284.583 184.167,299.166c32.5,4.167 96.666,4.167 129.166,4.167c32.084,0 96.25,0 129.167,-4.167c113.75,-15 202.083,-116.25 184.167,-299.583Z" style="fill:none;fill-rule:nonzero;stroke:#00354c;stroke-width:25px;"/><path id="XMLID_29_" d="M2374.17,1164.58c-0,0 145.416,-30.833 185.416,-12.083c41.25,19.167 115.834,165.417 85,222.5c-47.083,87.5 -185.416,-229.167 -270.416,-210.417Z" style="fill:#fff;fill-rule:nonzero;"/><path id="XMLID_11_" d="M2374.17,1164.58c-0,0 145.416,-30.833 185.416,-12.083c41.25,19.167 115.834,165.417 85,222.5c-47.083,87.5 -185.416,-229.167 -270.416,-210.417Z" style="fill:none;fill-rule:nonzero;stroke:#00354c;stroke-width:25px;"/><path id="XMLID_27_" d="M2101.25,1190.83l201.25,-5.833c0,0 -186.667,200.833 -272.917,244.167c-86.25,43.333 2.084,-238.75 71.667,-238.334Z" style="fill:#fff;fill-rule:nonzero;"/><path id="XMLID_12_" d="M2101.25,1190.83l201.25,-5.833c0,0 -186.667,200.833 -272.917,244.167c-86.25,43.333 2.084,-238.75 71.667,-238.334Z" style="fill:none;fill-rule:nonzero;stroke:#00354c;stroke-width:25px;"/><ellipse id="XMLID_3_" cx="2286.25" cy="1614.58" rx="20.833" ry="27.083" style="fill:#00354c;"/><ellipse id="XMLID_6_" cx="2462.08" cy="1614.58" rx="20.833" ry="27.083" style="fill:#00354c;"/><path id="XMLID_57_" d="M1634.58,3267.5l1444.58,0" style="fill:none;fill-rule:nonzero;stroke:#00354c;stroke-width:25px;"/><path id="XMLID_128_" d="M2784.17,1445.83c-0,23.334 -5.834,37.084 -29.167,37.084c-23.333,-0 -42.083,-8.75 -42.083,-32.084c-0,-23.333 18.75,-42.083 42.083,-42.083c23.333,0 29.167,13.75 29.167,37.083Z" style="fill:#f7bf46;fill-rule:nonzero;"/></g><path id="XMLID_21_" d="M3353.33,783.333c6.25,-7.5 10,-17.916 8.75,-29.166c-2.083,-17.5 -25.833,-26.25 -35.833,-28.334c-13.333,-2.5 -41.25,9.584 -41.25,32.5c0,5.417 -4.167,10 -9.583,10l-189.584,0c-5.416,0 -9.583,-4.583 -9.583,-9.583c0,-5 -0.833,-10.417 -3.333,-15.833c-5.417,-12.5 -19.167,-14.167 -31.25,-15.417c-20.834,-2.5 -42.917,7.917 -42.917,30.833c0,9.584 3.333,17.917 9.167,24.584c3.75,4.583 3.75,11.25 -0,15.833c-6.25,7.5 -10,17.917 -8.75,29.167c2.083,17.5 18.75,25 34.583,26.666c20.833,2.5 42.5,-8.333 42.5,-30.833c0,-5.417 4.167,-10 9.583,-10l189.584,0c5.416,0 9.583,4.583 9.583,9.583c0,5 0.833,10.417 3.333,15.834c5.417,12.5 25,15.416 32.5,17.083c13.334,2.5 41.25,-9.583 41.25,-32.5c0,-9.583 -3.333,-17.917 -9.166,-24.583c-3.334,-4.584 -3.334,-11.25 0.416,-15.834Z" style="fill:#f6f6f4;fill-rule:nonzero;"/></svg>