<?xml version="1.0" encoding="UTF-8" standalone="no"?>
<!DOCTYPE svg PUBLIC "-//W3C//DTD SVG 1.1//EN" "http://www.w3.org/Graphics/SVG/1.1/DTD/svg11.dtd">
<svg width="100%" height="100%" viewBox="0 0 1280 1024" version="1.1" xmlns="http://www.w3.org/2000/svg" xmlns:xlink="http://www.w3.org/1999/xlink" xml:space="preserve" xmlns:serif="http://www.serif.com/" style="fill-rule:evenodd;clip-rule:evenodd;stroke-linecap:round;stroke-linejoin:round;stroke-miterlimit:10;">
    <g id="XMLID_184_" transform="matrix(1,0,0,1,153.289,153.289)">
        <path d="M762.5,60.5L762.5,111C762.5,119.3 755.8,126 747.5,126C739.2,126 732.5,119.3 732.5,111L732.5,43C732.5,34.7 725.8,28 717.5,28C709.2,28 702.5,34.7 702.5,43L702.5,111C702.5,119.3 695.8,126 687.5,126C679.2,126 672.5,119.3 672.5,111L672.5,88C672.5,79.7 665.8,73 657.5,73C649.2,73 642.5,79.7 642.5,88L642.5,349.2L792.5,349.2L792.5,60.5C792.5,52.2 785.8,45.5 777.5,45.5C769.3,45.5 762.5,52.2 762.5,60.5Z" style="fill:rgb(237,95,24);fill-rule:nonzero;"/>
    </g>
    <g id="XMLID_161_" transform="matrix(1,0,0,1,153.289,153.289)">
        <path d="M762.5,72.5L762.5,123C762.5,131.3 755.8,138 747.5,138C739.2,138 732.5,131.3 732.5,123L732.5,55C732.5,46.7 725.8,40 717.5,40C709.2,40 702.5,46.7 702.5,55L702.5,123C702.5,131.3 695.8,138 687.5,138C679.2,138 672.5,131.3 672.5,123L672.5,100C672.5,91.7 665.8,85 657.5,85C649.2,85 642.5,91.7 642.5,100L642.5,361.2L792.5,361.2L792.5,72.5C792.5,64.2 785.8,57.5 777.5,57.5C769.3,57.5 762.5,64.2 762.5,72.5Z" style="fill:rgb(239,37,49);fill-rule:nonzero;"/>
    </g>
    <g id="XMLID_176_" transform="matrix(1,0,0,1,153.289,153.289)">
        <path d="M762.5,168.3L762.5,239.4C762.5,247.7 755.8,254.4 747.5,254.4C739.2,254.4 732.5,247.7 732.5,239.4L732.5,202.6C732.5,194.3 725.8,187.6 717.5,187.6C709.2,187.6 702.5,194.3 702.5,202.6L702.5,239.4C702.5,247.7 695.8,254.4 687.5,254.4C679.2,254.4 672.5,247.7 672.5,239.4L672.5,188.9C672.5,180.6 665.8,173.9 657.5,173.9C649.2,173.9 642.5,180.6 642.5,188.9L642.5,352.9L792.5,352.9L792.5,168.3C792.5,160 785.8,153.3 777.5,153.3C769.3,153.3 762.5,160 762.5,168.3Z" style="fill:rgb(204,37,61);fill-rule:nonzero;"/>
    </g>
    <g id="XMLID_155_" transform="matrix(1,0,0,1,153.289,153.289)">
        <path d="M762.5,72.5L762.5,123C762.5,131.3 755.8,138 747.5,138C739.2,138 732.5,131.3 732.5,123L732.5,55C732.5,46.7 725.8,40 717.5,40C709.2,40 702.5,46.7 702.5,55L702.5,123C702.5,131.3 695.8,138 687.5,138C679.2,138 672.5,131.3 672.5,123L672.5,100C672.5,91.7 665.8,85 657.5,85C649.2,85 642.5,91.7 642.5,100L642.5,361.2L792.5,361.2L792.5,72.5C792.5,64.2 785.8,57.5 777.5,57.5C769.3,57.5 762.5,64.2 762.5,72.5Z" style="fill:none;fill-rule:nonzero;stroke:rgb(63,37,34);stroke-width:6px;"/>
    </g>
    <g id="XMLID_150_" transform="matrix(1,0,0,1,153.289,153.289)">
        <path d="M762.5,181.3L762.5,252.4C762.5,260.7 755.8,267.4 747.5,267.4C739.2,267.4 732.5,260.7 732.5,252.4L732.5,215.6C732.5,207.3 725.8,200.6 717.5,200.6C709.2,200.6 702.5,207.3 702.5,215.6L702.5,252.4C702.5,260.7 695.8,267.4 687.5,267.4C679.2,267.4 672.5,260.7 672.5,252.4L672.5,201.9C672.5,193.6 665.8,186.9 657.5,186.9C649.2,186.9 642.5,193.6 642.5,201.9L642.5,365.9L792.5,365.9L792.5,181.3C792.5,173 785.8,166.3 777.5,166.3C769.3,166.3 762.5,173 762.5,181.3Z" style="fill:rgb(56,190,179);fill-rule:nonzero;"/>
    </g>
    <g id="XMLID_162_" transform="matrix(1,0,0,1,153.289,153.289)">
        <rect x="642.5" y="325" width="150" height="36.2" style="fill:rgb(2,96,96);fill-opacity:0.14;"/>
    </g>
    <g id="XMLID_160_" transform="matrix(1,0,0,1,153.289,153.289)">
        <path d="M762.5,181.3L762.5,252.4C762.5,260.7 755.8,267.4 747.5,267.4C739.2,267.4 732.5,260.7 732.5,252.4L732.5,215.6C732.5,207.3 725.8,200.6 717.5,200.6C709.2,200.6 702.5,207.3 702.5,215.6L702.5,252.4C702.5,260.7 695.8,267.4 687.5,267.4C679.2,267.4 672.5,260.7 672.5,252.4L672.5,201.9C672.5,193.6 665.8,186.9 657.5,186.9C649.2,186.9 642.5,193.6 642.5,201.9L642.5,365.9L792.5,365.9L792.5,181.3C792.5,173 785.8,166.3 777.5,166.3C769.3,166.3 762.5,173 762.5,181.3Z" style="fill:none;fill-rule:nonzero;stroke:rgb(63,37,34);stroke-width:6px;"/>
    </g>
    <g id="XMLID_51_" transform="matrix(1,0,0,1,153.289,153.289)">
        <path d="M715.2,514.4L715.2,492.7C715.2,478.2 727,466.4 741.5,466.4L818.9,466.4C833.4,466.4 845.2,454.6 845.2,440.1L845.2,417.4C845.2,402.9 833.4,391.1 818.9,391.1L795.2,391.1" style="fill:none;fill-rule:nonzero;stroke:rgb(63,37,34);stroke-width:8px;"/>
    </g>
    <g id="XMLID_79_" transform="matrix(1,0,0,1,153.289,153.289)">
        <path d="M564.4,382.1L536.2,331C535.3,329.3 532.9,329.3 532,331L503.9,382L503.9,391.2L564.4,391.2L564.4,382.1Z" style="fill:rgb(241,228,229);fill-rule:nonzero;"/>
    </g>
    <g id="XMLID_102_" transform="matrix(1,0,0,1,153.289,153.289)">
        <path d="M536.3,331.1C535.4,329.4 533,329.4 532.1,331.1L529,336.8L555.2,384.3L555.2,391.2L564.5,391.2L564.5,382.1L536.3,331.1Z" style="fill:rgb(221,212,213);fill-rule:nonzero;"/>
    </g>
    <g id="XMLID_27_" transform="matrix(1,0,0,1,153.289,153.289)">
        <path d="M564.4,382.1L536.2,331C535.3,329.3 532.9,329.3 532,331L503.9,382L503.9,391.2L564.4,391.2L564.4,382.1Z" style="fill:none;fill-rule:nonzero;stroke:rgb(63,37,34);stroke-width:6px;"/>
    </g>
    <g id="XMLID_50_" transform="matrix(1,0,0,1,153.289,153.289)">
        <path d="M545,346.9L536.3,331.1C535.4,329.4 533,329.4 532.1,331.1L523.4,346.9L545,346.9Z" style="fill:none;fill-rule:nonzero;stroke:rgb(63,37,34);stroke-width:6px;"/>
    </g>
    <g id="XMLID_80_" transform="matrix(1,0,0,1,153.289,153.289)">
        <path d="M545,346.9L536.3,331.1C535.4,329.4 533,329.4 532.1,331.1L523.4,346.9L545,346.9Z" style="fill:rgb(63,37,34);fill-rule:nonzero;"/>
    </g>
    <g id="XMLID_16_" transform="matrix(1,0,0,1,153.289,153.289)">
        <path d="M292.3,642.2C276.1,642.2 262.4,628.8 261.8,611.7L256.3,470.2L328.3,470.2L322.8,611.7C322.2,628.8 308.5,642.2 292.3,642.2Z" style="fill:rgb(107,53,47);fill-rule:nonzero;"/>
    </g>
    <g id="XMLID_72_" transform="matrix(1,0,0,1,153.289,153.289)">
        <path d="M262.5,617.3C270.3,617.3 276.6,610.8 276.2,603L271.2,484.5C270.9,476.5 264.3,470.2 256.3,470.2L261.8,611.7C261.9,613.6 262.1,615.5 262.5,617.3Z" style="fill:rgb(163,93,88);fill-opacity:0.48;fill-rule:nonzero;"/>
    </g>
    <g id="XMLID_110_" transform="matrix(1,0,0,1,153.289,153.289)">
        <path d="M328.3,470.2C319.3,470.2 311.9,477.3 311.5,486.3L307,603.8C306.3,621 292.7,634.3 276.5,634.3C275,634.3 273.4,634.2 271.9,633.9C277.3,639 284.5,642.1 292.3,642.1C308.5,642.1 322.2,628.7 322.8,611.6L328.3,470.2Z" style="fill:rgb(96,44,41);fill-rule:nonzero;"/>
    </g>
    <g id="XMLID_127_" transform="matrix(1,0,0,1,153.289,153.289)">
        <path d="M231.5,464.5C231.6,476.1 278.6,472.8 286.3,494C293.9,514.9 253.1,532.8 240.1,586.5C233.8,612.4 236.4,636.6 242.3,638.8C249.8,641.6 255.2,602.2 280.5,598.7C296.1,596.5 308.5,607.7 323.7,626.9C346.8,656.1 348.5,670.7 354.5,669.9C362.2,668.8 372.2,608 345,587.9C328.9,576 310,584.4 299.7,571.6C289.9,559.4 297.6,541.7 299.9,535.8C301.5,531.9 312.2,512.5 329.3,499.6C335.2,495.2 339.4,495.7 343,490.9C348.5,483.5 349.8,470.6 343,461.4C333.8,448.9 314.1,449.8 305.5,457.4C297,464.9 311.6,472.7 305.5,475.4C294.9,480.1 284.9,447.2 263.7,450.2C248.6,452.4 231.4,457.4 231.5,464.5Z" style="fill:none;fill-rule:nonzero;stroke:rgb(221,121,91);stroke-width:6px;"/>
    </g>
    <g id="XMLID_126_" transform="matrix(1,0,0,1,153.289,153.289)">
        <path d="M239.2,495.8C249.4,487.7 260.4,485.1 267,489.4C267.8,489.9 271.4,492.5 272,496.6C272.7,501.8 268,506.3 263.5,510.6C258.3,515.6 250.7,523 241,533.1" style="fill:none;fill-rule:nonzero;stroke:rgb(221,121,91);stroke-width:6px;"/>
    </g>
    <g id="XMLID_125_" transform="matrix(1,0,0,1,153.289,153.289)">
        <path d="M276.5,462.5C283,469 291.7,486.6 306,486.6C319.8,486.6 322.1,460.2 328.3,462.5C330.5,463.3 335.9,467.9 336.2,470.3C336.9,475.4 332.3,479.9 327.8,483.5C327.8,483.5 314.2,493.7 299.7,509.8C293.2,517.1 281.7,534 279.8,549.8C278.7,559.1 278.6,571.6 284.5,580.5C294.2,595.3 321.1,599.1 350.5,589" style="fill:none;fill-rule:nonzero;stroke:rgb(221,121,91);stroke-width:6px;"/>
    </g>
    <g id="XMLID_95_" transform="matrix(1,0,0,1,153.289,153.289)">
        <path d="M342.3,514C333.3,510.4 315.2,527.2 312.6,545C312.3,547.3 310.6,558.8 316.9,563.3C323.7,568.2 336.4,562.7 342.9,555.3C354.5,542.2 351.2,517.5 342.3,514Z" style="fill:none;fill-rule:nonzero;stroke:rgb(221,121,91);stroke-width:6px;"/>
    </g>
    <g id="XMLID_98_" transform="matrix(1,0,0,1,153.289,153.289)">
        <path d="M253.3,586.3C252.9,585 248.1,567.3 257.2,558.3C258.4,557.1 264.4,551.8 268,557.7C270.7,562 271.3,577.2 265.8,589.3C260.8,600.4 250.7,605.1 246,608.3" style="fill:none;fill-rule:nonzero;stroke:rgb(221,121,91);stroke-width:6px;"/>
    </g>
    <g id="XMLID_103_" transform="matrix(1,0,0,1,153.289,153.289)">
        <path d="M264.3,651C260.9,637.8 265.8,622.7 275.6,616.8C281.5,613.3 287.9,613.5 287.9,613.5C294.9,613.8 299.8,617.5 302.4,619.6C302.4,619.6 317.2,631.3 316.6,655.4L316.6,656C316.5,661.6 315.4,666.2 314.4,669.3" style="fill:none;fill-rule:nonzero;stroke:rgb(221,121,91);stroke-width:6px;"/>
    </g>
    <g id="XMLID_107_" transform="matrix(1,0,0,1,153.289,153.289)">
        <path d="M286.8,648C282,642.9 281.6,636.1 284.7,632.3C287.6,628.8 292.9,628.8 296,629.7C302.1,631.5 306.6,638.4 306.7,646.9" style="fill:none;fill-rule:nonzero;stroke:rgb(221,121,91);stroke-width:6px;"/>
    </g>
    <g id="XMLID_42_" transform="matrix(1,0,0,1,153.289,153.289)">
        <path d="M328.3,470.2L256.3,470.2C257,442.9 262.7,422.3 270.6,408.5L313.9,408.5C321.9,422.3 327.6,442.8 328.3,470.2Z" style="fill:rgb(189,206,217);fill-rule:nonzero;"/>
    </g>
    <g id="XMLID_179_" transform="matrix(1,0,0,1,153.289,153.289)">
        <path d="M270.7,408.5C262.8,422.3 257.1,442.8 256.4,470.2C263.6,470.2 269.7,464.7 270.3,457.5C272.2,436.4 277.3,420.1 283.9,408.6L270.7,408.6L270.7,408.5Z" style="fill:white;fill-opacity:0.26;fill-rule:nonzero;"/>
    </g>
    <g id="XMLID_26_" transform="matrix(1,0,0,1,153.289,153.289)">
        <path d="M315.8,424.2L284.9,424.2C276.4,424.2 269.5,417.3 269.5,408.8L269.5,408.5L315.8,408.5L315.8,424.2Z" style="fill:rgb(172,193,204);fill-rule:nonzero;"/>
    </g>
    <g id="XMLID_75_" transform="matrix(1,0,0,1,153.289,153.289)">
        <path d="M314,408.5L296.9,408.5C304.8,422.3 310.5,442.8 311.2,470.2L328.3,470.2C327.6,442.8 321.9,422.3 314,408.5Z" style="fill:rgb(172,193,204);fill-rule:nonzero;"/>
    </g>
    <g id="XMLID_7_" transform="matrix(1,0,0,1,153.289,153.289)">
        <path d="M328.3,470.2L256.3,470.2C257,442.9 262.7,422.3 270.6,408.5L313.9,408.5C321.9,422.3 327.6,442.8 328.3,470.2Z" style="fill:none;fill-rule:nonzero;stroke:rgb(63,37,34);stroke-width:6px;"/>
    </g>
    <g id="XMLID_34_" transform="matrix(1,0,0,1,153.289,153.289)">
        <path d="M312.3,408.5L272.3,408.5C265.7,408.5 260.3,403.1 260.3,396.5C260.3,389.9 265.7,384.5 272.3,384.5L312.3,384.5C318.9,384.5 324.3,389.9 324.3,396.5C324.3,403.1 319,408.5 312.3,408.5Z" style="fill:rgb(189,206,217);fill-rule:nonzero;"/>
    </g>
    <g id="XMLID_142_" transform="matrix(1,0,0,1,153.289,153.289)">
        <ellipse cx="266.3" cy="396.5" rx="6.1" ry="8" style="fill:white;fill-opacity:0.26;"/>
    </g>
    <g id="XMLID_138_" transform="matrix(1,0,0,1,153.289,153.289)">
        <path d="M312.3,384.5L288.1,384.5C294.7,384.5 300.1,389.9 300.1,396.5C300.1,403.1 294.7,408.5 288.1,408.5L312.3,408.5C318.9,408.5 324.3,403.1 324.3,396.5C324.3,389.9 319,384.5 312.3,384.5Z" style="fill:rgb(172,193,204);fill-rule:nonzero;"/>
    </g>
    <g id="XMLID_8_" transform="matrix(1,0,0,1,153.289,153.289)">
        <path d="M312.3,408.5L272.3,408.5C265.7,408.5 260.3,403.1 260.3,396.5C260.3,389.9 265.7,384.5 272.3,384.5L312.3,384.5C318.9,384.5 324.3,389.9 324.3,396.5C324.3,403.1 319,408.5 312.3,408.5Z" style="fill:none;fill-rule:nonzero;stroke:rgb(63,37,34);stroke-width:6px;"/>
    </g>
    <g id="XMLID_33_" transform="matrix(1,0,0,1,153.289,153.289)">
        <path d="M314.3,315.5C319,322 326.6,328.5 328.2,340.3C328.8,344.9 328.6,349.8 327.5,354.7C323.8,370 306.5,386.2 286.1,384.2C265.2,382.2 248.4,361.8 251.1,338.4C251.8,331.7 254.6,312.6 269.8,295.5C279.1,285 289.6,279.2 297.1,276.1C300.2,274.8 303.6,277 303.7,280.4C304.2,297.9 309.3,308.7 314.3,315.5Z" style="fill:rgb(63,37,34);fill-rule:nonzero;"/>
    </g>
    <g id="XMLID_10_" transform="matrix(1,0,0,1,153.289,153.289)">
        <path d="M314.3,315.5C319,322 326.6,328.5 328.2,340.3C328.8,344.9 328.6,349.8 327.5,354.7C323.8,370 306.5,386.2 286.1,384.2C265.2,382.2 248.4,361.8 251.1,338.4C251.8,331.7 254.6,312.6 269.8,295.5C279.1,285 289.6,279.2 297.1,276.1C300.2,274.8 303.6,277 303.7,280.4C304.2,297.9 309.3,308.7 314.3,315.5Z" style="fill:none;fill-rule:nonzero;stroke:rgb(63,37,34);stroke-width:6px;"/>
    </g>
    <g id="XMLID_2_" transform="matrix(1,0,0,1,153.289,153.289)">
        <path d="M319.9,338.6L319.9,338.1C319.9,337.9 320,337.6 320,337.4C320.1,336.9 320.1,336.3 320.2,335.8C320.2,335.6 320.3,335.4 320.3,335.2C320.8,332.5 321.5,324.3 322.6,321.8C320.8,321.5 319.2,326.1 318.1,324.7C316.7,323 315.4,321.5 314.3,319.9C309.3,313.1 304.2,302.3 303.7,284.7C303.6,281.3 300.2,279.1 297.1,280.4C289.6,283.5 279.1,289.3 269.8,299.8C262.1,308.4 253.3,312.3 250.8,324.2C251.2,324.3 259.9,331.5 259.9,337L259.9,352.1C259.9,358.9 265.3,364.8 272.1,364.9C279.1,365 284.8,359.4 284.8,352.5L284.8,326.5C284.8,322.7 287.7,319.4 291.5,319.3C295.4,319.2 298.7,322.3 298.7,326.2L298.7,338.1C298.7,345 303.5,350.5 309.4,350.5C314.8,350.5 319.3,345.8 320,339.8C319.8,339.4 319.9,339 319.9,338.6Z" style="fill:rgb(48,27,25);fill-opacity:0.76;fill-rule:nonzero;"/>
    </g>
    <g id="XMLID_1_" transform="matrix(1,0,0,1,153.289,153.289)">
        <path d="M292.3,642.2C276.1,642.2 262.4,628.8 261.8,611.7L256.3,470.2L328.3,470.2L322.8,611.7C322.2,628.8 308.5,642.2 292.3,642.2Z" style="fill:none;fill-rule:nonzero;stroke:rgb(63,37,34);stroke-width:6px;"/>
    </g>
    <g id="XMLID_82_" transform="matrix(1,0,0,1,153.289,153.289)">
        <path d="M420,635.1C402.3,635.1 388,620.8 388,603.1L388,447.1L452,447.1L452,603.1C452,620.8 437.7,635.1 420,635.1Z" style="fill:rgb(56,190,179);fill-rule:nonzero;"/>
    </g>
    <g id="XMLID_92_" transform="matrix(1,0,0,1,153.289,153.289)">
        <path d="M390,615.3L390,452.7C396.6,452.7 402,458.1 402,464.7L402,603.4C402,610 396.6,615.3 390,615.3Z" style="fill:white;fill-opacity:0.23;fill-rule:nonzero;"/>
    </g>
    <g id="XMLID_109_" transform="matrix(1,0,0,1,153.289,153.289)">
        <path d="M437,447.1L437,595.3C437,613 422.7,627.3 405,627.3C402.7,627.3 400.5,627.1 398.3,626.6C404,631.9 411.6,635.1 420,635.1C437.7,635.1 452,620.8 452,603.1L452,447.1L437,447.1Z" style="fill:rgb(2,96,96);fill-opacity:0.32;fill-rule:nonzero;"/>
    </g>
    <g id="XMLID_9_" transform="matrix(1,0,0,1,153.289,153.289)">
        <path d="M420,635.1C402.3,635.1 388,620.8 388,603.1L388,447.1L452,447.1L452,603.1C452,620.8 437.7,635.1 420,635.1Z" style="fill:none;fill-rule:nonzero;stroke:rgb(63,37,34);stroke-width:6px;"/>
    </g>
    <g id="XMLID_29_" transform="matrix(1,0,0,1,153.289,153.289)">
        <path d="M436,377.1L436,347.5L404,347.5L404,377.1C404,385.9 396.8,393.1 388,393.1L388,447.1L452,447.1L452,393.1C443.2,393.1 436,385.9 436,377.1Z" style="fill:rgb(155,199,188);fill-rule:nonzero;"/>
    </g>
    <g id="XMLID_93_" transform="matrix(1,0,0,1,153.289,153.289)">
        <path d="M391,443.7L390.3,443.7L390.3,396.5C396.6,396.5 401.6,401.6 401.6,407.8L401.6,433C401.7,438.9 396.9,443.7 391,443.7Z" style="fill:white;fill-opacity:0.26;fill-rule:nonzero;"/>
    </g>
    <g id="XMLID_100_" transform="matrix(1,0,0,1,153.289,153.289)">
        <path d="M436,377.1L436,347.5C428.3,347.5 422,353.8 422,361.5L422,377.1C422,388.6 428.5,398.6 438,403.6L438,433.1C438,440.8 444.3,447.1 452,447.1L452,393.1C443.2,393.1 436,385.9 436,377.1Z" style="fill:rgb(114,165,150);fill-opacity:0.47;fill-rule:nonzero;"/>
    </g>
    <g id="XMLID_83_" transform="matrix(1,0,0,1,153.289,153.289)">
        <path d="M436,377.1L436,347.5L404,347.5L404,377.8C404,386.3 397.1,393.1 388.7,393.1L388,393.1L388,447.1L452,447.1L452,393.1C443.2,393.1 436,385.9 436,377.1Z" style="fill:none;fill-rule:nonzero;stroke:rgb(63,37,34);stroke-width:6px;"/>
    </g>
    <g id="XMLID_86_" transform="matrix(1,0,0,1,153.289,153.289)">
        <path d="M408,302.9L408,347.6L432,347.6L432,314C423.9,312.2 416.8,307.8 411.7,301.6C410.5,300 408,300.9 408,302.9Z" style="fill:rgb(148,175,74);fill-rule:nonzero;"/>
    </g>
    <g id="XMLID_30_" transform="matrix(1,0,0,1,153.289,153.289)">
        <path d="M408,303.7L408,347.5L432,347.5L432,313.9C424.2,312.2 417.3,307.9 412.2,302.1C410.8,300.4 408,301.4 408,303.7Z" style="fill:none;fill-rule:nonzero;stroke:rgb(63,37,34);stroke-width:6px;"/>
    </g>
    <g id="XMLID_81_" transform="matrix(1,0,0,1,153.289,153.289)">
        <path d="M552.2,636.2L516.2,636.2C509.6,636.2 504.2,630.8 504.2,624.2L504.2,608.7L564.2,608.7L564.2,624.2C564.2,630.8 558.8,636.2 552.2,636.2Z" style="fill:rgb(236,39,49);fill-rule:nonzero;"/>
    </g>
    <g id="XMLID_94_" transform="matrix(1,0,0,1,153.289,153.289)">
        <path d="M555,618.8L555,623.5C555,626.4 552.6,628.8 549.7,628.8L524.1,628.8C520,628.8 516.6,632.1 516.6,636.3L552.1,636.3C558.7,636.3 564.1,630.9 564.1,624.3L564.1,610L563.7,610C558.9,610 555,613.9 555,618.8Z" style="fill:rgb(211,17,46);fill-rule:nonzero;"/>
    </g>
    <g id="XMLID_69_" transform="matrix(1,0,0,1,153.289,153.289)">
        <path d="M511.1,630.8C508.9,630.8 507.2,629 507.2,626.9L507.2,611.6L511.1,611.6C513.3,611.6 515,613.4 515,615.5L515,626.9C515,629 513.2,630.8 511.1,630.8Z" style="fill:rgb(255,164,173);fill-opacity:0.51;fill-rule:nonzero;"/>
    </g>
    <g id="XMLID_25_" transform="matrix(1,0,0,1,153.289,153.289)">
        <path d="M552.2,636.2L516.2,636.2C509.6,636.2 504.2,630.8 504.2,624.2L504.2,608.7L564.2,608.7L564.2,624.2C564.2,630.8 558.8,636.2 552.2,636.2Z" style="fill:none;fill-rule:nonzero;stroke:rgb(63,37,34);stroke-width:6px;"/>
    </g>
    <g id="XMLID_70_" transform="matrix(1,0,0,1,153.289,153.289)">
        <path d="M566.2,608.7L546.2,608.7L546.2,387.7C546.2,382.2 550.7,377.7 556.2,377.7C561.7,377.7 566.2,382.2 566.2,387.7L566.2,608.7Z" style="fill:rgb(72,99,59);fill-rule:nonzero;"/>
    </g>
    <g id="XMLID_23_" transform="matrix(1,0,0,1,153.289,153.289)">
        <path d="M566.2,608.7L546.2,608.7L546.2,387.7C546.2,382.2 550.7,377.7 556.2,377.7C561.7,377.7 566.2,382.2 566.2,387.7L566.2,608.7Z" style="fill:none;fill-rule:nonzero;stroke:rgb(63,37,34);stroke-width:6px;"/>
    </g>
    <g id="XMLID_78_" transform="matrix(1,0,0,1,153.289,153.289)">
        <path d="M522.2,608.7L502.2,608.7L502.2,387.7C502.2,382.2 506.7,377.7 512.2,377.7C517.7,377.7 522.2,382.2 522.2,387.7L522.2,608.7Z" style="fill:rgb(148,175,74);fill-rule:nonzero;"/>
    </g>
    <g id="XMLID_96_" transform="matrix(1,0,0,1,153.289,153.289)">
        <path d="M506.9,604.2C504.6,604.2 502.7,602.3 502.7,600L502.7,386.5C502.7,384.2 504.6,382.3 506.9,382.3C509.2,382.3 511.1,384.2 511.1,386.5L511.1,600C511.1,602.3 509.2,604.2 506.9,604.2Z" style="fill:rgb(191,188,71);fill-rule:nonzero;"/>
    </g>
    <g id="XMLID_32_" transform="matrix(1,0,0,1,153.289,153.289)">
        <path d="M522.2,608.7L502.2,608.7L502.2,387.7C502.2,382.2 506.7,377.7 512.2,377.7C517.7,377.7 522.2,382.2 522.2,387.7L522.2,608.7Z" style="fill:none;fill-rule:nonzero;stroke:rgb(63,37,34);stroke-width:6px;"/>
    </g>
    <g id="XMLID_77_" transform="matrix(1,0,0,1,153.289,153.289)">
        <path d="M546.2,608.7L522.2,608.7L522.2,389.7C522.2,383.1 527.6,377.7 534.2,377.7C540.8,377.7 546.2,383.1 546.2,389.7L546.2,608.7Z" style="fill:rgb(77,147,88);fill-rule:nonzero;"/>
    </g>
    <g id="XMLID_38_" transform="matrix(1,0,0,1,153.289,153.289)">
        <path d="M546.2,608.7L522.2,608.7L522.2,389.7C522.2,383.1 527.6,377.7 534.2,377.7C540.8,377.7 546.2,383.1 546.2,389.7L546.2,608.7Z" style="fill:none;fill-rule:nonzero;stroke:rgb(63,37,34);stroke-width:6px;"/>
    </g>
    <g id="XMLID_87_" transform="matrix(1,0,0,1,153.289,153.289)">
        <path d="M788.3,431.2L645.9,431.2C635.2,431.2 626.6,422.5 626.6,411.9L626.6,370.6C626.6,359.9 635.3,351.3 645.9,351.3L788.2,351.3C798.9,351.3 807.5,360 807.5,370.6L807.5,411.9C807.6,422.5 798.9,431.2 788.3,431.2Z" style="fill:rgb(56,190,179);fill-rule:nonzero;"/>
    </g>
    <g id="XMLID_185_" transform="matrix(1,0,0,1,153.289,153.289)">
        <path d="M634.8,416C631.6,416 629,413.4 629,410.2L629,372.2C629,369 631.6,366.4 634.8,366.4C638,366.4 640.6,369 640.6,372.2L640.6,410.2C640.7,413.4 638.1,416 634.8,416Z" style="fill:white;fill-opacity:0.23;fill-rule:nonzero;"/>
    </g>
    <g id="XMLID_73_" transform="matrix(1,0,0,1,153.289,153.289)">
        <path d="M780.8,412.4L653.3,412.4C649.9,412.4 647.1,409.6 647.1,406.2C647.1,402.8 649.9,400 653.3,400L780.8,400C784.2,400 787,402.8 787,406.2C787,409.6 784.2,412.4 780.8,412.4Z" style="fill:rgb(2,96,96);fill-opacity:0.05;fill-rule:nonzero;"/>
    </g>
    <g id="XMLID_113_" transform="matrix(1,0,0,1,153.289,153.289)">
        <path d="M783.9,394.3L650.3,394.3C648.6,394.3 647.2,392.9 647.2,391.2C647.2,389.5 648.6,388.1 650.3,388.1L784,388.1C785.7,388.1 787.1,389.5 787.1,391.2C787,393 785.6,394.3 783.9,394.3Z" style="fill:rgb(2,96,96);fill-opacity:0.05;fill-rule:nonzero;"/>
    </g>
    <g id="XMLID_153_" transform="matrix(1,0,0,1,153.289,153.289)">
        <path d="M788.3,351.2L787.2,351.2C788.5,353.8 789.3,356.7 789.3,359.9L789.3,406C789.3,414 782.8,420.6 774.7,420.6L651.3,420.6C645.4,420.6 640.6,425.4 640.6,431.3L788.2,431.3C798.9,431.3 807.5,422.6 807.5,412L807.5,370.7C807.6,359.8 798.9,351.2 788.3,351.2Z" style="fill:rgb(2,96,96);fill-opacity:0.14;fill-rule:nonzero;"/>
    </g>
    <g id="XMLID_104_" transform="matrix(1,0,0,1,153.289,153.289)">
        <path d="M795.6,364L638.6,364C635.7,364 633.4,361.7 633.4,358.8C633.4,355.9 635.7,353.6 638.6,353.6L795.6,353.6C798.5,353.6 800.8,355.9 800.8,358.8C800.8,361.7 798.5,364 795.6,364Z" style="fill:rgb(146,211,209);fill-opacity:0.15;fill-rule:nonzero;"/>
    </g>
    <g id="XMLID_31_" transform="matrix(1,0,0,1,153.289,153.289)">
        <path d="M788.3,431.2L645.9,431.2C635.2,431.2 626.6,422.5 626.6,411.9L626.6,370.6C626.6,359.9 635.3,351.3 645.9,351.3L788.2,351.3C798.9,351.3 807.5,360 807.5,370.6L807.5,411.9C807.6,422.5 798.9,431.2 788.3,431.2Z" style="fill:none;fill-rule:nonzero;stroke:rgb(63,37,34);stroke-width:6px;"/>
    </g>
    <g id="XMLID_43_" transform="matrix(1,0,0,1,153.289,153.289)">
        <path d="M715.2,630.3C703.5,630.3 693.9,620.8 693.9,609L693.9,540.6C693.9,528.9 703.4,519.3 715.2,519.3C726.9,519.3 736.5,528.8 736.5,540.6L736.5,609C736.4,620.8 726.9,630.3 715.2,630.3Z" style="fill:rgb(171,86,71);fill-rule:nonzero;"/>
    </g>
    <g id="XMLID_28_" transform="matrix(1,0,0,1,153.289,153.289)">
        <path d="M700.8,617.5C697.8,617.5 695.4,615.1 695.4,612.1L695.4,535.4C695.4,532.4 697.8,530 700.8,530C703.8,530 706.2,532.4 706.2,535.4L706.2,612.1C706.2,615.1 703.8,617.5 700.8,617.5Z" style="fill:rgb(255,187,166);fill-opacity:0.21;fill-rule:nonzero;"/>
    </g>
    <g id="XMLID_91_" transform="matrix(1,0,0,1,153.289,153.289)">
        <path d="M720.6,520.1C723.6,523.8 725.5,528.5 725.5,533.6L725.5,602C725.5,613.7 716,623.3 704.2,623.3C702.3,623.3 700.5,623 698.8,622.6C702.7,627.3 708.6,630.3 715.2,630.3C726.9,630.3 736.5,620.8 736.5,609L736.5,540.6C736.4,530.8 729.7,522.5 720.6,520.1Z" style="fill:rgb(155,79,69);fill-rule:nonzero;"/>
    </g>
    <g id="XMLID_88_" transform="matrix(1,0,0,1,153.289,153.289)">
        <path d="M715.2,630.3C703.5,630.3 693.9,620.8 693.9,609L693.9,540.6C693.9,528.9 703.4,519.3 715.2,519.3C726.9,519.3 736.5,528.8 736.5,540.6L736.5,609C736.4,620.8 726.9,630.3 715.2,630.3Z" style="fill:none;fill-rule:nonzero;stroke:rgb(63,37,34);stroke-width:6px;"/>
    </g>
    <g id="XMLID_89_" transform="matrix(1,0,0,1,153.289,153.289)">
        <path d="M727.3,524.4L703,524.4C698,524.4 693.9,520.3 693.9,515.3C693.9,510.3 698,506.2 703,506.2L727.3,506.2C732.3,506.2 736.4,510.3 736.4,515.3C736.4,520.3 732.3,524.4 727.3,524.4Z" style="fill:rgb(155,79,69);fill-rule:nonzero;"/>
    </g>
    <g id="XMLID_156_" transform="matrix(1,0,0,1,153.289,153.289)">
        <circle cx="700.1" cy="515.2" r="6.2" style="fill:rgb(255,187,166);fill-opacity:0.21;"/>
    </g>
    <g id="XMLID_166_" transform="matrix(1,0,0,1,153.289,153.289)">
        <path d="M727.3,506.1L713,506.1C718,506.1 722.1,510.2 722.1,515.2C722.1,520.2 718,524.3 713,524.3L727.3,524.3C732.3,524.3 736.4,520.2 736.4,515.2C736.4,510.2 732.3,506.1 727.3,506.1Z" style="fill:rgb(140,68,62);fill-rule:nonzero;"/>
    </g>
    <g id="XMLID_45_" transform="matrix(1,0,0,1,153.289,153.289)">
        <path d="M727.3,524.4L703,524.4C698,524.4 693.9,520.3 693.9,515.3C693.9,510.3 698,506.2 703,506.2L727.3,506.2C732.3,506.2 736.4,510.3 736.4,515.3C736.4,520.3 732.3,524.4 727.3,524.4Z" style="fill:none;fill-rule:nonzero;stroke:rgb(63,37,34);stroke-width:6px;"/>
    </g>
    <g id="XMLID_76_" transform="matrix(1,0,0,1,153.289,153.289)">
        <path d="M626.6,406.2L625.4,406.2C621.6,406.2 618.6,403.1 618.6,399.4L618.6,383C618.6,379.2 621.7,376.2 625.4,376.2L626.6,376.2L626.6,406.2Z" style="fill:none;fill-rule:nonzero;stroke:rgb(63,37,34);stroke-width:6px;"/>
    </g>
    <g id="XMLID_68_" transform="matrix(1,0,0,1,153.289,153.289)">
        <path d="M626.6,406.2L625.4,406.2C621.6,406.2 618.6,403.1 618.6,399.4L618.6,383C618.6,379.2 621.7,376.2 625.4,376.2L626.6,376.2L626.6,406.2Z" style="fill:rgb(63,37,34);fill-rule:nonzero;"/>
    </g>
    <g id="XMLID_90_" transform="matrix(1,0,0,1,153.289,153.289)">
        <path d="M807.6,406.2L808.8,406.2C812.6,406.2 815.6,403.1 815.6,399.4L815.6,383C815.6,379.2 812.5,376.2 808.8,376.2L807.6,376.2L807.6,406.2Z" style="fill:none;fill-rule:nonzero;stroke:rgb(63,37,34);stroke-width:6px;"/>
    </g>
    <g id="XMLID_74_" transform="matrix(1,0,0,1,153.289,153.289)">
        <path d="M807.6,406.2L808.8,406.2C812.6,406.2 815.6,403.1 815.6,399.4L815.6,383C815.6,379.2 812.5,376.2 808.8,376.2L807.6,376.2L807.6,406.2Z" style="fill:rgb(63,37,34);fill-rule:nonzero;"/>
    </g>
    <g id="XMLID_56_" transform="matrix(1,0,0,1,153.289,153.289)">
        <path d="M319.9,322.5C317.9,320 315.9,317.7 314.3,315.4C309.3,308.6 304.2,297.9 303.7,280.2C303.6,276.8 300.2,274.6 297,275.9C289.5,279 279,284.8 269.7,295.3C262,303.9 257.5,313 254.8,320.7" style="fill:none;fill-rule:nonzero;stroke:rgb(236,39,49);stroke-width:6px;"/>
    </g>
    <g id="XMLID_71_" transform="matrix(1,0,0,1,153.289,153.289)">
        <path d="M319.9,334.1L319.9,333.6C319.9,333.4 320,333.1 320,332.9C320.1,332.4 320.1,331.8 320.2,331.3C320.2,331.1 320.3,330.9 320.3,330.7C320.8,328 321.5,325.3 322.6,322.8C320.8,322.5 319.2,321.6 318.1,320.2C316.7,318.5 315.4,317 314.3,315.4C309.3,308.6 304.2,297.8 303.7,280.2C303.6,276.8 300.2,274.6 297.1,275.9C289.6,279 279.1,284.8 269.8,295.3C262.1,303.9 256.6,315.8 253.9,323.6C254.3,323.7 259.8,327 259.8,332.5L259.8,347.6C259.8,354.4 265.2,360.3 272,360.4C279,360.5 284.7,354.9 284.7,348L284.7,322C284.7,318.2 287.6,314.9 291.4,314.8C295.3,314.7 298.6,317.8 298.6,321.7L298.6,333.6C298.6,340.5 303.4,346 309.3,346C314.7,346 319.2,341.3 319.9,335.3C319.8,335 319.9,334.6 319.9,334.1Z" style="fill:rgb(236,39,49);fill-rule:nonzero;"/>
    </g>
    <g id="XMLID_135_" transform="matrix(1,0,0,1,153.289,153.289)">
        <path d="M408,578.8L408,594.7" style="fill:none;fill-rule:nonzero;stroke:white;stroke-opacity:0.4;stroke-width:6px;"/>
    </g>
    <g id="XMLID_118_" transform="matrix(1,0,0,1,153.289,153.289)">
        <path d="M408,462.4L408,565.2" style="fill:none;fill-rule:nonzero;stroke:white;stroke-opacity:0.4;stroke-width:6px;"/>
    </g>
    <g id="XMLID_111_" transform="matrix(1,0,0,1,153.289,153.289)">
        <path d="M717.7,177.8L706.9,161.8C701.2,153.4 706.5,141.6 716.7,140.9L718.7,140.9C728.8,141.6 734.1,153.3 728.5,161.8L717.7,177.8Z" style="fill:rgb(204,37,61);fill-rule:nonzero;"/>
    </g>
    <g id="XMLID_170_" transform="matrix(1,0,0,1,153.289,153.289)">
        <path d="M717.7,184.8L706.9,168.8C701.2,160.4 706.5,148.6 716.7,147.9L718.7,147.9C728.8,148.6 734.1,160.3 728.5,168.8L717.7,184.8Z" style="fill:rgb(56,190,179);fill-rule:nonzero;"/>
    </g>
    <g id="XMLID_175_" transform="matrix(1,0,0,1,153.289,153.289)">
        <path d="M717.7,184.8L706.9,168.8C701.2,160.4 706.5,148.6 716.7,147.9L718.7,147.9C728.8,148.6 734.1,160.3 728.5,168.8L717.7,184.8Z" style="fill:none;fill-rule:nonzero;stroke:rgb(63,37,34);stroke-width:6px;"/>
    </g>
    <g id="XMLID_158_" transform="matrix(1,0,0,1,153.289,153.289)">
        <path d="M652.7,371L736.4,371" style="fill:none;fill-rule:nonzero;stroke:white;stroke-opacity:0.4;stroke-width:6px;"/>
    </g>
    <g id="XMLID_163_" transform="matrix(1,0,0,1,153.289,153.289)">
        <path d="M753.5,371L765.5,371" style="fill:none;fill-rule:nonzero;stroke:white;stroke-opacity:0.4;stroke-width:6px;"/>
    </g>
    <g id="XMLID_165_" transform="matrix(1,0,0,1,153.289,153.289)">
        <circle cx="715.2" cy="606.4" r="6.7" style="fill:rgb(62,69,79);"/>
    </g>
    <g id="XMLID_164_" transform="matrix(1,0,0,1,153.289,153.289)">
        <circle cx="715.2" cy="606.4" r="6.7" style="fill:none;stroke:rgb(63,37,34);stroke-width:6px;"/>
    </g>
</svg>
