<svg width="450" height="420" viewBox="0 0 450 420" fill="none" xmlns="http://www.w3.org/2000/svg">
<path fill-rule="evenodd" clip-rule="evenodd" d="M134.457 99.041C134.457 99.041 225.129 32.3322 246.427 21.5981C293.972 -2.3658 357.218 -12.9743 400.968 25.0377C440.509 59.3881 451.167 123.254 449.902 171.092C448.717 215.809 431.375 258.798 406.781 296.664C350.435 383.435 246.056 438.002 137.826 412.987C37.2861 389.75 -40.6231 270.45 23.0917 180.722C47.247 146.707 99.7481 120.016 134.457 99.041Z" fill="white"/>
<path fill-rule="evenodd" clip-rule="evenodd" d="M134.457 99.041C134.457 99.041 225.129 32.3322 246.427 21.5981C293.972 -2.3658 357.218 -12.9743 400.968 25.0377C440.509 59.3881 451.167 123.254 449.902 171.092C448.717 215.809 431.375 258.798 406.781 296.664C350.435 383.435 246.056 438.002 137.826 412.987C37.2861 389.75 -40.6231 270.45 23.0917 180.722C47.247 146.707 99.7481 120.016 134.457 99.041Z" fill="url(#paint0_linear)"/>
<path fill-rule="evenodd" clip-rule="evenodd" d="M444.798 109.843C444.199 109.624 443.605 109.409 443.006 109.198C408.505 97.0838 369.015 100.787 337.532 119.389C233.136 181.08 205.885 369.009 45.8547 308.236C30.4072 302.372 16.0656 293.591 3.64655 282.661C18.0373 343.537 73.2691 398.069 137.826 412.993C246.051 438.005 350.435 383.438 406.784 296.666C431.371 258.8 448.72 215.81 449.902 171.093C450.397 152.237 449.046 130.891 444.798 109.843Z" fill="url(#paint1_linear)"/>
<path d="M72.6994 228.079C106.679 228.079 134.224 200.533 134.224 166.554C134.224 132.575 106.679 105.03 72.6994 105.03C38.7203 105.03 11.1748 132.575 11.1748 166.554C11.1748 200.533 38.7203 228.079 72.6994 228.079Z" fill="#333232"/>
<path d="M72.6996 220.845C99.6013 220.845 121.409 207.304 121.409 190.6C121.409 173.895 99.6013 160.354 72.6996 160.354C45.7979 160.354 23.9897 173.895 23.9897 190.6C23.9897 207.304 45.7979 220.845 72.6996 220.845Z" fill="#D1362B"/>
<path d="M70.7016 158.012C81.6601 158.012 90.5438 149.128 90.5438 138.169C90.5438 127.211 81.6601 118.327 70.7016 118.327C59.743 118.327 50.8594 127.211 50.8594 138.169C50.8594 149.128 59.743 158.012 70.7016 158.012Z" fill="#D1362B"/>
<path d="M58.8511 223.876C58.8511 223.876 56.5776 255.431 95.4352 260.323C95.4352 260.323 75.8686 236.002 89.0967 223.876H58.8511Z" fill="#333232"/>
<path d="M189.892 119.36C216.642 119.36 238.327 97.6755 238.327 70.926C238.327 44.1765 216.642 22.4917 189.892 22.4917C163.143 22.4917 141.458 44.1765 141.458 70.926C141.458 97.6755 163.143 119.36 189.892 119.36Z" fill="#333232"/>
<path d="M189.892 113.642C211.048 113.642 228.199 103 228.199 89.8728C228.199 76.7454 211.048 66.1035 189.892 66.1035C168.736 66.1035 151.586 76.7454 151.586 89.8728C151.586 103 168.736 113.642 189.892 113.642Z" fill="#D1362B"/>
<path d="M188.307 64.2433C196.945 64.2433 203.947 57.2413 203.947 48.6038C203.947 39.9664 196.945 32.9644 188.307 32.9644C179.67 32.9644 172.668 39.9664 172.668 48.6038C172.668 57.2413 179.67 64.2433 188.307 64.2433Z" fill="#D1362B"/>
<path d="M179.007 116.053C179.007 116.053 177.215 140.925 207.736 144.714C207.736 144.714 192.304 125.63 202.707 116.053H179.007Z" fill="#333232"/>
<path d="M221.929 345.686C271.737 345.686 312.115 305.308 312.115 255.5C312.115 205.692 271.737 165.314 221.929 165.314C172.121 165.314 131.744 205.692 131.744 255.5C131.744 305.308 172.121 345.686 221.929 345.686Z" fill="#333232"/>
<path d="M221.929 335.144C261.349 335.144 293.306 315.28 293.306 290.775C293.306 266.271 261.349 246.406 221.929 246.406C182.509 246.406 150.552 266.271 150.552 290.775C150.552 315.28 182.509 335.144 221.929 335.144Z" fill="#D1362B"/>
<path d="M218.966 242.961C235.024 242.961 248.041 229.944 248.041 213.886C248.041 197.829 235.024 184.812 218.966 184.812C202.909 184.812 189.892 197.829 189.892 213.886C189.892 229.944 202.909 242.961 218.966 242.961Z" fill="#D1362B"/>
<path d="M380.323 287.537C414.302 287.537 441.847 259.992 441.847 226.012C441.847 192.033 414.302 164.488 380.323 164.488C346.343 164.488 318.798 192.033 318.798 226.012C318.798 259.992 346.343 287.537 380.323 287.537Z" fill="#333232"/>
<path d="M380.323 280.303C407.224 280.303 429.032 266.761 429.032 250.057C429.032 233.353 407.224 219.812 380.323 219.812C353.421 219.812 331.613 233.353 331.613 250.057C331.613 266.761 353.421 280.303 380.323 280.303Z" fill="#D1362B"/>
<path d="M382.321 217.4C393.279 217.4 402.163 208.517 402.163 197.558C402.163 186.599 393.279 177.716 382.321 177.716C371.362 177.716 362.479 186.599 362.479 197.558C362.479 208.517 371.362 217.4 382.321 217.4Z" fill="#D1362B"/>
<path d="M372.124 282.508C372.124 282.508 365.923 313.58 327.203 307.93C327.203 307.93 352.488 289.673 342.98 274.447L372.124 282.508Z" fill="#333232"/>
<path d="M233.64 343.917C233.64 343.917 224.586 391.278 168.05 382.667C168.05 382.667 204.97 354.839 191.087 331.63L233.64 343.917Z" fill="#333232"/>
<defs>
<linearGradient id="paint0_linear" x1="470.478" y1="537.457" x2="-355.272" y2="-98.741" gradientUnits="userSpaceOnUse">
<stop stop-color="#FFDEDE" stop-opacity="0"/>
<stop offset="0.46" stop-color="#968F8F" stop-opacity="0.78"/>
<stop offset="1" stop-color="#797979"/>
</linearGradient>
<linearGradient id="paint1_linear" x1="-82.9322" y1="15.6459" x2="256.411" y2="542.363" gradientUnits="userSpaceOnUse">
<stop stop-color="white"/>
<stop offset="0.49" stop-color="white" stop-opacity="0.25"/>
<stop offset="1" stop-color="white" stop-opacity="0"/>
</linearGradient>
</defs>
</svg>
