<svg width="630" height="418" viewBox="0 0 630 418" fill="none" xmlns="http://www.w3.org/2000/svg">
<path fill-rule="evenodd" clip-rule="evenodd" d="M-22.7912 364.866C-19.9669 355.037 -13.9909 352.614 -8.46508 337.919C0.0896459 315.196 -12.7629 288.809 12.4305 272.052C36.7849 255.856 66.8902 262.382 88.277 238.118C107.126 216.716 114.166 184.343 127.776 159.578C173.947 75.5923 261.745 24.0199 361.312 46.4026C469.024 70.6273 504.102 176.295 539.61 265.906C557.989 312.293 571.23 307.308 598.797 336.658C601.54 339.581 603.771 342.964 605.551 346.528C605.961 347.349 606.37 348.149 606.759 348.97C608.642 353.095 610.361 357.399 611.384 361.823C611.445 362.044 611.527 363.245 611.609 364.887H-22.7912V364.866Z" fill="white"/>
<path fill-rule="evenodd" clip-rule="evenodd" d="M-22.7912 364.866C-19.9669 355.037 -13.9909 352.614 -8.46508 337.919C0.0896459 315.196 -12.7629 288.809 12.4305 272.052C36.7849 255.856 66.8902 262.382 88.277 238.118C107.126 216.716 114.166 184.343 127.776 159.578C173.947 75.5923 261.745 24.0199 361.312 46.4026C469.024 70.6273 504.102 176.295 539.61 265.906C557.989 312.293 571.23 307.308 598.797 336.658C601.54 339.581 603.771 342.964 605.551 346.528C605.961 347.349 606.37 348.149 606.759 348.97C608.642 353.095 610.361 357.399 611.384 361.823C611.445 362.044 611.527 363.245 611.609 364.887H-22.7912V364.866Z" fill="url(#paint0_linear)"/>
<path fill-rule="evenodd" clip-rule="evenodd" d="M43.5463 184.304C39.1542 194.169 37.7514 205.488 39.388 216.139C40.5403 223.646 43.2958 230.836 49.9591 234.966C54.9023 238.026 60.5636 238.477 66.1581 237.273C85.3464 233.177 92.4773 213.23 96.1346 195.858C97.5708 189.069 98.4058 182.147 98.7398 175.208C98.8567 172.935 98.8233 170.677 98.7398 168.403C98.6229 165.093 94.1306 160.662 94.1306 160.662C75.9276 142.471 50.6438 168.387 43.5463 184.304Z" fill="url(#paint1_linear)"/>
<path fill-rule="evenodd" clip-rule="evenodd" d="M539.62 265.898C558.007 312.296 571.233 307.297 598.805 336.657C601.56 339.583 603.765 342.96 605.552 346.522C605.952 347.324 606.37 348.143 606.754 348.963C608.641 353.093 610.361 357.39 611.38 361.804C611.43 362.021 611.514 363.225 611.614 364.863H51.9299C62.835 236.387 159.578 328.832 224.107 285.761C296.668 237.34 247.27 124.764 393.528 134.445C426.411 136.619 462.8 147.754 496.918 165.227C513.518 197.73 526.544 232.893 539.62 265.898Z" fill="url(#paint2_linear)"/>
<path fill-rule="evenodd" clip-rule="evenodd" d="M79.6341 351.708C79.6341 355 82.1856 357.673 85.3305 357.673H194.986C198.131 357.673 200.683 355 200.683 351.708V199.495C200.683 196.203 198.131 193.529 194.986 193.529H85.3305C82.1856 193.529 79.6341 196.203 79.6341 199.495V351.708Z" fill="#D1362B"/>
<path fill-rule="evenodd" clip-rule="evenodd" d="M76.8453 351.708C76.8453 355 79.3968 357.673 82.5417 357.673H192.197C195.342 357.673 197.894 355 197.894 351.708V199.495C197.894 196.203 195.342 193.529 192.197 193.529H82.5417C79.3968 193.529 76.8453 196.203 76.8453 199.495V351.708Z" fill="url(#paint3_linear)"/>
<path opacity="0.27" d="M187.411 302.214H84.9551V304.195H187.411V302.214Z" fill="#D1362B"/>
<path opacity="0.27" d="M187.411 282.809H84.9551V284.789H187.411V282.809Z" fill="#D1362B"/>
<path opacity="0.27" d="M187.411 265.58H84.9551V267.56H187.411V265.58Z" fill="#D1362B"/>
<path opacity="0.27" d="M187.411 245.975H84.9551V247.956H187.411V245.975Z" fill="#D1362B"/>
<path d="M182.273 303.997H165.424V328.355H182.273V303.997Z" fill="#FCE2DD"/>
<path d="M157.562 284.577H140.713V328.341H157.562V284.577Z" fill="#FCE2DD"/>
<path d="M132.85 247.768H116.001V328.366H132.85V247.768Z" fill="#FCE2DD"/>
<path d="M108.138 267.564H91.2896V328.359H108.138V267.564Z" fill="#FCE2DD"/>
<path fill-rule="evenodd" clip-rule="evenodd" d="M163.142 221.809C163.142 222.254 163.501 222.603 163.936 222.603H185.423C185.858 222.603 186.218 222.254 186.218 221.809V214.289C186.218 213.843 185.858 213.494 185.423 213.494H163.936C163.501 213.494 163.142 213.843 163.142 214.289V221.809Z" fill="#FCE2DD"/>
<path fill-rule="evenodd" clip-rule="evenodd" d="M124.935 220.336C124.935 221.596 125.956 222.623 127.204 222.623H145.722C146.97 222.623 147.991 221.596 147.991 220.336V215.781C147.991 214.521 146.97 213.494 145.722 213.494H127.204C125.956 213.494 124.935 214.521 124.935 215.781V220.336Z" fill="#FCE2DD"/>
<path fill-rule="evenodd" clip-rule="evenodd" d="M86.7281 220.336C86.7281 221.596 87.7495 222.623 88.9979 222.623H107.515C108.763 222.623 109.785 221.596 109.785 220.336V215.781C109.785 214.521 108.763 213.494 107.515 213.494H88.9979C87.7495 213.494 86.7281 214.521 86.7281 215.781V220.336Z" fill="#FCE2DD"/>
<path fill-rule="evenodd" clip-rule="evenodd" d="M86.9297 340.43H187.589C189.116 340.43 190.35 339.187 190.35 337.658C190.35 336.129 189.116 334.885 187.589 334.885H86.9297C85.4031 334.885 84.1688 336.129 84.1688 337.658C84.1688 339.187 85.4031 340.43 86.9297 340.43Z" fill="#FCE2DD"/>
<path fill-rule="evenodd" clip-rule="evenodd" d="M79.1331 175.467C79.1331 177.605 80.8736 179.348 83.0098 179.348H340.713C342.849 179.348 344.589 177.605 344.589 175.467V81.8191C344.589 79.6804 342.849 77.9377 340.713 77.9377H82.99C80.8539 77.9377 79.1133 79.6804 79.1133 81.8191V175.467H79.1331Z" fill="#D1362B"/>
<path fill-rule="evenodd" clip-rule="evenodd" d="M76.5026 175.467C76.5026 177.605 78.2432 179.348 80.3793 179.348H338.082C340.218 179.348 341.959 177.605 341.959 175.467V81.8191C341.959 79.6804 340.218 77.9377 338.082 77.9377H80.3793C78.2432 77.9377 76.5026 79.6804 76.5026 81.8191V175.467Z" fill="url(#paint4_linear)"/>
<path d="M310.49 129.821H289.326V158.733H310.49V129.821Z" fill="#FCE2DD"/>
<path d="M278.843 119.732H257.679V158.743H278.843V119.732Z" fill="#FCE2DD"/>
<path d="M246.999 106.848H225.835V158.731H246.999V106.848Z" fill="#FCE2DD"/>
<path d="M216.737 122.685H195.573V158.726H216.737V122.685Z" fill="#FCE2DD"/>
<path d="M186.871 96.5554H165.707V158.736H186.871V96.5554Z" fill="#FCE2DD"/>
<path fill-rule="evenodd" clip-rule="evenodd" d="M330.071 170.813H329.973V170.912H156.509V168.338H327.5V91.6018H330.071V170.813Z" fill="#FCE2DD"/>
<g opacity="0.27">
<path opacity="0.27" d="M136.048 95.9583H84.0289V101.899H136.048V95.9583Z" fill="#D1362B"/>
</g>
<g opacity="0.27">
<path opacity="0.27" d="M136.051 108.632H95.5043V114.573H136.051V108.632Z" fill="#D1362B"/>
</g>
<g opacity="0.27">
<path opacity="0.27" d="M136.049 121.306H105.985V127.247H136.049V121.306Z" fill="#D1362B"/>
</g>
<g opacity="0.27">
<path opacity="0.27" d="M136.053 133.979H95.3075V139.92H136.053V133.979Z" fill="#D1362B"/>
</g>
<g opacity="0.27">
<path opacity="0.27" d="M136.048 146.654H103.413V152.594H136.048V146.654Z" fill="#D1362B"/>
</g>
<path fill-rule="evenodd" clip-rule="evenodd" d="M470.515 374.531L521.615 334.078L554.651 376.434L470.515 374.531Z" fill="#282828"/>
<path fill-rule="evenodd" clip-rule="evenodd" d="M547.997 372.627L523.754 340.979L528.983 331.223L559.167 371.914L547.997 372.627Z" fill="#595959"/>
<path fill-rule="evenodd" clip-rule="evenodd" d="M562.423 127.054C566.155 127.054 569.292 129.814 569.791 133.502C572.025 151.801 576.803 206.032 562.732 257.931C550.35 303.572 525.275 343.144 512.013 361.753C507.283 368.249 499.749 372.104 491.715 372.104C450.312 372.104 323.062 372.128 286.008 372.152C283.513 372.152 272.033 369.653 274.742 357.945C285.652 317.564 327.173 164.128 335.706 132.55C336.585 129.314 339.532 127.054 342.884 127.054C374.518 127.054 528.816 127.054 562.423 127.054Z" fill="url(#paint5_linear)"/>
<path fill-rule="evenodd" clip-rule="evenodd" d="M562.423 127.054C564.349 127.054 566.107 127.791 567.438 129.005C567.819 129.766 567.914 130.671 567.7 131.527C559.762 160.915 515.126 326.273 504.859 364.346C504.122 367.083 502.339 369.32 500.034 370.7C497.396 371.628 494.591 372.127 491.715 372.127L284.558 372.175C281.374 372.104 278.355 370.581 276.406 368.035C274.41 365.417 273.744 362.014 274.6 358.849C286.674 314.089 325.557 170.1 335.064 134.906C336.3 130.29 340.483 127.101 345.26 127.101C381.601 127.054 529.601 127.054 562.423 127.054Z" fill="url(#paint6_linear)"/>
<g opacity="0.27">
<path opacity="0.27" fill-rule="evenodd" clip-rule="evenodd" d="M366.85 259.597H330.002L347.169 198.441H384.017L366.85 259.597Z" fill="#5F0600"/>
</g>
<g opacity="0.25">
<path opacity="0.25" fill-rule="evenodd" clip-rule="evenodd" d="M448.918 305.618C448.618 306.665 448.837 307.784 449.488 308.664C450.139 309.544 451.183 310.044 452.252 310.044C462.927 310.044 489.173 310.044 497.565 310.044C499.11 310.044 500.481 308.997 500.916 307.498C505.644 290.627 532.575 194.705 538.689 172.861C538.99 171.814 538.771 170.695 538.12 169.815C537.475 168.958 536.425 168.435 535.355 168.435C524.681 168.435 498.435 168.435 490.043 168.435C488.474 168.435 487.127 169.482 486.692 170.981C481.964 187.852 455.032 283.774 448.918 305.618Z" fill="#EE633A"/>
</g>
<path fill-rule="evenodd" clip-rule="evenodd" d="M488.721 299.573C489.743 300.835 490.741 302.12 491.763 303.381H471.798C468.328 297.337 463.337 292.387 458.608 287.319C458.536 287.247 458.441 287.152 458.322 287.033L463.765 267.616C471.917 278.419 480.26 289.032 488.721 299.573ZM496.231 281.489C497.562 283.178 498.87 284.868 500.177 286.581L498.632 292.054C498.157 291.245 497.681 290.412 497.206 289.603C489.077 275.944 478.834 263.999 468.043 252.41L469.279 247.96C478.311 259.097 487.366 270.209 496.231 281.489ZM485.108 212.718C494.259 224.569 502.554 237.157 510.492 249.888L507.592 260.263C507.141 259.406 506.665 258.549 506.19 257.716C498.87 244.605 490.076 232.16 480.45 220.619C479.594 219.596 478.715 218.572 477.835 217.549L480.735 207.245C482.209 209.03 483.658 210.839 485.108 212.718ZM513.986 175.906C518.406 181.308 522.542 186.876 526.535 192.587L516.434 228.614C516.172 228.186 515.982 227.876 515.863 227.71C506.832 214.241 496.398 201.82 485.821 189.565L485.702 189.446L489.719 175.097C490.099 173.717 491.24 172.765 492.476 172.765H511.348C512.251 173.788 513.106 174.859 513.986 175.906ZM528.46 172.741C529.316 172.741 530.124 173.217 530.599 174.003C531.098 174.812 531.217 175.835 530.956 176.811L528.389 185.948C527.438 184.758 526.511 183.569 525.584 182.379C523.017 179.095 520.355 175.859 517.622 172.718H528.46V172.741Z" fill="url(#paint7_linear)"/>
<path fill-rule="evenodd" clip-rule="evenodd" d="M538.085 169.815C538.751 170.671 538.965 171.813 538.656 172.86C532.524 194.681 505.619 290.626 500.889 307.498C500.462 308.997 499.107 310.044 497.538 310.044C489.148 310.044 462.909 310.044 452.238 310.044C451.144 310.044 450.122 309.544 449.457 308.664C449.172 308.307 448.981 307.878 448.863 307.45C449.362 307.736 449.956 307.902 450.55 307.902C461.222 307.902 487.461 307.902 495.851 307.902C497.419 307.902 498.774 306.855 499.202 305.356C503.932 288.485 530.836 192.563 536.968 170.719C537.135 170.1 537.135 169.481 536.992 168.886C537.42 169.124 537.8 169.434 538.085 169.815Z" fill="#D02F24"/>
<path fill-rule="evenodd" clip-rule="evenodd" d="M347.162 198.441H384.001L382.932 202.249H346.924L330.834 259.597H330.002L347.162 198.441Z" fill="#D02F24"/>
<path opacity="0.27" fill-rule="evenodd" clip-rule="evenodd" d="M357.382 139.189L400.639 150.135L338.13 262.928L347.875 285.296L323.917 372.127H284.558C281.374 372.056 278.355 370.533 276.406 367.987C274.41 365.369 273.744 361.966 274.6 358.802L322.04 183.069L357.382 139.189Z" fill="#D1362B"/>
<path fill-rule="evenodd" clip-rule="evenodd" d="M347.875 116.821C343.502 121.104 325.177 151.825 308.896 193.682C292.616 235.539 281.802 289.103 280.376 306.712C279.876 312.876 281.041 334.863 293.448 338.361C303.953 341.312 323.062 343.858 332.664 337.409C342.266 330.96 349.586 293.886 349.539 286.724C349.491 279.561 342.409 273.636 342.409 273.636C342.409 273.636 347.899 250.483 354.055 227.948C360.21 205.413 374.97 179.642 374.97 179.642C374.97 179.642 378.083 180.832 385.903 177.263C393.722 173.693 401.875 150.588 401.589 147.042C401.304 143.496 401.447 121.366 397.549 116.583C390.371 107.779 352.248 112.514 347.875 116.821Z" fill="#3F3F3F"/>
<path fill-rule="evenodd" clip-rule="evenodd" d="M401.59 147.042C401.875 150.588 393.723 173.693 385.903 177.263C378.084 180.832 374.97 179.642 374.97 179.642C374.97 179.642 360.21 205.413 354.055 227.948C347.899 250.483 342.408 273.636 342.408 273.636C342.408 273.636 349.491 279.561 349.539 286.724C349.586 293.886 342.266 330.961 332.664 337.409C331.238 338.361 329.598 339.123 327.815 339.717C326.603 337.409 323.822 331.508 323.632 325.511C323.394 317.825 341.363 237.657 349.539 209.149C357.715 180.642 386.83 132.574 393.746 123.722C395.695 121.223 397.121 119.153 398.143 117.511C401.423 123.674 401.304 143.687 401.59 147.042Z" fill="#282828"/>
<path d="M559.154 371.914H263.013V386.191H559.154V371.914Z" fill="#595959"/>
<path d="M547.263 371.903H263.005V376.187H547.263V371.903Z" fill="#848484"/>
<path fill-rule="evenodd" clip-rule="evenodd" d="M347.87 116.806C343.494 121.086 325.158 151.801 308.892 193.668C292.626 235.535 281.788 289.105 280.368 306.695C279.867 312.848 281.036 334.851 293.445 338.346C303.932 341.305 323.07 343.847 332.656 337.393C342.242 330.939 349.59 293.871 349.523 286.714C349.473 279.558 342.392 273.623 342.392 273.623C342.392 273.623 347.87 250.465 354.032 227.927C360.194 205.388 374.941 179.623 374.941 179.623C374.941 179.623 378.063 180.81 385.879 177.249C393.695 173.687 401.844 150.563 401.56 147.036C401.276 143.491 401.427 121.37 397.519 116.572C390.371 107.777 352.245 112.525 347.87 116.806Z" fill="url(#paint8_linear)"/>
<path fill-rule="evenodd" clip-rule="evenodd" d="M401.577 147.036C401.861 150.58 393.695 173.704 385.896 177.249C378.097 180.793 374.957 179.623 374.957 179.623C374.957 179.623 360.211 205.405 354.049 227.927C347.887 250.449 342.409 273.623 342.409 273.623C342.409 273.623 349.49 279.558 349.54 286.715C349.59 293.871 342.259 330.956 332.673 337.393C331.254 338.346 329.617 339.115 327.83 339.7C326.611 337.376 323.822 331.474 323.638 325.488C323.405 317.814 341.374 237.625 349.54 209.134C357.706 180.626 386.848 132.556 393.745 123.711C395.699 121.203 397.118 119.147 398.137 117.491C401.427 123.678 401.31 143.675 401.577 147.036Z" fill="#282828"/>
<path d="M460.385 226.691C463.965 221.628 464.128 215.582 460.749 213.187C457.37 210.791 451.728 212.953 448.148 218.016C444.567 223.079 444.404 229.125 447.784 231.52C451.163 233.916 456.805 231.754 460.385 226.691Z" fill="#282828"/>
<path d="M458.506 224.746C462.086 219.684 462.249 213.638 458.87 211.242C455.49 208.847 449.849 211.009 446.268 216.071C442.688 221.134 442.525 227.18 445.904 229.576C449.284 231.971 454.925 229.809 458.506 224.746Z" fill="#595959"/>
<path d="M449.51 260.7C453.09 255.637 453.253 249.591 449.874 247.196C446.495 244.8 440.853 246.962 437.273 252.025C433.693 257.088 433.53 263.134 436.909 265.529C440.288 267.925 445.93 265.762 449.51 260.7Z" fill="#282828"/>
<path d="M447.632 258.753C451.213 253.691 451.376 247.645 447.996 245.249C444.617 242.854 438.975 245.016 435.395 250.078C431.815 255.141 431.652 261.187 435.031 263.582C438.41 265.978 444.052 263.816 447.632 258.753Z" fill="#595959"/>
<path d="M438.637 294.707C442.217 289.644 442.38 283.598 439.001 281.203C435.622 278.807 429.98 280.969 426.4 286.032C422.819 291.094 422.657 297.14 426.036 299.536C429.415 301.931 435.057 299.769 438.637 294.707Z" fill="#282828"/>
<path d="M436.756 292.76C440.336 287.698 440.499 281.652 437.12 279.256C433.741 276.861 428.099 279.023 424.519 284.085C420.938 289.148 420.775 295.194 424.155 297.59C427.534 299.985 433.176 297.823 436.756 292.76Z" fill="#595959"/>
<path d="M473.125 178.414C474.844 175.983 474.922 173.08 473.3 171.93C471.677 170.779 468.968 171.818 467.249 174.249C465.529 176.68 465.451 179.583 467.074 180.734C468.696 181.884 471.406 180.846 473.125 178.414Z" fill="#282828"/>
<path d="M472.252 177.638C473.978 175.196 474.055 172.279 472.425 171.125C470.794 169.97 468.074 171.015 466.348 173.457C464.622 175.9 464.545 178.816 466.176 179.971C467.806 181.125 470.526 180.081 472.252 177.638Z" fill="#595959"/>
<path d="M460.112 178.413C461.831 175.982 461.91 173.079 460.287 171.929C458.664 170.778 455.955 171.817 454.236 174.248C452.516 176.679 452.438 179.582 454.061 180.733C455.683 181.883 458.393 180.845 460.112 178.413Z" fill="#282828"/>
<path d="M459.201 177.48C460.92 175.049 460.998 172.146 459.376 170.995C457.753 169.845 455.044 170.883 453.324 173.314C451.605 175.746 451.527 178.649 453.15 179.799C454.772 180.95 457.481 179.911 459.201 177.48Z" fill="#595959"/>
<path d="M447.098 178.413C448.817 175.982 448.895 173.078 447.273 171.928C445.65 170.778 442.941 171.816 441.222 174.247C439.502 176.679 439.424 179.582 441.047 180.732C442.669 181.883 445.379 180.844 447.098 178.413Z" fill="#282828"/>
<path d="M446.195 177.479C447.914 175.048 447.992 172.144 446.37 170.994C444.747 169.844 442.038 170.882 440.319 173.313C438.599 175.745 438.521 178.648 440.144 179.798C441.766 180.949 444.476 179.91 446.195 177.479Z" fill="#595959"/>
<path d="M433.289 226.691C436.869 221.628 437.032 215.582 433.653 213.187C430.274 210.791 424.632 212.953 421.052 218.016C417.471 223.079 417.308 229.125 420.688 231.52C424.067 233.916 429.709 231.753 433.289 226.691Z" fill="#282828"/>
<path d="M431.411 224.744C434.991 219.682 435.154 213.636 431.775 211.24C428.396 208.845 422.754 211.007 419.174 216.069C415.594 221.132 415.431 227.178 418.81 229.573C422.189 231.969 427.831 229.807 431.411 224.744Z" fill="#595959"/>
<path d="M422.416 260.698C425.996 255.635 426.159 249.589 422.78 247.194C419.4 244.798 413.759 246.96 410.178 252.023C406.598 257.085 406.435 263.131 409.814 265.527C413.194 267.922 418.835 265.76 422.416 260.698Z" fill="#282828"/>
<path d="M420.536 258.752C424.116 253.69 424.279 247.644 420.9 245.248C417.521 242.853 411.879 245.015 408.299 250.078C404.718 255.14 404.555 261.186 407.935 263.582C411.314 265.977 416.956 263.815 420.536 258.752Z" fill="#595959"/>
<path d="M411.54 294.706C415.121 289.643 415.284 283.597 411.904 281.202C408.525 278.806 402.883 280.968 399.303 286.031C395.723 291.094 395.56 297.14 398.939 299.535C402.318 301.931 407.96 299.768 411.54 294.706Z" fill="#282828"/>
<path d="M409.66 292.76C413.241 287.697 413.403 281.651 410.024 279.256C406.645 276.86 401.003 279.023 397.423 284.085C393.843 289.148 393.68 295.194 397.059 297.589C400.438 299.985 406.08 297.823 409.66 292.76Z" fill="#595959"/>
<path d="M406.195 226.689C409.775 221.626 409.938 215.58 406.558 213.184C403.179 210.789 397.537 212.951 393.957 218.014C390.377 223.076 390.214 229.122 393.593 231.518C396.972 233.913 402.614 231.751 406.195 226.689Z" fill="#282828"/>
<path d="M404.315 224.743C407.895 219.681 408.058 213.635 404.679 211.239C401.299 208.844 395.658 211.006 392.077 216.068C388.497 221.131 388.334 227.177 391.713 229.573C395.093 231.968 400.734 229.806 404.315 224.743Z" fill="#595959"/>
<path d="M395.321 260.697C398.901 255.634 399.064 249.588 395.685 247.193C392.305 244.797 386.664 246.959 383.083 252.022C379.503 257.084 379.34 263.13 382.719 265.526C386.099 267.921 391.74 265.759 395.321 260.697Z" fill="#282828"/>
<path d="M393.441 258.75C397.022 253.688 397.185 247.642 393.805 245.246C390.426 242.85 384.784 245.013 381.204 250.075C377.624 255.138 377.461 261.184 380.84 263.579C384.219 265.975 389.861 263.813 393.441 258.75Z" fill="#595959"/>
<path d="M384.445 294.705C388.025 289.643 388.188 283.597 384.809 281.201C381.43 278.806 375.788 280.968 372.208 286.031C368.627 291.093 368.464 297.139 371.844 299.535C375.223 301.93 380.865 299.768 384.445 294.705Z" fill="#282828"/>
<path d="M382.566 292.759C386.146 287.697 386.309 281.651 382.93 279.255C379.551 276.86 373.909 279.022 370.329 284.084C366.748 289.147 366.585 295.193 369.965 297.588C373.344 299.984 378.986 297.822 382.566 292.759Z" fill="#595959"/>
<path fill-rule="evenodd" clip-rule="evenodd" d="M517.961 149.781C517.907 149.966 517.898 150.162 517.933 150.352C517.968 150.541 518.046 150.721 518.162 150.875C518.278 151.029 518.428 151.155 518.6 151.241C518.773 151.328 518.963 151.373 519.156 151.373H544.501C544.771 151.373 545.033 151.285 545.249 151.122C545.464 150.959 545.621 150.731 545.696 150.471L547.427 144.452C547.479 144.266 547.489 144.071 547.453 143.882C547.418 143.692 547.34 143.513 547.224 143.359C547.108 143.205 546.958 143.08 546.786 142.993C546.614 142.907 546.424 142.862 546.232 142.861H520.888C520.618 142.861 520.356 142.949 520.14 143.112C519.925 143.275 519.768 143.503 519.693 143.763L517.961 149.781Z" fill="#595959"/>
<path fill-rule="evenodd" clip-rule="evenodd" d="M547.229 143.358C547.345 143.512 547.424 143.691 547.459 143.881C547.494 144.071 547.484 144.266 547.43 144.452C546.918 146.229 546.113 149.041 545.699 150.471C545.625 150.731 545.469 150.96 545.253 151.123C545.037 151.285 544.775 151.373 544.505 151.373H519.158C518.832 151.374 518.52 151.246 518.288 151.019C518.055 150.791 517.921 150.482 517.913 150.157H543.289C543.559 150.156 543.821 150.068 544.037 149.906C544.252 149.743 544.409 149.515 544.484 149.256L546.215 143.237C546.25 143.115 546.266 142.988 546.263 142.861C546.451 142.865 546.636 142.912 546.803 142.998C546.971 143.084 547.116 143.207 547.229 143.358Z" fill="#282828"/>
<path fill-rule="evenodd" clip-rule="evenodd" d="M477.633 149.781C477.58 149.966 477.57 150.162 477.605 150.352C477.64 150.541 477.718 150.721 477.834 150.875C477.95 151.029 478.1 151.155 478.273 151.241C478.445 151.328 478.635 151.373 478.828 151.373H504.173C504.443 151.373 504.706 151.285 504.922 151.122C505.137 150.959 505.294 150.731 505.368 150.471L507.099 144.452C507.153 144.266 507.162 144.071 507.127 143.881C507.093 143.691 507.014 143.512 506.898 143.358C506.782 143.204 506.632 143.078 506.46 142.992C506.287 142.906 506.097 142.861 505.904 142.861H480.569C480.299 142.861 480.037 142.949 479.821 143.112C479.606 143.275 479.449 143.503 479.374 143.763L477.633 149.781Z" fill="#595959"/>
<path fill-rule="evenodd" clip-rule="evenodd" d="M506.901 143.358C507.018 143.512 507.096 143.691 507.131 143.881C507.166 144.071 507.156 144.266 507.103 144.452C506.591 146.229 505.785 149.041 505.372 150.471C505.297 150.731 505.141 150.959 504.925 151.122C504.71 151.285 504.447 151.373 504.177 151.373H478.83C478.637 151.373 478.447 151.328 478.274 151.242C478.101 151.156 477.951 151.03 477.835 150.876C477.678 150.669 477.591 150.417 477.586 150.157H502.962C503.231 150.156 503.494 150.068 503.709 149.906C503.924 149.743 504.081 149.515 504.156 149.256L505.887 143.237C505.923 143.115 505.939 142.988 505.935 142.861C506.123 142.865 506.308 142.912 506.476 142.998C506.643 143.084 506.789 143.207 506.901 143.358Z" fill="#282828"/>
<path fill-rule="evenodd" clip-rule="evenodd" d="M437.306 149.781C437.252 149.966 437.243 150.162 437.277 150.352C437.312 150.541 437.391 150.721 437.507 150.875C437.622 151.029 437.772 151.155 437.945 151.241C438.117 151.328 438.308 151.373 438.5 151.373H463.841C464.111 151.373 464.373 151.285 464.589 151.122C464.804 150.959 464.961 150.731 465.036 150.471L466.766 144.452C466.82 144.266 466.83 144.071 466.795 143.881C466.76 143.691 466.681 143.512 466.565 143.358C466.45 143.204 466.299 143.078 466.127 142.992C465.955 142.906 465.764 142.861 465.572 142.861H440.233C439.963 142.861 439.7 142.949 439.485 143.112C439.269 143.275 439.113 143.503 439.038 143.763L437.306 149.781Z" fill="#595959"/>
<path fill-rule="evenodd" clip-rule="evenodd" d="M466.572 143.358C466.688 143.512 466.767 143.691 466.802 143.881C466.837 144.071 466.827 144.266 466.773 144.452C466.261 146.229 465.454 149.041 465.043 150.471C464.968 150.731 464.811 150.959 464.596 151.122C464.38 151.285 464.118 151.373 463.848 151.373H438.502C438.309 151.373 438.119 151.328 437.946 151.242C437.774 151.156 437.623 151.03 437.507 150.876C437.35 150.669 437.263 150.417 437.258 150.157H462.632C462.902 150.156 463.164 150.068 463.38 149.906C463.595 149.743 463.752 149.515 463.827 149.256C464.239 147.824 465.046 145.012 465.558 143.237C465.593 143.114 465.609 142.988 465.606 142.861C465.794 142.865 465.979 142.912 466.146 142.998C466.314 143.084 466.459 143.207 466.572 143.358Z" fill="#282828"/>
<path fill-rule="evenodd" clip-rule="evenodd" d="M408.411 327.582C408.313 327.944 408.334 328.328 408.471 328.678C408.607 328.99 408.839 329.175 409.1 329.175H426.019C426.389 329.175 426.739 328.808 426.872 328.273L428.441 322.253C428.541 321.892 428.52 321.508 428.381 321.16C428.246 320.845 428.012 320.662 427.751 320.662H410.835C410.464 320.662 410.113 321.03 409.981 321.565L408.411 327.582Z" fill="#595959"/>
<path fill-rule="evenodd" clip-rule="evenodd" d="M428.388 321.16C428.527 321.508 428.548 321.892 428.448 322.253C427.985 324.031 427.253 326.841 426.879 328.273C426.739 328.808 426.389 329.175 426.026 329.175H409.108C408.847 329.175 408.614 328.99 408.478 328.678C408.385 328.45 408.344 328.204 408.36 327.958H425.298C425.669 327.958 426.019 327.591 426.152 327.056C426.526 325.625 427.258 322.814 427.721 321.038C427.753 320.915 427.772 320.789 427.779 320.662C427.917 320.678 428.049 320.733 428.157 320.821C428.265 320.909 428.345 321.027 428.388 321.16Z" fill="#282828"/>
<path fill-rule="evenodd" clip-rule="evenodd" d="M381.496 327.582C381.396 327.944 381.417 328.329 381.555 328.678C381.69 328.99 381.924 329.175 382.185 329.175H399.101C399.472 329.175 399.823 328.808 399.955 328.273L401.525 322.253C401.624 321.892 401.603 321.508 401.466 321.16C401.329 320.845 401.097 320.662 400.836 320.662H383.918C383.547 320.662 383.197 321.03 383.064 321.565L381.496 327.582Z" fill="#595959"/>
<path fill-rule="evenodd" clip-rule="evenodd" d="M401.472 321.16C401.609 321.508 401.63 321.892 401.532 322.253C401.068 324.031 400.337 326.841 399.961 328.273C399.823 328.808 399.472 329.175 399.108 329.175H382.192C381.931 329.175 381.697 328.99 381.562 328.678C381.468 328.45 381.428 328.204 381.444 327.958H398.381C398.751 327.958 399.103 327.591 399.234 327.056C399.608 325.625 400.34 322.814 400.805 321.038C400.836 320.915 400.855 320.789 400.863 320.662C401.115 320.671 401.339 320.854 401.472 321.16Z" fill="#282828"/>
<path fill-rule="evenodd" clip-rule="evenodd" d="M354.578 327.582C354.48 327.944 354.501 328.328 354.638 328.678C354.773 328.99 355.007 329.175 355.268 329.175H372.189C372.561 329.175 372.911 328.808 373.051 328.273L374.62 322.253C374.719 321.892 374.698 321.508 374.56 321.16C374.425 320.845 374.191 320.662 373.93 320.662H357.014C356.644 320.662 356.292 321.03 356.152 321.565L354.578 327.582Z" fill="#595959"/>
<path fill-rule="evenodd" clip-rule="evenodd" d="M374.555 321.16C374.692 321.508 374.713 321.892 374.614 322.253C374.152 324.031 373.419 326.841 373.046 328.273C372.906 328.808 372.554 329.175 372.184 329.175H355.267C355.006 329.175 354.772 328.99 354.638 328.678C354.544 328.45 354.504 328.204 354.52 327.958H371.456C371.829 327.958 372.178 327.591 372.318 327.056C372.691 325.625 373.425 322.814 373.887 321.038C373.919 320.915 373.938 320.789 373.945 320.662C374.084 320.678 374.215 320.733 374.323 320.821C374.431 320.909 374.512 321.027 374.555 321.16Z" fill="#282828"/>
<path fill-rule="evenodd" clip-rule="evenodd" d="M402.652 347.771C402.552 348.133 402.573 348.517 402.71 348.867C402.846 349.179 403.078 349.362 403.34 349.362H420.258C420.628 349.362 420.98 348.995 421.111 348.462L422.68 342.442C422.779 342.081 422.759 341.696 422.622 341.347C422.485 341.034 422.253 340.85 421.992 340.85H405.074C404.703 340.85 404.352 341.219 404.22 341.752L402.652 347.771Z" fill="#595959"/>
<path fill-rule="evenodd" clip-rule="evenodd" d="M422.629 341.347C422.766 341.696 422.786 342.08 422.687 342.442C422.224 344.218 421.492 347.029 421.118 348.461C420.98 348.995 420.628 349.362 420.265 349.362H403.347C403.086 349.362 402.853 349.179 402.717 348.866C402.624 348.638 402.585 348.392 402.601 348.147H419.537C419.908 348.147 420.26 347.78 420.391 347.245C420.765 345.812 421.497 343.003 421.96 341.225C421.992 341.103 422.012 340.978 422.018 340.851C422.156 340.866 422.288 340.921 422.396 341.009C422.504 341.097 422.585 341.214 422.629 341.347Z" fill="#282828"/>
<path fill-rule="evenodd" clip-rule="evenodd" d="M375.734 347.771C375.634 348.133 375.655 348.518 375.794 348.867C375.929 349.179 376.163 349.362 376.424 349.362H393.34C393.71 349.362 394.062 348.995 394.202 348.462L395.771 342.442C395.869 342.08 395.848 341.696 395.711 341.347C395.576 341.034 395.342 340.85 395.081 340.85H378.163C377.793 340.85 377.443 341.219 377.31 341.752L375.734 347.771Z" fill="#595959"/>
<path fill-rule="evenodd" clip-rule="evenodd" d="M395.711 341.347C395.848 341.696 395.869 342.08 395.77 342.442C395.308 344.218 394.576 347.029 394.202 348.461C394.062 348.995 393.71 349.362 393.34 349.362H376.424C376.162 349.362 375.929 349.179 375.794 348.866C375.7 348.639 375.66 348.393 375.676 348.147H392.613C392.983 348.147 393.335 347.78 393.466 347.245C393.838 345.812 394.572 343.003 395.035 341.225C395.067 341.103 395.086 340.977 395.093 340.851C395.233 340.865 395.366 340.919 395.475 341.007C395.585 341.095 395.667 341.213 395.711 341.347Z" fill="#282828"/>
<path fill-rule="evenodd" clip-rule="evenodd" d="M348.817 347.771C348.719 348.133 348.74 348.517 348.877 348.867C349.013 349.179 349.245 349.362 349.506 349.362H366.424C366.795 349.362 367.145 348.995 367.278 348.462L368.847 342.442C368.946 342.081 368.925 341.696 368.787 341.347C368.652 341.034 368.418 340.85 368.157 340.85H351.241C350.87 340.85 350.519 341.219 350.379 341.752L348.817 347.771Z" fill="#595959"/>
<path fill-rule="evenodd" clip-rule="evenodd" d="M368.794 341.347C368.933 341.696 368.954 342.08 368.854 342.442C368.391 344.218 367.659 347.029 367.285 348.461C367.145 348.995 366.795 349.362 366.432 349.362H349.514C349.252 349.362 349.018 349.179 348.884 348.866C348.791 348.639 348.75 348.393 348.766 348.147H365.703C366.073 348.147 366.423 347.78 366.556 347.245C366.93 345.812 367.662 343.003 368.125 341.225C368.157 341.103 368.176 340.977 368.183 340.851C368.322 340.866 368.453 340.921 368.561 341.009C368.67 341.097 368.751 341.214 368.794 341.347Z" fill="#282828"/>
<path d="M476.37 352.249C486.849 344.483 490.323 331.396 484.129 323.019C477.935 314.641 464.419 314.146 453.94 321.912C443.461 329.678 439.988 342.765 446.182 351.142C452.376 359.52 465.891 360.015 476.37 352.249Z" fill="#D02F24"/>
<path d="M474.02 347.569C481.323 340.881 482.925 330.734 477.599 324.904C472.273 319.075 462.035 319.771 454.733 326.459C447.43 333.147 445.828 343.294 451.154 349.124C456.48 354.953 466.717 354.257 474.02 347.569Z" fill="url(#paint9_linear)"/>
<path d="M471.818 343.335C476.863 337.713 477.364 329.927 472.936 325.944C468.509 321.961 460.829 323.289 455.784 328.911C450.738 334.533 450.238 342.32 454.665 346.303C459.093 350.286 466.772 348.957 471.818 343.335Z" fill="#D02F24"/>
<defs>
<linearGradient id="paint0_linear" x1="142.929" y1="113.452" x2="441.22" y2="594.046" gradientUnits="userSpaceOnUse">
<stop stop-color="#FFDEDE" stop-opacity="0"/>
<stop offset="0.5227" stop-color="#968F8F" stop-opacity="0.78"/>
</linearGradient>
<linearGradient id="paint1_linear" x1="165.019" y1="359.125" x2="-79.7812" y2="-60.5258" gradientUnits="userSpaceOnUse">
<stop stop-color="#FFDEDE" stop-opacity="0"/>
<stop offset="1" stop-color="#968F8F" stop-opacity="0.78"/>
</linearGradient>
<linearGradient id="paint2_linear" x1="500.936" y1="511.944" x2="-150.925" y2="-164.997" gradientUnits="userSpaceOnUse">
<stop stop-color="white"/>
<stop offset="0.46" stop-color="white" stop-opacity="0.22"/>
<stop offset="1" stop-color="white" stop-opacity="0"/>
</linearGradient>
<linearGradient id="paint3_linear" x1="216.913" y1="226.77" x2="-119.49" y2="411.342" gradientUnits="userSpaceOnUse">
<stop stop-color="#F4B8B4"/>
<stop offset="1" stop-color="#E0382D"/>
</linearGradient>
<linearGradient id="paint4_linear" x1="286.961" y1="90.5306" x2="-501.777" y2="476.264" gradientUnits="userSpaceOnUse">
<stop stop-color="#F4B8B4"/>
<stop offset="1" stop-color="#E0382D"/>
</linearGradient>
<linearGradient id="paint5_linear" x1="518.876" y1="597.563" x2="249.428" y2="-372.77" gradientUnits="userSpaceOnUse">
<stop stop-color="#F4B8B4"/>
<stop offset="0.8733" stop-color="#E0382D"/>
</linearGradient>
<linearGradient id="paint6_linear" x1="486.99" y1="200.136" x2="81.8049" y2="498.336" gradientUnits="userSpaceOnUse">
<stop stop-color="#F4B8B4"/>
<stop offset="0.8733" stop-color="#E0382D"/>
</linearGradient>
<linearGradient id="paint7_linear" x1="567.201" y1="98.6841" x2="399.453" y2="407.715" gradientUnits="userSpaceOnUse">
<stop stop-color="white"/>
<stop offset="0.45" stop-color="white" stop-opacity="0.21"/>
<stop offset="1" stop-color="white" stop-opacity="0"/>
</linearGradient>
<linearGradient id="paint8_linear" x1="85.8668" y1="382.41" x2="360.628" y2="215.026" gradientUnits="userSpaceOnUse">
<stop stop-color="white"/>
<stop offset="1" stop-color="white" stop-opacity="0"/>
</linearGradient>
<linearGradient id="paint9_linear" x1="101456" y1="50806" x2="109054" y2="50806" gradientUnits="userSpaceOnUse">
<stop stop-color="#F4B8B4"/>
<stop offset="1" stop-color="#E0382D"/>
</linearGradient>
</defs>
</svg>
