<svg width="450" height="451" viewBox="0 0 450 451" fill="none" xmlns="http://www.w3.org/2000/svg">
<path fill-rule="evenodd" clip-rule="evenodd" d="M227.403 49.7578C134.069 49.7578 58.291 125.535 58.291 218.872C58.291 312.21 134.069 387.989 227.403 387.989C320.742 387.989 396.52 312.21 396.52 218.872C396.52 125.535 320.742 49.7578 227.403 49.7578ZM227.403 65.1897C312.226 65.1897 381.088 134.053 381.088 218.872C381.088 303.694 312.226 372.557 227.403 372.557C142.586 372.557 73.7228 303.694 73.7228 218.872C73.7228 134.053 142.586 65.1897 227.403 65.1897Z" fill="#D1362B"/>
<path d="M64.0162 289.018C99.3713 289.018 128.032 260.357 128.032 225.002C128.032 189.647 99.3713 160.986 64.0162 160.986C28.661 160.986 0 189.647 0 225.002C0 260.357 28.661 289.018 64.0162 289.018Z" fill="#D1362B"/>
<path d="M64.0097 277.78C93.1556 277.78 116.783 254.153 116.783 225.007C116.783 195.861 93.1556 172.233 64.0097 172.233C34.8638 172.233 11.2363 195.861 11.2363 225.007C11.2363 254.153 34.8638 277.78 64.0097 277.78Z" fill="#FCE2DD"/>
<path fill-rule="evenodd" clip-rule="evenodd" d="M29.1343 250.341C31.0163 231.173 45.3208 217.826 64.9801 217.826C84.6933 217.826 98.5197 231.228 100.324 250.472C91.0619 259.64 80.0144 267.087 65.0682 267.087C50.0339 267.087 38.4004 259.6 29.1343 250.341Z" fill="#282828"/>
<path d="M63.6685 212.6C72.5485 212.6 79.7472 205.401 79.7472 196.521C79.7472 187.641 72.5485 180.442 63.6685 180.442C54.7885 180.442 47.5898 187.641 47.5898 196.521C47.5898 205.401 54.7885 212.6 63.6685 212.6Z" fill="#282828"/>
<path d="M160.976 64.0162C160.976 99.3713 189.636 128.032 224.992 128.032C260.347 128.032 289.008 99.3713 289.008 64.0162C289.008 28.661 260.347 0 224.992 0C189.636 0 160.976 28.661 160.976 64.0162Z" fill="#D1362B"/>
<path d="M172.21 64.0175C172.21 93.1634 195.837 116.791 224.983 116.791C254.129 116.791 277.756 93.1634 277.756 64.0175C277.756 34.8716 254.129 11.2441 224.983 11.2441C195.837 11.2441 172.21 34.8716 172.21 64.0175Z" fill="#FCE2DD"/>
<path fill-rule="evenodd" clip-rule="evenodd" d="M199.649 29.1343C218.818 31.0163 232.164 45.3208 232.164 64.9801C232.164 84.6933 218.762 98.5197 199.518 100.324C190.351 91.0619 182.903 80.0144 182.903 65.0682C182.903 50.0339 190.39 38.4004 199.649 29.1343Z" fill="#282828"/>
<path d="M237.391 63.6685C237.391 72.5485 244.589 79.7472 253.469 79.7472C262.349 79.7472 269.548 72.5485 269.548 63.6685C269.548 54.7885 262.349 47.5898 253.469 47.5898C244.589 47.5898 237.391 54.7885 237.391 63.6685Z" fill="#282828"/>
<path d="M64.0162 289.018C99.3713 289.018 128.032 260.357 128.032 225.002C128.032 189.647 99.3713 160.986 64.0162 160.986C28.661 160.986 0 189.647 0 225.002C0 260.357 28.661 289.018 64.0162 289.018Z" fill="#D1362B"/>
<path d="M64.0097 277.78C93.1556 277.78 116.783 254.153 116.783 225.007C116.783 195.861 93.1556 172.233 64.0097 172.233C34.8638 172.233 11.2363 195.861 11.2363 225.007C11.2363 254.153 34.8638 277.78 64.0097 277.78Z" fill="#FCE2DD"/>
<path fill-rule="evenodd" clip-rule="evenodd" d="M29.1343 250.341C31.0163 231.173 45.3208 217.826 64.9801 217.826C84.6933 217.826 98.5197 231.228 100.324 250.472C91.0619 259.64 80.0144 267.087 65.0682 267.087C50.0339 267.087 38.4004 259.6 29.1343 250.341Z" fill="#282828"/>
<path d="M63.6685 212.6C72.5485 212.6 79.7472 205.401 79.7472 196.521C79.7472 187.641 72.5485 180.442 63.6685 180.442C54.7885 180.442 47.5898 187.641 47.5898 196.521C47.5898 205.401 54.7885 212.6 63.6685 212.6Z" fill="#282828"/>
<path d="M224.995 128.032C260.35 128.032 289.011 99.3713 289.011 64.0162C289.011 28.661 260.35 0 224.995 0C189.64 0 160.979 28.661 160.979 64.0162C160.979 99.3713 189.64 128.032 224.995 128.032Z" fill="#D1362B"/>
<path d="M224.992 116.794C254.138 116.794 277.765 93.1669 277.765 64.0209C277.765 34.875 254.138 11.2476 224.992 11.2476C195.846 11.2476 172.219 34.875 172.219 64.0209C172.219 93.1669 195.846 116.794 224.992 116.794Z" fill="#FCE2DD"/>
<path fill-rule="evenodd" clip-rule="evenodd" d="M190.121 89.3554C192.003 70.1868 206.307 56.8403 225.966 56.8403C245.68 56.8403 259.506 70.2425 261.311 89.4866C252.048 98.6539 241.001 106.101 226.055 106.101C211.02 106.101 199.387 98.6143 190.121 89.3554Z" fill="#282828"/>
<path d="M224.655 51.6139C233.535 51.6139 240.733 44.4152 240.733 35.5352C240.733 26.6552 233.535 19.4565 224.655 19.4565C215.775 19.4565 208.576 26.6552 208.576 35.5352C208.576 44.4152 215.775 51.6139 224.655 51.6139Z" fill="#282828"/>
<path d="M385.984 289.025C421.339 289.025 450 260.364 450 225.009C450 189.654 421.339 160.993 385.984 160.993C350.629 160.993 321.968 189.654 321.968 225.009C321.968 260.364 350.629 289.025 385.984 289.025Z" fill="#D1362B"/>
<path d="M385.967 277.777C415.113 277.777 438.74 254.149 438.74 225.003C438.74 195.857 415.113 172.23 385.967 172.23C356.821 172.23 333.193 195.857 333.193 225.003C333.193 254.149 356.821 277.777 385.967 277.777Z" fill="#FCE2DD"/>
<path fill-rule="evenodd" clip-rule="evenodd" d="M351.099 250.341C352.981 231.173 367.286 217.826 386.945 217.826C406.658 217.826 420.485 231.228 422.289 250.472C413.027 259.64 401.979 267.087 387.033 267.087C371.999 267.087 360.365 259.6 351.099 250.341Z" fill="#282828"/>
<path d="M385.633 212.6C394.513 212.6 401.712 205.401 401.712 196.521C401.712 187.641 394.513 180.442 385.633 180.442C376.753 180.442 369.555 187.641 369.555 196.521C369.555 205.401 376.753 212.6 385.633 212.6Z" fill="#282828"/>
<path d="M224.995 450.019C260.35 450.019 289.011 421.358 289.011 386.003C289.011 350.647 260.35 321.986 224.995 321.986C189.64 321.986 160.979 350.647 160.979 386.003C160.979 421.358 189.64 450.019 224.995 450.019Z" fill="#D1362B"/>
<path d="M224.992 438.777C254.138 438.777 277.765 415.15 277.765 386.004C277.765 356.858 254.138 333.23 224.992 333.23C195.846 333.23 172.219 356.858 172.219 386.004C172.219 415.15 195.846 438.777 224.992 438.777Z" fill="#FCE2DD"/>
<path fill-rule="evenodd" clip-rule="evenodd" d="M190.121 411.353C192.003 392.184 206.307 378.838 225.966 378.838C245.68 378.838 259.506 392.24 261.311 411.484C252.048 420.651 241.001 428.098 226.055 428.098C211.02 428.098 199.387 420.612 190.121 411.353Z" fill="#282828"/>
<path d="M224.655 373.611C233.535 373.611 240.733 366.413 240.733 357.533C240.733 348.653 233.535 341.454 224.655 341.454C215.775 341.454 208.576 348.653 208.576 357.533C208.576 366.413 215.775 373.611 224.655 373.611Z" fill="#282828"/>
<path fill-rule="evenodd" clip-rule="evenodd" d="M188.118 134.72C185.425 131.055 180.988 128.989 176.385 129.288C171.782 129.587 128.179 149.592 154.97 213.752C168.342 245.77 195.784 281.047 216.338 295.721C261.052 327.602 289 299.432 290.346 295.982C291.691 292.563 291.277 288.701 289.236 285.594C284.543 278.398 278.545 269.296 273.802 262.097C269.353 255.342 260.923 252.243 253.046 254.444C242.802 257.262 234.425 270.636 218.916 253.255C205.896 238.642 194.919 226.437 190.372 205.245C186.911 189.143 200.371 184.601 206.822 177.778C211.063 173.377 211.512 166.646 207.897 161.707C202.424 154.22 194.531 143.451 188.118 134.72Z" fill="#D1362B"/>
<path fill-rule="evenodd" clip-rule="evenodd" d="M287.574 299.307C289.192 297.778 290.134 296.543 290.355 295.98C291.7 292.545 291.288 288.688 289.246 285.588C284.555 278.379 278.556 269.282 273.812 262.089C269.364 255.347 260.932 252.238 253.057 254.436C242.812 257.267 234.436 270.635 218.928 253.248C205.905 238.647 194.93 226.418 190.385 205.24C186.921 189.121 200.382 184.592 206.829 177.775C211.072 173.369 211.524 166.636 207.907 161.706C202.433 154.212 194.54 143.452 188.131 134.71C185.438 131.039 181 128.985 176.393 129.28C175.494 129.337 173.103 130.149 170.037 131.897C170.828 143.202 180.702 158.003 185.475 164.245C187.136 166.419 191.292 169.261 192.419 171.522C192.709 172.099 188.396 177.125 187.982 177.785C184.427 183.449 181.191 190.054 180.834 196.828C179.811 216.228 192.949 237.317 205.226 251.218C211.408 258.219 219.562 266.288 229.365 267.395C235.214 268.055 241.054 266.841 246.608 265.113C248.256 264.601 249.95 263.888 251.324 262.831C251.439 262.743 252.871 261.208 253.125 261.462C254.441 262.778 254.632 268.324 255.077 270.084C258.228 282.531 270.059 297.712 283.68 299.166C284.993 299.307 286.291 299.348 287.574 299.307Z" fill="#DF372C"/>
</svg>
