<svg width="425" height="431" viewBox="0 0 425 431" fill="none" xmlns="http://www.w3.org/2000/svg">
<path fill-rule="evenodd" clip-rule="evenodd" d="M274.029 398.426L265.149 420.626L153.034 419.516L160.805 397.316L274.029 398.426Z" fill="#282828"/>
<path d="M153.048 418.412H285.143V430.623H153.048V418.412Z" fill="#282828"/>
<path fill-rule="evenodd" clip-rule="evenodd" d="M-6.10352e-05 115.524C-6.10352e-05 108.941 5.68423 103.597 12.681 103.597H401.217C408.218 103.597 413.902 108.941 413.902 115.524V388.856C413.902 395.438 408.218 400.783 401.217 400.783H12.681C5.68423 400.783 -6.10352e-05 395.438 -6.10352e-05 388.856V115.524Z" fill="#282828"/>
<path fill-rule="evenodd" clip-rule="evenodd" d="M11.0978 115.524C11.0978 108.941 16.7822 103.597 23.7789 103.597H412.316C419.316 103.597 425 108.941 425 115.524V388.856C425 395.439 419.316 400.783 412.316 400.783H23.7789C16.7822 400.783 11.0978 395.439 11.0978 388.856V115.524Z" fill="#333232"/>
<path d="M17.3107 117.34H418.787V358.071H17.3107V117.34Z" fill="#D1362B"/>
<path d="M105.806 144.968H309.29V358.071H105.806V144.968Z" fill="#B02E24"/>
<path d="M114.657 134.881H318.14V358.062H114.657V134.881Z" fill="#FCE2DD"/>
<path fill-rule="evenodd" clip-rule="evenodd" d="M200.087 322.896H133.407V327.536H200.087V322.896ZM297.439 309.54H133.407V314.18H297.439V309.54ZM297.439 296.184H133.407V300.824H297.439V296.184ZM297.439 282.828H133.407V287.468H297.439V282.828ZM297.439 269.473H133.407V274.112H297.439V269.473ZM259.543 244.627H133.407V249.268H259.543V244.627ZM297.439 231.271H133.407V235.912H297.439V231.271ZM297.439 217.916H133.407V222.556H297.439V217.916ZM297.439 204.56H133.407V209.2H297.439V204.56ZM297.439 191.204H133.407V195.844H297.439V191.204ZM209.367 168.21H133.407V172.85H209.367V168.21Z" fill="#333232"/>
<path fill-rule="evenodd" clip-rule="evenodd" d="M277.951 180.02L380.473 5.86618C380.473 5.86618 393.64 3.62828 402.993 18.3186L296.658 189.082L276.729 203.654L277.951 180.02Z" fill="#282828"/>
<path d="M388.524 17.849C394.705 21.2977 401.164 21.4956 402.952 18.291C404.741 15.0865 401.18 9.69295 394.999 6.2443C388.818 2.79564 382.358 2.59781 380.57 5.80237C378.782 9.00693 382.343 14.4004 388.524 17.849Z" fill="#333232"/>
</svg>
