<svg width="350" height="350" viewBox="0 0 350 350" fill="none" xmlns="http://www.w3.org/2000/svg">
<path d="M175 350C271.65 350 350 271.65 350 175C350 78.3502 271.65 0 175 0C78.3502 0 0 78.3502 0 175C0 271.65 78.3502 350 175 350Z" fill="#D1362B"/>
<path fill-rule="evenodd" clip-rule="evenodd" d="M172.014 138.571C176.502 137.362 179.373 132.978 178.688 128.382C177.689 121.687 161.516 102.674 160.787 97.7784C160.462 95.5952 160.936 93.3625 162.13 91.4967C167.351 83.3389 182.331 59.9324 190.184 47.6623C191.493 45.6166 193.562 44.1808 195.931 43.657C198.303 43.1401 200.787 43.58 202.828 44.8866C218.165 54.702 252.327 76.5656 267.66 86.3783C269.705 87.6876 271.145 89.7591 271.665 92.1261C272.186 94.4999 271.744 96.9772 270.435 99.0229C262.615 111.243 247.717 134.52 242.44 142.765C241.214 144.681 239.313 146.077 237.112 146.668C232.447 147.922 208.016 141.214 201.738 142.905C197.25 144.113 194.378 148.49 195.065 153.093C196.059 159.786 213.37 177.97 214.099 182.866C214.428 185.052 213.947 187.286 212.756 189.147L184.477 233.333C183.171 235.375 181.103 236.817 178.729 237.338C176.362 237.858 173.881 237.414 171.835 236.105L107.004 194.613C104.962 193.306 103.52 191.239 102.996 188.869C102.479 186.498 102.919 184.014 104.226 181.973L132.443 137.883C133.672 135.963 135.577 134.57 137.778 133.979C142.439 132.722 165.732 140.259 172.014 138.571Z" fill="#333232"/>
<path fill-rule="evenodd" clip-rule="evenodd" d="M170.285 91.1323L239.368 134.172C239.368 134.172 215.588 132.905 203.088 132.24C198.467 131.996 194.076 134.269 191.604 138.177C187.657 144.437 181.656 153.942 177.772 160.095C175.396 163.852 175.148 168.571 177.109 172.556C180.502 179.445 185.863 190.335 189.274 197.278C191.272 201.334 190.972 206.142 188.494 209.923C183.849 217.005 176.816 227.735 176.816 227.735L111.967 184.964C111.967 184.964 117.895 175.36 121.962 168.775C124.289 165.01 128.401 162.713 132.824 162.712C140.819 162.705 153.709 162.698 161.665 162.696C166.041 162.695 170.111 160.446 172.453 156.75C176.339 150.604 182.389 141.049 186.361 134.769C188.825 130.873 189.003 125.951 186.818 121.893C181.057 111.176 170.285 91.1323 170.285 91.1323Z" fill="#FCE2DD"/>
<path d="M226.537 79.0658C245.723 91.345 262.85 98.8398 264.792 95.806C266.734 92.7721 252.754 80.3584 233.568 68.0792C214.382 55.8 197.254 48.3051 195.312 51.339C193.371 54.3729 207.35 66.7866 226.537 79.0658Z" fill="#FCE2DD"/>
<path fill-rule="evenodd" clip-rule="evenodd" d="M148.683 51.6237L146.82 42.0923L175.954 55.6832L154.066 79.0642L152.425 70.7012C103.104 81.4822 66.1469 125.442 66.1469 177.964C66.1469 238.554 115.342 287.749 175.931 287.749C195.63 287.749 214.124 282.55 230.11 273.455L246.999 285.878C226.605 299.343 202.174 307.188 175.931 307.188C104.613 307.188 46.707 249.283 46.707 177.964C46.707 115.992 90.4302 64.1424 148.683 51.6237ZM264.435 242.909L279.926 253.306C274.957 260.604 272.118 264.671 265.788 270.793L251.842 257.247C256.442 252.847 260.656 248.048 264.435 242.909ZM282.507 204.414L301.067 208.673C298.863 218.589 296.512 225.525 292.171 234.442L274.521 226.294C277.915 219.38 280.614 212.06 282.507 204.414ZM304.823 167.316C305.215 171.413 305.156 173.772 305.156 177.964C305.156 182.504 305.163 185.292 304.705 189.714L285.28 187.858C285.568 184.597 285.716 181.299 285.716 177.964C285.716 174.851 285.59 171.76 285.331 168.706L304.823 167.316ZM291.476 119.297C296.172 128.096 298.42 135.461 300.986 145.318L282.255 150.538C280.281 142.841 277.479 135.469 273.966 128.518L291.476 119.297Z" fill="#FCE2DD"/>
</svg>
