<svg width="450" height="397" viewBox="0 0 450 397" fill="none" xmlns="http://www.w3.org/2000/svg">
<path fill-rule="evenodd" clip-rule="evenodd" d="M284.107 108.158C284.107 108.158 202.468 48.104 183.292 38.4406C140.484 16.8673 83.5387 7.31697 44.1474 41.5371C8.54578 72.461 -1.05063 129.956 0.0884917 173.022C1.15537 213.278 16.7696 251.979 38.913 286.068C89.6455 364.183 183.626 413.306 281.073 390.787C371.597 369.868 441.745 262.468 384.377 181.691C362.629 151.07 315.358 127.041 284.107 108.158Z" fill="white"/>
<path fill-rule="evenodd" clip-rule="evenodd" d="M4.68296 117.883C5.22243 117.686 5.75701 117.493 6.29647 117.303C37.36 106.397 72.9157 109.731 101.262 126.477C195.257 182.014 219.793 351.197 363.88 296.486C377.788 291.207 390.701 283.302 401.883 273.462C388.926 328.266 339.197 377.357 281.072 390.793C183.629 413.31 89.6441 364.186 38.9097 286.07C16.7719 251.981 1.1519 213.28 0.0876832 173.024C-0.358603 156.049 0.857647 136.832 4.68296 117.883Z" fill="url(#paint0_linear)"/>
<path fill-rule="evenodd" clip-rule="evenodd" d="M450.001 300.098C450.001 286.951 439.326 276.275 426.177 276.275H324.396C311.247 276.275 300.57 286.951 300.57 300.098V347.742C300.57 360.889 311.247 371.562 324.396 371.562H426.177C439.326 371.562 450.001 360.889 450.001 347.742V300.098Z" fill="#FCE2DD"/>
<path d="M338.992 351.085V292.8H349.607V317.767H362.72V292.8H373.335V351.085H362.72V325.135H349.607V351.085H338.992Z" fill="#D1362B"/>
<path d="M383.321 351.085V292.8H399.036C405.176 292.8 409.755 294.11 412.982 296.729C416.104 299.349 417.665 303.032 417.665 307.862V335.122C417.665 340.606 416 344.618 412.669 347.155C409.235 349.775 404.448 351.085 398.099 351.085H383.321ZM393.937 300.658V343.226H398.828C401.846 343.226 403.927 342.653 405.176 341.425C406.425 340.279 407.049 338.478 407.049 335.94V307.862C407.049 305.57 406.425 303.769 405.28 302.541C404.135 301.313 401.95 300.658 398.828 300.658H393.937Z" fill="#D1362B"/>
<path fill-rule="evenodd" clip-rule="evenodd" d="M93.9253 89.7549C89.4199 83.6244 81.9955 80.1686 74.2942 80.6689C66.593 81.1692 -6.35808 114.635 38.4651 221.967C60.8362 275.529 106.748 334.543 141.137 359.09C215.946 412.422 262.707 365.297 264.959 359.526C267.209 353.805 266.517 347.346 263.101 342.147C255.25 330.109 245.215 314.884 237.28 302.841C229.837 291.541 215.733 286.355 202.554 290.037C185.415 294.752 171.398 317.126 145.451 288.049C123.667 263.604 105.302 243.187 97.6946 207.736C91.9043 180.799 114.424 173.201 125.217 161.785C132.313 154.424 133.065 143.163 127.016 134.901C117.86 122.377 104.654 104.361 93.9253 89.7549Z" fill="#D1362B"/>
<path fill-rule="evenodd" clip-rule="evenodd" d="M260.308 365.097C263.016 362.54 264.591 360.474 264.962 359.532C267.212 353.786 266.523 347.333 263.106 342.148C255.257 330.088 245.219 314.87 237.282 302.836C229.841 291.559 215.733 286.358 202.558 290.034C185.417 294.771 171.403 317.134 145.456 288.047C123.668 263.622 105.305 243.164 97.7 207.736C91.9048 180.772 114.427 173.195 125.214 161.792C132.312 154.421 133.068 143.157 127.016 134.91C117.859 122.375 104.653 104.374 93.929 89.7504C89.4231 83.6095 81.9987 80.173 74.2902 80.6658C72.7859 80.7621 68.7861 82.1193 63.6563 85.0435C64.9803 103.955 81.4996 128.716 89.4854 139.157C92.2652 142.795 99.2182 147.549 101.104 151.331C101.589 152.296 94.3726 160.704 93.6793 161.808C87.7316 171.283 82.3176 182.333 81.7214 193.664C80.0092 226.118 101.991 261.396 122.531 284.651C132.874 296.364 146.516 309.862 162.918 311.714C172.704 312.818 182.475 310.787 191.768 307.896C194.525 307.039 197.359 305.847 199.659 304.078C199.851 303.931 202.246 301.363 202.671 301.788C204.874 303.99 205.193 313.267 205.938 316.212C211.21 337.033 231.004 362.429 253.792 364.862C255.99 365.097 258.161 365.167 260.308 365.097Z" fill="#DF372C"/>
<path fill-rule="evenodd" clip-rule="evenodd" d="M167.563 155.308C210.018 159.549 241.041 197.457 236.799 239.905C236.221 245.68 240.439 250.837 246.215 251.414C251.988 251.99 257.145 247.771 257.723 241.995C263.12 187.999 223.658 139.781 169.654 134.386C163.88 133.809 158.723 138.029 158.146 143.802C157.569 149.575 161.789 154.731 167.563 155.308Z" fill="#333232"/>
<path fill-rule="evenodd" clip-rule="evenodd" d="M187.409 107.127C245.532 112.933 288.006 164.832 282.197 222.945C281.407 230.852 287.181 237.911 295.089 238.701C302.993 239.491 310.053 233.714 310.844 225.807C318.232 151.883 264.207 85.8697 190.272 78.4836C182.368 77.694 175.307 83.4711 174.517 91.3744C173.727 99.2776 179.505 106.337 187.409 107.127Z" fill="#333232"/>
<path fill-rule="evenodd" clip-rule="evenodd" d="M214.583 41.1764C294.159 49.1259 352.308 120.178 344.356 199.739C343.274 210.564 351.179 220.229 362.005 221.31C372.826 222.391 382.493 214.482 383.575 203.657C393.69 102.451 319.726 12.0741 218.503 1.96191C207.682 0.880852 198.015 8.79004 196.934 19.6102C195.852 30.4303 203.762 40.0953 214.583 41.1764Z" fill="#333232"/>
<defs>
<linearGradient id="paint0_linear" x1="479.836" y1="33.0829" x2="174.361" y2="507.296" gradientUnits="userSpaceOnUse">
<stop stop-color="white"/>
<stop offset="0.49" stop-color="white" stop-opacity="0.25"/>
<stop offset="1" stop-color="white" stop-opacity="0"/>
</linearGradient>
</defs>
</svg>
