<svg width="635" height="441" viewBox="0 0 635 441" fill="none" xmlns="http://www.w3.org/2000/svg">
<circle opacity="0.5" cx="484" cy="120" r="24.5" stroke="#424345"/>
<circle opacity="0.5" cx="577" cy="192" r="24.5" stroke="#424345"/>
<g opacity="0.35">
<path fill-rule="evenodd" clip-rule="evenodd" d="M568.861 176.416C568.326 175.689 567.445 175.279 566.532 175.338C565.618 175.397 556.961 179.369 562.28 192.107C564.935 198.463 570.383 205.467 574.464 208.38C583.341 214.71 588.89 209.117 589.157 208.432C589.424 207.753 589.342 206.987 588.936 206.37C588.005 204.941 586.814 203.134 585.872 201.705C584.989 200.364 583.315 199.748 581.752 200.185C579.718 200.745 578.055 203.4 574.975 199.949C572.391 197.048 570.211 194.625 569.309 190.418C568.621 187.221 571.294 186.319 572.574 184.965C573.416 184.091 573.506 182.755 572.788 181.774C571.701 180.288 570.134 178.15 568.861 176.416Z" fill="#D1362B"/>
<path fill-rule="evenodd" clip-rule="evenodd" d="M588.605 209.093C588.926 208.789 589.113 208.544 589.157 208.432C589.424 207.75 589.343 206.984 588.937 206.369C588.006 204.938 586.815 203.132 585.873 201.703C584.99 200.365 583.316 199.748 581.752 200.184C579.718 200.746 578.055 203.4 574.977 199.948C572.391 197.05 570.212 194.622 569.31 190.417C568.622 187.217 571.295 186.318 572.575 184.965C573.417 184.09 573.507 182.753 572.788 181.774C571.702 180.287 570.135 178.15 568.862 176.415C568.328 175.686 567.447 175.278 566.532 175.337C566.353 175.348 565.879 175.509 565.27 175.856C565.427 178.101 567.387 181.039 568.335 182.278C568.665 182.71 569.49 183.274 569.714 183.723C569.771 183.838 568.915 184.835 568.833 184.966C568.127 186.091 567.485 187.402 567.414 188.747C567.211 192.599 569.819 196.785 572.256 199.545C573.484 200.935 575.102 202.537 577.049 202.757C578.21 202.888 579.369 202.647 580.472 202.304C580.799 202.202 581.135 202.061 581.408 201.851C581.431 201.833 581.715 201.529 581.766 201.579C582.027 201.84 582.065 202.941 582.153 203.291C582.779 205.762 585.128 208.776 587.832 209.065C588.093 209.093 588.35 209.101 588.605 209.093Z" fill="#DF372C"/>
<path fill-rule="evenodd" clip-rule="evenodd" d="M587.915 173C584.931 173 582.472 175.624 582.472 178.893C582.472 182.163 584.931 184.787 587.915 184.787C590.9 184.787 593.357 182.163 593.357 178.893C593.357 175.624 590.9 173 587.915 173ZM587.915 174.243C590.243 174.243 592.097 176.344 592.097 178.893C592.097 181.443 590.243 183.544 587.915 183.544C585.587 183.544 583.732 181.443 583.732 178.893C583.732 176.344 585.587 174.243 587.915 174.243Z" fill="#1D1D1D"/>
<path fill-rule="evenodd" clip-rule="evenodd" d="M595.483 179.56C595.483 178.807 594.872 178.195 594.118 178.195H582.078C581.325 178.195 580.713 178.807 580.713 179.56V187.25C580.713 188.004 581.325 188.616 582.078 188.616H594.118C594.872 188.616 595.483 188.004 595.483 187.25V179.56Z" fill="#333232"/>
<path fill-rule="evenodd" clip-rule="evenodd" d="M583.55 188.616H582.078C581.325 188.616 580.713 188.004 580.713 187.25V179.56C580.713 178.807 581.325 178.195 582.078 178.195H594.118C594.339 178.195 594.548 178.247 594.733 178.341H584.164C583.411 178.341 582.8 178.953 582.8 179.706V187.397C582.8 187.929 583.105 188.391 583.55 188.616Z" fill="#1D1D1D"/>
<path fill-rule="evenodd" clip-rule="evenodd" d="M588.506 183.496C588.045 183.236 587.733 182.741 587.733 182.174C587.733 181.336 588.414 180.656 589.251 180.656C590.088 180.656 590.769 181.336 590.769 182.174C590.769 182.689 590.512 183.144 590.118 183.419L590.44 185.881L588.157 185.913L588.506 183.496Z" fill="#1D1D1D"/>
</g>
<g opacity="0.35">
<path fill-rule="evenodd" clip-rule="evenodd" d="M466.071 128.206C465.188 128.206 463.949 127.007 464.002 125.729C464.088 123.639 466.239 122.922 467.477 123.205C467.429 122.878 467.404 122.544 467.404 122.204C467.404 118.427 470.469 115.358 474.246 115.354C475.14 111.154 478.874 108 483.339 108C484.176 108 486.16 108.003 486.16 108.003C486.16 108.003 491.708 111.944 492.433 115.358C492.482 115.358 492.536 115.376 492.581 115.357C495.43 114.153 499.9 115.373 501.005 120.22C501.849 123.928 499.467 128.195 496.715 128.205C488.876 128.235 472.819 128.206 466.071 128.206Z" fill="#B42E25"/>
<path fill-rule="evenodd" clip-rule="evenodd" d="M468.893 128.206C468.011 128.206 466.771 127.007 466.824 125.729C466.91 123.639 469.061 122.922 470.299 123.205C470.251 122.878 470.226 122.544 470.226 122.204C470.226 118.427 473.291 115.358 477.068 115.354C477.963 111.154 481.696 108 486.161 108C490.627 108 494.363 111.157 495.255 115.358C495.304 115.358 495.358 115.376 495.404 115.357C498.252 114.153 502.722 115.373 503.827 120.22C504.672 123.928 502.289 128.195 499.537 128.205C491.699 128.235 475.641 128.206 468.893 128.206Z" fill="#D1362B"/>
</g>
<circle opacity="0.5" cx="236" cy="30" r="19.5" stroke="#424345"/>
<g opacity="0.35">
<path fill-rule="evenodd" clip-rule="evenodd" d="M243.238 22.1372C243.238 22.1372 236.791 17.3934 235.276 16.6301C231.895 14.926 227.398 14.1716 224.287 16.8747C221.475 19.3174 220.717 23.859 220.807 27.2608C220.891 30.4407 222.124 33.4976 223.873 36.1904C227.88 42.3608 235.302 46.241 242.999 44.4622C250.148 42.8098 255.689 34.3262 251.158 27.9456C249.44 25.5267 245.707 23.6287 243.238 22.1372Z" fill="white"/>
<path fill-rule="evenodd" clip-rule="evenodd" d="M221.17 22.9052C221.212 22.8897 221.254 22.8744 221.297 22.8594C223.75 21.9979 226.559 22.2613 228.797 23.5841C236.221 27.971 238.159 41.3349 249.539 37.0133C250.637 36.5962 251.657 35.9719 252.54 35.1946C251.517 39.5236 247.589 43.4014 242.999 44.4627C235.303 46.2414 227.88 42.361 223.873 36.1905C222.124 33.4978 220.891 30.4408 220.807 27.2609C220.771 25.92 220.868 24.402 221.17 22.9052Z" fill="url(#paint0_linear)"/>
<path fill-rule="evenodd" clip-rule="evenodd" d="M239.467 39.807L238.909 41.2003L231.873 41.1307L232.36 39.7373L239.467 39.807Z" fill="#282828"/>
<path d="M231.873 41.061H240.164V41.8274H231.873V41.061Z" fill="#282828"/>
<path fill-rule="evenodd" clip-rule="evenodd" d="M222.267 22.0508C222.267 21.6377 222.624 21.3022 223.063 21.3022H247.449C247.889 21.3022 248.246 21.6377 248.246 22.0508V39.2063C248.246 39.6195 247.889 39.9549 247.449 39.9549H223.063C222.624 39.9549 222.267 39.6195 222.267 39.2063V22.0508Z" fill="#282828"/>
<path fill-rule="evenodd" clip-rule="evenodd" d="M222.964 22.0508C222.964 21.6377 223.321 21.3022 223.76 21.3022H248.146C248.586 21.3022 248.942 21.6377 248.942 22.0508V39.2063C248.942 39.6195 248.586 39.9549 248.146 39.9549H223.76C223.321 39.9549 222.964 39.6195 222.964 39.2063V22.0508Z" fill="#333232"/>
<path d="M223.354 22.165H248.552V37.2743H223.354V22.165Z" fill="#D1362B"/>
<path d="M228.908 23.8989H241.68V37.2742H228.908V23.8989Z" fill="#B02E24"/>
<path d="M229.463 23.2656H242.235V37.2734H229.463V23.2656Z" fill="#FCE2DD"/>
<path fill-rule="evenodd" clip-rule="evenodd" d="M234.826 35.0667H230.641V35.3579H234.826V35.0667ZM240.936 34.2284H230.641V34.5196H240.936V34.2284ZM240.936 33.3901H230.641V33.6813H240.936V33.3901ZM240.936 32.5518H230.641V32.8431H240.936V32.5518ZM240.936 31.7136H230.641V32.0048H240.936V31.7136ZM238.557 30.1542H230.641V30.4454H238.557V30.1542ZM240.936 29.3159H230.641V29.6072H240.936V29.3159ZM240.936 28.4777H230.641V28.7689H240.936V28.4777ZM240.936 27.6394H230.641V27.9306H240.936V27.6394ZM240.936 26.8011H230.641V27.0924H240.936V26.8011ZM235.408 25.3579H230.641V25.6492H235.408V25.3579Z" fill="#333232"/>
<path fill-rule="evenodd" clip-rule="evenodd" d="M239.713 26.0989L246.148 15.1683C246.148 15.1683 246.974 15.0278 247.562 15.9499L240.887 26.6677L239.637 27.5823L239.713 26.0989Z" fill="#282828"/>
<path d="M246.653 15.9201C247.041 16.1365 247.447 16.149 247.559 15.9478C247.671 15.7467 247.448 15.4082 247.06 15.1917C246.672 14.9753 246.266 14.9629 246.154 15.164C246.042 15.3651 246.265 15.7036 246.653 15.9201Z" fill="#333232"/>
</g>
<circle opacity="0.5" cx="442" cy="20" r="19.5" stroke="#424345"/>
<g opacity="0.35">
<path fill-rule="evenodd" clip-rule="evenodd" d="M434.142 11.7764C433.787 11.2937 433.203 11.0216 432.597 11.061C431.99 11.1004 426.248 13.7352 429.776 22.1858C431.537 26.4028 435.152 31.0492 437.859 32.9819C443.748 37.1809 447.429 33.4706 447.607 33.0162C447.784 32.5658 447.729 32.0573 447.46 31.648C446.842 30.7002 446.052 29.5014 445.428 28.5533C444.842 27.6636 443.731 27.2553 442.694 27.5452C441.345 27.9164 440.241 29.678 438.198 27.3886C436.484 25.464 435.038 23.8565 434.439 21.0653C433.983 18.9445 435.756 18.3463 436.606 17.4475C437.164 16.8679 437.223 15.9814 436.747 15.3309C436.026 14.3448 434.987 12.9264 434.142 11.7764Z" fill="#D1362B"/>
<path fill-rule="evenodd" clip-rule="evenodd" d="M447.239 33.4545C447.453 33.2532 447.577 33.0905 447.606 33.0163C447.783 32.5639 447.729 32.0559 447.46 31.6477C446.842 30.6981 446.052 29.5 445.427 28.5525C444.841 27.6646 443.73 27.2551 442.693 27.5446C441.344 27.9175 440.241 29.6782 438.198 27.3881C436.483 25.4651 435.037 23.8543 434.439 21.065C433.983 18.942 435.756 18.3454 436.605 17.4476C437.163 16.8673 437.223 15.9804 436.747 15.3311C436.026 14.3442 434.986 12.927 434.142 11.7756C433.787 11.2921 433.203 11.0215 432.596 11.0603C432.477 11.0679 432.163 11.1748 431.759 11.405C431.863 12.894 433.163 14.8435 433.792 15.6655C434.011 15.952 434.558 16.3263 434.707 16.624C434.745 16.7 434.177 17.362 434.122 17.4489C433.654 18.1949 433.228 19.0649 433.181 19.957C433.046 22.5122 434.777 25.2898 436.393 27.1207C437.208 28.0429 438.282 29.1057 439.573 29.2515C440.343 29.3384 441.112 29.1785 441.844 28.9509C442.061 28.8834 442.284 28.7896 442.465 28.6503C442.48 28.6387 442.669 28.4365 442.702 28.47C442.876 28.6433 442.901 29.3738 442.959 29.6056C443.374 31.2449 444.933 33.2444 446.727 33.436C446.9 33.4545 447.07 33.46 447.239 33.4545Z" fill="#DF372C"/>
<path fill-rule="evenodd" clip-rule="evenodd" d="M456.038 10.5594C456.038 9.58761 455.251 8.7998 454.279 8.7998H454.241C453.269 8.7998 452.481 9.58761 452.481 10.5594C452.481 13.3137 452.481 18.3318 452.481 18.3318H457.852L456.297 17.001L456.038 16.3579V10.5594Z" fill="#333232"/>
<path fill-rule="evenodd" clip-rule="evenodd" d="M456.043 16.5724C456.043 17.5442 456.83 18.332 457.802 18.332H457.84C458.812 18.332 459.6 17.5442 459.6 16.5724C459.6 15.3555 459.6 13.9545 459.6 13.9545H456.043V16.5724Z" fill="#FCE2DD"/>
<path fill-rule="evenodd" clip-rule="evenodd" d="M452.482 25.221H441V10.8378C441 10.2973 441.215 9.77895 441.597 9.39673C441.979 9.01451 442.498 8.7998 443.038 8.7998H454.258H454.241C453.269 8.7998 452.482 9.58761 452.482 10.5594V25.221Z" fill="#FCE2DD"/>
<path fill-rule="evenodd" clip-rule="evenodd" d="M445.608 22.3256H441.952V22.7138H445.608V22.3256ZM450.945 21.2084H441.952V21.5966H450.945V21.2084ZM450.945 20.0913H441.952V20.4794H450.945V20.0913ZM450.945 18.9741H441.952V19.3622H450.945V18.9741ZM450.945 17.8569H441.952V18.245H450.945V17.8569ZM450.89 15.7787H441.952V16.1669H450.89V15.7787ZM450.945 14.6615H441.952V15.0497H450.945V14.6615ZM450.945 13.5444H441.952V13.9325H450.945V13.5444ZM450.945 12.4272H441.952V12.8153H450.945V12.4272ZM450.945 11.3101H441.952V11.6982H450.945V11.3101Z" fill="#333232"/>
</g>
<circle opacity="0.5" cx="587.5" cy="66.5" r="47" stroke="#424345"/>
<circle opacity="0.5" cx="95" cy="243" r="34.5" stroke="#424345"/>
<g opacity="0.35">
<path fill-rule="evenodd" clip-rule="evenodd" d="M112.767 224.279C112.767 223.573 112.194 223 111.489 223H72.3235C71.6178 223 71.0449 223.573 71.0449 224.279V253.581C71.0449 254.286 71.6178 254.859 72.3235 254.859H111.489C112.194 254.859 112.767 254.286 112.767 253.581V224.279Z" fill="#333232"/>
<path d="M112.141 226.291H71.6714V250.557H112.141V226.291Z" fill="#D1362B"/>
<path fill-rule="evenodd" clip-rule="evenodd" d="M121.064 228.855C121.064 228.389 120.686 228.011 120.219 228.011H98.0336C97.5671 228.011 97.189 228.389 97.189 228.855V261.452C97.189 261.918 97.5671 262.296 98.0336 262.296H120.219C120.686 262.296 121.064 261.918 121.064 261.452V228.855Z" fill="#282828"/>
<path d="M109.986 261.789C110.483 261.789 110.886 261.386 110.886 260.889C110.886 260.392 110.483 259.989 109.986 259.989C109.489 259.989 109.086 260.392 109.086 260.889C109.086 261.386 109.489 261.789 109.986 261.789Z" fill="#D1362B"/>
<path fill-rule="evenodd" clip-rule="evenodd" d="M120.132 229.855C120.132 229.442 119.784 229.106 119.354 229.106H98.9003C98.4701 229.106 98.1216 229.442 98.1216 229.855V258.73C98.1216 259.143 98.4701 259.478 98.9003 259.478H119.354C119.784 259.478 120.132 259.143 120.132 258.73V229.855Z" fill="#D1362B"/>
<path fill-rule="evenodd" clip-rule="evenodd" d="M106.348 236.176C106.348 235.601 105.881 235.135 105.307 235.135H89.3848C88.8103 235.135 88.3438 235.601 88.3438 236.176V267.91C88.3438 268.484 88.8103 268.951 89.3848 268.951H105.307C105.881 268.951 106.348 268.484 106.348 267.91V236.176Z" fill="#282828"/>
<path fill-rule="evenodd" clip-rule="evenodd" d="M105.353 237.007C105.353 236.494 104.934 236.077 104.418 236.077H90.1182C89.6021 236.077 89.1831 236.494 89.1831 237.007V265.362C89.1831 265.876 89.6021 266.292 90.1182 266.292H104.418C104.934 266.292 105.353 265.876 105.353 265.362V237.007Z" fill="#DF372C"/>
<path fill-rule="evenodd" clip-rule="evenodd" d="M98.831 267.463C98.831 267.204 98.6204 266.994 98.3613 266.994H96.0912C95.8321 266.994 95.6216 267.204 95.6216 267.463C95.6216 267.722 95.8321 267.933 96.0912 267.933H98.3613C98.6204 267.933 98.831 267.722 98.831 267.463Z" fill="#D1362B"/>
</g>
<circle opacity="0.5" cx="594.5" cy="302.5" r="37" stroke="#424345"/>
<circle opacity="0.5" cx="365.5" cy="403.5" r="37" stroke="#424345"/>
<circle opacity="0.5" cx="446" cy="310" r="29.5" stroke="#424345"/>
<g opacity="0.35">
<path fill-rule="evenodd" clip-rule="evenodd" d="M431.275 296.343C430.772 295.659 429.943 295.273 429.084 295.329C428.224 295.385 420.083 299.12 425.085 311.1C427.582 317.078 432.706 323.665 436.544 326.404C444.892 332.357 450.111 327.097 450.362 326.453C450.613 325.815 450.536 325.094 450.155 324.513C449.279 323.17 448.159 321.47 447.273 320.126C446.442 318.865 444.868 318.286 443.398 318.697C441.485 319.223 439.921 321.721 437.025 318.475C434.594 315.747 432.544 313.468 431.695 309.511C431.049 306.505 433.562 305.657 434.767 304.382C435.559 303.561 435.643 302.304 434.967 301.382C433.946 299.984 432.472 297.973 431.275 296.343Z" fill="#D1362B"/>
<path fill-rule="evenodd" clip-rule="evenodd" d="M449.842 327.074C450.144 326.789 450.32 326.558 450.361 326.453C450.612 325.812 450.536 325.091 450.154 324.513C449.278 323.167 448.158 321.468 447.272 320.125C446.442 318.866 444.867 318.286 443.397 318.696C441.484 319.225 439.92 321.721 437.025 318.474C434.593 315.748 432.544 313.465 431.695 309.51C431.049 306.501 433.562 305.655 434.766 304.382C435.558 303.56 435.642 302.302 434.967 301.382C433.945 299.983 432.471 297.974 431.274 296.341C430.772 295.656 429.943 295.272 429.083 295.327C428.915 295.338 428.469 295.49 427.896 295.816C428.044 297.927 429.887 300.691 430.779 301.856C431.089 302.262 431.865 302.793 432.075 303.215C432.129 303.322 431.324 304.261 431.247 304.384C430.583 305.442 429.979 306.675 429.912 307.94C429.721 311.562 432.174 315.5 434.466 318.095C435.621 319.403 437.143 320.909 438.973 321.116C440.066 321.239 441.156 321.012 442.193 320.69C442.501 320.594 442.817 320.461 443.074 320.264C443.095 320.247 443.362 319.96 443.41 320.008C443.656 320.254 443.691 321.289 443.774 321.618C444.363 323.942 446.572 326.776 449.115 327.048C449.36 327.074 449.602 327.082 449.842 327.074Z" fill="#DF372C"/>
<path fill-rule="evenodd" clip-rule="evenodd" d="M467 300.859C467 299.148 465.611 297.76 463.901 297.76H440.708C438.997 297.76 437.608 299.148 437.608 300.859V307.057C437.608 308.768 438.997 310.157 440.708 310.157H463.901C465.611 310.157 467 308.768 467 307.057V300.859Z" fill="#333232"/>
<path d="M442.402 303.353V301.928H443.621C443.877 301.928 444.068 301.985 444.196 302.091C444.323 302.205 444.387 302.382 444.387 302.63C444.387 302.885 444.323 303.069 444.196 303.183C444.068 303.296 443.877 303.353 443.621 303.353H442.402ZM441.29 301.063V306.124H442.402V304.147H443.515C443.792 304.147 443.997 304.21 444.118 304.331C444.238 304.451 444.323 304.65 444.359 304.912C444.387 305.118 444.408 305.33 444.422 305.55C444.436 305.77 444.472 305.961 444.536 306.124H445.648C445.599 306.053 445.556 305.968 445.535 305.862C445.507 305.763 445.485 305.656 445.478 305.543C445.464 305.429 445.457 305.316 445.45 305.21C445.443 305.103 445.443 305.004 445.436 304.926C445.429 304.799 445.408 304.671 445.386 304.544C445.358 304.416 445.315 304.295 445.259 304.189C445.202 304.083 445.131 303.991 445.039 303.913C444.947 303.835 444.833 303.778 444.699 303.743V303.728C444.982 303.615 445.188 303.452 445.315 303.232C445.436 303.013 445.5 302.757 445.5 302.46C445.5 302.268 445.464 302.084 445.4 301.914C445.33 301.751 445.23 301.602 445.103 301.475C444.968 301.347 444.812 301.248 444.635 301.17C444.451 301.099 444.245 301.063 444.018 301.063H441.29Z" fill="#FCE2DD"/>
<path d="M446.407 301.063V306.124H450.249V305.189H447.52V303.948H449.972V303.083H447.52V301.999H450.192V301.063H446.407Z" fill="#FCE2DD"/>
<path d="M454.373 302.763H455.451C455.415 302.473 455.337 302.211 455.21 301.984C455.082 301.757 454.919 301.566 454.728 301.41C454.529 301.261 454.309 301.14 454.061 301.062C453.813 300.984 453.544 300.942 453.268 300.942C452.878 300.942 452.53 301.013 452.226 301.147C451.914 301.282 451.652 301.473 451.439 301.714C451.226 301.955 451.063 302.239 450.95 302.558C450.836 302.884 450.78 303.238 450.78 303.614C450.78 303.983 450.836 304.323 450.95 304.642C451.063 304.961 451.226 305.244 451.439 305.478C451.652 305.712 451.914 305.896 452.226 306.031C452.53 306.173 452.878 306.236 453.268 306.236C453.579 306.236 453.863 306.187 454.125 306.095C454.387 306.002 454.614 305.861 454.806 305.684C454.997 305.506 455.153 305.287 455.273 305.031C455.394 304.776 455.465 304.493 455.493 304.174H454.416C454.373 304.514 454.26 304.79 454.068 304.996C453.877 305.202 453.608 305.308 453.268 305.308C453.019 305.308 452.807 305.258 452.63 305.159C452.452 305.067 452.311 304.939 452.204 304.776C452.098 304.613 452.02 304.436 451.971 304.231C451.921 304.032 451.893 303.827 451.893 303.614C451.893 303.394 451.921 303.175 451.971 302.969C452.02 302.763 452.098 302.572 452.204 302.409C452.311 302.246 452.452 302.118 452.63 302.019C452.807 301.927 453.019 301.877 453.268 301.877C453.402 301.877 453.537 301.899 453.664 301.941C453.785 301.991 453.898 302.055 453.998 302.133C454.097 302.211 454.182 302.303 454.246 302.409C454.309 302.515 454.352 302.636 454.373 302.763Z" fill="#FCE2DD"/>
<path d="M461.977 306.003C463.309 306.003 464.389 304.923 464.389 303.59C464.389 302.258 463.309 301.178 461.977 301.178C460.644 301.178 459.564 302.258 459.564 303.59C459.564 304.923 460.644 306.003 461.977 306.003Z" fill="#D1362B"/>
</g>
<circle opacity="0.5" cx="54.5" cy="367.5" r="27" stroke="#424345"/>
<circle opacity="0.5" cx="206.5" cy="363.5" r="27" stroke="#424345"/>
<g opacity="0.35">
<path fill-rule="evenodd" clip-rule="evenodd" d="M210.944 348.184C210.793 348.204 210.342 347.542 210.336 347.538C210.15 347.39 209.958 347.263 209.749 347.149C209.244 346.873 208.7 346.664 208.136 346.549C206.404 346.196 204.382 346.134 202.725 346.81C201.471 347.321 200.393 348.19 199.54 349.233C197.501 351.722 197.697 354.164 199.571 356.601C200.161 357.368 201.039 357.794 201.875 358.23C203.05 358.843 204 359.555 205.368 359.62C206.636 359.681 207.552 359.029 208.594 358.412C210.38 357.355 211.869 356.557 212.774 354.58C213.298 353.434 214.025 349.45 212.803 348.57C212.392 348.275 211.443 348.119 210.944 348.184Z" fill="#333232"/>
<path fill-rule="evenodd" clip-rule="evenodd" d="M192.544 378.995C192.544 378.995 193.103 374.931 193.471 372.252C193.663 370.853 194.573 369.711 195.792 369.339C198.318 368.568 202.329 367.343 202.329 367.343H209.629C209.629 367.343 213.78 368.203 216.241 368.714C217.317 368.937 218.168 369.86 218.401 371.057C218.947 373.858 219.88 378.647 219.88 378.647C219.88 378.647 192.572 378.907 192.544 378.995Z" fill="#333232"/>
<path fill-rule="evenodd" clip-rule="evenodd" d="M209.911 367.401L206.313 378.787L206.223 378.788L205.554 378.795L201.562 367.577L202.33 367.343H209.629L209.911 367.401Z" fill="#D1362B"/>
<path d="M203.353 363.409L202.935 367.618C202.935 367.618 203.462 370.025 206.395 369.528C209.327 369.031 209.07 367.695 209.07 367.695L208.488 363.222L203.353 363.409Z" fill="#F8A273"/>
<path d="M205.096 366.639C205.878 367.571 206.153 368.643 207.383 368.658C207.927 368.658 208.274 368.751 208.706 368.348C208.818 368.239 208.93 368.13 209.028 368.006L208.642 363.222L203.406 363.548C203.797 364.682 204.342 365.738 205.096 366.639Z" fill="url(#paint1_linear)"/>
<path d="M199.527 354.444C199.571 354.594 199.615 354.744 199.656 354.894C199.744 355.222 199.819 355.552 199.909 355.88C199.954 356.046 200.001 356.213 200.056 356.377C200.091 356.48 200.132 356.582 200.179 356.68C200.2 356.724 200.315 357.009 200.386 357.009C200.436 357.009 200.451 356.865 200.456 356.837C200.49 356.657 200.499 356.471 200.504 356.288C200.52 355.659 200.476 355.018 200.384 354.396C200.349 354.165 200.154 353.75 200.421 353.597C201.1 353.206 202.015 353.177 202.77 353.157C204.103 353.122 205.447 353.194 206.768 352.979C207.671 352.832 208.509 352.526 209.277 352.026C209.465 351.903 209.646 351.768 209.837 351.649C209.87 351.629 209.992 351.534 210.041 351.565C210.149 351.633 210.128 351.989 210.139 352.089C210.181 352.46 210.35 352.755 210.537 353.072C210.7 353.348 210.893 353.618 211.158 353.804C211.252 353.869 211.471 353.932 211.441 354.079C211.327 354.649 211.251 355.189 211.251 355.777C211.251 355.92 211.249 356.063 211.259 356.206C211.26 356.211 211.266 356.336 211.277 356.336C211.291 356.336 211.343 356.546 211.422 356.37C211.082 358.555 210.556 361.707 210.033 362.353C209.319 363.253 205.948 365.381 205.948 365.381C205.948 365.381 203.273 364.046 202.112 362.43C201.322 361.331 200.456 358.92 199.527 354.444Z" fill="#F8A273"/>
<path d="M205.787 357.165C206.154 357.118 206.399 359.929 206.399 360.162C206.399 360.395 205.312 360.162 205.312 360.162C205.312 360.162 205.515 357.211 205.787 357.165Z" fill="url(#paint2_linear)"/>
<path fill-rule="evenodd" clip-rule="evenodd" d="M202.865 366.764L205.756 369.555L203.114 371.947L201.469 367.561L202.865 366.764Z" fill="#FCE2DD"/>
<path fill-rule="evenodd" clip-rule="evenodd" d="M209.095 366.714L205.755 369.505L208.497 371.848L210.341 367.511L209.095 366.714Z" fill="#FCE2DD"/>
<path fill-rule="evenodd" clip-rule="evenodd" d="M200.173 368.708L200.023 373.442L201.369 373.592L201.868 377.38L203.911 378.626L202.665 377.131L201.967 372.745H200.472L200.173 368.708Z" fill="#282828"/>
<path fill-rule="evenodd" clip-rule="evenodd" d="M211.936 368.708L212.085 373.442L210.74 373.592L210.241 377.38L208.198 378.626L209.444 377.131L210.142 372.745H211.637L211.936 368.708Z" fill="#282828"/>
<path fill-rule="evenodd" clip-rule="evenodd" d="M210.713 359.936L211.926 353.897C211.926 353.897 214.876 354.506 214.197 357.604C213.53 360.65 210.713 359.936 210.713 359.936Z" fill="#D1362B"/>
<path fill-rule="evenodd" clip-rule="evenodd" d="M201.091 359.933L199.877 353.647C199.877 353.647 196.927 354.281 197.606 357.506C198.274 360.676 201.091 359.933 201.091 359.933Z" fill="#D1362B"/>
<path fill-rule="evenodd" clip-rule="evenodd" d="M211.417 360.008C211.002 360.009 210.713 359.936 210.713 359.936L211.927 353.896C211.927 353.896 212.218 353.956 212.597 354.135L211.417 360.008Z" fill="#282828"/>
<path fill-rule="evenodd" clip-rule="evenodd" d="M200.387 360.009C200.802 360.01 201.091 359.934 201.091 359.934L199.877 353.648C199.877 353.648 199.586 353.711 199.207 353.897L200.387 360.009Z" fill="#282828"/>
<path fill-rule="evenodd" clip-rule="evenodd" d="M210.839 348.173C210.839 348.173 213.785 349.713 212.783 354.752L213.481 354.951C213.481 354.951 214.394 349.65 211.587 348.173H210.839Z" fill="#D1362B"/>
<path fill-rule="evenodd" clip-rule="evenodd" d="M212.35 359.272C212.593 359.31 212.478 359.765 212.402 360.091C212.101 361.376 211.205 362.572 209.922 362.949C208.759 363.29 207.464 363.178 206.279 362.94C206.279 362.94 206.044 362.786 206.194 362.653C206.249 362.603 206.325 362.612 206.429 362.632C207.609 362.848 208.861 362.966 209.958 362.59C211.179 362.172 212.046 360.822 212.164 359.511C212.172 359.42 212.172 359.389 212.19 359.357C212.218 359.304 212.249 359.268 212.35 359.272Z" fill="#333232"/>
<path d="M206.478 363.324C207.043 363.324 207.5 363.09 207.5 362.801C207.5 362.512 207.043 362.278 206.478 362.278C205.914 362.278 205.457 362.512 205.457 362.801C205.457 363.09 205.914 363.324 206.478 363.324Z" fill="#D1362B"/>
<path d="M222.719 364.932C226.74 364.932 230 361.672 230 357.651C230 353.63 226.74 350.37 222.719 350.37C218.698 350.37 215.438 353.63 215.438 357.651C215.438 361.672 218.698 364.932 222.719 364.932Z" fill="#FCE2DD"/>
<path fill-rule="evenodd" clip-rule="evenodd" d="M222.076 351.4L222.075 351.346C222.073 351.227 222.136 351.117 222.238 351.057C222.341 350.997 222.468 350.998 222.57 351.058C222.925 351.268 223.395 351.546 223.735 351.746C223.831 351.803 223.892 351.905 223.896 352.016C223.9 352.128 223.848 352.234 223.756 352.298C223.426 352.529 222.964 352.852 222.613 353.098C222.514 353.167 222.384 353.176 222.276 353.121C222.167 353.066 222.099 352.955 222.097 352.833L222.094 352.644C219.522 352.973 217.531 355.173 217.531 357.834C217.531 360.722 219.875 363.066 222.763 363.066C225.355 363.066 227.509 361.178 227.924 358.703L227.914 358.704C227.795 358.705 227.685 358.643 227.625 358.54C227.565 358.438 227.566 358.311 227.626 358.209C227.836 357.854 228.114 357.383 228.315 357.044C228.371 356.947 228.473 356.887 228.584 356.882C228.696 356.878 228.802 356.931 228.866 357.022C229.097 357.352 229.42 357.814 229.666 358.165C229.735 358.265 229.744 358.395 229.689 358.503C229.633 358.611 229.523 358.68 229.402 358.682L229.178 358.685C228.761 361.855 226.046 364.304 222.763 364.304C219.192 364.304 216.293 361.405 216.293 357.834C216.293 354.495 218.828 351.743 222.076 351.4ZM227.928 356.061C227.998 356.266 228.221 356.375 228.426 356.304C228.631 356.234 228.74 356.011 228.669 355.806C228.599 355.601 228.376 355.492 228.171 355.562C227.966 355.633 227.857 355.856 227.928 356.061ZM227.139 354.571C227.269 354.745 227.515 354.78 227.688 354.651C227.862 354.521 227.897 354.275 227.768 354.102C227.638 353.928 227.392 353.893 227.219 354.022C227.045 354.152 227.01 354.398 227.139 354.571ZM225.934 353.391C226.111 353.517 226.356 353.476 226.482 353.3C226.608 353.124 226.567 352.879 226.391 352.753C226.215 352.627 225.97 352.668 225.844 352.844C225.718 353.02 225.758 353.265 225.934 353.391ZM224.429 352.634C224.635 352.7 224.856 352.586 224.922 352.38C224.988 352.174 224.874 351.953 224.668 351.887C224.462 351.821 224.241 351.935 224.175 352.141C224.109 352.347 224.223 352.568 224.429 352.634Z" fill="#D1362B"/>
<path d="M220.109 360.567V359.809L221.561 357.072C221.632 356.937 221.679 356.811 221.687 356.709C221.695 356.614 221.703 356.48 221.703 356.33C221.703 356.259 221.703 356.188 221.703 356.109C221.695 356.038 221.679 355.967 221.656 355.912C221.632 355.857 221.593 355.801 221.537 355.762C221.482 355.722 221.411 355.707 221.309 355.707C221.19 355.707 221.096 355.738 221.025 355.809C220.946 355.88 220.914 355.975 220.914 356.109V356.567H220.109V356.125C220.109 355.959 220.141 355.801 220.204 355.651C220.267 355.501 220.354 355.375 220.464 355.265C220.567 355.154 220.693 355.068 220.843 354.997C220.993 354.933 221.151 354.902 221.317 354.902C221.53 354.902 221.711 354.941 221.861 355.012C222.011 355.091 222.129 355.194 222.232 355.328C222.326 355.462 222.397 355.612 222.445 355.778C222.484 355.943 222.508 356.125 222.508 356.314C222.508 356.448 222.508 356.567 222.5 356.653C222.492 356.748 222.484 356.835 222.468 356.922C222.453 357.008 222.429 357.087 222.39 357.174C222.35 357.261 222.303 357.364 222.24 357.482L221.056 359.762H222.508V360.567H220.109Z" fill="#333232"/>
<path d="M224.449 360.566V359.73H222.848V358.973L224.007 354.949H224.86L223.652 358.973H224.449V357.371H225.254V358.973H225.641V359.73H225.254V360.566H224.449Z" fill="#333232"/>
</g>
<g opacity="0.35">
<path fill-rule="evenodd" clip-rule="evenodd" d="M65.2986 351.076C65.2986 350.314 64.7042 349.696 63.9716 349.696H46.4871C45.7545 349.696 45.1602 350.314 45.1602 351.076V386.379C45.1602 387.141 45.7545 387.759 46.4871 387.759H63.9716C64.7042 387.759 65.2986 387.141 65.2986 386.379V351.076Z" fill="#333232"/>
<path fill-rule="evenodd" clip-rule="evenodd" d="M64.6716 383.757C64.6716 383.916 64.6094 384.069 64.4995 384.182C64.3892 384.294 64.2396 384.358 64.0833 384.358C61.4141 384.358 50.4524 384.358 47.7831 384.358C47.6268 384.358 47.4772 384.294 47.3669 384.182C47.257 384.069 47.1948 383.916 47.1948 383.757C47.1948 379.708 47.1948 356.45 47.1948 352.402C47.1948 352.243 47.257 352.09 47.3669 351.977C47.4772 351.865 47.6268 351.801 47.7831 351.801C50.4524 351.801 61.4141 351.801 64.0833 351.801C64.2396 351.801 64.3892 351.865 64.4995 351.977C64.6094 352.09 64.6716 352.243 64.6716 352.402C64.6716 356.45 64.6716 379.708 64.6716 383.757Z" fill="#D1362B"/>
<path fill-rule="evenodd" clip-rule="evenodd" d="M47.7827 351.801C50.4526 351.801 61.4142 351.801 64.0835 351.801C64.2394 351.801 64.389 351.865 64.4994 351.977C64.6093 352.09 64.6717 352.243 64.6717 352.402C64.6717 356.45 64.6717 379.708 64.6717 383.757C64.6717 383.916 64.6093 384.069 64.4994 384.182C64.389 384.294 64.2394 384.358 64.0835 384.358H63.5022C63.6581 384.358 63.8076 384.294 63.9181 384.182C64.028 384.069 64.0904 383.916 64.0904 383.757C64.0904 379.708 64.0904 356.45 64.0904 352.402C64.0904 352.243 64.028 352.09 63.9181 351.977C63.8076 351.865 63.6581 351.801 63.5022 351.801H47.7827Z" fill="#DF372C"/>
<path fill-rule="evenodd" clip-rule="evenodd" d="M47.651 349.696C46.9638 349.696 46.4058 350.314 46.4058 351.076V386.379C46.4058 387.141 46.9638 387.759 47.651 387.759H46.4873C45.755 387.759 45.1602 387.141 45.1602 386.379V351.076C45.1602 350.314 45.755 349.696 46.4873 349.696H47.651Z" fill="#282828"/>
<path fill-rule="evenodd" clip-rule="evenodd" d="M63.1055 355.557C63.1055 355.005 62.6576 354.558 62.1066 354.558H50.3651C49.8141 354.558 49.3662 355.005 49.3662 355.557V364.534C49.3662 365.085 49.8141 365.533 50.3651 365.533H62.1066C62.6576 365.533 63.1055 365.085 63.1055 364.534V355.557Z" fill="#FCE2DD"/>
<path fill-rule="evenodd" clip-rule="evenodd" d="M56.2334 355.717C54.5903 355.717 53.2368 357.161 53.2368 358.961C53.2368 360.762 54.5903 362.206 56.2334 362.206C57.8766 362.206 59.2296 360.762 59.2296 358.961C59.2296 357.161 57.8766 355.717 56.2334 355.717ZM56.2334 356.401C57.515 356.401 58.5359 357.558 58.5359 358.961C58.5359 360.365 57.515 361.522 56.2334 361.522C54.9519 361.522 53.9306 360.365 53.9306 358.961C53.9306 357.558 54.9519 356.401 56.2334 356.401Z" fill="#1D1D1D"/>
<path fill-rule="evenodd" clip-rule="evenodd" d="M60.3998 359.33C60.3998 358.915 60.0633 358.578 59.6485 358.578H53.0199C52.605 358.578 52.2686 358.915 52.2686 359.33V363.564C52.2686 363.979 52.605 364.315 53.0199 364.315H59.6485C60.0633 364.315 60.3998 363.979 60.3998 363.564V359.33Z" fill="#333232"/>
<path fill-rule="evenodd" clip-rule="evenodd" d="M53.8302 364.315H53.0199C52.605 364.315 52.2686 363.979 52.2686 363.564V359.33C52.2686 358.915 52.605 358.578 53.0199 358.578H59.6485C59.7702 358.578 59.885 358.607 59.9868 358.659H54.1685C53.7537 358.659 53.4172 358.995 53.4172 359.41V363.644C53.4172 363.937 53.5854 364.191 53.8302 364.315Z" fill="#1D1D1D"/>
<path fill-rule="evenodd" clip-rule="evenodd" d="M56.5587 361.497C56.3047 361.354 56.1328 361.081 56.1328 360.769C56.1328 360.308 56.5075 359.934 56.9685 359.934C57.4294 359.934 57.8041 360.308 57.8041 360.769C57.8041 361.053 57.6626 361.303 57.446 361.454L57.623 362.81L56.366 362.828L56.5587 361.497Z" fill="#1D1D1D"/>
<path fill-rule="evenodd" clip-rule="evenodd" d="M63.0688 369.241C63.0688 368.938 62.8219 368.691 62.5183 368.691H50.0408C49.7372 368.691 49.4902 368.938 49.4902 369.241V370.343C49.4902 370.646 49.7372 370.893 50.0408 370.893H62.5183C62.8219 370.893 63.0688 370.646 63.0688 370.343V369.241Z" fill="#FCE2DD"/>
<path fill-rule="evenodd" clip-rule="evenodd" d="M63.0688 372.398C63.0688 372.094 62.8219 371.848 62.5183 371.848H50.0408C49.7372 371.848 49.4902 372.094 49.4902 372.398V373.499C49.4902 373.803 49.7372 374.05 50.0408 374.05H62.5183C62.8219 374.05 63.0688 373.803 63.0688 373.499V372.398Z" fill="#FCE2DD"/>
<path d="M52.3223 369.542L52.4258 369.349L52.7883 369.571L52.7735 369.142H53.0102L52.9954 369.571L53.3579 369.349L53.4615 369.542L53.0916 369.749L53.4615 369.952L53.3579 370.148L52.9954 369.926L53.0102 370.355H52.7735L52.7883 369.926L52.4258 370.148L52.3223 369.952L52.6921 369.749L52.3223 369.542Z" fill="#333232"/>
<path d="M54.0347 369.542L54.1382 369.349L54.5007 369.571L54.4859 369.142H54.7226L54.7078 369.571L55.0703 369.349L55.1739 369.542L54.804 369.749L55.1739 369.952L55.0703 370.148L54.7078 369.926L54.7226 370.355H54.4859L54.5007 369.926L54.1382 370.148L54.0347 369.952L54.4045 369.749L54.0347 369.542Z" fill="#333232"/>
<path d="M55.7471 369.542L55.8506 369.349L56.2132 369.571L56.1984 369.142H56.4351L56.4203 369.571L56.7829 369.349L56.8864 369.542L56.5165 369.749L56.8864 369.952L56.7829 370.148L56.4203 369.926L56.4351 370.355H56.1984L56.2132 369.926L55.8506 370.148L55.7471 369.952L56.117 369.749L55.7471 369.542Z" fill="#333232"/>
<path d="M57.4595 369.542L57.563 369.349L57.9255 369.571L57.9107 369.142H58.1474L58.1326 369.571L58.4951 369.349L58.5987 369.542L58.2288 369.749L58.5987 369.952L58.4951 370.148L58.1326 369.926L58.1474 370.355H57.9107L57.9255 369.926L57.563 370.148L57.4595 369.952L57.8293 369.749L57.4595 369.542Z" fill="#333232"/>
<path d="M59.1719 369.542L59.2754 369.349L59.6379 369.571L59.6232 369.142H59.8599L59.8451 369.571L60.2076 369.349L60.3112 369.542L59.9413 369.749L60.3112 369.952L60.2076 370.148L59.8451 369.926L59.8599 370.355H59.6232L59.6379 369.926L59.2754 370.148L59.1719 369.952L59.5418 369.749L59.1719 369.542Z" fill="#333232"/>
<path d="M52.3223 372.699L52.4258 372.506L52.7883 372.728L52.7735 372.299H53.0102L52.9954 372.728L53.3579 372.506L53.4615 372.699L53.0916 372.906L53.4615 373.109L53.3579 373.305L52.9954 373.083L53.0102 373.513H52.7735L52.7883 373.083L52.4258 373.305L52.3223 373.109L52.6921 372.906L52.3223 372.699Z" fill="#333232"/>
<path d="M54.0347 372.699L54.1382 372.506L54.5007 372.728L54.4859 372.299H54.7226L54.7078 372.728L55.0703 372.506L55.1739 372.699L54.804 372.906L55.1739 373.109L55.0703 373.305L54.7078 373.083L54.7226 373.513H54.4859L54.5007 373.083L54.1382 373.305L54.0347 373.109L54.4045 372.906L54.0347 372.699Z" fill="#333232"/>
<path d="M55.7471 372.699L55.8506 372.506L56.2132 372.728L56.1984 372.299H56.4351L56.4203 372.728L56.7829 372.506L56.8864 372.699L56.5165 372.906L56.8864 373.109L56.7829 373.305L56.4203 373.083L56.4351 373.513H56.1984L56.2132 373.083L55.8506 373.305L55.7471 373.109L56.117 372.906L55.7471 372.699Z" fill="#333232"/>
<path d="M57.4595 372.699L57.563 372.506L57.9255 372.728L57.9107 372.299H58.1474L58.1326 372.728L58.4951 372.506L58.5987 372.699L58.2288 372.906L58.5987 373.109L58.4951 373.305L58.1326 373.083L58.1474 373.513H57.9107L57.9255 373.083L57.563 373.305L57.4595 373.109L57.8293 372.906L57.4595 372.699Z" fill="#333232"/>
<path d="M59.1719 372.699L59.2754 372.506L59.6379 372.728L59.6232 372.299H59.8599L59.8451 372.728L60.2076 372.506L60.3112 372.699L59.9413 372.906L60.3112 373.109L60.2076 373.305L59.8451 373.083L59.8599 373.513H59.6232L59.6379 373.083L59.2754 373.305L59.1719 373.109L59.5418 372.906L59.1719 372.699Z" fill="#333232"/>
<path fill-rule="evenodd" clip-rule="evenodd" d="M59.0546 376.277C59.0546 375.985 58.8172 375.748 58.525 375.748H54.036C53.7438 375.748 53.5068 375.985 53.5068 376.277V377.048C53.5068 377.341 53.7438 377.578 54.036 377.578H58.525C58.8172 377.578 59.0546 377.341 59.0546 377.048V376.277Z" fill="#FCE2DD"/>
</g>
<g opacity="0.35">
<path fill-rule="evenodd" clip-rule="evenodd" d="M340.288 387.051C340.37 387.021 340.45 386.992 340.531 386.964C345.201 385.324 350.546 385.825 354.807 388.343C368.938 396.693 372.626 422.13 394.287 413.904C396.378 413.11 398.319 411.922 400 410.442C398.052 418.682 390.576 426.063 381.838 428.083C367.19 431.469 353.061 424.083 345.434 412.338C342.106 407.213 339.758 401.394 339.598 395.341C339.531 392.789 339.713 389.9 340.288 387.051Z" fill="url(#paint3_linear)"/>
<path fill-rule="evenodd" clip-rule="evenodd" d="M375.118 419.221L374.057 421.873L360.663 421.741L361.591 419.088L375.118 419.221Z" fill="#282828"/>
<path d="M360.662 421.609H376.443V423.068H360.662V421.609Z" fill="#282828"/>
<path fill-rule="evenodd" clip-rule="evenodd" d="M342.378 385.425C342.378 384.638 343.057 384 343.893 384H390.31C391.147 384 391.826 384.638 391.826 385.425V418.079C391.826 418.866 391.147 419.504 390.31 419.504H343.893C343.057 419.504 342.378 418.866 342.378 418.079V385.425Z" fill="#282828"/>
<path fill-rule="evenodd" clip-rule="evenodd" d="M343.704 385.425C343.704 384.639 344.383 384 345.219 384H391.637C392.473 384 393.152 384.639 393.152 385.425V418.08C393.152 418.866 392.473 419.505 391.637 419.505H345.219C344.383 419.505 343.704 418.866 343.704 418.08V385.425Z" fill="#333232"/>
<path d="M344.447 385.642H392.411V414.402H344.447V385.642Z" fill="#D1362B"/>
<path fill-rule="evenodd" clip-rule="evenodd" d="M357.438 393.842C357.438 392.14 356.056 390.757 354.353 390.757H333.084C331.382 390.757 330 392.14 330 393.842V400.012C330 401.714 331.382 403.096 333.084 403.096H354.353C356.056 403.096 357.438 401.714 357.438 400.012V393.842Z" fill="#FCE2DD"/>
<path d="M337.634 398.21L337.057 395.234H337.034L336.457 398.21H337.634ZM334.727 401.082L336.561 392.869H337.541L339.376 401.082H338.199L337.853 399.317H336.249L335.903 401.082H334.727Z" fill="#333232"/>
<path d="M343.758 392.869V399.237C343.758 399.502 343.712 399.756 343.62 399.975C343.516 400.206 343.377 400.413 343.204 400.586C343.031 400.759 342.824 400.898 342.593 401.002C342.362 401.105 342.12 401.152 341.855 401.152C341.589 401.152 341.347 401.105 341.128 401.002C340.897 400.898 340.689 400.759 340.516 400.586C340.343 400.413 340.205 400.206 340.101 399.975C339.997 399.756 339.951 399.502 339.951 399.237V392.869H341.128V399.121C341.128 399.41 341.197 399.629 341.335 399.767C341.474 399.906 341.647 399.975 341.855 399.975C342.062 399.975 342.235 399.906 342.374 399.767C342.512 399.629 342.581 399.41 342.581 399.121V392.869H343.758Z" fill="#333232"/>
<path d="M345.64 401.082V393.976H344.279V392.869H348.178V393.976H346.817V401.082H345.64Z" fill="#333232"/>
<path d="M348.489 394.806C348.489 394.471 348.547 394.183 348.662 393.929C348.778 393.675 348.928 393.467 349.124 393.294C349.308 393.133 349.516 393.006 349.758 392.925C349.989 392.844 350.22 392.798 350.462 392.798C350.704 392.798 350.935 392.844 351.177 392.925C351.408 393.006 351.616 393.133 351.812 393.294C351.996 393.467 352.146 393.675 352.262 393.929C352.377 394.183 352.435 394.471 352.435 394.806V399.143C352.435 399.489 352.377 399.789 352.262 400.031C352.146 400.274 351.996 400.481 351.812 400.643C351.616 400.816 351.408 400.943 351.177 401.023C350.935 401.104 350.704 401.15 350.462 401.15C350.22 401.15 349.989 401.104 349.758 401.023C349.516 400.943 349.308 400.816 349.124 400.643C348.928 400.481 348.778 400.274 348.662 400.031C348.547 399.789 348.489 399.489 348.489 399.143V394.806ZM349.666 399.143C349.666 399.431 349.747 399.639 349.908 399.766C350.058 399.904 350.243 399.974 350.462 399.974C350.681 399.974 350.866 399.904 351.027 399.766C351.177 399.639 351.258 399.431 351.258 399.143V394.806C351.258 394.517 351.177 394.31 351.027 394.171C350.866 394.044 350.681 393.975 350.462 393.975C350.243 393.975 350.058 394.044 349.908 394.171C349.747 394.31 349.666 394.517 349.666 394.806V399.143Z" fill="#333232"/>
<path fill-rule="evenodd" clip-rule="evenodd" d="M357.906 409.033L354.865 404.76L352.782 406.243L353.221 400.075L359.192 401.682L357.108 403.164L360.149 407.437L357.906 409.033Z" fill="#333232"/>
<path d="M369.9 392.983C370.028 393.022 370.154 393.067 370.277 393.118C370.794 393.333 371.237 393.635 371.608 394.025C371.978 394.415 372.271 394.878 372.485 395.414C372.7 395.95 372.807 396.521 372.807 397.126H369.999C369.98 396.619 369.818 396.238 369.516 395.985C369.214 395.731 368.868 395.605 368.478 395.605C368.01 395.605 367.649 395.755 367.395 396.058C367.142 396.36 367.015 396.706 367.015 397.096C367.015 397.369 367.083 397.637 367.22 397.901C367.356 398.164 367.708 398.403 368.273 398.618L370.028 399.319C371.14 399.749 371.905 400.334 372.325 401.075C372.744 401.816 372.954 402.625 372.954 403.503C372.954 404.127 372.841 404.707 372.617 405.243C372.393 405.78 372.086 406.253 371.696 406.662C371.306 407.072 370.838 407.394 370.291 407.628C370.164 407.683 370.033 407.731 369.9 407.773V409.809H367.397V407.86C366.664 407.694 366.019 407.353 365.465 406.838C365.055 406.467 364.724 406.004 364.47 405.448C364.217 404.892 364.08 404.244 364.061 403.503H366.869C366.927 403.912 367.069 404.293 367.293 404.644C367.518 404.995 367.912 405.17 368.478 405.17C368.907 405.17 369.292 405.029 369.633 404.746C369.975 404.463 370.145 404.068 370.145 403.561C370.145 403.152 370.038 402.801 369.823 402.508C369.609 402.216 369.219 401.962 368.653 401.748L367.22 401.221C366.284 400.87 365.548 400.348 365.011 399.656C364.475 398.964 364.207 398.12 364.207 397.126C364.207 396.501 364.324 395.921 364.558 395.385C364.792 394.849 365.114 394.386 365.523 393.996C365.913 393.605 366.372 393.308 366.898 393.103C367.061 393.04 367.227 392.986 367.397 392.943L367.474 390.978H369.977L369.9 392.983Z" fill="#FCE2DD"/>
</g>
<g opacity="0.35">
<path d="M604.247 314.887C614.433 314.887 622.69 306.629 622.69 296.443C622.69 286.257 614.433 278 604.247 278C594.061 278 585.804 286.257 585.804 296.443C585.804 306.629 594.061 314.887 604.247 314.887Z" fill="#D1362B"/>
<path fill-rule="evenodd" clip-rule="evenodd" d="M604.358 279.497L604.467 279.498L604.569 279.499L604.682 279.501L604.762 279.503L604.84 279.505L604.929 279.508L605.032 279.511L605.11 279.515L605.2 279.519L605.301 279.525L605.379 279.53L605.456 279.534L605.531 279.539L605.646 279.548C607.548 279.694 609.361 280.156 611.035 280.881L611.118 280.918L611.205 280.956L611.283 280.991L611.373 281.032L611.441 281.064L611.538 281.109L611.606 281.142L611.735 281.204L611.822 281.246L611.911 281.291L611.979 281.326L612.046 281.36L612.113 281.394C612.55 281.621 612.975 281.867 613.389 282.131C613.39 282.131 613.392 282.132 613.393 282.133C618.103 285.134 621.229 290.402 621.229 296.396C621.229 302.283 618.213 307.471 613.643 310.496C613.641 310.497 613.64 310.499 613.637 310.5C612.737 311.096 611.775 311.608 610.764 312.025L610.69 312.055L610.618 312.084L610.522 312.122L610.426 312.16L610.308 312.205L610.206 312.243L610.139 312.268L610.067 312.294L609.996 312.32L609.924 312.345L609.852 312.37L609.78 312.395L609.708 312.419L609.636 312.444L609.563 312.467L609.491 312.491L609.419 312.513C608.288 312.871 607.105 313.112 605.885 313.224L605.805 313.231L605.726 313.238L605.647 313.244L605.55 313.251L605.449 313.258L605.369 313.263L605.289 313.267L605.209 313.272L605.129 313.276L605.038 313.28L604.932 313.284L604.851 313.287L604.771 313.289L604.69 313.29L604.609 313.292L604.528 313.293L604.448 313.294L604.367 313.294H604.249L604.168 313.294L604.086 313.293L604.005 313.291L603.924 313.289L603.843 313.287L603.762 313.285L603.681 313.282L603.601 313.279L603.52 313.275L603.44 313.271L603.359 313.267L603.279 313.262L603.199 313.257L603.12 313.251L603.04 313.245L602.96 313.239C600.248 313.021 597.716 312.161 595.516 310.813L595.445 310.769L595.352 310.711L595.331 310.698C595.199 310.615 595.068 310.529 594.938 310.442C594.937 310.441 594.935 310.44 594.933 310.439C590.411 307.405 587.432 302.245 587.432 296.396C587.432 290.438 590.522 285.196 595.187 282.186C595.188 282.185 595.189 282.185 595.191 282.183C595.236 282.154 595.282 282.125 595.328 282.096L595.411 282.044C597.688 280.624 600.327 279.732 603.157 279.537L603.236 279.532L603.314 279.527L603.408 279.522L603.509 279.517L603.588 279.514L603.678 279.51L603.782 279.506L603.862 279.504L603.941 279.501L604.031 279.5L604.136 279.498L604.216 279.498L604.304 279.497H604.358ZM604.911 307.373L604.949 311.814C606.829 311.628 608.557 310.596 609.99 308.988C610.107 308.858 610.221 308.724 610.333 308.586C608.856 307.889 606.973 307.449 604.911 307.373ZM603.544 307.376C601.556 307.459 599.737 307.88 598.294 308.544C598.417 308.696 598.543 308.845 598.671 308.988C600.072 310.558 601.752 311.579 603.582 311.799L603.544 307.376ZM611.534 309.273C611.363 309.489 611.189 309.698 611.01 309.899C610.716 310.229 610.411 310.536 610.095 310.821C610.671 310.59 611.23 310.326 611.77 310.031L611.868 309.977L611.892 309.963C611.993 309.907 612.092 309.85 612.191 309.792C611.991 309.611 611.771 309.438 611.534 309.273ZM597.084 309.217C596.835 309.385 596.604 309.561 596.395 309.747C597.086 310.159 597.811 310.519 598.566 310.821C598.251 310.536 597.945 310.229 597.651 309.899C597.457 309.681 597.268 309.454 597.084 309.217ZM619.852 296.978H615.46C615.387 301.338 614.196 305.277 612.321 308.171C612.711 308.439 613.061 308.726 613.365 309.028C617.151 306.314 619.669 301.942 619.852 296.978ZM593.202 296.978H588.81C588.992 301.91 591.478 306.257 595.223 308.975C595.537 308.67 595.899 308.38 596.302 308.111C594.45 305.223 593.274 301.308 593.202 296.978ZM614.093 296.978H604.822L604.899 306.006C607.287 306.089 609.454 306.636 611.142 307.481C612.913 304.782 614.021 301.077 614.093 296.978ZM603.456 296.978H594.568C594.64 301.053 595.736 304.738 597.488 307.433C599.137 306.628 601.23 306.103 603.533 306.01L603.456 296.978ZM593.216 295.605C593.38 291.22 594.675 287.293 596.649 284.475C596.218 284.214 595.828 283.93 595.486 283.63C591.648 286.295 589.068 290.645 588.818 295.605H593.216ZM603.444 295.605L603.365 286.344C601.303 286.242 599.415 285.794 597.873 285.111C595.977 287.734 594.747 291.451 594.583 295.605H603.444ZM614.078 295.605C613.914 291.427 612.671 287.692 610.757 285.067C609.09 285.824 607.007 286.303 604.732 286.361L604.811 295.605H614.078ZM619.843 295.605C619.592 290.614 616.981 286.242 613.104 283.581C612.772 283.879 612.393 284.16 611.974 284.42C613.97 287.242 615.28 291.192 615.445 295.605H619.843ZM604.689 281.27L604.72 284.994C606.644 284.944 608.419 284.577 609.866 283.978C608.391 282.378 606.616 281.381 604.689 281.27ZM603.323 281.341C601.632 281.617 600.076 282.576 598.761 284.016C600.073 284.545 601.647 284.886 603.353 284.976L603.323 281.341ZM599.245 281.717C598.358 282.024 597.508 282.41 596.703 282.866C596.943 283.052 597.205 283.228 597.487 283.394C597.541 283.331 597.596 283.268 597.651 283.206C598.152 282.644 598.686 282.145 599.245 281.717ZM609.416 281.717C609.976 282.145 610.509 282.644 611.01 283.206C611.051 283.251 611.092 283.298 611.132 283.344C611.403 283.181 611.655 283.007 611.886 282.825C611.641 282.688 611.393 282.558 611.141 282.435L611.062 282.396L611.019 282.376C610.5 282.127 609.965 281.907 609.416 281.717Z" fill="#333232"/>
<path fill-rule="evenodd" clip-rule="evenodd" d="M577.97 286.969C577.267 286.012 576.108 285.473 574.906 285.551C573.704 285.629 562.319 290.852 569.314 307.605C572.806 315.966 579.971 325.177 585.338 329.009C597.014 337.333 604.311 329.978 604.663 329.077C605.014 328.184 604.906 327.176 604.373 326.364C603.148 324.485 601.582 322.109 600.343 320.229C599.181 318.465 596.98 317.656 594.923 318.23C592.249 318.966 590.061 322.459 586.012 317.92C582.612 314.104 579.746 310.918 578.558 305.384C577.655 301.18 581.169 299.994 582.854 298.212C583.961 297.063 584.078 295.305 583.134 294.016C581.705 292.061 579.644 289.249 577.97 286.969Z" fill="#D1362B"/>
<path fill-rule="evenodd" clip-rule="evenodd" d="M603.936 329.945C604.359 329.545 604.604 329.223 604.662 329.076C605.013 328.179 604.906 327.172 604.373 326.362C603.148 324.48 601.581 322.105 600.342 320.226C599.181 318.466 596.979 317.654 594.923 318.228C592.248 318.967 590.061 322.458 586.011 317.918C582.611 314.105 579.745 310.912 578.558 305.382C577.654 301.174 581.169 299.991 582.852 298.211C583.96 297.061 584.078 295.302 583.134 294.015C581.705 292.059 579.644 289.249 577.97 286.966C577.267 286.008 576.108 285.471 574.905 285.548C574.67 285.563 574.046 285.775 573.245 286.232C573.452 289.183 576.03 293.048 577.276 294.678C577.71 295.246 578.795 295.988 579.09 296.578C579.165 296.729 578.039 298.041 577.931 298.214C577.003 299.693 576.158 301.417 576.065 303.186C575.798 308.252 579.228 313.758 582.434 317.388C584.048 319.216 586.177 321.323 588.737 321.612C590.264 321.784 591.789 321.467 593.239 321.016C593.669 320.882 594.112 320.696 594.471 320.42C594.501 320.397 594.875 319.996 594.941 320.063C595.285 320.406 595.334 321.854 595.451 322.314C596.273 325.564 599.363 329.528 602.919 329.908C603.262 329.945 603.601 329.955 603.936 329.945Z" fill="#DF372C"/>
</g>
<circle opacity="0.5" cx="47.5" cy="87.5" r="47" stroke="#424345"/>
<g opacity="0.35">
<path d="M47.5 125C68.2107 125 85 108.211 85 87.5001C85 66.7894 68.2107 50 47.5 50C26.7893 50 10 66.7894 10 87.5001C10 108.211 26.7893 125 47.5 125Z" fill="#D1362B"/>
<path fill-rule="evenodd" clip-rule="evenodd" d="M49.8017 87.9954L55.2017 100.931C55.2858 101.132 55.4796 101.265 55.698 101.27C55.9152 101.275 56.1161 101.151 56.2084 100.954C58.2229 96.6689 65.4295 81.3365 67.9508 75.9738C68.1447 75.5627 68.1167 75.0815 67.8773 74.695C67.6378 74.3084 67.2198 74.0702 66.7655 74.0597C65.8336 74.0399 64.939 74.02 64.939 74.02L64.8105 72.1947L73.9733 72.1211L73.8332 74.0235C73.8332 74.0235 73.0717 74.0153 72.4318 74.0083C71.9051 74.0013 71.4228 74.3049 71.1997 74.7826C69.1572 79.1584 59.1396 100.626 55.5299 108.362C55.3033 108.846 54.8128 109.15 54.2791 109.137C53.7454 109.124 53.2701 108.796 53.0692 108.302L47.1274 93.726L40.2979 108.362C40.0714 108.846 39.5809 109.15 39.0472 109.137C38.5135 109.124 38.0393 108.796 37.8373 108.302C34.6632 100.513 25.9524 79.1433 24.1364 74.6892C23.9344 74.1917 23.4544 73.8635 22.9172 73.8542C21.8977 73.8355 20.3608 73.8074 20.3608 73.8074L20.3877 72.141L33.3365 72.2682L33.3494 73.8028C33.3494 73.8028 31.9328 73.8226 30.6587 73.8402C30.2126 73.846 29.7992 74.0725 29.5551 74.4451C29.3099 74.8176 29.2667 75.2883 29.4383 75.6993C31.6735 81.0562 38.1526 96.579 39.9698 100.931C40.0538 101.132 40.2477 101.265 40.4661 101.27C40.6833 101.275 40.8842 101.151 40.9764 100.954L45.8486 90.5892L39.3683 74.6892C39.1651 74.1917 38.6863 73.8635 38.1491 73.8542C37.1296 73.8355 35.5916 73.8074 35.5916 73.8074L35.6196 72.141L48.5685 72.2682L48.5813 73.8028C48.5813 73.8028 47.1647 73.8226 45.8906 73.8402C45.4445 73.846 45.0311 74.0725 44.7859 74.4451C44.5418 74.8176 44.4974 75.2883 44.6691 75.6993L48.5159 84.9147L52.7201 75.9738C52.9128 75.5627 52.8847 75.0815 52.6453 74.695C52.4059 74.3084 51.9878 74.0702 51.5336 74.0597C50.6016 74.0399 49.7071 74.02 49.7071 74.02L49.5786 72.1947L58.7414 72.1211L58.6024 74.0235C58.6024 74.0235 57.841 74.0153 57.1998 74.0083C56.6732 74.0013 56.1908 74.3049 55.9678 74.7826L49.8017 87.9954Z" fill="#FCE2DD"/>
</g>
<g opacity="0.35">
<path fill-rule="evenodd" clip-rule="evenodd" d="M589.344 45.2026C596.857 45.2387 604.216 48.8973 608.771 54.9478C614.088 62.0105 615.158 72.0287 611.29 80.1137C608.031 86.9227 601.482 92.0608 594.03 93.5392C586.358 95.0604 578.018 92.6538 572.327 87.1622C568.425 83.397 565.827 78.3188 565.09 72.9369C564.054 65.3609 566.785 57.36 572.38 51.9938C576.845 47.7111 582.95 45.2327 589.187 45.2026C589.24 45.2026 589.291 45.2026 589.344 45.2026ZM589.195 47.8137C580.249 47.8565 571.635 53.8058 568.642 62.5552C566.418 69.0562 567.49 76.6151 571.534 82.2664C575.552 87.8793 582.332 91.395 589.265 91.395C597.39 91.395 605.347 86.485 608.935 78.986C612.334 71.8833 611.521 62.9415 606.686 56.5174C602.657 51.1655 596.131 47.8451 589.335 47.8137C589.288 47.8137 589.243 47.8137 589.195 47.8137Z" fill="#333232"/>
<path fill-rule="evenodd" clip-rule="evenodd" d="M579.788 71.2364C586.607 71.2665 593.221 75.4643 596.075 81.8228C598.726 87.7314 597.879 95.0243 593.814 100.196C589.798 105.305 582.862 107.978 576.344 106.727C569.126 105.343 563.079 99.1906 562.005 91.6976C561.069 85.1706 564.015 78.2253 569.585 74.3886C572.492 72.3859 575.987 71.277 579.556 71.2364C579.634 71.2364 579.711 71.2349 579.788 71.2364ZM615.444 54.4223C622.529 54.4569 629.35 59.7456 630.744 67.1378C631.864 73.066 629.244 79.5599 624.09 83.0205C619.064 86.3954 612.001 86.5127 606.817 83.0987C603.139 80.6778 600.556 76.6425 599.931 72.2731C598.99 65.6964 602.665 58.6774 608.923 55.8246C610.963 54.8933 613.207 54.4193 615.444 54.4223ZM576.938 27C585.481 27.0393 593.719 32.7046 596.624 41.0277C598.817 47.3085 597.792 54.6194 593.887 60.0737C590.042 65.4451 583.536 68.8305 576.872 68.8305C569.058 68.8305 561.437 64.1226 557.993 56.9245C554.773 50.1959 555.463 41.7383 560.002 35.5542C563.858 30.301 570.25 27.0302 576.804 27C576.849 27 576.894 27 576.938 27Z" fill="#333232"/>
<path d="M576.869 66.3639C587.06 66.3639 595.321 58.1027 595.321 47.9122C595.321 37.7216 587.06 29.4604 576.869 29.4604C566.679 29.4604 558.417 37.7216 558.417 47.9122C558.417 58.1027 566.679 66.3639 576.869 66.3639Z" fill="#FCE2DD"/>
<path fill-rule="evenodd" clip-rule="evenodd" d="M562.171 53.4173C564.402 47.4687 570.146 43.2275 576.872 43.2275C583.597 43.2275 589.342 47.4687 591.572 53.4173C589.342 59.3659 583.597 63.607 576.872 63.607C570.146 63.607 564.402 59.3659 562.171 53.4173Z" fill="#D1362B"/>
<path d="M576.874 41.5765C579.459 41.5765 581.556 39.4804 581.556 36.8947C581.556 34.309 579.459 32.2129 576.874 32.2129C574.288 32.2129 572.192 34.309 572.192 36.8947C572.192 39.4804 574.288 41.5765 576.874 41.5765Z" fill="#D1362B"/>
<path d="M579.73 104.581C588.259 104.581 595.173 97.6671 595.173 89.1384C595.173 80.6097 588.259 73.6958 579.73 73.6958C571.201 73.6958 564.288 80.6097 564.288 89.1384C564.288 97.6671 571.201 104.581 579.73 104.581Z" fill="#FCE2DD"/>
<path fill-rule="evenodd" clip-rule="evenodd" d="M567.43 93.7482C569.297 88.7697 574.105 85.2202 579.733 85.2202C585.361 85.2202 590.169 88.7697 592.036 93.7482C590.169 98.7267 585.361 102.276 579.733 102.276C574.105 102.276 569.297 98.7267 567.43 93.7482Z" fill="#D1362B"/>
<path d="M579.735 83.841C581.899 83.841 583.653 82.0867 583.653 79.9227C583.653 77.7587 581.899 76.0044 579.735 76.0044C577.571 76.0044 575.817 77.7587 575.817 79.9227C575.817 82.0867 577.571 83.841 579.735 83.841Z" fill="#D1362B"/>
<path d="M615.394 83.1997C622.661 83.1997 628.552 77.3087 628.552 70.0418C628.552 62.7748 622.661 56.8838 615.394 56.8838C608.127 56.8838 602.236 62.7748 602.236 70.0418C602.236 77.3087 608.127 83.1997 615.394 83.1997Z" fill="#FCE2DD"/>
<path fill-rule="evenodd" clip-rule="evenodd" d="M604.912 73.9685C606.503 69.7265 610.599 66.7021 615.395 66.7021C620.191 66.7021 624.288 69.7265 625.878 73.9685C624.288 78.2105 620.191 81.2348 615.395 81.2348C610.599 81.2348 606.503 78.2105 604.912 73.9685Z" fill="#D1362B"/>
<path d="M615.401 65.5284C617.245 65.5284 618.74 64.0336 618.74 62.1897C618.74 60.3458 617.245 58.8511 615.401 58.8511C613.557 58.8511 612.062 60.3458 612.062 62.1897C612.062 64.0336 613.557 65.5284 615.401 65.5284Z" fill="#D1362B"/>
</g>
<path fill-rule="evenodd" clip-rule="evenodd" d="M174.298 59.8276C169.294 53.0179 161.048 49.1792 152.495 49.7349C143.941 50.2906 62.9187 87.4628 112.702 206.686C137.549 266.182 188.542 331.734 226.736 359.002C309.823 418.243 361.757 365.897 364.259 359.486C366.757 353.132 365.989 345.957 362.195 340.183C353.475 326.811 342.33 309.899 333.517 296.522C325.25 283.97 309.585 278.209 294.948 282.299C275.912 287.536 260.345 312.389 231.526 280.09C207.332 252.937 186.935 230.258 178.485 190.879C172.054 160.957 197.066 152.518 209.052 139.838C216.934 131.661 217.769 119.153 211.05 109.976C200.881 96.064 186.214 76.052 174.298 59.8276Z" fill="#D1362B"/>
<path fill-rule="evenodd" clip-rule="evenodd" d="M359.083 365.668C362.09 362.827 363.839 360.533 364.251 359.486C366.75 353.103 365.985 345.936 362.19 340.177C353.473 326.78 342.325 309.876 333.51 296.509C325.246 283.982 309.577 278.205 294.944 282.289C275.907 287.55 260.342 312.391 231.525 280.081C207.327 252.95 186.932 230.226 178.486 190.873C172.05 160.921 197.064 152.505 209.044 139.838C216.928 131.65 217.767 119.139 211.046 109.978C200.875 96.054 186.208 76.0595 174.298 59.8153C169.294 52.994 161.048 49.1768 152.487 49.7242C150.816 49.8312 146.374 51.3387 140.676 54.5869C142.147 75.5938 160.494 103.098 169.363 114.696C172.45 118.737 180.172 124.018 182.267 128.218C182.805 129.291 174.791 138.63 174.021 139.856C167.415 150.381 161.402 162.655 160.74 175.242C158.838 211.291 183.252 250.478 206.064 276.309C217.551 289.32 232.703 304.313 250.919 306.37C261.787 307.597 272.639 305.341 282.96 302.13C286.022 301.177 289.17 299.854 291.724 297.889C291.938 297.725 294.598 294.872 295.07 295.344C297.516 297.79 297.87 308.096 298.698 311.367C304.553 334.495 326.537 362.704 351.847 365.407C354.287 365.668 356.699 365.745 359.083 365.668Z" fill="#E0382D"/>
<path fill-rule="evenodd" clip-rule="evenodd" d="M532.113 250.247C532.113 216.618 504.851 189.356 471.223 189.356H469.782C436.154 189.356 408.891 216.618 408.891 250.247V290.253H532.113V250.247Z" fill="#424345"/>
<path fill-rule="evenodd" clip-rule="evenodd" d="M453.408 191.589C455.444 197.669 456.545 204.174 456.545 210.937V250.942H408.891V250.251C408.891 222.296 427.731 198.74 453.408 191.589Z" fill="#282828"/>
<path d="M470.506 180.215C486.432 180.215 499.342 167.305 499.342 151.379C499.342 135.454 486.432 122.544 470.506 122.544C454.581 122.544 441.671 135.454 441.671 151.379C441.671 167.305 454.581 180.215 470.506 180.215Z" fill="#424345"/>
<path fill-rule="evenodd" clip-rule="evenodd" d="M442.054 200.485C442.054 166.856 414.792 139.594 381.164 139.594H379.722C346.094 139.594 318.832 166.856 318.832 200.485V240.491H442.054V200.485Z" fill="#424345"/>
<path fill-rule="evenodd" clip-rule="evenodd" d="M365.494 141.268C367.718 147.59 368.928 154.387 368.928 161.465V201.471H318.832V200.488C318.832 171.758 338.729 147.676 365.494 141.268Z" fill="#282828"/>
<path d="M380.447 130.46C396.373 130.46 409.283 117.55 409.283 101.625C409.283 85.6992 396.373 72.7891 380.447 72.7891C364.522 72.7891 351.612 85.6992 351.612 101.625C351.612 117.55 364.522 130.46 380.447 130.46Z" fill="#424345"/>
<path fill-rule="evenodd" clip-rule="evenodd" d="M351.992 150.7C351.992 117.071 324.729 89.8091 291.101 89.8091H289.66C256.032 89.8091 228.77 117.071 228.77 150.7V190.705H351.992V150.7Z" fill="#424345"/>
<path d="M290.383 80.6711C306.308 80.6711 319.219 67.761 319.219 51.8355C319.219 35.9101 306.308 23 290.383 23C274.457 23 261.547 35.9101 261.547 51.8355C261.547 67.761 274.457 80.6711 290.383 80.6711Z" fill="#424345"/>
<defs>
<linearGradient id="paint0_linear" x1="258.697" y1="16.2068" x2="234.566" y2="53.6623" gradientUnits="userSpaceOnUse">
<stop stop-color="white"/>
<stop offset="0.49" stop-color="white" stop-opacity="0.25"/>
<stop offset="1" stop-color="white" stop-opacity="0"/>
</linearGradient>
<linearGradient id="paint1_linear" x1="206.044" y1="372.333" x2="208.869" y2="342.014" gradientUnits="userSpaceOnUse">
<stop stop-color="#E87746" stop-opacity="0"/>
<stop offset="1" stop-color="#E87746"/>
</linearGradient>
<linearGradient id="paint2_linear" x1="206.105" y1="356.915" x2="208.366" y2="362.297" gradientUnits="userSpaceOnUse">
<stop stop-color="#E87746" stop-opacity="0"/>
<stop offset="1" stop-color="#E87746"/>
</linearGradient>
<linearGradient id="paint3_linear" x1="411.719" y1="374.301" x2="365.788" y2="445.594" gradientUnits="userSpaceOnUse">
<stop stop-color="white"/>
<stop offset="0.49" stop-color="white" stop-opacity="0.25"/>
<stop offset="1" stop-color="white" stop-opacity="0"/>
</linearGradient>
</defs>
</svg>
