<?xml version="1.0" encoding="UTF-8" standalone="no"?><!DOCTYPE svg PUBLIC "-//W3C//DTD SVG 1.1//EN" "http://www.w3.org/Graphics/SVG/1.1/DTD/svg11.dtd"><svg width="100%" height="100%" viewBox="0 0 4167 4167" version="1.1" xmlns="http://www.w3.org/2000/svg" xmlns:xlink="http://www.w3.org/1999/xlink" xml:space="preserve" xmlns:serif="http://www.serif.com/" style="fill-rule:evenodd;clip-rule:evenodd;stroke-linecap:round;stroke-linejoin:round;stroke-miterlimit:10;"><path id="XMLID_1313_" d="M3790.83,2776.25l-3392.08,0c-20.833,0 -37.5,-16.667 -37.5,-37.5c0,-20.833 16.667,-37.5 37.5,-37.5l3392.5,0c20.833,0 37.5,16.667 37.5,37.5c-0.417,20.833 -17.083,37.5 -37.917,37.5Z" style="fill:#444e59;fill-rule:nonzero;"/><g id="XMLID_24_"><rect id="XMLID_6_" x="1697.5" y="2699.17" width="586.667" height="35" style="fill:#444e59;"/><g id="XMLID_104_"><path id="XMLID_76_" d="M2691.67,2470.42l-1384.17,-0c-27.5,-0 -50,-22.5 -50,-50l0,-927.084c0,-27.5 22.5,-50 50,-50l1384.17,0c27.5,0 50,22.5 50,50l-0,926.667c-0,27.917 -22.084,50.417 -50,50.417Z" style="fill:#bbbfc2;fill-rule:nonzero;"/><path id="XMLID_80_" d="M2653.7,2294.5l0,-757.083l-1302.5,0l0,757.083l1302.5,0Z" style="fill:#28a8e0;"/><path id="XMLID_18_" d="M2695,2470.42l-217.083,-0l-0,-395c-0,-31.667 25.416,-57.084 57.083,-57.084l160,0l0,452.084Z" style="fill:#848484;fill-opacity:0.4;fill-rule:nonzero;"/><path id="XMLID_107_" d="M1362.92,2088.75l-105.417,0l0,311.25c0,38.75 33.333,70.417 72.5,70.417l121.25,-0l0,-291.667c-0.417,-48.75 -40,-90 -88.333,-90Z" style="fill:#848484;fill-opacity:0.4;fill-rule:nonzero;"/><path id="XMLID_5_" d="M2695.83,2470.42l-1386.67,-0c-27.5,-0 -50,-22.5 -50,-50l-0,-927.084c-0,-27.5 22.5,-50 50,-50l1386.67,0c27.5,0 50,22.5 50,50l0,926.667c0,27.917 -22.5,50.417 -50,50.417Z" style="fill:none;fill-rule:nonzero;stroke:#444e59;stroke-width:16.67px;"/><path id="XMLID_7_" d="M2652.02,2294.49l0,-757.083l-1298.75,-0l0,757.083l1298.75,0Z" style="fill:none;stroke:#444e59;stroke-width:16.67px;"/></g><path id="XMLID_179_" d="M2399.58,2257.92l-715.833,-0c-16.25,-0 -29.167,-13.334 -29.167,-29.167l0,-510.833c0,-16.25 13.334,-29.167 29.167,-29.167l715.833,0c16.25,0 29.167,13.333 29.167,29.167l0,510.416c0,16.25 -12.917,29.584 -29.167,29.584Z" style="fill:#848484;fill-opacity:0.32;fill-rule:nonzero;"/><path id="XMLID_134_" d="M2366.25,2229.58l-715.833,0c-16.25,0 -29.167,-13.333 -29.167,-29.166l0,-510.417c0,-16.25 13.333,-29.167 29.167,-29.167l715.833,0c16.25,0 29.167,13.334 29.167,29.167l-0,510.417c0.416,16.25 -12.917,29.166 -29.167,29.166Z" style="fill:#afb1b2;fill-rule:nonzero;"/><path id="XMLID_137_" d="M2366.25,2229.58l-715.833,0c-16.25,0 -29.167,-13.333 -29.167,-29.166l0,-510.417c0,-16.25 13.333,-29.167 29.167,-29.167l715.833,0c16.25,0 29.167,13.334 29.167,29.167l-0,510.417c0.416,16.25 -12.917,29.166 -29.167,29.166Z" style="fill:none;fill-rule:nonzero;stroke:#444e59;stroke-width:16.67px;"/><path id="XMLID_96_" d="M2177.08,2699.17l-349.166,-0l43.333,-228.75l262.5,-0l43.333,228.75Z" style="fill:#aeaeaf;fill-rule:nonzero;"/><path id="XMLID_99_" d="M2145.42,2535l-11.667,-64.583l-262.5,-0l-11.667,64.583l285.834,0Z" style="fill:#848484;fill-opacity:0.32;fill-rule:nonzero;"/><path id="XMLID_3_" d="M2177.08,2699.17l-349.166,-0l43.333,-228.75l262.5,-0l43.333,228.75Z" style="fill:none;fill-rule:nonzero;stroke:#444e59;stroke-width:16.67px;"/><rect id="XMLID_8_" x="1697.5" y="2699.17" width="586.667" height="35" style="fill:none;stroke:#444e59;stroke-width:16.67px;"/><circle id="XMLID_9_" cx="2000.42" cy="2365.42" r="25.833" style="fill:#444e59;"/><path id="XMLID_133_" d="M2307.5,2177.08l-715.833,0c-16.25,0 -29.167,-13.333 -29.167,-29.166l0,-510.834c0,-16.25 13.333,-29.166 29.167,-29.166l715.833,-0c16.25,-0 29.167,13.333 29.167,29.166l-0,510.417c0.416,16.25 -12.917,29.583 -29.167,29.583Z" style="fill:#fff;fill-rule:nonzero;"/><path id="XMLID_25_" d="M2307.5,2177.08l-715.833,0c-16.25,0 -29.167,-13.333 -29.167,-29.166l0,-510.834c0,-16.25 13.333,-29.166 29.167,-29.166l715.833,-0c16.25,-0 29.167,13.333 29.167,29.166l-0,510.417c0.416,16.25 -12.917,29.583 -29.167,29.583Z" style="fill:none;fill-rule:nonzero;stroke:#444e59;stroke-width:16.67px;"/><path id="XMLID_105_" d="M2337.08,1695.83l-774.583,0l0,-57.5c0,-16.666 13.75,-30.833 30.833,-30.833l715,0c15.834,0 28.75,12.917 28.75,28.75l0,59.583Z" style="fill:#bbbfc2;fill-rule:nonzero;"/><path id="XMLID_26_" d="M2337.08,1695.83l-774.583,0l0,-57.5c0,-16.666 13.75,-30.833 30.833,-30.833l715,0c15.834,0 28.75,12.917 28.75,28.75l0,59.583Z" style="fill:none;fill-rule:nonzero;stroke:#444e59;stroke-width:16.67px;"/><g id="XMLID_108_"><circle id="XMLID_106_" cx="1637.08" cy="1652.08" r="13.75" style="fill:#444e59;"/><circle id="XMLID_109_" cx="1682.5" cy="1652.08" r="13.75" style="fill:#444e59;"/><circle id="XMLID_120_" cx="1727.5" cy="1652.08" r="13.75" style="fill:#444e59;"/></g><path id="XMLID_122_" d="M2264.17,1848.33l-634.584,0c-4.583,0 -8.333,-3.75 -8.333,-8.333l0,-88.75c0,-4.583 3.75,-8.333 8.333,-8.333l634.584,-0c4.583,-0 8.333,3.75 8.333,8.333l0,88.75c0,4.583 -3.75,8.333 -8.333,8.333Z" style="fill:#6567c3;fill-rule:nonzero;"/><g id="XMLID_123_"><path id="XMLID_124_" d="M1812.08,1959.58l-182.916,0c-4.584,0 -8.334,-3.75 -8.334,-8.333l0,-47.917c0,-4.583 3.75,-8.333 8.334,-8.333l182.916,0c4.584,0 8.334,3.75 8.334,8.333l-0,47.917c-0,4.583 -3.334,8.333 -8.334,8.333Z" style="fill:#444e59;fill-opacity:0.2;fill-rule:nonzero;"/><path id="XMLID_125_" d="M1650.42,2006.67l146.666,-0" style="fill:none;fill-rule:nonzero;stroke:#444e59;stroke-opacity:0.2;stroke-width:16.67px;"/><path id="XMLID_128_" d="M1650.42,2053.75l146.666,0" style="fill:none;fill-rule:nonzero;stroke:#444e59;stroke-opacity:0.2;stroke-width:16.67px;"/></g><g id="XMLID_127_"><path id="XMLID_131_" d="M2041.25,1959.58l-182.917,0c-4.583,0 -8.333,-3.75 -8.333,-8.333l0,-47.917c0,-4.583 3.75,-8.333 8.333,-8.333l182.917,0c4.583,0 8.333,3.75 8.333,8.333l0,47.917c0,4.583 -3.75,8.333 -8.333,8.333Z" style="fill:#444e59;fill-opacity:0.2;fill-rule:nonzero;"/><path id="XMLID_130_" d="M1879.17,2006.67l140.833,-0" style="fill:none;fill-rule:nonzero;stroke:#444e59;stroke-opacity:0.2;stroke-width:16.67px;"/><path id="XMLID_129_" d="M1879.17,2053.75l140.833,0" style="fill:none;fill-rule:nonzero;stroke:#444e59;stroke-opacity:0.2;stroke-width:16.67px;"/></g><g id="XMLID_132_" opacity="0.2"><path id="XMLID_135_" d="M2270,2059.58l-182.917,0c-4.583,0 -8.333,-3.75 -8.333,-8.333l0,-147.5c0,-4.583 3.75,-8.333 8.333,-8.333l182.917,-0c4.583,-0 8.333,3.75 8.333,8.333l0,147.5c0,4.583 -3.75,8.333 -8.333,8.333Z" style="fill:#444e59;fill-rule:nonzero;"/></g><g id="XMLID_126_" opacity="0.09"><path id="XMLID_136_" d="M2264.17,2106.67l-174.167,-0c-6.667,-0 -11.667,-5.417 -11.667,-11.667c0,-6.25 5.417,-11.667 11.667,-11.667l174.167,0c6.666,0 11.666,5.417 11.666,11.667c0,6.25 -5.416,11.667 -11.666,11.667Z" style="fill:#444e59;fill-rule:nonzero;"/></g></g><g id="XMLID_23_"><g id="XMLID_12_"><path id="XMLID_71_" d="M955,2555.83l-335.833,0c-4.167,0 -7.917,1.25 -10.834,4.167l-81.25,70.833c-7.5,6.667 -7.5,18.334 0,24.584l81.25,72.083c2.917,2.5 6.667,5 10.834,5l335.833,0c19.167,0 35,-17.5 35,-36.667l0,-106.25c-0.417,-18.333 -15.833,-33.75 -35,-33.75Zm-345,107.917c-11.25,0 -20.833,-9.167 -20.833,-20.833c-0,-11.667 9.166,-20.834 20.833,-20.834c11.667,0 20.833,9.167 20.833,20.834c0,11.666 -9.166,20.833 -20.833,20.833Z" style="fill:#fff;fill-rule:nonzero;"/><rect id="XMLID_70_" x="696.25" y="2555.83" width="97.917" height="177.083" style="fill:#f09f54;"/><rect id="XMLID_69_" x="794.167" y="2555.83" width="97.917" height="177.083" style="fill:#ed8b3b;"/><path id="XMLID_58_" d="M946.25,2732.92l-54.167,-0l0,-177.084l55.834,0c22.916,0 42.083,18.75 42.083,42.084l0,91.666c-0.417,23.75 -20,43.334 -43.75,43.334Z" style="fill:#ff6c37;fill-rule:nonzero;"/><path id="XMLID_117_" d="M964.167,2564.58c-1.667,-0.416 -3.334,-0.416 -5,-0.416l-335.834,-0c-4.166,-0 -7.916,1.25 -10.833,4.166l-81.25,70.834c-7.5,6.666 -7.5,18.333 0,24.583l50.833,44.583l55,13.75c2.5,0.834 5.417,0.834 8.334,0.834c5.416,-0 10.416,-1.25 15.416,-3.75l299.167,-152.5c1.25,-0.417 2.917,-1.25 4.167,-2.084Zm-350,107.5c-11.25,0 -20.834,-9.166 -20.834,-20.833c0,-11.667 9.167,-20.833 20.834,-20.833c11.666,-0 20.833,9.166 20.833,20.833c0,11.667 -9.167,20.833 -20.833,20.833Z" style="fill:#848484;fill-opacity:0.4;fill-rule:nonzero;"/><path id="XMLID_29_" d="M955,2555.83l-335.833,0c-4.167,0 -7.917,1.25 -10.834,4.167l-81.25,70.833c-7.5,6.667 -7.5,18.334 0,24.584l81.25,72.083c2.917,2.5 6.667,5 10.834,5l335.833,0c19.167,0 35,-17.5 35,-36.667l0,-106.25c-0.417,-18.333 -15.833,-33.75 -35,-33.75Zm-345,107.917c-11.25,0 -20.833,-9.167 -20.833,-20.833c-0,-11.667 9.166,-20.834 20.833,-20.834c11.667,0 20.833,9.167 20.833,20.834c0,11.666 -9.166,20.833 -20.833,20.833Z" style="fill:none;fill-rule:nonzero;stroke:#444e59;stroke-width:16.67px;"/><rect id="XMLID_17_" x="696.25" y="2555.83" width="97.917" height="177.083" style="fill:none;stroke:#444e59;stroke-width:16.67px;"/><rect id="XMLID_21_" x="794.167" y="2555.83" width="97.917" height="177.083" style="fill:none;stroke:#444e59;stroke-width:16.67px;"/><path id="XMLID_22_" d="M946.25,2732.92l-54.167,-0l0,-177.084l55.834,0c22.916,0 42.083,18.75 42.083,42.084l0,91.666c-0.417,23.75 -20,43.334 -43.75,43.334Z" style="fill:none;fill-rule:nonzero;stroke:#444e59;stroke-width:16.67px;"/></g><g id="XMLID_20_"><path id="XMLID_74_" d="M868.333,2387.5l-299.166,152.5c-3.75,1.667 -6.25,5 -7.917,8.75l-40,100c-3.75,9.167 1.667,19.583 11.25,22.083l104.583,26.667c3.75,0.833 7.917,0.417 11.667,-1.25l299.167,-152.5c17.083,-8.75 23.75,-29.583 15,-46.25l-48.334,-94.583c-8.75,-17.5 -29.583,-24.167 -46.25,-15.417Z" style="fill:#fff;fill-rule:nonzero;"/><path id="XMLID_77_" d="M811.983,2416.04l-87.224,44.503l79.537,155.89l87.224,-44.503l-79.537,-155.89Z" style="fill:#8d91db;"/><path id="XMLID_33_" d="M868.333,2387.5l-299.166,152.5c-3.75,1.667 -6.25,5 -7.917,8.75l-40,100c-3.75,9.167 1.667,19.583 11.25,22.083l104.583,26.667c3.75,0.833 7.917,0.417 11.667,-1.25l299.167,-152.5c17.083,-8.75 23.75,-29.583 15,-46.25l-48.334,-94.583c-8.75,-17.5 -29.583,-24.167 -46.25,-15.417Z" style="fill:none;fill-rule:nonzero;stroke:#444e59;stroke-width:16.67px;"/><circle id="XMLID_34_" cx="600.833" cy="2622.08" r="24.167" style="fill:#444e59;"/><path id="XMLID_79_" d="M724.57,2460.77l-87.224,44.504l79.537,155.89l87.224,-44.504l-79.537,-155.89Z" style="fill:#beccd5;stroke:#444e59;stroke-width:16.67px;"/><path id="XMLID_32_" d="M724.57,2460.77l-87.224,44.504l79.537,155.89l87.224,-44.504l-79.537,-155.89Z" style="fill:none;stroke:#444e59;stroke-width:16.67px;"/><path id="XMLID_31_" d="M811.983,2416.04l-87.224,44.503l79.537,155.89l87.224,-44.503l-79.537,-155.89Z" style="fill:none;stroke:#444e59;stroke-width:16.67px;"/><path id="XMLID_30_" d="M941.25,2546.67l-50,25.416l-79.583,-155.833l50,-25.417c20.416,-10.416 45.416,-2.5 56.25,18.334l41.666,81.666c10.417,20.417 2.084,45.417 -18.333,55.834Z" style="fill:#6567c3;fill-rule:nonzero;"/><path id="XMLID_78_" d="M941.25,2546.67l-50,25.416l-79.583,-155.833l50,-25.417c20.416,-10.416 45.416,-2.5 56.25,18.334l41.666,81.666c10.417,20.417 2.084,45.417 -18.333,55.834Z" style="fill:none;fill-rule:nonzero;stroke:#444e59;stroke-width:16.67px;"/></g></g><g id="XMLID_90_"><path id="XMLID_102_" d="M1362.5,2734.17l-280.417,-0c-22.916,-0 -41.666,-18.75 -41.666,-41.667l-0,-562.083c-0,-22.917 18.75,-41.667 41.666,-41.667l280.417,0c22.917,0 41.667,18.75 41.667,41.667l-0,562.083c-0,23.333 -18.75,41.667 -41.667,41.667Z" style="fill:#fff;fill-rule:nonzero;"/><path id="XMLID_83_" d="M1410,2282.5l-369.583,0l-0,-152.917c-0,-22.5 18.333,-40.833 40.833,-40.833l285.417,0c23.75,0 42.916,19.583 42.916,42.917l0,150.833l0.417,0Z" style="fill:#6567c3;fill-rule:nonzero;"/><path id="XMLID_10_" d="M1362.5,2734.17l-280.417,-0c-22.916,-0 -41.666,-18.75 -41.666,-41.667l-0,-562.083c-0,-22.917 18.75,-41.667 41.666,-41.667l280.417,0c22.917,0 41.667,18.75 41.667,41.667l-0,562.083c-0,23.333 -18.75,41.667 -41.667,41.667Z" style="fill:none;fill-rule:nonzero;stroke:#444e59;stroke-width:16.67px;"/><path id="XMLID_82_" d="M1362.92,2734.17l-279.584,-0c-23.75,-0 -43.333,-19.584 -43.333,-43.334l0,-80l364.167,0l-0,82.084c-0,22.916 -18.75,41.25 -41.25,41.25Z" style="fill:#bbbfc2;fill-rule:nonzero;"/><path id="XMLID_81_" d="M1363.75,2734.17l-280.417,-0c-23.75,-0 -43.333,-19.584 -43.333,-43.334l0,-80l364.167,0l-0,82.917c-0,22.5 -18.334,40.417 -40.417,40.417Z" style="fill:none;fill-rule:nonzero;stroke:#444e59;stroke-width:16.67px;"/><circle id="XMLID_84_" cx="1225" cy="2670" r="20.833" style="fill:#444e59;"/><path id="XMLID_86_" d="M1122.5,2347.08l205.417,0" style="fill:none;fill-rule:nonzero;stroke:#444e59;stroke-opacity:0.3;stroke-width:16.67px;"/><path id="XMLID_87_" d="M1163.33,2411.67l129.167,-0" style="fill:none;fill-rule:nonzero;stroke:#444e59;stroke-opacity:0.3;stroke-width:16.67px;"/><path id="XMLID_88_" d="M1122.5,2470.42l205.417,-0" style="fill:none;fill-rule:nonzero;stroke:#444e59;stroke-opacity:0.3;stroke-width:16.67px;"/><circle id="XMLID_85_" cx="1225" cy="2200.42" r="46.667" style="fill:#fff;fill-opacity:0.62;"/><path id="XMLID_89_" d="M1292.5,2535c0,12.917 -10.417,23.333 -23.333,23.333l-87.917,0c-12.917,0 -23.333,-10.416 -23.333,-23.333c-0,-12.917 10.416,-23.333 23.333,-23.333l87.917,-0c12.916,-0.417 23.333,10 23.333,23.333Z" style="fill:#ed8b3b;fill-rule:nonzero;"/></g><g id="XMLID_111_"><path id="XMLID_100_" d="M3534.17,2657.92l-1009.58,-0l0,-606.667c0,-17.917 14.584,-32.5 32.5,-32.5l945,0c17.5,0 31.667,14.167 31.667,31.667l0,607.5l0.417,-0Z" style="fill:#bbbfc2;fill-rule:nonzero;"/><path id="XMLID_11_" d="M3536.67,2659.17l-1009.17,-0l0,-608.334c0,-18.333 15,-33.333 33.333,-33.333l942.5,0c18.334,0 33.334,15 33.334,33.333l-0,608.334Z" style="fill:none;fill-rule:nonzero;stroke:#444e59;stroke-width:16.67px;"/><path id="XMLID_101_" d="M3481.36,2605.53l0,-534.167l-897.916,0l-0,534.167l897.916,-0Z" style="fill:#5d5d5d;fill-opacity:0.71;"/><path id="XMLID_183_" d="M2802.92,2503.75l-77.5,0c-4.584,0 -8.334,-3.75 -8.334,-8.333l0,-265.417c0,-4.583 3.75,-8.333 8.334,-8.333l77.5,-0c4.583,-0 8.333,3.75 8.333,8.333l0,265.833c0,4.167 -3.75,7.917 -8.333,7.917Z" style="fill:#848484;fill-opacity:0.32;fill-rule:nonzero;"/><path id="XMLID_178_" d="M3362.5,2557.5l-447.5,0c-9.167,0 -16.667,-7.5 -16.667,-16.667l0,-342.083c0,-9.167 7.5,-16.667 16.667,-16.667l447.5,0c9.167,0 16.667,7.5 16.667,16.667l-0,342.083c-0,9.167 -7.084,16.667 -16.667,16.667Z" style="fill:#848484;fill-opacity:0.32;fill-rule:nonzero;"/><path id="XMLID_103_" d="M3480.57,2603l0,-529.583l-897.083,-0l0,529.583l897.083,0Z" style="fill:none;stroke:#444e59;stroke-width:16.67px;"/><path id="XMLID_110_" d="M3646.67,2659.17l-1229.58,-0l0,39.166c0,18.334 15,33.334 33.334,33.334l1162.92,-0c18.334,-0 33.334,-15 33.334,-33.334l-0,-39.166Z" style="fill:#fff;fill-rule:nonzero;"/><path id="XMLID_206_" d="M2464.17,2734.17l1135.83,-0c22.917,-0 41.667,-17.5 45.833,-41.25l-1227.92,-0c4.166,23.75 23.333,41.25 46.25,41.25Z" style="fill:#bbbfc2;fill-opacity:0.8;fill-rule:nonzero;"/><path id="XMLID_15_" d="M3646.67,2659.17l-1229.58,-0l0,39.166c0,18.334 15,33.334 33.334,33.334l1162.92,-0c18.334,-0 33.334,-15 33.334,-33.334l-0,-39.166Z" style="fill:none;fill-rule:nonzero;stroke:#444e59;stroke-width:16.67px;"/><rect id="XMLID_201_" x="2695" y="2200.42" width="93.75" height="93.75" style="fill:#f09f54;"/><rect id="XMLID_138_" x="2696.67" y="2201.25" width="93.75" height="93.75" style="fill:none;stroke:#444e59;stroke-width:16.67px;"/><rect id="XMLID_180_" x="2696.67" y="2201.25" width="93.75" height="93.75" style="fill:none;stroke:#444e59;stroke-width:16.67px;"/><rect id="XMLID_156_" x="2695" y="2294.17" width="93.75" height="93.75" style="fill:#8d91db;"/><rect id="XMLID_140_" x="2696.67" y="2295.42" width="93.75" height="93.75" style="fill:none;stroke:#444e59;stroke-width:16.67px;"/><rect id="XMLID_202_" x="2695" y="2387.92" width="93.75" height="93.75" style="fill:#6567c3;"/><rect id="XMLID_143_" x="2696.67" y="2389.17" width="93.75" height="93.75" style="fill:none;stroke:#444e59;stroke-width:16.67px;"/><path id="XMLID_115_" d="M3335.42,2528.75l-447.917,0c-9.167,0 -16.667,-7.5 -16.667,-16.667l0,-342.083c0,-9.167 7.5,-16.667 16.667,-16.667l447.917,0c9.166,0 16.666,7.5 16.666,16.667l0,342.083c0,9.584 -7.5,16.667 -16.666,16.667Z" style="fill:#fff;fill-rule:nonzero;"/><path id="XMLID_139_" d="M3335.42,2528.75l-447.917,0c-9.167,0 -16.667,-7.5 -16.667,-16.667l0,-342.083c0,-9.167 7.5,-16.667 16.667,-16.667l447.917,0c9.166,0 16.666,7.5 16.666,16.667l0,342.083c0,9.584 -7.5,16.667 -16.666,16.667Z" style="fill:none;fill-rule:nonzero;stroke:#444e59;stroke-width:16.67px;"/><g id="XMLID_147_" opacity="0.3"><g id="XMLID_205_"><path id="XMLID_419_" d="M3211.25,2430l0,6.25l-6.25,0" style="fill:none;fill-rule:nonzero;stroke:#444e59;stroke-width:8.33px;stroke-linecap:butt;stroke-miterlimit:4;"/><path id="XMLID_418_" d="M3197.08,2436.25l-174.583,0" style="fill:none;fill-rule:nonzero;stroke:#444e59;stroke-width:8.33px;stroke-linecap:butt;stroke-miterlimit:4;stroke-dasharray:11.91,7.94;"/><path id="XMLID_417_" d="M3018.33,2436.25l-6.25,0l0,-6.25" style="fill:none;fill-rule:nonzero;stroke:#444e59;stroke-width:8.33px;stroke-linecap:butt;stroke-miterlimit:4;"/><path id="XMLID_416_" d="M3012.08,2421.25l0,-162.5" style="fill:none;fill-rule:nonzero;stroke:#444e59;stroke-width:8.33px;stroke-linecap:butt;stroke-miterlimit:4;stroke-dasharray:12.52,8.35;"/><path id="XMLID_415_" d="M3012.08,2254.58l0,-6.25l6.25,0" style="fill:none;fill-rule:nonzero;stroke:#444e59;stroke-width:8.33px;stroke-linecap:butt;stroke-miterlimit:4;"/><path id="XMLID_214_" d="M3026.25,2248.33l174.583,0" style="fill:none;fill-rule:nonzero;stroke:#444e59;stroke-width:8.33px;stroke-linecap:butt;stroke-miterlimit:4;stroke-dasharray:11.91,7.94;"/><path id="XMLID_213_" d="M3205,2248.33l6.25,0l0,6.25" style="fill:none;fill-rule:nonzero;stroke:#444e59;stroke-width:8.33px;stroke-linecap:butt;stroke-miterlimit:4;"/><path id="XMLID_211_" d="M3211.25,2262.92l0,162.916" style="fill:none;fill-rule:nonzero;stroke:#444e59;stroke-width:8.33px;stroke-linecap:butt;stroke-miterlimit:4;stroke-dasharray:12.52,8.35;"/></g></g><g id="XMLID_155_"><rect id="XMLID_154_" x="2998.33" y="2233.75" width="29.583" height="29.583" style="fill:#fff;"/><rect id="XMLID_153_" x="2997.08" y="2232.5" width="29.167" height="29.167" style="fill:none;stroke:#444e59;stroke-width:4.17px;stroke-linecap:butt;"/></g><g id="XMLID_157_"><rect id="XMLID_159_" x="2998.33" y="2421.25" width="29.583" height="29.583" style="fill:#fff;"/><rect id="XMLID_158_" x="2997.08" y="2420.42" width="29.167" height="29.167" style="fill:none;stroke:#444e59;stroke-width:4.17px;stroke-linecap:butt;"/></g><g id="XMLID_162_"><rect id="XMLID_166_" x="3196.67" y="2233.75" width="29.583" height="29.583" style="fill:#fff;"/><rect id="XMLID_164_" x="3196.67" y="2232.5" width="29.167" height="29.167" style="fill:none;stroke:#444e59;stroke-width:4.17px;stroke-linecap:butt;"/></g><g id="XMLID_196_"><rect id="XMLID_198_" x="3196.67" y="2421.25" width="29.583" height="29.583" style="fill:#fff;"/><rect id="XMLID_197_" x="3196.67" y="2420.42" width="29.167" height="29.167" style="fill:none;stroke:#444e59;stroke-width:4.17px;stroke-linecap:butt;"/></g><g id="XMLID_229_"><g id="XMLID_225_"><path id="XMLID_230_" d="M2743.75,2343.75l29.583,63.333l28.75,15l20,-20l-14.583,-29.166l-63.75,-29.167Z" style="fill:#fff;fill-rule:nonzero;"/><path id="XMLID_227_" d="M2743.75,2343.75l29.583,63.333l28.75,15l20,-20l-14.583,-29.166l-63.75,-29.167Z" style="fill:none;fill-rule:nonzero;stroke:#444e59;stroke-width:4.17px;stroke-linecap:butt;"/><circle id="XMLID_224_" cx="2781.25" cy="2379.58" r="7.917" style="fill:#444e59;"/><path id="XMLID_226_" d="M2743.75,2343.75l32.917,32.917" style="fill:none;fill-rule:nonzero;stroke:#444e59;stroke-width:4.17px;"/></g><path id="XMLID_231_" d="M2822.21,2401.75l-20.035,20.035l14.437,14.436l20.035,-20.034l-14.437,-14.437Z" style="fill:#fff;"/><path id="XMLID_228_" d="M2822.21,2401.75l-20.035,20.035l14.437,14.436l20.035,-20.034l-14.437,-14.437Z" style="fill:none;stroke:#444e59;stroke-width:4.17px;stroke-linecap:butt;"/></g></g></svg>