<?xml version="1.0" encoding="UTF-8" standalone="no"?><!DOCTYPE svg PUBLIC "-//W3C//DTD SVG 1.1//EN" "http://www.w3.org/Graphics/SVG/1.1/DTD/svg11.dtd"><svg width="100%" height="100%" viewBox="0 0 4167 4167" version="1.1" xmlns="http://www.w3.org/2000/svg" xmlns:xlink="http://www.w3.org/1999/xlink" xml:space="preserve" xmlns:serif="http://www.serif.com/" style="fill-rule:evenodd;clip-rule:evenodd;stroke-linecap:round;stroke-linejoin:round;stroke-miterlimit:10;"><rect id="XMLID_78_" x="2251.67" y="2165" width="428.75" height="860" style="fill:#ffc299;"/><rect id="XMLID_96_" x="2251.67" y="2165" width="428.75" height="860" style="fill:#fff;"/><rect id="XMLID_2_" x="2251.67" y="2165" width="56.667" height="860" style="fill:#333;fill-opacity:0.34;"/><rect id="XMLID_26_" x="2251.67" y="2165" width="428.75" height="860" style="fill:none;stroke:#170e10;stroke-width:41.67px;"/><g id="XMLID_32_"><g id="XMLID_130_"><path id="XMLID_131_" d="M2321.67,2837.5l299.583,0" style="fill:none;fill-rule:nonzero;stroke:#260005;stroke-width:25px;stroke-linecap:butt;"/></g><g id="XMLID_127_"><path id="XMLID_128_" d="M2321.67,2729.17l299.583,-0" style="fill:none;fill-rule:nonzero;stroke:#260005;stroke-width:25px;stroke-linecap:butt;"/></g><g id="XMLID_124_"><path id="XMLID_125_" d="M2321.67,2620.83l299.583,0" style="fill:none;fill-rule:nonzero;stroke:#260005;stroke-width:25px;stroke-linecap:butt;"/></g><g id="XMLID_121_"><path id="XMLID_122_" d="M2321.67,2512.5l299.583,0" style="fill:none;fill-rule:nonzero;stroke:#260005;stroke-width:25px;stroke-linecap:butt;"/></g><g id="XMLID_118_"><path id="XMLID_119_" d="M2321.67,2404.17l299.583,-0" style="fill:none;fill-rule:nonzero;stroke:#260005;stroke-width:25px;stroke-linecap:butt;"/></g><g id="XMLID_115_"><path id="XMLID_116_" d="M2321.67,2295.83l299.583,0" style="fill:none;fill-rule:nonzero;stroke:#260005;stroke-width:25px;stroke-linecap:butt;"/></g></g><rect id="XMLID_75_" x="1644.17" y="1825" width="616.667" height="1200" style="fill:#9dd7ce;"/><rect id="XMLID_86_" x="1644.17" y="1825" width="55.833" height="1200" style="fill:#333;fill-opacity:0.69;"/><path id="XMLID_69_" d="M1510.83,1157.08l-200,0l0,-150c0,-27.5 22.5,-50 50,-50l100,0c27.5,0 50,22.5 50,50l0,150Z" style="fill:#c0bfbf;fill-rule:nonzero;"/><path id="XMLID_99_" d="M1413.75,957.083l-53.333,0c-27.5,0 -50,22.5 -50,50l-0,150l53.333,0l0,-150c0,-27.5 22.5,-50 50,-50Z" style="fill:#333;fill-opacity:0.69;fill-rule:nonzero;"/><path id="XMLID_10_" d="M1510.83,1157.08l-200,0l0,-150c0,-27.5 22.5,-50 50,-50l100,0c27.5,0 50,22.5 50,50l0,150Z" style="fill:none;fill-rule:nonzero;stroke:#170e10;stroke-width:41.67px;"/><path id="XMLID_12_" d="M1412.5,958.333l0,-195.833" style="fill:none;fill-rule:nonzero;stroke:#170e10;stroke-width:41.67px;"/><path id="XMLID_126_" d="M3841.67,3025l98.333,0" style="fill:none;fill-rule:nonzero;stroke:#170e10;stroke-width:41.67px;"/><path id="XMLID_139_" d="M2927.08,3025l843.334,0" style="fill:none;fill-rule:nonzero;stroke:#170e10;stroke-width:41.67px;"/><path id="XMLID_138_" d="M2787.5,3025l37.5,0" style="fill:none;fill-rule:nonzero;stroke:#170e10;stroke-width:41.67px;"/><path id="XMLID_120_" d="M731.25,3025l1995.83,0" style="fill:none;fill-rule:nonzero;stroke:#170e10;stroke-width:41.67px;"/><path id="XMLID_5_" d="M632.083,3025l35,0" style="fill:none;fill-rule:nonzero;stroke:#170e10;stroke-width:41.67px;"/><path id="XMLID_25_" d="M272.083,3025l290.417,0" style="fill:none;fill-rule:nonzero;stroke:#170e10;stroke-width:41.67px;"/><rect id="XMLID_54_" x="1177.5" y="1437.92" width="466.667" height="1587.08" style="fill:#c0bfbf;"/><rect id="XMLID_74_" x="1177.5" y="1437.92" width="47.5" height="1587.08" style="fill:#333;fill-opacity:0.69;"/><rect id="XMLID_1_" x="1177.5" y="1437.92" width="466.667" height="1587.08" style="fill:none;stroke:#170e10;stroke-width:41.67px;"/><g id="XMLID_6_"><g><g><path id="XMLID_258_" d="M1258.33,2679.17l304.167,-0" style="fill:none;fill-rule:nonzero;stroke:#170e10;stroke-width:25px;stroke-linecap:butt;"/><path id="XMLID_257_" d="M1258.33,2729.17l304.167,-0" style="fill:none;fill-rule:nonzero;stroke:#170e10;stroke-width:25px;stroke-linecap:butt;"/></g></g><g><g><path id="XMLID_252_" d="M1258.33,2537.5l304.167,0" style="fill:none;fill-rule:nonzero;stroke:#170e10;stroke-width:25px;stroke-linecap:butt;"/><path id="XMLID_251_" d="M1258.33,2587.5l304.167,0" style="fill:none;fill-rule:nonzero;stroke:#170e10;stroke-width:25px;stroke-linecap:butt;"/></g></g><g><g><path id="XMLID_246_" d="M1258.33,2395.83l304.167,0" style="fill:none;fill-rule:nonzero;stroke:#170e10;stroke-width:25px;stroke-linecap:butt;"/><path id="XMLID_245_" d="M1258.33,2445.83l304.167,0" style="fill:none;fill-rule:nonzero;stroke:#170e10;stroke-width:25px;stroke-linecap:butt;"/></g></g><g><g><path id="XMLID_240_" d="M1258.33,2254.17l304.167,-0" style="fill:none;fill-rule:nonzero;stroke:#170e10;stroke-width:25px;stroke-linecap:butt;"/><path id="XMLID_239_" d="M1258.33,2304.17l304.167,-0" style="fill:none;fill-rule:nonzero;stroke:#170e10;stroke-width:25px;stroke-linecap:butt;"/></g></g><g><g><path id="XMLID_234_" d="M1258.33,2112.5l304.167,0" style="fill:none;fill-rule:nonzero;stroke:#170e10;stroke-width:25px;stroke-linecap:butt;"/><path id="XMLID_233_" d="M1258.33,2162.5l304.167,0" style="fill:none;fill-rule:nonzero;stroke:#170e10;stroke-width:25px;stroke-linecap:butt;"/></g></g><g><g><path id="XMLID_228_" d="M1258.33,1970.83l304.167,0" style="fill:none;fill-rule:nonzero;stroke:#170e10;stroke-width:25px;stroke-linecap:butt;"/><path id="XMLID_227_" d="M1258.33,2020.83l304.167,0" style="fill:none;fill-rule:nonzero;stroke:#170e10;stroke-width:25px;stroke-linecap:butt;"/></g></g><g><g><path id="XMLID_222_" d="M1258.33,1829.17l304.167,-0" style="fill:none;fill-rule:nonzero;stroke:#170e10;stroke-width:25px;stroke-linecap:butt;"/><path id="XMLID_221_" d="M1258.33,1879.17l304.167,-0" style="fill:none;fill-rule:nonzero;stroke:#170e10;stroke-width:25px;stroke-linecap:butt;"/></g></g><g><g><path id="XMLID_216_" d="M1258.33,1687.5l304.167,0" style="fill:none;fill-rule:nonzero;stroke:#170e10;stroke-width:25px;stroke-linecap:butt;"/><path id="XMLID_215_" d="M1258.33,1737.5l304.167,0" style="fill:none;fill-rule:nonzero;stroke:#170e10;stroke-width:25px;stroke-linecap:butt;"/></g></g><g><g><path id="XMLID_210_" d="M1258.33,1545.83l304.167,0" style="fill:none;fill-rule:nonzero;stroke:#170e10;stroke-width:25px;stroke-linecap:butt;"/><path id="XMLID_209_" d="M1258.33,1595.83l304.167,0" style="fill:none;fill-rule:nonzero;stroke:#170e10;stroke-width:25px;stroke-linecap:butt;"/></g></g></g><path id="XMLID_63_" d="M1565,1437.92l-308.333,-0l-0,-179.167c-0,-85 69.166,-154.167 154.166,-154.167c85,0 154.167,69.167 154.167,154.167l0,179.167Z" style="fill:#c0bfbf;fill-rule:nonzero;"/><path id="XMLID_98_" d="M1437.92,1107.08c-8.75,-1.666 -17.917,-2.5 -27.084,-2.5c-85,0 -154.166,69.167 -154.166,154.167l-0,179.167l54.166,-0l0,-179.167c0,-75.833 54.584,-138.75 127.084,-151.667Z" style="fill:#333;fill-opacity:0.69;fill-rule:nonzero;"/><path id="XMLID_9_" d="M1565,1437.92l-308.333,-0l-0,-179.167c-0,-85 69.166,-154.167 154.166,-154.167c85,0 154.167,69.167 154.167,154.167l0,179.167Z" style="fill:none;fill-rule:nonzero;stroke:#170e10;stroke-width:41.67px;"/><rect id="XMLID_11_" x="1644.17" y="1825" width="616.667" height="1200" style="fill:none;stroke:#170e10;stroke-width:41.67px;"/><rect id="XMLID_92_" x="1644.17" y="1741.67" width="636.25" height="83.333" style="fill:#bd2b3e;"/><rect id="XMLID_13_" x="1644.17" y="1741.67" width="639.167" height="83.333" style="fill:none;stroke:#170e10;stroke-width:41.67px;"/><rect id="XMLID_82_" x="1310.83" y="2810.42" width="200" height="214.583" style="fill:#fff;"/><rect id="XMLID_95_" x="1310.83" y="2818.75" width="200" height="43.75" style="fill:#333;fill-opacity:0.34;"/><rect id="XMLID_106_" x="1310.83" y="2862.5" width="46.25" height="162.5" style="fill:#333;fill-opacity:0.34;"/><rect id="XMLID_14_" x="1310.83" y="2810.42" width="200" height="214.583" style="fill:none;stroke:#170e10;stroke-width:41.67px;"/><g id="XMLID_16_"><g id="XMLID_760_"><g id="XMLID_774_"><g id="XMLID_785_"><path id="XMLID_786_" d="M2158.33,2791.67l0,62.5" style="fill:none;fill-rule:nonzero;stroke:#170e10;stroke-width:41.67px;stroke-linecap:butt;"/></g><g id="XMLID_783_"><path id="XMLID_784_" d="M2075,2791.67l0,62.5" style="fill:none;fill-rule:nonzero;stroke:#170e10;stroke-width:41.67px;stroke-linecap:butt;"/></g><g id="XMLID_781_"><path id="XMLID_782_" d="M1991.67,2791.67l-0,62.5" style="fill:none;fill-rule:nonzero;stroke:#170e10;stroke-width:41.67px;stroke-linecap:butt;"/></g><g id="XMLID_779_"><path id="XMLID_780_" d="M1908.33,2791.67l0,62.5" style="fill:none;fill-rule:nonzero;stroke:#170e10;stroke-width:41.67px;stroke-linecap:butt;"/></g><g id="XMLID_777_"><path id="XMLID_778_" d="M1825,2791.67l0,62.5" style="fill:none;fill-rule:nonzero;stroke:#170e10;stroke-width:41.67px;stroke-linecap:butt;"/></g><g id="XMLID_775_"><path id="XMLID_776_" d="M1741.67,2791.67l-0,62.5" style="fill:none;fill-rule:nonzero;stroke:#170e10;stroke-width:41.67px;stroke-linecap:butt;"/></g></g></g><g id="XMLID_720_"><g id="XMLID_734_"><g id="XMLID_745_"><path id="XMLID_746_" d="M2158.33,2625l0,62.5" style="fill:none;fill-rule:nonzero;stroke:#170e10;stroke-width:41.67px;stroke-linecap:butt;"/></g><g id="XMLID_743_"><path id="XMLID_744_" d="M2075,2625l0,62.5" style="fill:none;fill-rule:nonzero;stroke:#170e10;stroke-width:41.67px;stroke-linecap:butt;"/></g><g id="XMLID_741_"><path id="XMLID_742_" d="M1991.67,2625l-0,62.5" style="fill:none;fill-rule:nonzero;stroke:#170e10;stroke-width:41.67px;stroke-linecap:butt;"/></g><g id="XMLID_739_"><path id="XMLID_740_" d="M1908.33,2625l0,62.5" style="fill:none;fill-rule:nonzero;stroke:#170e10;stroke-width:41.67px;stroke-linecap:butt;"/></g><g id="XMLID_737_"><path id="XMLID_738_" d="M1825,2625l0,62.5" style="fill:none;fill-rule:nonzero;stroke:#170e10;stroke-width:41.67px;stroke-linecap:butt;"/></g><g id="XMLID_735_"><path id="XMLID_736_" d="M1741.67,2625l-0,62.5" style="fill:none;fill-rule:nonzero;stroke:#170e10;stroke-width:41.67px;stroke-linecap:butt;"/></g></g></g><g id="XMLID_680_"><g id="XMLID_694_"><g id="XMLID_705_"><path id="XMLID_706_" d="M2158.33,2458.33l0,62.5" style="fill:none;fill-rule:nonzero;stroke:#170e10;stroke-width:41.67px;stroke-linecap:butt;"/></g><g id="XMLID_703_"><path id="XMLID_704_" d="M2075,2458.33l0,62.5" style="fill:none;fill-rule:nonzero;stroke:#170e10;stroke-width:41.67px;stroke-linecap:butt;"/></g><g id="XMLID_701_"><path id="XMLID_702_" d="M1991.67,2458.33l-0,62.5" style="fill:none;fill-rule:nonzero;stroke:#170e10;stroke-width:41.67px;stroke-linecap:butt;"/></g><g id="XMLID_699_"><path id="XMLID_700_" d="M1908.33,2458.33l0,62.5" style="fill:none;fill-rule:nonzero;stroke:#170e10;stroke-width:41.67px;stroke-linecap:butt;"/></g><g id="XMLID_697_"><path id="XMLID_698_" d="M1825,2458.33l0,62.5" style="fill:none;fill-rule:nonzero;stroke:#170e10;stroke-width:41.67px;stroke-linecap:butt;"/></g><g id="XMLID_695_"><path id="XMLID_696_" d="M1741.67,2458.33l-0,62.5" style="fill:none;fill-rule:nonzero;stroke:#170e10;stroke-width:41.67px;stroke-linecap:butt;"/></g></g></g><g id="XMLID_640_"><g id="XMLID_654_"><g id="XMLID_665_"><path id="XMLID_666_" d="M2158.33,2291.67l0,62.5" style="fill:none;fill-rule:nonzero;stroke:#170e10;stroke-width:41.67px;stroke-linecap:butt;"/></g><g id="XMLID_663_"><path id="XMLID_664_" d="M2075,2291.67l0,62.5" style="fill:none;fill-rule:nonzero;stroke:#170e10;stroke-width:41.67px;stroke-linecap:butt;"/></g><g id="XMLID_661_"><path id="XMLID_662_" d="M1991.67,2291.67l-0,62.5" style="fill:none;fill-rule:nonzero;stroke:#170e10;stroke-width:41.67px;stroke-linecap:butt;"/></g><g id="XMLID_659_"><path id="XMLID_660_" d="M1908.33,2291.67l0,62.5" style="fill:none;fill-rule:nonzero;stroke:#170e10;stroke-width:41.67px;stroke-linecap:butt;"/></g><g id="XMLID_657_"><path id="XMLID_658_" d="M1825,2291.67l0,62.5" style="fill:none;fill-rule:nonzero;stroke:#170e10;stroke-width:41.67px;stroke-linecap:butt;"/></g><g id="XMLID_655_"><path id="XMLID_656_" d="M1741.67,2291.67l-0,62.5" style="fill:none;fill-rule:nonzero;stroke:#170e10;stroke-width:41.67px;stroke-linecap:butt;"/></g></g></g><g id="XMLID_600_"><g id="XMLID_614_"><g id="XMLID_625_"><path id="XMLID_626_" d="M2158.33,2125l0,62.5" style="fill:none;fill-rule:nonzero;stroke:#170e10;stroke-width:41.67px;stroke-linecap:butt;"/></g><g id="XMLID_623_"><path id="XMLID_624_" d="M2075,2125l0,62.5" style="fill:none;fill-rule:nonzero;stroke:#170e10;stroke-width:41.67px;stroke-linecap:butt;"/></g><g id="XMLID_621_"><path id="XMLID_622_" d="M1991.67,2125l-0,62.5" style="fill:none;fill-rule:nonzero;stroke:#170e10;stroke-width:41.67px;stroke-linecap:butt;"/></g><g id="XMLID_619_"><path id="XMLID_620_" d="M1908.33,2125l0,62.5" style="fill:none;fill-rule:nonzero;stroke:#170e10;stroke-width:41.67px;stroke-linecap:butt;"/></g><g id="XMLID_617_"><path id="XMLID_618_" d="M1825,2125l0,62.5" style="fill:none;fill-rule:nonzero;stroke:#170e10;stroke-width:41.67px;stroke-linecap:butt;"/></g><g id="XMLID_615_"><path id="XMLID_616_" d="M1741.67,2125l-0,62.5" style="fill:none;fill-rule:nonzero;stroke:#170e10;stroke-width:41.67px;stroke-linecap:butt;"/></g></g></g><g id="XMLID_560_"><g id="XMLID_574_"><g id="XMLID_585_"><path id="XMLID_586_" d="M2158.33,1958.33l0,62.5" style="fill:none;fill-rule:nonzero;stroke:#170e10;stroke-width:41.67px;stroke-linecap:butt;"/></g><g id="XMLID_583_"><path id="XMLID_584_" d="M2075,1958.33l0,62.5" style="fill:none;fill-rule:nonzero;stroke:#170e10;stroke-width:41.67px;stroke-linecap:butt;"/></g><g id="XMLID_581_"><path id="XMLID_582_" d="M1991.67,1958.33l-0,62.5" style="fill:none;fill-rule:nonzero;stroke:#170e10;stroke-width:41.67px;stroke-linecap:butt;"/></g><g id="XMLID_579_"><path id="XMLID_580_" d="M1908.33,1958.33l0,62.5" style="fill:none;fill-rule:nonzero;stroke:#170e10;stroke-width:41.67px;stroke-linecap:butt;"/></g><g id="XMLID_577_"><path id="XMLID_578_" d="M1825,1958.33l0,62.5" style="fill:none;fill-rule:nonzero;stroke:#170e10;stroke-width:41.67px;stroke-linecap:butt;"/></g><g id="XMLID_575_"><path id="XMLID_576_" d="M1741.67,1958.33l-0,62.5" style="fill:none;fill-rule:nonzero;stroke:#170e10;stroke-width:41.67px;stroke-linecap:butt;"/></g></g></g></g><rect id="XMLID_76_" x="1822.92" y="2784.58" width="256.25" height="240.417" style="fill:#ffc299;"/><rect id="XMLID_123_" x="1822.92" y="2784.58" width="256.25" height="55.833" style="fill:#333;fill-opacity:0.69;"/><rect id="XMLID_117_" x="1822.92" y="2840.83" width="50" height="184.167" style="fill:#333;fill-opacity:0.69;"/><rect id="XMLID_15_" x="1822.92" y="2784.58" width="256.25" height="240.417" style="fill:none;stroke:#170e10;stroke-width:41.67px;"/><rect id="XMLID_79_" x="920.417" y="1825" width="252.5" height="1200" style="fill:#bd2b3e;"/><rect id="XMLID_58_" x="920.417" y="1825" width="42.083" height="1200" style="fill:#333;fill-opacity:0.53;"/><rect id="XMLID_33_" x="920.417" y="1825" width="252.5" height="1200" style="fill:none;stroke:#170e10;stroke-width:41.67px;"/><g id="XMLID_41_"><g id="XMLID_457_"><g id="XMLID_468_"><g id="XMLID_475_"><path id="XMLID_477_" d="M991.667,2625l-0,62.5" style="fill:none;fill-rule:nonzero;stroke:#260005;stroke-width:16.67px;stroke-linecap:butt;"/><path id="XMLID_476_" d="M991.667,2708.33l-0,25" style="fill:none;fill-rule:nonzero;stroke:#f9a;stroke-opacity:0.36;stroke-width:16.67px;stroke-linecap:butt;"/></g><g id="XMLID_472_"><path id="XMLID_474_" d="M1045.83,2625l0,62.5" style="fill:none;fill-rule:nonzero;stroke:#260005;stroke-width:16.67px;stroke-linecap:butt;"/><path id="XMLID_473_" d="M1045.83,2708.33l0,25" style="fill:none;fill-rule:nonzero;stroke:#f9a;stroke-opacity:0.36;stroke-width:16.67px;stroke-linecap:butt;"/></g><g id="XMLID_469_"><path id="XMLID_471_" d="M1100,2625l0,62.5" style="fill:none;fill-rule:nonzero;stroke:#260005;stroke-width:16.67px;stroke-linecap:butt;"/><path id="XMLID_470_" d="M1100,2708.33l0,25" style="fill:none;fill-rule:nonzero;stroke:#f9a;stroke-opacity:0.36;stroke-width:16.67px;stroke-linecap:butt;"/></g></g></g><g id="XMLID_426_"><g id="XMLID_437_"><g id="XMLID_444_"><path id="XMLID_446_" d="M991.667,2441.67l-0,62.5" style="fill:none;fill-rule:nonzero;stroke:#260005;stroke-width:16.67px;stroke-linecap:butt;"/><path id="XMLID_445_" d="M991.667,2525l-0,25" style="fill:none;fill-rule:nonzero;stroke:#f9a;stroke-opacity:0.36;stroke-width:16.67px;stroke-linecap:butt;"/></g><g id="XMLID_441_"><path id="XMLID_443_" d="M1045.83,2441.67l0,62.5" style="fill:none;fill-rule:nonzero;stroke:#260005;stroke-width:16.67px;stroke-linecap:butt;"/><path id="XMLID_442_" d="M1045.83,2525l0,25" style="fill:none;fill-rule:nonzero;stroke:#f9a;stroke-opacity:0.36;stroke-width:16.67px;stroke-linecap:butt;"/></g><g id="XMLID_438_"><path id="XMLID_440_" d="M1100,2441.67l0,62.5" style="fill:none;fill-rule:nonzero;stroke:#260005;stroke-width:16.67px;stroke-linecap:butt;"/><path id="XMLID_439_" d="M1100,2525l0,25" style="fill:none;fill-rule:nonzero;stroke:#f9a;stroke-opacity:0.36;stroke-width:16.67px;stroke-linecap:butt;"/></g></g></g><g id="XMLID_395_"><g id="XMLID_406_"><g id="XMLID_413_"><path id="XMLID_415_" d="M991.667,2258.33l-0,62.5" style="fill:none;fill-rule:nonzero;stroke:#260005;stroke-width:16.67px;stroke-linecap:butt;"/><path id="XMLID_414_" d="M991.667,2341.67l-0,25" style="fill:none;fill-rule:nonzero;stroke:#f9a;stroke-opacity:0.36;stroke-width:16.67px;stroke-linecap:butt;"/></g><g id="XMLID_410_"><path id="XMLID_412_" d="M1045.83,2258.33l0,62.5" style="fill:none;fill-rule:nonzero;stroke:#260005;stroke-width:16.67px;stroke-linecap:butt;"/><path id="XMLID_411_" d="M1045.83,2341.67l0,25" style="fill:none;fill-rule:nonzero;stroke:#f9a;stroke-opacity:0.36;stroke-width:16.67px;stroke-linecap:butt;"/></g><g id="XMLID_407_"><path id="XMLID_409_" d="M1100,2258.33l0,62.5" style="fill:none;fill-rule:nonzero;stroke:#260005;stroke-width:16.67px;stroke-linecap:butt;"/><path id="XMLID_408_" d="M1100,2341.67l0,25" style="fill:none;fill-rule:nonzero;stroke:#f9a;stroke-opacity:0.36;stroke-width:16.67px;stroke-linecap:butt;"/></g></g></g><g id="XMLID_364_"><g id="XMLID_375_"><g id="XMLID_382_"><path id="XMLID_384_" d="M991.667,2075l-0,62.5" style="fill:none;fill-rule:nonzero;stroke:#260005;stroke-width:16.67px;stroke-linecap:butt;"/><path id="XMLID_383_" d="M991.667,2158.33l-0,25" style="fill:none;fill-rule:nonzero;stroke:#f9a;stroke-opacity:0.36;stroke-width:16.67px;stroke-linecap:butt;"/></g><g id="XMLID_379_"><path id="XMLID_381_" d="M1045.83,2075l0,62.5" style="fill:none;fill-rule:nonzero;stroke:#260005;stroke-width:16.67px;stroke-linecap:butt;"/><path id="XMLID_380_" d="M1045.83,2158.33l0,25" style="fill:none;fill-rule:nonzero;stroke:#f9a;stroke-opacity:0.36;stroke-width:16.67px;stroke-linecap:butt;"/></g><g id="XMLID_376_"><path id="XMLID_378_" d="M1100,2075l0,62.5" style="fill:none;fill-rule:nonzero;stroke:#260005;stroke-width:16.67px;stroke-linecap:butt;"/><path id="XMLID_377_" d="M1100,2158.33l0,25" style="fill:none;fill-rule:nonzero;stroke:#f9a;stroke-opacity:0.36;stroke-width:16.67px;stroke-linecap:butt;"/></g></g></g><g id="XMLID_333_"><g id="XMLID_344_"><g id="XMLID_351_"><path id="XMLID_353_" d="M991.667,1891.67l-0,62.5" style="fill:none;fill-rule:nonzero;stroke:#260005;stroke-width:16.67px;stroke-linecap:butt;"/><path id="XMLID_352_" d="M991.667,1975l-0,25" style="fill:none;fill-rule:nonzero;stroke:#f9a;stroke-opacity:0.36;stroke-width:16.67px;stroke-linecap:butt;"/></g><g id="XMLID_348_"><path id="XMLID_350_" d="M1045.83,1891.67l0,62.5" style="fill:none;fill-rule:nonzero;stroke:#260005;stroke-width:16.67px;stroke-linecap:butt;"/><path id="XMLID_349_" d="M1045.83,1975l0,25" style="fill:none;fill-rule:nonzero;stroke:#f9a;stroke-opacity:0.36;stroke-width:16.67px;stroke-linecap:butt;"/></g><g id="XMLID_345_"><path id="XMLID_347_" d="M1100,1891.67l0,62.5" style="fill:none;fill-rule:nonzero;stroke:#260005;stroke-width:16.67px;stroke-linecap:butt;"/><path id="XMLID_346_" d="M1100,1975l0,25" style="fill:none;fill-rule:nonzero;stroke:#f9a;stroke-opacity:0.36;stroke-width:16.67px;stroke-linecap:butt;"/></g></g></g></g><rect id="XMLID_84_" x="1008.33" y="2825" width="83.333" height="200" style="fill:#fff;"/><rect id="XMLID_37_" x="1008.33" y="2825" width="83.333" height="200" style="fill:none;stroke:#170e10;stroke-width:41.67px;"/><path id="XMLID_42_" d="M2187.5,1545.83l0,186.25" style="fill:none;fill-rule:nonzero;stroke:#170e10;stroke-width:33.33px;"/><path id="XMLID_46_" d="M2147.08,1584.58l83.334,0" style="fill:none;fill-rule:nonzero;stroke:#170e10;stroke-width:33.33px;"/><path id="XMLID_47_" d="M2120,1638.75l140.833,0" style="fill:none;fill-rule:nonzero;stroke:#170e10;stroke-width:33.33px;"/><path id="XMLID_48_" d="M3387.5,3025l0,-737.5" style="fill:none;fill-rule:nonzero;stroke:#170e10;stroke-width:41.67px;"/><path id="XMLID_51_" d="M3229.17,2330l-0,-42.5" style="fill:none;fill-rule:nonzero;stroke:#170e10;stroke-width:41.67px;"/><path id="XMLID_31_" d="M3229.17,2287.5c-0,-43.75 35.416,-79.167 79.166,-79.167c43.75,0 79.167,35.417 79.167,79.167" style="fill:none;fill-rule:nonzero;stroke:#170e10;stroke-width:41.67px;"/><path id="XMLID_49_" d="M3302.08,2405.42l-145.833,-0l72.917,-84.584l72.916,84.584Z" style="fill:none;fill-rule:nonzero;stroke:#170e10;stroke-width:41.67px;"/><path id="XMLID_56_" d="M822.917,3025l-0,-729.167" style="fill:none;fill-rule:nonzero;stroke:#170e10;stroke-width:41.67px;"/><path id="XMLID_55_" d="M664.583,2332.92l0,-37.084" style="fill:none;fill-rule:nonzero;stroke:#170e10;stroke-width:41.67px;"/><path id="XMLID_53_" d="M664.583,2295.83c0,-43.75 35.417,-79.166 79.167,-79.166c43.75,-0 79.167,35.416 79.167,79.166" style="fill:none;fill-rule:nonzero;stroke:#170e10;stroke-width:41.67px;"/><path id="XMLID_143_" d="M737.5,2413.75l-145.833,0l72.916,-84.583l72.917,84.583Z" style="fill:#fff;fill-rule:nonzero;"/><path id="XMLID_52_" d="M737.5,2413.75l-145.833,0l72.916,-84.583l72.917,84.583Z" style="fill:none;fill-rule:nonzero;stroke:#170e10;stroke-width:41.67px;"/><ellipse id="XMLID_85_" cx="442.917" cy="2640.83" rx="170.833" ry="237.083" style="fill:#ff6550;"/><path id="XMLID_88_" d="M319.167,2640.83c-0,-117.916 62.083,-215.416 143.333,-233.75c-9.167,-2.083 -18.333,-3.333 -27.5,-3.333c-94.167,0 -170.833,106.25 -170.833,237.083c-0,130.834 76.666,237.084 170.833,237.084c9.583,-0 18.75,-1.25 27.5,-3.334c-81.667,-18.333 -143.333,-115.833 -143.333,-233.75Z" style="fill:#333;fill-opacity:0.53;fill-rule:nonzero;"/><ellipse id="XMLID_70_" cx="442.917" cy="2640.83" rx="170.833" ry="237.083" style="fill:none;stroke:#170e10;stroke-width:41.67px;"/><path id="XMLID_68_" d="M449.167,2780l49.166,-48.75" style="fill:none;fill-rule:nonzero;stroke:#170e10;stroke-width:41.67px;"/><path id="XMLID_67_" d="M442.917,2705.83l-52.084,-49.166" style="fill:none;fill-rule:nonzero;stroke:#170e10;stroke-width:41.67px;"/><ellipse id="XMLID_72_" cx="2331.25" cy="2783.33" rx="104.167" ry="143.333" style="fill:#e97e1c;"/><path id="XMLID_89_" d="M2268.75,2783.33c0,-69.166 35.833,-127.083 83.333,-140.416c-6.666,-1.667 -13.75,-2.917 -20.833,-2.917c-57.5,0 -104.167,64.167 -104.167,143.333c0,79.167 46.667,143.334 104.167,143.334c7.083,-0 14.167,-0.834 20.833,-2.917c-47.5,-13.333 -83.333,-71.25 -83.333,-140.417Z" style="fill:#333;fill-opacity:0.53;fill-rule:nonzero;"/><ellipse id="XMLID_77_" cx="2331.25" cy="2783.33" rx="104.167" ry="143.333" style="fill:none;stroke:#170e10;stroke-width:41.67px;"/><path id="XMLID_73_" d="M3178.33,2646.67c15.834,147.916 -96.25,207.5 -157.083,203.75c-61.25,3.75 -172.917,-55.834 -157.083,-203.75c28.333,-143.334 90.416,-254.167 157.083,-253.75c66.25,-0.417 128.75,110.416 157.083,253.75Z" style="fill:#d44644;fill-rule:nonzero;"/><path id="XMLID_90_" d="M3061.25,2842.08c-61.25,3.75 -172.917,-55.833 -157.083,-203.75c23.333,-119.166 70.833,-216.25 124.166,-245c-2.5,-0.416 -4.583,-0.416 -7.083,-0.416c-66.667,-0.834 -129.167,110 -157.083,253.75c-15.834,147.916 96.25,207.5 157.083,203.75c14.583,0.833 31.667,-1.667 49.167,-8.334c-3.334,0.417 -6.25,0.417 -9.167,0Z" style="fill:#333;fill-opacity:0.53;fill-rule:nonzero;"/><path id="XMLID_62_" d="M3178.33,2646.67c15.834,147.916 -96.25,207.5 -157.083,203.75c-61.25,3.75 -172.917,-55.834 -157.083,-203.75c28.333,-143.334 90.416,-254.167 157.083,-253.75c66.25,-0.417 128.75,110.416 157.083,253.75Z" style="fill:none;fill-rule:nonzero;stroke:#170e10;stroke-width:41.67px;"/><path id="XMLID_65_" d="M3021.25,2751.25l52.5,-52.5" style="fill:none;fill-rule:nonzero;stroke:#170e10;stroke-width:41.67px;"/><path id="XMLID_66_" d="M3021.25,2660.42l-57.5,-57.5" style="fill:none;fill-rule:nonzero;stroke:#170e10;stroke-width:41.67px;"/><path id="XMLID_134_" d="M1710.42,3220.83l439.583,0" style="fill:none;fill-rule:nonzero;stroke:#170e10;stroke-width:41.67px;"/><path id="XMLID_133_" d="M2215.83,3220.83l45,0" style="fill:none;fill-rule:nonzero;stroke:#170e10;stroke-width:41.67px;"/><path id="XMLID_137_" d="M2313.75,3220.83l8.75,0" style="fill:none;fill-rule:nonzero;stroke:#170e10;stroke-width:41.67px;"/><path id="XMLID_83_" d="M1497.5,3220.83l108.75,0" style="fill:none;fill-rule:nonzero;stroke:#170e10;stroke-width:41.67px;"/><path id="XMLID_80_" d="M2331.25,2827.08l0,191.25" style="fill:none;fill-rule:nonzero;stroke:#170e10;stroke-width:41.67px;"/><path id="XMLID_64_" d="M3021.25,2552.08l0,472.917" style="fill:none;fill-rule:nonzero;stroke:#170e10;stroke-width:41.67px;"/><path id="XMLID_71_" d="M449.167,2595.83l-0,429.167" style="fill:none;fill-rule:nonzero;stroke:#170e10;stroke-width:41.67px;"/><ellipse id="XMLID_87_" cx="3599.58" cy="2627.5" rx="170.833" ry="237.083" style="fill:#e97e1c;"/><path id="XMLID_91_" d="M3470.42,2627.5c-0,-120.833 65.416,-220.833 150,-235c-6.667,-1.25 -13.75,-1.667 -20.834,-1.667c-94.166,0 -170.833,106.25 -170.833,237.084c0,130.833 76.667,237.083 170.833,237.083c7.084,0 14.167,-0.833 20.834,-1.667c-84.584,-15 -150,-115 -150,-235.833Z" style="fill:#333;fill-opacity:0.53;fill-rule:nonzero;"/><ellipse id="XMLID_50_" cx="3599.58" cy="2627.5" rx="170.833" ry="237.083" style="fill:none;stroke:#170e10;stroke-width:41.67px;"/><path id="XMLID_59_" d="M3606.25,2787.5l48.75,-48.75" style="fill:none;fill-rule:nonzero;stroke:#170e10;stroke-width:41.67px;"/><path id="XMLID_60_" d="M3599.58,2712.92l-52.083,-48.75" style="fill:none;fill-rule:nonzero;stroke:#170e10;stroke-width:41.67px;"/><path id="XMLID_57_" d="M3606.25,2602.92l0,420.416" style="fill:none;fill-rule:nonzero;stroke:#170e10;stroke-width:41.67px;"/><path id="XMLID_93_" d="M1363.75,1286.25l0,151.667" style="fill:none;fill-rule:nonzero;stroke:#170e10;stroke-width:25px;stroke-linecap:butt;"/><path id="XMLID_94_" d="M1454.17,1286.25l-0,151.667" style="fill:none;fill-rule:nonzero;stroke:#170e10;stroke-width:25px;stroke-linecap:butt;"/><circle id="XMLID_100_" cx="441.667" cy="2504.17" r="14.583" style="fill:#fff;fill-opacity:0.55;"/><circle id="XMLID_103_" cx="531.667" cy="2662.5" r="18.75" style="fill:#fff;fill-opacity:0.55;"/><circle id="XMLID_104_" cx="517.083" cy="2563.33" r="18.75" style="fill:#333;fill-opacity:0.53;"/><circle id="XMLID_102_" cx="390.833" cy="2587.5" r="13.75" style="fill:#333;fill-opacity:0.53;"/><circle id="XMLID_101_" cx="2318.33" cy="2716.25" r="10" style="fill:#fff;fill-opacity:0.55;"/><circle id="XMLID_105_" cx="2378.75" cy="2755.83" r="14.167" style="fill:#333;fill-opacity:0.53;"/><circle id="XMLID_109_" cx="3015" cy="2512.5" r="10" style="fill:#fff;fill-opacity:0.55;"/><circle id="XMLID_111_" cx="3097.08" cy="2629.17" r="14.167" style="fill:#fff;fill-opacity:0.55;"/><circle id="XMLID_108_" cx="3075.42" cy="2552.08" r="14.167" style="fill:#333;fill-opacity:0.53;"/><circle id="XMLID_110_" cx="2963.75" cy="2706.25" r="14.167" style="fill:#333;fill-opacity:0.53;"/><circle id="XMLID_113_" cx="3662.92" cy="2560.83" r="19.583" style="fill:#fff;fill-opacity:0.55;"/><circle id="XMLID_114_" cx="3654.58" cy="2663.75" r="14.167" style="fill:#333;fill-opacity:0.53;"/><circle id="XMLID_112_" cx="3587.08" cy="2515.83" r="14.167" style="fill:#333;fill-opacity:0.53;"/><path id="XMLID_4_" d="M2970,3025c0,-47.917 38.75,-86.25 86.25,-86.25c47.5,0 86.25,38.75 86.25,86.25l-172.5,0Z" style="fill:#e97e1c;fill-rule:nonzero;"/><path id="XMLID_135_" d="M3081.67,2942.5c-7.917,-2.5 -16.667,-3.75 -25.834,-3.75c-47.916,0 -86.25,38.75 -86.25,86.25l51.25,0c0.417,-38.75 25.834,-71.667 60.834,-82.5Z" style="fill:#333;fill-opacity:0.53;fill-rule:nonzero;"/><path id="XMLID_3_" d="M2970,3025c0,-47.917 38.75,-86.25 86.25,-86.25c47.5,0 86.25,38.75 86.25,86.25l-172.5,0Z" style="fill:none;fill-rule:nonzero;stroke:#170e10;stroke-width:41.67px;"/><path id="XMLID_132_" d="M3079.17,3025c-0,-68.75 55.416,-124.167 124.166,-124.167c68.75,0 124.167,55.417 124.167,124.167l-248.333,0Z" style="fill:#d44644;fill-rule:nonzero;"/><path id="XMLID_136_" d="M3227.08,2903.33c-7.916,-1.666 -15.833,-2.5 -24.166,-2.5c-68.75,0 -124.167,55.417 -124.167,124.167l47.917,-0c0.416,-60.417 43.333,-110.833 100.416,-121.667Z" style="fill:#333;fill-opacity:0.53;fill-rule:nonzero;"/><path id="XMLID_129_" d="M3079.17,3025c-0,-68.75 55.416,-124.167 124.166,-124.167c68.75,0 124.167,55.417 124.167,124.167l-248.333,0Z" style="fill:none;fill-rule:nonzero;stroke:#170e10;stroke-width:41.67px;"/></svg>