<?xml version="1.0" encoding="UTF-8" standalone="no"?>
<!DOCTYPE svg PUBLIC "-//W3C//DTD SVG 1.1//EN" "http://www.w3.org/Graphics/SVG/1.1/DTD/svg11.dtd">
<svg width="100%" height="100%" viewBox="0 0 1280 1024" version="1.1" xmlns="http://www.w3.org/2000/svg" xmlns:xlink="http://www.w3.org/1999/xlink" xml:space="preserve" xmlns:serif="http://www.serif.com/" style="fill-rule:evenodd;clip-rule:evenodd;stroke-linecap:round;stroke-linejoin:round;stroke-miterlimit:10;">
    <g id="XMLID_967_" transform="matrix(1,0,0,1,134.216,64.989)">
        <g id="XMLID_1056_">
            <path id="XMLID_1057_" d="M236.1,471.1C213,447.7 198.8,415.5 198.8,380.1C198.8,308.5 256.9,250.4 328.5,250.4C400.1,250.4 458.3,308.4 458.3,380L358.4,304L236.1,471.1Z" style="fill:rgb(253,200,88);fill-rule:nonzero;"/>
        </g>
        <g id="XMLID_1052_">
            <path id="XMLID_1055_" d="M328.6,215.8L328.6,229.8" style="fill:none;fill-rule:nonzero;stroke:rgb(212,192,226);stroke-width:8px;"/>
            <path id="XMLID_1054_" d="M328.6,189.8L328.6,204.4" style="fill:none;fill-rule:nonzero;stroke:rgb(212,192,226);stroke-width:8px;"/>
            <path id="XMLID_1053_" d="M328.6,157.7L328.6,176.8" style="fill:none;fill-rule:nonzero;stroke:rgb(212,192,226);stroke-width:8px;"/>
        </g>
        <g id="XMLID_1048_">
            <path id="XMLID_1051_" d="M300,218.3L302.5,232" style="fill:none;fill-rule:nonzero;stroke:rgb(212,192,226);stroke-width:8px;"/>
            <path id="XMLID_1050_" d="M295.5,192.7L298.1,207.1" style="fill:none;fill-rule:nonzero;stroke:rgb(212,192,226);stroke-width:8px;"/>
            <path id="XMLID_1049_" d="M289.9,161.1L293.3,179.9" style="fill:none;fill-rule:nonzero;stroke:rgb(212,192,226);stroke-width:8px;"/>
        </g>
        <g id="XMLID_1044_">
            <path id="XMLID_1047_" d="M272.4,225.7L277.2,238.8" style="fill:none;fill-rule:nonzero;stroke:rgb(212,192,226);stroke-width:8px;"/>
            <path id="XMLID_1046_" d="M263.5,201.3L268.5,215" style="fill:none;fill-rule:nonzero;stroke:rgb(212,192,226);stroke-width:8px;"/>
            <path id="XMLID_1045_" d="M252.5,171.1L259.1,189.1" style="fill:none;fill-rule:nonzero;stroke:rgb(212,192,226);stroke-width:8px;"/>
        </g>
        <g id="XMLID_1040_">
            <path id="XMLID_1043_" d="M246.4,237.8L253.4,249.9" style="fill:none;fill-rule:nonzero;stroke:rgb(212,192,226);stroke-width:8px;"/>
            <path id="XMLID_1042_" d="M233.5,215.3L240.8,228" style="fill:none;fill-rule:nonzero;stroke:rgb(212,192,226);stroke-width:8px;"/>
            <path id="XMLID_1041_" d="M217.4,187.5L227,204.1" style="fill:none;fill-rule:nonzero;stroke:rgb(212,192,226);stroke-width:8px;"/>
        </g>
        <g id="XMLID_1036_">
            <path id="XMLID_1039_" d="M223,254.2L232,264.9" style="fill:none;fill-rule:nonzero;stroke:rgb(212,192,226);stroke-width:8px;"/>
            <path id="XMLID_1038_" d="M206.3,234.3L215.7,245.5" style="fill:none;fill-rule:nonzero;stroke:rgb(212,192,226);stroke-width:8px;"/>
            <path id="XMLID_1037_" d="M185.6,209.7L198,224.4" style="fill:none;fill-rule:nonzero;stroke:rgb(212,192,226);stroke-width:8px;"/>
        </g>
        <g id="XMLID_1030_">
            <path id="XMLID_1035_" d="M202.8,274.5L213.5,283.4" style="fill:none;fill-rule:nonzero;stroke:rgb(212,192,226);stroke-width:8px;"/>
            <path id="XMLID_1034_" d="M182.9,257.8L194,267.2" style="fill:none;fill-rule:nonzero;stroke:rgb(212,192,226);stroke-width:8px;"/>
            <path id="XMLID_1033_" d="M158.2,237.1L172.9,249.4" style="fill:none;fill-rule:nonzero;stroke:rgb(212,192,226);stroke-width:8px;"/>
        </g>
        <g id="XMLID_1026_">
            <path id="XMLID_1029_" d="M186.3,297.9L198.4,304.9" style="fill:none;fill-rule:nonzero;stroke:rgb(212,192,226);stroke-width:8px;"/>
            <path id="XMLID_1028_" d="M163.8,284.9L176.5,292.2" style="fill:none;fill-rule:nonzero;stroke:rgb(212,192,226);stroke-width:8px;"/>
            <path id="XMLID_1027_" d="M136,268.8L152.6,278.4" style="fill:none;fill-rule:nonzero;stroke:rgb(212,192,226);stroke-width:8px;"/>
        </g>
        <g id="XMLID_1022_">
            <path id="XMLID_1025_" d="M174.2,323.9L187.4,328.6" style="fill:none;fill-rule:nonzero;stroke:rgb(212,192,226);stroke-width:8px;"/>
            <path id="XMLID_1024_" d="M149.8,315L163.6,320" style="fill:none;fill-rule:nonzero;stroke:rgb(212,192,226);stroke-width:8px;"/>
            <path id="XMLID_1023_" d="M119.6,304L137.6,310.5" style="fill:none;fill-rule:nonzero;stroke:rgb(212,192,226);stroke-width:8px;"/>
        </g>
        <g id="XMLID_1018_">
            <path id="XMLID_1021_" d="M166.8,351.5L180.6,353.9" style="fill:none;fill-rule:nonzero;stroke:rgb(212,192,226);stroke-width:8px;"/>
            <path id="XMLID_1020_" d="M141.3,347L155.6,349.5" style="fill:none;fill-rule:nonzero;stroke:rgb(212,192,226);stroke-width:8px;"/>
            <path id="XMLID_1019_" d="M109.6,341.4L128.5,344.7" style="fill:none;fill-rule:nonzero;stroke:rgb(212,192,226);stroke-width:8px;"/>
        </g>
        <g id="XMLID_1014_">
            <path id="XMLID_1017_" d="M164.3,380L178.3,380" style="fill:none;fill-rule:nonzero;stroke:rgb(212,192,226);stroke-width:8px;"/>
            <path id="XMLID_1016_" d="M138.4,380L153,380" style="fill:none;fill-rule:nonzero;stroke:rgb(212,192,226);stroke-width:8px;"/>
            <path id="XMLID_1015_" d="M106.2,380L125.4,380" style="fill:none;fill-rule:nonzero;stroke:rgb(212,192,226);stroke-width:8px;"/>
        </g>
        <g id="XMLID_1010_">
            <path id="XMLID_1013_" d="M166.8,408.5L180.6,406.1" style="fill:none;fill-rule:nonzero;stroke:rgb(212,192,226);stroke-width:8px;"/>
            <path id="XMLID_1012_" d="M141.3,413L155.6,410.5" style="fill:none;fill-rule:nonzero;stroke:rgb(212,192,226);stroke-width:8px;"/>
            <path id="XMLID_1011_" d="M109.6,418.6L128.5,415.3" style="fill:none;fill-rule:nonzero;stroke:rgb(212,192,226);stroke-width:8px;"/>
        </g>
        <g id="XMLID_1006_">
            <path id="XMLID_1009_" d="M174.2,436.2L187.4,431.4" style="fill:none;fill-rule:nonzero;stroke:rgb(212,192,226);stroke-width:8px;"/>
            <path id="XMLID_1008_" d="M149.8,445.1L163.6,440.1" style="fill:none;fill-rule:nonzero;stroke:rgb(212,192,226);stroke-width:8px;"/>
            <path id="XMLID_1007_" d="M119.6,456.1L137.6,449.5" style="fill:none;fill-rule:nonzero;stroke:rgb(212,192,226);stroke-width:8px;"/>
        </g>
        <g id="XMLID_1002_">
            <path id="XMLID_1005_" d="M186.3,462.1L198.4,455.1" style="fill:none;fill-rule:nonzero;stroke:rgb(212,192,226);stroke-width:8px;"/>
            <path id="XMLID_1004_" d="M163.8,475.1L176.5,467.8" style="fill:none;fill-rule:nonzero;stroke:rgb(212,192,226);stroke-width:8px;"/>
            <path id="XMLID_1003_" d="M136,491.2L152.6,481.6" style="fill:none;fill-rule:nonzero;stroke:rgb(212,192,226);stroke-width:8px;"/>
        </g>
        <g id="XMLID_992_">
            <path id="XMLID_994_" d="M482.9,323.9L469.7,328.6" style="fill:none;fill-rule:nonzero;stroke:rgb(212,192,226);stroke-width:8px;"/>
            <path id="XMLID_993_" d="M507.3,315L493.5,320" style="fill:none;fill-rule:nonzero;stroke:rgb(212,192,226);stroke-width:8px;"/>
        </g>
        <g id="XMLID_988_">
            <path id="XMLID_991_" d="M470.8,297.9L458.7,304.9" style="fill:none;fill-rule:nonzero;stroke:rgb(212,192,226);stroke-width:8px;"/>
            <path id="XMLID_990_" d="M493.3,284.9L480.6,292.2" style="fill:none;fill-rule:nonzero;stroke:rgb(212,192,226);stroke-width:8px;"/>
            <path id="XMLID_989_" d="M521.1,268.8L504.5,278.4" style="fill:none;fill-rule:nonzero;stroke:rgb(212,192,226);stroke-width:8px;"/>
        </g>
        <g id="XMLID_984_">
            <path id="XMLID_987_" d="M454.3,274.5L443.7,283.4" style="fill:none;fill-rule:nonzero;stroke:rgb(212,192,226);stroke-width:8px;"/>
            <path id="XMLID_986_" d="M474.2,257.8L463.1,267.2" style="fill:none;fill-rule:nonzero;stroke:rgb(212,192,226);stroke-width:8px;"/>
            <path id="XMLID_985_" d="M498.9,237.1L484.2,249.4" style="fill:none;fill-rule:nonzero;stroke:rgb(212,192,226);stroke-width:8px;"/>
        </g>
        <g id="XMLID_980_">
            <path id="XMLID_983_" d="M434.1,254.2L425.1,264.9" style="fill:none;fill-rule:nonzero;stroke:rgb(212,192,226);stroke-width:8px;"/>
            <path id="XMLID_982_" d="M450.8,234.3L441.4,245.5" style="fill:none;fill-rule:nonzero;stroke:rgb(212,192,226);stroke-width:8px;"/>
            <path id="XMLID_981_" d="M471.5,209.7L459.2,224.4" style="fill:none;fill-rule:nonzero;stroke:rgb(212,192,226);stroke-width:8px;"/>
        </g>
        <g id="XMLID_976_">
            <path id="XMLID_979_" d="M410.7,237.8L403.7,249.9" style="fill:none;fill-rule:nonzero;stroke:rgb(212,192,226);stroke-width:8px;"/>
            <path id="XMLID_978_" d="M423.6,215.3L416.3,228" style="fill:none;fill-rule:nonzero;stroke:rgb(212,192,226);stroke-width:8px;"/>
            <path id="XMLID_977_" d="M439.7,187.5L430.1,204.1" style="fill:none;fill-rule:nonzero;stroke:rgb(212,192,226);stroke-width:8px;"/>
        </g>
        <g id="XMLID_972_">
            <path id="XMLID_975_" d="M384.7,225.7L379.9,238.8" style="fill:none;fill-rule:nonzero;stroke:rgb(212,192,226);stroke-width:8px;"/>
            <path id="XMLID_974_" d="M393.6,201.3L388.6,215" style="fill:none;fill-rule:nonzero;stroke:rgb(212,192,226);stroke-width:8px;"/>
            <path id="XMLID_973_" d="M404.6,171.1L398,189.1" style="fill:none;fill-rule:nonzero;stroke:rgb(212,192,226);stroke-width:8px;"/>
        </g>
        <g id="XMLID_968_">
            <path id="XMLID_971_" d="M357.1,218.3L354.6,232" style="fill:none;fill-rule:nonzero;stroke:rgb(212,192,226);stroke-width:8px;"/>
            <path id="XMLID_970_" d="M361.6,192.7L359,207.1" style="fill:none;fill-rule:nonzero;stroke:rgb(212,192,226);stroke-width:8px;"/>
            <path id="XMLID_969_" d="M367.2,161.1L363.8,179.9" style="fill:none;fill-rule:nonzero;stroke:rgb(212,192,226);stroke-width:8px;"/>
        </g>
    </g>
    <g id="XMLID_129_" transform="matrix(1,0,0,1,134.216,64.989)">
        <path d="M214.5,740.7L75.1,740.7" style="fill:none;fill-rule:nonzero;stroke:rgb(82,49,96);stroke-width:8px;"/>
    </g>
    <g id="XMLID_187_" transform="matrix(1,0,0,1,134.216,64.989)">
        <path d="M431.5,740.7L232,740.7" style="fill:none;fill-rule:nonzero;stroke:rgb(82,49,96);stroke-width:8px;"/>
    </g>
    <g id="XMLID_325_" transform="matrix(1,0,0,1,134.216,64.989)">
        <path d="M792.5,740.7L774.4,740.7" style="fill:none;fill-rule:nonzero;stroke:rgb(82,49,96);stroke-width:8px;"/>
    </g>
    <g id="XMLID_3_" transform="matrix(1,0,0,1,134.216,64.989)">
        <path d="M896.5,740.7L809.9,740.7" style="fill:none;fill-rule:nonzero;stroke:rgb(82,49,96);stroke-width:8px;"/>
    </g>
    <g id="XMLID_5_" transform="matrix(1,0,0,1,134.216,64.989)">
        <path d="M918,740.7L911.5,740.7" style="fill:none;fill-rule:nonzero;stroke:rgb(82,49,96);stroke-width:8px;"/>
    </g>
    <g id="XMLID_19_" transform="matrix(1,0,0,1,134.216,64.989)">
        <path d="M162.8,570.6L358.9,304.4L468.5,388.7" style="fill:none;fill-rule:nonzero;stroke:rgb(212,192,226);stroke-width:8px;"/>
    </g>
    <g id="XMLID_29_" transform="matrix(1,0,0,1,134.216,64.989)">
        <path d="M418.4,456.7L558.5,266.5L796.3,482.5" style="fill:none;fill-rule:nonzero;stroke:rgb(212,192,226);stroke-width:8px;"/>
    </g>
    <g id="XMLID_174_" transform="matrix(0.7947,-0.607,0.607,0.7947,-219.568,259.259)">
        <ellipse cx="110.3" cy="620.2" rx="17.8" ry="7.8" style="fill:rgb(253,200,88);"/>
    </g>
    <g id="XMLID_163_" transform="matrix(0.7947,-0.607,0.607,0.7947,-200.37,252.766)">
        <ellipse cx="110.3" cy="588.5" rx="17.8" ry="7.8" style="fill:rgb(253,200,88);"/>
    </g>
    <g id="XMLID_158_" transform="matrix(0.7947,-0.607,0.607,0.7947,-266.26,275.051)">
        <ellipse cx="110.3" cy="697.1" rx="17.8" ry="7.8" style="fill:rgb(253,200,88);"/>
    </g>
    <g id="XMLID_134_" transform="matrix(0.7947,-0.607,0.607,0.7947,-242.27,266.937)">
        <ellipse cx="110.3" cy="657.6" rx="17.8" ry="7.8" style="fill:rgb(253,200,88);"/>
    </g>
    <g id="XMLID_34_" transform="matrix(0.7947,-0.607,0.607,0.7947,-219.568,259.259)">
        <ellipse cx="110.3" cy="620.2" rx="17.8" ry="7.8" style="fill:none;stroke:rgb(82,49,96);stroke-width:8px;"/>
    </g>
    <g id="XMLID_32_" transform="matrix(0.7947,-0.607,0.607,0.7947,-200.37,252.766)">
        <ellipse cx="110.3" cy="588.5" rx="17.8" ry="7.8" style="fill:none;stroke:rgb(82,49,96);stroke-width:8px;"/>
    </g>
    <g id="XMLID_35_" transform="matrix(0.7947,-0.607,0.607,0.7947,-266.26,275.051)">
        <ellipse cx="110.3" cy="697.1" rx="17.8" ry="7.8" style="fill:none;stroke:rgb(82,49,96);stroke-width:8px;"/>
    </g>
    <g id="XMLID_33_" transform="matrix(0.7947,-0.607,0.607,0.7947,-242.27,266.937)">
        <ellipse cx="110.3" cy="657.6" rx="17.8" ry="7.8" style="fill:none;stroke:rgb(82,49,96);stroke-width:8px;"/>
    </g>
    <g id="XMLID_175_" transform="matrix(0.607,-0.7947,0.7947,0.607,-301.311,361.428)">
        <ellipse cx="81.9" cy="588.6" rx="7.8" ry="17.8" style="fill:rgb(253,200,88);"/>
    </g>
    <g id="XMLID_160_" transform="matrix(0.607,-0.7947,0.7947,0.607,-374.948,397.844)">
        <ellipse cx="81.9" cy="681.2" rx="7.8" ry="17.8" style="fill:rgb(253,200,88);"/>
    </g>
    <g id="XMLID_137_" transform="matrix(0.607,-0.7947,0.7947,0.607,-343.455,382.27)">
        <ellipse cx="81.9" cy="641.6" rx="7.8" ry="17.8" style="fill:rgb(253,200,88);"/>
    </g>
    <g id="XMLID_38_" transform="matrix(0.607,-0.7947,0.7947,0.607,-301.311,361.428)">
        <ellipse cx="81.9" cy="588.6" rx="7.8" ry="17.8" style="fill:none;stroke:rgb(82,49,96);stroke-width:8px;"/>
    </g>
    <g id="XMLID_37_" transform="matrix(0.607,-0.7947,0.7947,0.607,-374.948,397.844)">
        <ellipse cx="81.9" cy="681.2" rx="7.8" ry="17.8" style="fill:none;stroke:rgb(82,49,96);stroke-width:8px;"/>
    </g>
    <g id="XMLID_36_" transform="matrix(0.607,-0.7947,0.7947,0.607,-343.455,382.27)">
        <ellipse cx="81.9" cy="641.6" rx="7.8" ry="17.8" style="fill:none;stroke:rgb(82,49,96);stroke-width:8px;"/>
    </g>
    <g id="XMLID_40_" transform="matrix(1,0,0,1,134.216,64.989)">
        <path d="M96.1,593.5L96.1,738.8" style="fill:none;fill-rule:nonzero;stroke:rgb(82,49,96);stroke-width:8px;"/>
    </g>
    <g id="XMLID_44_" transform="matrix(0.7947,-0.607,0.607,0.7947,-253.873,326.995)">
        <ellipse cx="193.3" cy="704.8" rx="17.8" ry="7.8" style="fill:none;stroke:rgb(82,49,96);stroke-width:8px;"/>
    </g>
    <g id="XMLID_43_" transform="matrix(0.7947,-0.607,0.607,0.7947,-233.721,320.18)">
        <ellipse cx="193.3" cy="671.6" rx="17.8" ry="7.8" style="fill:none;stroke:rgb(82,49,96);stroke-width:8px;"/>
    </g>
    <g id="XMLID_45_" transform="matrix(0.7947,-0.607,0.607,0.7947,-215.533,314.029)">
        <ellipse cx="193.3" cy="641.6" rx="17.8" ry="7.8" style="fill:none;stroke:rgb(82,49,96);stroke-width:8px;"/>
    </g>
    <g id="XMLID_42_" transform="matrix(0.607,-0.7947,0.7947,0.607,-342.333,463.796)">
        <ellipse cx="164.9" cy="681.2" rx="7.8" ry="17.8" style="fill:none;stroke:rgb(82,49,96);stroke-width:8px;"/>
    </g>
    <g id="XMLID_41_" transform="matrix(0.607,-0.7947,0.7947,0.607,-310.839,448.222)">
        <ellipse cx="164.9" cy="641.6" rx="7.8" ry="17.8" style="fill:none;stroke:rgb(82,49,96);stroke-width:8px;"/>
    </g>
    <g id="XMLID_39_" transform="matrix(1,0,0,1,134.216,64.989)">
        <path d="M179.1,648.3L179.1,738.8" style="fill:none;fill-rule:nonzero;stroke:rgb(82,49,96);stroke-width:8px;"/>
    </g>
    <g id="XMLID_30_" transform="matrix(1,0,0,1,134.216,64.989)">
        <path d="M295.5,390.9L305.3,403.5L329,394.1L359.7,405.9L372.4,394.1L396.4,402L409.4,382.2L439.9,394.4L451.9,375.9" style="fill:none;fill-rule:nonzero;stroke:rgb(212,192,226);stroke-width:8px;"/>
    </g>
    <g id="XMLID_46_" transform="matrix(1,0,0,1,134.216,64.989)">
        <path d="M496.5,350.6L526.9,343.6L538,364.1L569.5,347.1L592.5,361.6L607.4,339.6L646,346" style="fill:none;fill-rule:nonzero;stroke:rgb(212,192,226);stroke-width:8px;"/>
    </g>
    <g id="XMLID_59_" transform="matrix(1,0,0,1,134.216,64.989)">
        <path d="M624.3,275.8L766.7,275.8C767.5,273.9 768,271.7 768,269.5C768,260.6 760.7,253.3 751.8,253.3C750,253.3 748.3,253.6 746.8,254.1C743.1,244 733.3,236.8 721.9,236.8C718.9,236.8 716,237.3 713.3,238.2C707.6,225.6 694.8,216.8 680.1,216.8C659.9,216.8 643.6,233.1 643.6,253.3C643.6,255.3 643.8,257.3 644.1,259.3C634.9,261 627.5,267.3 624.3,275.8Z" style="fill:none;fill-rule:nonzero;stroke:rgb(212,192,226);stroke-width:8px;"/>
    </g>
    <g id="XMLID_64_" transform="matrix(1,0,0,1,134.216,64.989)">
        <path d="M871.4,341.1L871.4,340.6C871.4,331 863.6,323.3 854.1,323.3C852.3,323.3 850.6,323.6 849,324.1L849,322.6C849,307.4 836.7,295.1 821.5,295.1C806.3,295.1 794,307.4 794,322.6C794,324.2 794.1,325.7 794.4,327.2L794,327.2C786.6,327.2 780.5,333.2 780.5,340.7L780.5,341.1L871.4,341.1Z" style="fill:none;fill-rule:nonzero;stroke:rgb(212,192,226);stroke-width:8px;"/>
    </g>
    <g id="XMLID_115_" transform="matrix(1,0,0,1,134.216,64.989)">
        <path d="M340.9,740.7C315.6,740.7 295,720.1 295,694.8C295,669.5 315.6,648.9 340.9,648.9C366.2,648.9 386.8,669.5 386.8,694.8C386.8,720.1 366.2,740.7 340.9,740.7Z" style="fill:rgb(92,63,107);fill-rule:nonzero;"/>
    </g>
    <g id="XMLID_11_" transform="matrix(1,0,0,1,134.216,64.989)">
        <path d="M340.9,740.7C315.6,740.7 295,720.1 295,694.8C295,669.5 315.6,648.9 340.9,648.9C366.2,648.9 386.8,669.5 386.8,694.8C386.8,720.1 366.2,740.7 340.9,740.7Z" style="fill:none;fill-rule:nonzero;stroke:rgb(82,49,96);stroke-width:8px;"/>
    </g>
    <g id="XMLID_116_" transform="matrix(1,0,0,1,134.216,64.989)">
        <path d="M340.9,718.8C327.7,718.8 316.9,708 316.9,694.8C316.9,681.6 327.7,670.8 340.9,670.8C354.1,670.8 364.9,681.6 364.9,694.8C364.9,708 354.1,718.8 340.9,718.8Z" style="fill:rgb(253,200,88);fill-rule:nonzero;"/>
    </g>
    <g id="XMLID_9_" transform="matrix(1,0,0,1,134.216,64.989)">
        <path d="M340.9,718.8C327.7,718.8 316.9,708 316.9,694.8C316.9,681.6 327.7,670.8 340.9,670.8C354.1,670.8 364.9,681.6 364.9,694.8C364.9,708 354.1,718.8 340.9,718.8Z" style="fill:none;fill-rule:nonzero;stroke:rgb(82,49,96);stroke-width:8px;"/>
    </g>
    <g id="XMLID_123_" transform="matrix(1,0,0,1,134.216,64.989)">
        <path d="M340.9,702.7C336.5,702.7 333,699.1 333,694.8C333,690.4 336.6,686.9 340.9,686.9C345.3,686.9 348.8,690.5 348.8,694.8C348.8,699.1 345.3,702.7 340.9,702.7Z" style="fill:rgb(253,200,88);fill-rule:nonzero;"/>
    </g>
    <g id="XMLID_14_" transform="matrix(1,0,0,1,134.216,64.989)">
        <path d="M340.9,702.7C336.5,702.7 333,699.1 333,694.8C333,690.4 336.6,686.9 340.9,686.9C345.3,686.9 348.8,690.5 348.8,694.8C348.8,699.1 345.3,702.7 340.9,702.7Z" style="fill:none;fill-rule:nonzero;stroke:rgb(82,49,96);stroke-width:8px;"/>
    </g>
    <g id="XMLID_84_" transform="matrix(1,0,0,1,134.216,64.989)">
        <path d="M707.9,555.1L698.5,519.4C694.8,505.1 682.6,494.7 667.9,493.1C625.9,488.6 575,486 515.6,486C447.6,486 343.1,491.2 311.7,494.8C306,495.4 301.1,499.1 298.8,504.4L279.9,548.6C271.2,564.2 265.9,581.4 264.4,599.2L264,698.6L285.1,699C285,697.6 284.9,696.2 284.9,694.8C284.9,663.9 309.9,638.9 340.8,638.9C371.7,638.9 396.7,663.9 396.7,694.8C396.7,696.6 396.6,698.4 396.4,700.1L543.4,701.9C543.1,699.6 542.9,697.2 542.9,694.8C542.9,663.9 567.9,638.9 598.8,638.9C629.7,638.9 654.7,663.9 654.7,694.8C654.7,697.6 654.5,700.3 654.1,703L713.4,703.6L713.4,600C713.7,584.9 711.7,569.8 707.9,555.1Z" style="fill:rgb(142,99,173);fill-rule:nonzero;"/>
    </g>
    <g id="XMLID_304_" transform="matrix(1,0,0,1,134.216,64.989)">
        <g opacity="0.36">
            <path id="XMLID_306_" d="M275.2,698.6L275.6,599.2C277.1,581.4 282.4,564.2 291.1,548.6L310,504.4C312.3,499.1 317.2,495.5 322.9,494.8C353.4,491.3 452.7,486.3 520.7,486L515.6,486C447.6,486 343.1,491.2 311.7,494.8C306,495.4 301.1,499.1 298.8,504.4L279.9,548.6C271.2,564.2 265.9,581.4 264.4,599.2L264,698.6L285.1,699L285.1,698.8L275.2,698.6Z" style="fill:rgb(142,99,173);fill-rule:nonzero;"/>
            <path id="XMLID_312_" d="M665.5,703C665.9,700.3 666.1,697.6 666.1,694.8C666.1,663.9 641.1,638.9 610.2,638.9C608.3,638.9 606.5,639 604.6,639.2C632.9,642 654.9,665.8 654.9,694.8C654.9,697.6 654.7,700.3 654.3,703L713.6,703.6L713.6,703.5L665.5,703Z" style="fill:rgb(142,99,173);fill-rule:nonzero;"/>
            <path id="XMLID_314_" d="M407.7,700C407.9,698.3 408,696.5 408,694.7C408,663.8 383,638.8 352.1,638.8C350.2,638.8 348.4,638.9 346.5,639.1C374.8,641.9 396.8,665.7 396.8,694.7C396.8,696.5 396.7,698.3 396.5,700L543.5,701.8L543.5,701.7L407.7,700Z" style="fill:rgb(142,99,173);fill-rule:nonzero;"/>
        </g>
    </g>
    <g id="XMLID_331_" transform="matrix(1,0,0,1,134.216,64.989)">
        <path d="M407.9,691L541.5,691L541.5,677.7L405.3,677.7C406.7,682 407.5,686.4 407.9,691Z" style="fill:rgb(142,99,173);fill-opacity:0.36;fill-rule:nonzero;"/>
    </g>
    <g id="XMLID_297_" transform="matrix(1,0,0,1,134.216,64.989)">
        <g opacity="0.25">
            <path id="XMLID_301_" d="M709.9,554.1L700.5,518.4C696.8,504.1 684.6,493.7 669.9,492.1C627.9,487.6 577,485 517.6,485C449.6,485 345.1,490.2 313.7,493.8C308.8,494.4 304.4,497.2 301.9,501.4C301.9,501.4 301.9,499.7 302,499.7C333.4,496.1 437.9,492.6 505.9,492.6C565.4,492.6 616.2,495.2 658.2,499.7C672.9,501.3 685,511.7 688.8,526L698.2,561.7C702.1,576.4 704,591.5 704,606.6L704,702.5L715.8,702.6L715.8,599C715.7,583.9 713.7,568.8 709.9,554.1Z" style="fill:rgb(142,99,173);fill-rule:nonzero;"/>
        </g>
    </g>
    <g id="XMLID_8_" transform="matrix(1,0,0,1,134.216,64.989)">
        <path d="M707.9,555.1L698.5,519.4C694.8,505.1 682.6,494.7 667.9,493.1C625.9,488.6 575,486 515.6,486C447.6,486 343.1,491.2 311.7,494.8C306,495.4 301.1,499.1 298.8,504.4L279.9,548.6C271.2,564.2 265.9,581.4 264.4,599.2L264,698.6L285.1,699C285,697.6 284.9,696.2 284.9,694.8C284.9,663.9 309.9,638.9 340.8,638.9C371.7,638.9 396.7,663.9 396.7,694.8C396.7,696.6 396.6,698.4 396.4,700.1L543.4,701.9C543.1,699.6 542.9,697.2 542.9,694.8C542.9,663.9 567.9,638.9 598.8,638.9C629.7,638.9 654.7,663.9 654.7,694.8C654.7,697.6 654.5,700.3 654.1,703L713.4,703.6L713.4,600C713.7,584.9 711.7,569.8 707.9,555.1Z" style="fill:none;fill-rule:nonzero;stroke:rgb(82,49,96);stroke-width:8px;"/>
    </g>
    <g id="XMLID_117_" transform="matrix(1,0,0,1,134.216,64.989)">
        <path d="M599,740.7C573.7,740.7 553.1,720.1 553.1,694.8C553.1,669.5 573.7,648.9 599,648.9C624.3,648.9 644.9,669.5 644.9,694.8C644.9,720.1 624.3,740.7 599,740.7Z" style="fill:rgb(92,63,107);fill-rule:nonzero;"/>
    </g>
    <g id="XMLID_10_" transform="matrix(1,0,0,1,134.216,64.989)">
        <path d="M599,740.7C573.7,740.7 553.1,720.1 553.1,694.8C553.1,669.5 573.7,648.9 599,648.9C624.3,648.9 644.9,669.5 644.9,694.8C644.9,720.1 624.3,740.7 599,740.7Z" style="fill:none;fill-rule:nonzero;stroke:rgb(82,49,96);stroke-width:8px;"/>
    </g>
    <g id="XMLID_120_" transform="matrix(1,0,0,1,134.216,64.989)">
        <path d="M599,718.8C585.8,718.8 575,708 575,694.8C575,681.6 585.8,670.8 599,670.8C612.2,670.8 623,681.6 623,694.8C623,708 612.2,718.8 599,718.8Z" style="fill:rgb(253,200,88);fill-rule:nonzero;"/>
    </g>
    <g id="XMLID_12_" transform="matrix(1,0,0,1,134.216,64.989)">
        <path d="M599,718.8C585.8,718.8 575,708 575,694.8C575,681.6 585.8,670.8 599,670.8C612.2,670.8 623,681.6 623,694.8C623,708 612.2,718.8 599,718.8Z" style="fill:none;fill-rule:nonzero;stroke:rgb(82,49,96);stroke-width:8px;"/>
    </g>
    <g id="XMLID_125_" transform="matrix(1,0,0,1,134.216,64.989)">
        <path d="M599,702.7C594.6,702.7 591.1,699.1 591.1,694.8C591.1,690.4 594.7,686.9 599,686.9C603.4,686.9 606.9,690.5 606.9,694.8C606.9,699.1 603.4,702.7 599,702.7Z" style="fill:rgb(253,200,88);fill-rule:nonzero;"/>
    </g>
    <g id="XMLID_13_" transform="matrix(1,0,0,1,134.216,64.989)">
        <path d="M599,702.7C594.6,702.7 591.1,699.1 591.1,694.8C591.1,690.4 594.7,686.9 599,686.9C603.4,686.9 606.9,690.5 606.9,694.8C606.9,699.1 603.4,702.7 599,702.7Z" style="fill:none;fill-rule:nonzero;stroke:rgb(82,49,96);stroke-width:8px;"/>
    </g>
    <g id="XMLID_127_" transform="matrix(1,0,0,1,134.216,64.989)">
        <path d="M264,707.5L253.1,707.5C248.6,707.5 245,703.9 245,699.4L245,667.1C245,662.6 248.6,659 253.1,659L264,659L264,707.5Z" style="fill:white;fill-rule:nonzero;"/>
    </g>
    <g id="XMLID_6_" transform="matrix(1,0,0,1,134.216,64.989)">
        <path d="M264,707.5L253.1,707.5C248.6,707.5 245,703.9 245,699.4L245,667.1C245,662.6 248.6,659 253.1,659L264,659L264,707.5Z" style="fill:none;fill-rule:nonzero;stroke:rgb(82,49,96);stroke-width:8px;"/>
    </g>
    <g id="XMLID_128_" transform="matrix(1,0,0,1,134.216,64.989)">
        <path d="M265.6,646L261.6,646C258.6,646 256.2,643.6 256.2,640.6L256.2,615.8C256.2,612.8 258.6,610.4 261.6,610.4L265.6,610.4C268.6,610.4 271,612.8 271,615.8L271,640.6C271,643.6 268.6,646 265.6,646Z" style="fill:white;fill-rule:nonzero;"/>
    </g>
    <g id="XMLID_15_" transform="matrix(1,0,0,1,134.216,64.989)">
        <path d="M265.6,646L261.6,646C258.6,646 256.2,643.6 256.2,640.6L256.2,615.8C256.2,612.8 258.6,610.4 261.6,610.4L265.6,610.4C268.6,610.4 271,612.8 271,615.8L271,640.6C271,643.6 268.6,646 265.6,646Z" style="fill:none;fill-rule:nonzero;stroke:rgb(82,49,96);stroke-width:8px;"/>
    </g>
    <g id="XMLID_126_" transform="matrix(1,0,0,1,134.216,64.989)">
        <path d="M721.3,715.2L678.3,715.2C673.3,715.2 669.3,711.2 669.3,706.2L669.3,699.2C669.3,694.2 673.3,690.2 678.3,690.2L721.3,690.2C726.3,690.2 730.3,694.2 730.3,699.2L730.3,706.2C730.3,711.1 726.2,715.2 721.3,715.2Z" style="fill:white;fill-rule:nonzero;"/>
    </g>
    <g id="XMLID_294_" transform="matrix(1,0,0,1,134.216,64.989)">
        <path d="M678.9,705.5C678.9,703 681,700.9 683.5,700.9L730.2,700.9L730.2,699.2C730.2,694.2 726.2,690.2 721.2,690.2L678.2,690.2C673.2,690.2 669.2,694.2 669.2,699.2L669.2,706.2C669.2,711.2 673.2,715.2 678.2,715.2L678.9,715.2L678.9,705.5Z" style="fill:rgb(216,216,216);fill-rule:nonzero;"/>
    </g>
    <g id="XMLID_16_" transform="matrix(1,0,0,1,134.216,64.989)">
        <path d="M721.3,715.2L678.3,715.2C673.3,715.2 669.3,711.2 669.3,706.2L669.3,699.2C669.3,694.2 673.3,690.2 678.3,690.2L721.3,690.2C726.3,690.2 730.3,694.2 730.3,699.2L730.3,706.2C730.3,711.1 726.2,715.2 721.3,715.2Z" style="fill:none;fill-rule:nonzero;stroke:rgb(82,49,96);stroke-width:8px;"/>
    </g>
    <g id="XMLID_113_" transform="matrix(1,0,0,1,134.216,64.989)">
        <path d="M648.5,578.3L602.2,578.3C596.9,578.3 592.6,574 592.6,568.7L592.6,522C592.6,516.7 596.9,512.4 602.2,512.4L630.3,512.4C641.4,512.4 650.8,520.5 652.5,531.5L657.9,567.2C658.9,573.1 654.4,578.3 648.5,578.3Z" style="fill:rgb(253,200,88);fill-rule:nonzero;"/>
    </g>
    <g id="XMLID_293_" transform="matrix(1,0,0,1,134.216,64.989)">
        <path d="M612.2,533.5C612.2,528.2 616.5,523.9 621.8,523.9L649.9,523.9C646,517 638.6,512.5 630.3,512.5L602.2,512.5C596.9,512.5 592.6,516.8 592.6,522.1L592.6,568.8C592.6,574.1 596.9,578.4 602.2,578.4L612.2,578.4L612.2,533.5Z" style="fill:rgb(253,200,88);fill-opacity:0.56;fill-rule:nonzero;"/>
    </g>
    <g id="XMLID_17_" transform="matrix(1,0,0,1,134.216,64.989)">
        <path d="M648.5,578.3L602.2,578.3C596.9,578.3 592.6,574 592.6,568.7L592.6,522C592.6,516.7 596.9,512.4 602.2,512.4L630.3,512.4C641.4,512.4 650.8,520.5 652.5,531.5L657.9,567.2C658.9,573.1 654.4,578.3 648.5,578.3Z" style="fill:none;fill-rule:nonzero;stroke:rgb(82,49,96);stroke-width:8px;"/>
    </g>
    <g id="XMLID_99_" transform="matrix(1,0,0,1,134.216,64.989)">
        <path d="M561.8,577.3L459.6,577.3C454.3,577.3 450,573 450,567.7L450,521C450,515.7 454.3,511.4 459.6,511.4L561.8,511.4C567.1,511.4 571.4,515.7 571.4,521L571.4,567.7C571.3,573 567.1,577.3 561.8,577.3Z" style="fill:rgb(253,200,88);fill-rule:nonzero;"/>
    </g>
    <g id="XMLID_308_" transform="matrix(1,0,0,1,134.216,64.989)">
        <path d="M468.5,531.3C468.5,526 472.8,521.7 478.1,521.7L571.3,521.7L571.3,521C571.3,515.7 567,511.4 561.7,511.4L459.6,511.4C454.3,511.4 450,515.7 450,521L450,567.7C450,573 454.3,577.3 459.6,577.3L468.6,577.3L468.6,531.3L468.5,531.3Z" style="fill:rgb(253,200,88);fill-opacity:0.56;fill-rule:nonzero;"/>
    </g>
    <g id="XMLID_21_" transform="matrix(1,0,0,1,134.216,64.989)">
        <path d="M561.8,577.3L459.6,577.3C454.3,577.3 450,573 450,567.7L450,521C450,515.7 454.3,511.4 459.6,511.4L561.8,511.4C567.1,511.4 571.4,515.7 571.4,521L571.4,567.7C571.3,573 567.1,577.3 561.8,577.3Z" style="fill:none;fill-rule:nonzero;stroke:rgb(82,49,96);stroke-width:8px;"/>
    </g>
    <g id="XMLID_94_" transform="matrix(1,0,0,1,134.216,64.989)">
        <path d="M403.5,578.3L307.2,578.3C301.8,578.3 297.9,572.3 299.4,566.2L310.5,519.5C311.5,515.4 314.7,512.5 318.3,512.5L403.5,512.5C408,512.5 411.6,516.8 411.6,522.1L411.6,568.8C411.7,574 408,578.3 403.5,578.3Z" style="fill:rgb(253,200,88);fill-rule:nonzero;"/>
    </g>
    <g id="XMLID_316_" transform="matrix(1,0,0,1,134.216,64.989)">
        <path d="M317.4,576L328.5,529.3C329.5,525.2 332.7,522.3 336.3,522.3L411.6,522.3L411.6,522C411.6,516.7 408,512.4 403.5,512.4L318.3,512.4C314.7,512.4 311.5,515.3 310.5,519.4L299.4,566.1C298,572.2 301.8,578.2 307.2,578.2L317.1,578.2C317.2,577.5 317.3,576.8 317.4,576Z" style="fill:rgb(253,200,88);fill-opacity:0.56;fill-rule:nonzero;"/>
    </g>
    <g id="XMLID_22_" transform="matrix(1,0,0,1,134.216,64.989)">
        <path d="M403.5,578.3L307.2,578.3C301.8,578.3 297.9,572.3 299.4,566.2L310.5,519.5C311.5,515.4 314.7,512.5 318.3,512.5L403.5,512.5C408,512.5 411.6,516.8 411.6,522.1L411.6,568.8C411.7,574 408,578.3 403.5,578.3Z" style="fill:none;fill-rule:nonzero;stroke:rgb(82,49,96);stroke-width:8px;"/>
    </g>
    <g id="XMLID_20_" transform="matrix(1,0,0,1,134.216,64.989)">
        <path d="M413.4,490.7C424.8,490.7 434,499.9 434,511.3L434,700.5" style="fill:none;fill-rule:nonzero;stroke:rgb(82,49,96);stroke-opacity:0.48;stroke-width:2px;"/>
    </g>
    <g id="XMLID_24_" transform="matrix(1,0,0,1,134.216,64.989)">
        <path d="M386.8,602.3L416.8,602.3" style="fill:none;fill-rule:nonzero;stroke:rgb(82,49,96);stroke-width:8px;"/>
    </g>
    <g id="XMLID_150_" transform="matrix(1,0,0,1,134.216,64.989)">
        <path d="M542.5,600L568.1,600" style="fill:none;fill-rule:nonzero;stroke:rgb(82,49,96);stroke-width:8px;"/>
    </g>
    <g id="XMLID_289_" transform="matrix(1,0,0,1,134.216,64.989)">
        <path d="M716.3,669.5L712.4,669.5L712.4,574L716.3,574C722.9,574 728.3,579.4 728.3,586L728.3,657.5C728.3,664.1 722.9,669.5 716.3,669.5Z" style="fill:rgb(216,216,216);fill-rule:nonzero;"/>
    </g>
    <g id="XMLID_18_" transform="matrix(1,0,0,1,134.216,64.989)">
        <path d="M716.3,669.5L712.4,669.5L712.4,574L716.3,574C722.9,574 728.3,579.4 728.3,586L728.3,657.5C728.3,664.1 722.9,669.5 716.3,669.5Z" style="fill:none;fill-rule:nonzero;stroke:rgb(82,49,96);stroke-width:8px;"/>
    </g>
    <g id="XMLID_25_" transform="matrix(1,0,0,1,134.216,64.989)">
        <path d="M669.3,522.5L681.4,522.5" style="fill:none;fill-rule:nonzero;stroke:rgb(82,49,96);stroke-width:8px;"/>
    </g>
    <g id="XMLID_26_" transform="matrix(1,0,0,1,134.216,64.989)">
        <path d="M674.3,539.7L686.4,539.7" style="fill:none;fill-rule:nonzero;stroke:rgb(82,49,96);stroke-width:8px;"/>
    </g>
    <g id="XMLID_27_" transform="matrix(1,0,0,1,134.216,64.989)">
        <path d="M679,556.8L691.1,556.8" style="fill:none;fill-rule:nonzero;stroke:rgb(82,49,96);stroke-width:8px;"/>
    </g>
    <g id="XMLID_28_" transform="matrix(1,0,0,1,134.216,64.989)">
        <path d="M681,574L693.2,574" style="fill:none;fill-rule:nonzero;stroke:rgb(82,49,96);stroke-width:8px;"/>
    </g>
    <g id="XMLID_124_" transform="matrix(1,0,0,1,134.216,64.989)">
        <path d="M534.8,706.7L405.5,706.7C400.1,706.7 395.8,702.4 395.8,697C395.8,691.6 400.1,687.3 405.5,687.3L534.8,687.3C540.2,687.3 544.5,691.6 544.5,697C544.5,702.3 540.2,706.7 534.8,706.7Z" style="fill:white;fill-rule:nonzero;"/>
    </g>
    <g id="XMLID_141_" transform="matrix(1,0,0,1,134.216,64.989)">
        <path d="M534.8,706.7L405.5,706.7C400.1,706.7 395.8,702.4 395.8,697C395.8,691.6 400.1,687.3 405.5,687.3L534.8,687.3C540.2,687.3 544.5,691.6 544.5,697C544.5,702.3 540.2,706.7 534.8,706.7Z" style="fill:white;fill-rule:nonzero;"/>
    </g>
    <g id="XMLID_273_" transform="matrix(1,0,0,1,134.216,64.989)">
        <rect x="395.8" y="687.3" width="148.7" height="9.7" style="fill:rgb(216,216,216);"/>
    </g>
    <g id="XMLID_4_" transform="matrix(1,0,0,1,134.216,64.989)">
        <path d="M534.8,706.7L405.5,706.7C400.1,706.7 395.8,702.4 395.8,697C395.8,691.6 400.1,687.3 405.5,687.3L534.8,687.3C540.2,687.3 544.5,691.6 544.5,697C544.5,702.3 540.2,706.7 534.8,706.7Z" style="fill:none;fill-rule:nonzero;stroke:rgb(82,49,96);stroke-width:8px;"/>
    </g>
    <g id="XMLID_156_" transform="matrix(1,0,0,1,134.216,64.989)">
        <path d="M326.2,553.5L345.8,533.8" style="fill:none;fill-rule:nonzero;stroke:rgb(82,49,96);stroke-width:4px;"/>
    </g>
    <g id="XMLID_159_" transform="matrix(1,0,0,1,134.216,64.989)">
        <path d="M342.8,555.3L369.2,528.7" style="fill:none;fill-rule:nonzero;stroke:rgb(82,49,96);stroke-width:4px;"/>
    </g>
    <g id="XMLID_169_" transform="matrix(1,0,0,1,134.216,64.989)">
        <path d="M478.5,551.2L498,531.4" style="fill:none;fill-rule:nonzero;stroke:rgb(82,49,96);stroke-width:4px;"/>
    </g>
    <g id="XMLID_167_" transform="matrix(1,0,0,1,134.216,64.989)">
        <path d="M495.1,553L521.5,526.4" style="fill:none;fill-rule:nonzero;stroke:rgb(82,49,96);stroke-width:4px;"/>
    </g>
    <g id="XMLID_172_" transform="matrix(1,0,0,1,134.216,64.989)">
        <path d="M605.3,553.1L621.4,536.8" style="fill:none;fill-rule:nonzero;stroke:rgb(82,49,96);stroke-width:4px;"/>
    </g>
    <g id="XMLID_170_" transform="matrix(1,0,0,1,134.216,64.989)">
        <path d="M619,554.6L640.7,532.6" style="fill:none;fill-rule:nonzero;stroke:rgb(82,49,96);stroke-width:4px;"/>
    </g>
    <g id="XMLID_119_" transform="matrix(1,0,0,1,134.216,64.989)">
        <path d="M769.7,605.9L852.3,410.3C854.1,406.1 860.1,406.1 861.9,410.3L944.5,605.9C954.4,629.3 933.3,653.8 903.3,653.8L810.9,653.8C780.9,653.8 759.8,629.3 769.7,605.9Z" style="fill:rgb(253,200,88);fill-rule:nonzero;"/>
    </g>
    <g id="XMLID_133_" transform="matrix(1,0,0,1,134.216,64.989)">
        <path d="M769.7,605.9L852.3,410.3C854.1,406.1 860.1,406.1 861.9,410.3L944.5,605.9C954.4,629.3 933.3,653.8 903.3,653.8L810.9,653.8C780.9,653.8 759.8,629.3 769.7,605.9Z" style="fill:rgb(253,200,88);fill-rule:nonzero;"/>
    </g>
    <g id="XMLID_340_" transform="matrix(1,0,0,1,134.216,64.989)">
        <path d="M810.1,615.1L869,427L862,410.3C860.2,406.1 854.2,406.1 852.4,410.3L769.8,605.9C759.9,629.3 781,653.8 811,653.8L818,653.8C809.2,646.4 805.8,634.1 810.1,615.1Z" style="fill:rgb(253,200,88);fill-opacity:0.56;fill-rule:nonzero;"/>
    </g>
    <g id="XMLID_132_" transform="matrix(1,0,0,1,134.216,64.989)">
        <path d="M857.1,740.7L857.1,446.3" style="fill:none;fill-rule:nonzero;stroke:rgb(82,49,96);stroke-width:8px;"/>
    </g>
    <g id="XMLID_130_" transform="matrix(1,0,0,1,134.216,64.989)">
        <path d="M880.9,487.3L857.1,510L833.4,487.3" style="fill:none;fill-rule:nonzero;stroke:rgb(82,49,96);stroke-width:8px;"/>
    </g>
    <g id="XMLID_135_" transform="matrix(1,0,0,1,134.216,64.989)">
        <path d="M885.4,530.5L857.1,557.6L828.8,530.5" style="fill:none;fill-rule:nonzero;stroke:rgb(82,49,96);stroke-width:8px;"/>
    </g>
    <g id="XMLID_171_" transform="matrix(1,0,0,1,134.216,64.989)">
        <path d="M904.3,579.7L857.1,617.2L809.9,579.7" style="fill:none;fill-rule:nonzero;stroke:rgb(82,49,96);stroke-width:8px;"/>
    </g>
    <g id="XMLID_336_" transform="matrix(1,0,0,1,134.216,64.989)">
        <path d="M592,151.7L580,163.7L568,151.7" style="fill:none;fill-rule:nonzero;stroke:rgb(212,192,226);stroke-width:8px;"/>
    </g>
    <g id="XMLID_335_" transform="matrix(1,0,0,1,134.216,64.989)">
        <path d="M681.3,167.3L669.3,179.3L657.2,167.3" style="fill:none;fill-rule:nonzero;stroke:rgb(212,192,226);stroke-width:8px;"/>
    </g>
    <g id="XMLID_342_" transform="matrix(1,0,0,1,134.216,64.989)">
        <path d="M871.5,231.8L859.4,243.8L847.4,231.8" style="fill:none;fill-rule:nonzero;stroke:rgb(212,192,226);stroke-width:8px;"/>
    </g>
    <g id="XMLID_324_" transform="matrix(1,0,0,1,134.216,64.989)">
        <path d="M755,740.7L477,740.7" style="fill:none;fill-rule:nonzero;stroke:rgb(82,49,96);stroke-width:8px;"/>
    </g>
    <g id="XMLID_190_" transform="matrix(1,0,0,1,134.216,64.989)">
        <path d="M480.7,740.7L447,740.7" style="fill:none;fill-rule:nonzero;stroke:rgb(82,49,96);stroke-width:8px;"/>
    </g>
</svg>
