<?xml version="1.0" encoding="UTF-8" standalone="no"?><!DOCTYPE svg PUBLIC "-//W3C//DTD SVG 1.1//EN" "http://www.w3.org/Graphics/SVG/1.1/DTD/svg11.dtd"><svg width="100%" height="100%" viewBox="0 0 3334 2500" version="1.1" xmlns="http://www.w3.org/2000/svg" xmlns:xlink="http://www.w3.org/1999/xlink" xml:space="preserve" xmlns:serif="http://www.serif.com/" style="fill-rule:evenodd;clip-rule:evenodd;stroke-linecap:round;stroke-linejoin:round;stroke-miterlimit:10;"><path id="XMLID_115_" d="M1081.93,1786.03c-105.417,-0 -191.25,-85.834 -191.25,-191.25c-0,-105.417 85.833,-191.25 191.25,-191.25c105.416,-0 191.25,85.833 191.25,191.25c-0,105.416 -85.834,191.25 -191.25,191.25Z" style="fill:#5c3f6b;fill-rule:nonzero;"/><path id="XMLID_11_" d="M1081.93,1786.03c-105.417,-0 -191.25,-85.834 -191.25,-191.25c-0,-105.417 85.833,-191.25 191.25,-191.25c105.416,-0 191.25,85.833 191.25,191.25c-0,105.416 -85.834,191.25 -191.25,191.25Z" style="fill:none;fill-rule:nonzero;stroke:#523160;stroke-width:33.33px;"/><path id="XMLID_116_" d="M1081.93,1694.78c-55,-0 -100,-45 -100,-100c-0,-55 45,-100 100,-100c55,-0 100,45 100,100c-0,55 -45,100 -100,100Z" style="fill:#fdc858;fill-rule:nonzero;"/><path id="XMLID_9_" d="M1081.93,1694.78c-55,-0 -100,-45 -100,-100c-0,-55 45,-100 100,-100c55,-0 100,45 100,100c-0,55 -45,100 -100,100Z" style="fill:none;fill-rule:nonzero;stroke:#523160;stroke-width:33.33px;"/><path id="XMLID_123_" d="M1081.93,1627.7c-18.334,0 -32.917,-15 -32.917,-32.916c-0,-18.334 15,-32.917 32.917,-32.917c18.333,-0 32.916,15 32.916,32.917c0,17.916 -14.583,32.916 -32.916,32.916Z" style="fill:#fdc858;fill-rule:nonzero;"/><path id="XMLID_14_" d="M1081.93,1627.7c-18.334,0 -32.917,-15 -32.917,-32.916c-0,-18.334 15,-32.917 32.917,-32.917c18.333,-0 32.916,15 32.916,32.917c0,17.916 -14.583,32.916 -32.916,32.916Z" style="fill:none;fill-rule:nonzero;stroke:#523160;stroke-width:33.33px;"/><path id="XMLID_84_" d="M2611.1,1012.7l-39.166,-148.75c-15.417,-59.583 -66.25,-102.916 -127.5,-109.583c-175,-18.75 -387.084,-29.583 -634.584,-29.583c-283.333,-0 -718.75,21.666 -849.583,36.666c-23.75,2.5 -44.167,17.917 -53.75,40l-78.75,184.167c-36.25,65 -58.333,136.667 -64.583,210.833l-1.667,414.167l87.917,1.667c-0.417,-5.834 -0.834,-11.667 -0.834,-17.5c0,-128.75 104.167,-232.917 232.917,-232.917c128.75,-0 232.917,104.167 232.917,232.917c-0,7.5 -0.417,15 -1.25,22.083l612.5,7.5c-1.25,-9.583 -2.084,-19.583 -2.084,-29.583c0,-128.75 104.167,-232.917 232.917,-232.917c128.75,-0 232.917,104.167 232.917,232.917c-0,11.666 -0.834,22.916 -2.5,34.166l247.083,2.5l-0,-431.666c1.25,-62.917 -7.083,-125.834 -22.917,-187.084Z" style="fill:#8e63ad;fill-rule:nonzero;"/><g id="XMLID_304_" opacity="0.36"><path id="XMLID_306_" d="M808.183,1610.61l1.666,-414.167c6.25,-74.166 28.334,-145.833 64.584,-210.833l78.75,-184.167c9.583,-22.083 30,-37.083 53.75,-40c127.083,-14.583 540.833,-35.416 824.166,-36.666l-21.25,-0c-283.333,-0 -718.75,21.666 -849.583,36.666c-23.75,2.5 -44.167,17.917 -53.75,40l-78.75,184.167c-36.25,65 -58.333,136.667 -64.583,210.833l-1.667,414.167l87.917,1.667l-0,-0.834l-41.25,-0.833Z" style="fill:#8e63ad;fill-rule:nonzero;"/><path id="XMLID_312_" d="M2434.43,1628.95c1.666,-11.25 2.5,-22.5 2.5,-34.166c-0,-128.75 -104.167,-232.917 -232.917,-232.917c-7.917,-0 -15.417,0.417 -23.333,1.25c117.916,11.667 209.583,110.833 209.583,231.667c-0,11.666 -0.833,22.916 -2.5,34.166l247.083,2.5l0,-0.416l-200.416,-2.084Z" style="fill:#8e63ad;fill-rule:nonzero;"/><path id="XMLID_314_" d="M1360.27,1616.45c0.833,-7.083 1.25,-14.583 1.25,-22.083c-0,-128.75 -104.167,-232.917 -232.917,-232.917c-7.916,0 -15.416,0.417 -23.333,1.25c117.917,11.667 209.583,110.834 209.583,231.667c0,7.5 -0.416,15 -1.25,22.083l612.5,7.5l0,-0.416l-565.833,-7.084Z" style="fill:#8e63ad;fill-rule:nonzero;"/></g><path id="XMLID_331_" d="M1361.1,1578.95l556.667,0l-0,-55.416l-567.5,-0c5.833,17.916 9.167,36.25 10.833,55.416Z" style="fill:#8e63ad;fill-opacity:0.36;fill-rule:nonzero;"/><g id="XMLID_297_" opacity="0.25"><path id="XMLID_301_" d="M2619.43,1008.53l-39.167,-148.75c-15.417,-59.584 -66.25,-102.917 -127.5,-109.584c-175,-18.75 -387.083,-29.583 -634.583,-29.583c-283.334,-0 -718.75,21.667 -849.584,36.667c-20.416,2.5 -38.75,14.166 -49.166,31.666c-0,0 -0,-7.083 0.416,-7.083c130.834,-15 566.25,-29.583 849.584,-29.583c247.916,-0 459.583,10.833 634.583,29.583c61.25,6.667 111.667,50 127.5,109.583l39.167,148.75c16.25,61.25 24.166,124.167 24.166,187.084l0,399.583l49.167,0.417l-0,-431.667c-0.417,-62.917 -8.75,-125.833 -24.583,-187.083Z" style="fill:#8e63ad;fill-rule:nonzero;"/></g><path id="XMLID_8_" d="M2611.1,1012.7l-39.166,-148.75c-15.417,-59.583 -66.25,-102.916 -127.5,-109.583c-175,-18.75 -387.084,-29.583 -634.584,-29.583c-283.333,-0 -718.75,21.666 -849.583,36.666c-23.75,2.5 -44.167,17.917 -53.75,40l-78.75,184.167c-36.25,65 -58.333,136.667 -64.583,210.833l-1.667,414.167l87.917,1.667c-0.417,-5.834 -0.834,-11.667 -0.834,-17.5c0,-128.75 104.167,-232.917 232.917,-232.917c128.75,-0 232.917,104.167 232.917,232.917c-0,7.5 -0.417,15 -1.25,22.083l612.5,7.5c-1.25,-9.583 -2.084,-19.583 -2.084,-29.583c0,-128.75 104.167,-232.917 232.917,-232.917c128.75,-0 232.917,104.167 232.917,232.917c-0,11.666 -0.834,22.916 -2.5,34.166l247.083,2.5l-0,-431.666c1.25,-62.917 -7.083,-125.834 -22.917,-187.084Z" style="fill:none;fill-rule:nonzero;stroke:#523160;stroke-width:33.33px;"/><path id="XMLID_117_" d="M2157.35,1786.03c-105.416,-0 -191.25,-85.834 -191.25,-191.25c0,-105.417 85.834,-191.25 191.25,-191.25c105.417,-0 191.25,85.833 191.25,191.25c0,105.416 -85.833,191.25 -191.25,191.25Z" style="fill:#5c3f6b;fill-rule:nonzero;"/><path id="XMLID_10_" d="M2157.35,1786.03c-105.416,-0 -191.25,-85.834 -191.25,-191.25c0,-105.417 85.834,-191.25 191.25,-191.25c105.417,-0 191.25,85.833 191.25,191.25c0,105.416 -85.833,191.25 -191.25,191.25Z" style="fill:none;fill-rule:nonzero;stroke:#523160;stroke-width:33.33px;"/><path id="XMLID_120_" d="M2157.35,1694.78c-55,-0 -100,-45 -100,-100c0,-55 45,-100 100,-100c55,-0 100,45 100,100c0,55 -45,100 -100,100Z" style="fill:#fdc858;fill-rule:nonzero;"/><path id="XMLID_12_" d="M2157.35,1694.78c-55,-0 -100,-45 -100,-100c0,-55 45,-100 100,-100c55,-0 100,45 100,100c0,55 -45,100 -100,100Z" style="fill:none;fill-rule:nonzero;stroke:#523160;stroke-width:33.33px;"/><path id="XMLID_125_" d="M2157.35,1627.7c-18.333,0 -32.916,-15 -32.916,-32.916c-0,-18.334 15,-32.917 32.916,-32.917c18.334,-0 32.917,15 32.917,32.917c-0,17.916 -14.583,32.916 -32.917,32.916Z" style="fill:#fdc858;fill-rule:nonzero;"/><path id="XMLID_13_" d="M2157.35,1627.7c-18.333,0 -32.916,-15 -32.916,-32.916c-0,-18.334 15,-32.917 32.916,-32.917c18.334,-0 32.917,15 32.917,32.917c-0,17.916 -14.583,32.916 -32.917,32.916Z" style="fill:none;fill-rule:nonzero;stroke:#523160;stroke-width:33.33px;"/><path id="XMLID_127_" d="M761.516,1647.7l-45.417,0c-18.75,0 -33.75,-15 -33.75,-33.75l0,-134.583c0,-18.75 15,-33.75 33.75,-33.75l45.417,-0l-0,202.083Z" style="fill:#fff;fill-rule:nonzero;"/><path id="XMLID_6_" d="M761.516,1647.7l-45.417,0c-18.75,0 -33.75,-15 -33.75,-33.75l0,-134.583c0,-18.75 15,-33.75 33.75,-33.75l45.417,-0l-0,202.083Z" style="fill:none;fill-rule:nonzero;stroke:#523160;stroke-width:33.33px;"/><path id="XMLID_128_" d="M768.183,1391.45l-16.667,0c-12.5,0 -22.5,-10 -22.5,-22.5l-0,-103.333c-0,-12.5 10,-22.5 22.5,-22.5l16.667,-0c12.5,-0 22.5,10 22.5,22.5l-0,103.333c-0,12.5 -10,22.5 -22.5,22.5Z" style="fill:#fff;fill-rule:nonzero;"/><path id="XMLID_15_" d="M768.183,1391.45l-16.667,0c-12.5,0 -22.5,-10 -22.5,-22.5l-0,-103.333c-0,-12.5 10,-22.5 22.5,-22.5l16.667,-0c12.5,-0 22.5,10 22.5,22.5l-0,103.333c-0,12.5 -10,22.5 -22.5,22.5Z" style="fill:none;fill-rule:nonzero;stroke:#523160;stroke-width:33.33px;"/><path id="XMLID_126_" d="M2666.93,1679.78l-179.167,-0c-20.833,-0 -37.5,-16.667 -37.5,-37.5l-0,-29.167c-0,-20.833 16.667,-37.5 37.5,-37.5l179.167,-0c20.833,-0 37.5,16.667 37.5,37.5l-0,29.167c-0,20.416 -17.084,37.5 -37.5,37.5Z" style="fill:#fff;fill-rule:nonzero;"/><path id="XMLID_294_" d="M2490.27,1639.36c-0,-10.417 8.75,-19.167 19.167,-19.167l194.583,0l-0,-7.083c-0,-20.833 -16.667,-37.5 -37.5,-37.5l-179.167,-0c-20.833,-0 -37.5,16.667 -37.5,37.5l0,29.167c0,20.833 16.667,37.5 37.5,37.5l2.917,-0l-0,-40.417Z" style="fill:#d8d8d8;fill-rule:nonzero;"/><path id="XMLID_16_" d="M2666.93,1679.78l-179.167,-0c-20.833,-0 -37.5,-16.667 -37.5,-37.5l-0,-29.167c-0,-20.833 16.667,-37.5 37.5,-37.5l179.167,-0c20.833,-0 37.5,16.667 37.5,37.5l-0,29.167c-0,20.416 -17.084,37.5 -37.5,37.5Z" style="fill:none;fill-rule:nonzero;stroke:#523160;stroke-width:33.33px;"/><path id="XMLID_113_" d="M2363.6,1109.36l-192.916,-0c-22.084,-0 -40,-17.917 -40,-40l-0,-194.583c-0,-22.084 17.916,-40 40,-40l117.083,-0c46.25,-0 85.417,33.75 92.5,79.583l22.5,148.75c4.167,24.583 -14.583,46.25 -39.167,46.25Z" style="fill:#fdc858;fill-rule:nonzero;"/><path id="XMLID_293_" d="M2212.35,922.696c0,-22.083 17.917,-40 40,-40l117.084,0c-16.25,-28.75 -47.084,-47.5 -81.667,-47.5l-117.083,0c-22.084,0 -40,17.917 -40,40l-0,194.584c-0,22.083 17.916,40 40,40l41.666,-0l0,-187.084Z" style="fill:#fdc858;fill-opacity:0.56;fill-rule:nonzero;"/><path id="XMLID_17_" d="M2363.6,1109.36l-192.916,-0c-22.084,-0 -40,-17.917 -40,-40l-0,-194.583c-0,-22.084 17.916,-40 40,-40l117.083,-0c46.25,-0 85.417,33.75 92.5,79.583l22.5,148.75c4.167,24.583 -14.583,46.25 -39.167,46.25Z" style="fill:none;fill-rule:nonzero;stroke:#523160;stroke-width:33.33px;"/><path id="XMLID_99_" d="M2002.35,1105.2l-425.833,0c-22.083,0 -40,-17.916 -40,-40l-0,-194.583c-0,-22.083 17.917,-40 40,-40l425.833,-0c22.084,-0 40,17.917 40,40l0,194.583c-0.416,22.084 -17.916,40 -40,40Z" style="fill:#fdc858;fill-rule:nonzero;"/><path id="XMLID_308_" d="M1613.6,913.53c0,-22.084 17.917,-40 40,-40l388.334,-0l-0,-2.917c-0,-22.083 -17.917,-40 -40,-40l-425.417,-0c-22.083,-0 -40,17.917 -40,40l-0,194.583c-0,22.084 17.917,40 40,40l37.5,0l-0,-191.666l-0.417,-0Z" style="fill:#fdc858;fill-opacity:0.56;fill-rule:nonzero;"/><path id="XMLID_21_" d="M2002.35,1105.2l-425.833,0c-22.083,0 -40,-17.916 -40,-40l-0,-194.583c-0,-22.083 17.917,-40 40,-40l425.833,-0c22.084,-0 40,17.917 40,40l0,194.583c-0.416,22.084 -17.916,40 -40,40Z" style="fill:none;fill-rule:nonzero;stroke:#523160;stroke-width:33.33px;"/><path id="XMLID_94_" d="M1342.77,1109.36l-401.25,-0c-22.5,-0 -38.75,-25 -32.5,-50.417l46.25,-194.583c4.167,-17.083 17.5,-29.167 32.5,-29.167l355,0c18.75,0 33.75,17.917 33.75,40l-0,194.584c0.417,21.666 -15,39.583 -33.75,39.583Z" style="fill:#fdc858;fill-rule:nonzero;"/><path id="XMLID_316_" d="M984.016,1099.78l46.25,-194.584c4.167,-17.083 17.5,-29.166 32.5,-29.166l313.75,-0l-0,-1.25c-0,-22.084 -15,-40 -33.75,-40l-355,-0c-15,-0 -28.333,12.083 -32.5,29.166l-46.25,194.584c-5.833,25.416 10,50.416 32.5,50.416l41.25,0c0.417,-2.916 0.833,-5.833 1.25,-9.166Z" style="fill:#fdc858;fill-opacity:0.56;fill-rule:nonzero;"/><path id="XMLID_22_" d="M1342.77,1109.36l-401.25,-0c-22.5,-0 -38.75,-25 -32.5,-50.417l46.25,-194.583c4.167,-17.083 17.5,-29.167 32.5,-29.167l355,0c18.75,0 33.75,17.917 33.75,40l-0,194.584c0.417,21.666 -15,39.583 -33.75,39.583Z" style="fill:none;fill-rule:nonzero;stroke:#523160;stroke-width:33.33px;"/><path id="XMLID_20_" d="M1384.02,744.363c47.5,-0 85.833,38.333 85.833,85.833l0,788.334" style="fill:none;fill-rule:nonzero;stroke:#523160;stroke-opacity:0.48;stroke-width:8.33px;"/><path id="XMLID_24_" d="M1273.18,1209.36l125,-0" style="fill:none;fill-rule:nonzero;stroke:#523160;stroke-width:33.33px;"/><path id="XMLID_150_" d="M1921.93,1199.78l106.666,-0" style="fill:none;fill-rule:nonzero;stroke:#523160;stroke-width:33.33px;"/><path id="XMLID_289_" d="M2646.1,1489.36l-16.25,-0l0,-397.917l16.25,0c27.5,0 50,22.5 50,50l0,297.917c0,27.5 -22.5,50 -50,50Z" style="fill:#d8d8d8;fill-rule:nonzero;"/><path id="XMLID_18_" d="M2646.1,1489.36l-16.25,-0l0,-397.917l16.25,0c27.5,0 50,22.5 50,50l0,297.917c0,27.5 -22.5,50 -50,50Z" style="fill:none;fill-rule:nonzero;stroke:#523160;stroke-width:33.33px;"/><path id="XMLID_25_" d="M2450.27,876.863l50.417,-0" style="fill:none;fill-rule:nonzero;stroke:#523160;stroke-width:33.33px;"/><path id="XMLID_26_" d="M2471.1,948.53l50.417,-0" style="fill:none;fill-rule:nonzero;stroke:#523160;stroke-width:33.33px;"/><path id="XMLID_27_" d="M2490.68,1019.78l50.416,-0" style="fill:none;fill-rule:nonzero;stroke:#523160;stroke-width:33.33px;"/><path id="XMLID_28_" d="M2499.02,1091.45l50.833,0" style="fill:none;fill-rule:nonzero;stroke:#523160;stroke-width:33.33px;"/><path id="XMLID_124_" d="M1889.85,1644.36l-538.75,-0c-22.5,-0 -40.416,-17.917 -40.416,-40.417c-0,-22.5 17.916,-40.416 40.416,-40.416l538.75,-0c22.5,-0 40.417,17.916 40.417,40.416c-0,22.084 -17.917,40.417 -40.417,40.417Z" style="fill:#fff;fill-rule:nonzero;"/><path id="XMLID_141_" d="M1889.85,1644.36l-538.75,-0c-22.5,-0 -40.416,-17.917 -40.416,-40.417c-0,-22.5 17.916,-40.416 40.416,-40.416l538.75,-0c22.5,-0 40.417,17.916 40.417,40.416c-0,22.084 -17.917,40.417 -40.417,40.417Z" style="fill:#fff;fill-rule:nonzero;"/><rect id="XMLID_273_" x="1310.68" y="1563.53" width="619.583" height="40.417" style="fill:#d8d8d8;"/><path id="XMLID_4_" d="M1889.85,1644.36l-538.75,-0c-22.5,-0 -40.416,-17.917 -40.416,-40.417c-0,-22.5 17.916,-40.416 40.416,-40.416l538.75,-0c22.5,-0 40.417,17.916 40.417,40.416c-0,22.084 -17.917,40.417 -40.417,40.417Z" style="fill:none;fill-rule:nonzero;stroke:#523160;stroke-width:33.33px;"/><path id="XMLID_156_" d="M1020.68,1006.03l81.666,-82.084" style="fill:none;fill-rule:nonzero;stroke:#523160;stroke-width:16.67px;"/><path id="XMLID_159_" d="M1089.85,1013.53l110,-110.834" style="fill:none;fill-rule:nonzero;stroke:#523160;stroke-width:16.67px;"/><path id="XMLID_169_" d="M1655.27,996.446l81.25,-82.5" style="fill:none;fill-rule:nonzero;stroke:#523160;stroke-width:16.67px;"/><path id="XMLID_167_" d="M1724.43,1003.95l110,-110.833" style="fill:none;fill-rule:nonzero;stroke:#523160;stroke-width:16.67px;"/><path id="XMLID_172_" d="M2183.6,1004.36l67.084,-67.917" style="fill:none;fill-rule:nonzero;stroke:#523160;stroke-width:16.67px;"/><path id="XMLID_170_" d="M2240.68,1010.61l90.416,-91.667" style="fill:none;fill-rule:nonzero;stroke:#523160;stroke-width:16.67px;"/><path id="XMLID_190_" d="M1664.43,1786.03l-140.417,-0" style="fill:none;fill-rule:nonzero;stroke:#523160;stroke-width:33.33px;"/></svg>